<?xml version="1.0" encoding="UTF-8" standalone="no"?>
<!DOCTYPE svg PUBLIC "-//W3C//DTD SVG 1.1//EN"
 "http://www.w3.org/Graphics/SVG/1.1/DTD/svg11.dtd">
<!-- Generated by graphviz version 2.43.0 (0)
 -->
<!-- Title: sb::gamestate::GameWorld::remove_component Pages: 1 -->
<svg width="342pt" height="134pt"
 viewBox="0.00 0.00 342.00 134.00" xmlns="http://www.w3.org/2000/svg" xmlns:xlink="http://www.w3.org/1999/xlink">
<g id="graph0" class="graph" transform="scale(1 1) rotate(0) translate(4 130)">
<title>sb::gamestate::GameWorld::remove_component</title>
<!-- Node1 -->
<g id="Node000001" class="node">
<title>Node1</title>
<g id="a_Node000001"><a xlink:title=" ">
<polygon fill="#999999" stroke="#666666" points="334,-78 185,-78 185,-48 334,-48 334,-78"/>
<text text-anchor="start" x="193" y="-66" font-family="Helvetica,sans-Serif" font-size="10.00">sb::gamestate::GameWorld</text>
<text text-anchor="middle" x="259.5" y="-55" font-family="Helvetica,sans-Serif" font-size="10.00">::remove_component</text>
</a>
</g>
</g>
<!-- Node2 -->
<g id="Node000002" class="node">
<title>Node2</title>
<g id="a_Node000002"><a xlink:href="classsb_1_1ecs_1_1DestructionSystem.html#a3214ef88cd3ccbf2d36206c033eab87a" target="_top" xlink:title="Checks for pending destruction and destroys entities as needed.">
<polygon fill="white" stroke="#666666" points="149,-126 0,-126 0,-96 149,-96 149,-126"/>
<text text-anchor="start" x="8" y="-114" font-family="Helvetica,sans-Serif" font-size="10.00">sb::ecs::DestructionSystem</text>
<text text-anchor="middle" x="74.5" y="-103" font-family="Helvetica,sans-Serif" font-size="10.00">::update</text>
</a>
</g>
</g>
<!-- Node1&#45;&gt;Node2 -->
<g id="edge1_Node000001_Node000002" class="edge">
<title>Node1&#45;&gt;Node2</title>
<g id="a_edge1_Node000001_Node000002"><a xlink:title=" ">
<path fill="none" stroke="#63b8ff" d="M191.21,-80.65C172,-85.69 151.25,-91.13 132.7,-96"/>
<polygon fill="#63b8ff" stroke="#63b8ff" points="192.31,-83.98 201.1,-78.06 190.54,-77.21 192.31,-83.98"/>
</a>
</g>
</g>
<!-- Node3 -->
<g id="Node000003" class="node">
<title>Node3</title>
<g id="a_Node000003"><a xlink:href="classsb_1_1ecs_1_1HitSystem.html#a913b4aabdab06bc20aa51618d7b274b4" target="_top" xlink:title="Checks for pending hits and applies them as appropriate.">
<polygon fill="white" stroke="#666666" points="128,-78 21,-78 21,-48 128,-48 128,-78"/>
<text text-anchor="start" x="29" y="-66" font-family="Helvetica,sans-Serif" font-size="10.00">sb::ecs::HitSystem</text>
<text text-anchor="middle" x="74.5" y="-55" font-family="Helvetica,sans-Serif" font-size="10.00">::update</text>
</a>
</g>
</g>
<!-- Node1&#45;&gt;Node3 -->
<g id="edge2_Node000001_Node000003" class="edge">
<title>Node1&#45;&gt;Node3</title>
<g id="a_edge2_Node000001_Node000003"><a xlink:title=" ">
<path fill="none" stroke="#63b8ff" d="M174.55,-63C158.76,-63 142.68,-63 128.19,-63"/>
<polygon fill="#63b8ff" stroke="#63b8ff" points="174.86,-66.5 184.86,-63 174.86,-59.5 174.86,-66.5"/>
</a>
</g>
</g>
<!-- Node4 -->
<g id="Node000004" class="node">
<title>Node4</title>
<g id="a_Node000004"><a xlink:href="classsb_1_1ecs_1_1TriggerSystem.html#ad424de71257df5c193e662827a0679c4" target="_top" xlink:title="Checks for WasTriggered and forwards on to other systems, as needed.">
<polygon fill="white" stroke="#666666" points="137.5,-30 11.5,-30 11.5,0 137.5,0 137.5,-30"/>
<text text-anchor="start" x="19.5" y="-18" font-family="Helvetica,sans-Serif" font-size="10.00">sb::ecs::TriggerSystem</text>
<text text-anchor="middle" x="74.5" y="-7" font-family="Helvetica,sans-Serif" font-size="10.00">::update</text>
</a>
</g>
</g>
<!-- Node1&#45;&gt;Node4 -->
<g id="edge3_Node000001_Node000004" class="edge">
<title>Node1&#45;&gt;Node4</title>
<g id="a_edge3_Node000001_Node000004"><a xlink:title=" ">
<path fill="none" stroke="#63b8ff" d="M191.21,-45.35C172,-40.31 151.25,-34.87 132.7,-30"/>
<polygon fill="#63b8ff" stroke="#63b8ff" points="190.54,-48.79 201.1,-47.94 192.31,-42.02 190.54,-48.79"/>
</a>
</g>
</g>
</g>
</svg>
