<?xml version="1.0" encoding="UTF-8" standalone="no"?>
<!DOCTYPE svg PUBLIC "-//W3C//DTD SVG 1.1//EN"
 "http://www.w3.org/Graphics/SVG/1.1/DTD/svg11.dtd">
<!-- Generated by graphviz version 2.43.0 (0)
 -->
<!-- Title: sb::ecs::ComponentManager::try_get_component_type Pages: 1 -->
<svg width="354pt" height="278pt"
 viewBox="0.00 0.00 354.00 278.00" xmlns="http://www.w3.org/2000/svg" xmlns:xlink="http://www.w3.org/1999/xlink">
<g id="graph0" class="graph" transform="scale(1 1) rotate(0) translate(4 274)">
<title>sb::ecs::ComponentManager::try_get_component_type</title>
<!-- Node1 -->
<g id="Node000001" class="node">
<title>Node1</title>
<g id="a_Node000001"><a xlink:title=" ">
<polygon fill="#999999" stroke="#666666" points="346,-150 191,-150 191,-120 346,-120 346,-150"/>
<text text-anchor="start" x="199" y="-138" font-family="Helvetica,sans-Serif" font-size="10.00">sb::ecs::ComponentManager</text>
<text text-anchor="middle" x="268.5" y="-127" font-family="Helvetica,sans-Serif" font-size="10.00">::try_get_component_type</text>
</a>
</g>
</g>
<!-- Node1&#45;&gt;Node1 -->
<g id="edge7_Node000001_Node000001" class="edge">
<title>Node1&#45;&gt;Node1</title>
<g id="a_edge7_Node000001_Node000001"><a xlink:title=" ">
<path fill="none" stroke="#63b8ff" d="M301.76,-160.6C297.21,-164.97 286.13,-168 268.5,-168 238.81,-168 227.68,-159.41 235.1,-150.28"/>
<polygon fill="#63b8ff" stroke="#63b8ff" points="305.26,-160.32 301.9,-150.28 298.26,-160.23 305.26,-160.32"/>
</a>
</g>
</g>
<!-- Node2 -->
<g id="Node000002" class="node">
<title>Node2</title>
<g id="a_Node000002"><a xlink:href="classsb_1_1ecs_1_1ComponentManager.html#a483646b6b2c00e1c33bb1a591f30f822" target="_top" xlink:title=" ">
<polygon fill="white" stroke="#666666" points="155,-270 0,-270 0,-240 155,-240 155,-270"/>
<text text-anchor="start" x="8" y="-258" font-family="Helvetica,sans-Serif" font-size="10.00">sb::ecs::ComponentManager</text>
<text text-anchor="middle" x="77.5" y="-247" font-family="Helvetica,sans-Serif" font-size="10.00">::add_component</text>
</a>
</g>
</g>
<!-- Node1&#45;&gt;Node2 -->
<g id="edge1_Node000001_Node000002" class="edge">
<title>Node1&#45;&gt;Node2</title>
<g id="a_edge1_Node000001_Node000002"><a xlink:title=" ">
<path fill="none" stroke="#63b8ff" d="M246.48,-157.58C225.27,-179.18 190.62,-211.3 155,-231 148.91,-234.37 142.28,-237.34 135.55,-239.93"/>
<polygon fill="#63b8ff" stroke="#63b8ff" points="249.24,-159.77 253.67,-150.15 244.21,-154.91 249.24,-159.77"/>
</a>
</g>
</g>
<!-- Node3 -->
<g id="Node000003" class="node">
<title>Node3</title>
<g id="a_Node000003"><a xlink:href="classsb_1_1ecs_1_1ComponentManager.html#aa5d1864075c5ece5b68240bba538a85d" target="_top" xlink:title=" ">
<polygon fill="white" stroke="#666666" points="155,-222 0,-222 0,-192 155,-192 155,-222"/>
<text text-anchor="start" x="8" y="-210" font-family="Helvetica,sans-Serif" font-size="10.00">sb::ecs::ComponentManager</text>
<text text-anchor="middle" x="77.5" y="-199" font-family="Helvetica,sans-Serif" font-size="10.00">::entity_destroyed</text>
</a>
</g>
</g>
<!-- Node1&#45;&gt;Node3 -->
<g id="edge2_Node000001_Node000003" class="edge">
<title>Node1&#45;&gt;Node3</title>
<g id="a_edge2_Node000001_Node000003"><a xlink:title=" ">
<path fill="none" stroke="#63b8ff" d="M225.13,-154.26C204.22,-163.46 178.49,-174.33 155,-183 146.64,-186.09 137.68,-189.13 128.94,-191.96"/>
<polygon fill="#63b8ff" stroke="#63b8ff" points="226.65,-157.41 234.38,-150.16 223.81,-151.01 226.65,-157.41"/>
</a>
</g>
</g>
<!-- Node4 -->
<g id="Node000004" class="node">
<title>Node4</title>
<g id="a_Node000004"><a xlink:href="classsb_1_1ecs_1_1ComponentManager.html#ad1829095b8fc57b0f93d2f7f7e42f43e" target="_top" xlink:title=" ">
<polygon fill="white" stroke="#666666" points="155,-174 0,-174 0,-144 155,-144 155,-174"/>
<text text-anchor="start" x="8" y="-162" font-family="Helvetica,sans-Serif" font-size="10.00">sb::ecs::ComponentManager</text>
<text text-anchor="middle" x="77.5" y="-151" font-family="Helvetica,sans-Serif" font-size="10.00">::get_component</text>
</a>
</g>
</g>
<!-- Node1&#45;&gt;Node4 -->
<g id="edge3_Node000001_Node000004" class="edge">
<title>Node1&#45;&gt;Node4</title>
<g id="a_edge3_Node000001_Node000004"><a xlink:title=" ">
<path fill="none" stroke="#63b8ff" d="M180.9,-146C172.33,-147.09 163.67,-148.18 155.21,-149.26"/>
<polygon fill="#63b8ff" stroke="#63b8ff" points="181.42,-149.46 190.9,-144.73 180.54,-142.51 181.42,-149.46"/>
</a>
</g>
</g>
<!-- Node5 -->
<g id="Node000005" class="node">
<title>Node5</title>
<g id="a_Node000005"><a xlink:href="classsb_1_1ecs_1_1ComponentManager.html#a30ed0816113fb8b7ba44ce6d1fc26d33" target="_top" xlink:title=" ">
<polygon fill="white" stroke="#666666" points="155,-126 0,-126 0,-96 155,-96 155,-126"/>
<text text-anchor="start" x="8" y="-114" font-family="Helvetica,sans-Serif" font-size="10.00">sb::ecs::ComponentManager</text>
<text text-anchor="middle" x="77.5" y="-103" font-family="Helvetica,sans-Serif" font-size="10.00">::get_component_type</text>
</a>
</g>
</g>
<!-- Node1&#45;&gt;Node5 -->
<g id="edge4_Node000001_Node000005" class="edge">
<title>Node1&#45;&gt;Node5</title>
<g id="a_edge4_Node000001_Node000005"><a xlink:title=" ">
<path fill="none" stroke="#63b8ff" d="M180.9,-124C172.33,-122.91 163.67,-121.82 155.21,-120.74"/>
<polygon fill="#63b8ff" stroke="#63b8ff" points="180.54,-127.49 190.9,-125.27 181.42,-120.54 180.54,-127.49"/>
</a>
</g>
</g>
<!-- Node6 -->
<g id="Node000006" class="node">
<title>Node6</title>
<g id="a_Node000006"><a xlink:href="classsb_1_1ecs_1_1ComponentManager.html#a67e4c4d40bb97e2c52d0d3c639de8c52" target="_top" xlink:title=" ">
<polygon fill="white" stroke="#666666" points="155,-78 0,-78 0,-48 155,-48 155,-78"/>
<text text-anchor="start" x="8" y="-66" font-family="Helvetica,sans-Serif" font-size="10.00">sb::ecs::ComponentManager</text>
<text text-anchor="middle" x="77.5" y="-55" font-family="Helvetica,sans-Serif" font-size="10.00">::has_component</text>
</a>
</g>
</g>
<!-- Node1&#45;&gt;Node6 -->
<g id="edge5_Node000001_Node000006" class="edge">
<title>Node1&#45;&gt;Node6</title>
<g id="a_edge5_Node000001_Node000006"><a xlink:title=" ">
<path fill="none" stroke="#63b8ff" d="M225.13,-115.74C204.22,-106.54 178.49,-95.67 155,-87 146.64,-83.91 137.68,-80.87 128.94,-78.04"/>
<polygon fill="#63b8ff" stroke="#63b8ff" points="223.81,-118.99 234.38,-119.84 226.65,-112.59 223.81,-118.99"/>
</a>
</g>
</g>
<!-- Node7 -->
<g id="Node000007" class="node">
<title>Node7</title>
<g id="a_Node000007"><a xlink:href="classsb_1_1ecs_1_1ComponentManager.html#a545fd4d7f0acd6cd64f951e05d60ffc3" target="_top" xlink:title=" ">
<polygon fill="white" stroke="#666666" points="155,-30 0,-30 0,0 155,0 155,-30"/>
<text text-anchor="start" x="8" y="-18" font-family="Helvetica,sans-Serif" font-size="10.00">sb::ecs::ComponentManager</text>
<text text-anchor="middle" x="77.5" y="-7" font-family="Helvetica,sans-Serif" font-size="10.00">::remove_component</text>
</a>
</g>
</g>
<!-- Node1&#45;&gt;Node7 -->
<g id="edge6_Node000001_Node000007" class="edge">
<title>Node1&#45;&gt;Node7</title>
<g id="a_edge6_Node000001_Node000007"><a xlink:title=" ">
<path fill="none" stroke="#63b8ff" d="M246.48,-112.42C225.27,-90.82 190.62,-58.7 155,-39 148.91,-35.63 142.28,-32.66 135.55,-30.07"/>
<polygon fill="#63b8ff" stroke="#63b8ff" points="244.21,-115.09 253.67,-119.85 249.24,-110.23 244.21,-115.09"/>
</a>
</g>
</g>
</g>
</svg>
