<?xml version="1.0" encoding="UTF-8" standalone="no"?>
<!DOCTYPE svg PUBLIC "-//W3C//DTD SVG 1.1//EN"
 "http://www.w3.org/Graphics/SVG/1.1/DTD/svg11.dtd">
<!-- Generated by graphviz version 2.43.0 (0)
 -->
<!-- Title: sb::ecs::EntityManager::set_signature Pages: 1 -->
<svg width="618pt" height="60pt"
 viewBox="0.00 0.00 618.00 60.00" xmlns="http://www.w3.org/2000/svg" xmlns:xlink="http://www.w3.org/1999/xlink">
<g id="graph0" class="graph" transform="scale(1 1) rotate(0) translate(4 56)">
<title>sb::ecs::EntityManager::set_signature</title>
<!-- Node1 -->
<g id="Node000001" class="node">
<title>Node1</title>
<g id="a_Node000001"><a xlink:title=" ">
<polygon fill="#999999" stroke="#666666" points="128,-30 0,-30 0,0 128,0 128,-30"/>
<text text-anchor="start" x="8" y="-18" font-family="Helvetica,sans-Serif" font-size="10.00">sb::ecs::EntityManager</text>
<text text-anchor="middle" x="64" y="-7" font-family="Helvetica,sans-Serif" font-size="10.00">::set_signature</text>
</a>
</g>
</g>
<!-- Node2 -->
<g id="Node000002" class="node">
<title>Node2</title>
<g id="a_Node000002"><a xlink:href="classsb_1_1ecs_1_1EntityManager.html#a12d8a6fff20946dfa3ea68a24946774d" target="_top" xlink:title=" ">
<polygon fill="white" stroke="#666666" points="292,-52 164,-52 164,-22 292,-22 292,-52"/>
<text text-anchor="start" x="172" y="-40" font-family="Helvetica,sans-Serif" font-size="10.00">sb::ecs::EntityManager</text>
<text text-anchor="middle" x="228" y="-29" font-family="Helvetica,sans-Serif" font-size="10.00">::get_signature</text>
</a>
</g>
</g>
<!-- Node1&#45;&gt;Node2 -->
<g id="edge1_Node000001_Node000002" class="edge">
<title>Node1&#45;&gt;Node2</title>
<g id="a_edge1_Node000001_Node000002"><a xlink:title=" ">
<path fill="none" stroke="#63b8ff" d="M128.1,-23.57C136.53,-24.71 145.23,-25.9 153.81,-27.06"/>
<polygon fill="#63b8ff" stroke="#63b8ff" points="153.43,-30.54 163.81,-28.42 154.37,-23.6 153.43,-30.54"/>
</a>
</g>
</g>
<!-- Node4 -->
<g id="Node000004" class="node">
<title>Node4</title>
<g id="a_Node000004"><a xlink:href="classsb_1_1log_1_1Logger.html#aece2091991667b9ec7ed33de30e8b53b" target="_top" xlink:title=" ">
<polygon fill="white" stroke="#666666" points="610,-24.5 492,-24.5 492,-5.5 610,-5.5 610,-24.5"/>
<text text-anchor="middle" x="551" y="-12.5" font-family="Helvetica,sans-Serif" font-size="10.00">sb::log::Logger::warn</text>
</a>
</g>
</g>
<!-- Node1&#45;&gt;Node4 -->
<g id="edge4_Node000001_Node000004" class="edge">
<title>Node1&#45;&gt;Node4</title>
<g id="a_edge4_Node000001_Node000004"><a xlink:title=" ">
<path fill="none" stroke="#63b8ff" d="M128.11,-13.53C140.03,-13.31 152.4,-13.12 164,-13 293.77,-11.69 326.23,-11.62 456,-13 464.33,-13.09 473.07,-13.22 481.74,-13.38"/>
<polygon fill="#63b8ff" stroke="#63b8ff" points="481.77,-16.88 491.84,-13.57 481.91,-9.88 481.77,-16.88"/>
</a>
</g>
</g>
<!-- Node3 -->
<g id="Node000003" class="node">
<title>Node3</title>
<g id="a_Node000003"><a xlink:href="classsb_1_1ecs_1_1EntityManager.html#a5f74c882a45e9aca8cb46f303f5e41eb" target="_top" xlink:title=" ">
<polygon fill="white" stroke="#666666" points="456,-52 328,-52 328,-22 456,-22 456,-52"/>
<text text-anchor="start" x="336" y="-40" font-family="Helvetica,sans-Serif" font-size="10.00">sb::ecs::EntityManager</text>
<text text-anchor="middle" x="392" y="-29" font-family="Helvetica,sans-Serif" font-size="10.00">::try_get_signature</text>
</a>
</g>
</g>
<!-- Node2&#45;&gt;Node3 -->
<g id="edge2_Node000002_Node000003" class="edge">
<title>Node2&#45;&gt;Node3</title>
<g id="a_edge2_Node000002_Node000003"><a xlink:title=" ">
<path fill="none" stroke="#63b8ff" d="M292.1,-37C300.43,-37 309.04,-37 317.53,-37"/>
<polygon fill="#63b8ff" stroke="#63b8ff" points="317.81,-40.5 327.81,-37 317.81,-33.5 317.81,-40.5"/>
</a>
</g>
</g>
<!-- Node3&#45;&gt;Node4 -->
<g id="edge3_Node000003_Node000004" class="edge">
<title>Node3&#45;&gt;Node4</title>
<g id="a_edge3_Node000003_Node000004"><a xlink:title=" ">
<path fill="none" stroke="#63b8ff" d="M456.41,-28.12C464.75,-26.95 473.34,-25.74 481.77,-24.56"/>
<polygon fill="#63b8ff" stroke="#63b8ff" points="482.52,-27.99 491.94,-23.14 481.55,-21.06 482.52,-27.99"/>
</a>
</g>
</g>
</g>
</svg>
