<?xml version="1.0" encoding="UTF-8" standalone="no"?>
<!DOCTYPE svg PUBLIC "-//W3C//DTD SVG 1.1//EN"
 "http://www.w3.org/Graphics/SVG/1.1/DTD/svg11.dtd">
<!-- Generated by graphviz version 2.43.0 (0)
 -->
<!-- Title: sb::ecs::ComponentManager::remove_component Pages: 1 -->
<svg width="508pt" height="78pt"
 viewBox="0.00 0.00 508.00 78.00" xmlns="http://www.w3.org/2000/svg" xmlns:xlink="http://www.w3.org/1999/xlink">
<g id="graph0" class="graph" transform="scale(1 1) rotate(0) translate(4 74)">
<title>sb::ecs::ComponentManager::remove_component</title>
<!-- Node1 -->
<g id="Node000001" class="node">
<title>Node1</title>
<g id="a_Node000001"><a xlink:title=" ">
<polygon fill="#999999" stroke="#666666" points="155,-30 0,-30 0,0 155,0 155,-30"/>
<text text-anchor="start" x="8" y="-18" font-family="Helvetica,sans-Serif" font-size="10.00">sb::ecs::ComponentManager</text>
<text text-anchor="middle" x="77.5" y="-7" font-family="Helvetica,sans-Serif" font-size="10.00">::remove_component</text>
</a>
</g>
</g>
<!-- Node2 -->
<g id="Node000002" class="node">
<title>Node2</title>
<g id="a_Node000002"><a xlink:href="classsb_1_1ecs_1_1ComponentManager.html#a6093a6371f115a5d40b5e84a4cdc5616" target="_top" xlink:title=" ">
<polygon fill="white" stroke="#666666" points="346,-52 191,-52 191,-22 346,-22 346,-52"/>
<text text-anchor="start" x="199" y="-40" font-family="Helvetica,sans-Serif" font-size="10.00">sb::ecs::ComponentManager</text>
<text text-anchor="middle" x="268.5" y="-29" font-family="Helvetica,sans-Serif" font-size="10.00">::try_get_component_type</text>
</a>
</g>
</g>
<!-- Node1&#45;&gt;Node2 -->
<g id="edge1_Node000001_Node000002" class="edge">
<title>Node1&#45;&gt;Node2</title>
<g id="a_edge1_Node000001_Node000002"><a xlink:title=" ">
<path fill="none" stroke="#63b8ff" d="M155.1,-23.92C163.56,-24.9 172.22,-25.91 180.79,-26.91"/>
<polygon fill="#63b8ff" stroke="#63b8ff" points="180.45,-30.39 190.79,-28.07 181.26,-23.44 180.45,-30.39"/>
</a>
</g>
</g>
<!-- Node3 -->
<g id="Node000003" class="node">
<title>Node3</title>
<g id="a_Node000003"><a xlink:href="classsb_1_1log_1_1Logger.html#aece2091991667b9ec7ed33de30e8b53b" target="_top" xlink:title=" ">
<polygon fill="white" stroke="#666666" points="500,-24.5 382,-24.5 382,-5.5 500,-5.5 500,-24.5"/>
<text text-anchor="middle" x="441" y="-12.5" font-family="Helvetica,sans-Serif" font-size="10.00">sb::log::Logger::warn</text>
</a>
</g>
</g>
<!-- Node1&#45;&gt;Node3 -->
<g id="edge4_Node000001_Node000003" class="edge">
<title>Node1&#45;&gt;Node3</title>
<g id="a_edge4_Node000001_Node000003"><a xlink:title=" ">
<path fill="none" stroke="#63b8ff" d="M155.05,-13.46C167.08,-13.27 179.38,-13.1 191,-13 259.89,-12.39 277.12,-12.27 346,-13 354.33,-13.09 363.07,-13.22 371.74,-13.38"/>
<polygon fill="#63b8ff" stroke="#63b8ff" points="371.77,-16.88 381.84,-13.57 371.91,-9.88 371.77,-16.88"/>
</a>
</g>
</g>
<!-- Node2&#45;&gt;Node2 -->
<g id="edge2_Node000002_Node000002" class="edge">
<title>Node2&#45;&gt;Node2</title>
<g id="a_edge2_Node000002_Node000002"><a xlink:title=" ">
<path fill="none" stroke="#63b8ff" d="M238.27,-52.28C231.55,-61.41 241.62,-70 268.5,-70 284.46,-70 294.49,-66.97 298.61,-62.6"/>
<polygon fill="#63b8ff" stroke="#63b8ff" points="302.11,-62.32 298.73,-52.28 295.11,-62.23 302.11,-62.32"/>
</a>
</g>
</g>
<!-- Node2&#45;&gt;Node3 -->
<g id="edge3_Node000002_Node000003" class="edge">
<title>Node2&#45;&gt;Node3</title>
<g id="a_edge3_Node000002_Node000003"><a xlink:title=" ">
<path fill="none" stroke="#63b8ff" d="M346.27,-27.09C354.75,-26 363.35,-24.89 371.72,-23.81"/>
<polygon fill="#63b8ff" stroke="#63b8ff" points="372.32,-27.26 381.79,-22.51 371.43,-20.32 372.32,-27.26"/>
</a>
</g>
</g>
</g>
</svg>
