<?xml version="1.0" encoding="UTF-8" standalone="no"?>
<!DOCTYPE svg PUBLIC "-//W3C//DTD SVG 1.1//EN"
 "http://www.w3.org/Graphics/SVG/1.1/DTD/svg11.dtd">
<!-- Generated by graphviz version 2.43.0 (0)
 -->
<!-- Title: sb::input::KeyboardHandler::poll_inputs Pages: 1 -->
<svg width="345pt" height="230pt"
 viewBox="0.00 0.00 345.00 230.00" xmlns="http://www.w3.org/2000/svg" xmlns:xlink="http://www.w3.org/1999/xlink">
<g id="graph0" class="graph" transform="scale(1 1) rotate(0) translate(4 226)">
<title>sb::input::KeyboardHandler::poll_inputs</title>
<!-- Node1 -->
<g id="Node000001" class="node">
<title>Node1</title>
<g id="a_Node000001"><a xlink:title=" ">
<polygon fill="#999999" stroke="#666666" points="149,-126 0,-126 0,-96 149,-96 149,-126"/>
<text text-anchor="start" x="8" y="-114" font-family="Helvetica,sans-Serif" font-size="10.00">sb::input::KeyboardHandler</text>
<text text-anchor="middle" x="74.5" y="-103" font-family="Helvetica,sans-Serif" font-size="10.00">::poll_inputs</text>
</a>
</g>
</g>
<!-- Node2 -->
<g id="Node000002" class="node">
<title>Node2</title>
<g id="a_Node000002"><a xlink:href="classsb_1_1input_1_1BaseInputHandler.html#a497ff52e3ef170e39b8f8170658cd807" target="_top" xlink:title=" ">
<polygon fill="white" stroke="#666666" points="337,-222 185,-222 185,-192 337,-192 337,-222"/>
<text text-anchor="start" x="193" y="-210" font-family="Helvetica,sans-Serif" font-size="10.00">sb::input::BaseInputHandler</text>
<text text-anchor="middle" x="261" y="-199" font-family="Helvetica,sans-Serif" font-size="10.00">::event_source</text>
</a>
</g>
</g>
<!-- Node1&#45;&gt;Node2 -->
<g id="edge1_Node000001_Node000002" class="edge">
<title>Node1&#45;&gt;Node2</title>
<g id="a_edge1_Node000001_Node000002"><a xlink:title=" ">
<path fill="none" stroke="#63b8ff" d="M95.1,-126.27C116.29,-142.2 151.54,-167.01 185,-183 188.99,-184.91 193.18,-186.72 197.44,-188.42"/>
<polygon fill="#63b8ff" stroke="#63b8ff" points="196.25,-191.72 206.85,-191.99 198.73,-185.17 196.25,-191.72"/>
</a>
</g>
</g>
<!-- Node3 -->
<g id="Node000003" class="node">
<title>Node3</title>
<g id="a_Node000003"><a xlink:href="structsb_1_1input_1_1InputCode.html#a8a917b1135e32e7d1c243dbb998a831e" target="_top" xlink:title=" ">
<polygon fill="white" stroke="#666666" points="318,-174 204,-174 204,-144 318,-144 318,-174"/>
<text text-anchor="start" x="212" y="-162" font-family="Helvetica,sans-Serif" font-size="10.00">sb::input::InputCode</text>
<text text-anchor="middle" x="261" y="-151" font-family="Helvetica,sans-Serif" font-size="10.00">::FromKeyboard</text>
</a>
</g>
</g>
<!-- Node1&#45;&gt;Node3 -->
<g id="edge2_Node000001_Node000003" class="edge">
<title>Node1&#45;&gt;Node3</title>
<g id="a_edge2_Node000001_Node000003"><a xlink:title=" ">
<path fill="none" stroke="#63b8ff" d="M133.37,-126.06C152.63,-131.07 174.22,-136.68 194.04,-141.84"/>
<polygon fill="#63b8ff" stroke="#63b8ff" points="193.35,-145.28 203.91,-144.41 195.12,-138.5 193.35,-145.28"/>
</a>
</g>
</g>
<!-- Node4 -->
<g id="Node000004" class="node">
<title>Node4</title>
<g id="a_Node000004"><a xlink:href="classsb_1_1input_1_1IInputNormalizer.html#a0e5e44c3a126874a299692279d3fd7a9" target="_top" xlink:title=" ">
<polygon fill="white" stroke="#666666" points="334,-126 188,-126 188,-96 334,-96 334,-126"/>
<text text-anchor="start" x="196" y="-114" font-family="Helvetica,sans-Serif" font-size="10.00">sb::input::IInputNormalizer</text>
<text text-anchor="middle" x="261" y="-103" font-family="Helvetica,sans-Serif" font-size="10.00">::normalize_input</text>
</a>
</g>
</g>
<!-- Node1&#45;&gt;Node4 -->
<g id="edge3_Node000001_Node000004" class="edge">
<title>Node1&#45;&gt;Node4</title>
<g id="a_edge3_Node000001_Node000004"><a xlink:title=" ">
<path fill="none" stroke="#63b8ff" d="M149.21,-111C158.58,-111 168.2,-111 177.69,-111"/>
<polygon fill="#63b8ff" stroke="#63b8ff" points="177.91,-114.5 187.91,-111 177.91,-107.5 177.91,-114.5"/>
</a>
</g>
</g>
<!-- Node5 -->
<g id="Node000005" class="node">
<title>Node5</title>
<g id="a_Node000005"><a xlink:href="classsb_1_1input_1_1BaseInputHandler.html#ab635c1d63d2f28b1e48b8c558bff0e36" target="_top" xlink:title=" ">
<polygon fill="white" stroke="#666666" points="337,-78 185,-78 185,-48 337,-48 337,-78"/>
<text text-anchor="start" x="193" y="-66" font-family="Helvetica,sans-Serif" font-size="10.00">sb::input::BaseInputHandler</text>
<text text-anchor="middle" x="261" y="-55" font-family="Helvetica,sans-Serif" font-size="10.00">::normalizer</text>
</a>
</g>
</g>
<!-- Node1&#45;&gt;Node5 -->
<g id="edge4_Node000001_Node000005" class="edge">
<title>Node1&#45;&gt;Node5</title>
<g id="a_edge4_Node000001_Node000005"><a xlink:title=" ">
<path fill="none" stroke="#63b8ff" d="M133.37,-95.94C152.18,-91.05 173.2,-85.58 192.64,-80.52"/>
<polygon fill="#63b8ff" stroke="#63b8ff" points="193.54,-83.91 202.33,-78 191.78,-77.13 193.54,-83.91"/>
</a>
</g>
</g>
<!-- Node6 -->
<g id="Node000006" class="node">
<title>Node6</title>
<g id="a_Node000006"><a xlink:href="structsb_1_1input_1_1InputCode.html#a06b9aed029fa35a36e5781e44946f339" target="_top" xlink:title="Creates a virtual InputCode used to represent system&#45;initiated quit requests.">
<polygon fill="white" stroke="#666666" points="318,-30 204,-30 204,0 318,0 318,-30"/>
<text text-anchor="start" x="212" y="-18" font-family="Helvetica,sans-Serif" font-size="10.00">sb::input::InputCode</text>
<text text-anchor="middle" x="261" y="-7" font-family="Helvetica,sans-Serif" font-size="10.00">::VirtualQuit</text>
</a>
</g>
</g>
<!-- Node1&#45;&gt;Node6 -->
<g id="edge5_Node000001_Node000006" class="edge">
<title>Node1&#45;&gt;Node6</title>
<g id="a_edge5_Node000001_Node000006"><a xlink:title=" ">
<path fill="none" stroke="#63b8ff" d="M95.1,-95.73C116.29,-79.8 151.54,-54.99 185,-39 188.99,-37.09 193.18,-35.28 197.44,-33.58"/>
<polygon fill="#63b8ff" stroke="#63b8ff" points="198.73,-36.83 206.85,-30.01 196.25,-30.28 198.73,-36.83"/>
</a>
</g>
</g>
</g>
</svg>
