<?xml version="1.0" encoding="UTF-8" standalone="no"?>
<!DOCTYPE svg PUBLIC "-//W3C//DTD SVG 1.1//EN"
 "http://www.w3.org/Graphics/SVG/1.1/DTD/svg11.dtd">
<!-- Generated by graphviz version 2.43.0 (0)
 -->
<!-- Title: sb::ecs::ComponentManager::entity_destroyed Pages: 1 -->
<svg width="508pt" height="56pt"
 viewBox="0.00 0.00 508.00 56.00" xmlns="http://www.w3.org/2000/svg" xmlns:xlink="http://www.w3.org/1999/xlink">
<g id="graph0" class="graph" transform="scale(1 1) rotate(0) translate(4 52)">
<title>sb::ecs::ComponentManager::entity_destroyed</title>
<!-- Node1 -->
<g id="Node000001" class="node">
<title>Node1</title>
<g id="a_Node000001"><a xlink:title=" ">
<polygon fill="#999999" stroke="#666666" points="155,-30 0,-30 0,0 155,0 155,-30"/>
<text text-anchor="start" x="8" y="-18" font-family="Helvetica,sans-Serif" font-size="10.00">sb::ecs::ComponentManager</text>
<text text-anchor="middle" x="77.5" y="-7" font-family="Helvetica,sans-Serif" font-size="10.00">::entity_destroyed</text>
</a>
</g>
</g>
<!-- Node2 -->
<g id="Node000002" class="node">
<title>Node2</title>
<g id="a_Node000002"><a xlink:href="classsb_1_1ecs_1_1ComponentManager.html#a6093a6371f115a5d40b5e84a4cdc5616" target="_top" xlink:title=" ">
<polygon fill="white" stroke="#666666" points="346,-30 191,-30 191,0 346,0 346,-30"/>
<text text-anchor="start" x="199" y="-18" font-family="Helvetica,sans-Serif" font-size="10.00">sb::ecs::ComponentManager</text>
<text text-anchor="middle" x="268.5" y="-7" font-family="Helvetica,sans-Serif" font-size="10.00">::try_get_component_type</text>
</a>
</g>
</g>
<!-- Node1&#45;&gt;Node2 -->
<g id="edge1_Node000001_Node000002" class="edge">
<title>Node1&#45;&gt;Node2</title>
<g id="a_edge1_Node000001_Node000002"><a xlink:title=" ">
<path fill="none" stroke="#63b8ff" d="M155.1,-15C163.56,-15 172.22,-15 180.79,-15"/>
<polygon fill="#63b8ff" stroke="#63b8ff" points="180.79,-18.5 190.79,-15 180.79,-11.5 180.79,-18.5"/>
</a>
</g>
</g>
<!-- Node2&#45;&gt;Node2 -->
<g id="edge2_Node000002_Node000002" class="edge">
<title>Node2&#45;&gt;Node2</title>
<g id="a_edge2_Node000002_Node000002"><a xlink:title=" ">
<path fill="none" stroke="#63b8ff" d="M238.27,-30.28C231.55,-39.41 241.62,-48 268.5,-48 284.46,-48 294.49,-44.97 298.61,-40.6"/>
<polygon fill="#63b8ff" stroke="#63b8ff" points="302.11,-40.32 298.73,-30.28 295.11,-40.23 302.11,-40.32"/>
</a>
</g>
</g>
<!-- Node3 -->
<g id="Node000003" class="node">
<title>Node3</title>
<g id="a_Node000003"><a xlink:href="classsb_1_1log_1_1Logger.html#aece2091991667b9ec7ed33de30e8b53b" target="_top" xlink:title=" ">
<polygon fill="white" stroke="#666666" points="500,-24.5 382,-24.5 382,-5.5 500,-5.5 500,-24.5"/>
<text text-anchor="middle" x="441" y="-12.5" font-family="Helvetica,sans-Serif" font-size="10.00">sb::log::Logger::warn</text>
</a>
</g>
</g>
<!-- Node2&#45;&gt;Node3 -->
<g id="edge3_Node000002_Node000003" class="edge">
<title>Node2&#45;&gt;Node3</title>
<g id="a_edge3_Node000002_Node000003"><a xlink:title=" ">
<path fill="none" stroke="#63b8ff" d="M346.27,-15C354.75,-15 363.35,-15 371.72,-15"/>
<polygon fill="#63b8ff" stroke="#63b8ff" points="371.79,-18.5 381.79,-15 371.79,-11.5 371.79,-18.5"/>
</a>
</g>
</g>
</g>
</svg>
