<?xml version="1.0" encoding="UTF-8" standalone="no"?>
<!DOCTYPE svg PUBLIC "-//W3C//DTD SVG 1.1//EN"
 "http://www.w3.org/Graphics/SVG/1.1/DTD/svg11.dtd">
<!-- Generated by graphviz version 2.43.0 (0)
 -->
<!-- Title: sb::ecs::ComponentManager::add_component Pages: 1 -->
<svg width="508pt" height="110pt"
 viewBox="0.00 0.00 508.00 110.00" xmlns="http://www.w3.org/2000/svg" xmlns:xlink="http://www.w3.org/1999/xlink">
<g id="graph0" class="graph" transform="scale(1 1) rotate(0) translate(4 106)">
<title>sb::ecs::ComponentManager::add_component</title>
<!-- Node1 -->
<g id="Node000001" class="node">
<title>Node1</title>
<g id="a_Node000001"><a xlink:title=" ">
<polygon fill="#999999" stroke="#666666" points="155,-46.5 0,-46.5 0,-16.5 155,-16.5 155,-46.5"/>
<text text-anchor="start" x="8" y="-34.5" font-family="Helvetica,sans-Serif" font-size="10.00">sb::ecs::ComponentManager</text>
<text text-anchor="middle" x="77.5" y="-23.5" font-family="Helvetica,sans-Serif" font-size="10.00">::add_component</text>
</a>
</g>
</g>
<!-- Node2 -->
<g id="Node000002" class="node">
<title>Node2</title>
<g id="a_Node000002"><a xlink:href="classsb_1_1log_1_1Logger.html#a12d899c9a66370059c75fba7dbeff975" target="_top" xlink:title=" ">
<polygon fill="white" stroke="#666666" points="327,-102 210,-102 210,-83 327,-83 327,-102"/>
<text text-anchor="middle" x="268.5" y="-90" font-family="Helvetica,sans-Serif" font-size="10.00">sb::log::Logger::error</text>
</a>
</g>
</g>
<!-- Node1&#45;&gt;Node2 -->
<g id="edge1_Node000001_Node000002" class="edge">
<title>Node1&#45;&gt;Node2</title>
<g id="a_edge1_Node000001_Node000002"><a xlink:title=" ">
<path fill="none" stroke="#63b8ff" d="M115.63,-46.58C137.38,-55.1 165.51,-65.6 191,-73.5 198.99,-75.97 207.52,-78.35 215.88,-80.53"/>
<polygon fill="#63b8ff" stroke="#63b8ff" points="215.02,-83.92 225.57,-83 216.75,-77.14 215.02,-83.92"/>
</a>
</g>
</g>
<!-- Node3 -->
<g id="Node000003" class="node">
<title>Node3</title>
<g id="a_Node000003"><a xlink:href="classsb_1_1ecs_1_1ComponentManager.html#a6093a6371f115a5d40b5e84a4cdc5616" target="_top" xlink:title=" ">
<polygon fill="white" stroke="#666666" points="346,-46.5 191,-46.5 191,-16.5 346,-16.5 346,-46.5"/>
<text text-anchor="start" x="199" y="-34.5" font-family="Helvetica,sans-Serif" font-size="10.00">sb::ecs::ComponentManager</text>
<text text-anchor="middle" x="268.5" y="-23.5" font-family="Helvetica,sans-Serif" font-size="10.00">::try_get_component_type</text>
</a>
</g>
</g>
<!-- Node1&#45;&gt;Node3 -->
<g id="edge2_Node000001_Node000003" class="edge">
<title>Node1&#45;&gt;Node3</title>
<g id="a_edge2_Node000001_Node000003"><a xlink:title=" ">
<path fill="none" stroke="#63b8ff" d="M155.1,-31.5C163.56,-31.5 172.22,-31.5 180.79,-31.5"/>
<polygon fill="#63b8ff" stroke="#63b8ff" points="180.79,-35 190.79,-31.5 180.79,-28 180.79,-35"/>
</a>
</g>
</g>
<!-- Node4 -->
<g id="Node000004" class="node">
<title>Node4</title>
<g id="a_Node000004"><a xlink:href="classsb_1_1log_1_1Logger.html#aece2091991667b9ec7ed33de30e8b53b" target="_top" xlink:title=" ">
<polygon fill="white" stroke="#666666" points="500,-19 382,-19 382,0 500,0 500,-19"/>
<text text-anchor="middle" x="441" y="-7" font-family="Helvetica,sans-Serif" font-size="10.00">sb::log::Logger::warn</text>
</a>
</g>
</g>
<!-- Node1&#45;&gt;Node4 -->
<g id="edge5_Node000001_Node000004" class="edge">
<title>Node1&#45;&gt;Node4</title>
<g id="a_edge5_Node000001_Node000004"><a xlink:title=" ">
<path fill="none" stroke="#63b8ff" d="M137.68,-16.44C154.77,-12.76 173.52,-9.34 191,-7.5 259.51,-0.27 277.12,-6.77 346,-7.5 354.33,-7.59 363.07,-7.72 371.74,-7.88"/>
<polygon fill="#63b8ff" stroke="#63b8ff" points="371.77,-11.38 381.84,-8.07 371.91,-4.38 371.77,-11.38"/>
</a>
</g>
</g>
<!-- Node3&#45;&gt;Node3 -->
<g id="edge3_Node000003_Node000003" class="edge">
<title>Node3&#45;&gt;Node3</title>
<g id="a_edge3_Node000003_Node000003"><a xlink:title=" ">
<path fill="none" stroke="#63b8ff" d="M238.27,-46.78C231.55,-55.91 241.62,-64.5 268.5,-64.5 284.46,-64.5 294.49,-61.47 298.61,-57.1"/>
<polygon fill="#63b8ff" stroke="#63b8ff" points="302.11,-56.82 298.73,-46.78 295.11,-56.73 302.11,-56.82"/>
</a>
</g>
</g>
<!-- Node3&#45;&gt;Node4 -->
<g id="edge4_Node000003_Node000004" class="edge">
<title>Node3&#45;&gt;Node4</title>
<g id="a_edge4_Node000003_Node000004"><a xlink:title=" ">
<path fill="none" stroke="#63b8ff" d="M346.27,-21.59C354.75,-20.5 363.35,-19.39 371.72,-18.31"/>
<polygon fill="#63b8ff" stroke="#63b8ff" points="372.32,-21.76 381.79,-17.01 371.43,-14.82 372.32,-21.76"/>
</a>
</g>
</g>
</g>
</svg>
