<?xml version="1.0" encoding="UTF-8" standalone="no"?>
<!DOCTYPE svg PUBLIC "-//W3C//DTD SVG 1.1//EN"
 "http://www.w3.org/Graphics/SVG/1.1/DTD/svg11.dtd">
<!-- Generated by graphviz version 2.43.0 (0)
 -->
<!-- Title: sb::input::KeyboardHandler::poll_inputs Pages: 1 -->
<svg width="345pt" height="182pt"
 viewBox="0.00 0.00 345.00 182.00" xmlns="http://www.w3.org/2000/svg" xmlns:xlink="http://www.w3.org/1999/xlink">
<g id="graph0" class="graph" transform="scale(1 1) rotate(0) translate(4 178)">
<title>sb::input::KeyboardHandler::poll_inputs</title>
<!-- Node1 -->
<g id="Node000001" class="node">
<title>Node1</title>
<g id="a_Node000001"><a xlink:title=" ">
<polygon fill="#999999" stroke="#666666" points="149,-102 0,-102 0,-72 149,-72 149,-102"/>
<text text-anchor="start" x="8" y="-90" font-family="Helvetica,sans-Serif" font-size="10.00">sb::input::KeyboardHandler</text>
<text text-anchor="middle" x="74.5" y="-79" font-family="Helvetica,sans-Serif" font-size="10.00">::poll_inputs</text>
</a>
</g>
</g>
<!-- Node2 -->
<g id="Node000002" class="node">
<title>Node2</title>
<g id="a_Node000002"><a xlink:href="classsb_1_1input_1_1BaseInputHandler.html#a497ff52e3ef170e39b8f8170658cd807" target="_top" xlink:title=" ">
<polygon fill="white" stroke="#666666" points="337,-174 185,-174 185,-144 337,-144 337,-174"/>
<text text-anchor="start" x="193" y="-162" font-family="Helvetica,sans-Serif" font-size="10.00">sb::input::BaseInputHandler</text>
<text text-anchor="middle" x="261" y="-151" font-family="Helvetica,sans-Serif" font-size="10.00">::event_source</text>
</a>
</g>
</g>
<!-- Node1&#45;&gt;Node2 -->
<g id="edge1_Node000001_Node000002" class="edge">
<title>Node1&#45;&gt;Node2</title>
<g id="a_edge1_Node000001_Node000002"><a xlink:title=" ">
<path fill="none" stroke="#63b8ff" d="M107.72,-102.17C129.34,-112.1 158.59,-125.02 185,-135 190.12,-136.93 195.46,-138.85 200.85,-140.7"/>
<polygon fill="#63b8ff" stroke="#63b8ff" points="199.94,-144.09 210.53,-143.97 202.17,-137.46 199.94,-144.09"/>
</a>
</g>
</g>
<!-- Node3 -->
<g id="Node000003" class="node">
<title>Node3</title>
<g id="a_Node000003"><a xlink:href="structsb_1_1input_1_1InputCode.html#a8a917b1135e32e7d1c243dbb998a831e" target="_top" xlink:title=" ">
<polygon fill="white" stroke="#666666" points="318,-126 204,-126 204,-96 318,-96 318,-126"/>
<text text-anchor="start" x="212" y="-114" font-family="Helvetica,sans-Serif" font-size="10.00">sb::input::InputCode</text>
<text text-anchor="middle" x="261" y="-103" font-family="Helvetica,sans-Serif" font-size="10.00">::FromKeyboard</text>
</a>
</g>
</g>
<!-- Node1&#45;&gt;Node3 -->
<g id="edge2_Node000001_Node000003" class="edge">
<title>Node1&#45;&gt;Node3</title>
<g id="a_edge2_Node000001_Node000003"><a xlink:title=" ">
<path fill="none" stroke="#63b8ff" d="M149.21,-96.59C163.83,-98.49 179.1,-100.48 193.46,-102.34"/>
<polygon fill="#63b8ff" stroke="#63b8ff" points="193.37,-105.86 203.74,-103.68 194.28,-98.92 193.37,-105.86"/>
</a>
</g>
</g>
<!-- Node4 -->
<g id="Node000004" class="node">
<title>Node4</title>
<g id="a_Node000004"><a xlink:href="classsb_1_1input_1_1IInputNormalizer.html#a0e5e44c3a126874a299692279d3fd7a9" target="_top" xlink:title=" ">
<polygon fill="white" stroke="#666666" points="334,-78 188,-78 188,-48 334,-48 334,-78"/>
<text text-anchor="start" x="196" y="-66" font-family="Helvetica,sans-Serif" font-size="10.00">sb::input::IInputNormalizer</text>
<text text-anchor="middle" x="261" y="-55" font-family="Helvetica,sans-Serif" font-size="10.00">::normalize_input</text>
</a>
</g>
</g>
<!-- Node1&#45;&gt;Node4 -->
<g id="edge3_Node000001_Node000004" class="edge">
<title>Node1&#45;&gt;Node4</title>
<g id="a_edge3_Node000001_Node000004"><a xlink:title=" ">
<path fill="none" stroke="#63b8ff" d="M149.21,-77.41C158.58,-76.19 168.2,-74.94 177.69,-73.71"/>
<polygon fill="#63b8ff" stroke="#63b8ff" points="178.44,-77.14 187.91,-72.38 177.54,-70.2 178.44,-77.14"/>
</a>
</g>
</g>
<!-- Node5 -->
<g id="Node000005" class="node">
<title>Node5</title>
<g id="a_Node000005"><a xlink:href="classsb_1_1input_1_1BaseInputHandler.html#ab635c1d63d2f28b1e48b8c558bff0e36" target="_top" xlink:title=" ">
<polygon fill="white" stroke="#666666" points="337,-30 185,-30 185,0 337,0 337,-30"/>
<text text-anchor="start" x="193" y="-18" font-family="Helvetica,sans-Serif" font-size="10.00">sb::input::BaseInputHandler</text>
<text text-anchor="middle" x="261" y="-7" font-family="Helvetica,sans-Serif" font-size="10.00">::normalizer</text>
</a>
</g>
</g>
<!-- Node1&#45;&gt;Node5 -->
<g id="edge4_Node000001_Node000005" class="edge">
<title>Node1&#45;&gt;Node5</title>
<g id="a_edge4_Node000001_Node000005"><a xlink:title=" ">
<path fill="none" stroke="#63b8ff" d="M107.72,-71.83C129.34,-61.9 158.59,-48.98 185,-39 190.12,-37.07 195.46,-35.15 200.85,-33.3"/>
<polygon fill="#63b8ff" stroke="#63b8ff" points="202.17,-36.54 210.53,-30.03 199.94,-29.91 202.17,-36.54"/>
</a>
</g>
</g>
</g>
</svg>
