<?xml version="1.0" encoding="UTF-8" standalone="no"?>
<!DOCTYPE svg PUBLIC "-//W3C//DTD SVG 1.1//EN"
 "http://www.w3.org/Graphics/SVG/1.1/DTD/svg11.dtd">
<!-- Generated by graphviz version 2.43.0 (0)
 -->
<!-- Title: sb::ecs::EntityManager::create_entity Pages: 1 -->
<svg width="289pt" height="64pt"
 viewBox="0.00 0.00 289.00 64.00" xmlns="http://www.w3.org/2000/svg" xmlns:xlink="http://www.w3.org/1999/xlink">
<g id="graph0" class="graph" transform="scale(1 1) rotate(0) translate(4 60)">
<title>sb::ecs::EntityManager::create_entity</title>
<!-- Node1 -->
<g id="Node000001" class="node">
<title>Node1</title>
<g id="a_Node000001"><a xlink:title=" ">
<polygon fill="#999999" stroke="#666666" points="128,-42.5 0,-42.5 0,-12.5 128,-12.5 128,-42.5"/>
<text text-anchor="start" x="8" y="-30.5" font-family="Helvetica,sans-Serif" font-size="10.00">sb::ecs::EntityManager</text>
<text text-anchor="middle" x="64" y="-19.5" font-family="Helvetica,sans-Serif" font-size="10.00">::create_entity</text>
</a>
</g>
</g>
<!-- Node2 -->
<g id="Node000002" class="node">
<title>Node2</title>
<g id="a_Node000002"><a xlink:href="classsb_1_1log_1_1Logger.html#a12d899c9a66370059c75fba7dbeff975" target="_top" xlink:title=" ">
<polygon fill="white" stroke="#666666" points="281,-56 164,-56 164,-37 281,-37 281,-56"/>
<text text-anchor="middle" x="222.5" y="-44" font-family="Helvetica,sans-Serif" font-size="10.00">sb::log::Logger::error</text>
</a>
</g>
</g>
<!-- Node1&#45;&gt;Node2 -->
<g id="edge1_Node000001_Node000002" class="edge">
<title>Node1&#45;&gt;Node2</title>
<g id="a_edge1_Node000001_Node000002"><a xlink:title=" ">
<path fill="none" stroke="#63b8ff" d="M128.2,-35.17C136.68,-36.2 145.4,-37.26 153.95,-38.3"/>
<polygon fill="#63b8ff" stroke="#63b8ff" points="153.52,-41.77 163.87,-39.5 154.37,-34.82 153.52,-41.77"/>
</a>
</g>
</g>
<!-- Node3 -->
<g id="Node000003" class="node">
<title>Node3</title>
<g id="a_Node000003"><a xlink:href="structsb_1_1ecs_1_1Entity.html#a786f60009564e1b0054cce2c8f3b67a9" target="_top" xlink:title=" ">
<polygon fill="white" stroke="#666666" points="276.5,-19 168.5,-19 168.5,0 276.5,0 276.5,-19"/>
<text text-anchor="middle" x="222.5" y="-7" font-family="Helvetica,sans-Serif" font-size="10.00">sb::ecs::Entity::null</text>
</a>
</g>
</g>
<!-- Node1&#45;&gt;Node3 -->
<g id="edge2_Node000001_Node000003" class="edge">
<title>Node1&#45;&gt;Node3</title>
<g id="a_edge2_Node000001_Node000003"><a xlink:title=" ">
<path fill="none" stroke="#63b8ff" d="M128.2,-20.23C138.03,-19.1 148.18,-17.93 158,-16.8"/>
<polygon fill="#63b8ff" stroke="#63b8ff" points="158.57,-20.26 168.1,-15.64 157.77,-13.31 158.57,-20.26"/>
</a>
</g>
</g>
</g>
</svg>
