<?xml version="1.0" encoding="UTF-8" standalone="no"?>
<!DOCTYPE svg PUBLIC "-//W3C//DTD SVG 1.1//EN"
 "http://www.w3.org/Graphics/SVG/1.1/DTD/svg11.dtd">
<!-- Generated by graphviz version 2.43.0 (0)
 -->
<!-- Title: sb::ecs::ComponentManager::try_get_component_type Pages: 1 -->
<svg width="317pt" height="56pt"
 viewBox="0.00 0.00 317.00 56.00" xmlns="http://www.w3.org/2000/svg" xmlns:xlink="http://www.w3.org/1999/xlink">
<g id="graph0" class="graph" transform="scale(1 1) rotate(0) translate(4 52)">
<title>sb::ecs::ComponentManager::try_get_component_type</title>
<!-- Node1 -->
<g id="Node000001" class="node">
<title>Node1</title>
<g id="a_Node000001"><a xlink:title=" ">
<polygon fill="#999999" stroke="#666666" points="155,-30 0,-30 0,0 155,0 155,-30"/>
<text text-anchor="start" x="8" y="-18" font-family="Helvetica,sans-Serif" font-size="10.00">sb::ecs::ComponentManager</text>
<text text-anchor="middle" x="77.5" y="-7" font-family="Helvetica,sans-Serif" font-size="10.00">::try_get_component_type</text>
</a>
</g>
</g>
<!-- Node1&#45;&gt;Node1 -->
<g id="edge1_Node000001_Node000001" class="edge">
<title>Node1&#45;&gt;Node1</title>
<g id="a_edge1_Node000001_Node000001"><a xlink:title=" ">
<path fill="none" stroke="#63b8ff" d="M47.27,-30.28C40.55,-39.41 50.62,-48 77.5,-48 93.46,-48 103.49,-44.97 107.61,-40.6"/>
<polygon fill="#63b8ff" stroke="#63b8ff" points="111.11,-40.32 107.73,-30.28 104.11,-40.23 111.11,-40.32"/>
</a>
</g>
</g>
<!-- Node2 -->
<g id="Node000002" class="node">
<title>Node2</title>
<g id="a_Node000002"><a xlink:href="classsb_1_1log_1_1Logger.html#aece2091991667b9ec7ed33de30e8b53b" target="_top" xlink:title=" ">
<polygon fill="white" stroke="#666666" points="309,-24.5 191,-24.5 191,-5.5 309,-5.5 309,-24.5"/>
<text text-anchor="middle" x="250" y="-12.5" font-family="Helvetica,sans-Serif" font-size="10.00">sb::log::Logger::warn</text>
</a>
</g>
</g>
<!-- Node1&#45;&gt;Node2 -->
<g id="edge2_Node000001_Node000002" class="edge">
<title>Node1&#45;&gt;Node2</title>
<g id="a_edge2_Node000001_Node000002"><a xlink:title=" ">
<path fill="none" stroke="#63b8ff" d="M155.27,-15C163.75,-15 172.35,-15 180.72,-15"/>
<polygon fill="#63b8ff" stroke="#63b8ff" points="180.79,-18.5 190.79,-15 180.79,-11.5 180.79,-18.5"/>
</a>
</g>
</g>
</g>
</svg>
