<?xml version="1.0" encoding="UTF-8" standalone="no"?>
<!DOCTYPE svg PUBLIC "-//W3C//DTD SVG 1.1//EN"
 "http://www.w3.org/Graphics/SVG/1.1/DTD/svg11.dtd">
<!-- Generated by graphviz version 2.43.0 (0)
 -->
<!-- Title: sb::log::Logger::warn Pages: 1 -->
<svg width="672pt" height="364pt"
 viewBox="0.00 0.00 672.00 364.00" xmlns="http://www.w3.org/2000/svg" xmlns:xlink="http://www.w3.org/1999/xlink">
<g id="graph0" class="graph" transform="scale(1 1) rotate(0) translate(4 360)">
<title>sb::log::Logger::warn</title>
<!-- Node1 -->
<g id="Node000001" class="node">
<title>Node1</title>
<g id="a_Node000001"><a xlink:title=" ">
<polygon fill="#999999" stroke="#666666" points="664,-199.5 546,-199.5 546,-180.5 664,-180.5 664,-199.5"/>
<text text-anchor="middle" x="605" y="-187.5" font-family="Helvetica,sans-Serif" font-size="10.00">sb::log::Logger::warn</text>
</a>
</g>
</g>
<!-- Node2 -->
<g id="Node000002" class="node">
<title>Node2</title>
<g id="a_Node000002"><a xlink:href="classsb_1_1ecs_1_1ComponentManager.html#a483646b6b2c00e1c33bb1a591f30f822" target="_top" xlink:title=" ">
<polygon fill="white" stroke="#666666" points="319,-356 164,-356 164,-326 319,-326 319,-356"/>
<text text-anchor="start" x="172" y="-344" font-family="Helvetica,sans-Serif" font-size="10.00">sb::ecs::ComponentManager</text>
<text text-anchor="middle" x="241.5" y="-333" font-family="Helvetica,sans-Serif" font-size="10.00">::add_component</text>
</a>
</g>
</g>
<!-- Node1&#45;&gt;Node2 -->
<g id="edge1_Node000001_Node000002" class="edge">
<title>Node1&#45;&gt;Node2</title>
<g id="a_edge1_Node000001_Node000002"><a xlink:title=" ">
<path fill="none" stroke="#63b8ff" d="M591.73,-207.92C575.64,-229.94 545.28,-266.76 510,-286 450.9,-318.24 375.06,-331.64 319.23,-337.17"/>
<polygon fill="#63b8ff" stroke="#63b8ff" points="594.6,-209.92 597.54,-199.74 588.9,-205.86 594.6,-209.92"/>
</a>
</g>
</g>
<!-- Node3 -->
<g id="Node000003" class="node">
<title>Node3</title>
<g id="a_Node000003"><a xlink:href="classsb_1_1ecs_1_1EntityManager.html#a8e398eb093f79a67cff4c3319e66e070" target="_top" xlink:title=" ">
<polygon fill="white" stroke="#666666" points="496.5,-181 368.5,-181 368.5,-151 496.5,-151 496.5,-181"/>
<text text-anchor="start" x="376.5" y="-169" font-family="Helvetica,sans-Serif" font-size="10.00">sb::ecs::EntityManager</text>
<text text-anchor="middle" x="432.5" y="-158" font-family="Helvetica,sans-Serif" font-size="10.00">::destroy_entity</text>
</a>
</g>
</g>
<!-- Node1&#45;&gt;Node3 -->
<g id="edge2_Node000001_Node000003" class="edge">
<title>Node1&#45;&gt;Node3</title>
<g id="a_edge2_Node000001_Node000003"><a xlink:title=" ">
<path fill="none" stroke="#63b8ff" d="M535.63,-180.38C522.77,-178.57 509.38,-176.68 496.69,-174.89"/>
<polygon fill="#63b8ff" stroke="#63b8ff" points="535.41,-183.88 545.8,-181.81 536.39,-176.95 535.41,-183.88"/>
</a>
</g>
</g>
<!-- Node4 -->
<g id="Node000004" class="node">
<title>Node4</title>
<g id="a_Node000004"><a xlink:href="classsb_1_1ecs_1_1ComponentManager.html#a545fd4d7f0acd6cd64f951e05d60ffc3" target="_top" xlink:title=" ">
<polygon fill="white" stroke="#666666" points="319,-308 164,-308 164,-278 319,-278 319,-308"/>
<text text-anchor="start" x="172" y="-296" font-family="Helvetica,sans-Serif" font-size="10.00">sb::ecs::ComponentManager</text>
<text text-anchor="middle" x="241.5" y="-285" font-family="Helvetica,sans-Serif" font-size="10.00">::remove_component</text>
</a>
</g>
</g>
<!-- Node1&#45;&gt;Node4 -->
<g id="edge3_Node000001_Node000004" class="edge">
<title>Node1&#45;&gt;Node4</title>
<g id="a_edge3_Node000001_Node000004"><a xlink:title=" ">
<path fill="none" stroke="#63b8ff" d="M586.15,-206.5C568.3,-221.99 539.34,-244.46 510,-256 448.7,-280.11 374.11,-288.9 319.29,-291.93"/>
<polygon fill="#63b8ff" stroke="#63b8ff" points="588.84,-208.8 593.98,-199.54 584.18,-203.57 588.84,-208.8"/>
</a>
</g>
</g>
<!-- Node5 -->
<g id="Node000005" class="node">
<title>Node5</title>
<g id="a_Node000005"><a xlink:href="classsb_1_1ecs_1_1EntityManager.html#a370f33bb3ffad0472a4d84a79d86dac5" target="_top" xlink:title=" ">
<polygon fill="white" stroke="#666666" points="128,-51 0,-51 0,-21 128,-21 128,-51"/>
<text text-anchor="start" x="8" y="-39" font-family="Helvetica,sans-Serif" font-size="10.00">sb::ecs::EntityManager</text>
<text text-anchor="middle" x="64" y="-28" font-family="Helvetica,sans-Serif" font-size="10.00">::set_signature</text>
</a>
</g>
</g>
<!-- Node1&#45;&gt;Node5 -->
<g id="edge4_Node000001_Node000005" class="edge">
<title>Node1&#45;&gt;Node5</title>
<g id="a_edge4_Node000001_Node000005"><a xlink:title=" ">
<path fill="none" stroke="#63b8ff" d="M578.01,-175.45C559.4,-165.34 533.57,-151.97 510,-142 427.41,-107.08 406.01,-98.67 319,-77 254.85,-61.03 179.98,-49.82 128.22,-43.21"/>
<polygon fill="#63b8ff" stroke="#63b8ff" points="576.58,-178.65 587.03,-180.39 579.94,-172.52 576.58,-178.65"/>
</a>
</g>
</g>
<!-- Node6 -->
<g id="Node000006" class="node">
<title>Node6</title>
<g id="a_Node000006"><a xlink:href="classsb_1_1ecs_1_1ComponentManager.html#a6093a6371f115a5d40b5e84a4cdc5616" target="_top" xlink:title=" ">
<polygon fill="white" stroke="#666666" points="510,-229 355,-229 355,-199 510,-199 510,-229"/>
<text text-anchor="start" x="363" y="-217" font-family="Helvetica,sans-Serif" font-size="10.00">sb::ecs::ComponentManager</text>
<text text-anchor="middle" x="432.5" y="-206" font-family="Helvetica,sans-Serif" font-size="10.00">::try_get_component_type</text>
</a>
</g>
</g>
<!-- Node1&#45;&gt;Node6 -->
<g id="edge5_Node000001_Node000006" class="edge">
<title>Node1&#45;&gt;Node6</title>
<g id="a_edge5_Node000001_Node000006"><a xlink:title=" ">
<path fill="none" stroke="#63b8ff" d="M535.69,-199.62C527.28,-200.8 518.65,-202.01 510.13,-203.21"/>
<polygon fill="#63b8ff" stroke="#63b8ff" points="536.39,-203.05 545.8,-198.19 535.41,-196.12 536.39,-203.05"/>
</a>
</g>
</g>
<!-- Node11 -->
<g id="Node000011" class="node">
<title>Node11</title>
<g id="a_Node000011"><a xlink:href="classsb_1_1ecs_1_1EntityManager.html#a5f74c882a45e9aca8cb46f303f5e41eb" target="_top" xlink:title=" ">
<polygon fill="white" stroke="#666666" points="496.5,-30 368.5,-30 368.5,0 496.5,0 496.5,-30"/>
<text text-anchor="start" x="376.5" y="-18" font-family="Helvetica,sans-Serif" font-size="10.00">sb::ecs::EntityManager</text>
<text text-anchor="middle" x="432.5" y="-7" font-family="Helvetica,sans-Serif" font-size="10.00">::try_get_signature</text>
</a>
</g>
</g>
<!-- Node1&#45;&gt;Node11 -->
<g id="edge13_Node000001_Node000011" class="edge">
<title>Node1&#45;&gt;Node11</title>
<g id="a_edge13_Node000001_Node000011"><a xlink:title=" ">
<path fill="none" stroke="#63b8ff" d="M596.36,-170.72C583.19,-139.82 553.39,-79.12 510,-44 503.16,-38.46 495.14,-33.9 486.92,-30.17"/>
<polygon fill="#63b8ff" stroke="#63b8ff" points="593.27,-172.41 600.32,-180.32 599.74,-169.74 593.27,-172.41"/>
</a>
</g>
</g>
<!-- Node6&#45;&gt;Node2 -->
<g id="edge6_Node000006_Node000002" class="edge">
<title>Node6&#45;&gt;Node2</title>
<g id="a_edge6_Node000006_Node000002"><a xlink:title=" ">
<path fill="none" stroke="#63b8ff" d="M412.14,-236.84C391.31,-260.07 356.15,-295.6 319,-317 313.09,-320.4 306.64,-323.39 300.07,-325.98"/>
<polygon fill="#63b8ff" stroke="#63b8ff" points="414.9,-239 418.88,-229.18 409.65,-234.37 414.9,-239"/>
</a>
</g>
</g>
<!-- Node6&#45;&gt;Node4 -->
<g id="edge11_Node000006_Node000004" class="edge">
<title>Node6&#45;&gt;Node4</title>
<g id="a_edge11_Node000006_Node000004"><a xlink:title=" ">
<path fill="none" stroke="#63b8ff" d="M394.22,-233.99C372.61,-245.12 344.68,-258.76 319,-269 311.11,-272.14 302.64,-275.15 294.31,-277.91"/>
<polygon fill="#63b8ff" stroke="#63b8ff" points="396.11,-236.95 403.37,-229.23 392.88,-230.74 396.11,-236.95"/>
</a>
</g>
</g>
<!-- Node6&#45;&gt;Node6 -->
<g id="edge12_Node000006_Node000006" class="edge">
<title>Node6&#45;&gt;Node6</title>
<g id="a_edge12_Node000006_Node000006"><a xlink:title=" ">
<path fill="none" stroke="#63b8ff" d="M462.61,-239.6C458.49,-243.97 448.46,-247 432.5,-247 405.62,-247 395.55,-238.41 402.27,-229.28"/>
<polygon fill="#63b8ff" stroke="#63b8ff" points="466.11,-239.32 462.73,-229.28 459.11,-239.23 466.11,-239.32"/>
</a>
</g>
</g>
<!-- Node7 -->
<g id="Node000007" class="node">
<title>Node7</title>
<g id="a_Node000007"><a xlink:href="classsb_1_1ecs_1_1ComponentManager.html#aa5d1864075c5ece5b68240bba538a85d" target="_top" xlink:title=" ">
<polygon fill="white" stroke="#666666" points="319,-260 164,-260 164,-230 319,-230 319,-260"/>
<text text-anchor="start" x="172" y="-248" font-family="Helvetica,sans-Serif" font-size="10.00">sb::ecs::ComponentManager</text>
<text text-anchor="middle" x="241.5" y="-237" font-family="Helvetica,sans-Serif" font-size="10.00">::entity_destroyed</text>
</a>
</g>
</g>
<!-- Node6&#45;&gt;Node7 -->
<g id="edge7_Node000006_Node000007" class="edge">
<title>Node6&#45;&gt;Node7</title>
<g id="a_edge7_Node000006_Node000007"><a xlink:title=" ">
<path fill="none" stroke="#63b8ff" d="M344.9,-228.2C336.33,-229.61 327.67,-231.03 319.21,-232.42"/>
<polygon fill="#63b8ff" stroke="#63b8ff" points="345.6,-231.64 354.9,-226.56 344.46,-224.73 345.6,-231.64"/>
</a>
</g>
</g>
<!-- Node8 -->
<g id="Node000008" class="node">
<title>Node8</title>
<g id="a_Node000008"><a xlink:href="classsb_1_1ecs_1_1ComponentManager.html#ad1829095b8fc57b0f93d2f7f7e42f43e" target="_top" xlink:title=" ">
<polygon fill="white" stroke="#666666" points="319,-212 164,-212 164,-182 319,-182 319,-212"/>
<text text-anchor="start" x="172" y="-200" font-family="Helvetica,sans-Serif" font-size="10.00">sb::ecs::ComponentManager</text>
<text text-anchor="middle" x="241.5" y="-189" font-family="Helvetica,sans-Serif" font-size="10.00">::get_component</text>
</a>
</g>
</g>
<!-- Node6&#45;&gt;Node8 -->
<g id="edge8_Node000006_Node000008" class="edge">
<title>Node6&#45;&gt;Node8</title>
<g id="a_edge8_Node000006_Node000008"><a xlink:title=" ">
<path fill="none" stroke="#63b8ff" d="M344.9,-206.21C336.33,-205.44 327.67,-204.66 319.21,-203.9"/>
<polygon fill="#63b8ff" stroke="#63b8ff" points="344.63,-209.7 354.9,-207.11 345.25,-202.73 344.63,-209.7"/>
</a>
</g>
</g>
<!-- Node9 -->
<g id="Node000009" class="node">
<title>Node9</title>
<g id="a_Node000009"><a xlink:href="classsb_1_1ecs_1_1ComponentManager.html#a30ed0816113fb8b7ba44ce6d1fc26d33" target="_top" xlink:title=" ">
<polygon fill="white" stroke="#666666" points="319,-164 164,-164 164,-134 319,-134 319,-164"/>
<text text-anchor="start" x="172" y="-152" font-family="Helvetica,sans-Serif" font-size="10.00">sb::ecs::ComponentManager</text>
<text text-anchor="middle" x="241.5" y="-141" font-family="Helvetica,sans-Serif" font-size="10.00">::get_component_type</text>
</a>
</g>
</g>
<!-- Node6&#45;&gt;Node9 -->
<g id="edge9_Node000006_Node000009" class="edge">
<title>Node6&#45;&gt;Node9</title>
<g id="a_edge9_Node000006_Node000009"><a xlink:title=" ">
<path fill="none" stroke="#63b8ff" d="M370.58,-195.73C365.28,-193.88 360.02,-191.96 355,-190 338.52,-183.56 335.48,-179.44 319,-173 310.96,-169.86 302.33,-166.83 293.86,-164.05"/>
<polygon fill="#63b8ff" stroke="#63b8ff" points="369.54,-199.07 380.14,-198.95 371.78,-192.44 369.54,-199.07"/>
</a>
</g>
</g>
<!-- Node10 -->
<g id="Node000010" class="node">
<title>Node10</title>
<g id="a_Node000010"><a xlink:href="classsb_1_1ecs_1_1ComponentManager.html#a67e4c4d40bb97e2c52d0d3c639de8c52" target="_top" xlink:title=" ">
<polygon fill="white" stroke="#666666" points="319,-116 164,-116 164,-86 319,-86 319,-116"/>
<text text-anchor="start" x="172" y="-104" font-family="Helvetica,sans-Serif" font-size="10.00">sb::ecs::ComponentManager</text>
<text text-anchor="middle" x="241.5" y="-93" font-family="Helvetica,sans-Serif" font-size="10.00">::has_component</text>
</a>
</g>
</g>
<!-- Node6&#45;&gt;Node10 -->
<g id="edge10_Node000006_Node000010" class="edge">
<title>Node6&#45;&gt;Node10</title>
<g id="a_edge10_Node000006_Node000010"><a xlink:title=" ">
<path fill="none" stroke="#63b8ff" d="M359.93,-193.66C358.22,-192.51 356.58,-191.29 355,-190 329.42,-169.12 344.58,-145.88 319,-125 314.79,-121.57 310.09,-118.62 305.15,-116.1"/>
<polygon fill="#63b8ff" stroke="#63b8ff" points="358.46,-196.85 368.85,-198.9 362,-190.82 358.46,-196.85"/>
</a>
</g>
</g>
<!-- Node12 -->
<g id="Node000012" class="node">
<title>Node12</title>
<g id="a_Node000012"><a xlink:href="classsb_1_1ecs_1_1EntityManager.html#a12d8a6fff20946dfa3ea68a24946774d" target="_top" xlink:title=" ">
<polygon fill="white" stroke="#666666" points="305.5,-30 177.5,-30 177.5,0 305.5,0 305.5,-30"/>
<text text-anchor="start" x="185.5" y="-18" font-family="Helvetica,sans-Serif" font-size="10.00">sb::ecs::EntityManager</text>
<text text-anchor="middle" x="241.5" y="-7" font-family="Helvetica,sans-Serif" font-size="10.00">::get_signature</text>
</a>
</g>
</g>
<!-- Node11&#45;&gt;Node12 -->
<g id="edge14_Node000011_Node000012" class="edge">
<title>Node11&#45;&gt;Node12</title>
<g id="a_edge14_Node000011_Node000012"><a xlink:title=" ">
<path fill="none" stroke="#63b8ff" d="M358.22,-15C340.86,-15 322.5,-15 305.64,-15"/>
<polygon fill="#63b8ff" stroke="#63b8ff" points="358.3,-18.5 368.3,-15 358.3,-11.5 358.3,-18.5"/>
</a>
</g>
</g>
<!-- Node12&#45;&gt;Node5 -->
<g id="edge15_Node000012_Node000005" class="edge">
<title>Node12&#45;&gt;Node5</title>
<g id="a_edge15_Node000012_Node000005"><a xlink:title=" ">
<path fill="none" stroke="#63b8ff" d="M166.94,-23.8C154.09,-25.34 140.81,-26.93 128.27,-28.43"/>
<polygon fill="#63b8ff" stroke="#63b8ff" points="167.63,-27.24 177.14,-22.58 166.8,-20.29 167.63,-27.24"/>
</a>
</g>
</g>
</g>
</svg>
