<?xml version="1.0" encoding="UTF-8" standalone="no"?>
<!DOCTYPE svg PUBLIC "-//W3C//DTD SVG 1.1//EN"
 "http://www.w3.org/Graphics/SVG/1.1/DTD/svg11.dtd">
<!-- Generated by graphviz version 2.43.0 (0)
 -->
<!-- Title: sb::log::Logger::error Pages: 1 -->
<svg width="316pt" height="374pt"
 viewBox="0.00 0.00 316.00 374.00" xmlns="http://www.w3.org/2000/svg" xmlns:xlink="http://www.w3.org/1999/xlink">
<g id="graph0" class="graph" transform="scale(1 1) rotate(0) translate(4 370)">
<title>sb::log::Logger::error</title>
<!-- Node1 -->
<g id="Node000001" class="node">
<title>Node1</title>
<g id="a_Node000001"><a xlink:title=" ">
<polygon fill="#999999" stroke="#666666" points="308,-192.5 191,-192.5 191,-173.5 308,-173.5 308,-192.5"/>
<text text-anchor="middle" x="249.5" y="-180.5" font-family="Helvetica,sans-Serif" font-size="10.00">sb::log::Logger::error</text>
</a>
</g>
</g>
<!-- Node2 -->
<g id="Node000002" class="node">
<title>Node2</title>
<g id="a_Node000002"><a xlink:href="classsb_1_1ecs_1_1ComponentManager.html#a483646b6b2c00e1c33bb1a591f30f822" target="_top" xlink:title=" ">
<polygon fill="white" stroke="#666666" points="155,-366 0,-366 0,-336 155,-336 155,-366"/>
<text text-anchor="start" x="8" y="-354" font-family="Helvetica,sans-Serif" font-size="10.00">sb::ecs::ComponentManager</text>
<text text-anchor="middle" x="77.5" y="-343" font-family="Helvetica,sans-Serif" font-size="10.00">::add_component</text>
</a>
</g>
</g>
<!-- Node1&#45;&gt;Node2 -->
<g id="edge1_Node000001_Node000002" class="edge">
<title>Node1&#45;&gt;Node2</title>
<g id="a_edge1_Node000001_Node000002"><a xlink:title=" ">
<path fill="none" stroke="#63b8ff" d="M241.08,-202.31C228.24,-233.19 198.96,-293.62 155,-327 150.45,-330.45 145.4,-333.41 140.12,-335.95"/>
<polygon fill="#63b8ff" stroke="#63b8ff" points="244.46,-203.29 244.94,-192.71 237.96,-200.68 244.46,-203.29"/>
</a>
</g>
</g>
<!-- Node3 -->
<g id="Node000003" class="node">
<title>Node3</title>
<g id="a_Node000003"><a xlink:href="classsb_1_1ecs_1_1EntityManager.html#af0dbf8a3f8833be0384a50c16b986dba" target="_top" xlink:title=" ">
<polygon fill="white" stroke="#666666" points="141.5,-318 13.5,-318 13.5,-288 141.5,-288 141.5,-318"/>
<text text-anchor="start" x="21.5" y="-306" font-family="Helvetica,sans-Serif" font-size="10.00">sb::ecs::EntityManager</text>
<text text-anchor="middle" x="77.5" y="-295" font-family="Helvetica,sans-Serif" font-size="10.00">::create_entity</text>
</a>
</g>
</g>
<!-- Node1&#45;&gt;Node3 -->
<g id="edge2_Node000001_Node000003" class="edge">
<title>Node1&#45;&gt;Node3</title>
<g id="a_edge2_Node000001_Node000003"><a xlink:title=" ">
<path fill="none" stroke="#63b8ff" d="M235.52,-200.97C219.09,-222.49 188.82,-258.21 155,-279 149.43,-282.43 143.32,-285.4 137.07,-287.98"/>
<polygon fill="#63b8ff" stroke="#63b8ff" points="238.51,-202.82 241.69,-192.71 232.9,-198.63 238.51,-202.82"/>
</a>
</g>
</g>
<!-- Node4 -->
<g id="Node000004" class="node">
<title>Node4</title>
<g id="a_Node000004"><a xlink:href="classsb_1_1ecs_1_1ComponentManager.html#ad1829095b8fc57b0f93d2f7f7e42f43e" target="_top" xlink:title=" ">
<polygon fill="white" stroke="#666666" points="155,-270 0,-270 0,-240 155,-240 155,-270"/>
<text text-anchor="start" x="8" y="-258" font-family="Helvetica,sans-Serif" font-size="10.00">sb::ecs::ComponentManager</text>
<text text-anchor="middle" x="77.5" y="-247" font-family="Helvetica,sans-Serif" font-size="10.00">::get_component</text>
</a>
</g>
</g>
<!-- Node1&#45;&gt;Node4 -->
<g id="edge3_Node000001_Node000004" class="edge">
<title>Node1&#45;&gt;Node4</title>
<g id="a_edge3_Node000001_Node000004"><a xlink:title=" ">
<path fill="none" stroke="#63b8ff" d="M223.06,-197.55C204.57,-207.76 178.72,-221.27 155,-231 147.27,-234.17 138.97,-237.17 130.77,-239.91"/>
<polygon fill="#63b8ff" stroke="#63b8ff" points="224.99,-200.49 232.02,-192.55 221.58,-194.38 224.99,-200.49"/>
</a>
</g>
</g>
<!-- Node5 -->
<g id="Node000005" class="node">
<title>Node5</title>
<g id="a_Node000005"><a xlink:href="classsb_1_1ecs_1_1ComponentManager.html#a30ed0816113fb8b7ba44ce6d1fc26d33" target="_top" xlink:title=" ">
<polygon fill="white" stroke="#666666" points="155,-222 0,-222 0,-192 155,-192 155,-222"/>
<text text-anchor="start" x="8" y="-210" font-family="Helvetica,sans-Serif" font-size="10.00">sb::ecs::ComponentManager</text>
<text text-anchor="middle" x="77.5" y="-199" font-family="Helvetica,sans-Serif" font-size="10.00">::get_component_type</text>
</a>
</g>
</g>
<!-- Node1&#45;&gt;Node5 -->
<g id="edge4_Node000001_Node000005" class="edge">
<title>Node1&#45;&gt;Node5</title>
<g id="a_edge4_Node000001_Node000005"><a xlink:title=" ">
<path fill="none" stroke="#63b8ff" d="M180.84,-192.55C172.44,-193.74 163.81,-194.96 155.29,-196.16"/>
<polygon fill="#63b8ff" stroke="#63b8ff" points="181.53,-195.99 190.95,-191.13 180.55,-189.06 181.53,-195.99"/>
</a>
</g>
</g>
<!-- Node6 -->
<g id="Node000006" class="node">
<title>Node6</title>
<g id="a_Node000006"><a xlink:href="classsb_1_1ecs_1_1SystemManager.html#a22c4c21ba95606a5d44dfbe406b1b49f" target="_top" xlink:title=" ">
<polygon fill="white" stroke="#666666" points="145.5,-174 9.5,-174 9.5,-144 145.5,-144 145.5,-174"/>
<text text-anchor="start" x="17.5" y="-162" font-family="Helvetica,sans-Serif" font-size="10.00">sb::ecs::SystemManager</text>
<text text-anchor="middle" x="77.5" y="-151" font-family="Helvetica,sans-Serif" font-size="10.00">::get_system</text>
</a>
</g>
</g>
<!-- Node1&#45;&gt;Node6 -->
<g id="edge5_Node000001_Node000006" class="edge">
<title>Node1&#45;&gt;Node6</title>
<g id="a_edge5_Node000001_Node000006"><a xlink:title=" ">
<path fill="none" stroke="#63b8ff" d="M180.9,-173.46C169.31,-171.82 157.26,-170.12 145.68,-168.48"/>
<polygon fill="#63b8ff" stroke="#63b8ff" points="180.55,-176.94 190.95,-174.87 181.53,-170.01 180.55,-176.94"/>
</a>
</g>
</g>
<!-- Node7 -->
<g id="Node000007" class="node">
<title>Node7</title>
<g id="a_Node000007"><a xlink:href="classsb_1_1ecs_1_1ComponentManager.html#a4d43cd77ccac51e5bc5e807f43f2780f" target="_top" xlink:title=" ">
<polygon fill="white" stroke="#666666" points="155,-126 0,-126 0,-96 155,-96 155,-126"/>
<text text-anchor="start" x="8" y="-114" font-family="Helvetica,sans-Serif" font-size="10.00">sb::ecs::ComponentManager</text>
<text text-anchor="middle" x="77.5" y="-103" font-family="Helvetica,sans-Serif" font-size="10.00">::register_component</text>
</a>
</g>
</g>
<!-- Node1&#45;&gt;Node7 -->
<g id="edge6_Node000001_Node000007" class="edge">
<title>Node1&#45;&gt;Node7</title>
<g id="a_edge6_Node000001_Node000007"><a xlink:title=" ">
<path fill="none" stroke="#63b8ff" d="M223.06,-168.45C204.57,-158.24 178.72,-144.73 155,-135 147.27,-131.83 138.97,-128.83 130.77,-126.09"/>
<polygon fill="#63b8ff" stroke="#63b8ff" points="221.58,-171.62 232.02,-173.45 224.99,-165.51 221.58,-171.62"/>
</a>
</g>
</g>
<!-- Node8 -->
<g id="Node000008" class="node">
<title>Node8</title>
<g id="a_Node000008"><a xlink:href="classsb_1_1ecs_1_1SystemManager.html#a37a9320a05090c482d47b251541ea4dc" target="_top" xlink:title=" ">
<polygon fill="white" stroke="#666666" points="145.5,-78 9.5,-78 9.5,-48 145.5,-48 145.5,-78"/>
<text text-anchor="start" x="17.5" y="-66" font-family="Helvetica,sans-Serif" font-size="10.00">sb::ecs::SystemManager</text>
<text text-anchor="middle" x="77.5" y="-55" font-family="Helvetica,sans-Serif" font-size="10.00">::register_system</text>
</a>
</g>
</g>
<!-- Node1&#45;&gt;Node8 -->
<g id="edge7_Node000001_Node000008" class="edge">
<title>Node1&#45;&gt;Node8</title>
<g id="a_edge7_Node000001_Node000008"><a xlink:title=" ">
<path fill="none" stroke="#63b8ff" d="M235.52,-165.03C219.09,-143.51 188.82,-107.79 155,-87 149.43,-83.57 143.32,-80.6 137.07,-78.02"/>
<polygon fill="#63b8ff" stroke="#63b8ff" points="232.9,-167.37 241.69,-173.29 238.51,-163.18 232.9,-167.37"/>
</a>
</g>
</g>
<!-- Node9 -->
<g id="Node000009" class="node">
<title>Node9</title>
<g id="a_Node000009"><a xlink:href="classsb_1_1ecs_1_1SystemManager.html#a1b9429431124dc125fbe8442b1d6920a" target="_top" xlink:title=" ">
<polygon fill="white" stroke="#666666" points="145.5,-30 9.5,-30 9.5,0 145.5,0 145.5,-30"/>
<text text-anchor="start" x="17.5" y="-18" font-family="Helvetica,sans-Serif" font-size="10.00">sb::ecs::SystemManager</text>
<text text-anchor="middle" x="77.5" y="-7" font-family="Helvetica,sans-Serif" font-size="10.00">::set_signature</text>
</a>
</g>
</g>
<!-- Node1&#45;&gt;Node9 -->
<g id="edge8_Node000001_Node000009" class="edge">
<title>Node1&#45;&gt;Node9</title>
<g id="a_edge8_Node000001_Node000009"><a xlink:title=" ">
<path fill="none" stroke="#63b8ff" d="M241.08,-163.69C228.24,-132.81 198.96,-72.38 155,-39 150.45,-35.55 145.4,-32.59 140.12,-30.05"/>
<polygon fill="#63b8ff" stroke="#63b8ff" points="237.96,-165.32 244.94,-173.29 244.46,-162.71 237.96,-165.32"/>
</a>
</g>
</g>
</g>
</svg>
