<?xml version="1.0" encoding="UTF-8" standalone="no"?>
<!DOCTYPE svg PUBLIC "-//W3C//DTD SVG 1.1//EN"
 "http://www.w3.org/Graphics/SVG/1.1/DTD/svg11.dtd">
<!-- Generated by graphviz version 2.43.0 (0)
 -->
<!-- Title: CommandQueue.cpp Pages: 1 -->
<svg width="280pt" height="423pt"
 viewBox="0.00 0.00 279.50 423.00" xmlns="http://www.w3.org/2000/svg" xmlns:xlink="http://www.w3.org/1999/xlink">
<g id="graph0" class="graph" transform="scale(1 1) rotate(0) translate(4 419)">
<title>CommandQueue.cpp</title>
<!-- Node1 -->
<g id="Node000001" class="node">
<title>Node1</title>
<g id="a_Node000001"><a xlink:title=" ">
<polygon fill="#999999" stroke="#666666" points="131.5,-415 12.5,-415 12.5,-396 131.5,-396 131.5,-415"/>
<text text-anchor="middle" x="72" y="-403" font-family="Helvetica,sans-Serif" font-size="10.00">CommandQueue.cpp</text>
</a>
</g>
</g>
<!-- Node2 -->
<g id="Node000002" class="node">
<title>Node2</title>
<g id="a_Node000002"><a xlink:href="CommandQueue_8h.html" target="_top" xlink:title="Concrete implementation of ICommandQueue.">
<polygon fill="white" stroke="#666666" points="134.5,-360 9.5,-360 9.5,-330 134.5,-330 134.5,-360"/>
<text text-anchor="start" x="17.5" y="-348" font-family="Helvetica,sans-Serif" font-size="10.00">../../include/gamestate</text>
<text text-anchor="middle" x="72" y="-337" font-family="Helvetica,sans-Serif" font-size="10.00">/CommandQueue.h</text>
</a>
</g>
</g>
<!-- Node1&#45;&gt;Node2 -->
<g id="edge1_Node000001_Node000002" class="edge">
<title>Node1&#45;&gt;Node2</title>
<g id="a_edge1_Node000001_Node000002"><a xlink:title=" ">
<path fill="none" stroke="#63b8ff" d="M72,-395.87C72,-389.11 72,-379.35 72,-370.26"/>
<polygon fill="#63b8ff" stroke="#63b8ff" points="75.5,-370.11 72,-360.11 68.5,-370.11 75.5,-370.11"/>
</a>
</g>
</g>
<!-- Node3 -->
<g id="Node000003" class="node">
<title>Node3</title>
<g id="a_Node000003"><a xlink:href="ICommandQueue_8h.html" target="_top" xlink:title="A lightweight wrapper for queuing commands.">
<polygon fill="white" stroke="#666666" points="127,-294 17,-294 17,-275 127,-275 127,-294"/>
<text text-anchor="middle" x="72" y="-282" font-family="Helvetica,sans-Serif" font-size="10.00">ICommandQueue.h</text>
</a>
</g>
</g>
<!-- Node2&#45;&gt;Node3 -->
<g id="edge2_Node000002_Node000003" class="edge">
<title>Node2&#45;&gt;Node3</title>
<g id="a_edge2_Node000002_Node000003"><a xlink:title=" ">
<path fill="none" stroke="#63b8ff" d="M72,-329.84C72,-322.21 72,-312.7 72,-304.45"/>
<polygon fill="#63b8ff" stroke="#63b8ff" points="75.5,-304.27 72,-294.27 68.5,-304.27 75.5,-304.27"/>
</a>
</g>
</g>
<!-- Node4 -->
<g id="Node000004" class="node">
<title>Node4</title>
<g id="a_Node000004"><a xlink:title=" ">
<polygon fill="#e0e0e0" stroke="#999999" points="58,-239 0,-239 0,-220 58,-220 58,-239"/>
<text text-anchor="middle" x="29" y="-227" font-family="Helvetica,sans-Serif" font-size="10.00">memory</text>
</a>
</g>
</g>
<!-- Node3&#45;&gt;Node4 -->
<g id="edge3_Node000003_Node000004" class="edge">
<title>Node3&#45;&gt;Node4</title>
<g id="a_edge3_Node000003_Node000004"><a xlink:title=" ">
<path fill="none" stroke="#63b8ff" d="M64.9,-274.75C58.83,-267.26 49.91,-256.28 42.49,-247.13"/>
<polygon fill="#63b8ff" stroke="#63b8ff" points="44.99,-244.65 35.97,-239.09 39.55,-249.06 44.99,-244.65"/>
</a>
</g>
</g>
<!-- Node5 -->
<g id="Node000005" class="node">
<title>Node5</title>
<g id="a_Node000005"><a xlink:href="ICommand_8h.html" target="_top" xlink:title="An abstract representation of an action to be executed in the game engine.">
<polygon fill="white" stroke="#666666" points="155.5,-239 76.5,-239 76.5,-220 155.5,-220 155.5,-239"/>
<text text-anchor="middle" x="116" y="-227" font-family="Helvetica,sans-Serif" font-size="10.00">ICommand.h</text>
</a>
</g>
</g>
<!-- Node3&#45;&gt;Node5 -->
<g id="edge4_Node000003_Node000005" class="edge">
<title>Node3&#45;&gt;Node5</title>
<g id="a_edge4_Node000003_Node000005"><a xlink:title=" ">
<path fill="none" stroke="#63b8ff" d="M79.27,-274.75C85.54,-267.18 94.79,-256.05 102.43,-246.84"/>
<polygon fill="#63b8ff" stroke="#63b8ff" points="105.17,-249.02 108.87,-239.09 99.79,-244.55 105.17,-249.02"/>
</a>
</g>
</g>
<!-- Node6 -->
<g id="Node000006" class="node">
<title>Node6</title>
<g id="a_Node000006"><a xlink:title=" ">
<polygon fill="#e0e0e0" stroke="#999999" points="84,-184 40,-184 40,-165 84,-165 84,-184"/>
<text text-anchor="middle" x="62" y="-172" font-family="Helvetica,sans-Serif" font-size="10.00">string</text>
</a>
</g>
</g>
<!-- Node5&#45;&gt;Node6 -->
<g id="edge5_Node000005_Node000006" class="edge">
<title>Node5&#45;&gt;Node6</title>
<g id="a_edge5_Node000005_Node000006"><a xlink:title=" ">
<path fill="none" stroke="#63b8ff" d="M107.08,-219.75C99.22,-212.03 87.57,-200.6 78.08,-191.28"/>
<polygon fill="#63b8ff" stroke="#63b8ff" points="80.34,-188.6 70.75,-184.09 75.44,-193.59 80.34,-188.6"/>
</a>
</g>
</g>
<!-- Node7 -->
<g id="Node000007" class="node">
<title>Node7</title>
<g id="a_Node000007"><a xlink:href="ISystemManager_8h.html" target="_top" xlink:title="Declares the interface for managing registered systems.">
<polygon fill="white" stroke="#666666" points="238,-184 102,-184 102,-165 238,-165 238,-184"/>
<text text-anchor="middle" x="170" y="-172" font-family="Helvetica,sans-Serif" font-size="10.00">../ecs/ISystemManager.h</text>
</a>
</g>
</g>
<!-- Node5&#45;&gt;Node7 -->
<g id="edge6_Node000005_Node000007" class="edge">
<title>Node5&#45;&gt;Node7</title>
<g id="a_edge6_Node000005_Node000007"><a xlink:title=" ">
<path fill="none" stroke="#63b8ff" d="M124.92,-219.75C132.78,-212.03 144.43,-200.6 153.92,-191.28"/>
<polygon fill="#63b8ff" stroke="#63b8ff" points="156.56,-193.59 161.25,-184.09 151.66,-188.6 156.56,-193.59"/>
</a>
</g>
</g>
<!-- Node8 -->
<g id="Node000008" class="node">
<title>Node8</title>
<g id="a_Node000008"><a xlink:href="Entity_8h.html" target="_top" xlink:title="Simple struct for Entity in the ECS module (includes version)">
<polygon fill="white" stroke="#666666" points="165.5,-129 112.5,-129 112.5,-110 165.5,-110 165.5,-129"/>
<text text-anchor="middle" x="139" y="-117" font-family="Helvetica,sans-Serif" font-size="10.00">Entity.h</text>
</a>
</g>
</g>
<!-- Node7&#45;&gt;Node8 -->
<g id="edge7_Node000007_Node000008" class="edge">
<title>Node7&#45;&gt;Node8</title>
<g id="a_edge7_Node000007_Node000008"><a xlink:title=" ">
<path fill="none" stroke="#63b8ff" d="M164.88,-164.75C160.64,-157.49 154.47,-146.95 149.22,-137.98"/>
<polygon fill="#63b8ff" stroke="#63b8ff" points="152.09,-135.95 144.02,-129.09 146.05,-139.49 152.09,-135.95"/>
</a>
</g>
</g>
<!-- Node11 -->
<g id="Node000011" class="node">
<title>Node11</title>
<g id="a_Node000011"><a xlink:href="ecs__config_8h.html" target="_top" xlink:title="Configuration constants and type definitions for ECS modules.">
<polygon fill="white" stroke="#666666" points="249.5,-74 172.5,-74 172.5,-55 249.5,-55 249.5,-74"/>
<text text-anchor="middle" x="211" y="-62" font-family="Helvetica,sans-Serif" font-size="10.00">ecs_config.h</text>
</a>
</g>
</g>
<!-- Node7&#45;&gt;Node11 -->
<g id="edge13_Node000007_Node000011" class="edge">
<title>Node7&#45;&gt;Node11</title>
<g id="a_edge13_Node000007_Node000011"><a xlink:title=" ">
<path fill="none" stroke="#63b8ff" d="M173.36,-164.66C180.06,-147.01 195.21,-107.09 204.12,-83.64"/>
<polygon fill="#63b8ff" stroke="#63b8ff" points="207.44,-84.75 207.71,-74.16 200.89,-82.27 207.44,-84.75"/>
</a>
</g>
</g>
<!-- Node9 -->
<g id="Node000009" class="node">
<title>Node9</title>
<g id="a_Node000009"><a xlink:title=" ">
<polygon fill="#e0e0e0" stroke="#999999" points="71,-74 21,-74 21,-55 71,-55 71,-74"/>
<text text-anchor="middle" x="46" y="-62" font-family="Helvetica,sans-Serif" font-size="10.00">cstdint</text>
</a>
</g>
</g>
<!-- Node8&#45;&gt;Node9 -->
<g id="edge8_Node000008_Node000009" class="edge">
<title>Node8&#45;&gt;Node9</title>
<g id="a_edge8_Node000008_Node000009"><a xlink:title=" ">
<path fill="none" stroke="#63b8ff" d="M124.06,-109.98C109.5,-101.69 87.13,-88.94 70.07,-79.22"/>
<polygon fill="#63b8ff" stroke="#63b8ff" points="71.64,-76.08 61.21,-74.17 68.17,-82.16 71.64,-76.08"/>
</a>
</g>
</g>
<!-- Node10 -->
<g id="Node000010" class="node">
<title>Node10</title>
<g id="a_Node000010"><a xlink:title=" ">
<polygon fill="#e0e0e0" stroke="#999999" points="154.5,-74 89.5,-74 89.5,-55 154.5,-55 154.5,-74"/>
<text text-anchor="middle" x="122" y="-62" font-family="Helvetica,sans-Serif" font-size="10.00">functional</text>
</a>
</g>
</g>
<!-- Node8&#45;&gt;Node10 -->
<g id="edge9_Node000008_Node000010" class="edge">
<title>Node8&#45;&gt;Node10</title>
<g id="a_edge9_Node000008_Node000010"><a xlink:title=" ">
<path fill="none" stroke="#63b8ff" d="M136.19,-109.75C133.94,-102.72 130.7,-92.62 127.88,-83.84"/>
<polygon fill="#63b8ff" stroke="#63b8ff" points="131.14,-82.54 124.75,-74.09 124.48,-84.68 131.14,-82.54"/>
</a>
</g>
</g>
<!-- Node8&#45;&gt;Node11 -->
<g id="edge10_Node000008_Node000011" class="edge">
<title>Node8&#45;&gt;Node11</title>
<g id="a_edge10_Node000008_Node000011"><a xlink:title=" ">
<path fill="none" stroke="#63b8ff" d="M150.57,-109.98C161.42,-102 177.88,-89.88 190.88,-80.31"/>
<polygon fill="#63b8ff" stroke="#63b8ff" points="193.24,-82.92 199.22,-74.17 189.09,-77.28 193.24,-82.92"/>
</a>
</g>
</g>
<!-- Node12 -->
<g id="Node000012" class="node">
<title>Node12</title>
<g id="a_Node000012"><a xlink:title=" ">
<polygon fill="#e0e0e0" stroke="#999999" points="200,-19 156,-19 156,0 200,0 200,-19"/>
<text text-anchor="middle" x="178" y="-7" font-family="Helvetica,sans-Serif" font-size="10.00">bitset</text>
</a>
</g>
</g>
<!-- Node11&#45;&gt;Node12 -->
<g id="edge11_Node000011_Node000012" class="edge">
<title>Node11&#45;&gt;Node12</title>
<g id="a_edge11_Node000011_Node000012"><a xlink:title=" ">
<path fill="none" stroke="#63b8ff" d="M205.55,-54.75C200.99,-47.42 194.33,-36.73 188.71,-27.7"/>
<polygon fill="#63b8ff" stroke="#63b8ff" points="191.6,-25.73 183.35,-19.09 185.66,-29.43 191.6,-25.73"/>
</a>
</g>
</g>
<!-- Node13 -->
<g id="Node000013" class="node">
<title>Node13</title>
<g id="a_Node000013"><a xlink:title=" ">
<polygon fill="#e0e0e0" stroke="#999999" points="271.5,-19 218.5,-19 218.5,0 271.5,0 271.5,-19"/>
<text text-anchor="middle" x="245" y="-7" font-family="Helvetica,sans-Serif" font-size="10.00">cstddef</text>
</a>
</g>
</g>
<!-- Node11&#45;&gt;Node13 -->
<g id="edge12_Node000011_Node000013" class="edge">
<title>Node11&#45;&gt;Node13</title>
<g id="a_edge12_Node000011_Node000013"><a xlink:title=" ">
<path fill="none" stroke="#63b8ff" d="M216.61,-54.75C221.32,-47.42 228.17,-36.73 233.97,-27.7"/>
<polygon fill="#63b8ff" stroke="#63b8ff" points="237.04,-29.4 239.49,-19.09 231.14,-25.62 237.04,-29.4"/>
</a>
</g>
</g>
</g>
</svg>
