<?xml version="1.0" encoding="UTF-8" standalone="no"?>
<!DOCTYPE svg PUBLIC "-//W3C//DTD SVG 1.1//EN"
 "http://www.w3.org/Graphics/SVG/1.1/DTD/svg11.dtd">
<!-- Generated by graphviz version 2.43.0 (0)
 -->
<!-- Title: CommandQueue.cpp Pages: 1 -->
<svg width="309pt" height="478pt"
 viewBox="0.00 0.00 308.50 478.00" xmlns="http://www.w3.org/2000/svg" xmlns:xlink="http://www.w3.org/1999/xlink">
<g id="graph0" class="graph" transform="scale(1 1) rotate(0) translate(4 474)">
<title>CommandQueue.cpp</title>
<!-- Node1 -->
<g id="Node000001" class="node">
<title>Node1</title>
<g id="a_Node000001"><a xlink:title=" ">
<polygon fill="#999999" stroke="#666666" points="136.5,-470 17.5,-470 17.5,-451 136.5,-451 136.5,-470"/>
<text text-anchor="middle" x="77" y="-458" font-family="Helvetica,sans-Serif" font-size="10.00">CommandQueue.cpp</text>
</a>
</g>
</g>
<!-- Node2 -->
<g id="Node000002" class="node">
<title>Node2</title>
<g id="a_Node000002"><a xlink:href="CommandQueue_8h.html" target="_top" xlink:title="Concrete implementation of ICommandQueue.">
<polygon fill="white" stroke="#666666" points="139.5,-415 14.5,-415 14.5,-385 139.5,-385 139.5,-415"/>
<text text-anchor="start" x="22.5" y="-403" font-family="Helvetica,sans-Serif" font-size="10.00">../../include/gamestate</text>
<text text-anchor="middle" x="77" y="-392" font-family="Helvetica,sans-Serif" font-size="10.00">/CommandQueue.h</text>
</a>
</g>
</g>
<!-- Node1&#45;&gt;Node2 -->
<g id="edge1_Node000001_Node000002" class="edge">
<title>Node1&#45;&gt;Node2</title>
<g id="a_edge1_Node000001_Node000002"><a xlink:title=" ">
<path fill="none" stroke="#63b8ff" d="M77,-450.87C77,-444.11 77,-434.35 77,-425.26"/>
<polygon fill="#63b8ff" stroke="#63b8ff" points="80.5,-425.11 77,-415.11 73.5,-425.11 80.5,-425.11"/>
</a>
</g>
</g>
<!-- Node3 -->
<g id="Node000003" class="node">
<title>Node3</title>
<g id="a_Node000003"><a xlink:href="ICommandQueue_8h.html" target="_top" xlink:title="A lightweight wrapper for queuing commands.">
<polygon fill="white" stroke="#666666" points="132,-349 22,-349 22,-330 132,-330 132,-349"/>
<text text-anchor="middle" x="77" y="-337" font-family="Helvetica,sans-Serif" font-size="10.00">ICommandQueue.h</text>
</a>
</g>
</g>
<!-- Node2&#45;&gt;Node3 -->
<g id="edge2_Node000002_Node000003" class="edge">
<title>Node2&#45;&gt;Node3</title>
<g id="a_edge2_Node000002_Node000003"><a xlink:title=" ">
<path fill="none" stroke="#63b8ff" d="M77,-384.84C77,-377.21 77,-367.7 77,-359.45"/>
<polygon fill="#63b8ff" stroke="#63b8ff" points="80.5,-359.27 77,-349.27 73.5,-359.27 80.5,-359.27"/>
</a>
</g>
</g>
<!-- Node4 -->
<g id="Node000004" class="node">
<title>Node4</title>
<g id="a_Node000004"><a xlink:title=" ">
<polygon fill="#e0e0e0" stroke="#999999" points="58,-184 0,-184 0,-165 58,-165 58,-184"/>
<text text-anchor="middle" x="29" y="-172" font-family="Helvetica,sans-Serif" font-size="10.00">memory</text>
</a>
</g>
</g>
<!-- Node3&#45;&gt;Node4 -->
<g id="edge3_Node000003_Node000004" class="edge">
<title>Node3&#45;&gt;Node4</title>
<g id="a_edge3_Node000003_Node000004"><a xlink:title=" ">
<path fill="none" stroke="#63b8ff" d="M74.42,-329.74C66.9,-304.2 44.88,-229.43 34.52,-194.23"/>
<polygon fill="#63b8ff" stroke="#63b8ff" points="37.78,-192.91 31.59,-184.31 31.06,-194.89 37.78,-192.91"/>
</a>
</g>
</g>
<!-- Node5 -->
<g id="Node000005" class="node">
<title>Node5</title>
<g id="a_Node000005"><a xlink:href="ICommand_8h.html" target="_top" xlink:title="An abstract representation of an action to be executed in the game engine.">
<polygon fill="white" stroke="#666666" points="164.5,-294 85.5,-294 85.5,-275 164.5,-275 164.5,-294"/>
<text text-anchor="middle" x="125" y="-282" font-family="Helvetica,sans-Serif" font-size="10.00">ICommand.h</text>
</a>
</g>
</g>
<!-- Node3&#45;&gt;Node5 -->
<g id="edge4_Node000003_Node000005" class="edge">
<title>Node3&#45;&gt;Node5</title>
<g id="a_edge4_Node000003_Node000005"><a xlink:title=" ">
<path fill="none" stroke="#63b8ff" d="M84.93,-329.75C91.85,-322.11 102.07,-310.82 110.45,-301.56"/>
<polygon fill="#63b8ff" stroke="#63b8ff" points="113.1,-303.85 117.22,-294.09 107.91,-299.15 113.1,-303.85"/>
</a>
</g>
</g>
<!-- Node6 -->
<g id="Node000006" class="node">
<title>Node6</title>
<g id="a_Node000006"><a xlink:title=" ">
<polygon fill="#e0e0e0" stroke="#999999" points="255,-239 211,-239 211,-220 255,-220 255,-239"/>
<text text-anchor="middle" x="233" y="-227" font-family="Helvetica,sans-Serif" font-size="10.00">string</text>
</a>
</g>
</g>
<!-- Node5&#45;&gt;Node6 -->
<g id="edge5_Node000005_Node000006" class="edge">
<title>Node5&#45;&gt;Node6</title>
<g id="a_edge5_Node000005_Node000006"><a xlink:title=" ">
<path fill="none" stroke="#63b8ff" d="M142.35,-274.98C159.57,-266.54 186.2,-253.47 206.15,-243.68"/>
<polygon fill="#63b8ff" stroke="#63b8ff" points="207.9,-246.72 215.33,-239.17 204.81,-240.43 207.9,-246.72"/>
</a>
</g>
</g>
<!-- Node7 -->
<g id="Node000007" class="node">
<title>Node7</title>
<g id="a_Node000007"><a xlink:href="ISystemManager_8h.html" target="_top" xlink:title="Declares the interface for managing registered systems.">
<polygon fill="white" stroke="#666666" points="193,-239 57,-239 57,-220 193,-220 193,-239"/>
<text text-anchor="middle" x="125" y="-227" font-family="Helvetica,sans-Serif" font-size="10.00">../ecs/ISystemManager.h</text>
</a>
</g>
</g>
<!-- Node5&#45;&gt;Node7 -->
<g id="edge6_Node000005_Node000007" class="edge">
<title>Node5&#45;&gt;Node7</title>
<g id="a_edge6_Node000005_Node000007"><a xlink:title=" ">
<path fill="none" stroke="#63b8ff" d="M125,-274.75C125,-267.8 125,-257.85 125,-249.13"/>
<polygon fill="#63b8ff" stroke="#63b8ff" points="128.5,-249.09 125,-239.09 121.5,-249.09 128.5,-249.09"/>
</a>
</g>
</g>
<!-- Node7&#45;&gt;Node4 -->
<g id="edge7_Node000007_Node000004" class="edge">
<title>Node7&#45;&gt;Node4</title>
<g id="a_edge7_Node000007_Node000004"><a xlink:title=" ">
<path fill="none" stroke="#63b8ff" d="M109.58,-219.98C94.55,-211.69 71.46,-198.94 53.84,-189.22"/>
<polygon fill="#63b8ff" stroke="#63b8ff" points="55.15,-185.94 44.7,-184.17 51.77,-192.07 55.15,-185.94"/>
</a>
</g>
</g>
<!-- Node8 -->
<g id="Node000008" class="node">
<title>Node8</title>
<g id="a_Node000008"><a xlink:title=" ">
<polygon fill="#e0e0e0" stroke="#999999" points="300.5,-184 235.5,-184 235.5,-165 300.5,-165 300.5,-184"/>
<text text-anchor="middle" x="268" y="-172" font-family="Helvetica,sans-Serif" font-size="10.00">typeindex</text>
</a>
</g>
</g>
<!-- Node7&#45;&gt;Node8 -->
<g id="edge8_Node000007_Node000008" class="edge">
<title>Node7&#45;&gt;Node8</title>
<g id="a_edge8_Node000007_Node000008"><a xlink:title=" ">
<path fill="none" stroke="#63b8ff" d="M147.98,-219.98C171.5,-211.27 208.29,-197.63 234.94,-187.75"/>
<polygon fill="#63b8ff" stroke="#63b8ff" points="236.45,-190.93 244.61,-184.17 234.01,-184.36 236.45,-190.93"/>
</a>
</g>
</g>
<!-- Node9 -->
<g id="Node000009" class="node">
<title>Node9</title>
<g id="a_Node000009"><a xlink:href="Entity_8h.html" target="_top" xlink:title="Simple struct for Entity in the ECS module (includes version)">
<polygon fill="white" stroke="#666666" points="175.5,-129 122.5,-129 122.5,-110 175.5,-110 175.5,-129"/>
<text text-anchor="middle" x="149" y="-117" font-family="Helvetica,sans-Serif" font-size="10.00">Entity.h</text>
</a>
</g>
</g>
<!-- Node7&#45;&gt;Node9 -->
<g id="edge9_Node000007_Node000009" class="edge">
<title>Node7&#45;&gt;Node9</title>
<g id="a_edge9_Node000007_Node000009"><a xlink:title=" ">
<path fill="none" stroke="#63b8ff" d="M126.96,-219.66C130.87,-202.09 139.68,-162.45 144.9,-138.95"/>
<polygon fill="#63b8ff" stroke="#63b8ff" points="148.32,-139.68 147.08,-129.16 141.49,-138.16 148.32,-139.68"/>
</a>
</g>
</g>
<!-- Node12 -->
<g id="Node000012" class="node">
<title>Node12</title>
<g id="a_Node000012"><a xlink:href="ecs__config_8h.html" target="_top" xlink:title="Configuration constants and type definitions for ECS modules.">
<polygon fill="white" stroke="#666666" points="107.5,-74 30.5,-74 30.5,-55 107.5,-55 107.5,-74"/>
<text text-anchor="middle" x="69" y="-62" font-family="Helvetica,sans-Serif" font-size="10.00">ecs_config.h</text>
</a>
</g>
</g>
<!-- Node7&#45;&gt;Node12 -->
<g id="edge15_Node000007_Node000012" class="edge">
<title>Node7&#45;&gt;Node12</title>
<g id="a_edge15_Node000007_Node000012"><a xlink:title=" ">
<path fill="none" stroke="#63b8ff" d="M121.99,-219.74C113.18,-194.09 87.31,-118.78 75.28,-83.78"/>
<polygon fill="#63b8ff" stroke="#63b8ff" points="78.59,-82.63 72.03,-74.31 71.96,-84.9 78.59,-82.63"/>
</a>
</g>
</g>
<!-- Node15 -->
<g id="Node000015" class="node">
<title>Node15</title>
<g id="a_Node000015"><a xlink:href="ISystem_8h.html" target="_top" xlink:title="Declares the interface for all game systems in the ECS framework.">
<polygon fill="white" stroke="#666666" points="217.5,-184 152.5,-184 152.5,-165 217.5,-165 217.5,-184"/>
<text text-anchor="middle" x="185" y="-172" font-family="Helvetica,sans-Serif" font-size="10.00">ISystem.h</text>
</a>
</g>
</g>
<!-- Node7&#45;&gt;Node15 -->
<g id="edge16_Node000007_Node000015" class="edge">
<title>Node7&#45;&gt;Node15</title>
<g id="a_edge16_Node000007_Node000015"><a xlink:title=" ">
<path fill="none" stroke="#63b8ff" d="M134.64,-219.98C143.51,-212.15 156.87,-200.34 167.61,-190.86"/>
<polygon fill="#63b8ff" stroke="#63b8ff" points="170.01,-193.41 175.18,-184.17 165.37,-188.17 170.01,-193.41"/>
</a>
</g>
</g>
<!-- Node10 -->
<g id="Node000010" class="node">
<title>Node10</title>
<g id="a_Node000010"><a xlink:title=" ">
<polygon fill="#e0e0e0" stroke="#999999" points="259,-74 209,-74 209,-55 259,-55 259,-74"/>
<text text-anchor="middle" x="234" y="-62" font-family="Helvetica,sans-Serif" font-size="10.00">cstdint</text>
</a>
</g>
</g>
<!-- Node9&#45;&gt;Node10 -->
<g id="edge10_Node000009_Node000010" class="edge">
<title>Node9&#45;&gt;Node10</title>
<g id="a_edge10_Node000009_Node000010"><a xlink:title=" ">
<path fill="none" stroke="#63b8ff" d="M162.66,-109.98C175.84,-101.77 196.03,-89.18 211.57,-79.49"/>
<polygon fill="#63b8ff" stroke="#63b8ff" points="213.46,-82.43 220.09,-74.17 209.76,-76.49 213.46,-82.43"/>
</a>
</g>
</g>
<!-- Node11 -->
<g id="Node000011" class="node">
<title>Node11</title>
<g id="a_Node000011"><a xlink:title=" ">
<polygon fill="#e0e0e0" stroke="#999999" points="190.5,-74 125.5,-74 125.5,-55 190.5,-55 190.5,-74"/>
<text text-anchor="middle" x="158" y="-62" font-family="Helvetica,sans-Serif" font-size="10.00">functional</text>
</a>
</g>
</g>
<!-- Node9&#45;&gt;Node11 -->
<g id="edge11_Node000009_Node000011" class="edge">
<title>Node9&#45;&gt;Node11</title>
<g id="a_edge11_Node000009_Node000011"><a xlink:title=" ">
<path fill="none" stroke="#63b8ff" d="M150.49,-109.75C151.67,-102.8 153.36,-92.85 154.84,-84.13"/>
<polygon fill="#63b8ff" stroke="#63b8ff" points="158.32,-84.53 156.54,-74.09 151.42,-83.36 158.32,-84.53"/>
</a>
</g>
</g>
<!-- Node9&#45;&gt;Node12 -->
<g id="edge12_Node000009_Node000012" class="edge">
<title>Node9&#45;&gt;Node12</title>
<g id="a_edge12_Node000009_Node000012"><a xlink:title=" ">
<path fill="none" stroke="#63b8ff" d="M136.15,-109.98C123.86,-101.84 105.09,-89.41 90.52,-79.76"/>
<polygon fill="#63b8ff" stroke="#63b8ff" points="92.36,-76.78 82.09,-74.17 88.49,-82.61 92.36,-76.78"/>
</a>
</g>
</g>
<!-- Node13 -->
<g id="Node000013" class="node">
<title>Node13</title>
<g id="a_Node000013"><a xlink:title=" ">
<polygon fill="#e0e0e0" stroke="#999999" points="58,-19 14,-19 14,0 58,0 58,-19"/>
<text text-anchor="middle" x="36" y="-7" font-family="Helvetica,sans-Serif" font-size="10.00">bitset</text>
</a>
</g>
</g>
<!-- Node12&#45;&gt;Node13 -->
<g id="edge13_Node000012_Node000013" class="edge">
<title>Node12&#45;&gt;Node13</title>
<g id="a_edge13_Node000012_Node000013"><a xlink:title=" ">
<path fill="none" stroke="#63b8ff" d="M63.55,-54.75C58.99,-47.42 52.33,-36.73 46.71,-27.7"/>
<polygon fill="#63b8ff" stroke="#63b8ff" points="49.6,-25.73 41.35,-19.09 43.66,-29.43 49.6,-25.73"/>
</a>
</g>
</g>
<!-- Node14 -->
<g id="Node000014" class="node">
<title>Node14</title>
<g id="a_Node000014"><a xlink:title=" ">
<polygon fill="#e0e0e0" stroke="#999999" points="129.5,-19 76.5,-19 76.5,0 129.5,0 129.5,-19"/>
<text text-anchor="middle" x="103" y="-7" font-family="Helvetica,sans-Serif" font-size="10.00">cstddef</text>
</a>
</g>
</g>
<!-- Node12&#45;&gt;Node14 -->
<g id="edge14_Node000012_Node000014" class="edge">
<title>Node12&#45;&gt;Node14</title>
<g id="a_edge14_Node000012_Node000014"><a xlink:title=" ">
<path fill="none" stroke="#63b8ff" d="M74.61,-54.75C79.32,-47.42 86.17,-36.73 91.97,-27.7"/>
<polygon fill="#63b8ff" stroke="#63b8ff" points="95.04,-29.4 97.49,-19.09 89.14,-25.62 95.04,-29.4"/>
</a>
</g>
</g>
<!-- Node15&#45;&gt;Node9 -->
<g id="edge18_Node000015_Node000009" class="edge">
<title>Node15&#45;&gt;Node9</title>
<g id="a_edge18_Node000015_Node000009"><a xlink:title=" ">
<path fill="none" stroke="#63b8ff" d="M179.06,-164.75C174.02,-157.34 166.66,-146.5 160.49,-137.41"/>
<polygon fill="#63b8ff" stroke="#63b8ff" points="163.35,-135.39 154.83,-129.09 157.56,-139.33 163.35,-135.39"/>
</a>
</g>
</g>
<!-- Node16 -->
<g id="Node000016" class="node">
<title>Node16</title>
<g id="a_Node000016"><a xlink:title=" ">
<polygon fill="#e0e0e0" stroke="#999999" points="280,-129 194,-129 194,-110 280,-110 280,-129"/>
<text text-anchor="middle" x="237" y="-117" font-family="Helvetica,sans-Serif" font-size="10.00">unordered_set</text>
</a>
</g>
</g>
<!-- Node15&#45;&gt;Node16 -->
<g id="edge17_Node000015_Node000016" class="edge">
<title>Node15&#45;&gt;Node16</title>
<g id="a_edge17_Node000015_Node000016"><a xlink:title=" ">
<path fill="none" stroke="#63b8ff" d="M193.59,-164.75C201.16,-157.03 212.38,-145.6 221.51,-136.28"/>
<polygon fill="#63b8ff" stroke="#63b8ff" points="224.07,-138.68 228.57,-129.09 219.07,-133.78 224.07,-138.68"/>
</a>
</g>
</g>
</g>
</svg>
