<?xml version="1.0" encoding="UTF-8" standalone="no"?>
<!DOCTYPE svg PUBLIC "-//W3C//DTD SVG 1.1//EN"
 "http://www.w3.org/Graphics/SVG/1.1/DTD/svg11.dtd">
<!-- Generated by graphviz version 2.43.0 (0)
 -->
<!-- Title: ConsoleSink.h Pages: 1 -->
<svg width="476pt" height="247pt"
 viewBox="0.00 0.00 475.50 247.00" xmlns="http://www.w3.org/2000/svg" xmlns:xlink="http://www.w3.org/1999/xlink">
<g id="graph0" class="graph" transform="scale(1 1) rotate(0) translate(4 243)">
<title>ConsoleSink.h</title>
<!-- Node1 -->
<g id="Node000001" class="node">
<title>Node1</title>
<g id="a_Node000001"><a xlink:title="Concrete implementation of ISink that logs to the console.">
<polygon fill="#999999" stroke="#666666" points="289.5,-239 203.5,-239 203.5,-220 289.5,-220 289.5,-239"/>
<text text-anchor="middle" x="246.5" y="-227" font-family="Helvetica,sans-Serif" font-size="10.00">ConsoleSink.h</text>
</a>
</g>
</g>
<!-- Node2 -->
<g id="Node000002" class="node">
<title>Node2</title>
<g id="a_Node000002"><a xlink:href="EntityManager_8cpp.html" target="_top" xlink:title=" ">
<polygon fill="white" stroke="#666666" points="107,-184 0,-184 0,-165 107,-165 107,-184"/>
<text text-anchor="middle" x="53.5" y="-172" font-family="Helvetica,sans-Serif" font-size="10.00">EntityManager.cpp</text>
</a>
</g>
</g>
<!-- Node1&#45;&gt;Node2 -->
<g id="edge1_Node000001_Node000002" class="edge">
<title>Node1&#45;&gt;Node2</title>
<g id="a_edge1_Node000001_Node000002"><a xlink:title=" ">
<path fill="none" stroke="#63b8ff" d="M205.75,-217.31C169.64,-207.39 117.67,-193.12 84.75,-184.08"/>
<polygon fill="#63b8ff" stroke="#63b8ff" points="204.92,-220.71 215.49,-219.98 206.78,-213.96 204.92,-220.71"/>
</a>
</g>
</g>
<!-- Node3 -->
<g id="Node000003" class="node">
<title>Node3</title>
<g id="a_Node000003"><a xlink:href="IComponentManager_8h.html" target="_top" xlink:title="System for managing components and their relationship to specific entities.">
<polygon fill="white" stroke="#666666" points="252,-184 125,-184 125,-165 252,-165 252,-184"/>
<text text-anchor="middle" x="188.5" y="-172" font-family="Helvetica,sans-Serif" font-size="10.00">IComponentManager.h</text>
</a>
</g>
</g>
<!-- Node1&#45;&gt;Node3 -->
<g id="edge2_Node000001_Node000003" class="edge">
<title>Node1&#45;&gt;Node3</title>
<g id="a_edge2_Node000001_Node000003"><a xlink:title=" ">
<path fill="none" stroke="#63b8ff" d="M229.59,-213.04C219.3,-203.64 206.53,-191.98 197.99,-184.17"/>
<polygon fill="#63b8ff" stroke="#63b8ff" points="227.44,-215.82 237.18,-219.98 232.16,-210.66 227.44,-215.82"/>
</a>
</g>
</g>
<!-- Node9 -->
<g id="Node000009" class="node">
<title>Node9</title>
<g id="a_Node000009"><a xlink:href="Logger_8cpp.html" target="_top" xlink:title=" ">
<polygon fill="white" stroke="#666666" points="339,-184 270,-184 270,-165 339,-165 339,-184"/>
<text text-anchor="middle" x="304.5" y="-172" font-family="Helvetica,sans-Serif" font-size="10.00">Logger.cpp</text>
</a>
</g>
</g>
<!-- Node1&#45;&gt;Node9 -->
<g id="edge9_Node000001_Node000009" class="edge">
<title>Node1&#45;&gt;Node9</title>
<g id="a_edge9_Node000001_Node000009"><a xlink:title=" ">
<path fill="none" stroke="#63b8ff" d="M263.41,-213.04C273.7,-203.64 286.47,-191.98 295.01,-184.17"/>
<polygon fill="#63b8ff" stroke="#63b8ff" points="260.84,-210.66 255.82,-219.98 265.56,-215.82 260.84,-210.66"/>
</a>
</g>
</g>
<!-- Node10 -->
<g id="Node000010" class="node">
<title>Node10</title>
<g id="a_Node000010"><a xlink:href="SystemManager_8h.html" target="_top" xlink:title="Defines the concrete implementation of ISystemManager.h.">
<polygon fill="white" stroke="#666666" points="461.5,-184 357.5,-184 357.5,-165 461.5,-165 461.5,-184"/>
<text text-anchor="middle" x="409.5" y="-172" font-family="Helvetica,sans-Serif" font-size="10.00">SystemManager.h</text>
</a>
</g>
</g>
<!-- Node1&#45;&gt;Node10 -->
<g id="edge10_Node000001_Node000010" class="edge">
<title>Node1&#45;&gt;Node10</title>
<g id="a_edge10_Node000001_Node000010"><a xlink:title=" ">
<path fill="none" stroke="#63b8ff" d="M282.49,-216.8C312.91,-206.91 355.78,-192.97 383.11,-184.08"/>
<polygon fill="#63b8ff" stroke="#63b8ff" points="281.12,-213.56 272.69,-219.98 283.28,-220.22 281.12,-213.56"/>
</a>
</g>
</g>
<!-- Node4 -->
<g id="Node000004" class="node">
<title>Node4</title>
<g id="a_Node000004"><a xlink:href="GameWorld_8h.html" target="_top" xlink:title="Defines the concrete game world used by the main loop.">
<polygon fill="white" stroke="#666666" points="230,-129 147,-129 147,-110 230,-110 230,-129"/>
<text text-anchor="middle" x="188.5" y="-117" font-family="Helvetica,sans-Serif" font-size="10.00">GameWorld.h</text>
</a>
</g>
</g>
<!-- Node3&#45;&gt;Node4 -->
<g id="edge3_Node000003_Node000004" class="edge">
<title>Node3&#45;&gt;Node4</title>
<g id="a_edge3_Node000003_Node000004"><a xlink:title=" ">
<path fill="none" stroke="#63b8ff" d="M188.5,-154.66C188.5,-145.93 188.5,-135.99 188.5,-129.09"/>
<polygon fill="#63b8ff" stroke="#63b8ff" points="185,-154.75 188.5,-164.75 192,-154.75 185,-154.75"/>
</a>
</g>
</g>
<!-- Node8 -->
<g id="Node000008" class="node">
<title>Node8</title>
<g id="a_Node000008"><a xlink:href="main_8cpp.html" target="_top" xlink:title=" ">
<polygon fill="white" stroke="#666666" points="331.5,-74 269.5,-74 269.5,-55 331.5,-55 331.5,-74"/>
<text text-anchor="middle" x="300.5" y="-62" font-family="Helvetica,sans-Serif" font-size="10.00">main.cpp</text>
</a>
</g>
</g>
<!-- Node3&#45;&gt;Node8 -->
<g id="edge8_Node000003_Node000008" class="edge">
<title>Node3&#45;&gt;Node8</title>
<g id="a_edge8_Node000003_Node000008"><a xlink:title=" ">
<path fill="none" stroke="#63b8ff" d="M206.42,-158.09C216.07,-149.66 228.1,-138.93 238.5,-129 258.34,-110.06 280.56,-86.76 292.26,-74.32"/>
<polygon fill="#63b8ff" stroke="#63b8ff" points="203.91,-155.64 198.65,-164.84 208.49,-160.93 203.91,-155.64"/>
</a>
</g>
</g>
<!-- Node5 -->
<g id="Node000005" class="node">
<title>Node5</title>
<g id="a_Node000005"><a xlink:href="PlayerMoveCommand_8h.html" target="_top" xlink:title="A command for triggering player (paddle) movement.">
<polygon fill="white" stroke="#666666" points="251.5,-74 117.5,-74 117.5,-55 251.5,-55 251.5,-74"/>
<text text-anchor="middle" x="184.5" y="-62" font-family="Helvetica,sans-Serif" font-size="10.00">PlayerMoveCommand.h</text>
</a>
</g>
</g>
<!-- Node4&#45;&gt;Node5 -->
<g id="edge4_Node000004_Node000005" class="edge">
<title>Node4&#45;&gt;Node5</title>
<g id="a_edge4_Node000004_Node000005"><a xlink:title=" ">
<path fill="none" stroke="#63b8ff" d="M187.08,-99.66C186.42,-90.93 185.67,-80.99 185.15,-74.09"/>
<polygon fill="#63b8ff" stroke="#63b8ff" points="183.6,-100.04 187.84,-109.75 190.58,-99.51 183.6,-100.04"/>
</a>
</g>
</g>
<!-- Node4&#45;&gt;Node8 -->
<g id="edge7_Node000004_Node000008" class="edge">
<title>Node4&#45;&gt;Node8</title>
<g id="a_edge7_Node000004_Node000008"><a xlink:title=" ">
<path fill="none" stroke="#63b8ff" d="M215.69,-105.63C236.32,-95.87 264.12,-82.71 282.18,-74.17"/>
<polygon fill="#63b8ff" stroke="#63b8ff" points="214.04,-102.54 206.49,-109.98 217.03,-108.87 214.04,-102.54"/>
</a>
</g>
</g>
<!-- Node6 -->
<g id="Node000006" class="node">
<title>Node6</title>
<g id="a_Node000006"><a xlink:href="InputNormalizer_8cpp.html" target="_top" xlink:title=" ">
<polygon fill="white" stroke="#666666" points="168,-19 53,-19 53,0 168,0 168,-19"/>
<text text-anchor="middle" x="110.5" y="-7" font-family="Helvetica,sans-Serif" font-size="10.00">InputNormalizer.cpp</text>
</a>
</g>
</g>
<!-- Node5&#45;&gt;Node6 -->
<g id="edge5_Node000005_Node000006" class="edge">
<title>Node5&#45;&gt;Node6</title>
<g id="a_edge5_Node000005_Node000006"><a xlink:title=" ">
<path fill="none" stroke="#63b8ff" d="M164.47,-49.15C151.09,-39.57 133.94,-27.29 122.61,-19.17"/>
<polygon fill="#63b8ff" stroke="#63b8ff" points="162.44,-52.01 172.61,-54.98 166.52,-46.32 162.44,-52.01"/>
</a>
</g>
</g>
<!-- Node7 -->
<g id="Node000007" class="node">
<title>Node7</title>
<g id="a_Node000007"><a xlink:href="PlayerMoveCommand_8cpp.html" target="_top" xlink:title=" ">
<polygon fill="white" stroke="#666666" points="331,-19 186,-19 186,0 331,0 331,-19"/>
<text text-anchor="middle" x="258.5" y="-7" font-family="Helvetica,sans-Serif" font-size="10.00">PlayerMoveCommand.cpp</text>
</a>
</g>
</g>
<!-- Node5&#45;&gt;Node7 -->
<g id="edge6_Node000005_Node000007" class="edge">
<title>Node5&#45;&gt;Node7</title>
<g id="a_edge6_Node000005_Node000007"><a xlink:title=" ">
<path fill="none" stroke="#63b8ff" d="M204.53,-49.15C217.91,-39.57 235.06,-27.29 246.39,-19.17"/>
<polygon fill="#63b8ff" stroke="#63b8ff" points="202.48,-46.32 196.39,-54.98 206.56,-52.01 202.48,-46.32"/>
</a>
</g>
</g>
<!-- Node10&#45;&gt;Node8 -->
<g id="edge12_Node000010_Node000008" class="edge">
<title>Node10&#45;&gt;Node8</title>
<g id="a_edge12_Node000010_Node000008"><a xlink:title=" ">
<path fill="none" stroke="#63b8ff" d="M384.02,-159.89C370.7,-151.99 354.68,-141.21 342.5,-129 325.51,-111.97 311.45,-87.06 304.74,-74.08"/>
<polygon fill="#63b8ff" stroke="#63b8ff" points="382.32,-162.94 392.74,-164.87 385.8,-156.87 382.32,-162.94"/>
</a>
</g>
</g>
<!-- Node11 -->
<g id="Node000011" class="node">
<title>Node11</title>
<g id="a_Node000011"><a xlink:href="SystemManager_8cpp.html" target="_top" xlink:title=" ">
<polygon fill="white" stroke="#666666" points="467.5,-129 351.5,-129 351.5,-110 467.5,-110 467.5,-129"/>
<text text-anchor="middle" x="409.5" y="-117" font-family="Helvetica,sans-Serif" font-size="10.00">SystemManager.cpp</text>
</a>
</g>
</g>
<!-- Node10&#45;&gt;Node11 -->
<g id="edge11_Node000010_Node000011" class="edge">
<title>Node10&#45;&gt;Node11</title>
<g id="a_edge11_Node000010_Node000011"><a xlink:title=" ">
<path fill="none" stroke="#63b8ff" d="M409.5,-154.66C409.5,-145.93 409.5,-135.99 409.5,-129.09"/>
<polygon fill="#63b8ff" stroke="#63b8ff" points="406,-154.75 409.5,-164.75 413,-154.75 406,-154.75"/>
</a>
</g>
</g>
</g>
</svg>
