<?xml version="1.0" encoding="UTF-8" standalone="no"?>
<!DOCTYPE svg PUBLIC "-//W3C//DTD SVG 1.1//EN"
 "http://www.w3.org/Graphics/SVG/1.1/DTD/svg11.dtd">
<!-- Generated by graphviz version 2.43.0 (0)
 -->
<!-- Title: ConsoleSink.h Pages: 1 -->
<svg width="224pt" height="192pt"
 viewBox="0.00 0.00 224.00 192.00" xmlns="http://www.w3.org/2000/svg" xmlns:xlink="http://www.w3.org/1999/xlink">
<g id="graph0" class="graph" transform="scale(1 1) rotate(0) translate(4 188)">
<title>ConsoleSink.h</title>
<!-- Node1 -->
<g id="Node000001" class="node">
<title>Node1</title>
<g id="a_Node000001"><a xlink:title="Concrete implementation of ISink that logs to the console.">
<polygon fill="#999999" stroke="#666666" points="155,-184 69,-184 69,-165 155,-165 155,-184"/>
<text text-anchor="middle" x="112" y="-172" font-family="Helvetica,sans-Serif" font-size="10.00">ConsoleSink.h</text>
</a>
</g>
</g>
<!-- Node2 -->
<g id="Node000002" class="node">
<title>Node2</title>
<g id="a_Node000002"><a xlink:title=" ">
<polygon fill="#e0e0e0" stroke="#999999" points="60,-129 0,-129 0,-110 60,-110 60,-129"/>
<text text-anchor="middle" x="30" y="-117" font-family="Helvetica,sans-Serif" font-size="10.00">iostream</text>
</a>
</g>
</g>
<!-- Node1&#45;&gt;Node2 -->
<g id="edge1_Node000001_Node000002" class="edge">
<title>Node1&#45;&gt;Node2</title>
<g id="a_edge1_Node000001_Node000002"><a xlink:title=" ">
<path fill="none" stroke="#63b8ff" d="M98.83,-164.98C86.23,-156.84 67,-144.41 52.06,-134.76"/>
<polygon fill="#63b8ff" stroke="#63b8ff" points="53.71,-131.66 43.41,-129.17 49.91,-137.54 53.71,-131.66"/>
</a>
</g>
</g>
<!-- Node3 -->
<g id="Node000003" class="node">
<title>Node3</title>
<g id="a_Node000003"><a xlink:href="Logger_8h.html" target="_top" xlink:title="Central static logging interface for the application.">
<polygon fill="white" stroke="#666666" points="145.5,-129 78.5,-129 78.5,-110 145.5,-110 145.5,-129"/>
<text text-anchor="middle" x="112" y="-117" font-family="Helvetica,sans-Serif" font-size="10.00">../Logger.h</text>
</a>
</g>
</g>
<!-- Node1&#45;&gt;Node3 -->
<g id="edge2_Node000001_Node000003" class="edge">
<title>Node1&#45;&gt;Node3</title>
<g id="a_edge2_Node000001_Node000003"><a xlink:title=" ">
<path fill="none" stroke="#63b8ff" d="M112,-164.75C112,-157.8 112,-147.85 112,-139.13"/>
<polygon fill="#63b8ff" stroke="#63b8ff" points="115.5,-139.09 112,-129.09 108.5,-139.09 115.5,-139.09"/>
</a>
</g>
</g>
<!-- Node6 -->
<g id="Node000006" class="node">
<title>Node6</title>
<g id="a_Node000006"><a xlink:href="ISink_8h.html" target="_top" xlink:title="Declares the logging sink interface.">
<polygon fill="white" stroke="#666666" points="216,-74 138,-74 138,-55 216,-55 216,-74"/>
<text text-anchor="middle" x="177" y="-62" font-family="Helvetica,sans-Serif" font-size="10.00">sinks/ISink.h</text>
</a>
</g>
</g>
<!-- Node1&#45;&gt;Node6 -->
<g id="edge7_Node000001_Node000006" class="edge">
<title>Node1&#45;&gt;Node6</title>
<g id="a_edge7_Node000001_Node000006"><a xlink:title=" ">
<path fill="none" stroke="#63b8ff" d="M122.54,-164.97C132.18,-156.68 146.23,-143.28 155,-129 163.59,-115.02 169.38,-97.24 172.86,-84.05"/>
<polygon fill="#63b8ff" stroke="#63b8ff" points="176.28,-84.78 175.24,-74.24 169.48,-83.13 176.28,-84.78"/>
</a>
</g>
</g>
<!-- Node4 -->
<g id="Node000004" class="node">
<title>Node4</title>
<g id="a_Node000004"><a xlink:title=" ">
<polygon fill="#e0e0e0" stroke="#999999" points="82,-74 24,-74 24,-55 82,-55 82,-74"/>
<text text-anchor="middle" x="53" y="-62" font-family="Helvetica,sans-Serif" font-size="10.00">memory</text>
</a>
</g>
</g>
<!-- Node3&#45;&gt;Node4 -->
<g id="edge3_Node000003_Node000004" class="edge">
<title>Node3&#45;&gt;Node4</title>
<g id="a_edge3_Node000003_Node000004"><a xlink:title=" ">
<path fill="none" stroke="#63b8ff" d="M102.52,-109.98C93.8,-102.15 80.66,-90.34 70.1,-80.86"/>
<polygon fill="#63b8ff" stroke="#63b8ff" points="72.43,-78.25 62.65,-74.17 67.75,-83.46 72.43,-78.25"/>
</a>
</g>
</g>
<!-- Node5 -->
<g id="Node000005" class="node">
<title>Node5</title>
<g id="a_Node000005"><a xlink:title=" ">
<polygon fill="#e0e0e0" stroke="#999999" points="179.5,-19 106.5,-19 106.5,0 179.5,0 179.5,-19"/>
<text text-anchor="middle" x="143" y="-7" font-family="Helvetica,sans-Serif" font-size="10.00">string_view</text>
</a>
</g>
</g>
<!-- Node3&#45;&gt;Node5 -->
<g id="edge4_Node000003_Node000005" class="edge">
<title>Node3&#45;&gt;Node5</title>
<g id="a_edge4_Node000003_Node000005"><a xlink:title=" ">
<path fill="none" stroke="#63b8ff" d="M114.19,-109.84C117.32,-97.59 123.32,-74.51 129,-55 131.49,-46.45 134.42,-37.03 136.96,-29.07"/>
<polygon fill="#63b8ff" stroke="#63b8ff" points="140.36,-29.92 140.1,-19.33 133.7,-27.78 140.36,-29.92"/>
</a>
</g>
</g>
<!-- Node3&#45;&gt;Node6 -->
<g id="edge5_Node000003_Node000006" class="edge">
<title>Node3&#45;&gt;Node6</title>
<g id="a_edge5_Node000003_Node000006"><a xlink:title=" ">
<path fill="none" stroke="#63b8ff" d="M122.44,-109.98C132.15,-102.07 146.82,-90.11 158.5,-80.58"/>
<polygon fill="#63b8ff" stroke="#63b8ff" points="160.83,-83.2 166.37,-74.17 156.4,-77.78 160.83,-83.2"/>
</a>
</g>
</g>
<!-- Node6&#45;&gt;Node5 -->
<g id="edge6_Node000006_Node000005" class="edge">
<title>Node6&#45;&gt;Node5</title>
<g id="a_edge6_Node000006_Node000005"><a xlink:title=" ">
<path fill="none" stroke="#63b8ff" d="M171.39,-54.75C166.68,-47.42 159.83,-36.73 154.03,-27.7"/>
<polygon fill="#63b8ff" stroke="#63b8ff" points="156.86,-25.62 148.51,-19.09 150.96,-29.4 156.86,-25.62"/>
</a>
</g>
</g>
</g>
</svg>
