<?xml version="1.0" encoding="UTF-8" standalone="no"?>
<!DOCTYPE svg PUBLIC "-//W3C//DTD SVG 1.1//EN"
 "http://www.w3.org/Graphics/SVG/1.1/DTD/svg11.dtd">
<!-- Generated by graphviz version 2.43.0 (0)
 -->
<!-- Title: ecs_config.h Pages: 1 -->
<svg width="823pt" height="302pt"
 viewBox="0.00 0.00 823.40 302.00" xmlns="http://www.w3.org/2000/svg" xmlns:xlink="http://www.w3.org/1999/xlink">
<g id="graph0" class="graph" transform="scale(1 1) rotate(0) translate(4 298)">
<title>ecs_config.h</title>
<!-- Node1 -->
<g id="Node000001" class="node">
<title>Node1</title>
<g id="a_Node000001"><a xlink:title="Configuration constants and type definitions for ECS modules.">
<polygon fill="#999999" stroke="#666666" points="328.4,-294 251.4,-294 251.4,-275 328.4,-275 328.4,-294"/>
<text text-anchor="middle" x="289.9" y="-282" font-family="Helvetica,sans-Serif" font-size="10.00">ecs_config.h</text>
</a>
</g>
</g>
<!-- Node2 -->
<g id="Node000002" class="node">
<title>Node2</title>
<g id="a_Node000002"><a xlink:href="Entity_8h.html" target="_top" xlink:title="Simple struct for Entity in the ECS module (includes version)">
<polygon fill="white" stroke="#666666" points="316.4,-239 263.4,-239 263.4,-220 316.4,-220 316.4,-239"/>
<text text-anchor="middle" x="289.9" y="-227" font-family="Helvetica,sans-Serif" font-size="10.00">Entity.h</text>
</a>
</g>
</g>
<!-- Node1&#45;&gt;Node2 -->
<g id="edge1_Node000001_Node000002" class="edge">
<title>Node1&#45;&gt;Node2</title>
<g id="a_edge1_Node000001_Node000002"><a xlink:title=" ">
<path fill="none" stroke="#63b8ff" d="M289.9,-264.66C289.9,-255.93 289.9,-245.99 289.9,-239.09"/>
<polygon fill="#63b8ff" stroke="#63b8ff" points="286.4,-264.75 289.9,-274.75 293.4,-264.75 286.4,-264.75"/>
</a>
</g>
</g>
<!-- Node7 -->
<g id="Node000007" class="node">
<title>Node7</title>
<g id="a_Node000007"><a xlink:href="IEntityManager_8h.html" target="_top" xlink:title="Interface for managing entities and their signatures.">
<polygon fill="white" stroke="#666666" points="675.4,-184 576.4,-184 576.4,-165 675.4,-165 675.4,-184"/>
<text text-anchor="middle" x="625.9" y="-172" font-family="Helvetica,sans-Serif" font-size="10.00">IEntityManager.h</text>
</a>
</g>
</g>
<!-- Node1&#45;&gt;Node7 -->
<g id="edge22_Node000001_Node000007" class="edge">
<title>Node1&#45;&gt;Node7</title>
<g id="a_edge22_Node000001_Node000007"><a xlink:title=" ">
<path fill="none" stroke="#63b8ff" d="M326.41,-271.77C394.52,-249.87 539.46,-203.29 599.25,-184.07"/>
<polygon fill="#63b8ff" stroke="#63b8ff" points="325,-268.54 316.55,-274.94 327.14,-275.21 325,-268.54"/>
</a>
</g>
</g>
<!-- Node9 -->
<g id="Node000009" class="node">
<title>Node9</title>
<g id="a_Node000009"><a xlink:href="EntityManager_8cpp.html" target="_top" xlink:title=" ">
<polygon fill="white" stroke="#666666" points="815.4,-74 708.4,-74 708.4,-55 815.4,-55 815.4,-74"/>
<text text-anchor="middle" x="761.9" y="-62" font-family="Helvetica,sans-Serif" font-size="10.00">EntityManager.cpp</text>
</a>
</g>
</g>
<!-- Node1&#45;&gt;Node9 -->
<g id="edge21_Node000001_Node000009" class="edge">
<title>Node1&#45;&gt;Node9</title>
<g id="a_edge21_Node000001_Node000009"><a xlink:title=" ">
<path fill="none" stroke="#63b8ff" d="M338.91,-275.92C415.06,-263.1 565.44,-233.58 684.9,-184 729.25,-165.59 754.11,-170.71 777.9,-129 788.04,-111.22 776.01,-87.05 767.98,-74.27"/>
<polygon fill="#63b8ff" stroke="#63b8ff" points="337.96,-272.53 328.67,-277.62 339.11,-279.44 337.96,-272.53"/>
</a>
</g>
</g>
<!-- Node12 -->
<g id="Node000012" class="node">
<title>Node12</title>
<g id="a_Node000012"><a xlink:href="SystemManager_8h.html" target="_top" xlink:title="Defines the concrete implementation of ISystemManager.h.">
<polygon fill="white" stroke="#666666" points="280.9,-129 176.9,-129 176.9,-110 280.9,-110 280.9,-129"/>
<text text-anchor="middle" x="228.9" y="-117" font-family="Helvetica,sans-Serif" font-size="10.00">SystemManager.h</text>
</a>
</g>
</g>
<!-- Node1&#45;&gt;Node12 -->
<g id="edge24_Node000001_Node000012" class="edge">
<title>Node1&#45;&gt;Node12</title>
<g id="a_edge24_Node000001_Node000012"><a xlink:title=" ">
<path fill="none" stroke="#63b8ff" d="M240.95,-282.64C174.51,-278.51 57.89,-260.12 3.9,-184 -0.98,-177.11 -1.46,-171.52 3.9,-165 25.36,-138.89 117.29,-127.84 176.8,-123.36"/>
<polygon fill="#63b8ff" stroke="#63b8ff" points="240.99,-286.15 251.17,-283.19 241.37,-279.16 240.99,-286.15"/>
</a>
</g>
</g>
<!-- Node14 -->
<g id="Node000014" class="node">
<title>Node14</title>
<g id="a_Node000014"><a xlink:href="ISystemManager_8h.html" target="_top" xlink:title="Declares the interface for managing registered systems.">
<polygon fill="white" stroke="#666666" points="120.4,-184 13.4,-184 13.4,-165 120.4,-165 120.4,-184"/>
<text text-anchor="middle" x="66.9" y="-172" font-family="Helvetica,sans-Serif" font-size="10.00">ISystemManager.h</text>
</a>
</g>
</g>
<!-- Node1&#45;&gt;Node14 -->
<g id="edge23_Node000001_Node000014" class="edge">
<title>Node1&#45;&gt;Node14</title>
<g id="a_edge23_Node000001_Node000014"><a xlink:title=" ">
<path fill="none" stroke="#63b8ff" d="M262.91,-270.43C216.64,-248.02 123.42,-202.87 84.55,-184.05"/>
<polygon fill="#63b8ff" stroke="#63b8ff" points="261.5,-273.64 272.03,-274.84 264.56,-267.34 261.5,-273.64"/>
</a>
</g>
</g>
<!-- Node3 -->
<g id="Node000003" class="node">
<title>Node3</title>
<g id="a_Node000003"><a xlink:href="GameWorld_8h.html" target="_top" xlink:title="Defines the concrete game world used by the main loop.">
<polygon fill="white" stroke="#666666" points="531.4,-19 448.4,-19 448.4,0 531.4,0 531.4,-19"/>
<text text-anchor="middle" x="489.9" y="-7" font-family="Helvetica,sans-Serif" font-size="10.00">GameWorld.h</text>
</a>
</g>
</g>
<!-- Node2&#45;&gt;Node3 -->
<g id="edge2_Node000002_Node000003" class="edge">
<title>Node2&#45;&gt;Node3</title>
<g id="a_edge2_Node000002_Node000003"><a xlink:title=" ">
<path fill="none" stroke="#63b8ff" d="M253,-225.73C224.91,-221.47 187.94,-210.77 168.9,-184 162.28,-174.69 161.59,-62.24 167.9,-55 203.77,-13.83 369.38,-9.48 448.11,-9.8"/>
<polygon fill="#63b8ff" stroke="#63b8ff" points="252.91,-229.25 263.28,-227.07 253.81,-222.3 252.91,-229.25"/>
</a>
</g>
</g>
<!-- Node4 -->
<g id="Node000004" class="node">
<title>Node4</title>
<g id="a_Node000004"><a xlink:href="IComponentArray_8h.html" target="_top" xlink:title="A data structure built for managing a specific component type.">
<polygon fill="white" stroke="#666666" points="460.9,-184 350.9,-184 350.9,-165 460.9,-165 460.9,-184"/>
<text text-anchor="middle" x="405.9" y="-172" font-family="Helvetica,sans-Serif" font-size="10.00">IComponentArray.h</text>
</a>
</g>
</g>
<!-- Node2&#45;&gt;Node4 -->
<g id="edge3_Node000002_Node000004" class="edge">
<title>Node2&#45;&gt;Node4</title>
<g id="a_edge3_Node000002_Node000004"><a xlink:title=" ">
<path fill="none" stroke="#63b8ff" d="M317.77,-215.77C339.17,-205.99 368.14,-192.75 386.93,-184.17"/>
<polygon fill="#63b8ff" stroke="#63b8ff" points="316.18,-212.65 308.54,-219.98 319.09,-219.01 316.18,-212.65"/>
</a>
</g>
</g>
<!-- Node6 -->
<g id="Node000006" class="node">
<title>Node6</title>
<g id="a_Node000006"><a xlink:href="IComponentManager_8h.html" target="_top" xlink:title="System for managing components and their relationship to specific entities.">
<polygon fill="white" stroke="#666666" points="488.4,-74 361.4,-74 361.4,-55 488.4,-55 488.4,-74"/>
<text text-anchor="middle" x="424.9" y="-62" font-family="Helvetica,sans-Serif" font-size="10.00">IComponentManager.h</text>
</a>
</g>
</g>
<!-- Node2&#45;&gt;Node6 -->
<g id="edge8_Node000002_Node000006" class="edge">
<title>Node2&#45;&gt;Node6</title>
<g id="a_edge8_Node000002_Node000006"><a xlink:title=" ">
<path fill="none" stroke="#63b8ff" d="M291.47,-209.75C294.54,-184.27 303.43,-138.62 328.9,-110 344.9,-92.02 369.67,-80.79 390.03,-74.11"/>
<polygon fill="#63b8ff" stroke="#63b8ff" points="287.97,-209.6 290.44,-219.9 294.94,-210.31 287.97,-209.6"/>
</a>
</g>
</g>
<!-- Node2&#45;&gt;Node7 -->
<g id="edge9_Node000002_Node000007" class="edge">
<title>Node2&#45;&gt;Node7</title>
<g id="a_edge9_Node000002_Node000007"><a xlink:title=" ">
<path fill="none" stroke="#63b8ff" d="M326.79,-222.68C387.43,-213.12 508.2,-194.07 576.27,-183.33"/>
<polygon fill="#63b8ff" stroke="#63b8ff" points="325.88,-219.28 316.55,-224.3 326.97,-226.2 325.88,-219.28"/>
</a>
</g>
</g>
<!-- Node10 -->
<g id="Node000010" class="node">
<title>Node10</title>
<g id="a_Node000010"><a xlink:href="IGameWorld_8h.html" target="_top" xlink:title="Declares the interface for interacting with the active game world state.">
<polygon fill="white" stroke="#666666" points="616.9,-129 530.9,-129 530.9,-110 616.9,-110 616.9,-129"/>
<text text-anchor="middle" x="573.9" y="-117" font-family="Helvetica,sans-Serif" font-size="10.00">IGameWorld.h</text>
</a>
</g>
</g>
<!-- Node2&#45;&gt;Node10 -->
<g id="edge13_Node000002_Node000010" class="edge">
<title>Node2&#45;&gt;Node10</title>
<g id="a_edge13_Node000002_Node000010"><a xlink:title=" ">
<path fill="none" stroke="#63b8ff" d="M326.51,-222.84C363.63,-216.32 422.24,-203.88 469.9,-184 505.83,-169.01 543.84,-142.76 562.37,-129.19"/>
<polygon fill="#63b8ff" stroke="#63b8ff" points="325.91,-219.39 316.64,-224.52 327.08,-226.29 325.91,-219.39"/>
</a>
</g>
</g>
<!-- Node11 -->
<g id="Node000011" class="node">
<title>Node11</title>
<g id="a_Node000011"><a xlink:href="ISystem_8h.html" target="_top" xlink:title="Declares the interface for all game systems in the ECS framework.">
<polygon fill="white" stroke="#666666" points="242.4,-184 177.4,-184 177.4,-165 242.4,-165 242.4,-184"/>
<text text-anchor="middle" x="209.9" y="-172" font-family="Helvetica,sans-Serif" font-size="10.00">ISystem.h</text>
</a>
</g>
</g>
<!-- Node2&#45;&gt;Node11 -->
<g id="edge15_Node000002_Node000011" class="edge">
<title>Node2&#45;&gt;Node11</title>
<g id="a_edge15_Node000002_Node000011"><a xlink:title=" ">
<path fill="none" stroke="#63b8ff" d="M268.65,-214.42C254.14,-204.81 235.36,-192.37 222.99,-184.17"/>
<polygon fill="#63b8ff" stroke="#63b8ff" points="266.78,-217.38 277.05,-219.98 270.64,-211.54 266.78,-217.38"/>
</a>
</g>
</g>
<!-- Node2&#45;&gt;Node12 -->
<g id="edge20_Node000002_Node000012" class="edge">
<title>Node2&#45;&gt;Node12</title>
<g id="a_edge20_Node000002_Node000012"><a xlink:title=" ">
<path fill="none" stroke="#63b8ff" d="M279.88,-210.76C266.62,-187.28 243.76,-146.81 233.79,-129.16"/>
<polygon fill="#63b8ff" stroke="#63b8ff" points="276.94,-212.68 284.91,-219.66 283.04,-209.23 276.94,-212.68"/>
</a>
</g>
</g>
<!-- Node2&#45;&gt;Node14 -->
<g id="edge18_Node000002_Node000014" class="edge">
<title>Node2&#45;&gt;Node14</title>
<g id="a_edge18_Node000002_Node000014"><a xlink:title=" ">
<path fill="none" stroke="#63b8ff" d="M253.26,-219.79C211.6,-209.89 144.05,-193.84 102.74,-184.02"/>
<polygon fill="#63b8ff" stroke="#63b8ff" points="252.46,-223.2 263,-222.11 254.08,-216.39 252.46,-223.2"/>
</a>
</g>
</g>
<!-- Node5 -->
<g id="Node000005" class="node">
<title>Node5</title>
<g id="a_Node000005"><a xlink:href="DenseComponentArray_8h.html" target="_top" xlink:title="Provides dense storage for components of a specific type.">
<polygon fill="white" stroke="#666666" points="474.4,-129 337.4,-129 337.4,-110 474.4,-110 474.4,-129"/>
<text text-anchor="middle" x="405.9" y="-117" font-family="Helvetica,sans-Serif" font-size="10.00">DenseComponentArray.h</text>
</a>
</g>
</g>
<!-- Node4&#45;&gt;Node5 -->
<g id="edge4_Node000004_Node000005" class="edge">
<title>Node4&#45;&gt;Node5</title>
<g id="a_edge4_Node000004_Node000005"><a xlink:title=" ">
<path fill="none" stroke="#63b8ff" d="M405.9,-154.66C405.9,-145.93 405.9,-135.99 405.9,-129.09"/>
<polygon fill="#63b8ff" stroke="#63b8ff" points="402.4,-154.75 405.9,-164.75 409.4,-154.75 402.4,-154.75"/>
</a>
</g>
</g>
<!-- Node4&#45;&gt;Node6 -->
<g id="edge7_Node000004_Node000006" class="edge">
<title>Node4&#45;&gt;Node6</title>
<g id="a_edge7_Node000004_Node000006"><a xlink:title=" ">
<path fill="none" stroke="#63b8ff" d="M445.04,-160.89C459.93,-153.96 475.36,-143.71 483.9,-129 496.98,-106.49 465.44,-85.4 443.61,-74.1"/>
<polygon fill="#63b8ff" stroke="#63b8ff" points="443.25,-157.85 435.41,-164.97 445.98,-164.29 443.25,-157.85"/>
</a>
</g>
</g>
<!-- Node5&#45;&gt;Node6 -->
<g id="edge5_Node000005_Node000006" class="edge">
<title>Node5&#45;&gt;Node6</title>
<g id="a_edge5_Node000005_Node000006"><a xlink:title=" ">
<path fill="none" stroke="#63b8ff" d="M412.45,-100.24C415.63,-91.37 419.29,-81.14 421.82,-74.09"/>
<polygon fill="#63b8ff" stroke="#63b8ff" points="409.12,-99.15 409.04,-109.75 415.71,-101.52 409.12,-99.15"/>
</a>
</g>
</g>
<!-- Node6&#45;&gt;Node3 -->
<g id="edge6_Node000006_Node000003" class="edge">
<title>Node6&#45;&gt;Node3</title>
<g id="a_edge6_Node000006_Node000003"><a xlink:title=" ">
<path fill="none" stroke="#63b8ff" d="M443.17,-48.6C454.82,-39.11 469.5,-27.13 479.27,-19.17"/>
<polygon fill="#63b8ff" stroke="#63b8ff" points="440.88,-45.95 435.35,-54.98 445.31,-51.38 440.88,-45.95"/>
</a>
</g>
</g>
<!-- Node7&#45;&gt;Node3 -->
<g id="edge12_Node000007_Node000003" class="edge">
<title>Node7&#45;&gt;Node3</title>
<g id="a_edge12_Node000007_Node000003"><a xlink:title=" ">
<path fill="none" stroke="#63b8ff" d="M630.18,-154.86C632.23,-141.62 632.92,-123.82 625.9,-110 602.01,-62.91 544.2,-32.76 512.18,-19.07"/>
<polygon fill="#63b8ff" stroke="#63b8ff" points="626.73,-154.23 628.28,-164.71 633.61,-155.56 626.73,-154.23"/>
</a>
</g>
</g>
<!-- Node8 -->
<g id="Node000008" class="node">
<title>Node8</title>
<g id="a_Node000008"><a xlink:href="EntityManager_8h.html" target="_top" xlink:title="Concrete implementation of IEntityManager (includes option for reuse)">
<polygon fill="white" stroke="#666666" points="768.9,-129 672.9,-129 672.9,-110 768.9,-110 768.9,-129"/>
<text text-anchor="middle" x="720.9" y="-117" font-family="Helvetica,sans-Serif" font-size="10.00">EntityManager.h</text>
</a>
</g>
</g>
<!-- Node7&#45;&gt;Node8 -->
<g id="edge10_Node000007_Node000008" class="edge">
<title>Node7&#45;&gt;Node8</title>
<g id="a_edge10_Node000007_Node000008"><a xlink:title=" ">
<path fill="none" stroke="#63b8ff" d="M650.16,-159.97C667.53,-150.28 690.39,-137.52 705.36,-129.17"/>
<polygon fill="#63b8ff" stroke="#63b8ff" points="648.19,-157.06 641.17,-164.98 651.6,-163.17 648.19,-157.06"/>
</a>
</g>
</g>
<!-- Node8&#45;&gt;Node9 -->
<g id="edge11_Node000008_Node000009" class="edge">
<title>Node8&#45;&gt;Node9</title>
<g id="a_edge11_Node000008_Node000009"><a xlink:title=" ">
<path fill="none" stroke="#63b8ff" d="M733.92,-101.67C741.02,-92.5 749.51,-81.52 755.26,-74.09"/>
<polygon fill="#63b8ff" stroke="#63b8ff" points="731.02,-99.7 727.67,-109.75 736.56,-103.98 731.02,-99.7"/>
</a>
</g>
</g>
<!-- Node10&#45;&gt;Node3 -->
<g id="edge14_Node000010_Node000003" class="edge">
<title>Node10&#45;&gt;Node3</title>
<g id="a_edge14_Node000010_Node000003"><a xlink:title=" ">
<path fill="none" stroke="#63b8ff" d="M560.83,-101.69C542.69,-78.37 510.55,-37.05 496.64,-19.16"/>
<polygon fill="#63b8ff" stroke="#63b8ff" points="558.13,-103.92 567.03,-109.66 563.65,-99.62 558.13,-103.92"/>
</a>
</g>
</g>
<!-- Node11&#45;&gt;Node12 -->
<g id="edge16_Node000011_Node000012" class="edge">
<title>Node11&#45;&gt;Node12</title>
<g id="a_edge16_Node000011_Node000012"><a xlink:title=" ">
<path fill="none" stroke="#63b8ff" d="M216.45,-155.24C219.63,-146.37 223.29,-136.14 225.82,-129.09"/>
<polygon fill="#63b8ff" stroke="#63b8ff" points="213.12,-154.15 213.04,-164.75 219.71,-156.52 213.12,-154.15"/>
</a>
</g>
</g>
<!-- Node13 -->
<g id="Node000013" class="node">
<title>Node13</title>
<g id="a_Node000013"><a xlink:href="SystemManager_8cpp.html" target="_top" xlink:title=" ">
<polygon fill="white" stroke="#666666" points="292.9,-74 176.9,-74 176.9,-55 292.9,-55 292.9,-74"/>
<text text-anchor="middle" x="234.9" y="-62" font-family="Helvetica,sans-Serif" font-size="10.00">SystemManager.cpp</text>
</a>
</g>
</g>
<!-- Node12&#45;&gt;Node13 -->
<g id="edge17_Node000012_Node000013" class="edge">
<title>Node12&#45;&gt;Node13</title>
<g id="a_edge17_Node000012_Node000013"><a xlink:title=" ">
<path fill="none" stroke="#63b8ff" d="M231.03,-99.66C232.02,-90.93 233.15,-80.99 233.93,-74.09"/>
<polygon fill="#63b8ff" stroke="#63b8ff" points="227.54,-99.42 229.89,-109.75 234.5,-100.21 227.54,-99.42"/>
</a>
</g>
</g>
<!-- Node14&#45;&gt;Node12 -->
<g id="edge19_Node000014_Node000012" class="edge">
<title>Node14&#45;&gt;Node12</title>
<g id="a_edge19_Node000014_Node000012"><a xlink:title=" ">
<path fill="none" stroke="#63b8ff" d="M102.67,-161.8C132.9,-151.91 175.51,-137.97 202.67,-129.08"/>
<polygon fill="#63b8ff" stroke="#63b8ff" points="101.35,-158.55 92.93,-164.98 103.52,-165.2 101.35,-158.55"/>
</a>
</g>
</g>
</g>
</svg>
