<?xml version="1.0" encoding="UTF-8" standalone="no"?>
<!DOCTYPE svg PUBLIC "-//W3C//DTD SVG 1.1//EN"
 "http://www.w3.org/Graphics/SVG/1.1/DTD/svg11.dtd">
<!-- Generated by graphviz version 2.43.0 (0)
 -->
<!-- Title: ecs_config.h Pages: 1 -->
<svg width="933pt" height="412pt"
 viewBox="0.00 0.00 932.90 412.00" xmlns="http://www.w3.org/2000/svg" xmlns:xlink="http://www.w3.org/1999/xlink">
<g id="graph0" class="graph" transform="scale(1 1) rotate(0) translate(4 408)">
<title>ecs_config.h</title>
<!-- Node1 -->
<g id="Node000001" class="node">
<title>Node1</title>
<g id="a_Node000001"><a xlink:title="Configuration constants and type definitions for ECS modules.">
<polygon fill="#999999" stroke="#666666" points="600,-404 523,-404 523,-385 600,-385 600,-404"/>
<text text-anchor="middle" x="561.5" y="-392" font-family="Helvetica,sans-Serif" font-size="10.00">ecs_config.h</text>
</a>
</g>
</g>
<!-- Node2 -->
<g id="Node000002" class="node">
<title>Node2</title>
<g id="a_Node000002"><a xlink:href="Entity_8h.html" target="_top" xlink:title="Simple struct for Entity in the ECS module (includes version)">
<polygon fill="white" stroke="#666666" points="539,-349 486,-349 486,-330 539,-330 539,-349"/>
<text text-anchor="middle" x="512.5" y="-337" font-family="Helvetica,sans-Serif" font-size="10.00">Entity.h</text>
</a>
</g>
</g>
<!-- Node1&#45;&gt;Node2 -->
<g id="edge1_Node000001_Node000002" class="edge">
<title>Node1&#45;&gt;Node2</title>
<g id="a_edge1_Node000001_Node000002"><a xlink:title=" ">
<path fill="none" stroke="#63b8ff" d="M546.47,-377.24C537.88,-367.95 527.46,-356.68 520.44,-349.09"/>
<polygon fill="#63b8ff" stroke="#63b8ff" points="544.05,-379.78 553.41,-384.75 549.19,-375.03 544.05,-379.78"/>
</a>
</g>
</g>
<!-- Node3 -->
<g id="Node000003" class="node">
<title>Node3</title>
<g id="a_Node000003"><a xlink:href="GameWorld_8h.html" target="_top" xlink:title="Defines the concrete game world used by the main loop.">
<polygon fill="white" stroke="#666666" points="657,-129 574,-129 574,-110 657,-110 657,-129"/>
<text text-anchor="middle" x="615.5" y="-117" font-family="Helvetica,sans-Serif" font-size="10.00">GameWorld.h</text>
</a>
</g>
</g>
<!-- Node1&#45;&gt;Node3 -->
<g id="edge40_Node000001_Node000003" class="edge">
<title>Node1&#45;&gt;Node3</title>
<g id="a_edge40_Node000001_Node000003"><a xlink:title=" ">
<path fill="none" stroke="#63b8ff" d="M610.23,-388.25C665.63,-379.39 753.66,-355.85 794.5,-294 809.78,-270.87 782.92,-212.44 726.5,-165 705.29,-147.16 676.01,-135.83 652.85,-129.06"/>
<polygon fill="#63b8ff" stroke="#63b8ff" points="609.65,-384.8 600.28,-389.74 610.69,-391.72 609.65,-384.8"/>
</a>
</g>
</g>
<!-- Node11 -->
<g id="Node000011" class="node">
<title>Node11</title>
<g id="a_Node000011"><a xlink:href="IEntityManager_8h.html" target="_top" xlink:title="Interface for managing entities and their signatures.">
<polygon fill="white" stroke="#666666" points="207,-294 108,-294 108,-275 207,-275 207,-294"/>
<text text-anchor="middle" x="157.5" y="-282" font-family="Helvetica,sans-Serif" font-size="10.00">IEntityManager.h</text>
</a>
</g>
</g>
<!-- Node1&#45;&gt;Node11 -->
<g id="edge41_Node000001_Node000011" class="edge">
<title>Node1&#45;&gt;Node11</title>
<g id="a_edge41_Node000001_Node000011"><a xlink:title=" ">
<path fill="none" stroke="#63b8ff" d="M519.61,-382.3C438.58,-360.64 262.03,-313.44 189.54,-294.07"/>
<polygon fill="#63b8ff" stroke="#63b8ff" points="518.9,-385.73 529.46,-384.94 520.7,-378.97 518.9,-385.73"/>
</a>
</g>
</g>
<!-- Node13 -->
<g id="Node000013" class="node">
<title>Node13</title>
<g id="a_Node000013"><a xlink:href="EntityManager_8cpp.html" target="_top" xlink:title=" ">
<polygon fill="white" stroke="#666666" points="107,-184 0,-184 0,-165 107,-165 107,-184"/>
<text text-anchor="middle" x="53.5" y="-172" font-family="Helvetica,sans-Serif" font-size="10.00">EntityManager.cpp</text>
</a>
</g>
</g>
<!-- Node1&#45;&gt;Node13 -->
<g id="edge39_Node000001_Node000013" class="edge">
<title>Node1&#45;&gt;Node13</title>
<g id="a_edge39_Node000001_Node000013"><a xlink:title=" ">
<path fill="none" stroke="#63b8ff" d="M512.92,-388.03C408.12,-375.46 164.91,-341.86 98.5,-294 61.72,-267.5 55,-206.92 53.77,-184.26"/>
<polygon fill="#63b8ff" stroke="#63b8ff" points="512.57,-391.52 522.92,-389.22 513.4,-384.57 512.57,-391.52"/>
</a>
</g>
</g>
<!-- Node16 -->
<g id="Node000016" class="node">
<title>Node16</title>
<g id="a_Node000016"><a xlink:href="SystemManager_8h.html" target="_top" xlink:title="Defines the concrete implementation of ISystemManager.h.">
<polygon fill="white" stroke="#666666" points="665.5,-239 561.5,-239 561.5,-220 665.5,-220 665.5,-239"/>
<text text-anchor="middle" x="613.5" y="-227" font-family="Helvetica,sans-Serif" font-size="10.00">SystemManager.h</text>
</a>
</g>
</g>
<!-- Node1&#45;&gt;Node16 -->
<g id="edge43_Node000001_Node000016" class="edge">
<title>Node1&#45;&gt;Node16</title>
<g id="a_edge43_Node000001_Node000016"><a xlink:title=" ">
<path fill="none" stroke="#63b8ff" d="M567.46,-374.83C578.67,-339.67 602.53,-264.9 610.69,-239.31"/>
<polygon fill="#63b8ff" stroke="#63b8ff" points="564,-374.15 564.3,-384.74 570.67,-376.27 564,-374.15"/>
</a>
</g>
</g>
<!-- Node18 -->
<g id="Node000018" class="node">
<title>Node18</title>
<g id="a_Node000018"><a xlink:href="ISystemManager_8h.html" target="_top" xlink:title="Declares the interface for managing registered systems.">
<polygon fill="white" stroke="#666666" points="785,-294 678,-294 678,-275 785,-275 785,-294"/>
<text text-anchor="middle" x="731.5" y="-282" font-family="Helvetica,sans-Serif" font-size="10.00">ISystemManager.h</text>
</a>
</g>
</g>
<!-- Node1&#45;&gt;Node18 -->
<g id="edge42_Node000001_Node000018" class="edge">
<title>Node1&#45;&gt;Node18</title>
<g id="a_edge42_Node000001_Node000018"><a xlink:title=" ">
<path fill="none" stroke="#63b8ff" d="M583.86,-379.3C619.59,-356.59 688.53,-312.8 717.81,-294.2"/>
<polygon fill="#63b8ff" stroke="#63b8ff" points="581.69,-376.53 575.12,-384.84 585.44,-382.44 581.69,-376.53"/>
</a>
</g>
</g>
<!-- Node2&#45;&gt;Node3 -->
<g id="edge2_Node000002_Node000003" class="edge">
<title>Node2&#45;&gt;Node3</title>
<g id="a_edge2_Node000002_Node000003"><a xlink:title=" ">
<path fill="none" stroke="#63b8ff" d="M549.11,-327.8C588.13,-314.2 647.88,-286.6 674.5,-239 690.56,-210.3 689.17,-194.44 674.5,-165 666.26,-148.46 648.62,-136.45 634.77,-129.1"/>
<polygon fill="#63b8ff" stroke="#63b8ff" points="547.57,-324.62 539.19,-331.11 549.78,-331.26 547.57,-324.62"/>
</a>
</g>
</g>
<!-- Node8 -->
<g id="Node000008" class="node">
<title>Node8</title>
<g id="a_Node000008"><a xlink:href="IComponentArray_8h.html" target="_top" xlink:title="A data structure built for managing a specific component type.">
<polygon fill="white" stroke="#666666" points="423.5,-294 313.5,-294 313.5,-275 423.5,-275 423.5,-294"/>
<text text-anchor="middle" x="368.5" y="-282" font-family="Helvetica,sans-Serif" font-size="10.00">IComponentArray.h</text>
</a>
</g>
</g>
<!-- Node2&#45;&gt;Node8 -->
<g id="edge7_Node000002_Node000008" class="edge">
<title>Node2&#45;&gt;Node8</title>
<g id="a_edge7_Node000002_Node000008"><a xlink:title=" ">
<path fill="none" stroke="#63b8ff" d="M479.68,-326.42C452.97,-316.59 415.9,-302.95 392.06,-294.17"/>
<polygon fill="#63b8ff" stroke="#63b8ff" points="478.77,-329.82 489.36,-329.98 481.19,-323.25 478.77,-329.82"/>
</a>
</g>
</g>
<!-- Node10 -->
<g id="Node000010" class="node">
<title>Node10</title>
<g id="a_Node000010"><a xlink:href="IComponentManager_8h.html" target="_top" xlink:title="System for managing components and their relationship to specific entities.">
<polygon fill="white" stroke="#666666" points="455,-184 328,-184 328,-165 455,-165 455,-184"/>
<text text-anchor="middle" x="391.5" y="-172" font-family="Helvetica,sans-Serif" font-size="10.00">IComponentManager.h</text>
</a>
</g>
</g>
<!-- Node2&#45;&gt;Node10 -->
<g id="edge13_Node000002_Node000010" class="edge">
<title>Node2&#45;&gt;Node10</title>
<g id="a_edge13_Node000002_Node000010"><a xlink:title=" ">
<path fill="none" stroke="#63b8ff" d="M475.52,-339.01C412.33,-337.54 287.23,-323.66 254.5,-239 240.89,-203.79 285.94,-188.1 327.96,-181.11"/>
<polygon fill="#63b8ff" stroke="#63b8ff" points="475.79,-342.52 485.83,-339.16 475.88,-335.52 475.79,-342.52"/>
</a>
</g>
</g>
<!-- Node2&#45;&gt;Node11 -->
<g id="edge14_Node000002_Node000011" class="edge">
<title>Node2&#45;&gt;Node11</title>
<g id="a_edge14_Node000002_Node000011"><a xlink:title=" ">
<path fill="none" stroke="#63b8ff" d="M475.76,-333.02C411.63,-323.44 279.2,-303.67 207.03,-292.89"/>
<polygon fill="#63b8ff" stroke="#63b8ff" points="475.41,-336.5 485.82,-334.52 476.44,-329.58 475.41,-336.5"/>
</a>
</g>
</g>
<!-- Node14 -->
<g id="Node000014" class="node">
<title>Node14</title>
<g id="a_Node000014"><a xlink:href="IGameWorld_8h.html" target="_top" xlink:title="Declares the interface for interacting with the active game world state.">
<polygon fill="white" stroke="#666666" points="543.5,-239 457.5,-239 457.5,-220 543.5,-220 543.5,-239"/>
<text text-anchor="middle" x="500.5" y="-227" font-family="Helvetica,sans-Serif" font-size="10.00">IGameWorld.h</text>
</a>
</g>
</g>
<!-- Node2&#45;&gt;Node14 -->
<g id="edge19_Node000002_Node000014" class="edge">
<title>Node2&#45;&gt;Node14</title>
<g id="a_edge19_Node000002_Node000014"><a xlink:title=" ">
<path fill="none" stroke="#63b8ff" d="M492.93,-323.15C484.64,-315.41 475.9,-305.27 471.5,-294 463.74,-274.13 480.36,-251.57 491.5,-239.41"/>
<polygon fill="#63b8ff" stroke="#63b8ff" points="490.73,-325.88 500.57,-329.8 495.32,-320.6 490.73,-325.88"/>
</a>
</g>
</g>
<!-- Node15 -->
<g id="Node000015" class="node">
<title>Node15</title>
<g id="a_Node000015"><a xlink:href="ISystem_8h.html" target="_top" xlink:title="Declares the interface for all game systems in the ECS framework.">
<polygon fill="white" stroke="#666666" points="545,-294 480,-294 480,-275 545,-275 545,-294"/>
<text text-anchor="middle" x="512.5" y="-282" font-family="Helvetica,sans-Serif" font-size="10.00">ISystem.h</text>
</a>
</g>
</g>
<!-- Node2&#45;&gt;Node15 -->
<g id="edge21_Node000002_Node000015" class="edge">
<title>Node2&#45;&gt;Node15</title>
<g id="a_edge21_Node000002_Node000015"><a xlink:title=" ">
<path fill="none" stroke="#63b8ff" d="M512.5,-319.66C512.5,-310.93 512.5,-300.99 512.5,-294.09"/>
<polygon fill="#63b8ff" stroke="#63b8ff" points="509,-319.75 512.5,-329.75 516,-319.75 509,-319.75"/>
</a>
</g>
</g>
<!-- Node2&#45;&gt;Node16 -->
<g id="edge38_Node000002_Node000016" class="edge">
<title>Node2&#45;&gt;Node16</title>
<g id="a_edge38_Node000002_Node000016"><a xlink:title=" ">
<path fill="none" stroke="#63b8ff" d="M527.54,-322.62C535.56,-314.14 545.59,-303.52 554.5,-294 572.81,-274.45 594.18,-251.39 605.51,-239.15"/>
<polygon fill="#63b8ff" stroke="#63b8ff" points="524.9,-320.32 520.57,-329.99 529.99,-325.13 524.9,-320.32"/>
</a>
</g>
</g>
<!-- Node2&#45;&gt;Node18 -->
<g id="edge25_Node000002_Node000018" class="edge">
<title>Node2&#45;&gt;Node18</title>
<g id="a_edge25_Node000002_Node000018"><a xlink:title=" ">
<path fill="none" stroke="#63b8ff" d="M549.18,-329.62C590.07,-319.73 655.72,-303.84 696.09,-294.07"/>
<polygon fill="#63b8ff" stroke="#63b8ff" points="548.25,-326.25 539.35,-332 549.9,-333.05 548.25,-326.25"/>
</a>
</g>
</g>
<!-- Node4 -->
<g id="Node000004" class="node">
<title>Node4</title>
<g id="a_Node000004"><a xlink:href="PlayerMoveCommand_8h.html" target="_top" xlink:title="A command for triggering player (paddle) movement.">
<polygon fill="white" stroke="#666666" points="683.5,-74 549.5,-74 549.5,-55 683.5,-55 683.5,-74"/>
<text text-anchor="middle" x="616.5" y="-62" font-family="Helvetica,sans-Serif" font-size="10.00">PlayerMoveCommand.h</text>
</a>
</g>
</g>
<!-- Node3&#45;&gt;Node4 -->
<g id="edge3_Node000003_Node000004" class="edge">
<title>Node3&#45;&gt;Node4</title>
<g id="a_edge3_Node000003_Node000004"><a xlink:title=" ">
<path fill="none" stroke="#63b8ff" d="M615.86,-99.66C616.02,-90.93 616.21,-80.99 616.34,-74.09"/>
<polygon fill="#63b8ff" stroke="#63b8ff" points="612.35,-99.68 615.67,-109.75 619.35,-99.82 612.35,-99.68"/>
</a>
</g>
</g>
<!-- Node7 -->
<g id="Node000007" class="node">
<title>Node7</title>
<g id="a_Node000007"><a xlink:href="main_8cpp.html" target="_top" xlink:title=" ">
<polygon fill="white" stroke="#666666" points="523.5,-74 461.5,-74 461.5,-55 523.5,-55 523.5,-74"/>
<text text-anchor="middle" x="492.5" y="-62" font-family="Helvetica,sans-Serif" font-size="10.00">main.cpp</text>
</a>
</g>
</g>
<!-- Node3&#45;&gt;Node7 -->
<g id="edge6_Node000003_Node000007" class="edge">
<title>Node3&#45;&gt;Node7</title>
<g id="a_edge6_Node000003_Node000007"><a xlink:title=" ">
<path fill="none" stroke="#63b8ff" d="M586.25,-105.9C563.53,-96.11 532.63,-82.79 512.62,-74.17"/>
<polygon fill="#63b8ff" stroke="#63b8ff" points="585.17,-109.24 595.74,-109.98 587.94,-102.81 585.17,-109.24"/>
</a>
</g>
</g>
<!-- Node5 -->
<g id="Node000005" class="node">
<title>Node5</title>
<g id="a_Node000005"><a xlink:href="InputNormalizer_8cpp.html" target="_top" xlink:title=" ">
<polygon fill="white" stroke="#666666" points="865,-19 750,-19 750,0 865,0 865,-19"/>
<text text-anchor="middle" x="807.5" y="-7" font-family="Helvetica,sans-Serif" font-size="10.00">InputNormalizer.cpp</text>
</a>
</g>
</g>
<!-- Node4&#45;&gt;Node5 -->
<g id="edge4_Node000004_Node000005" class="edge">
<title>Node4&#45;&gt;Node5</title>
<g id="a_edge4_Node000004_Node000005"><a xlink:title=" ">
<path fill="none" stroke="#63b8ff" d="M657.28,-52.18C693,-42.27 744.13,-28.08 776.57,-19.08"/>
<polygon fill="#63b8ff" stroke="#63b8ff" points="655.89,-48.94 647.19,-54.98 657.76,-55.68 655.89,-48.94"/>
</a>
</g>
</g>
<!-- Node6 -->
<g id="Node000006" class="node">
<title>Node6</title>
<g id="a_Node000006"><a xlink:href="PlayerMoveCommand_8cpp.html" target="_top" xlink:title=" ">
<polygon fill="white" stroke="#666666" points="689,-19 544,-19 544,0 689,0 689,-19"/>
<text text-anchor="middle" x="616.5" y="-7" font-family="Helvetica,sans-Serif" font-size="10.00">PlayerMoveCommand.cpp</text>
</a>
</g>
</g>
<!-- Node4&#45;&gt;Node6 -->
<g id="edge5_Node000004_Node000006" class="edge">
<title>Node4&#45;&gt;Node6</title>
<g id="a_edge5_Node000004_Node000006"><a xlink:title=" ">
<path fill="none" stroke="#63b8ff" d="M616.5,-44.66C616.5,-35.93 616.5,-25.99 616.5,-19.09"/>
<polygon fill="#63b8ff" stroke="#63b8ff" points="613,-44.75 616.5,-54.75 620,-44.75 613,-44.75"/>
</a>
</g>
</g>
<!-- Node9 -->
<g id="Node000009" class="node">
<title>Node9</title>
<g id="a_Node000009"><a xlink:href="DenseComponentArray_8h.html" target="_top" xlink:title="Provides dense storage for components of a specific type.">
<polygon fill="white" stroke="#666666" points="401,-239 264,-239 264,-220 401,-220 401,-239"/>
<text text-anchor="middle" x="332.5" y="-227" font-family="Helvetica,sans-Serif" font-size="10.00">DenseComponentArray.h</text>
</a>
</g>
</g>
<!-- Node8&#45;&gt;Node9 -->
<g id="edge8_Node000008_Node000009" class="edge">
<title>Node8&#45;&gt;Node9</title>
<g id="a_edge8_Node000008_Node000009"><a xlink:title=" ">
<path fill="none" stroke="#63b8ff" d="M356.88,-266.39C350.68,-257.27 343.33,-246.45 338.33,-239.09"/>
<polygon fill="#63b8ff" stroke="#63b8ff" points="354.04,-268.44 362.56,-274.75 359.83,-264.51 354.04,-268.44"/>
</a>
</g>
</g>
<!-- Node8&#45;&gt;Node10 -->
<g id="edge12_Node000008_Node000010" class="edge">
<title>Node8&#45;&gt;Node10</title>
<g id="a_edge12_Node000008_Node000010"><a xlink:title=" ">
<path fill="none" stroke="#63b8ff" d="M388.07,-268.15C396.36,-260.41 405.1,-250.27 409.5,-239 416.92,-220 405.32,-196.72 397.56,-184.3"/>
<polygon fill="#63b8ff" stroke="#63b8ff" points="385.68,-265.6 380.43,-274.8 390.27,-270.88 385.68,-265.6"/>
</a>
</g>
</g>
<!-- Node9&#45;&gt;Node10 -->
<g id="edge9_Node000009_Node000010" class="edge">
<title>Node9&#45;&gt;Node10</title>
<g id="a_edge9_Node000009_Node000010"><a xlink:title=" ">
<path fill="none" stroke="#63b8ff" d="M349.7,-213.04C360.17,-203.64 373.15,-191.98 381.85,-184.17"/>
<polygon fill="#63b8ff" stroke="#63b8ff" points="347.08,-210.7 341.98,-219.98 351.76,-215.91 347.08,-210.7"/>
</a>
</g>
</g>
<!-- Node10&#45;&gt;Node3 -->
<g id="edge10_Node000010_Node000003" class="edge">
<title>Node10&#45;&gt;Node3</title>
<g id="a_edge10_Node000010_Node000003"><a xlink:title=" ">
<path fill="none" stroke="#63b8ff" d="M437.45,-162.63C479.41,-152.7 540.62,-138.22 579.23,-129.08"/>
<polygon fill="#63b8ff" stroke="#63b8ff" points="436.41,-159.28 427.49,-164.98 438.03,-166.09 436.41,-159.28"/>
</a>
</g>
</g>
<!-- Node10&#45;&gt;Node7 -->
<g id="edge11_Node000010_Node000007" class="edge">
<title>Node10&#45;&gt;Node7</title>
<g id="a_edge11_Node000010_Node000007"><a xlink:title=" ">
<path fill="none" stroke="#63b8ff" d="M406.65,-157.3C428.35,-134.1 467.52,-92.21 484.4,-74.16"/>
<polygon fill="#63b8ff" stroke="#63b8ff" points="404.04,-154.97 399.77,-164.66 409.15,-159.75 404.04,-154.97"/>
</a>
</g>
</g>
<!-- Node11&#45;&gt;Node3 -->
<g id="edge18_Node000011_Node000003" class="edge">
<title>Node11&#45;&gt;Node3</title>
<g id="a_edge18_Node000011_Node000003"><a xlink:title=" ">
<path fill="none" stroke="#63b8ff" d="M173.35,-267.58C200.45,-241.41 258.61,-189.73 318.5,-165 404.52,-129.48 514.98,-121.86 573.97,-120.5"/>
<polygon fill="#63b8ff" stroke="#63b8ff" points="170.65,-265.32 165.96,-274.83 175.55,-270.32 170.65,-265.32"/>
</a>
</g>
</g>
<!-- Node12 -->
<g id="Node000012" class="node">
<title>Node12</title>
<g id="a_Node000012"><a xlink:href="EntityManager_8h.html" target="_top" xlink:title="Concrete implementation of IEntityManager (includes option for reuse)">
<polygon fill="white" stroke="#666666" points="169.5,-239 73.5,-239 73.5,-220 169.5,-220 169.5,-239"/>
<text text-anchor="middle" x="121.5" y="-227" font-family="Helvetica,sans-Serif" font-size="10.00">EntityManager.h</text>
</a>
</g>
</g>
<!-- Node11&#45;&gt;Node12 -->
<g id="edge15_Node000011_Node000012" class="edge">
<title>Node11&#45;&gt;Node12</title>
<g id="a_edge15_Node000011_Node000012"><a xlink:title=" ">
<path fill="none" stroke="#63b8ff" d="M145.88,-266.39C139.68,-257.27 132.33,-246.45 127.33,-239.09"/>
<polygon fill="#63b8ff" stroke="#63b8ff" points="143.04,-268.44 151.56,-274.75 148.83,-264.51 143.04,-268.44"/>
</a>
</g>
</g>
<!-- Node12&#45;&gt;Node7 -->
<g id="edge17_Node000012_Node000007" class="edge">
<title>Node12&#45;&gt;Node7</title>
<g id="a_edge17_Node000012_Node000007"><a xlink:title=" ">
<path fill="none" stroke="#63b8ff" d="M133.94,-211.79C145.38,-197.5 163.54,-177.36 183.5,-165 275.5,-108.03 403.31,-80.55 461.47,-70.37"/>
<polygon fill="#63b8ff" stroke="#63b8ff" points="131.09,-209.75 127.73,-219.8 136.62,-214.04 131.09,-209.75"/>
</a>
</g>
</g>
<!-- Node12&#45;&gt;Node13 -->
<g id="edge16_Node000012_Node000013" class="edge">
<title>Node12&#45;&gt;Node13</title>
<g id="a_edge16_Node000012_Node000013"><a xlink:title=" ">
<path fill="none" stroke="#63b8ff" d="M102.38,-213.6C90.2,-204.11 74.84,-192.13 64.62,-184.17"/>
<polygon fill="#63b8ff" stroke="#63b8ff" points="100.54,-216.6 110.57,-219.98 104.84,-211.08 100.54,-216.6"/>
</a>
</g>
</g>
<!-- Node14&#45;&gt;Node3 -->
<g id="edge20_Node000014_Node000003" class="edge">
<title>Node14&#45;&gt;Node3</title>
<g id="a_edge20_Node000014_Node000003"><a xlink:title=" ">
<path fill="none" stroke="#63b8ff" d="M508.9,-210.48C515.92,-196.81 526.96,-178.18 540.5,-165 556.66,-149.26 579.42,-136.77 595.62,-129.08"/>
<polygon fill="#63b8ff" stroke="#63b8ff" points="505.59,-209.28 504.34,-219.8 511.88,-212.36 505.59,-209.28"/>
</a>
</g>
</g>
<!-- Node15&#45;&gt;Node16 -->
<g id="edge22_Node000015_Node000016" class="edge">
<title>Node15&#45;&gt;Node16</title>
<g id="a_edge22_Node000015_Node000016"><a xlink:title=" ">
<path fill="none" stroke="#63b8ff" d="M537.78,-270.23C556.3,-260.51 580.92,-247.6 596.98,-239.17"/>
<polygon fill="#63b8ff" stroke="#63b8ff" points="535.96,-267.24 528.73,-274.98 539.21,-273.44 535.96,-267.24"/>
</a>
</g>
</g>
<!-- Node16&#45;&gt;Node7 -->
<g id="edge24_Node000016_Node000007" class="edge">
<title>Node16&#45;&gt;Node7</title>
<g id="a_edge24_Node000016_Node000007"><a xlink:title=" ">
<path fill="none" stroke="#63b8ff" d="M582.96,-215.46C568.5,-208.01 551.93,-197.46 540.5,-184 511.33,-149.66 498.24,-95.27 494.07,-74.22"/>
<polygon fill="#63b8ff" stroke="#63b8ff" points="581.56,-218.68 592.09,-219.91 584.63,-212.38 581.56,-218.68"/>
</a>
</g>
</g>
<!-- Node17 -->
<g id="Node000017" class="node">
<title>Node17</title>
<g id="a_Node000017"><a xlink:href="SystemManager_8cpp.html" target="_top" xlink:title=" ">
<polygon fill="white" stroke="#666666" points="665.5,-184 549.5,-184 549.5,-165 665.5,-165 665.5,-184"/>
<text text-anchor="middle" x="607.5" y="-172" font-family="Helvetica,sans-Serif" font-size="10.00">SystemManager.cpp</text>
</a>
</g>
</g>
<!-- Node16&#45;&gt;Node17 -->
<g id="edge23_Node000016_Node000017" class="edge">
<title>Node16&#45;&gt;Node17</title>
<g id="a_edge23_Node000016_Node000017"><a xlink:title=" ">
<path fill="none" stroke="#63b8ff" d="M611.37,-209.66C610.38,-200.93 609.25,-190.99 608.47,-184.09"/>
<polygon fill="#63b8ff" stroke="#63b8ff" points="607.91,-210.21 612.51,-219.75 614.86,-209.42 607.91,-210.21"/>
</a>
</g>
</g>
<!-- Node18&#45;&gt;Node3 -->
<g id="edge26_Node000018_Node000003" class="edge">
<title>Node18&#45;&gt;Node3</title>
<g id="a_edge26_Node000018_Node000003"><a xlink:title=" ">
<path fill="none" stroke="#63b8ff" d="M732.57,-264.58C733,-239.27 730.16,-194.19 707.5,-165 693.47,-146.92 670.21,-135.76 650.6,-129.14"/>
<polygon fill="#63b8ff" stroke="#63b8ff" points="729.07,-264.57 732.2,-274.69 736.06,-264.83 729.07,-264.57"/>
</a>
</g>
</g>
<!-- Node18&#45;&gt;Node16 -->
<g id="edge37_Node000018_Node000016" class="edge">
<title>Node18&#45;&gt;Node16</title>
<g id="a_edge37_Node000018_Node000016"><a xlink:title=" ">
<path fill="none" stroke="#63b8ff" d="M703.15,-270.77C681.38,-260.99 651.91,-247.75 632.8,-239.17"/>
<polygon fill="#63b8ff" stroke="#63b8ff" points="701.99,-274.08 712.54,-274.98 704.85,-267.69 701.99,-274.08"/>
</a>
</g>
</g>
<!-- Node19 -->
<g id="Node000019" class="node">
<title>Node19</title>
<g id="a_Node000019"><a xlink:href="ICommand_8h.html" target="_top" xlink:title="An abstract representation of an action to be executed in the game engine.">
<polygon fill="white" stroke="#666666" points="892,-239 813,-239 813,-220 892,-220 892,-239"/>
<text text-anchor="middle" x="852.5" y="-227" font-family="Helvetica,sans-Serif" font-size="10.00">ICommand.h</text>
</a>
</g>
</g>
<!-- Node18&#45;&gt;Node19 -->
<g id="edge27_Node000018_Node000019" class="edge">
<title>Node18&#45;&gt;Node19</title>
<g id="a_edge27_Node000018_Node000019"><a xlink:title=" ">
<path fill="none" stroke="#63b8ff" d="M760.27,-270.9C782.62,-261.11 813.02,-247.79 832.71,-239.17"/>
<polygon fill="#63b8ff" stroke="#63b8ff" points="758.7,-267.77 750.94,-274.98 761.5,-274.18 758.7,-267.77"/>
</a>
</g>
</g>
<!-- Node19&#45;&gt;Node4 -->
<g id="edge36_Node000019_Node000004" class="edge">
<title>Node19&#45;&gt;Node4</title>
<g id="a_edge36_Node000019_Node000004"><a xlink:title=" ">
<path fill="none" stroke="#63b8ff" d="M883.31,-215.13C896.01,-207.9 909.39,-197.61 916.5,-184 924.24,-169.2 931.46,-129.74 913.5,-110 905.8,-101.54 769.08,-83.77 683.85,-73.42"/>
<polygon fill="#63b8ff" stroke="#63b8ff" points="881.52,-212.12 874.29,-219.87 884.77,-218.32 881.52,-212.12"/>
</a>
</g>
</g>
<!-- Node20 -->
<g id="Node000020" class="node">
<title>Node20</title>
<g id="a_Node000020"><a xlink:href="ICommandQueue_8h.html" target="_top" xlink:title="A lightweight wrapper for queuing commands.">
<polygon fill="white" stroke="#666666" points="907.5,-184 797.5,-184 797.5,-165 907.5,-165 907.5,-184"/>
<text text-anchor="middle" x="852.5" y="-172" font-family="Helvetica,sans-Serif" font-size="10.00">ICommandQueue.h</text>
</a>
</g>
</g>
<!-- Node19&#45;&gt;Node20 -->
<g id="edge28_Node000019_Node000020" class="edge">
<title>Node19&#45;&gt;Node20</title>
<g id="a_edge28_Node000019_Node000020"><a xlink:title=" ">
<path fill="none" stroke="#63b8ff" d="M852.5,-209.66C852.5,-200.93 852.5,-190.99 852.5,-184.09"/>
<polygon fill="#63b8ff" stroke="#63b8ff" points="849,-209.75 852.5,-219.75 856,-209.75 849,-209.75"/>
</a>
</g>
</g>
<!-- Node20&#45;&gt;Node3 -->
<g id="edge32_Node000020_Node000003" class="edge">
<title>Node20&#45;&gt;Node3</title>
<g id="a_edge32_Node000020_Node000003"><a xlink:title=" ">
<path fill="none" stroke="#63b8ff" d="M804.44,-162.75C760.03,-152.82 694.9,-138.26 653.88,-129.08"/>
<polygon fill="#63b8ff" stroke="#63b8ff" points="803.9,-166.22 814.42,-164.98 805.43,-159.39 803.9,-166.22"/>
</a>
</g>
</g>
<!-- Node21 -->
<g id="Node000021" class="node">
<title>Node21</title>
<g id="a_Node000021"><a xlink:href="CommandQueue_8h.html" target="_top" xlink:title="Concrete implementation of ICommandQueue.">
<polygon fill="white" stroke="#666666" points="782,-129 675,-129 675,-110 782,-110 782,-129"/>
<text text-anchor="middle" x="728.5" y="-117" font-family="Helvetica,sans-Serif" font-size="10.00">CommandQueue.h</text>
</a>
</g>
</g>
<!-- Node20&#45;&gt;Node21 -->
<g id="edge29_Node000020_Node000021" class="edge">
<title>Node20&#45;&gt;Node21</title>
<g id="a_edge29_Node000020_Node000021"><a xlink:title=" ">
<path fill="none" stroke="#63b8ff" d="M823.32,-161.03C800.39,-151.23 769.05,-137.83 748.79,-129.17"/>
<polygon fill="#63b8ff" stroke="#63b8ff" points="822.01,-164.27 832.58,-164.98 824.76,-157.84 822.01,-164.27"/>
</a>
</g>
</g>
<!-- Node23 -->
<g id="Node000023" class="node">
<title>Node23</title>
<g id="a_Node000023"><a xlink:href="InputNormalizer_8h.html" target="_top" xlink:title="Concrete implementation of InputNormalizer.">
<polygon fill="white" stroke="#666666" points="904.5,-129 800.5,-129 800.5,-110 904.5,-110 904.5,-129"/>
<text text-anchor="middle" x="852.5" y="-117" font-family="Helvetica,sans-Serif" font-size="10.00">InputNormalizer.h</text>
</a>
</g>
</g>
<!-- Node20&#45;&gt;Node23 -->
<g id="edge33_Node000020_Node000023" class="edge">
<title>Node20&#45;&gt;Node23</title>
<g id="a_edge33_Node000020_Node000023"><a xlink:title=" ">
<path fill="none" stroke="#63b8ff" d="M852.5,-154.66C852.5,-145.93 852.5,-135.99 852.5,-129.09"/>
<polygon fill="#63b8ff" stroke="#63b8ff" points="849,-154.75 852.5,-164.75 856,-154.75 849,-154.75"/>
</a>
</g>
</g>
<!-- Node21&#45;&gt;Node7 -->
<g id="edge31_Node000021_Node000007" class="edge">
<title>Node21&#45;&gt;Node7</title>
<g id="a_edge31_Node000021_Node000007"><a xlink:title=" ">
<path fill="none" stroke="#63b8ff" d="M680.65,-107.75C633.74,-97.22 563.61,-81.47 523.54,-72.47"/>
<polygon fill="#63b8ff" stroke="#63b8ff" points="680.06,-111.21 690.58,-109.98 681.59,-104.38 680.06,-111.21"/>
</a>
</g>
</g>
<!-- Node22 -->
<g id="Node000022" class="node">
<title>Node22</title>
<g id="a_Node000022"><a xlink:href="CommandQueue_8cpp.html" target="_top" xlink:title=" ">
<polygon fill="white" stroke="#666666" points="821,-74 702,-74 702,-55 821,-55 821,-74"/>
<text text-anchor="middle" x="761.5" y="-62" font-family="Helvetica,sans-Serif" font-size="10.00">CommandQueue.cpp</text>
</a>
</g>
</g>
<!-- Node21&#45;&gt;Node22 -->
<g id="edge30_Node000021_Node000022" class="edge">
<title>Node21&#45;&gt;Node22</title>
<g id="a_edge30_Node000021_Node000022"><a xlink:title=" ">
<path fill="none" stroke="#63b8ff" d="M739.33,-101.1C744.97,-92.04 751.62,-81.37 756.15,-74.09"/>
<polygon fill="#63b8ff" stroke="#63b8ff" points="736.26,-99.41 733.95,-109.75 742.21,-103.11 736.26,-99.41"/>
</a>
</g>
</g>
<!-- Node23&#45;&gt;Node5 -->
<g id="edge34_Node000023_Node000005" class="edge">
<title>Node23&#45;&gt;Node5</title>
<g id="a_edge34_Node000023_Node000005"><a xlink:title=" ">
<path fill="none" stroke="#63b8ff" d="M846.8,-99.8C842.72,-87.01 836.83,-69.76 830.5,-55 825.01,-42.21 817.4,-28.03 812.46,-19.19"/>
<polygon fill="#63b8ff" stroke="#63b8ff" points="843.58,-101.22 849.9,-109.72 850.26,-99.13 843.58,-101.22"/>
</a>
</g>
</g>
<!-- Node23&#45;&gt;Node7 -->
<g id="edge35_Node000023_Node000007" class="edge">
<title>Node23&#45;&gt;Node7</title>
<g id="a_edge35_Node000023_Node000007"><a xlink:title=" ">
<path fill="none" stroke="#63b8ff" d="M790.31,-109.74C706.39,-97.91 564.58,-77.85 540.5,-74 535.07,-73.13 529.3,-72.16 523.72,-71.18"/>
<polygon fill="#63b8ff" stroke="#63b8ff" points="789.86,-113.22 800.25,-111.15 790.83,-106.28 789.86,-113.22"/>
</a>
</g>
</g>
</g>
</svg>
