<?xml version="1.0" encoding="UTF-8" standalone="no"?>
<!DOCTYPE svg PUBLIC "-//W3C//DTD SVG 1.1//EN"
 "http://www.w3.org/Graphics/SVG/1.1/DTD/svg11.dtd">
<!-- Generated by graphviz version 2.43.0 (0)
 -->
<!-- Title: EntityManager.cpp Pages: 1 -->
<svg width="587pt" height="313pt"
 viewBox="0.00 0.00 587.00 313.00" xmlns="http://www.w3.org/2000/svg" xmlns:xlink="http://www.w3.org/1999/xlink">
<g id="graph0" class="graph" transform="scale(1 1) rotate(0) translate(4 309)">
<title>EntityManager.cpp</title>
<!-- Node1 -->
<g id="Node000001" class="node">
<title>Node1</title>
<g id="a_Node000001"><a xlink:title=" ">
<polygon fill="#999999" stroke="#666666" points="388.5,-305 281.5,-305 281.5,-286 388.5,-286 388.5,-305"/>
<text text-anchor="middle" x="335" y="-293" font-family="Helvetica,sans-Serif" font-size="10.00">EntityManager.cpp</text>
</a>
</g>
</g>
<!-- Node2 -->
<g id="Node000002" class="node">
<title>Node2</title>
<g id="a_Node000002"><a xlink:href="EntityManager_8h.html" target="_top" xlink:title="Concrete implementation of IEntityManager (includes option for reuse)">
<polygon fill="white" stroke="#666666" points="277.5,-250 156.5,-250 156.5,-220 277.5,-220 277.5,-250"/>
<text text-anchor="start" x="164.5" y="-238" font-family="Helvetica,sans-Serif" font-size="10.00">../../include/ecs/Entity</text>
<text text-anchor="middle" x="217" y="-227" font-family="Helvetica,sans-Serif" font-size="10.00">Manager.h</text>
</a>
</g>
</g>
<!-- Node1&#45;&gt;Node2 -->
<g id="edge1_Node000001_Node000002" class="edge">
<title>Node1&#45;&gt;Node2</title>
<g id="a_edge1_Node000001_Node000002"><a xlink:title=" ">
<path fill="none" stroke="#63b8ff" d="M317.84,-285.99C301.36,-277.82 275.9,-265.2 254.69,-254.69"/>
<polygon fill="#63b8ff" stroke="#63b8ff" points="256.11,-251.48 245.6,-250.18 253,-257.76 256.11,-251.48"/>
</a>
</g>
</g>
<!-- Node8 -->
<g id="Node000008" class="node">
<title>Node8</title>
<g id="a_Node000008"><a xlink:href="ecs__config_8h.html" target="_top" xlink:title="Configuration constants and type definitions for ECS modules.">
<polygon fill="white" stroke="#666666" points="258.5,-74 181.5,-74 181.5,-55 258.5,-55 258.5,-74"/>
<text text-anchor="middle" x="220" y="-62" font-family="Helvetica,sans-Serif" font-size="10.00">ecs_config.h</text>
</a>
</g>
</g>
<!-- Node1&#45;&gt;Node8 -->
<g id="edge14_Node000001_Node000008" class="edge">
<title>Node1&#45;&gt;Node8</title>
<g id="a_edge14_Node000001_Node000008"><a xlink:title=" ">
<path fill="none" stroke="#63b8ff" d="M335.4,-285.79C336.03,-264.15 335.51,-206.63 315,-165 297.39,-129.25 262.38,-97.84 240.13,-80.29"/>
<polygon fill="#63b8ff" stroke="#63b8ff" points="242.08,-77.37 232.02,-74.06 237.82,-82.92 242.08,-77.37"/>
</a>
</g>
</g>
<!-- Node13 -->
<g id="Node000013" class="node">
<title>Node13</title>
<g id="a_Node000013"><a xlink:href="ConsoleSink_8h.html" target="_top" xlink:title="Concrete implementation of ISink that logs to the console.">
<polygon fill="white" stroke="#666666" points="506.5,-250 389.5,-250 389.5,-220 506.5,-220 506.5,-250"/>
<text text-anchor="start" x="397.5" y="-238" font-family="Helvetica,sans-Serif" font-size="10.00">../../include/logger</text>
<text text-anchor="middle" x="448" y="-227" font-family="Helvetica,sans-Serif" font-size="10.00">/sinks/ConsoleSink.h</text>
</a>
</g>
</g>
<!-- Node1&#45;&gt;Node13 -->
<g id="edge15_Node000001_Node000013" class="edge">
<title>Node1&#45;&gt;Node13</title>
<g id="a_edge15_Node000001_Node000013"><a xlink:title=" ">
<path fill="none" stroke="#63b8ff" d="M351.67,-285.87C367.43,-277.71 391.6,-265.2 411.79,-254.75"/>
<polygon fill="#63b8ff" stroke="#63b8ff" points="413.46,-257.82 420.74,-250.11 410.25,-251.6 413.46,-257.82"/>
</a>
</g>
</g>
<!-- Node3 -->
<g id="Node000003" class="node">
<title>Node3</title>
<g id="a_Node000003"><a xlink:href="IEntityManager_8h.html" target="_top" xlink:title="Interface for managing entities and their signatures.">
<polygon fill="white" stroke="#666666" points="170.5,-184 71.5,-184 71.5,-165 170.5,-165 170.5,-184"/>
<text text-anchor="middle" x="121" y="-172" font-family="Helvetica,sans-Serif" font-size="10.00">IEntityManager.h</text>
</a>
</g>
</g>
<!-- Node2&#45;&gt;Node3 -->
<g id="edge2_Node000002_Node000003" class="edge">
<title>Node2&#45;&gt;Node3</title>
<g id="a_edge2_Node000002_Node000003"><a xlink:title=" ">
<path fill="none" stroke="#63b8ff" d="M193.76,-219.84C178.6,-210.6 158.89,-198.59 143.81,-189.4"/>
<polygon fill="#63b8ff" stroke="#63b8ff" points="145.46,-186.31 135.1,-184.09 141.82,-192.29 145.46,-186.31"/>
</a>
</g>
</g>
<!-- Node4 -->
<g id="Node000004" class="node">
<title>Node4</title>
<g id="a_Node000004"><a xlink:title=" ">
<polygon fill="#e0e0e0" stroke="#999999" points="86,-129 0,-129 0,-110 86,-110 86,-129"/>
<text text-anchor="middle" x="43" y="-117" font-family="Helvetica,sans-Serif" font-size="10.00">unordered_set</text>
</a>
</g>
</g>
<!-- Node2&#45;&gt;Node4 -->
<g id="edge13_Node000002_Node000004" class="edge">
<title>Node2&#45;&gt;Node4</title>
<g id="a_edge13_Node000002_Node000004"><a xlink:title=" ">
<path fill="none" stroke="#63b8ff" d="M156.2,-227.96C124.26,-221.77 86.72,-209.26 62,-184 50.31,-172.06 45.77,-153.24 44.03,-139.18"/>
<polygon fill="#63b8ff" stroke="#63b8ff" points="47.51,-138.81 43.15,-129.15 40.54,-139.42 47.51,-138.81"/>
</a>
</g>
</g>
<!-- Node11 -->
<g id="Node000011" class="node">
<title>Node11</title>
<g id="a_Node000011"><a xlink:title=" ">
<polygon fill="#e0e0e0" stroke="#999999" points="245,-184 189,-184 189,-165 245,-165 245,-184"/>
<text text-anchor="middle" x="217" y="-172" font-family="Helvetica,sans-Serif" font-size="10.00">optional</text>
</a>
</g>
</g>
<!-- Node2&#45;&gt;Node11 -->
<g id="edge11_Node000002_Node000011" class="edge">
<title>Node2&#45;&gt;Node11</title>
<g id="a_edge11_Node000002_Node000011"><a xlink:title=" ">
<path fill="none" stroke="#63b8ff" d="M217,-219.84C217,-212.21 217,-202.7 217,-194.45"/>
<polygon fill="#63b8ff" stroke="#63b8ff" points="220.5,-194.27 217,-184.27 213.5,-194.27 220.5,-194.27"/>
</a>
</g>
</g>
<!-- Node12 -->
<g id="Node000012" class="node">
<title>Node12</title>
<g id="a_Node000012"><a xlink:title=" ">
<polygon fill="#e0e0e0" stroke="#999999" points="306.5,-184 263.5,-184 263.5,-165 306.5,-165 306.5,-184"/>
<text text-anchor="middle" x="285" y="-172" font-family="Helvetica,sans-Serif" font-size="10.00">stack</text>
</a>
</g>
</g>
<!-- Node2&#45;&gt;Node12 -->
<g id="edge12_Node000002_Node000012" class="edge">
<title>Node2&#45;&gt;Node12</title>
<g id="a_edge12_Node000002_Node000012"><a xlink:title=" ">
<path fill="none" stroke="#63b8ff" d="M233.46,-219.84C243.63,-211.09 256.69,-199.85 267.12,-190.88"/>
<polygon fill="#63b8ff" stroke="#63b8ff" points="269.51,-193.44 274.81,-184.27 264.95,-188.13 269.51,-193.44"/>
</a>
</g>
</g>
<!-- Node3&#45;&gt;Node4 -->
<g id="edge3_Node000003_Node000004" class="edge">
<title>Node3&#45;&gt;Node4</title>
<g id="a_edge3_Node000003_Node000004"><a xlink:title=" ">
<path fill="none" stroke="#63b8ff" d="M108.47,-164.98C96.6,-156.92 78.54,-144.65 64.39,-135.03"/>
<polygon fill="#63b8ff" stroke="#63b8ff" points="66,-131.9 55.76,-129.17 62.06,-137.69 66,-131.9"/>
</a>
</g>
</g>
<!-- Node5 -->
<g id="Node000005" class="node">
<title>Node5</title>
<g id="a_Node000005"><a xlink:href="Entity_8h.html" target="_top" xlink:title="Simple struct for Entity in the ECS module (includes version)">
<polygon fill="white" stroke="#666666" points="157.5,-129 104.5,-129 104.5,-110 157.5,-110 157.5,-129"/>
<text text-anchor="middle" x="131" y="-117" font-family="Helvetica,sans-Serif" font-size="10.00">Entity.h</text>
</a>
</g>
</g>
<!-- Node3&#45;&gt;Node5 -->
<g id="edge4_Node000003_Node000005" class="edge">
<title>Node3&#45;&gt;Node5</title>
<g id="a_edge4_Node000003_Node000005"><a xlink:title=" ">
<path fill="none" stroke="#63b8ff" d="M122.65,-164.75C123.96,-157.8 125.84,-147.85 127.48,-139.13"/>
<polygon fill="#63b8ff" stroke="#63b8ff" points="130.96,-139.56 129.38,-129.09 124.09,-138.27 130.96,-139.56"/>
</a>
</g>
</g>
<!-- Node3&#45;&gt;Node8 -->
<g id="edge10_Node000003_Node000008" class="edge">
<title>Node3&#45;&gt;Node8</title>
<g id="a_edge10_Node000003_Node000008"><a xlink:title=" ">
<path fill="none" stroke="#63b8ff" d="M130.19,-164.86C139.46,-156.05 154.04,-141.89 166,-129 180.23,-113.66 195.62,-95.38 206.31,-82.39"/>
<polygon fill="#63b8ff" stroke="#63b8ff" points="209.28,-84.29 212.89,-74.33 203.86,-79.86 209.28,-84.29"/>
</a>
</g>
</g>
<!-- Node6 -->
<g id="Node000006" class="node">
<title>Node6</title>
<g id="a_Node000006"><a xlink:title=" ">
<polygon fill="#e0e0e0" stroke="#999999" points="80,-74 30,-74 30,-55 80,-55 80,-74"/>
<text text-anchor="middle" x="55" y="-62" font-family="Helvetica,sans-Serif" font-size="10.00">cstdint</text>
</a>
</g>
</g>
<!-- Node5&#45;&gt;Node6 -->
<g id="edge5_Node000005_Node000006" class="edge">
<title>Node5&#45;&gt;Node6</title>
<g id="a_edge5_Node000005_Node000006"><a xlink:title=" ">
<path fill="none" stroke="#63b8ff" d="M118.79,-109.98C107.22,-101.92 89.62,-89.65 75.84,-80.03"/>
<polygon fill="#63b8ff" stroke="#63b8ff" points="77.64,-77.02 67.43,-74.17 73.63,-82.76 77.64,-77.02"/>
</a>
</g>
</g>
<!-- Node7 -->
<g id="Node000007" class="node">
<title>Node7</title>
<g id="a_Node000007"><a xlink:title=" ">
<polygon fill="#e0e0e0" stroke="#999999" points="163.5,-74 98.5,-74 98.5,-55 163.5,-55 163.5,-74"/>
<text text-anchor="middle" x="131" y="-62" font-family="Helvetica,sans-Serif" font-size="10.00">functional</text>
</a>
</g>
</g>
<!-- Node5&#45;&gt;Node7 -->
<g id="edge6_Node000005_Node000007" class="edge">
<title>Node5&#45;&gt;Node7</title>
<g id="a_edge6_Node000005_Node000007"><a xlink:title=" ">
<path fill="none" stroke="#63b8ff" d="M131,-109.75C131,-102.8 131,-92.85 131,-84.13"/>
<polygon fill="#63b8ff" stroke="#63b8ff" points="134.5,-84.09 131,-74.09 127.5,-84.09 134.5,-84.09"/>
</a>
</g>
</g>
<!-- Node5&#45;&gt;Node8 -->
<g id="edge7_Node000005_Node000008" class="edge">
<title>Node5&#45;&gt;Node8</title>
<g id="a_edge7_Node000005_Node000008"><a xlink:title=" ">
<path fill="none" stroke="#63b8ff" d="M145.3,-109.98C159.1,-101.77 180.24,-89.18 196.51,-79.49"/>
<polygon fill="#63b8ff" stroke="#63b8ff" points="198.64,-82.29 205.44,-74.17 195.06,-76.28 198.64,-82.29"/>
</a>
</g>
</g>
<!-- Node9 -->
<g id="Node000009" class="node">
<title>Node9</title>
<g id="a_Node000009"><a xlink:title=" ">
<polygon fill="#e0e0e0" stroke="#999999" points="208,-19 164,-19 164,0 208,0 208,-19"/>
<text text-anchor="middle" x="186" y="-7" font-family="Helvetica,sans-Serif" font-size="10.00">bitset</text>
</a>
</g>
</g>
<!-- Node8&#45;&gt;Node9 -->
<g id="edge8_Node000008_Node000009" class="edge">
<title>Node8&#45;&gt;Node9</title>
<g id="a_edge8_Node000008_Node000009"><a xlink:title=" ">
<path fill="none" stroke="#63b8ff" d="M214.39,-54.75C209.68,-47.42 202.83,-36.73 197.03,-27.7"/>
<polygon fill="#63b8ff" stroke="#63b8ff" points="199.86,-25.62 191.51,-19.09 193.96,-29.4 199.86,-25.62"/>
</a>
</g>
</g>
<!-- Node10 -->
<g id="Node000010" class="node">
<title>Node10</title>
<g id="a_Node000010"><a xlink:title=" ">
<polygon fill="#e0e0e0" stroke="#999999" points="279.5,-19 226.5,-19 226.5,0 279.5,0 279.5,-19"/>
<text text-anchor="middle" x="253" y="-7" font-family="Helvetica,sans-Serif" font-size="10.00">cstddef</text>
</a>
</g>
</g>
<!-- Node8&#45;&gt;Node10 -->
<g id="edge9_Node000008_Node000010" class="edge">
<title>Node8&#45;&gt;Node10</title>
<g id="a_edge9_Node000008_Node000010"><a xlink:title=" ">
<path fill="none" stroke="#63b8ff" d="M225.45,-54.75C230.01,-47.42 236.67,-36.73 242.29,-27.7"/>
<polygon fill="#63b8ff" stroke="#63b8ff" points="245.34,-29.43 247.65,-19.09 239.4,-25.73 245.34,-29.43"/>
</a>
</g>
</g>
<!-- Node14 -->
<g id="Node000014" class="node">
<title>Node14</title>
<g id="a_Node000014"><a xlink:title=" ">
<polygon fill="#e0e0e0" stroke="#999999" points="423,-184 363,-184 363,-165 423,-165 423,-184"/>
<text text-anchor="middle" x="393" y="-172" font-family="Helvetica,sans-Serif" font-size="10.00">iostream</text>
</a>
</g>
</g>
<!-- Node13&#45;&gt;Node14 -->
<g id="edge16_Node000013_Node000014" class="edge">
<title>Node13&#45;&gt;Node14</title>
<g id="a_edge16_Node000013_Node000014"><a xlink:title=" ">
<path fill="none" stroke="#63b8ff" d="M434.69,-219.84C426.7,-211.35 416.52,-200.52 408.22,-191.69"/>
<polygon fill="#63b8ff" stroke="#63b8ff" points="410.64,-189.15 401.24,-184.27 405.54,-193.95 410.64,-189.15"/>
</a>
</g>
</g>
<!-- Node15 -->
<g id="Node000015" class="node">
<title>Node15</title>
<g id="a_Node000015"><a xlink:href="Logger_8h.html" target="_top" xlink:title="Central static logging interface for the application.">
<polygon fill="white" stroke="#666666" points="508.5,-184 441.5,-184 441.5,-165 508.5,-165 508.5,-184"/>
<text text-anchor="middle" x="475" y="-172" font-family="Helvetica,sans-Serif" font-size="10.00">../Logger.h</text>
</a>
</g>
</g>
<!-- Node13&#45;&gt;Node15 -->
<g id="edge17_Node000013_Node000015" class="edge">
<title>Node13&#45;&gt;Node15</title>
<g id="a_edge17_Node000013_Node000015"><a xlink:title=" ">
<path fill="none" stroke="#63b8ff" d="M454.54,-219.84C458.18,-211.95 462.74,-202.05 466.64,-193.61"/>
<polygon fill="#63b8ff" stroke="#63b8ff" points="469.94,-194.81 470.95,-184.27 463.59,-191.88 469.94,-194.81"/>
</a>
</g>
</g>
<!-- Node18 -->
<g id="Node000018" class="node">
<title>Node18</title>
<g id="a_Node000018"><a xlink:href="ISink_8h.html" target="_top" xlink:title="Declares the logging sink interface.">
<polygon fill="white" stroke="#666666" points="579,-129 501,-129 501,-110 579,-110 579,-129"/>
<text text-anchor="middle" x="540" y="-117" font-family="Helvetica,sans-Serif" font-size="10.00">sinks/ISink.h</text>
</a>
</g>
</g>
<!-- Node13&#45;&gt;Node18 -->
<g id="edge22_Node000013_Node000018" class="edge">
<title>Node13&#45;&gt;Node18</title>
<g id="a_edge22_Node000013_Node000018"><a xlink:title=" ">
<path fill="none" stroke="#63b8ff" d="M474.63,-219.93C488.89,-211.23 505.78,-198.89 517,-184 527.03,-170.68 533.01,-152.57 536.35,-139.1"/>
<polygon fill="#63b8ff" stroke="#63b8ff" points="539.83,-139.6 538.56,-129.08 532.99,-138.09 539.83,-139.6"/>
</a>
</g>
</g>
<!-- Node16 -->
<g id="Node000016" class="node">
<title>Node16</title>
<g id="a_Node000016"><a xlink:title=" ">
<polygon fill="#e0e0e0" stroke="#999999" points="445,-129 387,-129 387,-110 445,-110 445,-129"/>
<text text-anchor="middle" x="416" y="-117" font-family="Helvetica,sans-Serif" font-size="10.00">memory</text>
</a>
</g>
</g>
<!-- Node15&#45;&gt;Node16 -->
<g id="edge18_Node000015_Node000016" class="edge">
<title>Node15&#45;&gt;Node16</title>
<g id="a_edge18_Node000015_Node000016"><a xlink:title=" ">
<path fill="none" stroke="#63b8ff" d="M465.52,-164.98C456.8,-157.15 443.66,-145.34 433.1,-135.86"/>
<polygon fill="#63b8ff" stroke="#63b8ff" points="435.43,-133.25 425.65,-129.17 430.75,-138.46 435.43,-133.25"/>
</a>
</g>
</g>
<!-- Node17 -->
<g id="Node000017" class="node">
<title>Node17</title>
<g id="a_Node000017"><a xlink:title=" ">
<polygon fill="#e0e0e0" stroke="#999999" points="542.5,-74 469.5,-74 469.5,-55 542.5,-55 542.5,-74"/>
<text text-anchor="middle" x="506" y="-62" font-family="Helvetica,sans-Serif" font-size="10.00">string_view</text>
</a>
</g>
</g>
<!-- Node15&#45;&gt;Node17 -->
<g id="edge19_Node000015_Node000017" class="edge">
<title>Node15&#45;&gt;Node17</title>
<g id="a_edge19_Node000015_Node000017"><a xlink:title=" ">
<path fill="none" stroke="#63b8ff" d="M477.19,-164.84C480.32,-152.59 486.32,-129.51 492,-110 494.49,-101.45 497.42,-92.03 499.96,-84.07"/>
<polygon fill="#63b8ff" stroke="#63b8ff" points="503.36,-84.92 503.1,-74.33 496.7,-82.78 503.36,-84.92"/>
</a>
</g>
</g>
<!-- Node15&#45;&gt;Node18 -->
<g id="edge20_Node000015_Node000018" class="edge">
<title>Node15&#45;&gt;Node18</title>
<g id="a_edge20_Node000015_Node000018"><a xlink:title=" ">
<path fill="none" stroke="#63b8ff" d="M485.44,-164.98C495.15,-157.07 509.82,-145.11 521.5,-135.58"/>
<polygon fill="#63b8ff" stroke="#63b8ff" points="523.83,-138.2 529.37,-129.17 519.4,-132.78 523.83,-138.2"/>
</a>
</g>
</g>
<!-- Node18&#45;&gt;Node17 -->
<g id="edge21_Node000018_Node000017" class="edge">
<title>Node18&#45;&gt;Node17</title>
<g id="a_edge21_Node000018_Node000017"><a xlink:title=" ">
<path fill="none" stroke="#63b8ff" d="M534.39,-109.75C529.68,-102.42 522.83,-91.73 517.03,-82.7"/>
<polygon fill="#63b8ff" stroke="#63b8ff" points="519.86,-80.62 511.51,-74.09 513.96,-84.4 519.86,-80.62"/>
</a>
</g>
</g>
</g>
</svg>
