<?xml version="1.0" encoding="UTF-8" standalone="no"?>
<!DOCTYPE svg PUBLIC "-//W3C//DTD SVG 1.1//EN"
 "http://www.w3.org/Graphics/SVG/1.1/DTD/svg11.dtd">
<!-- Generated by graphviz version 2.43.0 (0)
 -->
<!-- Title: Entity.h Pages: 1 -->
<svg width="792pt" height="357pt"
 viewBox="0.00 0.00 791.53 357.00" xmlns="http://www.w3.org/2000/svg" xmlns:xlink="http://www.w3.org/1999/xlink">
<g id="graph0" class="graph" transform="scale(1 1) rotate(0) translate(4 353)">
<title>Entity.h</title>
<!-- Node1 -->
<g id="Node000001" class="node">
<title>Node1</title>
<g id="a_Node000001"><a xlink:title="Simple struct for Entity in the ECS module (includes version)">
<polygon fill="#999999" stroke="#666666" points="401,-349 348,-349 348,-330 401,-330 401,-349"/>
<text text-anchor="middle" x="374.5" y="-337" font-family="Helvetica,sans-Serif" font-size="10.00">Entity.h</text>
</a>
</g>
</g>
<!-- Node2 -->
<g id="Node000002" class="node">
<title>Node2</title>
<g id="a_Node000002"><a xlink:href="GameWorld_8h.html" target="_top" xlink:title="Defines the concrete game world used by the main loop.">
<polygon fill="white" stroke="#666666" points="518,-129 435,-129 435,-110 518,-110 518,-129"/>
<text text-anchor="middle" x="476.5" y="-117" font-family="Helvetica,sans-Serif" font-size="10.00">GameWorld.h</text>
</a>
</g>
</g>
<!-- Node1&#45;&gt;Node2 -->
<g id="edge1_Node000001_Node000002" class="edge">
<title>Node1&#45;&gt;Node2</title>
<g id="a_edge1_Node000001_Node000002"><a xlink:title=" ">
<path fill="none" stroke="#63b8ff" d="M410.47,-326.54C447.16,-312.18 502.06,-284.21 526.5,-239 547.84,-199.52 504.85,-148.98 485.39,-129.09"/>
<polygon fill="#63b8ff" stroke="#63b8ff" points="409.23,-323.26 401.1,-330.06 411.69,-329.81 409.23,-323.26"/>
</a>
</g>
</g>
<!-- Node7 -->
<g id="Node000007" class="node">
<title>Node7</title>
<g id="a_Node000007"><a xlink:href="IComponentArray_8h.html" target="_top" xlink:title="A data structure built for managing a specific component type.">
<polygon fill="white" stroke="#666666" points="277.5,-294 167.5,-294 167.5,-275 277.5,-275 277.5,-294"/>
<text text-anchor="middle" x="222.5" y="-282" font-family="Helvetica,sans-Serif" font-size="10.00">IComponentArray.h</text>
</a>
</g>
</g>
<!-- Node1&#45;&gt;Node7 -->
<g id="edge6_Node000001_Node000007" class="edge">
<title>Node1&#45;&gt;Node7</title>
<g id="a_edge6_Node000001_Node000007"><a xlink:title=" ">
<path fill="none" stroke="#63b8ff" d="M340.57,-326.67C312.23,-316.79 272.48,-302.93 247.11,-294.08"/>
<polygon fill="#63b8ff" stroke="#63b8ff" points="339.48,-330 350.08,-329.98 341.79,-323.39 339.48,-330"/>
</a>
</g>
</g>
<!-- Node9 -->
<g id="Node000009" class="node">
<title>Node9</title>
<g id="a_Node000009"><a xlink:href="IComponentManager_8h.html" target="_top" xlink:title="System for managing components and their relationship to specific entities.">
<polygon fill="white" stroke="#666666" points="244,-184 117,-184 117,-165 244,-165 244,-184"/>
<text text-anchor="middle" x="180.5" y="-172" font-family="Helvetica,sans-Serif" font-size="10.00">IComponentManager.h</text>
</a>
</g>
</g>
<!-- Node1&#45;&gt;Node9 -->
<g id="edge12_Node000001_Node000009" class="edge">
<title>Node1&#45;&gt;Node9</title>
<g id="a_edge12_Node000001_Node000009"><a xlink:title=" ">
<path fill="none" stroke="#63b8ff" d="M337.33,-335.14C282.88,-329.52 185.03,-316.55 158.5,-294 132.45,-271.86 124.69,-251.7 137.5,-220 143.62,-204.86 157.63,-192.01 168.01,-184.07"/>
<polygon fill="#63b8ff" stroke="#63b8ff" points="337.31,-338.66 347.61,-336.17 338,-331.69 337.31,-338.66"/>
</a>
</g>
</g>
<!-- Node10 -->
<g id="Node000010" class="node">
<title>Node10</title>
<g id="a_Node000010"><a xlink:href="IEntityManager_8h.html" target="_top" xlink:title="Interface for managing entities and their signatures.">
<polygon fill="white" stroke="#666666" points="99,-184 0,-184 0,-165 99,-165 99,-184"/>
<text text-anchor="middle" x="49.5" y="-172" font-family="Helvetica,sans-Serif" font-size="10.00">IEntityManager.h</text>
</a>
</g>
</g>
<!-- Node1&#45;&gt;Node10 -->
<g id="edge13_Node000001_Node000010" class="edge">
<title>Node1&#45;&gt;Node10</title>
<g id="a_edge13_Node000001_Node000010"><a xlink:title=" ">
<path fill="none" stroke="#63b8ff" d="M337.49,-334.87C279.47,-328.63 170.33,-314.53 137.5,-294 92.74,-266.01 63.03,-206.34 53.14,-184.09"/>
<polygon fill="#63b8ff" stroke="#63b8ff" points="337.38,-338.37 347.69,-335.94 338.12,-331.41 337.38,-338.37"/>
</a>
</g>
</g>
<!-- Node13 -->
<g id="Node000013" class="node">
<title>Node13</title>
<g id="a_Node000013"><a xlink:href="IGameWorld_8h.html" target="_top" xlink:title="Declares the interface for interacting with the active game world state.">
<polygon fill="white" stroke="#666666" points="517.5,-239 431.5,-239 431.5,-220 517.5,-220 517.5,-239"/>
<text text-anchor="middle" x="474.5" y="-227" font-family="Helvetica,sans-Serif" font-size="10.00">IGameWorld.h</text>
</a>
</g>
</g>
<!-- Node1&#45;&gt;Node13 -->
<g id="edge18_Node000001_Node000013" class="edge">
<title>Node1&#45;&gt;Node13</title>
<g id="a_edge18_Node000001_Node000013"><a xlink:title=" ">
<path fill="none" stroke="#63b8ff" d="M389.5,-322.3C410.98,-299.1 449.77,-257.21 466.48,-239.16"/>
<polygon fill="#63b8ff" stroke="#63b8ff" points="386.91,-319.95 382.68,-329.66 392.05,-324.7 386.91,-319.95"/>
</a>
</g>
</g>
<!-- Node14 -->
<g id="Node000014" class="node">
<title>Node14</title>
<g id="a_Node000014"><a xlink:href="ISystem_8h.html" target="_top" xlink:title="Declares the interface for all game systems in the ECS framework.">
<polygon fill="white" stroke="#666666" points="377,-294 312,-294 312,-275 377,-275 377,-294"/>
<text text-anchor="middle" x="344.5" y="-282" font-family="Helvetica,sans-Serif" font-size="10.00">ISystem.h</text>
</a>
</g>
</g>
<!-- Node1&#45;&gt;Node14 -->
<g id="edge20_Node000001_Node000014" class="edge">
<title>Node1&#45;&gt;Node14</title>
<g id="a_edge20_Node000001_Node000014"><a xlink:title=" ">
<path fill="none" stroke="#63b8ff" d="M364.49,-320.82C359.4,-311.82 353.44,-301.29 349.36,-294.09"/>
<polygon fill="#63b8ff" stroke="#63b8ff" points="361.57,-322.77 369.55,-329.75 367.67,-319.32 361.57,-322.77"/>
</a>
</g>
</g>
<!-- Node15 -->
<g id="Node000015" class="node">
<title>Node15</title>
<g id="a_Node000015"><a xlink:href="SystemManager_8h.html" target="_top" xlink:title="Defines the concrete implementation of ISystemManager.h.">
<polygon fill="white" stroke="#666666" points="413.5,-239 309.5,-239 309.5,-220 413.5,-220 413.5,-239"/>
<text text-anchor="middle" x="361.5" y="-227" font-family="Helvetica,sans-Serif" font-size="10.00">SystemManager.h</text>
</a>
</g>
</g>
<!-- Node1&#45;&gt;Node15 -->
<g id="edge37_Node000001_Node000015" class="edge">
<title>Node1&#45;&gt;Node15</title>
<g id="a_edge37_Node000001_Node000015"><a xlink:title=" ">
<path fill="none" stroke="#63b8ff" d="M381.67,-320.3C385.73,-307.52 389.31,-290.09 385.5,-275 382.11,-261.55 373.76,-247.75 367.87,-239.16"/>
<polygon fill="#63b8ff" stroke="#63b8ff" points="378.35,-319.19 378.3,-329.79 384.95,-321.54 378.35,-319.19"/>
</a>
</g>
</g>
<!-- Node17 -->
<g id="Node000017" class="node">
<title>Node17</title>
<g id="a_Node000017"><a xlink:href="ISystemManager_8h.html" target="_top" xlink:title="Declares the interface for managing registered systems.">
<polygon fill="white" stroke="#666666" points="681,-294 574,-294 574,-275 681,-275 681,-294"/>
<text text-anchor="middle" x="627.5" y="-282" font-family="Helvetica,sans-Serif" font-size="10.00">ISystemManager.h</text>
</a>
</g>
</g>
<!-- Node1&#45;&gt;Node17 -->
<g id="edge24_Node000001_Node000017" class="edge">
<title>Node1&#45;&gt;Node17</title>
<g id="a_edge24_Node000001_Node000017"><a xlink:title=" ">
<path fill="none" stroke="#63b8ff" d="M411.07,-330.84C457.72,-321.07 538.16,-304.22 586.73,-294.04"/>
<polygon fill="#63b8ff" stroke="#63b8ff" points="410.17,-327.45 401.1,-332.93 411.6,-334.3 410.17,-327.45"/>
</a>
</g>
</g>
<!-- Node3 -->
<g id="Node000003" class="node">
<title>Node3</title>
<g id="a_Node000003"><a xlink:href="PlayerMoveCommand_8h.html" target="_top" xlink:title="A command for triggering player (paddle) movement.">
<polygon fill="white" stroke="#666666" points="568.5,-74 434.5,-74 434.5,-55 568.5,-55 568.5,-74"/>
<text text-anchor="middle" x="501.5" y="-62" font-family="Helvetica,sans-Serif" font-size="10.00">PlayerMoveCommand.h</text>
</a>
</g>
</g>
<!-- Node2&#45;&gt;Node3 -->
<g id="edge2_Node000002_Node000003" class="edge">
<title>Node2&#45;&gt;Node3</title>
<g id="a_edge2_Node000002_Node000003"><a xlink:title=" ">
<path fill="none" stroke="#63b8ff" d="M484.98,-100.53C489.19,-91.6 494.09,-81.22 497.45,-74.09"/>
<polygon fill="#63b8ff" stroke="#63b8ff" points="481.73,-99.21 480.63,-109.75 488.06,-102.2 481.73,-99.21"/>
</a>
</g>
</g>
<!-- Node6 -->
<g id="Node000006" class="node">
<title>Node6</title>
<g id="a_Node000006"><a xlink:href="main_8cpp.html" target="_top" xlink:title=" ">
<polygon fill="white" stroke="#666666" points="416.5,-74 354.5,-74 354.5,-55 416.5,-55 416.5,-74"/>
<text text-anchor="middle" x="385.5" y="-62" font-family="Helvetica,sans-Serif" font-size="10.00">main.cpp</text>
</a>
</g>
</g>
<!-- Node2&#45;&gt;Node6 -->
<g id="edge5_Node000002_Node000006" class="edge">
<title>Node2&#45;&gt;Node6</title>
<g id="a_edge5_Node000002_Node000006"><a xlink:title=" ">
<path fill="none" stroke="#63b8ff" d="M452.8,-104.7C436.22,-95.04 414.59,-82.44 400.39,-74.17"/>
<polygon fill="#63b8ff" stroke="#63b8ff" points="451.48,-107.98 461.88,-109.98 455,-101.93 451.48,-107.98"/>
</a>
</g>
</g>
<!-- Node4 -->
<g id="Node000004" class="node">
<title>Node4</title>
<g id="a_Node000004"><a xlink:href="InputNormalizer_8cpp.html" target="_top" xlink:title=" ">
<polygon fill="white" stroke="#666666" points="749,-19 634,-19 634,0 749,0 749,-19"/>
<text text-anchor="middle" x="691.5" y="-7" font-family="Helvetica,sans-Serif" font-size="10.00">InputNormalizer.cpp</text>
</a>
</g>
</g>
<!-- Node3&#45;&gt;Node4 -->
<g id="edge3_Node000003_Node000004" class="edge">
<title>Node3&#45;&gt;Node4</title>
<g id="a_edge3_Node000003_Node000004"><a xlink:title=" ">
<path fill="none" stroke="#63b8ff" d="M542.07,-52.18C577.6,-42.27 628.47,-28.08 660.73,-19.08"/>
<polygon fill="#63b8ff" stroke="#63b8ff" points="540.72,-48.93 532.03,-54.98 542.6,-55.67 540.72,-48.93"/>
</a>
</g>
</g>
<!-- Node5 -->
<g id="Node000005" class="node">
<title>Node5</title>
<g id="a_Node000005"><a xlink:href="PlayerMoveCommand_8cpp.html" target="_top" xlink:title=" ">
<polygon fill="white" stroke="#666666" points="574,-19 429,-19 429,0 574,0 574,-19"/>
<text text-anchor="middle" x="501.5" y="-7" font-family="Helvetica,sans-Serif" font-size="10.00">PlayerMoveCommand.cpp</text>
</a>
</g>
</g>
<!-- Node3&#45;&gt;Node5 -->
<g id="edge4_Node000003_Node000005" class="edge">
<title>Node3&#45;&gt;Node5</title>
<g id="a_edge4_Node000003_Node000005"><a xlink:title=" ">
<path fill="none" stroke="#63b8ff" d="M501.5,-44.66C501.5,-35.93 501.5,-25.99 501.5,-19.09"/>
<polygon fill="#63b8ff" stroke="#63b8ff" points="498,-44.75 501.5,-54.75 505,-44.75 498,-44.75"/>
</a>
</g>
</g>
<!-- Node8 -->
<g id="Node000008" class="node">
<title>Node8</title>
<g id="a_Node000008"><a xlink:href="DenseComponentArray_8h.html" target="_top" xlink:title="Provides dense storage for components of a specific type.">
<polygon fill="white" stroke="#666666" points="291,-239 154,-239 154,-220 291,-220 291,-239"/>
<text text-anchor="middle" x="222.5" y="-227" font-family="Helvetica,sans-Serif" font-size="10.00">DenseComponentArray.h</text>
</a>
</g>
</g>
<!-- Node7&#45;&gt;Node8 -->
<g id="edge7_Node000007_Node000008" class="edge">
<title>Node7&#45;&gt;Node8</title>
<g id="a_edge7_Node000007_Node000008"><a xlink:title=" ">
<path fill="none" stroke="#63b8ff" d="M222.5,-264.66C222.5,-255.93 222.5,-245.99 222.5,-239.09"/>
<polygon fill="#63b8ff" stroke="#63b8ff" points="219,-264.75 222.5,-274.75 226,-264.75 219,-264.75"/>
</a>
</g>
</g>
<!-- Node7&#45;&gt;Node9 -->
<g id="edge11_Node000007_Node000009" class="edge">
<title>Node7&#45;&gt;Node9</title>
<g id="a_edge11_Node000007_Node000009"><a xlink:title=" ">
<path fill="none" stroke="#63b8ff" d="M183.36,-270.89C168.47,-263.96 153.04,-253.71 144.5,-239 133.17,-219.49 155,-196.41 169.36,-184.16"/>
<polygon fill="#63b8ff" stroke="#63b8ff" points="182.42,-274.29 193,-274.97 185.16,-267.85 182.42,-274.29"/>
</a>
</g>
</g>
<!-- Node8&#45;&gt;Node9 -->
<g id="edge8_Node000008_Node000009" class="edge">
<title>Node8&#45;&gt;Node9</title>
<g id="a_edge8_Node000008_Node000009"><a xlink:title=" ">
<path fill="none" stroke="#63b8ff" d="M209.17,-211.67C201.89,-202.5 193.2,-191.52 187.31,-184.09"/>
<polygon fill="#63b8ff" stroke="#63b8ff" points="206.61,-214.08 215.56,-219.75 212.1,-209.74 206.61,-214.08"/>
</a>
</g>
</g>
<!-- Node9&#45;&gt;Node2 -->
<g id="edge9_Node000009_Node000002" class="edge">
<title>Node9&#45;&gt;Node2</title>
<g id="a_edge9_Node000009_Node000002"><a xlink:title=" ">
<path fill="none" stroke="#63b8ff" d="M238.13,-163.18C295.9,-152.84 383.43,-137.16 434.8,-127.97"/>
<polygon fill="#63b8ff" stroke="#63b8ff" points="237.28,-159.78 228.06,-164.98 238.52,-166.67 237.28,-159.78"/>
</a>
</g>
</g>
<!-- Node9&#45;&gt;Node6 -->
<g id="edge10_Node000009_Node000006" class="edge">
<title>Node9&#45;&gt;Node6</title>
<g id="a_edge10_Node000009_Node000006"><a xlink:title=" ">
<path fill="none" stroke="#63b8ff" d="M205.85,-160.14C248.57,-137.64 333.69,-92.79 369.28,-74.05"/>
<polygon fill="#63b8ff" stroke="#63b8ff" points="204.15,-157.09 196.93,-164.84 207.41,-163.28 204.15,-157.09"/>
</a>
</g>
</g>
<!-- Node10&#45;&gt;Node2 -->
<g id="edge17_Node000010_Node000002" class="edge">
<title>Node10&#45;&gt;Node2</title>
<g id="a_edge17_Node000010_Node000002"><a xlink:title=" ">
<path fill="none" stroke="#63b8ff" d="M109.23,-164.8C233.5,-148.3 368.4,-132.7 434.95,-125.16"/>
<polygon fill="#63b8ff" stroke="#63b8ff" points="108.61,-161.35 99.16,-166.14 109.54,-168.29 108.61,-161.35"/>
</a>
</g>
</g>
<!-- Node11 -->
<g id="Node000011" class="node">
<title>Node11</title>
<g id="a_Node000011"><a xlink:href="EntityManager_8h.html" target="_top" xlink:title="Concrete implementation of IEntityManager (includes option for reuse)">
<polygon fill="white" stroke="#666666" points="219.5,-129 123.5,-129 123.5,-110 219.5,-110 219.5,-129"/>
<text text-anchor="middle" x="171.5" y="-117" font-family="Helvetica,sans-Serif" font-size="10.00">EntityManager.h</text>
</a>
</g>
</g>
<!-- Node10&#45;&gt;Node11 -->
<g id="edge14_Node000010_Node000011" class="edge">
<title>Node10&#45;&gt;Node11</title>
<g id="a_edge14_Node000010_Node000011"><a xlink:title=" ">
<path fill="none" stroke="#63b8ff" d="M78.51,-160.9C101.04,-151.11 131.7,-137.79 151.54,-129.17"/>
<polygon fill="#63b8ff" stroke="#63b8ff" points="76.88,-157.79 69.1,-164.98 79.67,-164.21 76.88,-157.79"/>
</a>
</g>
</g>
<!-- Node11&#45;&gt;Node6 -->
<g id="edge16_Node000011_Node000006" class="edge">
<title>Node11&#45;&gt;Node6</title>
<g id="a_edge16_Node000011_Node000006"><a xlink:title=" ">
<path fill="none" stroke="#63b8ff" d="M215.7,-107.55C257.06,-97.31 317.82,-82.26 354.33,-73.22"/>
<polygon fill="#63b8ff" stroke="#63b8ff" points="214.75,-104.18 205.88,-109.98 216.43,-110.98 214.75,-104.18"/>
</a>
</g>
</g>
<!-- Node12 -->
<g id="Node000012" class="node">
<title>Node12</title>
<g id="a_Node000012"><a xlink:href="EntityManager_8cpp.html" target="_top" xlink:title=" ">
<polygon fill="white" stroke="#666666" points="225,-74 118,-74 118,-55 225,-55 225,-74"/>
<text text-anchor="middle" x="171.5" y="-62" font-family="Helvetica,sans-Serif" font-size="10.00">EntityManager.cpp</text>
</a>
</g>
</g>
<!-- Node11&#45;&gt;Node12 -->
<g id="edge15_Node000011_Node000012" class="edge">
<title>Node11&#45;&gt;Node12</title>
<g id="a_edge15_Node000011_Node000012"><a xlink:title=" ">
<path fill="none" stroke="#63b8ff" d="M171.5,-99.66C171.5,-90.93 171.5,-80.99 171.5,-74.09"/>
<polygon fill="#63b8ff" stroke="#63b8ff" points="168,-99.75 171.5,-109.75 175,-99.75 168,-99.75"/>
</a>
</g>
</g>
<!-- Node13&#45;&gt;Node2 -->
<g id="edge19_Node000013_Node000002" class="edge">
<title>Node13&#45;&gt;Node2</title>
<g id="a_edge19_Node000013_Node000002"><a xlink:title=" ">
<path fill="none" stroke="#63b8ff" d="M474.85,-209.48C475.29,-185.84 476.02,-146.5 476.34,-129.16"/>
<polygon fill="#63b8ff" stroke="#63b8ff" points="471.35,-209.6 474.66,-219.66 478.35,-209.73 471.35,-209.6"/>
</a>
</g>
</g>
<!-- Node14&#45;&gt;Node15 -->
<g id="edge21_Node000014_Node000015" class="edge">
<title>Node14&#45;&gt;Node15</title>
<g id="a_edge21_Node000014_Node000015"><a xlink:title=" ">
<path fill="none" stroke="#63b8ff" d="M350.45,-264.95C353.27,-256.15 356.51,-246.06 358.75,-239.09"/>
<polygon fill="#63b8ff" stroke="#63b8ff" points="347.03,-264.16 347.31,-274.75 353.69,-266.29 347.03,-264.16"/>
</a>
</g>
</g>
<!-- Node15&#45;&gt;Node6 -->
<g id="edge23_Node000015_Node000006" class="edge">
<title>Node15&#45;&gt;Node6</title>
<g id="a_edge23_Node000015_Node000006"><a xlink:title=" ">
<path fill="none" stroke="#63b8ff" d="M374.22,-211.61C379.43,-203.67 384.84,-193.81 387.5,-184 398.31,-144.08 390.91,-93.79 387.23,-74.03"/>
<polygon fill="#63b8ff" stroke="#63b8ff" points="371.27,-209.73 368.39,-219.93 377,-213.75 371.27,-209.73"/>
</a>
</g>
</g>
<!-- Node16 -->
<g id="Node000016" class="node">
<title>Node16</title>
<g id="a_Node000016"><a xlink:href="SystemManager_8cpp.html" target="_top" xlink:title=" ">
<polygon fill="white" stroke="#666666" points="378.5,-184 262.5,-184 262.5,-165 378.5,-165 378.5,-184"/>
<text text-anchor="middle" x="320.5" y="-172" font-family="Helvetica,sans-Serif" font-size="10.00">SystemManager.cpp</text>
</a>
</g>
</g>
<!-- Node15&#45;&gt;Node16 -->
<g id="edge22_Node000015_Node000016" class="edge">
<title>Node15&#45;&gt;Node16</title>
<g id="a_edge22_Node000015_Node000016"><a xlink:title=" ">
<path fill="none" stroke="#63b8ff" d="M348.48,-211.67C341.38,-202.5 332.9,-191.52 327.14,-184.09"/>
<polygon fill="#63b8ff" stroke="#63b8ff" points="345.84,-213.98 354.73,-219.75 351.38,-209.7 345.84,-213.98"/>
</a>
</g>
</g>
<!-- Node17&#45;&gt;Node2 -->
<g id="edge25_Node000017_Node000002" class="edge">
<title>Node17&#45;&gt;Node2</title>
<g id="a_edge25_Node000017_Node000002"><a xlink:title=" ">
<path fill="none" stroke="#63b8ff" d="M620.93,-265.61C610.95,-240.48 589.87,-194.5 559.5,-165 542.5,-148.48 518.13,-136.4 500.19,-129.03"/>
<polygon fill="#63b8ff" stroke="#63b8ff" points="617.68,-266.9 624.52,-274.99 624.21,-264.4 617.68,-266.9"/>
</a>
</g>
</g>
<!-- Node17&#45;&gt;Node15 -->
<g id="edge36_Node000017_Node000015" class="edge">
<title>Node17&#45;&gt;Node15</title>
<g id="a_edge36_Node000017_Node000015"><a xlink:title=" ">
<path fill="none" stroke="#63b8ff" d="M574.82,-273C524.95,-263.07 451.01,-248.33 404.57,-239.08"/>
<polygon fill="#63b8ff" stroke="#63b8ff" points="574.27,-276.46 584.76,-274.98 575.64,-269.6 574.27,-276.46"/>
</a>
</g>
</g>
<!-- Node18 -->
<g id="Node000018" class="node">
<title>Node18</title>
<g id="a_Node000018"><a xlink:href="ICommand_8h.html" target="_top" xlink:title="An abstract representation of an action to be executed in the game engine.">
<polygon fill="white" stroke="#666666" points="706,-239 627,-239 627,-220 706,-220 706,-239"/>
<text text-anchor="middle" x="666.5" y="-227" font-family="Helvetica,sans-Serif" font-size="10.00">ICommand.h</text>
</a>
</g>
</g>
<!-- Node17&#45;&gt;Node18 -->
<g id="edge26_Node000017_Node000018" class="edge">
<title>Node17&#45;&gt;Node18</title>
<g id="a_edge26_Node000017_Node000018"><a xlink:title=" ">
<path fill="none" stroke="#63b8ff" d="M639.88,-266.67C646.64,-257.5 654.71,-246.52 660.18,-239.09"/>
<polygon fill="#63b8ff" stroke="#63b8ff" points="637.05,-264.62 633.94,-274.75 642.69,-268.77 637.05,-264.62"/>
</a>
</g>
</g>
<!-- Node18&#45;&gt;Node3 -->
<g id="edge35_Node000018_Node000003" class="edge">
<title>Node18&#45;&gt;Node3</title>
<g id="a_edge35_Node000018_Node000003"><a xlink:title=" ">
<path fill="none" stroke="#63b8ff" d="M694.19,-215.43C736.24,-193.87 807.94,-149.33 774.5,-110 767.77,-102.09 645.46,-84.55 566.86,-74.01"/>
<polygon fill="#63b8ff" stroke="#63b8ff" points="692.6,-212.31 685.22,-219.91 695.73,-218.57 692.6,-212.31"/>
</a>
</g>
</g>
<!-- Node19 -->
<g id="Node000019" class="node">
<title>Node19</title>
<g id="a_Node000019"><a xlink:href="ICommandQueue_8h.html" target="_top" xlink:title="A lightweight wrapper for queuing commands.">
<polygon fill="white" stroke="#666666" points="721.5,-184 611.5,-184 611.5,-165 721.5,-165 721.5,-184"/>
<text text-anchor="middle" x="666.5" y="-172" font-family="Helvetica,sans-Serif" font-size="10.00">ICommandQueue.h</text>
</a>
</g>
</g>
<!-- Node18&#45;&gt;Node19 -->
<g id="edge27_Node000018_Node000019" class="edge">
<title>Node18&#45;&gt;Node19</title>
<g id="a_edge27_Node000018_Node000019"><a xlink:title=" ">
<path fill="none" stroke="#63b8ff" d="M666.5,-209.66C666.5,-200.93 666.5,-190.99 666.5,-184.09"/>
<polygon fill="#63b8ff" stroke="#63b8ff" points="663,-209.75 666.5,-219.75 670,-209.75 663,-209.75"/>
</a>
</g>
</g>
<!-- Node19&#45;&gt;Node2 -->
<g id="edge31_Node000019_Node000002" class="edge">
<title>Node19&#45;&gt;Node2</title>
<g id="a_edge31_Node000019_Node000002"><a xlink:title=" ">
<path fill="none" stroke="#63b8ff" d="M625.93,-162.18C590.4,-152.27 539.53,-138.08 507.27,-129.08"/>
<polygon fill="#63b8ff" stroke="#63b8ff" points="625.4,-165.67 635.97,-164.98 627.28,-158.93 625.4,-165.67"/>
</a>
</g>
</g>
<!-- Node20 -->
<g id="Node000020" class="node">
<title>Node20</title>
<g id="a_Node000020"><a xlink:href="CommandQueue_8h.html" target="_top" xlink:title="Concrete implementation of ICommandQueue.">
<polygon fill="white" stroke="#666666" points="643,-129 536,-129 536,-110 643,-110 643,-129"/>
<text text-anchor="middle" x="589.5" y="-117" font-family="Helvetica,sans-Serif" font-size="10.00">CommandQueue.h</text>
</a>
</g>
</g>
<!-- Node19&#45;&gt;Node20 -->
<g id="edge28_Node000019_Node000020" class="edge">
<title>Node19&#45;&gt;Node20</title>
<g id="a_edge28_Node000019_Node000020"><a xlink:title=" ">
<path fill="none" stroke="#63b8ff" d="M645.65,-159.15C631.74,-149.57 613.89,-137.29 602.1,-129.17"/>
<polygon fill="#63b8ff" stroke="#63b8ff" points="643.91,-162.2 654.13,-164.98 647.88,-156.43 643.91,-162.2"/>
</a>
</g>
</g>
<!-- Node22 -->
<g id="Node000022" class="node">
<title>Node22</title>
<g id="a_Node000022"><a xlink:href="InputNormalizer_8h.html" target="_top" xlink:title="Concrete implementation of InputNormalizer.">
<polygon fill="white" stroke="#666666" points="765.5,-129 661.5,-129 661.5,-110 765.5,-110 765.5,-129"/>
<text text-anchor="middle" x="713.5" y="-117" font-family="Helvetica,sans-Serif" font-size="10.00">InputNormalizer.h</text>
</a>
</g>
</g>
<!-- Node19&#45;&gt;Node22 -->
<g id="edge32_Node000019_Node000022" class="edge">
<title>Node19&#45;&gt;Node22</title>
<g id="a_edge32_Node000019_Node000022"><a xlink:title=" ">
<path fill="none" stroke="#63b8ff" d="M680.92,-157.24C689.16,-147.95 699.15,-136.68 705.88,-129.09"/>
<polygon fill="#63b8ff" stroke="#63b8ff" points="678.28,-154.94 674.26,-164.75 683.51,-159.59 678.28,-154.94"/>
</a>
</g>
</g>
<!-- Node20&#45;&gt;Node6 -->
<g id="edge30_Node000020_Node000006" class="edge">
<title>Node20&#45;&gt;Node6</title>
<g id="a_edge30_Node000020_Node000006"><a xlink:title=" ">
<path fill="none" stroke="#63b8ff" d="M546.74,-107.39C507.81,-97.28 451.27,-82.59 416.52,-73.56"/>
<polygon fill="#63b8ff" stroke="#63b8ff" points="546.17,-110.86 556.72,-109.98 547.93,-104.08 546.17,-110.86"/>
</a>
</g>
</g>
<!-- Node21 -->
<g id="Node000021" class="node">
<title>Node21</title>
<g id="a_Node000021"><a xlink:href="CommandQueue_8cpp.html" target="_top" xlink:title=" ">
<polygon fill="white" stroke="#666666" points="706,-74 587,-74 587,-55 706,-55 706,-74"/>
<text text-anchor="middle" x="646.5" y="-62" font-family="Helvetica,sans-Serif" font-size="10.00">CommandQueue.cpp</text>
</a>
</g>
</g>
<!-- Node20&#45;&gt;Node21 -->
<g id="edge29_Node000020_Node000021" class="edge">
<title>Node20&#45;&gt;Node21</title>
<g id="a_edge29_Node000020_Node000021"><a xlink:title=" ">
<path fill="none" stroke="#63b8ff" d="M606.12,-103.04C616.23,-93.64 628.78,-81.98 637.18,-74.17"/>
<polygon fill="#63b8ff" stroke="#63b8ff" points="603.6,-100.61 598.66,-109.98 608.36,-105.74 603.6,-100.61"/>
</a>
</g>
</g>
<!-- Node22&#45;&gt;Node4 -->
<g id="edge33_Node000022_Node000004" class="edge">
<title>Node22&#45;&gt;Node4</title>
<g id="a_edge33_Node000022_Node000004"><a xlink:title=" ">
<path fill="none" stroke="#63b8ff" d="M716.77,-99.78C718.36,-86.98 719.22,-69.72 715.5,-55 712.11,-41.55 703.76,-27.75 697.87,-19.16"/>
<polygon fill="#63b8ff" stroke="#63b8ff" points="713.3,-99.3 715.28,-109.71 720.22,-100.34 713.3,-99.3"/>
</a>
</g>
</g>
<!-- Node22&#45;&gt;Node6 -->
<g id="edge34_Node000022_Node000006" class="edge">
<title>Node22&#45;&gt;Node6</title>
<g id="a_edge34_Node000022_Node000006"><a xlink:title=" ">
<path fill="none" stroke="#63b8ff" d="M651.12,-109.28C579.83,-98.67 467.6,-81.72 425.5,-74 422.71,-73.49 419.81,-72.93 416.91,-72.35"/>
<polygon fill="#63b8ff" stroke="#63b8ff" points="650.92,-112.79 661.33,-110.8 651.95,-105.87 650.92,-112.79"/>
</a>
</g>
</g>
</g>
</svg>
