<?xml version="1.0" encoding="UTF-8" standalone="no"?>
<!DOCTYPE svg PUBLIC "-//W3C//DTD SVG 1.1//EN"
 "http://www.w3.org/Graphics/SVG/1.1/DTD/svg11.dtd">
<!-- Generated by graphviz version 2.43.0 (0)
 -->
<!-- Title: Entity.h Pages: 1 -->
<svg width="640pt" height="247pt"
 viewBox="0.00 0.00 640.00 247.00" xmlns="http://www.w3.org/2000/svg" xmlns:xlink="http://www.w3.org/1999/xlink">
<g id="graph0" class="graph" transform="scale(1 1) rotate(0) translate(4 243)">
<title>Entity.h</title>
<!-- Node1 -->
<g id="Node000001" class="node">
<title>Node1</title>
<g id="a_Node000001"><a xlink:title="Simple struct for Entity in the ECS module (includes version)">
<polygon fill="#999999" stroke="#666666" points="362,-239 309,-239 309,-220 362,-220 362,-239"/>
<text text-anchor="middle" x="335.5" y="-227" font-family="Helvetica,sans-Serif" font-size="10.00">Entity.h</text>
</a>
</g>
</g>
<!-- Node2 -->
<g id="Node000002" class="node">
<title>Node2</title>
<g id="a_Node000002"><a xlink:href="GameWorld_8h.html" target="_top" xlink:title="Defines the concrete game world used by the main loop.">
<polygon fill="white" stroke="#666666" points="252,-19 169,-19 169,0 252,0 252,-19"/>
<text text-anchor="middle" x="210.5" y="-7" font-family="Helvetica,sans-Serif" font-size="10.00">GameWorld.h</text>
</a>
</g>
</g>
<!-- Node1&#45;&gt;Node2 -->
<g id="edge1_Node000001_Node000002" class="edge">
<title>Node1&#45;&gt;Node2</title>
<g id="a_edge1_Node000001_Node000002"><a xlink:title=" ">
<path fill="none" stroke="#63b8ff" d="M298.46,-228.27C245.7,-226.63 146.96,-218.69 71.5,-184 36.81,-168.05 21.7,-163.58 5.5,-129 -27.46,-58.64 99.99,-27.58 168.95,-16.14"/>
<polygon fill="#63b8ff" stroke="#63b8ff" points="298.6,-231.77 308.68,-228.52 298.77,-224.77 298.6,-231.77"/>
</a>
</g>
</g>
<!-- Node3 -->
<g id="Node000003" class="node">
<title>Node3</title>
<g id="a_Node000003"><a xlink:href="IComponentArray_8h.html" target="_top" xlink:title="A data structure built for managing a specific component type.">
<polygon fill="white" stroke="#666666" points="190.5,-184 80.5,-184 80.5,-165 190.5,-165 190.5,-184"/>
<text text-anchor="middle" x="135.5" y="-172" font-family="Helvetica,sans-Serif" font-size="10.00">IComponentArray.h</text>
</a>
</g>
</g>
<!-- Node1&#45;&gt;Node3 -->
<g id="edge2_Node000001_Node000003" class="edge">
<title>Node1&#45;&gt;Node3</title>
<g id="a_edge2_Node000001_Node000003"><a xlink:title=" ">
<path fill="none" stroke="#63b8ff" d="M298.94,-218.81C261.44,-208.87 203.67,-193.56 167.8,-184.06"/>
<polygon fill="#63b8ff" stroke="#63b8ff" points="298.38,-222.28 308.94,-221.46 300.17,-215.52 298.38,-222.28"/>
</a>
</g>
</g>
<!-- Node5 -->
<g id="Node000005" class="node">
<title>Node5</title>
<g id="a_Node000005"><a xlink:href="IComponentManager_8h.html" target="_top" xlink:title="System for managing components and their relationship to specific entities.">
<polygon fill="white" stroke="#666666" points="228,-74 101,-74 101,-55 228,-55 228,-74"/>
<text text-anchor="middle" x="164.5" y="-62" font-family="Helvetica,sans-Serif" font-size="10.00">IComponentManager.h</text>
</a>
</g>
</g>
<!-- Node1&#45;&gt;Node5 -->
<g id="edge7_Node000001_Node000005" class="edge">
<title>Node1&#45;&gt;Node5</title>
<g id="a_edge7_Node000001_Node000005"><a xlink:title=" ">
<path fill="none" stroke="#63b8ff" d="M299.3,-217.88C279.41,-210.7 255.25,-199.64 237.5,-184 200.52,-151.41 176.12,-95.51 167.73,-74.15"/>
<polygon fill="#63b8ff" stroke="#63b8ff" points="298.37,-221.26 308.97,-221.19 300.64,-214.63 298.37,-221.26"/>
</a>
</g>
</g>
<!-- Node6 -->
<g id="Node000006" class="node">
<title>Node6</title>
<g id="a_Node000006"><a xlink:href="IEntityManager_8h.html" target="_top" xlink:title="Interface for managing entities and their signatures.">
<polygon fill="white" stroke="#666666" points="346,-184 247,-184 247,-165 346,-165 346,-184"/>
<text text-anchor="middle" x="296.5" y="-172" font-family="Helvetica,sans-Serif" font-size="10.00">IEntityManager.h</text>
</a>
</g>
</g>
<!-- Node1&#45;&gt;Node6 -->
<g id="edge8_Node000001_Node000006" class="edge">
<title>Node1&#45;&gt;Node6</title>
<g id="a_edge8_Node000001_Node000006"><a xlink:title=" ">
<path fill="none" stroke="#63b8ff" d="M323.12,-211.67C316.36,-202.5 308.29,-191.52 302.82,-184.09"/>
<polygon fill="#63b8ff" stroke="#63b8ff" points="320.31,-213.77 329.06,-219.75 325.95,-209.62 320.31,-213.77"/>
</a>
</g>
</g>
<!-- Node9 -->
<g id="Node000009" class="node">
<title>Node9</title>
<g id="a_Node000009"><a xlink:href="IGameWorld_8h.html" target="_top" xlink:title="Declares the interface for interacting with the active game world state.">
<polygon fill="white" stroke="#666666" points="484.5,-129 398.5,-129 398.5,-110 484.5,-110 484.5,-129"/>
<text text-anchor="middle" x="441.5" y="-117" font-family="Helvetica,sans-Serif" font-size="10.00">IGameWorld.h</text>
</a>
</g>
</g>
<!-- Node1&#45;&gt;Node9 -->
<g id="edge12_Node000001_Node000009" class="edge">
<title>Node1&#45;&gt;Node9</title>
<g id="a_edge12_Node000001_Node000009"><a xlink:title=" ">
<path fill="none" stroke="#63b8ff" d="M349.91,-211.98C361.43,-198.95 378.14,-180.47 393.5,-165 406.31,-152.1 421.86,-137.94 431.72,-129.14"/>
<polygon fill="#63b8ff" stroke="#63b8ff" points="347.13,-209.84 343.16,-219.66 352.39,-214.46 347.13,-209.84"/>
</a>
</g>
</g>
<!-- Node10 -->
<g id="Node000010" class="node">
<title>Node10</title>
<g id="a_Node000010"><a xlink:href="ISystem_8h.html" target="_top" xlink:title="Declares the interface for all game systems in the ECS framework.">
<polygon fill="white" stroke="#666666" points="468,-184 403,-184 403,-165 468,-165 468,-184"/>
<text text-anchor="middle" x="435.5" y="-172" font-family="Helvetica,sans-Serif" font-size="10.00">ISystem.h</text>
</a>
</g>
</g>
<!-- Node1&#45;&gt;Node10 -->
<g id="edge14_Node000001_Node000010" class="edge">
<title>Node1&#45;&gt;Node10</title>
<g id="a_edge14_Node000001_Node000010"><a xlink:title=" ">
<path fill="none" stroke="#63b8ff" d="M360.53,-215.23C378.87,-205.51 403.24,-192.6 419.14,-184.17"/>
<polygon fill="#63b8ff" stroke="#63b8ff" points="358.76,-212.21 351.57,-219.98 362.04,-218.39 358.76,-212.21"/>
</a>
</g>
</g>
<!-- Node11 -->
<g id="Node000011" class="node">
<title>Node11</title>
<g id="a_Node000011"><a xlink:href="SystemManager_8h.html" target="_top" xlink:title="Defines the concrete implementation of ISystemManager.h.">
<polygon fill="white" stroke="#666666" points="606.5,-129 502.5,-129 502.5,-110 606.5,-110 606.5,-129"/>
<text text-anchor="middle" x="554.5" y="-117" font-family="Helvetica,sans-Serif" font-size="10.00">SystemManager.h</text>
</a>
</g>
</g>
<!-- Node1&#45;&gt;Node11 -->
<g id="edge19_Node000001_Node000011" class="edge">
<title>Node1&#45;&gt;Node11</title>
<g id="a_edge19_Node000001_Node000011"><a xlink:title=" ">
<path fill="none" stroke="#63b8ff" d="M372.02,-221.16C401.65,-214.25 443.87,-202.22 477.5,-184 505.53,-168.81 533.05,-142.65 546.31,-129.14"/>
<polygon fill="#63b8ff" stroke="#63b8ff" points="371.09,-217.78 362.1,-223.39 372.62,-224.61 371.09,-217.78"/>
</a>
</g>
</g>
<!-- Node13 -->
<g id="Node000013" class="node">
<title>Node13</title>
<g id="a_Node000013"><a xlink:href="ISystemManager_8h.html" target="_top" xlink:title="Declares the interface for managing registered systems.">
<polygon fill="white" stroke="#666666" points="632,-184 525,-184 525,-165 632,-165 632,-184"/>
<text text-anchor="middle" x="578.5" y="-172" font-family="Helvetica,sans-Serif" font-size="10.00">ISystemManager.h</text>
</a>
</g>
</g>
<!-- Node1&#45;&gt;Node13 -->
<g id="edge17_Node000001_Node000013" class="edge">
<title>Node1&#45;&gt;Node13</title>
<g id="a_edge17_Node000001_Node000013"><a xlink:title=" ">
<path fill="none" stroke="#63b8ff" d="M372.38,-220.46C417.45,-210.63 493.39,-194.06 539.43,-184.02"/>
<polygon fill="#63b8ff" stroke="#63b8ff" points="371.46,-217.07 362.43,-222.63 372.95,-223.91 371.46,-217.07"/>
</a>
</g>
</g>
<!-- Node4 -->
<g id="Node000004" class="node">
<title>Node4</title>
<g id="a_Node000004"><a xlink:href="DenseComponentArray_8h.html" target="_top" xlink:title="Provides dense storage for components of a specific type.">
<polygon fill="white" stroke="#666666" points="152,-129 15,-129 15,-110 152,-110 152,-129"/>
<text text-anchor="middle" x="83.5" y="-117" font-family="Helvetica,sans-Serif" font-size="10.00">DenseComponentArray.h</text>
</a>
</g>
</g>
<!-- Node3&#45;&gt;Node4 -->
<g id="edge3_Node000003_Node000004" class="edge">
<title>Node3&#45;&gt;Node4</title>
<g id="a_edge3_Node000003_Node000004"><a xlink:title=" ">
<path fill="none" stroke="#63b8ff" d="M119.82,-157.52C110.66,-148.18 99.45,-136.75 91.93,-129.09"/>
<polygon fill="#63b8ff" stroke="#63b8ff" points="117.41,-160.06 126.91,-164.75 122.41,-155.16 117.41,-160.06"/>
</a>
</g>
</g>
<!-- Node3&#45;&gt;Node5 -->
<g id="edge6_Node000003_Node000005" class="edge">
<title>Node3&#45;&gt;Node5</title>
<g id="a_edge6_Node000003_Node000005"><a xlink:title=" ">
<path fill="none" stroke="#63b8ff" d="M147.46,-156.46C152.41,-148.5 157.65,-138.65 160.5,-129 166.07,-110.14 165.83,-86.81 165.16,-74.34"/>
<polygon fill="#63b8ff" stroke="#63b8ff" points="144.52,-154.56 141.94,-164.83 150.37,-158.41 144.52,-154.56"/>
</a>
</g>
</g>
<!-- Node4&#45;&gt;Node5 -->
<g id="edge4_Node000004_Node000005" class="edge">
<title>Node4&#45;&gt;Node5</title>
<g id="a_edge4_Node000004_Node000005"><a xlink:title=" ">
<path fill="none" stroke="#63b8ff" d="M105.01,-104.42C119.71,-94.81 138.72,-82.37 151.25,-74.17"/>
<polygon fill="#63b8ff" stroke="#63b8ff" points="102.97,-101.58 96.51,-109.98 106.8,-107.44 102.97,-101.58"/>
</a>
</g>
</g>
<!-- Node5&#45;&gt;Node2 -->
<g id="edge5_Node000005_Node000002" class="edge">
<title>Node5&#45;&gt;Node2</title>
<g id="a_edge5_Node000005_Node000002"><a xlink:title=" ">
<path fill="none" stroke="#63b8ff" d="M178.86,-46.96C186.87,-37.72 196.53,-26.6 203.05,-19.09"/>
<polygon fill="#63b8ff" stroke="#63b8ff" points="176.01,-44.9 172.1,-54.75 181.29,-49.49 176.01,-44.9"/>
</a>
</g>
</g>
<!-- Node6&#45;&gt;Node2 -->
<g id="edge11_Node000006_Node000002" class="edge">
<title>Node6&#45;&gt;Node2</title>
<g id="a_edge11_Node000006_Node000002"><a xlink:title=" ">
<path fill="none" stroke="#63b8ff" d="M287.93,-155.75C276.57,-132.42 255.72,-90.28 236.5,-55 229.65,-42.43 221.21,-28.19 215.84,-19.28"/>
<polygon fill="#63b8ff" stroke="#63b8ff" points="284.8,-157.31 292.31,-164.78 291.09,-154.26 284.8,-157.31"/>
</a>
</g>
</g>
<!-- Node7 -->
<g id="Node000007" class="node">
<title>Node7</title>
<g id="a_Node000007"><a xlink:href="EntityManager_8h.html" target="_top" xlink:title="Concrete implementation of IEntityManager (includes option for reuse)">
<polygon fill="white" stroke="#666666" points="380.5,-129 284.5,-129 284.5,-110 380.5,-110 380.5,-129"/>
<text text-anchor="middle" x="332.5" y="-117" font-family="Helvetica,sans-Serif" font-size="10.00">EntityManager.h</text>
</a>
</g>
</g>
<!-- Node6&#45;&gt;Node7 -->
<g id="edge9_Node000006_Node000007" class="edge">
<title>Node6&#45;&gt;Node7</title>
<g id="a_edge9_Node000006_Node000007"><a xlink:title=" ">
<path fill="none" stroke="#63b8ff" d="M308.12,-156.39C314.32,-147.27 321.67,-136.45 326.67,-129.09"/>
<polygon fill="#63b8ff" stroke="#63b8ff" points="305.17,-154.51 302.44,-164.75 310.96,-158.44 305.17,-154.51"/>
</a>
</g>
</g>
<!-- Node8 -->
<g id="Node000008" class="node">
<title>Node8</title>
<g id="a_Node000008"><a xlink:href="EntityManager_8cpp.html" target="_top" xlink:title=" ">
<polygon fill="white" stroke="#666666" points="392,-74 285,-74 285,-55 392,-55 392,-74"/>
<text text-anchor="middle" x="338.5" y="-62" font-family="Helvetica,sans-Serif" font-size="10.00">EntityManager.cpp</text>
</a>
</g>
</g>
<!-- Node7&#45;&gt;Node8 -->
<g id="edge10_Node000007_Node000008" class="edge">
<title>Node7&#45;&gt;Node8</title>
<g id="a_edge10_Node000007_Node000008"><a xlink:title=" ">
<path fill="none" stroke="#63b8ff" d="M334.63,-99.66C335.62,-90.93 336.75,-80.99 337.53,-74.09"/>
<polygon fill="#63b8ff" stroke="#63b8ff" points="331.14,-99.42 333.49,-109.75 338.09,-100.21 331.14,-99.42"/>
</a>
</g>
</g>
<!-- Node9&#45;&gt;Node2 -->
<g id="edge13_Node000009_Node000002" class="edge">
<title>Node9&#45;&gt;Node2</title>
<g id="a_edge13_Node000009_Node000002"><a xlink:title=" ">
<path fill="none" stroke="#63b8ff" d="M434.25,-100.12C427.61,-85.68 416.38,-66.19 400.5,-55 356.33,-23.88 293.44,-14.26 252.31,-11.44"/>
<polygon fill="#63b8ff" stroke="#63b8ff" points="431.13,-101.73 438.28,-109.56 437.57,-98.99 431.13,-101.73"/>
</a>
</g>
</g>
<!-- Node10&#45;&gt;Node11 -->
<g id="edge15_Node000010_Node000011" class="edge">
<title>Node10&#45;&gt;Node11</title>
<g id="a_edge15_Node000010_Node000011"><a xlink:title=" ">
<path fill="none" stroke="#63b8ff" d="M463.8,-160.9C485.77,-151.11 515.68,-137.79 535.03,-129.17"/>
<polygon fill="#63b8ff" stroke="#63b8ff" points="462.33,-157.72 454.62,-164.98 465.18,-164.11 462.33,-157.72"/>
</a>
</g>
</g>
<!-- Node12 -->
<g id="Node000012" class="node">
<title>Node12</title>
<g id="a_Node000012"><a xlink:href="SystemManager_8cpp.html" target="_top" xlink:title=" ">
<polygon fill="white" stroke="#666666" points="612.5,-74 496.5,-74 496.5,-55 612.5,-55 612.5,-74"/>
<text text-anchor="middle" x="554.5" y="-62" font-family="Helvetica,sans-Serif" font-size="10.00">SystemManager.cpp</text>
</a>
</g>
</g>
<!-- Node11&#45;&gt;Node12 -->
<g id="edge16_Node000011_Node000012" class="edge">
<title>Node11&#45;&gt;Node12</title>
<g id="a_edge16_Node000011_Node000012"><a xlink:title=" ">
<path fill="none" stroke="#63b8ff" d="M554.5,-99.66C554.5,-90.93 554.5,-80.99 554.5,-74.09"/>
<polygon fill="#63b8ff" stroke="#63b8ff" points="551,-99.75 554.5,-109.75 558,-99.75 551,-99.75"/>
</a>
</g>
</g>
<!-- Node13&#45;&gt;Node11 -->
<g id="edge18_Node000013_Node000011" class="edge">
<title>Node13&#45;&gt;Node11</title>
<g id="a_edge18_Node000013_Node000011"><a xlink:title=" ">
<path fill="none" stroke="#63b8ff" d="M570.36,-155.53C566.32,-146.6 561.62,-136.22 558.39,-129.09"/>
<polygon fill="#63b8ff" stroke="#63b8ff" points="567.22,-157.08 574.54,-164.75 573.6,-154.19 567.22,-157.08"/>
</a>
</g>
</g>
</g>
</svg>
