<?xml version="1.0" encoding="UTF-8" standalone="no"?>
<!DOCTYPE svg PUBLIC "-//W3C//DTD SVG 1.1//EN"
 "http://www.w3.org/Graphics/SVG/1.1/DTD/svg11.dtd">
<!-- Generated by graphviz version 2.43.0 (0)
 -->
<!-- Title: EntityManager.h Pages: 1 -->
<svg width="322pt" height="247pt"
 viewBox="0.00 0.00 321.50 247.00" xmlns="http://www.w3.org/2000/svg" xmlns:xlink="http://www.w3.org/1999/xlink">
<g id="graph0" class="graph" transform="scale(1 1) rotate(0) translate(4 243)">
<title>EntityManager.h</title>
<!-- Node1 -->
<g id="Node000001" class="node">
<title>Node1</title>
<g id="a_Node000001"><a xlink:title="Concrete implementation of IEntityManager (includes option for reuse)">
<polygon fill="#999999" stroke="#666666" points="224,-239 128,-239 128,-220 224,-220 224,-239"/>
<text text-anchor="middle" x="176" y="-227" font-family="Helvetica,sans-Serif" font-size="10.00">EntityManager.h</text>
</a>
</g>
</g>
<!-- Node2 -->
<g id="Node000002" class="node">
<title>Node2</title>
<g id="a_Node000002"><a xlink:href="IEntityManager_8h.html" target="_top" xlink:title="Interface for managing entities and their signatures.">
<polygon fill="white" stroke="#666666" points="177.5,-184 78.5,-184 78.5,-165 177.5,-165 177.5,-184"/>
<text text-anchor="middle" x="128" y="-172" font-family="Helvetica,sans-Serif" font-size="10.00">IEntityManager.h</text>
</a>
</g>
</g>
<!-- Node1&#45;&gt;Node2 -->
<g id="edge1_Node000001_Node000002" class="edge">
<title>Node1&#45;&gt;Node2</title>
<g id="a_edge1_Node000001_Node000002"><a xlink:title=" ">
<path fill="none" stroke="#63b8ff" d="M168.07,-219.75C161.15,-212.11 150.93,-200.82 142.55,-191.56"/>
<polygon fill="#63b8ff" stroke="#63b8ff" points="145.09,-189.15 135.78,-184.09 139.9,-193.85 145.09,-189.15"/>
</a>
</g>
</g>
<!-- Node3 -->
<g id="Node000003" class="node">
<title>Node3</title>
<g id="a_Node000003"><a xlink:title=" ">
<polygon fill="#e0e0e0" stroke="#999999" points="86,-129 0,-129 0,-110 86,-110 86,-129"/>
<text text-anchor="middle" x="43" y="-117" font-family="Helvetica,sans-Serif" font-size="10.00">unordered_set</text>
</a>
</g>
</g>
<!-- Node1&#45;&gt;Node3 -->
<g id="edge12_Node000001_Node000003" class="edge">
<title>Node1&#45;&gt;Node3</title>
<g id="a_edge12_Node000001_Node000003"><a xlink:title=" ">
<path fill="none" stroke="#63b8ff" d="M136.12,-219.94C113.91,-213.38 87.16,-202.26 69,-184 56.8,-171.74 50.08,-152.96 46.54,-139"/>
<polygon fill="#63b8ff" stroke="#63b8ff" points="49.92,-138.07 44.35,-129.06 43.08,-139.57 49.92,-138.07"/>
</a>
</g>
</g>
<!-- Node10 -->
<g id="Node000010" class="node">
<title>Node10</title>
<g id="a_Node000010"><a xlink:title=" ">
<polygon fill="#e0e0e0" stroke="#999999" points="252,-184 196,-184 196,-165 252,-165 252,-184"/>
<text text-anchor="middle" x="224" y="-172" font-family="Helvetica,sans-Serif" font-size="10.00">optional</text>
</a>
</g>
</g>
<!-- Node1&#45;&gt;Node10 -->
<g id="edge10_Node000001_Node000010" class="edge">
<title>Node1&#45;&gt;Node10</title>
<g id="a_edge10_Node000001_Node000010"><a xlink:title=" ">
<path fill="none" stroke="#63b8ff" d="M183.93,-219.75C190.85,-212.11 201.07,-200.82 209.45,-191.56"/>
<polygon fill="#63b8ff" stroke="#63b8ff" points="212.1,-193.85 216.22,-184.09 206.91,-189.15 212.1,-193.85"/>
</a>
</g>
</g>
<!-- Node11 -->
<g id="Node000011" class="node">
<title>Node11</title>
<g id="a_Node000011"><a xlink:title=" ">
<polygon fill="#e0e0e0" stroke="#999999" points="313.5,-184 270.5,-184 270.5,-165 313.5,-165 313.5,-184"/>
<text text-anchor="middle" x="292" y="-172" font-family="Helvetica,sans-Serif" font-size="10.00">stack</text>
</a>
</g>
</g>
<!-- Node1&#45;&gt;Node11 -->
<g id="edge11_Node000001_Node000011" class="edge">
<title>Node1&#45;&gt;Node11</title>
<g id="a_edge11_Node000001_Node000011"><a xlink:title=" ">
<path fill="none" stroke="#63b8ff" d="M194.64,-219.98C213.3,-211.46 242.25,-198.23 263.74,-188.41"/>
<polygon fill="#63b8ff" stroke="#63b8ff" points="265.38,-191.51 273.02,-184.17 262.47,-185.14 265.38,-191.51"/>
</a>
</g>
</g>
<!-- Node2&#45;&gt;Node3 -->
<g id="edge2_Node000002_Node000003" class="edge">
<title>Node2&#45;&gt;Node3</title>
<g id="a_edge2_Node000002_Node000003"><a xlink:title=" ">
<path fill="none" stroke="#63b8ff" d="M114.34,-164.98C101.16,-156.77 80.97,-144.18 65.43,-134.49"/>
<polygon fill="#63b8ff" stroke="#63b8ff" points="67.24,-131.49 56.91,-129.17 63.54,-137.43 67.24,-131.49"/>
</a>
</g>
</g>
<!-- Node4 -->
<g id="Node000004" class="node">
<title>Node4</title>
<g id="a_Node000004"><a xlink:href="Entity_8h.html" target="_top" xlink:title="Simple struct for Entity in the ECS module (includes version)">
<polygon fill="white" stroke="#666666" points="157.5,-129 104.5,-129 104.5,-110 157.5,-110 157.5,-129"/>
<text text-anchor="middle" x="131" y="-117" font-family="Helvetica,sans-Serif" font-size="10.00">Entity.h</text>
</a>
</g>
</g>
<!-- Node2&#45;&gt;Node4 -->
<g id="edge3_Node000002_Node000004" class="edge">
<title>Node2&#45;&gt;Node4</title>
<g id="a_edge3_Node000002_Node000004"><a xlink:title=" ">
<path fill="none" stroke="#63b8ff" d="M128.5,-164.75C128.89,-157.8 129.45,-147.85 129.95,-139.13"/>
<polygon fill="#63b8ff" stroke="#63b8ff" points="133.44,-139.27 130.51,-129.09 126.45,-138.88 133.44,-139.27"/>
</a>
</g>
</g>
<!-- Node7 -->
<g id="Node000007" class="node">
<title>Node7</title>
<g id="a_Node000007"><a xlink:href="ecs__config_8h.html" target="_top" xlink:title="Configuration constants and type definitions for ECS modules.">
<polygon fill="white" stroke="#666666" points="249.5,-74 172.5,-74 172.5,-55 249.5,-55 249.5,-74"/>
<text text-anchor="middle" x="211" y="-62" font-family="Helvetica,sans-Serif" font-size="10.00">ecs_config.h</text>
</a>
</g>
</g>
<!-- Node2&#45;&gt;Node7 -->
<g id="edge9_Node000002_Node000007" class="edge">
<title>Node2&#45;&gt;Node7</title>
<g id="a_edge9_Node000002_Node000007"><a xlink:title=" ">
<path fill="none" stroke="#63b8ff" d="M135.81,-164.83C143.67,-156 156.01,-141.82 166,-129 177.89,-113.73 190.56,-95.67 199.42,-82.72"/>
<polygon fill="#63b8ff" stroke="#63b8ff" points="202.41,-84.55 205.13,-74.31 196.62,-80.62 202.41,-84.55"/>
</a>
</g>
</g>
<!-- Node5 -->
<g id="Node000005" class="node">
<title>Node5</title>
<g id="a_Node000005"><a xlink:title=" ">
<polygon fill="#e0e0e0" stroke="#999999" points="71,-74 21,-74 21,-55 71,-55 71,-74"/>
<text text-anchor="middle" x="46" y="-62" font-family="Helvetica,sans-Serif" font-size="10.00">cstdint</text>
</a>
</g>
</g>
<!-- Node4&#45;&gt;Node5 -->
<g id="edge4_Node000004_Node000005" class="edge">
<title>Node4&#45;&gt;Node5</title>
<g id="a_edge4_Node000004_Node000005"><a xlink:title=" ">
<path fill="none" stroke="#63b8ff" d="M117.34,-109.98C104.16,-101.77 83.97,-89.18 68.43,-79.49"/>
<polygon fill="#63b8ff" stroke="#63b8ff" points="70.24,-76.49 59.91,-74.17 66.54,-82.43 70.24,-76.49"/>
</a>
</g>
</g>
<!-- Node6 -->
<g id="Node000006" class="node">
<title>Node6</title>
<g id="a_Node000006"><a xlink:title=" ">
<polygon fill="#e0e0e0" stroke="#999999" points="154.5,-74 89.5,-74 89.5,-55 154.5,-55 154.5,-74"/>
<text text-anchor="middle" x="122" y="-62" font-family="Helvetica,sans-Serif" font-size="10.00">functional</text>
</a>
</g>
</g>
<!-- Node4&#45;&gt;Node6 -->
<g id="edge5_Node000004_Node000006" class="edge">
<title>Node4&#45;&gt;Node6</title>
<g id="a_edge5_Node000004_Node000006"><a xlink:title=" ">
<path fill="none" stroke="#63b8ff" d="M129.51,-109.75C128.33,-102.8 126.64,-92.85 125.16,-84.13"/>
<polygon fill="#63b8ff" stroke="#63b8ff" points="128.58,-83.36 123.46,-74.09 121.68,-84.53 128.58,-83.36"/>
</a>
</g>
</g>
<!-- Node4&#45;&gt;Node7 -->
<g id="edge6_Node000004_Node000007" class="edge">
<title>Node4&#45;&gt;Node7</title>
<g id="a_edge6_Node000004_Node000007"><a xlink:title=" ">
<path fill="none" stroke="#63b8ff" d="M143.85,-109.98C156.14,-101.84 174.91,-89.41 189.48,-79.76"/>
<polygon fill="#63b8ff" stroke="#63b8ff" points="191.51,-82.61 197.91,-74.17 187.64,-76.78 191.51,-82.61"/>
</a>
</g>
</g>
<!-- Node8 -->
<g id="Node000008" class="node">
<title>Node8</title>
<g id="a_Node000008"><a xlink:title=" ">
<polygon fill="#e0e0e0" stroke="#999999" points="200,-19 156,-19 156,0 200,0 200,-19"/>
<text text-anchor="middle" x="178" y="-7" font-family="Helvetica,sans-Serif" font-size="10.00">bitset</text>
</a>
</g>
</g>
<!-- Node7&#45;&gt;Node8 -->
<g id="edge7_Node000007_Node000008" class="edge">
<title>Node7&#45;&gt;Node8</title>
<g id="a_edge7_Node000007_Node000008"><a xlink:title=" ">
<path fill="none" stroke="#63b8ff" d="M205.55,-54.75C200.99,-47.42 194.33,-36.73 188.71,-27.7"/>
<polygon fill="#63b8ff" stroke="#63b8ff" points="191.6,-25.73 183.35,-19.09 185.66,-29.43 191.6,-25.73"/>
</a>
</g>
</g>
<!-- Node9 -->
<g id="Node000009" class="node">
<title>Node9</title>
<g id="a_Node000009"><a xlink:title=" ">
<polygon fill="#e0e0e0" stroke="#999999" points="271.5,-19 218.5,-19 218.5,0 271.5,0 271.5,-19"/>
<text text-anchor="middle" x="245" y="-7" font-family="Helvetica,sans-Serif" font-size="10.00">cstddef</text>
</a>
</g>
</g>
<!-- Node7&#45;&gt;Node9 -->
<g id="edge8_Node000007_Node000009" class="edge">
<title>Node7&#45;&gt;Node9</title>
<g id="a_edge8_Node000007_Node000009"><a xlink:title=" ">
<path fill="none" stroke="#63b8ff" d="M216.61,-54.75C221.32,-47.42 228.17,-36.73 233.97,-27.7"/>
<polygon fill="#63b8ff" stroke="#63b8ff" points="237.04,-29.4 239.49,-19.09 231.14,-25.62 237.04,-29.4"/>
</a>
</g>
</g>
</g>
</svg>
