<?xml version="1.0" encoding="UTF-8" standalone="no"?>
<!DOCTYPE svg PUBLIC "-//W3C//DTD SVG 1.1//EN"
 "http://www.w3.org/Graphics/SVG/1.1/DTD/svg11.dtd">
<!-- Generated by graphviz version 2.43.0 (0)
 -->
<!-- Title: GameWorld.h Pages: 1 -->
<svg width="1042pt" height="357pt"
 viewBox="0.00 0.00 1041.57 357.00" xmlns="http://www.w3.org/2000/svg" xmlns:xlink="http://www.w3.org/1999/xlink">
<g id="graph0" class="graph" transform="scale(1 1) rotate(0) translate(4 353)">
<title>GameWorld.h</title>
<!-- Node1 -->
<g id="Node000001" class="node">
<title>Node1</title>
<g id="a_Node000001"><a xlink:title="Defines the concrete game world used by the main loop.">
<polygon fill="#999999" stroke="#666666" points="682.07,-349 599.07,-349 599.07,-330 682.07,-330 682.07,-349"/>
<text text-anchor="middle" x="640.57" y="-337" font-family="Helvetica,sans-Serif" font-size="10.00">GameWorld.h</text>
</a>
</g>
</g>
<!-- Node2 -->
<g id="Node000002" class="node">
<title>Node2</title>
<g id="a_Node000002"><a xlink:title=" ">
<polygon fill="#e0e0e0" stroke="#999999" points="108.57,-129 50.57,-129 50.57,-110 108.57,-110 108.57,-129"/>
<text text-anchor="middle" x="79.57" y="-117" font-family="Helvetica,sans-Serif" font-size="10.00">memory</text>
</a>
</g>
</g>
<!-- Node1&#45;&gt;Node2 -->
<g id="edge1_Node000001_Node000002" class="edge">
<title>Node1&#45;&gt;Node2</title>
<g id="a_edge1_Node000001_Node000002"><a xlink:title=" ">
<path fill="none" stroke="#63b8ff" d="M598.65,-338.64C467.58,-338.66 71.92,-335.26 33.57,-294 18.92,-278.24 -36.9,-349.28 39.57,-165 44.22,-153.8 52.94,-143.57 61.06,-135.74"/>
<polygon fill="#63b8ff" stroke="#63b8ff" points="63.42,-138.32 68.5,-129.03 58.73,-133.13 63.42,-138.32"/>
</a>
</g>
</g>
<!-- Node3 -->
<g id="Node000003" class="node">
<title>Node3</title>
<g id="a_Node000003"><a xlink:href="Entity_8h.html" target="_top" xlink:title="Simple struct for Entity in the ECS module (includes version)">
<polygon fill="white" stroke="#666666" points="829.07,-129 748.07,-129 748.07,-110 829.07,-110 829.07,-129"/>
<text text-anchor="middle" x="788.57" y="-117" font-family="Helvetica,sans-Serif" font-size="10.00">../ecs/Entity.h</text>
</a>
</g>
</g>
<!-- Node1&#45;&gt;Node3 -->
<g id="edge2_Node000001_Node000003" class="edge">
<title>Node1&#45;&gt;Node3</title>
<g id="a_edge2_Node000001_Node000003"><a xlink:title=" ">
<path fill="none" stroke="#63b8ff" d="M652.93,-329.81C681.71,-308.74 752.86,-251.66 780.57,-184 786.44,-169.69 788.29,-152.16 788.76,-139.15"/>
<polygon fill="#63b8ff" stroke="#63b8ff" points="792.26,-139.12 788.88,-129.07 785.26,-139.03 792.26,-139.12"/>
</a>
</g>
</g>
<!-- Node6 -->
<g id="Node000006" class="node">
<title>Node6</title>
<g id="a_Node000006"><a xlink:href="ecs__config_8h.html" target="_top" xlink:title="Configuration constants and type definitions for ECS modules.">
<polygon fill="white" stroke="#666666" points="916.07,-74 839.07,-74 839.07,-55 916.07,-55 916.07,-74"/>
<text text-anchor="middle" x="877.57" y="-62" font-family="Helvetica,sans-Serif" font-size="10.00">ecs_config.h</text>
</a>
</g>
</g>
<!-- Node1&#45;&gt;Node6 -->
<g id="edge10_Node000001_Node000006" class="edge">
<title>Node1&#45;&gt;Node6</title>
<g id="a_edge10_Node000001_Node000006"><a xlink:title=" ">
<path fill="none" stroke="#63b8ff" d="M682.36,-335.04C738.25,-329.58 833.27,-317.13 858.57,-294 880.31,-274.12 877.57,-259.96 877.57,-230.5 877.57,-230.5 877.57,-230.5 877.57,-173.5 877.57,-142.19 877.57,-105.77 877.57,-84.23"/>
<polygon fill="#63b8ff" stroke="#63b8ff" points="881.07,-84.18 877.57,-74.18 874.07,-84.18 881.07,-84.18"/>
</a>
</g>
</g>
<!-- Node9 -->
<g id="Node000009" class="node">
<title>Node9</title>
<g id="a_Node000009"><a xlink:href="IGameWorld_8h.html" target="_top" xlink:title="Declares the interface for interacting with the active game world state.">
<polygon fill="white" stroke="#666666" points="849.57,-294 763.57,-294 763.57,-275 849.57,-275 849.57,-294"/>
<text text-anchor="middle" x="806.57" y="-282" font-family="Helvetica,sans-Serif" font-size="10.00">IGameWorld.h</text>
</a>
</g>
</g>
<!-- Node1&#45;&gt;Node9 -->
<g id="edge8_Node000001_Node000009" class="edge">
<title>Node1&#45;&gt;Node9</title>
<g id="a_edge8_Node000001_Node000009"><a xlink:title=" ">
<path fill="none" stroke="#63b8ff" d="M667.24,-329.98C695.11,-321.09 739.03,-307.07 770.09,-297.15"/>
<polygon fill="#63b8ff" stroke="#63b8ff" points="771.23,-300.46 779.69,-294.08 769.1,-293.79 771.23,-300.46"/>
</a>
</g>
</g>
<!-- Node10 -->
<g id="Node000010" class="node">
<title>Node10</title>
<g id="a_Node000010"><a xlink:href="IComponentManager_8h.html" target="_top" xlink:title="System for managing components and their relationship to specific entities.">
<polygon fill="white" stroke="#666666" points="495.07,-294 340.07,-294 340.07,-275 495.07,-275 495.07,-294"/>
<text text-anchor="middle" x="417.57" y="-282" font-family="Helvetica,sans-Serif" font-size="10.00">../ecs/IComponentManager.h</text>
</a>
</g>
</g>
<!-- Node1&#45;&gt;Node10 -->
<g id="edge11_Node000001_Node000010" class="edge">
<title>Node1&#45;&gt;Node10</title>
<g id="a_edge11_Node000001_Node000010"><a xlink:title=" ">
<path fill="none" stroke="#63b8ff" d="M604.74,-329.98C566.41,-320.87 505.49,-306.4 463.63,-296.45"/>
<polygon fill="#63b8ff" stroke="#63b8ff" points="464.22,-292.99 453.68,-294.08 462.6,-299.8 464.22,-292.99"/>
</a>
</g>
</g>
<!-- Node20 -->
<g id="Node000020" class="node">
<title>Node20</title>
<g id="a_Node000020"><a xlink:href="IEntityManager_8h.html" target="_top" xlink:title="Interface for managing entities and their signatures.">
<polygon fill="white" stroke="#666666" points="1033.57,-184 905.57,-184 905.57,-165 1033.57,-165 1033.57,-184"/>
<text text-anchor="middle" x="969.57" y="-172" font-family="Helvetica,sans-Serif" font-size="10.00">../ecs/IEntityManager.h</text>
</a>
</g>
</g>
<!-- Node1&#45;&gt;Node20 -->
<g id="edge29_Node000001_Node000020" class="edge">
<title>Node1&#45;&gt;Node20</title>
<g id="a_edge29_Node000001_Node000020"><a xlink:title=" ">
<path fill="none" stroke="#63b8ff" d="M682.16,-335.12C744.33,-329.4 857.79,-316.23 891.57,-294 928.82,-269.48 952.4,-220.37 963.01,-193.72"/>
<polygon fill="#63b8ff" stroke="#63b8ff" points="966.38,-194.69 966.66,-184.1 959.84,-192.21 966.38,-194.69"/>
</a>
</g>
</g>
<!-- Node22 -->
<g id="Node000022" class="node">
<title>Node22</title>
<g id="a_Node000022"><a xlink:href="ISystemManager_8h.html" target="_top" xlink:title="Declares the interface for managing registered systems.">
<polygon fill="white" stroke="#666666" points="495.57,-184 359.57,-184 359.57,-165 495.57,-165 495.57,-184"/>
<text text-anchor="middle" x="427.57" y="-172" font-family="Helvetica,sans-Serif" font-size="10.00">../ecs/ISystemManager.h</text>
</a>
</g>
</g>
<!-- Node1&#45;&gt;Node22 -->
<g id="edge33_Node000001_Node000022" class="edge">
<title>Node1&#45;&gt;Node22</title>
<g id="a_edge33_Node000001_Node000022"><a xlink:title=" ">
<path fill="none" stroke="#63b8ff" d="M631.84,-329.82C610.96,-309.3 556.04,-256.78 504.57,-220 488.34,-208.4 468.88,-197.18 453.59,-188.9"/>
<polygon fill="#63b8ff" stroke="#63b8ff" points="455.14,-185.77 444.67,-184.16 451.85,-191.94 455.14,-185.77"/>
</a>
</g>
</g>
<!-- Node23 -->
<g id="Node000023" class="node">
<title>Node23</title>
<g id="a_Node000023"><a xlink:href="ICommandQueue_8h.html" target="_top" xlink:title="A lightweight wrapper for queuing commands.">
<polygon fill="white" stroke="#666666" points="152.57,-294 42.57,-294 42.57,-275 152.57,-275 152.57,-294"/>
<text text-anchor="middle" x="97.57" y="-282" font-family="Helvetica,sans-Serif" font-size="10.00">ICommandQueue.h</text>
</a>
</g>
</g>
<!-- Node1&#45;&gt;Node23 -->
<g id="edge36_Node000001_Node000023" class="edge">
<title>Node1&#45;&gt;Node23</title>
<g id="a_edge36_Node000001_Node000023"><a xlink:title=" ">
<path fill="none" stroke="#63b8ff" d="M598.87,-334.43C504.94,-325.26 276.26,-302.94 163.15,-291.9"/>
<polygon fill="#63b8ff" stroke="#63b8ff" points="163.19,-288.39 152.9,-290.9 162.51,-295.36 163.19,-288.39"/>
</a>
</g>
</g>
<!-- Node4 -->
<g id="Node000004" class="node">
<title>Node4</title>
<g id="a_Node000004"><a xlink:title=" ">
<polygon fill="#e0e0e0" stroke="#999999" points="737.57,-74 687.57,-74 687.57,-55 737.57,-55 737.57,-74"/>
<text text-anchor="middle" x="712.57" y="-62" font-family="Helvetica,sans-Serif" font-size="10.00">cstdint</text>
</a>
</g>
</g>
<!-- Node3&#45;&gt;Node4 -->
<g id="edge3_Node000003_Node000004" class="edge">
<title>Node3&#45;&gt;Node4</title>
<g id="a_edge3_Node000003_Node000004"><a xlink:title=" ">
<path fill="none" stroke="#63b8ff" d="M776.36,-109.98C764.8,-101.92 747.2,-89.65 733.41,-80.03"/>
<polygon fill="#63b8ff" stroke="#63b8ff" points="735.21,-77.02 725,-74.17 731.21,-82.76 735.21,-77.02"/>
</a>
</g>
</g>
<!-- Node5 -->
<g id="Node000005" class="node">
<title>Node5</title>
<g id="a_Node000005"><a xlink:title=" ">
<polygon fill="#e0e0e0" stroke="#999999" points="821.07,-74 756.07,-74 756.07,-55 821.07,-55 821.07,-74"/>
<text text-anchor="middle" x="788.57" y="-62" font-family="Helvetica,sans-Serif" font-size="10.00">functional</text>
</a>
</g>
</g>
<!-- Node3&#45;&gt;Node5 -->
<g id="edge4_Node000003_Node000005" class="edge">
<title>Node3&#45;&gt;Node5</title>
<g id="a_edge4_Node000003_Node000005"><a xlink:title=" ">
<path fill="none" stroke="#63b8ff" d="M788.57,-109.75C788.57,-102.8 788.57,-92.85 788.57,-84.13"/>
<polygon fill="#63b8ff" stroke="#63b8ff" points="792.07,-84.09 788.57,-74.09 785.07,-84.09 792.07,-84.09"/>
</a>
</g>
</g>
<!-- Node3&#45;&gt;Node6 -->
<g id="edge5_Node000003_Node000006" class="edge">
<title>Node3&#45;&gt;Node6</title>
<g id="a_edge5_Node000003_Node000006"><a xlink:title=" ">
<path fill="none" stroke="#63b8ff" d="M802.87,-109.98C816.67,-101.77 837.81,-89.18 854.09,-79.49"/>
<polygon fill="#63b8ff" stroke="#63b8ff" points="856.21,-82.29 863.01,-74.17 852.63,-76.28 856.21,-82.29"/>
</a>
</g>
</g>
<!-- Node7 -->
<g id="Node000007" class="node">
<title>Node7</title>
<g id="a_Node000007"><a xlink:title=" ">
<polygon fill="#e0e0e0" stroke="#999999" points="865.57,-19 821.57,-19 821.57,0 865.57,0 865.57,-19"/>
<text text-anchor="middle" x="843.57" y="-7" font-family="Helvetica,sans-Serif" font-size="10.00">bitset</text>
</a>
</g>
</g>
<!-- Node6&#45;&gt;Node7 -->
<g id="edge6_Node000006_Node000007" class="edge">
<title>Node6&#45;&gt;Node7</title>
<g id="a_edge6_Node000006_Node000007"><a xlink:title=" ">
<path fill="none" stroke="#63b8ff" d="M871.96,-54.75C867.25,-47.42 860.4,-36.73 854.6,-27.7"/>
<polygon fill="#63b8ff" stroke="#63b8ff" points="857.43,-25.62 849.08,-19.09 851.54,-29.4 857.43,-25.62"/>
</a>
</g>
</g>
<!-- Node8 -->
<g id="Node000008" class="node">
<title>Node8</title>
<g id="a_Node000008"><a xlink:title=" ">
<polygon fill="#e0e0e0" stroke="#999999" points="937.07,-19 884.07,-19 884.07,0 937.07,0 937.07,-19"/>
<text text-anchor="middle" x="910.57" y="-7" font-family="Helvetica,sans-Serif" font-size="10.00">cstddef</text>
</a>
</g>
</g>
<!-- Node6&#45;&gt;Node8 -->
<g id="edge7_Node000006_Node000008" class="edge">
<title>Node6&#45;&gt;Node8</title>
<g id="a_edge7_Node000006_Node000008"><a xlink:title=" ">
<path fill="none" stroke="#63b8ff" d="M883.02,-54.75C887.59,-47.42 894.24,-36.73 899.87,-27.7"/>
<polygon fill="#63b8ff" stroke="#63b8ff" points="902.91,-29.43 905.22,-19.09 896.97,-25.73 902.91,-29.43"/>
</a>
</g>
</g>
<!-- Node9&#45;&gt;Node3 -->
<g id="edge9_Node000009_Node000003" class="edge">
<title>Node9&#45;&gt;Node3</title>
<g id="a_edge9_Node000009_Node000003"><a xlink:title=" ">
<path fill="none" stroke="#63b8ff" d="M809.19,-274.97C814.82,-255.21 826.74,-204.94 815.57,-165 812.81,-155.12 807.18,-145.25 801.78,-137.32"/>
<polygon fill="#63b8ff" stroke="#63b8ff" points="804.45,-135.04 795.72,-129.03 798.79,-139.17 804.45,-135.04"/>
</a>
</g>
</g>
<!-- Node10&#45;&gt;Node2 -->
<g id="edge12_Node000010_Node000002" class="edge">
<title>Node10&#45;&gt;Node2</title>
<g id="a_edge12_Node000010_Node000002"><a xlink:title=" ">
<path fill="none" stroke="#63b8ff" d="M339.89,-278.36C296.81,-272.93 243.44,-261.79 200.57,-239 152.73,-213.57 111.07,-163.35 91.48,-137.21"/>
<polygon fill="#63b8ff" stroke="#63b8ff" points="94.23,-135.04 85.5,-129.04 88.58,-139.18 94.23,-135.04"/>
</a>
</g>
</g>
<!-- Node10&#45;&gt;Node3 -->
<g id="edge27_Node000010_Node000003" class="edge">
<title>Node10&#45;&gt;Node3</title>
<g id="a_edge27_Node000010_Node000003"><a xlink:title=" ">
<path fill="none" stroke="#63b8ff" d="M495.42,-279.18C571.06,-273.69 679.48,-262.02 714.57,-239 751.29,-214.91 773.08,-165.62 782.7,-138.83"/>
<polygon fill="#63b8ff" stroke="#63b8ff" points="786.08,-139.75 785.99,-129.16 779.45,-137.5 786.08,-139.75"/>
</a>
</g>
</g>
<!-- Node11 -->
<g id="Node000011" class="node">
<title>Node11</title>
<g id="a_Node000011"><a xlink:title=" ">
<polygon fill="#e0e0e0" stroke="#999999" points="495.07,-239 430.07,-239 430.07,-220 495.07,-220 495.07,-239"/>
<text text-anchor="middle" x="462.57" y="-227" font-family="Helvetica,sans-Serif" font-size="10.00">typeindex</text>
</a>
</g>
</g>
<!-- Node10&#45;&gt;Node11 -->
<g id="edge13_Node000010_Node000011" class="edge">
<title>Node10&#45;&gt;Node11</title>
<g id="a_edge13_Node000010_Node000011"><a xlink:title=" ">
<path fill="none" stroke="#63b8ff" d="M425,-274.75C431.42,-267.18 440.88,-256.05 448.69,-246.84"/>
<polygon fill="#63b8ff" stroke="#63b8ff" points="451.48,-248.98 455.28,-239.09 446.14,-244.45 451.48,-248.98"/>
</a>
</g>
</g>
<!-- Node12 -->
<g id="Node000012" class="node">
<title>Node12</title>
<g id="a_Node000012"><a xlink:title=" ">
<polygon fill="#e0e0e0" stroke="#999999" points="607.07,-184 514.07,-184 514.07,-165 607.07,-165 607.07,-184"/>
<text text-anchor="middle" x="560.57" y="-172" font-family="Helvetica,sans-Serif" font-size="10.00">unordered_map</text>
</a>
</g>
</g>
<!-- Node10&#45;&gt;Node12 -->
<g id="edge14_Node000010_Node000012" class="edge">
<title>Node10&#45;&gt;Node12</title>
<g id="a_edge14_Node000010_Node000012"><a xlink:title=" ">
<path fill="none" stroke="#63b8ff" d="M415.28,-274.63C412.41,-261.26 409.22,-235.86 421.57,-220 432.34,-206.17 472.07,-194.3 506.3,-186.3"/>
<polygon fill="#63b8ff" stroke="#63b8ff" points="507.27,-189.67 516.25,-184.04 505.72,-182.84 507.27,-189.67"/>
</a>
</g>
</g>
<!-- Node13 -->
<g id="Node000013" class="node">
<title>Node13</title>
<g id="a_Node000013"><a xlink:href="ConsoleSink_8h.html" target="_top" xlink:title="Concrete implementation of ISink that logs to the console.">
<polygon fill="white" stroke="#666666" points="366.07,-239 209.07,-239 209.07,-220 366.07,-220 366.07,-239"/>
<text text-anchor="middle" x="287.57" y="-227" font-family="Helvetica,sans-Serif" font-size="10.00">../logger/sinks/ConsoleSink.h</text>
</a>
</g>
</g>
<!-- Node10&#45;&gt;Node13 -->
<g id="edge15_Node000010_Node000013" class="edge">
<title>Node10&#45;&gt;Node13</title>
<g id="a_edge15_Node000010_Node000013"><a xlink:title=" ">
<path fill="none" stroke="#63b8ff" d="M396.69,-274.98C375.49,-266.34 342.45,-252.87 318.27,-243.02"/>
<polygon fill="#63b8ff" stroke="#63b8ff" points="319.42,-239.7 308.84,-239.17 316.78,-246.19 319.42,-239.7"/>
</a>
</g>
</g>
<!-- Node18 -->
<g id="Node000018" class="node">
<title>Node18</title>
<g id="a_Node000018"><a xlink:href="DenseComponentArray_8h.html" target="_top" xlink:title="Provides dense storage for components of a specific type.">
<polygon fill="white" stroke="#666666" points="689.07,-239 552.07,-239 552.07,-220 689.07,-220 689.07,-239"/>
<text text-anchor="middle" x="620.57" y="-227" font-family="Helvetica,sans-Serif" font-size="10.00">DenseComponentArray.h</text>
</a>
</g>
</g>
<!-- Node10&#45;&gt;Node18 -->
<g id="edge23_Node000010_Node000018" class="edge">
<title>Node10&#45;&gt;Node18</title>
<g id="a_edge23_Node000010_Node000018"><a xlink:title=" ">
<path fill="none" stroke="#63b8ff" d="M450.19,-274.98C484.86,-265.93 539.84,-251.58 577.92,-241.64"/>
<polygon fill="#63b8ff" stroke="#63b8ff" points="578.91,-244.99 587.7,-239.08 577.14,-238.22 578.91,-244.99"/>
</a>
</g>
</g>
<!-- Node19 -->
<g id="Node000019" class="node">
<title>Node19</title>
<g id="a_Node000019"><a xlink:href="IComponentArray_8h.html" target="_top" xlink:title="A data structure built for managing a specific component type.">
<polygon fill="white" stroke="#666666" points="735.57,-184 625.57,-184 625.57,-165 735.57,-165 735.57,-184"/>
<text text-anchor="middle" x="680.57" y="-172" font-family="Helvetica,sans-Serif" font-size="10.00">IComponentArray.h</text>
</a>
</g>
</g>
<!-- Node10&#45;&gt;Node19 -->
<g id="edge28_Node000010_Node000019" class="edge">
<title>Node10&#45;&gt;Node19</title>
<g id="a_edge28_Node000010_Node000019"><a xlink:title=" ">
<path fill="none" stroke="#63b8ff" d="M495.31,-282.11C569.24,-278.95 672.87,-269.09 698.57,-239 709.58,-226.12 701.86,-206.93 693.38,-193.02"/>
<polygon fill="#63b8ff" stroke="#63b8ff" points="696.07,-190.75 687.61,-184.38 690.25,-194.63 696.07,-190.75"/>
</a>
</g>
</g>
<!-- Node14 -->
<g id="Node000014" class="node">
<title>Node14</title>
<g id="a_Node000014"><a xlink:title=" ">
<polygon fill="#e0e0e0" stroke="#999999" points="341.57,-184 281.57,-184 281.57,-165 341.57,-165 341.57,-184"/>
<text text-anchor="middle" x="311.57" y="-172" font-family="Helvetica,sans-Serif" font-size="10.00">iostream</text>
</a>
</g>
</g>
<!-- Node13&#45;&gt;Node14 -->
<g id="edge16_Node000013_Node000014" class="edge">
<title>Node13&#45;&gt;Node14</title>
<g id="a_edge16_Node000013_Node000014"><a xlink:title=" ">
<path fill="none" stroke="#63b8ff" d="M291.54,-219.75C294.79,-212.57 299.49,-202.18 303.53,-193.27"/>
<polygon fill="#63b8ff" stroke="#63b8ff" points="306.75,-194.64 307.68,-184.09 300.37,-191.75 306.75,-194.64"/>
</a>
</g>
</g>
<!-- Node15 -->
<g id="Node000015" class="node">
<title>Node15</title>
<g id="a_Node000015"><a xlink:href="Logger_8h.html" target="_top" xlink:title="Central static logging interface for the application.">
<polygon fill="white" stroke="#666666" points="225.07,-184 158.07,-184 158.07,-165 225.07,-165 225.07,-184"/>
<text text-anchor="middle" x="191.57" y="-172" font-family="Helvetica,sans-Serif" font-size="10.00">../Logger.h</text>
</a>
</g>
</g>
<!-- Node13&#45;&gt;Node15 -->
<g id="edge17_Node000013_Node000015" class="edge">
<title>Node13&#45;&gt;Node15</title>
<g id="a_edge17_Node000013_Node000015"><a xlink:title=" ">
<path fill="none" stroke="#63b8ff" d="M272.15,-219.98C257.12,-211.69 234.03,-198.94 216.41,-189.22"/>
<polygon fill="#63b8ff" stroke="#63b8ff" points="217.72,-185.94 207.28,-184.17 214.34,-192.07 217.72,-185.94"/>
</a>
</g>
</g>
<!-- Node17 -->
<g id="Node000017" class="node">
<title>Node17</title>
<g id="a_Node000017"><a xlink:href="ISink_8h.html" target="_top" xlink:title="Declares the logging sink interface.">
<polygon fill="white" stroke="#666666" points="292.57,-129 214.57,-129 214.57,-110 292.57,-110 292.57,-129"/>
<text text-anchor="middle" x="253.57" y="-117" font-family="Helvetica,sans-Serif" font-size="10.00">sinks/ISink.h</text>
</a>
</g>
</g>
<!-- Node13&#45;&gt;Node17 -->
<g id="edge22_Node000013_Node000017" class="edge">
<title>Node13&#45;&gt;Node17</title>
<g id="a_edge22_Node000013_Node000017"><a xlink:title=" ">
<path fill="none" stroke="#63b8ff" d="M284.61,-220C281.52,-211.06 276.57,-196.59 272.57,-184 267.77,-168.9 262.64,-151.68 258.92,-138.98"/>
<polygon fill="#63b8ff" stroke="#63b8ff" points="262.22,-137.78 256.06,-129.16 255.49,-139.74 262.22,-137.78"/>
</a>
</g>
</g>
<!-- Node15&#45;&gt;Node2 -->
<g id="edge18_Node000015_Node000002" class="edge">
<title>Node15&#45;&gt;Node2</title>
<g id="a_edge18_Node000015_Node000002"><a xlink:title=" ">
<path fill="none" stroke="#63b8ff" d="M173.58,-164.98C155.64,-156.5 127.86,-143.35 107.14,-133.54"/>
<polygon fill="#63b8ff" stroke="#63b8ff" points="108.43,-130.28 97.89,-129.17 105.44,-136.61 108.43,-130.28"/>
</a>
</g>
</g>
<!-- Node16 -->
<g id="Node000016" class="node">
<title>Node16</title>
<g id="a_Node000016"><a xlink:title=" ">
<polygon fill="#e0e0e0" stroke="#999999" points="257.07,-74 184.07,-74 184.07,-55 257.07,-55 257.07,-74"/>
<text text-anchor="middle" x="220.57" y="-62" font-family="Helvetica,sans-Serif" font-size="10.00">string_view</text>
</a>
</g>
</g>
<!-- Node15&#45;&gt;Node16 -->
<g id="edge19_Node000015_Node000016" class="edge">
<title>Node15&#45;&gt;Node16</title>
<g id="a_edge19_Node000015_Node000016"><a xlink:title=" ">
<path fill="none" stroke="#63b8ff" d="M193.18,-164.8C195.52,-152.5 200.19,-129.36 205.57,-110 208,-101.26 211.15,-91.71 213.94,-83.71"/>
<polygon fill="#63b8ff" stroke="#63b8ff" points="217.24,-84.87 217.3,-74.28 210.65,-82.52 217.24,-84.87"/>
</a>
</g>
</g>
<!-- Node15&#45;&gt;Node17 -->
<g id="edge20_Node000015_Node000017" class="edge">
<title>Node15&#45;&gt;Node17</title>
<g id="a_edge20_Node000015_Node000017"><a xlink:title=" ">
<path fill="none" stroke="#63b8ff" d="M201.53,-164.98C210.7,-157.15 224.51,-145.34 235.6,-135.86"/>
<polygon fill="#63b8ff" stroke="#63b8ff" points="238.1,-138.33 243.43,-129.17 233.55,-133.01 238.1,-138.33"/>
</a>
</g>
</g>
<!-- Node17&#45;&gt;Node16 -->
<g id="edge21_Node000017_Node000016" class="edge">
<title>Node17&#45;&gt;Node16</title>
<g id="a_edge21_Node000017_Node000016"><a xlink:title=" ">
<path fill="none" stroke="#63b8ff" d="M248.12,-109.75C243.56,-102.42 236.9,-91.73 231.28,-82.7"/>
<polygon fill="#63b8ff" stroke="#63b8ff" points="234.18,-80.73 225.92,-74.09 228.23,-84.43 234.18,-80.73"/>
</a>
</g>
</g>
<!-- Node18&#45;&gt;Node12 -->
<g id="edge26_Node000018_Node000012" class="edge">
<title>Node18&#45;&gt;Node12</title>
<g id="a_edge26_Node000018_Node000012"><a xlink:title=" ">
<path fill="none" stroke="#63b8ff" d="M610.93,-219.98C602.06,-212.15 588.7,-200.34 577.96,-190.86"/>
<polygon fill="#63b8ff" stroke="#63b8ff" points="580.2,-188.17 570.39,-184.17 575.57,-193.41 580.2,-188.17"/>
</a>
</g>
</g>
<!-- Node18&#45;&gt;Node19 -->
<g id="edge24_Node000018_Node000019" class="edge">
<title>Node18&#45;&gt;Node19</title>
<g id="a_edge24_Node000018_Node000019"><a xlink:title=" ">
<path fill="none" stroke="#63b8ff" d="M630.21,-219.98C639.08,-212.15 652.45,-200.34 663.18,-190.86"/>
<polygon fill="#63b8ff" stroke="#63b8ff" points="665.58,-193.41 670.76,-184.17 660.94,-188.17 665.58,-193.41"/>
</a>
</g>
</g>
<!-- Node19&#45;&gt;Node3 -->
<g id="edge25_Node000019_Node000003" class="edge">
<title>Node19&#45;&gt;Node3</title>
<g id="a_edge25_Node000019_Node000003"><a xlink:title=" ">
<path fill="none" stroke="#63b8ff" d="M697.92,-164.98C715.14,-156.54 741.77,-143.47 761.72,-133.68"/>
<polygon fill="#63b8ff" stroke="#63b8ff" points="763.47,-136.72 770.9,-129.17 760.38,-130.43 763.47,-136.72"/>
</a>
</g>
</g>
<!-- Node20&#45;&gt;Node3 -->
<g id="edge31_Node000020_Node000003" class="edge">
<title>Node20&#45;&gt;Node3</title>
<g id="a_edge31_Node000020_Node000003"><a xlink:title=" ">
<path fill="none" stroke="#63b8ff" d="M940.49,-164.98C909.97,-156.05 861.81,-141.94 827.91,-132.02"/>
<polygon fill="#63b8ff" stroke="#63b8ff" points="828.46,-128.53 817.88,-129.08 826.49,-135.25 828.46,-128.53"/>
</a>
</g>
</g>
<!-- Node20&#45;&gt;Node6 -->
<g id="edge32_Node000020_Node000006" class="edge">
<title>Node20&#45;&gt;Node6</title>
<g id="a_edge32_Node000020_Node000006"><a xlink:title=" ">
<path fill="none" stroke="#63b8ff" d="M979.5,-164.81C992.78,-152.13 1013.26,-128.08 1000.57,-110 983.8,-86.1 952.85,-74.98 926.19,-69.83"/>
<polygon fill="#63b8ff" stroke="#63b8ff" points="926.67,-66.37 916.23,-68.14 925.5,-73.27 926.67,-66.37"/>
</a>
</g>
</g>
<!-- Node21 -->
<g id="Node000021" class="node">
<title>Node21</title>
<g id="a_Node000021"><a xlink:title=" ">
<polygon fill="#e0e0e0" stroke="#999999" points="991.57,-129 905.57,-129 905.57,-110 991.57,-110 991.57,-129"/>
<text text-anchor="middle" x="948.57" y="-117" font-family="Helvetica,sans-Serif" font-size="10.00">unordered_set</text>
</a>
</g>
</g>
<!-- Node20&#45;&gt;Node21 -->
<g id="edge30_Node000020_Node000021" class="edge">
<title>Node20&#45;&gt;Node21</title>
<g id="a_edge30_Node000020_Node000021"><a xlink:title=" ">
<path fill="none" stroke="#63b8ff" d="M966.1,-164.75C963.29,-157.65 959.23,-147.4 955.73,-138.56"/>
<polygon fill="#63b8ff" stroke="#63b8ff" points="958.91,-137.1 951.98,-129.09 952.41,-139.68 958.91,-137.1"/>
</a>
</g>
</g>
<!-- Node22&#45;&gt;Node3 -->
<g id="edge34_Node000022_Node000003" class="edge">
<title>Node22&#45;&gt;Node3</title>
<g id="a_edge34_Node000022_Node000003"><a xlink:title=" ">
<path fill="none" stroke="#63b8ff" d="M485.57,-164.98C555.29,-154.75 671.17,-137.74 737.6,-127.98"/>
<polygon fill="#63b8ff" stroke="#63b8ff" points="738.43,-131.4 747.82,-126.48 737.42,-124.47 738.43,-131.4"/>
</a>
</g>
</g>
<!-- Node22&#45;&gt;Node6 -->
<g id="edge35_Node000022_Node000006" class="edge">
<title>Node22&#45;&gt;Node6</title>
<g id="a_edge35_Node000022_Node000006"><a xlink:title=" ">
<path fill="none" stroke="#63b8ff" d="M463.26,-164.94C544.33,-145.48 742.26,-97.98 832,-76.44"/>
<polygon fill="#63b8ff" stroke="#63b8ff" points="832.97,-79.8 841.88,-74.07 831.34,-73 832.97,-79.8"/>
</a>
</g>
</g>
<!-- Node23&#45;&gt;Node2 -->
<g id="edge37_Node000023_Node000002" class="edge">
<title>Node23&#45;&gt;Node2</title>
<g id="a_edge37_Node000023_Node000002"><a xlink:title=" ">
<path fill="none" stroke="#63b8ff" d="M82.44,-274.73C70.76,-266.99 55.46,-254.55 48.57,-239 35.26,-208.93 38.72,-196.38 48.57,-165 51.8,-154.71 58.35,-144.72 64.6,-136.82"/>
<polygon fill="#63b8ff" stroke="#63b8ff" points="67.3,-139.04 71.09,-129.15 61.96,-134.52 67.3,-139.04"/>
</a>
</g>
</g>
<!-- Node24 -->
<g id="Node000024" class="node">
<title>Node24</title>
<g id="a_Node000024"><a xlink:href="ICommand_8h.html" target="_top" xlink:title="An abstract representation of an action to be executed in the game engine.">
<polygon fill="white" stroke="#666666" points="137.07,-239 58.07,-239 58.07,-220 137.07,-220 137.07,-239"/>
<text text-anchor="middle" x="97.57" y="-227" font-family="Helvetica,sans-Serif" font-size="10.00">ICommand.h</text>
</a>
</g>
</g>
<!-- Node23&#45;&gt;Node24 -->
<g id="edge38_Node000023_Node000024" class="edge">
<title>Node23&#45;&gt;Node24</title>
<g id="a_edge38_Node000023_Node000024"><a xlink:title=" ">
<path fill="none" stroke="#63b8ff" d="M97.57,-274.75C97.57,-267.8 97.57,-257.85 97.57,-249.13"/>
<polygon fill="#63b8ff" stroke="#63b8ff" points="101.07,-249.09 97.57,-239.09 94.07,-249.09 101.07,-249.09"/>
</a>
</g>
</g>
<!-- Node24&#45;&gt;Node22 -->
<g id="edge40_Node000024_Node000022" class="edge">
<title>Node24&#45;&gt;Node22</title>
<g id="a_edge40_Node000024_Node000022"><a xlink:title=" ">
<path fill="none" stroke="#63b8ff" d="M137.38,-222.11C193.79,-213.05 297.58,-196.38 364.54,-185.62"/>
<polygon fill="#63b8ff" stroke="#63b8ff" points="365.22,-189.06 374.54,-184.02 364.11,-182.15 365.22,-189.06"/>
</a>
</g>
</g>
<!-- Node25 -->
<g id="Node000025" class="node">
<title>Node25</title>
<g id="a_Node000025"><a xlink:title=" ">
<polygon fill="#e0e0e0" stroke="#999999" points="101.57,-184 57.57,-184 57.57,-165 101.57,-165 101.57,-184"/>
<text text-anchor="middle" x="79.57" y="-172" font-family="Helvetica,sans-Serif" font-size="10.00">string</text>
</a>
</g>
</g>
<!-- Node24&#45;&gt;Node25 -->
<g id="edge39_Node000024_Node000025" class="edge">
<title>Node24&#45;&gt;Node25</title>
<g id="a_edge39_Node000024_Node000025"><a xlink:title=" ">
<path fill="none" stroke="#63b8ff" d="M94.6,-219.75C92.21,-212.72 88.78,-202.62 85.8,-193.84"/>
<polygon fill="#63b8ff" stroke="#63b8ff" points="89.02,-192.43 82.49,-184.09 82.39,-194.68 89.02,-192.43"/>
</a>
</g>
</g>
</g>
</svg>
