<?xml version="1.0" encoding="UTF-8" standalone="no"?>
<!DOCTYPE svg PUBLIC "-//W3C//DTD SVG 1.1//EN"
 "http://www.w3.org/Graphics/SVG/1.1/DTD/svg11.dtd">
<!-- Generated by graphviz version 2.43.0 (0)
 -->
<!-- Title: GameWorld.h Pages: 1 -->
<svg width="797pt" height="357pt"
 viewBox="0.00 0.00 797.00 357.00" xmlns="http://www.w3.org/2000/svg" xmlns:xlink="http://www.w3.org/1999/xlink">
<g id="graph0" class="graph" transform="scale(1 1) rotate(0) translate(4 353)">
<title>GameWorld.h</title>
<!-- Node1 -->
<g id="Node000001" class="node">
<title>Node1</title>
<g id="a_Node000001"><a xlink:title="Defines the concrete game world used by the main loop.">
<polygon fill="#999999" stroke="#666666" points="268.5,-349 185.5,-349 185.5,-330 268.5,-330 268.5,-349"/>
<text text-anchor="middle" x="227" y="-337" font-family="Helvetica,sans-Serif" font-size="10.00">GameWorld.h</text>
</a>
</g>
</g>
<!-- Node2 -->
<g id="Node000002" class="node">
<title>Node2</title>
<g id="a_Node000002"><a xlink:title=" ">
<polygon fill="#e0e0e0" stroke="#999999" points="789,-129 731,-129 731,-110 789,-110 789,-129"/>
<text text-anchor="middle" x="760" y="-117" font-family="Helvetica,sans-Serif" font-size="10.00">memory</text>
</a>
</g>
</g>
<!-- Node1&#45;&gt;Node2 -->
<g id="edge1_Node000001_Node000002" class="edge">
<title>Node1&#45;&gt;Node2</title>
<g id="a_edge1_Node000001_Node000002"><a xlink:title=" ">
<path fill="none" stroke="#63b8ff" d="M268.66,-335.54C377.69,-327.02 667.99,-299.08 740,-239 766.88,-216.57 769.73,-199.9 767,-165 766.34,-156.52 764.97,-147.22 763.63,-139.32"/>
<polygon fill="#63b8ff" stroke="#63b8ff" points="767.04,-138.53 761.8,-129.32 760.15,-139.78 767.04,-138.53"/>
</a>
</g>
</g>
<!-- Node3 -->
<g id="Node000003" class="node">
<title>Node3</title>
<g id="a_Node000003"><a xlink:href="Entity_8h.html" target="_top" xlink:title="Simple struct for Entity in the ECS module (includes version)">
<polygon fill="white" stroke="#666666" points="234.5,-129 153.5,-129 153.5,-110 234.5,-110 234.5,-129"/>
<text text-anchor="middle" x="194" y="-117" font-family="Helvetica,sans-Serif" font-size="10.00">../ecs/Entity.h</text>
</a>
</g>
</g>
<!-- Node1&#45;&gt;Node3 -->
<g id="edge2_Node000001_Node000003" class="edge">
<title>Node1&#45;&gt;Node3</title>
<g id="a_edge2_Node000001_Node000003"><a xlink:title=" ">
<path fill="none" stroke="#63b8ff" d="M210.97,-329.95C198.59,-322.35 182.35,-309.97 175,-294 150.98,-241.82 172.95,-171.78 185.97,-138.94"/>
<polygon fill="#63b8ff" stroke="#63b8ff" points="189.37,-139.89 189.97,-129.31 182.9,-137.21 189.37,-139.89"/>
</a>
</g>
</g>
<!-- Node9 -->
<g id="Node000009" class="node">
<title>Node9</title>
<g id="a_Node000009"><a xlink:href="IEntityManager_8h.html" target="_top" xlink:title="Interface for managing entities and their signatures.">
<polygon fill="white" stroke="#666666" points="128,-184 0,-184 0,-165 128,-165 128,-184"/>
<text text-anchor="middle" x="64" y="-172" font-family="Helvetica,sans-Serif" font-size="10.00">../ecs/IEntityManager.h</text>
</a>
</g>
</g>
<!-- Node1&#45;&gt;Node9 -->
<g id="edge8_Node000001_Node000009" class="edge">
<title>Node1&#45;&gt;Node9</title>
<g id="a_edge8_Node000001_Node000009"><a xlink:title=" ">
<path fill="none" stroke="#63b8ff" d="M203.39,-329.95C185.14,-322.5 160.03,-310.32 142,-294 109.25,-264.37 84.12,-218.12 71.99,-193.06"/>
<polygon fill="#63b8ff" stroke="#63b8ff" points="75.16,-191.57 67.74,-184.01 68.82,-194.55 75.16,-191.57"/>
</a>
</g>
</g>
<!-- Node11 -->
<g id="Node000011" class="node">
<title>Node11</title>
<g id="a_Node000011"><a xlink:href="IComponentManager_8h.html" target="_top" xlink:title="System for managing components and their relationship to specific entities.">
<polygon fill="white" stroke="#666666" points="536.5,-294 381.5,-294 381.5,-275 536.5,-275 536.5,-294"/>
<text text-anchor="middle" x="459" y="-282" font-family="Helvetica,sans-Serif" font-size="10.00">../ecs/IComponentManager.h</text>
</a>
</g>
</g>
<!-- Node1&#45;&gt;Node11 -->
<g id="edge12_Node000001_Node000011" class="edge">
<title>Node1&#45;&gt;Node11</title>
<g id="a_edge12_Node000001_Node000011"><a xlink:title=" ">
<path fill="none" stroke="#63b8ff" d="M264.27,-329.98C304.32,-320.84 368.07,-306.27 411.64,-296.32"/>
<polygon fill="#63b8ff" stroke="#63b8ff" points="412.46,-299.72 421.43,-294.08 410.9,-292.9 412.46,-299.72"/>
</a>
</g>
</g>
<!-- Node21 -->
<g id="Node000021" class="node">
<title>Node21</title>
<g id="a_Node000021"><a xlink:href="IGameWorld_8h.html" target="_top" xlink:title="Declares the interface for interacting with the active game world state.">
<polygon fill="white" stroke="#666666" points="270,-294 184,-294 184,-275 270,-275 270,-294"/>
<text text-anchor="middle" x="227" y="-282" font-family="Helvetica,sans-Serif" font-size="10.00">IGameWorld.h</text>
</a>
</g>
</g>
<!-- Node1&#45;&gt;Node21 -->
<g id="edge30_Node000001_Node000021" class="edge">
<title>Node1&#45;&gt;Node21</title>
<g id="a_edge30_Node000001_Node000021"><a xlink:title=" ">
<path fill="none" stroke="#63b8ff" d="M227,-329.75C227,-322.8 227,-312.85 227,-304.13"/>
<polygon fill="#63b8ff" stroke="#63b8ff" points="230.5,-304.09 227,-294.09 223.5,-304.09 230.5,-304.09"/>
</a>
</g>
</g>
<!-- Node4 -->
<g id="Node000004" class="node">
<title>Node4</title>
<g id="a_Node000004"><a xlink:title=" ">
<polygon fill="#e0e0e0" stroke="#999999" points="181,-74 131,-74 131,-55 181,-55 181,-74"/>
<text text-anchor="middle" x="156" y="-62" font-family="Helvetica,sans-Serif" font-size="10.00">cstdint</text>
</a>
</g>
</g>
<!-- Node3&#45;&gt;Node4 -->
<g id="edge3_Node000003_Node000004" class="edge">
<title>Node3&#45;&gt;Node4</title>
<g id="a_edge3_Node000003_Node000004"><a xlink:title=" ">
<path fill="none" stroke="#63b8ff" d="M187.73,-109.75C182.41,-102.34 174.64,-91.5 168.12,-82.41"/>
<polygon fill="#63b8ff" stroke="#63b8ff" points="170.83,-80.18 162.16,-74.09 165.14,-84.26 170.83,-80.18"/>
</a>
</g>
</g>
<!-- Node5 -->
<g id="Node000005" class="node">
<title>Node5</title>
<g id="a_Node000005"><a xlink:title=" ">
<polygon fill="#e0e0e0" stroke="#999999" points="264.5,-74 199.5,-74 199.5,-55 264.5,-55 264.5,-74"/>
<text text-anchor="middle" x="232" y="-62" font-family="Helvetica,sans-Serif" font-size="10.00">functional</text>
</a>
</g>
</g>
<!-- Node3&#45;&gt;Node5 -->
<g id="edge4_Node000003_Node000005" class="edge">
<title>Node3&#45;&gt;Node5</title>
<g id="a_edge4_Node000003_Node000005"><a xlink:title=" ">
<path fill="none" stroke="#63b8ff" d="M200.27,-109.75C205.59,-102.34 213.36,-91.5 219.88,-82.41"/>
<polygon fill="#63b8ff" stroke="#63b8ff" points="222.86,-84.26 225.84,-74.09 217.17,-80.18 222.86,-84.26"/>
</a>
</g>
</g>
<!-- Node6 -->
<g id="Node000006" class="node">
<title>Node6</title>
<g id="a_Node000006"><a xlink:href="ecs__config_8h.html" target="_top" xlink:title="Configuration constants and type definitions for ECS modules.">
<polygon fill="white" stroke="#666666" points="105.5,-74 28.5,-74 28.5,-55 105.5,-55 105.5,-74"/>
<text text-anchor="middle" x="67" y="-62" font-family="Helvetica,sans-Serif" font-size="10.00">ecs_config.h</text>
</a>
</g>
</g>
<!-- Node3&#45;&gt;Node6 -->
<g id="edge5_Node000003_Node000006" class="edge">
<title>Node3&#45;&gt;Node6</title>
<g id="a_edge5_Node000003_Node000006"><a xlink:title=" ">
<path fill="none" stroke="#63b8ff" d="M173.6,-109.98C152.98,-101.38 120.89,-87.99 97.31,-78.15"/>
<polygon fill="#63b8ff" stroke="#63b8ff" points="98.35,-74.79 87.78,-74.17 95.66,-81.25 98.35,-74.79"/>
</a>
</g>
</g>
<!-- Node7 -->
<g id="Node000007" class="node">
<title>Node7</title>
<g id="a_Node000007"><a xlink:title=" ">
<polygon fill="#e0e0e0" stroke="#999999" points="56,-19 12,-19 12,0 56,0 56,-19"/>
<text text-anchor="middle" x="34" y="-7" font-family="Helvetica,sans-Serif" font-size="10.00">bitset</text>
</a>
</g>
</g>
<!-- Node6&#45;&gt;Node7 -->
<g id="edge6_Node000006_Node000007" class="edge">
<title>Node6&#45;&gt;Node7</title>
<g id="a_edge6_Node000006_Node000007"><a xlink:title=" ">
<path fill="none" stroke="#63b8ff" d="M61.55,-54.75C56.99,-47.42 50.33,-36.73 44.71,-27.7"/>
<polygon fill="#63b8ff" stroke="#63b8ff" points="47.6,-25.73 39.35,-19.09 41.66,-29.43 47.6,-25.73"/>
</a>
</g>
</g>
<!-- Node8 -->
<g id="Node000008" class="node">
<title>Node8</title>
<g id="a_Node000008"><a xlink:title=" ">
<polygon fill="#e0e0e0" stroke="#999999" points="127.5,-19 74.5,-19 74.5,0 127.5,0 127.5,-19"/>
<text text-anchor="middle" x="101" y="-7" font-family="Helvetica,sans-Serif" font-size="10.00">cstddef</text>
</a>
</g>
</g>
<!-- Node6&#45;&gt;Node8 -->
<g id="edge7_Node000006_Node000008" class="edge">
<title>Node6&#45;&gt;Node8</title>
<g id="a_edge7_Node000006_Node000008"><a xlink:title=" ">
<path fill="none" stroke="#63b8ff" d="M72.61,-54.75C77.32,-47.42 84.17,-36.73 89.97,-27.7"/>
<polygon fill="#63b8ff" stroke="#63b8ff" points="93.04,-29.4 95.49,-19.09 87.14,-25.62 93.04,-29.4"/>
</a>
</g>
</g>
<!-- Node9&#45;&gt;Node3 -->
<g id="edge10_Node000009_Node000003" class="edge">
<title>Node9&#45;&gt;Node3</title>
<g id="a_edge10_Node000009_Node000003"><a xlink:title=" ">
<path fill="none" stroke="#63b8ff" d="M84.89,-164.98C106.08,-156.34 139.13,-142.87 163.3,-133.02"/>
<polygon fill="#63b8ff" stroke="#63b8ff" points="164.79,-136.19 172.73,-129.17 162.15,-129.7 164.79,-136.19"/>
</a>
</g>
</g>
<!-- Node9&#45;&gt;Node6 -->
<g id="edge11_Node000009_Node000006" class="edge">
<title>Node9&#45;&gt;Node6</title>
<g id="a_edge11_Node000009_Node000006"><a xlink:title=" ">
<path fill="none" stroke="#63b8ff" d="M56.8,-164.62C47.85,-152.5 34.41,-129.98 40,-110 42.76,-100.12 48.39,-90.25 53.79,-82.32"/>
<polygon fill="#63b8ff" stroke="#63b8ff" points="56.78,-84.17 59.85,-74.03 51.13,-80.04 56.78,-84.17"/>
</a>
</g>
</g>
<!-- Node10 -->
<g id="Node000010" class="node">
<title>Node10</title>
<g id="a_Node000010"><a xlink:title=" ">
<polygon fill="#e0e0e0" stroke="#999999" points="135,-129 49,-129 49,-110 135,-110 135,-129"/>
<text text-anchor="middle" x="92" y="-117" font-family="Helvetica,sans-Serif" font-size="10.00">unordered_set</text>
</a>
</g>
</g>
<!-- Node9&#45;&gt;Node10 -->
<g id="edge9_Node000009_Node000010" class="edge">
<title>Node9&#45;&gt;Node10</title>
<g id="a_edge9_Node000009_Node000010"><a xlink:title=" ">
<path fill="none" stroke="#63b8ff" d="M68.62,-164.75C72.46,-157.49 78.02,-146.95 82.76,-137.98"/>
<polygon fill="#63b8ff" stroke="#63b8ff" points="85.89,-139.57 87.46,-129.09 79.7,-136.3 85.89,-139.57"/>
</a>
</g>
</g>
<!-- Node11&#45;&gt;Node2 -->
<g id="edge13_Node000011_Node000002" class="edge">
<title>Node11&#45;&gt;Node2</title>
<g id="a_edge13_Node000011_Node000002"><a xlink:title=" ">
<path fill="none" stroke="#63b8ff" d="M536.81,-278.83C603.2,-273.32 692.07,-261.85 719,-239 748.64,-213.85 756.88,-166.13 759.15,-139.56"/>
<polygon fill="#63b8ff" stroke="#63b8ff" points="762.66,-139.5 759.82,-129.3 755.68,-139.05 762.66,-139.5"/>
</a>
</g>
</g>
<!-- Node11&#45;&gt;Node3 -->
<g id="edge28_Node000011_Node000003" class="edge">
<title>Node11&#45;&gt;Node3</title>
<g id="a_edge28_Node000011_Node000003"><a xlink:title=" ">
<path fill="none" stroke="#63b8ff" d="M381.07,-275.89C348.06,-269.79 310.49,-258.8 281,-239 261.01,-225.58 223.23,-167.58 204.74,-137.99"/>
<polygon fill="#63b8ff" stroke="#63b8ff" points="207.51,-135.81 199.26,-129.16 201.56,-139.5 207.51,-135.81"/>
</a>
</g>
</g>
<!-- Node12 -->
<g id="Node000012" class="node">
<title>Node12</title>
<g id="a_Node000012"><a xlink:title=" ">
<polygon fill="#e0e0e0" stroke="#999999" points="693.5,-239 628.5,-239 628.5,-220 693.5,-220 693.5,-239"/>
<text text-anchor="middle" x="661" y="-227" font-family="Helvetica,sans-Serif" font-size="10.00">typeindex</text>
</a>
</g>
</g>
<!-- Node11&#45;&gt;Node12 -->
<g id="edge14_Node000011_Node000012" class="edge">
<title>Node11&#45;&gt;Node12</title>
<g id="a_edge14_Node000011_Node000012"><a xlink:title=" ">
<path fill="none" stroke="#63b8ff" d="M491.45,-274.98C525.96,-265.93 580.66,-251.58 618.56,-241.64"/>
<polygon fill="#63b8ff" stroke="#63b8ff" points="619.51,-245.01 628.29,-239.08 617.73,-238.23 619.51,-245.01"/>
</a>
</g>
</g>
<!-- Node13 -->
<g id="Node000013" class="node">
<title>Node13</title>
<g id="a_Node000013"><a xlink:title=" ">
<polygon fill="#e0e0e0" stroke="#999999" points="709.5,-184 616.5,-184 616.5,-165 709.5,-165 709.5,-184"/>
<text text-anchor="middle" x="663" y="-172" font-family="Helvetica,sans-Serif" font-size="10.00">unordered_map</text>
</a>
</g>
</g>
<!-- Node11&#45;&gt;Node13 -->
<g id="edge15_Node000011_Node000013" class="edge">
<title>Node11&#45;&gt;Node13</title>
<g id="a_edge15_Node000011_Node000013"><a xlink:title=" ">
<path fill="none" stroke="#63b8ff" d="M536.71,-279.88C599.95,-275.11 682.04,-264.13 703,-239 715.79,-223.66 698.93,-203.93 683.33,-190.56"/>
<polygon fill="#63b8ff" stroke="#63b8ff" points="685.44,-187.76 675.45,-184.2 681.04,-193.21 685.44,-187.76"/>
</a>
</g>
</g>
<!-- Node14 -->
<g id="Node000014" class="node">
<title>Node14</title>
<g id="a_Node000014"><a xlink:href="ConsoleSink_8h.html" target="_top" xlink:title="Concrete implementation of ISink that logs to the console.">
<polygon fill="white" stroke="#666666" points="455.5,-239 298.5,-239 298.5,-220 455.5,-220 455.5,-239"/>
<text text-anchor="middle" x="377" y="-227" font-family="Helvetica,sans-Serif" font-size="10.00">../logger/sinks/ConsoleSink.h</text>
</a>
</g>
</g>
<!-- Node11&#45;&gt;Node14 -->
<g id="edge16_Node000011_Node000014" class="edge">
<title>Node11&#45;&gt;Node14</title>
<g id="a_edge16_Node000011_Node000014"><a xlink:title=" ">
<path fill="none" stroke="#63b8ff" d="M445.83,-274.98C433.23,-266.84 414,-254.41 399.06,-244.76"/>
<polygon fill="#63b8ff" stroke="#63b8ff" points="400.71,-241.66 390.41,-239.17 396.91,-247.54 400.71,-241.66"/>
</a>
</g>
</g>
<!-- Node19 -->
<g id="Node000019" class="node">
<title>Node19</title>
<g id="a_Node000019"><a xlink:href="DenseComponentArray_8h.html" target="_top" xlink:title="Provides dense storage for components of a specific type.">
<polygon fill="white" stroke="#666666" points="610.5,-239 473.5,-239 473.5,-220 610.5,-220 610.5,-239"/>
<text text-anchor="middle" x="542" y="-227" font-family="Helvetica,sans-Serif" font-size="10.00">DenseComponentArray.h</text>
</a>
</g>
</g>
<!-- Node11&#45;&gt;Node19 -->
<g id="edge24_Node000011_Node000019" class="edge">
<title>Node11&#45;&gt;Node19</title>
<g id="a_edge24_Node000011_Node000019"><a xlink:title=" ">
<path fill="none" stroke="#63b8ff" d="M472.34,-274.98C485.09,-266.84 504.55,-254.41 519.67,-244.76"/>
<polygon fill="#63b8ff" stroke="#63b8ff" points="521.88,-247.5 528.42,-239.17 518.11,-241.6 521.88,-247.5"/>
</a>
</g>
</g>
<!-- Node20 -->
<g id="Node000020" class="node">
<title>Node20</title>
<g id="a_Node000020"><a xlink:href="IComponentArray_8h.html" target="_top" xlink:title="A data structure built for managing a specific component type.">
<polygon fill="white" stroke="#666666" points="370,-184 260,-184 260,-165 370,-165 370,-184"/>
<text text-anchor="middle" x="315" y="-172" font-family="Helvetica,sans-Serif" font-size="10.00">IComponentArray.h</text>
</a>
</g>
</g>
<!-- Node11&#45;&gt;Node20 -->
<g id="edge29_Node000011_Node000020" class="edge">
<title>Node11&#45;&gt;Node20</title>
<g id="a_edge29_Node000011_Node000020"><a xlink:title=" ">
<path fill="none" stroke="#63b8ff" d="M394.86,-274.94C352.38,-267.8 302.14,-256.03 289,-239 278.03,-224.79 288.99,-205.3 299.86,-191.67"/>
<polygon fill="#63b8ff" stroke="#63b8ff" points="302.55,-193.91 306.42,-184.05 297.24,-189.35 302.55,-193.91"/>
</a>
</g>
</g>
<!-- Node15 -->
<g id="Node000015" class="node">
<title>Node15</title>
<g id="a_Node000015"><a xlink:title=" ">
<polygon fill="#e0e0e0" stroke="#999999" points="448,-184 388,-184 388,-165 448,-165 448,-184"/>
<text text-anchor="middle" x="418" y="-172" font-family="Helvetica,sans-Serif" font-size="10.00">iostream</text>
</a>
</g>
</g>
<!-- Node14&#45;&gt;Node15 -->
<g id="edge17_Node000014_Node000015" class="edge">
<title>Node14&#45;&gt;Node15</title>
<g id="a_edge17_Node000014_Node000015"><a xlink:title=" ">
<path fill="none" stroke="#63b8ff" d="M383.77,-219.75C389.56,-212.26 398.06,-201.28 405.14,-192.13"/>
<polygon fill="#63b8ff" stroke="#63b8ff" points="408.01,-194.14 411.36,-184.09 402.47,-189.86 408.01,-194.14"/>
</a>
</g>
</g>
<!-- Node16 -->
<g id="Node000016" class="node">
<title>Node16</title>
<g id="a_Node000016"><a xlink:href="Logger_8h.html" target="_top" xlink:title="Central static logging interface for the application.">
<polygon fill="white" stroke="#666666" points="574.5,-184 507.5,-184 507.5,-165 574.5,-165 574.5,-184"/>
<text text-anchor="middle" x="541" y="-172" font-family="Helvetica,sans-Serif" font-size="10.00">../Logger.h</text>
</a>
</g>
</g>
<!-- Node14&#45;&gt;Node16 -->
<g id="edge18_Node000014_Node000016" class="edge">
<title>Node14&#45;&gt;Node16</title>
<g id="a_edge18_Node000014_Node000016"><a xlink:title=" ">
<path fill="none" stroke="#63b8ff" d="M403.35,-219.98C430.76,-211.13 473.89,-197.19 504.56,-187.28"/>
<polygon fill="#63b8ff" stroke="#63b8ff" points="506,-190.49 514.44,-184.08 503.85,-183.83 506,-190.49"/>
</a>
</g>
</g>
<!-- Node18 -->
<g id="Node000018" class="node">
<title>Node18</title>
<g id="a_Node000018"><a xlink:href="ISink_8h.html" target="_top" xlink:title="Declares the logging sink interface.">
<polygon fill="white" stroke="#666666" points="515,-129 437,-129 437,-110 515,-110 515,-129"/>
<text text-anchor="middle" x="476" y="-117" font-family="Helvetica,sans-Serif" font-size="10.00">sinks/ISink.h</text>
</a>
</g>
</g>
<!-- Node14&#45;&gt;Node18 -->
<g id="edge23_Node000014_Node000018" class="edge">
<title>Node14&#45;&gt;Node18</title>
<g id="a_edge23_Node000014_Node000018"><a xlink:title=" ">
<path fill="none" stroke="#63b8ff" d="M403.18,-219.9C420.77,-212.86 443.16,-201.22 457,-184 467.25,-171.25 471.97,-153.07 474.15,-139.43"/>
<polygon fill="#63b8ff" stroke="#63b8ff" points="477.65,-139.62 475.44,-129.26 470.71,-138.74 477.65,-139.62"/>
</a>
</g>
</g>
<!-- Node16&#45;&gt;Node2 -->
<g id="edge19_Node000016_Node000002" class="edge">
<title>Node16&#45;&gt;Node2</title>
<g id="a_edge19_Node000016_Node000002"><a xlink:title=" ">
<path fill="none" stroke="#63b8ff" d="M574.74,-165.33C614.2,-155.79 679.41,-140 721,-129.94"/>
<polygon fill="#63b8ff" stroke="#63b8ff" points="721.88,-133.33 730.78,-127.57 720.24,-126.52 721.88,-133.33"/>
</a>
</g>
</g>
<!-- Node17 -->
<g id="Node000017" class="node">
<title>Node17</title>
<g id="a_Node000017"><a xlink:title=" ">
<polygon fill="#e0e0e0" stroke="#999999" points="545.5,-74 472.5,-74 472.5,-55 545.5,-55 545.5,-74"/>
<text text-anchor="middle" x="509" y="-62" font-family="Helvetica,sans-Serif" font-size="10.00">string_view</text>
</a>
</g>
</g>
<!-- Node16&#45;&gt;Node17 -->
<g id="edge20_Node000016_Node000017" class="edge">
<title>Node16&#45;&gt;Node17</title>
<g id="a_edge20_Node000016_Node000017"><a xlink:title=" ">
<path fill="none" stroke="#63b8ff" d="M538.86,-164.82C535.8,-152.55 529.87,-129.45 524,-110 521.38,-101.32 518.2,-91.78 515.45,-83.76"/>
<polygon fill="#63b8ff" stroke="#63b8ff" points="518.75,-82.6 512.15,-74.31 512.14,-84.91 518.75,-82.6"/>
</a>
</g>
</g>
<!-- Node16&#45;&gt;Node18 -->
<g id="edge21_Node000016_Node000018" class="edge">
<title>Node16&#45;&gt;Node18</title>
<g id="a_edge21_Node000016_Node000018"><a xlink:title=" ">
<path fill="none" stroke="#63b8ff" d="M530.56,-164.98C520.85,-157.07 506.18,-145.11 494.5,-135.58"/>
<polygon fill="#63b8ff" stroke="#63b8ff" points="496.6,-132.78 486.63,-129.17 492.17,-138.2 496.6,-132.78"/>
</a>
</g>
</g>
<!-- Node18&#45;&gt;Node17 -->
<g id="edge22_Node000018_Node000017" class="edge">
<title>Node18&#45;&gt;Node17</title>
<g id="a_edge22_Node000018_Node000017"><a xlink:title=" ">
<path fill="none" stroke="#63b8ff" d="M481.45,-109.75C486.01,-102.42 492.67,-91.73 498.29,-82.7"/>
<polygon fill="#63b8ff" stroke="#63b8ff" points="501.34,-84.43 503.65,-74.09 495.4,-80.73 501.34,-84.43"/>
</a>
</g>
</g>
<!-- Node19&#45;&gt;Node13 -->
<g id="edge27_Node000019_Node000013" class="edge">
<title>Node19&#45;&gt;Node13</title>
<g id="a_edge27_Node000019_Node000013"><a xlink:title=" ">
<path fill="none" stroke="#63b8ff" d="M561.44,-219.98C580.99,-211.42 611.38,-198.11 633.82,-188.28"/>
<polygon fill="#63b8ff" stroke="#63b8ff" points="635.45,-191.39 643.21,-184.17 632.64,-184.98 635.45,-191.39"/>
</a>
</g>
</g>
<!-- Node19&#45;&gt;Node20 -->
<g id="edge25_Node000019_Node000020" class="edge">
<title>Node19&#45;&gt;Node20</title>
<g id="a_edge25_Node000019_Node000020"><a xlink:title=" ">
<path fill="none" stroke="#63b8ff" d="M505.53,-219.98C466.43,-210.86 404.23,-196.33 361.61,-186.38"/>
<polygon fill="#63b8ff" stroke="#63b8ff" points="362.29,-182.95 351.76,-184.08 360.7,-189.76 362.29,-182.95"/>
</a>
</g>
</g>
<!-- Node20&#45;&gt;Node3 -->
<g id="edge26_Node000020_Node000003" class="edge">
<title>Node20&#45;&gt;Node3</title>
<g id="a_edge26_Node000020_Node000003"><a xlink:title=" ">
<path fill="none" stroke="#63b8ff" d="M295.56,-164.98C276.01,-156.42 245.62,-143.11 223.18,-133.28"/>
<polygon fill="#63b8ff" stroke="#63b8ff" points="224.36,-129.98 213.79,-129.17 221.55,-136.39 224.36,-129.98"/>
</a>
</g>
</g>
<!-- Node21&#45;&gt;Node3 -->
<g id="edge31_Node000021_Node000003" class="edge">
<title>Node21&#45;&gt;Node3</title>
<g id="a_edge31_Node000021_Node000003"><a xlink:title=" ">
<path fill="none" stroke="#63b8ff" d="M225.23,-274.74C220.06,-249.2 204.92,-174.43 197.79,-139.23"/>
<polygon fill="#63b8ff" stroke="#63b8ff" points="201.2,-138.41 195.78,-129.31 194.34,-139.8 201.2,-138.41"/>
</a>
</g>
</g>
</g>
</svg>
