<?xml version="1.0" encoding="UTF-8" standalone="no"?>
<!DOCTYPE svg PUBLIC "-//W3C//DTD SVG 1.1//EN"
 "http://www.w3.org/Graphics/SVG/1.1/DTD/svg11.dtd">
<!-- Generated by graphviz version 2.43.0 (0)
 -->
<!-- Title: HardcodedGameDataManager.h Pages: 1 -->
<svg width="574pt" height="412pt"
 viewBox="0.00 0.00 573.50 412.00" xmlns="http://www.w3.org/2000/svg" xmlns:xlink="http://www.w3.org/1999/xlink">
<g id="graph0" class="graph" transform="scale(1 1) rotate(0) translate(4 408)">
<title>HardcodedGameDataManager.h</title>
<!-- Node1 -->
<g id="Node000001" class="node">
<title>Node1</title>
<g id="a_Node000001"><a xlink:title="Provides a hardcoded implementation of game data configuration and level management.">
<polygon fill="#999999" stroke="#666666" points="196,-404 23,-404 23,-385 196,-385 196,-404"/>
<text text-anchor="middle" x="109.5" y="-392" font-family="Helvetica,sans-Serif" font-size="10.00">HardcodedGameDataManager.h</text>
</a>
</g>
</g>
<!-- Node2 -->
<g id="Node000002" class="node">
<title>Node2</title>
<g id="a_Node000002"><a xlink:title=" ">
<polygon fill="#e0e0e0" stroke="#999999" points="93,-349 0,-349 0,-330 93,-330 93,-349"/>
<text text-anchor="middle" x="46.5" y="-337" font-family="Helvetica,sans-Serif" font-size="10.00">unordered_map</text>
</a>
</g>
</g>
<!-- Node1&#45;&gt;Node2 -->
<g id="edge1_Node000001_Node000002" class="edge">
<title>Node1&#45;&gt;Node2</title>
<g id="a_edge1_Node000001_Node000002"><a xlink:title=" ">
<path fill="none" stroke="#63b8ff" d="M99.38,-384.98C90.06,-377.15 76.03,-365.34 64.76,-355.86"/>
<polygon fill="#63b8ff" stroke="#63b8ff" points="66.71,-352.93 56.81,-349.17 62.21,-358.29 66.71,-352.93"/>
</a>
</g>
</g>
<!-- Node3 -->
<g id="Node000003" class="node">
<title>Node3</title>
<g id="a_Node000003"><a xlink:href="IGameDataManager_8h.html" target="_top" xlink:title="Interface for retrieving game configuration and player state data.">
<polygon fill="white" stroke="#666666" points="234,-349 111,-349 111,-330 234,-330 234,-349"/>
<text text-anchor="middle" x="172.5" y="-337" font-family="Helvetica,sans-Serif" font-size="10.00">IGameDataManager.h</text>
</a>
</g>
</g>
<!-- Node1&#45;&gt;Node3 -->
<g id="edge2_Node000001_Node000003" class="edge">
<title>Node1&#45;&gt;Node3</title>
<g id="a_edge2_Node000001_Node000003"><a xlink:title=" ">
<path fill="none" stroke="#63b8ff" d="M119.62,-384.98C128.94,-377.15 142.97,-365.34 154.24,-355.86"/>
<polygon fill="#63b8ff" stroke="#63b8ff" points="156.79,-358.29 162.19,-349.17 152.29,-352.93 156.79,-358.29"/>
</a>
</g>
</g>
<!-- Node4 -->
<g id="Node000004" class="node">
<title>Node4</title>
<g id="a_Node000004"><a xlink:href="LevelData_8h.html" target="_top" xlink:title="Contains data structures for level configuration and arena layout.">
<polygon fill="white" stroke="#666666" points="210,-294 135,-294 135,-275 210,-275 210,-294"/>
<text text-anchor="middle" x="172.5" y="-282" font-family="Helvetica,sans-Serif" font-size="10.00">LevelData.h</text>
</a>
</g>
</g>
<!-- Node3&#45;&gt;Node4 -->
<g id="edge3_Node000003_Node000004" class="edge">
<title>Node3&#45;&gt;Node4</title>
<g id="a_edge3_Node000003_Node000004"><a xlink:title=" ">
<path fill="none" stroke="#63b8ff" d="M172.5,-329.75C172.5,-322.8 172.5,-312.85 172.5,-304.13"/>
<polygon fill="#63b8ff" stroke="#63b8ff" points="176,-304.09 172.5,-294.09 169,-304.09 176,-304.09"/>
</a>
</g>
</g>
<!-- Node5 -->
<g id="Node000005" class="node">
<title>Node5</title>
<g id="a_Node000005"><a xlink:title=" ">
<polygon fill="#e0e0e0" stroke="#999999" points="288.5,-184 232.5,-184 232.5,-165 288.5,-165 288.5,-184"/>
<text text-anchor="middle" x="260.5" y="-172" font-family="Helvetica,sans-Serif" font-size="10.00">optional</text>
</a>
</g>
</g>
<!-- Node4&#45;&gt;Node5 -->
<g id="edge4_Node000004_Node000005" class="edge">
<title>Node4&#45;&gt;Node5</title>
<g id="a_edge4_Node000004_Node000005"><a xlink:title=" ">
<path fill="none" stroke="#63b8ff" d="M179.7,-274.66C194.41,-256.61 228.09,-215.28 246.99,-192.08"/>
<polygon fill="#63b8ff" stroke="#63b8ff" points="249.84,-194.12 253.45,-184.16 244.41,-189.7 249.84,-194.12"/>
</a>
</g>
</g>
<!-- Node6 -->
<g id="Node000006" class="node">
<title>Node6</title>
<g id="a_Node000006"><a xlink:title=" ">
<polygon fill="#e0e0e0" stroke="#999999" points="144.5,-239 100.5,-239 100.5,-220 144.5,-220 144.5,-239"/>
<text text-anchor="middle" x="122.5" y="-227" font-family="Helvetica,sans-Serif" font-size="10.00">string</text>
</a>
</g>
</g>
<!-- Node4&#45;&gt;Node6 -->
<g id="edge5_Node000004_Node000006" class="edge">
<title>Node4&#45;&gt;Node6</title>
<g id="a_edge5_Node000004_Node000006"><a xlink:title=" ">
<path fill="none" stroke="#63b8ff" d="M164.24,-274.75C157.04,-267.11 146.39,-255.82 137.65,-246.56"/>
<polygon fill="#63b8ff" stroke="#63b8ff" points="140.01,-243.96 130.6,-239.09 134.92,-248.76 140.01,-243.96"/>
</a>
</g>
</g>
<!-- Node7 -->
<g id="Node000007" class="node">
<title>Node7</title>
<g id="a_Node000007"><a xlink:href="Vec2_8h.html" target="_top" xlink:title="Simple representation of a 2D Vector.">
<polygon fill="white" stroke="#666666" points="200.5,-129 114.5,-129 114.5,-110 200.5,-110 200.5,-129"/>
<text text-anchor="middle" x="157.5" y="-117" font-family="Helvetica,sans-Serif" font-size="10.00">../math/Vec2.h</text>
</a>
</g>
</g>
<!-- Node4&#45;&gt;Node7 -->
<g id="edge6_Node000004_Node000007" class="edge">
<title>Node4&#45;&gt;Node7</title>
<g id="a_edge6_Node000004_Node000007"><a xlink:title=" ">
<path fill="none" stroke="#63b8ff" d="M141.08,-274.97C123.16,-268.32 102.2,-257.09 91.5,-239 74.75,-210.69 76.06,-194.04 91.5,-165 98.81,-151.25 112.47,-140.99 125.47,-133.8"/>
<polygon fill="#63b8ff" stroke="#63b8ff" points="127.39,-136.75 134.72,-129.11 124.22,-130.51 127.39,-136.75"/>
</a>
</g>
</g>
<!-- Node9 -->
<g id="Node000009" class="node">
<title>Node9</title>
<g id="a_Node000009"><a xlink:href="BrickConfig_8h.html" target="_top" xlink:title="Defines optional ECS component configuration for a single brick entity.">
<polygon fill="white" stroke="#666666" points="320,-239 239,-239 239,-220 320,-220 320,-239"/>
<text text-anchor="middle" x="279.5" y="-227" font-family="Helvetica,sans-Serif" font-size="10.00">BrickConfig.h</text>
</a>
</g>
</g>
<!-- Node4&#45;&gt;Node9 -->
<g id="edge8_Node000004_Node000009" class="edge">
<title>Node4&#45;&gt;Node9</title>
<g id="a_edge8_Node000004_Node000009"><a xlink:title=" ">
<path fill="none" stroke="#63b8ff" d="M189.69,-274.98C206.75,-266.54 233.13,-253.47 252.9,-243.68"/>
<polygon fill="#63b8ff" stroke="#63b8ff" points="254.59,-246.75 262,-239.17 251.48,-240.47 254.59,-246.75"/>
</a>
</g>
</g>
<!-- Node18 -->
<g id="Node000018" class="node">
<title>Node18</title>
<g id="a_Node000018"><a xlink:href="BrickLayoutConfig_8h.html" target="_top" xlink:title="Describes global layout properties for brick grids in a level.">
<polygon fill="white" stroke="#666666" points="214.5,-184 100.5,-184 100.5,-165 214.5,-165 214.5,-184"/>
<text text-anchor="middle" x="157.5" y="-172" font-family="Helvetica,sans-Serif" font-size="10.00">BrickLayoutConfig.h</text>
</a>
</g>
</g>
<!-- Node4&#45;&gt;Node18 -->
<g id="edge19_Node000004_Node000018" class="edge">
<title>Node4&#45;&gt;Node18</title>
<g id="a_edge19_Node000004_Node000018"><a xlink:title=" ">
<path fill="none" stroke="#63b8ff" d="M171.27,-274.66C168.84,-257.17 163.38,-217.8 160.11,-194.27"/>
<polygon fill="#63b8ff" stroke="#63b8ff" points="163.55,-193.58 158.7,-184.16 156.61,-194.54 163.55,-193.58"/>
</a>
</g>
</g>
<!-- Node8 -->
<g id="Node000008" class="node">
<title>Node8</title>
<g id="a_Node000008"><a xlink:title=" ">
<polygon fill="#e0e0e0" stroke="#999999" points="181,-74 134,-74 134,-55 181,-55 181,-74"/>
<text text-anchor="middle" x="157.5" y="-62" font-family="Helvetica,sans-Serif" font-size="10.00">cmath</text>
</a>
</g>
</g>
<!-- Node7&#45;&gt;Node8 -->
<g id="edge7_Node000007_Node000008" class="edge">
<title>Node7&#45;&gt;Node8</title>
<g id="a_edge7_Node000007_Node000008"><a xlink:title=" ">
<path fill="none" stroke="#63b8ff" d="M157.5,-109.75C157.5,-102.8 157.5,-92.85 157.5,-84.13"/>
<polygon fill="#63b8ff" stroke="#63b8ff" points="161,-84.09 157.5,-74.09 154,-84.09 161,-84.09"/>
</a>
</g>
</g>
<!-- Node9&#45;&gt;Node5 -->
<g id="edge9_Node000009_Node000005" class="edge">
<title>Node9&#45;&gt;Node5</title>
<g id="a_edge9_Node000009_Node000005"><a xlink:title=" ">
<path fill="none" stroke="#63b8ff" d="M276.36,-219.75C273.82,-212.65 270.14,-202.4 266.97,-193.56"/>
<polygon fill="#63b8ff" stroke="#63b8ff" points="270.25,-192.32 263.58,-184.09 263.66,-194.68 270.25,-192.32"/>
</a>
</g>
</g>
<!-- Node10 -->
<g id="Node000010" class="node">
<title>Node10</title>
<g id="a_Node000010"><a xlink:href="Components_8h.html" target="_top" xlink:title="Defines core gameplay component structures for ECS entities.">
<polygon fill="white" stroke="#666666" points="486,-184 307,-184 307,-165 486,-165 486,-184"/>
<text text-anchor="middle" x="396.5" y="-172" font-family="Helvetica,sans-Serif" font-size="10.00">../ecs/components/Components.h</text>
</a>
</g>
</g>
<!-- Node9&#45;&gt;Node10 -->
<g id="edge10_Node000009_Node000010" class="edge">
<title>Node9&#45;&gt;Node10</title>
<g id="a_edge10_Node000009_Node000010"><a xlink:title=" ">
<path fill="none" stroke="#63b8ff" d="M298.3,-219.98C317.12,-211.46 346.32,-198.23 368,-188.41"/>
<polygon fill="#63b8ff" stroke="#63b8ff" points="369.7,-191.48 377.36,-184.17 366.81,-185.11 369.7,-191.48"/>
</a>
</g>
</g>
<!-- Node10&#45;&gt;Node7 -->
<g id="edge12_Node000010_Node000007" class="edge">
<title>Node10&#45;&gt;Node7</title>
<g id="a_edge12_Node000010_Node000007"><a xlink:title=" ">
<path fill="none" stroke="#63b8ff" d="M358.1,-164.98C316.76,-155.82 250.9,-141.21 206.01,-131.26"/>
<polygon fill="#63b8ff" stroke="#63b8ff" points="206.72,-127.83 196.2,-129.08 205.21,-134.66 206.72,-127.83"/>
</a>
</g>
</g>
<!-- Node11 -->
<g id="Node000011" class="node">
<title>Node11</title>
<g id="a_Node000011"><a xlink:href="Color_8h.html" target="_top" xlink:title="Defines the Color struct used for RGBA color representation and a set of standard colors.">
<polygon fill="white" stroke="#666666" points="395.5,-129 277.5,-129 277.5,-110 395.5,-110 395.5,-129"/>
<text text-anchor="middle" x="336.5" y="-117" font-family="Helvetica,sans-Serif" font-size="10.00">../../rendering/Color.h</text>
</a>
</g>
</g>
<!-- Node10&#45;&gt;Node11 -->
<g id="edge11_Node000010_Node000011" class="edge">
<title>Node10&#45;&gt;Node11</title>
<g id="a_edge11_Node000010_Node000011"><a xlink:title=" ">
<path fill="none" stroke="#63b8ff" d="M386.86,-164.98C377.99,-157.15 364.63,-145.34 353.89,-135.86"/>
<polygon fill="#63b8ff" stroke="#63b8ff" points="356.13,-133.17 346.32,-129.17 351.49,-138.41 356.13,-133.17"/>
</a>
</g>
</g>
<!-- Node12 -->
<g id="Node000012" class="node">
<title>Node12</title>
<g id="a_Node000012"><a xlink:href="Entity_8h.html" target="_top" xlink:title="Simple struct for Entity in the ECS module (includes version)">
<polygon fill="white" stroke="#666666" points="503.5,-129 413.5,-129 413.5,-110 503.5,-110 503.5,-129"/>
<text text-anchor="middle" x="458.5" y="-117" font-family="Helvetica,sans-Serif" font-size="10.00">../../ecs/Entity.h</text>
</a>
</g>
</g>
<!-- Node10&#45;&gt;Node12 -->
<g id="edge13_Node000010_Node000012" class="edge">
<title>Node10&#45;&gt;Node12</title>
<g id="a_edge13_Node000010_Node000012"><a xlink:title=" ">
<path fill="none" stroke="#63b8ff" d="M406.46,-164.98C415.63,-157.15 429.44,-145.34 440.53,-135.86"/>
<polygon fill="#63b8ff" stroke="#63b8ff" points="443.03,-138.33 448.36,-129.17 438.48,-133.01 443.03,-138.33"/>
</a>
</g>
</g>
<!-- Node13 -->
<g id="Node000013" class="node">
<title>Node13</title>
<g id="a_Node000013"><a xlink:title=" ">
<polygon fill="#e0e0e0" stroke="#999999" points="565.5,-74 515.5,-74 515.5,-55 565.5,-55 565.5,-74"/>
<text text-anchor="middle" x="540.5" y="-62" font-family="Helvetica,sans-Serif" font-size="10.00">cstdint</text>
</a>
</g>
</g>
<!-- Node12&#45;&gt;Node13 -->
<g id="edge14_Node000012_Node000013" class="edge">
<title>Node12&#45;&gt;Node13</title>
<g id="a_edge14_Node000012_Node000013"><a xlink:title=" ">
<path fill="none" stroke="#63b8ff" d="M471.67,-109.98C484.27,-101.84 503.5,-89.41 518.44,-79.76"/>
<polygon fill="#63b8ff" stroke="#63b8ff" points="520.59,-82.54 527.09,-74.17 516.79,-76.66 520.59,-82.54"/>
</a>
</g>
</g>
<!-- Node14 -->
<g id="Node000014" class="node">
<title>Node14</title>
<g id="a_Node000014"><a xlink:title=" ">
<polygon fill="#e0e0e0" stroke="#999999" points="402,-74 337,-74 337,-55 402,-55 402,-74"/>
<text text-anchor="middle" x="369.5" y="-62" font-family="Helvetica,sans-Serif" font-size="10.00">functional</text>
</a>
</g>
</g>
<!-- Node12&#45;&gt;Node14 -->
<g id="edge15_Node000012_Node000014" class="edge">
<title>Node12&#45;&gt;Node14</title>
<g id="a_edge15_Node000012_Node000014"><a xlink:title=" ">
<path fill="none" stroke="#63b8ff" d="M444.2,-109.98C430.4,-101.77 409.26,-89.18 392.99,-79.49"/>
<polygon fill="#63b8ff" stroke="#63b8ff" points="394.44,-76.28 384.06,-74.17 390.86,-82.29 394.44,-76.28"/>
</a>
</g>
</g>
<!-- Node15 -->
<g id="Node000015" class="node">
<title>Node15</title>
<g id="a_Node000015"><a xlink:href="ecs__config_8h.html" target="_top" xlink:title="Configuration constants and type definitions for ECS modules.">
<polygon fill="white" stroke="#666666" points="497,-74 420,-74 420,-55 497,-55 497,-74"/>
<text text-anchor="middle" x="458.5" y="-62" font-family="Helvetica,sans-Serif" font-size="10.00">ecs_config.h</text>
</a>
</g>
</g>
<!-- Node12&#45;&gt;Node15 -->
<g id="edge16_Node000012_Node000015" class="edge">
<title>Node12&#45;&gt;Node15</title>
<g id="a_edge16_Node000012_Node000015"><a xlink:title=" ">
<path fill="none" stroke="#63b8ff" d="M458.5,-109.75C458.5,-102.8 458.5,-92.85 458.5,-84.13"/>
<polygon fill="#63b8ff" stroke="#63b8ff" points="462,-84.09 458.5,-74.09 455,-84.09 462,-84.09"/>
</a>
</g>
</g>
<!-- Node16 -->
<g id="Node000016" class="node">
<title>Node16</title>
<g id="a_Node000016"><a xlink:title=" ">
<polygon fill="#e0e0e0" stroke="#999999" points="446.5,-19 402.5,-19 402.5,0 446.5,0 446.5,-19"/>
<text text-anchor="middle" x="424.5" y="-7" font-family="Helvetica,sans-Serif" font-size="10.00">bitset</text>
</a>
</g>
</g>
<!-- Node15&#45;&gt;Node16 -->
<g id="edge17_Node000015_Node000016" class="edge">
<title>Node15&#45;&gt;Node16</title>
<g id="a_edge17_Node000015_Node000016"><a xlink:title=" ">
<path fill="none" stroke="#63b8ff" d="M452.89,-54.75C448.18,-47.42 441.33,-36.73 435.53,-27.7"/>
<polygon fill="#63b8ff" stroke="#63b8ff" points="438.36,-25.62 430.01,-19.09 432.46,-29.4 438.36,-25.62"/>
</a>
</g>
</g>
<!-- Node17 -->
<g id="Node000017" class="node">
<title>Node17</title>
<g id="a_Node000017"><a xlink:title=" ">
<polygon fill="#e0e0e0" stroke="#999999" points="518,-19 465,-19 465,0 518,0 518,-19"/>
<text text-anchor="middle" x="491.5" y="-7" font-family="Helvetica,sans-Serif" font-size="10.00">cstddef</text>
</a>
</g>
</g>
<!-- Node15&#45;&gt;Node17 -->
<g id="edge18_Node000015_Node000017" class="edge">
<title>Node15&#45;&gt;Node17</title>
<g id="a_edge18_Node000015_Node000017"><a xlink:title=" ">
<path fill="none" stroke="#63b8ff" d="M463.95,-54.75C468.51,-47.42 475.17,-36.73 480.79,-27.7"/>
<polygon fill="#63b8ff" stroke="#63b8ff" points="483.84,-29.43 486.15,-19.09 477.9,-25.73 483.84,-29.43"/>
</a>
</g>
</g>
<!-- Node18&#45;&gt;Node7 -->
<g id="edge20_Node000018_Node000007" class="edge">
<title>Node18&#45;&gt;Node7</title>
<g id="a_edge20_Node000018_Node000007"><a xlink:title=" ">
<path fill="none" stroke="#63b8ff" d="M157.5,-164.75C157.5,-157.8 157.5,-147.85 157.5,-139.13"/>
<polygon fill="#63b8ff" stroke="#63b8ff" points="161,-139.09 157.5,-129.09 154,-139.09 161,-139.09"/>
</a>
</g>
</g>
</g>
</svg>
