<?xml version="1.0" encoding="UTF-8" standalone="no"?>
<!DOCTYPE svg PUBLIC "-//W3C//DTD SVG 1.1//EN"
 "http://www.w3.org/Graphics/SVG/1.1/DTD/svg11.dtd">
<!-- Generated by graphviz version 2.43.0 (0)
 -->
<!-- Title: HardcodedBindingMap.h Pages: 1 -->
<svg width="627pt" height="192pt"
 viewBox="0.00 0.00 626.50 192.00" xmlns="http://www.w3.org/2000/svg" xmlns:xlink="http://www.w3.org/1999/xlink">
<g id="graph0" class="graph" transform="scale(1 1) rotate(0) translate(4 188)">
<title>HardcodedBindingMap.h</title>
<!-- Node1 -->
<g id="Node000001" class="node">
<title>Node1</title>
<g id="a_Node000001"><a xlink:title="A preconfigured set of hardcoded bindings until serialization is available.">
<polygon fill="#999999" stroke="#666666" points="225,-184 89,-184 89,-165 225,-165 225,-184"/>
<text text-anchor="middle" x="157" y="-172" font-family="Helvetica,sans-Serif" font-size="10.00">HardcodedBindingMap.h</text>
</a>
</g>
</g>
<!-- Node2 -->
<g id="Node000002" class="node">
<title>Node2</title>
<g id="a_Node000002"><a xlink:title=" ">
<polygon fill="#e0e0e0" stroke="#999999" points="93.5,-129 0.5,-129 0.5,-110 93.5,-110 93.5,-129"/>
<text text-anchor="middle" x="47" y="-117" font-family="Helvetica,sans-Serif" font-size="10.00">unordered_map</text>
</a>
</g>
</g>
<!-- Node1&#45;&gt;Node2 -->
<g id="edge1_Node000001_Node000002" class="edge">
<title>Node1&#45;&gt;Node2</title>
<g id="a_edge1_Node000001_Node000002"><a xlink:title=" ">
<path fill="none" stroke="#63b8ff" d="M139.33,-164.98C121.71,-156.5 94.42,-143.35 74.07,-133.54"/>
<polygon fill="#63b8ff" stroke="#63b8ff" points="75.52,-130.36 64.99,-129.17 72.48,-136.66 75.52,-130.36"/>
</a>
</g>
</g>
<!-- Node3 -->
<g id="Node000003" class="node">
<title>Node3</title>
<g id="a_Node000003"><a xlink:href="IBindingMap_8h.html" target="_top" xlink:title="Represents a source of loadable and saveable bindings.">
<polygon fill="white" stroke="#666666" points="236,-129 150,-129 150,-110 236,-110 236,-129"/>
<text text-anchor="middle" x="193" y="-117" font-family="Helvetica,sans-Serif" font-size="10.00">IBindingMap.h</text>
</a>
</g>
</g>
<!-- Node1&#45;&gt;Node3 -->
<g id="edge2_Node000001_Node000003" class="edge">
<title>Node1&#45;&gt;Node3</title>
<g id="a_edge2_Node000001_Node000003"><a xlink:title=" ">
<path fill="none" stroke="#63b8ff" d="M162.94,-164.75C167.98,-157.34 175.34,-146.5 181.51,-137.41"/>
<polygon fill="#63b8ff" stroke="#63b8ff" points="184.44,-139.33 187.17,-129.09 178.65,-135.39 184.44,-139.33"/>
</a>
</g>
</g>
<!-- Node5 -->
<g id="Node000005" class="node">
<title>Node5</title>
<g id="a_Node000005"><a xlink:href="InputAction_8h.html" target="_top" xlink:title="Defines a list of bindable player actions.">
<polygon fill="white" stroke="#666666" points="163.5,-74 82.5,-74 82.5,-55 163.5,-55 163.5,-74"/>
<text text-anchor="middle" x="123" y="-62" font-family="Helvetica,sans-Serif" font-size="10.00">InputAction.h</text>
</a>
</g>
</g>
<!-- Node1&#45;&gt;Node5 -->
<g id="edge12_Node000001_Node000005" class="edge">
<title>Node1&#45;&gt;Node5</title>
<g id="a_edge12_Node000001_Node000005"><a xlink:title=" ">
<path fill="none" stroke="#63b8ff" d="M153.63,-164.7C150.26,-155.76 145.02,-141.51 141,-129 136.18,-113.98 131.34,-96.75 127.89,-84.03"/>
<polygon fill="#63b8ff" stroke="#63b8ff" points="131.22,-82.94 125.26,-74.18 124.46,-84.75 131.22,-82.94"/>
</a>
</g>
</g>
<!-- Node6 -->
<g id="Node000006" class="node">
<title>Node6</title>
<g id="a_Node000006"><a xlink:href="InputCode_8h.html" target="_top" xlink:title="Defines a unified abstraction for all input bindings.">
<polygon fill="white" stroke="#666666" points="301.5,-74 226.5,-74 226.5,-55 301.5,-55 301.5,-74"/>
<text text-anchor="middle" x="264" y="-62" font-family="Helvetica,sans-Serif" font-size="10.00">InputCode.h</text>
</a>
</g>
</g>
<!-- Node1&#45;&gt;Node6 -->
<g id="edge13_Node000001_Node000006" class="edge">
<title>Node1&#45;&gt;Node6</title>
<g id="a_edge13_Node000001_Node000006"><a xlink:title=" ">
<path fill="none" stroke="#63b8ff" d="M187.45,-164.95C206.51,-158.13 230.17,-146.73 245,-129 255.5,-116.45 260.2,-98.25 262.3,-84.55"/>
<polygon fill="#63b8ff" stroke="#63b8ff" points="265.81,-84.67 263.52,-74.32 258.86,-83.84 265.81,-84.67"/>
</a>
</g>
</g>
<!-- Node4 -->
<g id="Node000004" class="node">
<title>Node4</title>
<g id="a_Node000004"><a xlink:title=" ">
<polygon fill="#e0e0e0" stroke="#999999" points="44,-19 0,-19 0,0 44,0 44,-19"/>
<text text-anchor="middle" x="22" y="-7" font-family="Helvetica,sans-Serif" font-size="10.00">string</text>
</a>
</g>
</g>
<!-- Node3&#45;&gt;Node4 -->
<g id="edge3_Node000003_Node000004" class="edge">
<title>Node3&#45;&gt;Node4</title>
<g id="a_edge3_Node000003_Node000004"><a xlink:title=" ">
<path fill="none" stroke="#63b8ff" d="M192.59,-109.79C191.48,-96.17 187.34,-69.87 172,-55 169.82,-52.88 97.24,-31.94 53.85,-19.55"/>
<polygon fill="#63b8ff" stroke="#63b8ff" points="54.61,-16.13 44.03,-16.75 52.69,-22.86 54.61,-16.13"/>
</a>
</g>
</g>
<!-- Node3&#45;&gt;Node5 -->
<g id="edge4_Node000003_Node000005" class="edge">
<title>Node3&#45;&gt;Node5</title>
<g id="a_edge4_Node000003_Node000005"><a xlink:title=" ">
<path fill="none" stroke="#63b8ff" d="M181.75,-109.98C171.2,-102 155.2,-89.88 142.56,-80.31"/>
<polygon fill="#63b8ff" stroke="#63b8ff" points="144.54,-77.42 134.45,-74.17 140.31,-83 144.54,-77.42"/>
</a>
</g>
</g>
<!-- Node3&#45;&gt;Node6 -->
<g id="edge5_Node000003_Node000006" class="edge">
<title>Node3&#45;&gt;Node6</title>
<g id="a_edge5_Node000003_Node000006"><a xlink:title=" ">
<path fill="none" stroke="#63b8ff" d="M204.41,-109.98C215.11,-102 231.34,-89.88 244.16,-80.31"/>
<polygon fill="#63b8ff" stroke="#63b8ff" points="246.47,-82.96 252.39,-74.17 242.28,-77.35 246.47,-82.96"/>
</a>
</g>
</g>
<!-- Node6&#45;&gt;Node4 -->
<g id="edge10_Node000006_Node000004" class="edge">
<title>Node6&#45;&gt;Node4</title>
<g id="a_edge10_Node000006_Node000004"><a xlink:title=" ">
<path fill="none" stroke="#63b8ff" d="M226.5,-56.29C186.17,-48.39 119.97,-34.97 54.03,-19.14"/>
<polygon fill="#63b8ff" stroke="#63b8ff" points="54.85,-15.74 44.31,-16.79 53.21,-22.54 54.85,-15.74"/>
</a>
</g>
</g>
<!-- Node7 -->
<g id="Node000007" class="node">
<title>Node7</title>
<g id="a_Node000007"><a xlink:title=" ">
<polygon fill="#e0e0e0" stroke="#999999" points="618.5,-19 495.5,-19 495.5,0 618.5,0 618.5,-19"/>
<text text-anchor="middle" x="557" y="-7" font-family="Helvetica,sans-Serif" font-size="10.00">SDL3/SDL_gamepad.h</text>
</a>
</g>
</g>
<!-- Node6&#45;&gt;Node7 -->
<g id="edge6_Node000006_Node000007" class="edge">
<title>Node6&#45;&gt;Node7</title>
<g id="a_edge6_Node000006_Node000007"><a xlink:title=" ">
<path fill="none" stroke="#63b8ff" d="M301.7,-56.68C351.93,-47.59 441.26,-31.44 499.81,-20.85"/>
<polygon fill="#63b8ff" stroke="#63b8ff" points="500.79,-24.23 510,-19 499.54,-17.34 500.79,-24.23"/>
</a>
</g>
</g>
<!-- Node8 -->
<g id="Node000008" class="node">
<title>Node8</title>
<g id="a_Node000008"><a xlink:title=" ">
<polygon fill="#e0e0e0" stroke="#999999" points="184,-19 62,-19 62,0 184,0 184,-19"/>
<text text-anchor="middle" x="123" y="-7" font-family="Helvetica,sans-Serif" font-size="10.00">SDL3/SDL_keyboard.h</text>
</a>
</g>
</g>
<!-- Node6&#45;&gt;Node8 -->
<g id="edge7_Node000006_Node000008" class="edge">
<title>Node6&#45;&gt;Node8</title>
<g id="a_edge7_Node000006_Node000008"><a xlink:title=" ">
<path fill="none" stroke="#63b8ff" d="M241.35,-54.98C218.15,-46.27 181.88,-32.63 155.6,-22.75"/>
<polygon fill="#63b8ff" stroke="#63b8ff" points="156.66,-19.41 146.07,-19.17 154.2,-25.97 156.66,-19.41"/>
</a>
</g>
</g>
<!-- Node9 -->
<g id="Node000009" class="node">
<title>Node9</title>
<g id="a_Node000009"><a xlink:title=" ">
<polygon fill="#e0e0e0" stroke="#999999" points="325.5,-19 202.5,-19 202.5,0 325.5,0 325.5,-19"/>
<text text-anchor="middle" x="264" y="-7" font-family="Helvetica,sans-Serif" font-size="10.00">SDL3/SDL_scancode.h</text>
</a>
</g>
</g>
<!-- Node6&#45;&gt;Node9 -->
<g id="edge8_Node000006_Node000009" class="edge">
<title>Node6&#45;&gt;Node9</title>
<g id="a_edge8_Node000006_Node000009"><a xlink:title=" ">
<path fill="none" stroke="#63b8ff" d="M264,-54.75C264,-47.8 264,-37.85 264,-29.13"/>
<polygon fill="#63b8ff" stroke="#63b8ff" points="267.5,-29.09 264,-19.09 260.5,-29.09 267.5,-29.09"/>
</a>
</g>
</g>
<!-- Node10 -->
<g id="Node000010" class="node">
<title>Node10</title>
<g id="a_Node000010"><a xlink:title=" ">
<polygon fill="#e0e0e0" stroke="#999999" points="408.5,-19 343.5,-19 343.5,0 408.5,0 408.5,-19"/>
<text text-anchor="middle" x="376" y="-7" font-family="Helvetica,sans-Serif" font-size="10.00">stdexcept</text>
</a>
</g>
</g>
<!-- Node6&#45;&gt;Node10 -->
<g id="edge9_Node000006_Node000010" class="edge">
<title>Node6&#45;&gt;Node10</title>
<g id="a_edge9_Node000006_Node000010"><a xlink:title=" ">
<path fill="none" stroke="#63b8ff" d="M281.99,-54.98C299.93,-46.5 327.72,-33.35 348.43,-23.54"/>
<polygon fill="#63b8ff" stroke="#63b8ff" points="350.14,-26.61 357.68,-19.17 347.14,-20.28 350.14,-26.61"/>
</a>
</g>
</g>
<!-- Node11 -->
<g id="Node000011" class="node">
<title>Node11</title>
<g id="a_Node000011"><a xlink:title=" ">
<polygon fill="#e0e0e0" stroke="#999999" points="477.5,-19 426.5,-19 426.5,0 477.5,0 477.5,-19"/>
<text text-anchor="middle" x="452" y="-7" font-family="Helvetica,sans-Serif" font-size="10.00">variant</text>
</a>
</g>
</g>
<!-- Node6&#45;&gt;Node11 -->
<g id="edge11_Node000006_Node000011" class="edge">
<title>Node6&#45;&gt;Node11</title>
<g id="a_edge11_Node000006_Node000011"><a xlink:title=" ">
<path fill="none" stroke="#63b8ff" d="M294.21,-54.98C327.55,-45.58 381.18,-30.46 416.51,-20.51"/>
<polygon fill="#63b8ff" stroke="#63b8ff" points="417.72,-23.8 426.4,-17.72 415.82,-17.06 417.72,-23.8"/>
</a>
</g>
</g>
</g>
</svg>
