<?xml version="1.0" encoding="UTF-8" standalone="no"?>
<!DOCTYPE svg PUBLIC "-//W3C//DTD SVG 1.1//EN"
 "http://www.w3.org/Graphics/SVG/1.1/DTD/svg11.dtd">
<!-- Generated by graphviz version 2.43.0 (0)
 -->
<!-- Title: HardCodedBindingMap.cpp Pages: 1 -->
<svg width="627pt" height="258pt"
 viewBox="0.00 0.00 626.50 258.00" xmlns="http://www.w3.org/2000/svg" xmlns:xlink="http://www.w3.org/1999/xlink">
<g id="graph0" class="graph" transform="scale(1 1) rotate(0) translate(4 254)">
<title>HardCodedBindingMap.cpp</title>
<!-- Node1 -->
<g id="Node000001" class="node">
<title>Node1</title>
<g id="a_Node000001"><a xlink:title=" ">
<polygon fill="#999999" stroke="#666666" points="231.5,-250 82.5,-250 82.5,-231 231.5,-231 231.5,-250"/>
<text text-anchor="middle" x="157" y="-238" font-family="Helvetica,sans-Serif" font-size="10.00">HardCodedBindingMap.cpp</text>
</a>
</g>
</g>
<!-- Node2 -->
<g id="Node000002" class="node">
<title>Node2</title>
<g id="a_Node000002"><a xlink:href="HardcodedBindingMap_8h.html" target="_top" xlink:title="A preconfigured set of hardcoded bindings until serialization is available.">
<polygon fill="white" stroke="#666666" points="226.5,-195 87.5,-195 87.5,-165 226.5,-165 226.5,-195"/>
<text text-anchor="start" x="95.5" y="-183" font-family="Helvetica,sans-Serif" font-size="10.00">../../include/input</text>
<text text-anchor="middle" x="157" y="-172" font-family="Helvetica,sans-Serif" font-size="10.00">/HardcodedBindingMap.h</text>
</a>
</g>
</g>
<!-- Node1&#45;&gt;Node2 -->
<g id="edge1_Node000001_Node000002" class="edge">
<title>Node1&#45;&gt;Node2</title>
<g id="a_edge1_Node000001_Node000002"><a xlink:title=" ">
<path fill="none" stroke="#63b8ff" d="M157,-230.87C157,-224.11 157,-214.35 157,-205.26"/>
<polygon fill="#63b8ff" stroke="#63b8ff" points="160.5,-205.11 157,-195.11 153.5,-205.11 160.5,-205.11"/>
</a>
</g>
</g>
<!-- Node3 -->
<g id="Node000003" class="node">
<title>Node3</title>
<g id="a_Node000003"><a xlink:title=" ">
<polygon fill="#e0e0e0" stroke="#999999" points="93.5,-129 0.5,-129 0.5,-110 93.5,-110 93.5,-129"/>
<text text-anchor="middle" x="47" y="-117" font-family="Helvetica,sans-Serif" font-size="10.00">unordered_map</text>
</a>
</g>
</g>
<!-- Node2&#45;&gt;Node3 -->
<g id="edge2_Node000002_Node000003" class="edge">
<title>Node2&#45;&gt;Node3</title>
<g id="a_edge2_Node000002_Node000003"><a xlink:title=" ">
<path fill="none" stroke="#63b8ff" d="M130.65,-164.99C112.95,-155.58 89.77,-143.24 72.29,-133.95"/>
<polygon fill="#63b8ff" stroke="#63b8ff" points="73.72,-130.74 63.24,-129.14 70.43,-136.92 73.72,-130.74"/>
</a>
</g>
</g>
<!-- Node4 -->
<g id="Node000004" class="node">
<title>Node4</title>
<g id="a_Node000004"><a xlink:href="IBindingMap_8h.html" target="_top" xlink:title="Represents a source of loadable and saveable bindings.">
<polygon fill="white" stroke="#666666" points="236,-129 150,-129 150,-110 236,-110 236,-129"/>
<text text-anchor="middle" x="193" y="-117" font-family="Helvetica,sans-Serif" font-size="10.00">IBindingMap.h</text>
</a>
</g>
</g>
<!-- Node2&#45;&gt;Node4 -->
<g id="edge3_Node000002_Node000004" class="edge">
<title>Node2&#45;&gt;Node4</title>
<g id="a_edge3_Node000002_Node000004"><a xlink:title=" ">
<path fill="none" stroke="#63b8ff" d="M165.71,-164.84C170.67,-156.78 176.93,-146.62 182.2,-138.06"/>
<polygon fill="#63b8ff" stroke="#63b8ff" points="185.35,-139.62 187.61,-129.27 179.38,-135.95 185.35,-139.62"/>
</a>
</g>
</g>
<!-- Node6 -->
<g id="Node000006" class="node">
<title>Node6</title>
<g id="a_Node000006"><a xlink:href="InputAction_8h.html" target="_top" xlink:title="Defines a list of bindable player actions.">
<polygon fill="white" stroke="#666666" points="163.5,-74 82.5,-74 82.5,-55 163.5,-55 163.5,-74"/>
<text text-anchor="middle" x="123" y="-62" font-family="Helvetica,sans-Serif" font-size="10.00">InputAction.h</text>
</a>
</g>
</g>
<!-- Node2&#45;&gt;Node6 -->
<g id="edge13_Node000002_Node000006" class="edge">
<title>Node2&#45;&gt;Node6</title>
<g id="a_edge13_Node000002_Node000006"><a xlink:title=" ">
<path fill="none" stroke="#63b8ff" d="M152.25,-164.6C149,-154.63 144.63,-141.04 141,-129 136.44,-113.9 131.58,-96.67 128.06,-83.98"/>
<polygon fill="#63b8ff" stroke="#63b8ff" points="131.39,-82.86 125.35,-74.15 124.64,-84.72 131.39,-82.86"/>
</a>
</g>
</g>
<!-- Node7 -->
<g id="Node000007" class="node">
<title>Node7</title>
<g id="a_Node000007"><a xlink:href="InputCode_8h.html" target="_top" xlink:title="Defines a unified abstraction for all input bindings.">
<polygon fill="white" stroke="#666666" points="301.5,-74 226.5,-74 226.5,-55 301.5,-55 301.5,-74"/>
<text text-anchor="middle" x="264" y="-62" font-family="Helvetica,sans-Serif" font-size="10.00">InputCode.h</text>
</a>
</g>
</g>
<!-- Node2&#45;&gt;Node7 -->
<g id="edge14_Node000002_Node000007" class="edge">
<title>Node2&#45;&gt;Node7</title>
<g id="a_edge14_Node000002_Node000007"><a xlink:title=" ">
<path fill="none" stroke="#63b8ff" d="M195.78,-164.8C213.05,-156.71 232.3,-144.95 245,-129 255.19,-116.2 259.92,-98.03 262.12,-84.4"/>
<polygon fill="#63b8ff" stroke="#63b8ff" points="265.62,-84.61 263.43,-74.24 258.68,-83.71 265.62,-84.61"/>
</a>
</g>
</g>
<!-- Node5 -->
<g id="Node000005" class="node">
<title>Node5</title>
<g id="a_Node000005"><a xlink:title=" ">
<polygon fill="#e0e0e0" stroke="#999999" points="44,-19 0,-19 0,0 44,0 44,-19"/>
<text text-anchor="middle" x="22" y="-7" font-family="Helvetica,sans-Serif" font-size="10.00">string</text>
</a>
</g>
</g>
<!-- Node4&#45;&gt;Node5 -->
<g id="edge4_Node000004_Node000005" class="edge">
<title>Node4&#45;&gt;Node5</title>
<g id="a_edge4_Node000004_Node000005"><a xlink:title=" ">
<path fill="none" stroke="#63b8ff" d="M192.59,-109.79C191.48,-96.17 187.34,-69.87 172,-55 169.82,-52.88 97.24,-31.94 53.85,-19.55"/>
<polygon fill="#63b8ff" stroke="#63b8ff" points="54.61,-16.13 44.03,-16.75 52.69,-22.86 54.61,-16.13"/>
</a>
</g>
</g>
<!-- Node4&#45;&gt;Node6 -->
<g id="edge5_Node000004_Node000006" class="edge">
<title>Node4&#45;&gt;Node6</title>
<g id="a_edge5_Node000004_Node000006"><a xlink:title=" ">
<path fill="none" stroke="#63b8ff" d="M181.75,-109.98C171.2,-102 155.2,-89.88 142.56,-80.31"/>
<polygon fill="#63b8ff" stroke="#63b8ff" points="144.54,-77.42 134.45,-74.17 140.31,-83 144.54,-77.42"/>
</a>
</g>
</g>
<!-- Node4&#45;&gt;Node7 -->
<g id="edge6_Node000004_Node000007" class="edge">
<title>Node4&#45;&gt;Node7</title>
<g id="a_edge6_Node000004_Node000007"><a xlink:title=" ">
<path fill="none" stroke="#63b8ff" d="M204.41,-109.98C215.11,-102 231.34,-89.88 244.16,-80.31"/>
<polygon fill="#63b8ff" stroke="#63b8ff" points="246.47,-82.96 252.39,-74.17 242.28,-77.35 246.47,-82.96"/>
</a>
</g>
</g>
<!-- Node7&#45;&gt;Node5 -->
<g id="edge11_Node000007_Node000005" class="edge">
<title>Node7&#45;&gt;Node5</title>
<g id="a_edge11_Node000007_Node000005"><a xlink:title=" ">
<path fill="none" stroke="#63b8ff" d="M226.5,-56.29C186.17,-48.39 119.97,-34.97 54.03,-19.14"/>
<polygon fill="#63b8ff" stroke="#63b8ff" points="54.85,-15.74 44.31,-16.79 53.21,-22.54 54.85,-15.74"/>
</a>
</g>
</g>
<!-- Node8 -->
<g id="Node000008" class="node">
<title>Node8</title>
<g id="a_Node000008"><a xlink:title=" ">
<polygon fill="#e0e0e0" stroke="#999999" points="618.5,-19 495.5,-19 495.5,0 618.5,0 618.5,-19"/>
<text text-anchor="middle" x="557" y="-7" font-family="Helvetica,sans-Serif" font-size="10.00">SDL3/SDL_gamepad.h</text>
</a>
</g>
</g>
<!-- Node7&#45;&gt;Node8 -->
<g id="edge7_Node000007_Node000008" class="edge">
<title>Node7&#45;&gt;Node8</title>
<g id="a_edge7_Node000007_Node000008"><a xlink:title=" ">
<path fill="none" stroke="#63b8ff" d="M301.7,-56.68C351.93,-47.59 441.26,-31.44 499.81,-20.85"/>
<polygon fill="#63b8ff" stroke="#63b8ff" points="500.79,-24.23 510,-19 499.54,-17.34 500.79,-24.23"/>
</a>
</g>
</g>
<!-- Node9 -->
<g id="Node000009" class="node">
<title>Node9</title>
<g id="a_Node000009"><a xlink:title=" ">
<polygon fill="#e0e0e0" stroke="#999999" points="184,-19 62,-19 62,0 184,0 184,-19"/>
<text text-anchor="middle" x="123" y="-7" font-family="Helvetica,sans-Serif" font-size="10.00">SDL3/SDL_keyboard.h</text>
</a>
</g>
</g>
<!-- Node7&#45;&gt;Node9 -->
<g id="edge8_Node000007_Node000009" class="edge">
<title>Node7&#45;&gt;Node9</title>
<g id="a_edge8_Node000007_Node000009"><a xlink:title=" ">
<path fill="none" stroke="#63b8ff" d="M241.35,-54.98C218.15,-46.27 181.88,-32.63 155.6,-22.75"/>
<polygon fill="#63b8ff" stroke="#63b8ff" points="156.66,-19.41 146.07,-19.17 154.2,-25.97 156.66,-19.41"/>
</a>
</g>
</g>
<!-- Node10 -->
<g id="Node000010" class="node">
<title>Node10</title>
<g id="a_Node000010"><a xlink:title=" ">
<polygon fill="#e0e0e0" stroke="#999999" points="325.5,-19 202.5,-19 202.5,0 325.5,0 325.5,-19"/>
<text text-anchor="middle" x="264" y="-7" font-family="Helvetica,sans-Serif" font-size="10.00">SDL3/SDL_scancode.h</text>
</a>
</g>
</g>
<!-- Node7&#45;&gt;Node10 -->
<g id="edge9_Node000007_Node000010" class="edge">
<title>Node7&#45;&gt;Node10</title>
<g id="a_edge9_Node000007_Node000010"><a xlink:title=" ">
<path fill="none" stroke="#63b8ff" d="M264,-54.75C264,-47.8 264,-37.85 264,-29.13"/>
<polygon fill="#63b8ff" stroke="#63b8ff" points="267.5,-29.09 264,-19.09 260.5,-29.09 267.5,-29.09"/>
</a>
</g>
</g>
<!-- Node11 -->
<g id="Node000011" class="node">
<title>Node11</title>
<g id="a_Node000011"><a xlink:title=" ">
<polygon fill="#e0e0e0" stroke="#999999" points="408.5,-19 343.5,-19 343.5,0 408.5,0 408.5,-19"/>
<text text-anchor="middle" x="376" y="-7" font-family="Helvetica,sans-Serif" font-size="10.00">stdexcept</text>
</a>
</g>
</g>
<!-- Node7&#45;&gt;Node11 -->
<g id="edge10_Node000007_Node000011" class="edge">
<title>Node7&#45;&gt;Node11</title>
<g id="a_edge10_Node000007_Node000011"><a xlink:title=" ">
<path fill="none" stroke="#63b8ff" d="M281.99,-54.98C299.93,-46.5 327.72,-33.35 348.43,-23.54"/>
<polygon fill="#63b8ff" stroke="#63b8ff" points="350.14,-26.61 357.68,-19.17 347.14,-20.28 350.14,-26.61"/>
</a>
</g>
</g>
<!-- Node12 -->
<g id="Node000012" class="node">
<title>Node12</title>
<g id="a_Node000012"><a xlink:title=" ">
<polygon fill="#e0e0e0" stroke="#999999" points="477.5,-19 426.5,-19 426.5,0 477.5,0 477.5,-19"/>
<text text-anchor="middle" x="452" y="-7" font-family="Helvetica,sans-Serif" font-size="10.00">variant</text>
</a>
</g>
</g>
<!-- Node7&#45;&gt;Node12 -->
<g id="edge12_Node000007_Node000012" class="edge">
<title>Node7&#45;&gt;Node12</title>
<g id="a_edge12_Node000007_Node000012"><a xlink:title=" ">
<path fill="none" stroke="#63b8ff" d="M294.21,-54.98C327.55,-45.58 381.18,-30.46 416.51,-20.51"/>
<polygon fill="#63b8ff" stroke="#63b8ff" points="417.72,-23.8 426.4,-17.72 415.82,-17.06 417.72,-23.8"/>
</a>
</g>
</g>
</g>
</svg>
