<?xml version="1.0" encoding="UTF-8" standalone="no"?>
<!DOCTYPE svg PUBLIC "-//W3C//DTD SVG 1.1//EN"
 "http://www.w3.org/Graphics/SVG/1.1/DTD/svg11.dtd">
<!-- Generated by graphviz version 2.43.0 (0)
 -->
<!-- Title: HitSystem.h Pages: 1 -->
<svg width="1130pt" height="412pt"
 viewBox="0.00 0.00 1130.00 412.00" xmlns="http://www.w3.org/2000/svg" xmlns:xlink="http://www.w3.org/1999/xlink">
<g id="graph0" class="graph" transform="scale(1 1) rotate(0) translate(4 408)">
<title>HitSystem.h</title>
<!-- Node1 -->
<g id="Node000001" class="node">
<title>Node1</title>
<g id="a_Node000001"><a xlink:title="Applies damage logic by reducing HitsRequired when a PendingHit is present.">
<polygon fill="#999999" stroke="#666666" points="639.5,-404 562.5,-404 562.5,-385 639.5,-385 639.5,-404"/>
<text text-anchor="middle" x="601" y="-392" font-family="Helvetica,sans-Serif" font-size="10.00">HitSystem.h</text>
</a>
</g>
</g>
<!-- Node2 -->
<g id="Node000002" class="node">
<title>Node2</title>
<g id="a_Node000002"><a xlink:title=" ">
<polygon fill="#e0e0e0" stroke="#999999" points="270,-184 212,-184 212,-165 270,-165 270,-184"/>
<text text-anchor="middle" x="241" y="-172" font-family="Helvetica,sans-Serif" font-size="10.00">memory</text>
</a>
</g>
</g>
<!-- Node1&#45;&gt;Node2 -->
<g id="edge1_Node000001_Node000002" class="edge">
<title>Node1&#45;&gt;Node2</title>
<g id="a_edge1_Node000001_Node000002"><a xlink:title=" ">
<path fill="none" stroke="#63b8ff" d="M562.44,-390.15C500.68,-382.9 378.82,-360.59 303,-294 279.69,-273.53 274.25,-266.56 260,-239 252.64,-224.77 247.67,-207.24 244.66,-194.2"/>
<polygon fill="#63b8ff" stroke="#63b8ff" points="248.02,-193.16 242.51,-184.1 241.17,-194.61 248.02,-193.16"/>
</a>
</g>
</g>
<!-- Node3 -->
<g id="Node000003" class="node">
<title>Node3</title>
<g id="a_Node000003"><a xlink:href="ISystem_8h.html" target="_top" xlink:title="Declares the interface for all game systems in the ECS framework.">
<polygon fill="white" stroke="#666666" points="707,-349 633,-349 633,-330 707,-330 707,-349"/>
<text text-anchor="middle" x="670" y="-337" font-family="Helvetica,sans-Serif" font-size="10.00">../ISystem.h</text>
</a>
</g>
</g>
<!-- Node1&#45;&gt;Node3 -->
<g id="edge2_Node000001_Node000003" class="edge">
<title>Node1&#45;&gt;Node3</title>
<g id="a_edge2_Node000001_Node000003"><a xlink:title=" ">
<path fill="none" stroke="#63b8ff" d="M612.09,-384.98C622.49,-377 638.26,-364.88 650.72,-355.31"/>
<polygon fill="#63b8ff" stroke="#63b8ff" points="652.91,-358.04 658.71,-349.17 648.65,-352.49 652.91,-358.04"/>
</a>
</g>
</g>
<!-- Node11 -->
<g id="Node000011" class="node">
<title>Node11</title>
<g id="a_Node000011"><a xlink:href="IGameDataManager_8h.html" target="_top" xlink:title="Interface for retrieving game configuration and player state data.">
<polygon fill="white" stroke="#666666" points="936,-349 770,-349 770,-330 936,-330 936,-349"/>
<text text-anchor="middle" x="853" y="-337" font-family="Helvetica,sans-Serif" font-size="10.00">../../data/IGameDataManager.h</text>
</a>
</g>
</g>
<!-- Node1&#45;&gt;Node11 -->
<g id="edge10_Node000001_Node000011" class="edge">
<title>Node1&#45;&gt;Node11</title>
<g id="a_edge10_Node000001_Node000011"><a xlink:title=" ">
<path fill="none" stroke="#63b8ff" d="M639.55,-385.39C683.18,-376.22 754.43,-361.23 802.48,-351.12"/>
<polygon fill="#63b8ff" stroke="#63b8ff" points="803.3,-354.53 812.37,-349.05 801.86,-347.68 803.3,-354.53"/>
</a>
</g>
</g>
<!-- Node21 -->
<g id="Node000021" class="node">
<title>Node21</title>
<g id="a_Node000021"><a xlink:href="IComponentManager_8h.html" target="_top" xlink:title="System for managing components and their relationship to specific entities.">
<polygon fill="white" stroke="#666666" points="541,-349 405,-349 405,-330 541,-330 541,-349"/>
<text text-anchor="middle" x="473" y="-337" font-family="Helvetica,sans-Serif" font-size="10.00">../IComponentManager.h</text>
</a>
</g>
</g>
<!-- Node1&#45;&gt;Node21 -->
<g id="edge24_Node000001_Node000021" class="edge">
<title>Node1&#45;&gt;Node21</title>
<g id="a_edge24_Node000001_Node000021"><a xlink:title=" ">
<path fill="none" stroke="#63b8ff" d="M580.43,-384.98C559.57,-376.34 527.03,-362.87 503.23,-353.02"/>
<polygon fill="#63b8ff" stroke="#63b8ff" points="504.52,-349.76 493.94,-349.17 501.84,-356.23 504.52,-349.76"/>
</a>
</g>
</g>
<!-- Node4 -->
<g id="Node000004" class="node">
<title>Node4</title>
<g id="a_Node000004"><a xlink:title=" ">
<polygon fill="#e0e0e0" stroke="#999999" points="784,-294 698,-294 698,-275 784,-275 784,-294"/>
<text text-anchor="middle" x="741" y="-282" font-family="Helvetica,sans-Serif" font-size="10.00">unordered_set</text>
</a>
</g>
</g>
<!-- Node3&#45;&gt;Node4 -->
<g id="edge3_Node000003_Node000004" class="edge">
<title>Node3&#45;&gt;Node4</title>
<g id="a_edge3_Node000003_Node000004"><a xlink:title=" ">
<path fill="none" stroke="#63b8ff" d="M681.41,-329.98C692.11,-322 708.34,-309.88 721.16,-300.31"/>
<polygon fill="#63b8ff" stroke="#63b8ff" points="723.47,-302.96 729.39,-294.17 719.28,-297.35 723.47,-302.96"/>
</a>
</g>
</g>
<!-- Node5 -->
<g id="Node000005" class="node">
<title>Node5</title>
<g id="a_Node000005"><a xlink:href="Entity_8h.html" target="_top" xlink:title="Simple struct for Entity in the ECS module (includes version)">
<polygon fill="white" stroke="#666666" points="677.5,-129 624.5,-129 624.5,-110 677.5,-110 677.5,-129"/>
<text text-anchor="middle" x="651" y="-117" font-family="Helvetica,sans-Serif" font-size="10.00">Entity.h</text>
</a>
</g>
</g>
<!-- Node3&#45;&gt;Node5 -->
<g id="edge4_Node000003_Node000005" class="edge">
<title>Node3&#45;&gt;Node5</title>
<g id="a_edge4_Node000003_Node000005"><a xlink:title=" ">
<path fill="none" stroke="#63b8ff" d="M669.26,-329.95C666.47,-297.95 656.59,-184.68 652.65,-139.4"/>
<polygon fill="#63b8ff" stroke="#63b8ff" points="656.12,-138.88 651.76,-129.22 649.14,-139.49 656.12,-138.88"/>
</a>
</g>
</g>
<!-- Node6 -->
<g id="Node000006" class="node">
<title>Node6</title>
<g id="a_Node000006"><a xlink:title=" ">
<polygon fill="#e0e0e0" stroke="#999999" points="758,-74 708,-74 708,-55 758,-55 758,-74"/>
<text text-anchor="middle" x="733" y="-62" font-family="Helvetica,sans-Serif" font-size="10.00">cstdint</text>
</a>
</g>
</g>
<!-- Node5&#45;&gt;Node6 -->
<g id="edge5_Node000005_Node000006" class="edge">
<title>Node5&#45;&gt;Node6</title>
<g id="a_edge5_Node000005_Node000006"><a xlink:title=" ">
<path fill="none" stroke="#63b8ff" d="M664.17,-109.98C676.77,-101.84 696,-89.41 710.94,-79.76"/>
<polygon fill="#63b8ff" stroke="#63b8ff" points="713.09,-82.54 719.59,-74.17 709.29,-76.66 713.09,-82.54"/>
</a>
</g>
</g>
<!-- Node7 -->
<g id="Node000007" class="node">
<title>Node7</title>
<g id="a_Node000007"><a xlink:title=" ">
<polygon fill="#e0e0e0" stroke="#999999" points="594.5,-74 529.5,-74 529.5,-55 594.5,-55 594.5,-74"/>
<text text-anchor="middle" x="562" y="-62" font-family="Helvetica,sans-Serif" font-size="10.00">functional</text>
</a>
</g>
</g>
<!-- Node5&#45;&gt;Node7 -->
<g id="edge6_Node000005_Node000007" class="edge">
<title>Node5&#45;&gt;Node7</title>
<g id="a_edge6_Node000005_Node000007"><a xlink:title=" ">
<path fill="none" stroke="#63b8ff" d="M636.7,-109.98C622.9,-101.77 601.76,-89.18 585.49,-79.49"/>
<polygon fill="#63b8ff" stroke="#63b8ff" points="586.94,-76.28 576.56,-74.17 583.36,-82.29 586.94,-76.28"/>
</a>
</g>
</g>
<!-- Node8 -->
<g id="Node000008" class="node">
<title>Node8</title>
<g id="a_Node000008"><a xlink:href="ecs__config_8h.html" target="_top" xlink:title="Configuration constants and type definitions for ECS modules.">
<polygon fill="white" stroke="#666666" points="689.5,-74 612.5,-74 612.5,-55 689.5,-55 689.5,-74"/>
<text text-anchor="middle" x="651" y="-62" font-family="Helvetica,sans-Serif" font-size="10.00">ecs_config.h</text>
</a>
</g>
</g>
<!-- Node5&#45;&gt;Node8 -->
<g id="edge7_Node000005_Node000008" class="edge">
<title>Node5&#45;&gt;Node8</title>
<g id="a_edge7_Node000005_Node000008"><a xlink:title=" ">
<path fill="none" stroke="#63b8ff" d="M651,-109.75C651,-102.8 651,-92.85 651,-84.13"/>
<polygon fill="#63b8ff" stroke="#63b8ff" points="654.5,-84.09 651,-74.09 647.5,-84.09 654.5,-84.09"/>
</a>
</g>
</g>
<!-- Node9 -->
<g id="Node000009" class="node">
<title>Node9</title>
<g id="a_Node000009"><a xlink:title=" ">
<polygon fill="#e0e0e0" stroke="#999999" points="639,-19 595,-19 595,0 639,0 639,-19"/>
<text text-anchor="middle" x="617" y="-7" font-family="Helvetica,sans-Serif" font-size="10.00">bitset</text>
</a>
</g>
</g>
<!-- Node8&#45;&gt;Node9 -->
<g id="edge8_Node000008_Node000009" class="edge">
<title>Node8&#45;&gt;Node9</title>
<g id="a_edge8_Node000008_Node000009"><a xlink:title=" ">
<path fill="none" stroke="#63b8ff" d="M645.39,-54.75C640.68,-47.42 633.83,-36.73 628.03,-27.7"/>
<polygon fill="#63b8ff" stroke="#63b8ff" points="630.86,-25.62 622.51,-19.09 624.96,-29.4 630.86,-25.62"/>
</a>
</g>
</g>
<!-- Node10 -->
<g id="Node000010" class="node">
<title>Node10</title>
<g id="a_Node000010"><a xlink:title=" ">
<polygon fill="#e0e0e0" stroke="#999999" points="710.5,-19 657.5,-19 657.5,0 710.5,0 710.5,-19"/>
<text text-anchor="middle" x="684" y="-7" font-family="Helvetica,sans-Serif" font-size="10.00">cstddef</text>
</a>
</g>
</g>
<!-- Node8&#45;&gt;Node10 -->
<g id="edge9_Node000008_Node000010" class="edge">
<title>Node8&#45;&gt;Node10</title>
<g id="a_edge9_Node000008_Node000010"><a xlink:title=" ">
<path fill="none" stroke="#63b8ff" d="M656.45,-54.75C661.01,-47.42 667.67,-36.73 673.29,-27.7"/>
<polygon fill="#63b8ff" stroke="#63b8ff" points="676.34,-29.43 678.65,-19.09 670.4,-25.73 676.34,-29.43"/>
</a>
</g>
</g>
<!-- Node12 -->
<g id="Node000012" class="node">
<title>Node12</title>
<g id="a_Node000012"><a xlink:href="LevelData_8h.html" target="_top" xlink:title="Contains data structures for level configuration and arena layout.">
<polygon fill="white" stroke="#666666" points="935.5,-294 860.5,-294 860.5,-275 935.5,-275 935.5,-294"/>
<text text-anchor="middle" x="898" y="-282" font-family="Helvetica,sans-Serif" font-size="10.00">LevelData.h</text>
</a>
</g>
</g>
<!-- Node11&#45;&gt;Node12 -->
<g id="edge11_Node000011_Node000012" class="edge">
<title>Node11&#45;&gt;Node12</title>
<g id="a_edge11_Node000011_Node000012"><a xlink:title=" ">
<path fill="none" stroke="#63b8ff" d="M860.43,-329.75C866.85,-322.18 876.31,-311.05 884.12,-301.84"/>
<polygon fill="#63b8ff" stroke="#63b8ff" points="886.9,-303.98 890.71,-294.09 881.57,-299.45 886.9,-303.98"/>
</a>
</g>
</g>
<!-- Node13 -->
<g id="Node000013" class="node">
<title>Node13</title>
<g id="a_Node000013"><a xlink:title=" ">
<polygon fill="#e0e0e0" stroke="#999999" points="952,-184 896,-184 896,-165 952,-165 952,-184"/>
<text text-anchor="middle" x="924" y="-172" font-family="Helvetica,sans-Serif" font-size="10.00">optional</text>
</a>
</g>
</g>
<!-- Node12&#45;&gt;Node13 -->
<g id="edge12_Node000012_Node000013" class="edge">
<title>Node12&#45;&gt;Node13</title>
<g id="a_edge12_Node000012_Node000013"><a xlink:title=" ">
<path fill="none" stroke="#63b8ff" d="M901.69,-274.79C905.31,-265.93 910.74,-251.73 914,-239 917.77,-224.27 920.36,-207.22 921.96,-194.51"/>
<polygon fill="#63b8ff" stroke="#63b8ff" points="925.48,-194.57 923.15,-184.23 918.52,-193.76 925.48,-194.57"/>
</a>
</g>
</g>
<!-- Node14 -->
<g id="Node000014" class="node">
<title>Node14</title>
<g id="a_Node000014"><a xlink:title=" ">
<polygon fill="#e0e0e0" stroke="#999999" points="805,-239 761,-239 761,-220 805,-220 805,-239"/>
<text text-anchor="middle" x="783" y="-227" font-family="Helvetica,sans-Serif" font-size="10.00">string</text>
</a>
</g>
</g>
<!-- Node12&#45;&gt;Node14 -->
<g id="edge13_Node000012_Node000014" class="edge">
<title>Node12&#45;&gt;Node14</title>
<g id="a_edge13_Node000012_Node000014"><a xlink:title=" ">
<path fill="none" stroke="#63b8ff" d="M879.52,-274.98C861.02,-266.46 832.32,-253.23 811.02,-243.41"/>
<polygon fill="#63b8ff" stroke="#63b8ff" points="812.36,-240.18 801.81,-239.17 809.43,-246.53 812.36,-240.18"/>
</a>
</g>
</g>
<!-- Node15 -->
<g id="Node000015" class="node">
<title>Node15</title>
<g id="a_Node000015"><a xlink:href="Vec2_8h.html" target="_top" xlink:title="Simple representation of a 2D Vector.">
<polygon fill="white" stroke="#666666" points="1023,-129 937,-129 937,-110 1023,-110 1023,-129"/>
<text text-anchor="middle" x="980" y="-117" font-family="Helvetica,sans-Serif" font-size="10.00">../math/Vec2.h</text>
</a>
</g>
</g>
<!-- Node12&#45;&gt;Node15 -->
<g id="edge14_Node000012_Node000015" class="edge">
<title>Node12&#45;&gt;Node15</title>
<g id="a_edge14_Node000012_Node000015"><a xlink:title=" ">
<path fill="none" stroke="#63b8ff" d="M904.67,-274.83C911.35,-266.01 921.81,-251.83 930,-239 945.1,-215.35 950.02,-209.82 961,-184 967.2,-169.42 972.22,-152.16 975.55,-139.31"/>
<polygon fill="#63b8ff" stroke="#63b8ff" points="979.01,-139.89 978.02,-129.34 972.22,-138.21 979.01,-139.89"/>
</a>
</g>
</g>
<!-- Node17 -->
<g id="Node000017" class="node">
<title>Node17</title>
<g id="a_Node000017"><a xlink:href="BrickConfig_8h.html" target="_top" xlink:title="Defines optional ECS component configuration for a single brick entity.">
<polygon fill="white" stroke="#666666" points="904.5,-239 823.5,-239 823.5,-220 904.5,-220 904.5,-239"/>
<text text-anchor="middle" x="864" y="-227" font-family="Helvetica,sans-Serif" font-size="10.00">BrickConfig.h</text>
</a>
</g>
</g>
<!-- Node12&#45;&gt;Node17 -->
<g id="edge16_Node000012_Node000017" class="edge">
<title>Node12&#45;&gt;Node17</title>
<g id="a_edge16_Node000012_Node000017"><a xlink:title=" ">
<path fill="none" stroke="#63b8ff" d="M892.39,-274.75C887.68,-267.42 880.83,-256.73 875.03,-247.7"/>
<polygon fill="#63b8ff" stroke="#63b8ff" points="877.86,-245.62 869.51,-239.09 871.96,-249.4 877.86,-245.62"/>
</a>
</g>
</g>
<!-- Node20 -->
<g id="Node000020" class="node">
<title>Node20</title>
<g id="a_Node000020"><a xlink:href="BrickLayoutConfig_8h.html" target="_top" xlink:title="Describes global layout properties for brick grids in a level.">
<polygon fill="white" stroke="#666666" points="1122,-184 1008,-184 1008,-165 1122,-165 1122,-184"/>
<text text-anchor="middle" x="1065" y="-172" font-family="Helvetica,sans-Serif" font-size="10.00">BrickLayoutConfig.h</text>
</a>
</g>
</g>
<!-- Node12&#45;&gt;Node20 -->
<g id="edge22_Node000012_Node000020" class="edge">
<title>Node12&#45;&gt;Node20</title>
<g id="a_edge22_Node000012_Node000020"><a xlink:title=" ">
<path fill="none" stroke="#63b8ff" d="M921.51,-274.88C941.59,-266.99 970.83,-254.25 994,-239 1015.02,-225.17 1036.13,-205.35 1049.8,-191.55"/>
<polygon fill="#63b8ff" stroke="#63b8ff" points="1052.48,-193.82 1056.94,-184.2 1047.46,-188.94 1052.48,-193.82"/>
</a>
</g>
</g>
<!-- Node16 -->
<g id="Node000016" class="node">
<title>Node16</title>
<g id="a_Node000016"><a xlink:title=" ">
<polygon fill="#e0e0e0" stroke="#999999" points="1003.5,-74 956.5,-74 956.5,-55 1003.5,-55 1003.5,-74"/>
<text text-anchor="middle" x="980" y="-62" font-family="Helvetica,sans-Serif" font-size="10.00">cmath</text>
</a>
</g>
</g>
<!-- Node15&#45;&gt;Node16 -->
<g id="edge15_Node000015_Node000016" class="edge">
<title>Node15&#45;&gt;Node16</title>
<g id="a_edge15_Node000015_Node000016"><a xlink:title=" ">
<path fill="none" stroke="#63b8ff" d="M980,-109.75C980,-102.8 980,-92.85 980,-84.13"/>
<polygon fill="#63b8ff" stroke="#63b8ff" points="983.5,-84.09 980,-74.09 976.5,-84.09 983.5,-84.09"/>
</a>
</g>
</g>
<!-- Node17&#45;&gt;Node13 -->
<g id="edge17_Node000017_Node000013" class="edge">
<title>Node17&#45;&gt;Node13</title>
<g id="a_edge17_Node000017_Node000013"><a xlink:title=" ">
<path fill="none" stroke="#63b8ff" d="M873.64,-219.98C882.51,-212.15 895.87,-200.34 906.61,-190.86"/>
<polygon fill="#63b8ff" stroke="#63b8ff" points="909.01,-193.41 914.18,-184.17 904.37,-188.17 909.01,-193.41"/>
</a>
</g>
</g>
<!-- Node18 -->
<g id="Node000018" class="node">
<title>Node18</title>
<g id="a_Node000018"><a xlink:href="Components_8h.html" target="_top" xlink:title="Defines core gameplay component structures for ECS entities.">
<polygon fill="white" stroke="#666666" points="877.5,-184 698.5,-184 698.5,-165 877.5,-165 877.5,-184"/>
<text text-anchor="middle" x="788" y="-172" font-family="Helvetica,sans-Serif" font-size="10.00">../ecs/components/Components.h</text>
</a>
</g>
</g>
<!-- Node17&#45;&gt;Node18 -->
<g id="edge18_Node000017_Node000018" class="edge">
<title>Node17&#45;&gt;Node18</title>
<g id="a_edge18_Node000017_Node000018"><a xlink:title=" ">
<path fill="none" stroke="#63b8ff" d="M851.79,-219.98C840.22,-211.92 822.62,-199.65 808.84,-190.03"/>
<polygon fill="#63b8ff" stroke="#63b8ff" points="810.64,-187.02 800.43,-184.17 806.63,-192.76 810.64,-187.02"/>
</a>
</g>
</g>
<!-- Node18&#45;&gt;Node5 -->
<g id="edge21_Node000018_Node000005" class="edge">
<title>Node18&#45;&gt;Node5</title>
<g id="a_edge21_Node000018_Node000005"><a xlink:title=" ">
<path fill="none" stroke="#63b8ff" d="M765.99,-164.98C743.55,-156.3 708.52,-142.75 683.01,-132.88"/>
<polygon fill="#63b8ff" stroke="#63b8ff" points="684,-129.51 673.41,-129.17 681.48,-136.04 684,-129.51"/>
</a>
</g>
</g>
<!-- Node18&#45;&gt;Node15 -->
<g id="edge20_Node000018_Node000015" class="edge">
<title>Node18&#45;&gt;Node15</title>
<g id="a_edge20_Node000018_Node000015"><a xlink:title=" ">
<path fill="none" stroke="#63b8ff" d="M818.85,-164.98C851.5,-155.97 903.2,-141.7 939.2,-131.76"/>
<polygon fill="#63b8ff" stroke="#63b8ff" points="940.2,-135.12 948.91,-129.08 938.34,-128.37 940.2,-135.12"/>
</a>
</g>
</g>
<!-- Node19 -->
<g id="Node000019" class="node">
<title>Node19</title>
<g id="a_Node000019"><a xlink:href="Color_8h.html" target="_top" xlink:title="Defines the Color struct used for RGBA color representation and a set of standard colors.">
<polygon fill="white" stroke="#666666" points="847,-129 729,-129 729,-110 847,-110 847,-129"/>
<text text-anchor="middle" x="788" y="-117" font-family="Helvetica,sans-Serif" font-size="10.00">../../rendering/Color.h</text>
</a>
</g>
</g>
<!-- Node18&#45;&gt;Node19 -->
<g id="edge19_Node000018_Node000019" class="edge">
<title>Node18&#45;&gt;Node19</title>
<g id="a_edge19_Node000018_Node000019"><a xlink:title=" ">
<path fill="none" stroke="#63b8ff" d="M788,-164.75C788,-157.8 788,-147.85 788,-139.13"/>
<polygon fill="#63b8ff" stroke="#63b8ff" points="791.5,-139.09 788,-129.09 784.5,-139.09 791.5,-139.09"/>
</a>
</g>
</g>
<!-- Node20&#45;&gt;Node15 -->
<g id="edge23_Node000020_Node000015" class="edge">
<title>Node20&#45;&gt;Node15</title>
<g id="a_edge23_Node000020_Node000015"><a xlink:title=" ">
<path fill="none" stroke="#63b8ff" d="M1051.34,-164.98C1038.16,-156.77 1017.97,-144.18 1002.43,-134.49"/>
<polygon fill="#63b8ff" stroke="#63b8ff" points="1004.24,-131.49 993.91,-129.17 1000.54,-137.43 1004.24,-131.49"/>
</a>
</g>
</g>
<!-- Node21&#45;&gt;Node2 -->
<g id="edge25_Node000021_Node000002" class="edge">
<title>Node21&#45;&gt;Node2</title>
<g id="a_edge25_Node000021_Node000002"><a xlink:title=" ">
<path fill="none" stroke="#63b8ff" d="M417.71,-329.92C389.26,-323.5 355.16,-312.52 329,-294 291.15,-267.21 262.83,-219.08 249.49,-193.16"/>
<polygon fill="#63b8ff" stroke="#63b8ff" points="252.58,-191.51 244.98,-184.12 246.31,-194.63 252.58,-191.51"/>
</a>
</g>
</g>
<!-- Node21&#45;&gt;Node5 -->
<g id="edge40_Node000021_Node000005" class="edge">
<title>Node21&#45;&gt;Node5</title>
<g id="a_edge40_Node000021_Node000005"><a xlink:title=" ">
<path fill="none" stroke="#63b8ff" d="M519.66,-329.92C543.26,-323.5 570.87,-312.51 590,-294 634.11,-251.31 646.37,-174.88 649.74,-139.47"/>
<polygon fill="#63b8ff" stroke="#63b8ff" points="653.26,-139.39 650.58,-129.14 646.28,-138.83 653.26,-139.39"/>
</a>
</g>
</g>
<!-- Node22 -->
<g id="Node000022" class="node">
<title>Node22</title>
<g id="a_Node000022"><a xlink:title=" ">
<polygon fill="#e0e0e0" stroke="#999999" points="565.5,-294 500.5,-294 500.5,-275 565.5,-275 565.5,-294"/>
<text text-anchor="middle" x="533" y="-282" font-family="Helvetica,sans-Serif" font-size="10.00">typeindex</text>
</a>
</g>
</g>
<!-- Node21&#45;&gt;Node22 -->
<g id="edge26_Node000021_Node000022" class="edge">
<title>Node21&#45;&gt;Node22</title>
<g id="a_edge26_Node000021_Node000022"><a xlink:title=" ">
<path fill="none" stroke="#63b8ff" d="M482.64,-329.98C491.51,-322.15 504.87,-310.34 515.61,-300.86"/>
<polygon fill="#63b8ff" stroke="#63b8ff" points="518.01,-303.41 523.18,-294.17 513.37,-298.17 518.01,-303.41"/>
</a>
</g>
</g>
<!-- Node23 -->
<g id="Node000023" class="node">
<title>Node23</title>
<g id="a_Node000023"><a xlink:title=" ">
<polygon fill="#e0e0e0" stroke="#999999" points="430.5,-239 337.5,-239 337.5,-220 430.5,-220 430.5,-239"/>
<text text-anchor="middle" x="384" y="-227" font-family="Helvetica,sans-Serif" font-size="10.00">unordered_map</text>
</a>
</g>
</g>
<!-- Node21&#45;&gt;Node23 -->
<g id="edge27_Node000021_Node000023" class="edge">
<title>Node21&#45;&gt;Node23</title>
<g id="a_edge27_Node000021_Node000023"><a xlink:title=" ">
<path fill="none" stroke="#63b8ff" d="M404.98,-332.86C379.41,-327.04 352.75,-315.72 337,-294 324.69,-277.01 343.87,-257.65 361.3,-244.82"/>
<polygon fill="#63b8ff" stroke="#63b8ff" points="363.35,-247.66 369.58,-239.09 359.37,-241.91 363.35,-247.66"/>
</a>
</g>
</g>
<!-- Node24 -->
<g id="Node000024" class="node">
<title>Node24</title>
<g id="a_Node000024"><a xlink:href="ConsoleSink_8h.html" target="_top" xlink:title="Concrete implementation of ISink that logs to the console.">
<polygon fill="white" stroke="#666666" points="196.5,-294 39.5,-294 39.5,-275 196.5,-275 196.5,-294"/>
<text text-anchor="middle" x="118" y="-282" font-family="Helvetica,sans-Serif" font-size="10.00">../logger/sinks/ConsoleSink.h</text>
</a>
</g>
</g>
<!-- Node21&#45;&gt;Node24 -->
<g id="edge28_Node000021_Node000024" class="edge">
<title>Node21&#45;&gt;Node24</title>
<g id="a_edge28_Node000021_Node000024"><a xlink:title=" ">
<path fill="none" stroke="#63b8ff" d="M415.96,-329.98C353.04,-320.59 251.89,-305.49 185.18,-295.53"/>
<polygon fill="#63b8ff" stroke="#63b8ff" points="185.6,-292.05 175.19,-294.04 184.56,-298.98 185.6,-292.05"/>
</a>
</g>
</g>
<!-- Node29 -->
<g id="Node000029" class="node">
<title>Node29</title>
<g id="a_Node000029"><a xlink:href="DenseComponentArray_8h.html" target="_top" xlink:title="Provides dense storage for components of a specific type.">
<polygon fill="white" stroke="#666666" points="482.5,-294 345.5,-294 345.5,-275 482.5,-275 482.5,-294"/>
<text text-anchor="middle" x="414" y="-282" font-family="Helvetica,sans-Serif" font-size="10.00">DenseComponentArray.h</text>
</a>
</g>
</g>
<!-- Node21&#45;&gt;Node29 -->
<g id="edge36_Node000021_Node000029" class="edge">
<title>Node21&#45;&gt;Node29</title>
<g id="a_edge36_Node000021_Node000029"><a xlink:title=" ">
<path fill="none" stroke="#63b8ff" d="M463.52,-329.98C454.8,-322.15 441.66,-310.34 431.1,-300.86"/>
<polygon fill="#63b8ff" stroke="#63b8ff" points="433.43,-298.25 423.65,-294.17 428.75,-303.46 433.43,-298.25"/>
</a>
</g>
</g>
<!-- Node30 -->
<g id="Node000030" class="node">
<title>Node30</title>
<g id="a_Node000030"><a xlink:href="IComponentArray_8h.html" target="_top" xlink:title="A data structure built for managing a specific component type.">
<polygon fill="white" stroke="#666666" points="604,-239 494,-239 494,-220 604,-220 604,-239"/>
<text text-anchor="middle" x="549" y="-227" font-family="Helvetica,sans-Serif" font-size="10.00">IComponentArray.h</text>
</a>
</g>
</g>
<!-- Node21&#45;&gt;Node30 -->
<g id="edge41_Node000021_Node000030" class="edge">
<title>Node21&#45;&gt;Node30</title>
<g id="a_edge41_Node000021_Node000030"><a xlink:title=" ">
<path fill="none" stroke="#63b8ff" d="M520.14,-329.95C540.63,-323.64 562.72,-312.75 575,-294 584.64,-279.28 574.51,-260.42 564.21,-247.09"/>
<polygon fill="#63b8ff" stroke="#63b8ff" points="566.72,-244.64 557.62,-239.22 561.36,-249.14 566.72,-244.64"/>
</a>
</g>
</g>
<!-- Node25 -->
<g id="Node000025" class="node">
<title>Node25</title>
<g id="a_Node000025"><a xlink:title=" ">
<polygon fill="#e0e0e0" stroke="#999999" points="213,-239 153,-239 153,-220 213,-220 213,-239"/>
<text text-anchor="middle" x="183" y="-227" font-family="Helvetica,sans-Serif" font-size="10.00">iostream</text>
</a>
</g>
</g>
<!-- Node24&#45;&gt;Node25 -->
<g id="edge29_Node000024_Node000025" class="edge">
<title>Node24&#45;&gt;Node25</title>
<g id="a_edge29_Node000024_Node000025"><a xlink:title=" ">
<path fill="none" stroke="#63b8ff" d="M128.44,-274.98C138.15,-267.07 152.82,-255.11 164.5,-245.58"/>
<polygon fill="#63b8ff" stroke="#63b8ff" points="166.83,-248.2 172.37,-239.17 162.4,-242.78 166.83,-248.2"/>
</a>
</g>
</g>
<!-- Node26 -->
<g id="Node000026" class="node">
<title>Node26</title>
<g id="a_Node000026"><a xlink:href="Logger_8h.html" target="_top" xlink:title="Central static logging interface for the application.">
<polygon fill="white" stroke="#666666" points="134.5,-239 67.5,-239 67.5,-220 134.5,-220 134.5,-239"/>
<text text-anchor="middle" x="101" y="-227" font-family="Helvetica,sans-Serif" font-size="10.00">../Logger.h</text>
</a>
</g>
</g>
<!-- Node24&#45;&gt;Node26 -->
<g id="edge30_Node000024_Node000026" class="edge">
<title>Node24&#45;&gt;Node26</title>
<g id="a_edge30_Node000024_Node000026"><a xlink:title=" ">
<path fill="none" stroke="#63b8ff" d="M115.19,-274.75C112.94,-267.72 109.7,-257.62 106.88,-248.84"/>
<polygon fill="#63b8ff" stroke="#63b8ff" points="110.14,-247.54 103.75,-239.09 103.48,-249.68 110.14,-247.54"/>
</a>
</g>
</g>
<!-- Node28 -->
<g id="Node000028" class="node">
<title>Node28</title>
<g id="a_Node000028"><a xlink:href="ISink_8h.html" target="_top" xlink:title="Declares the logging sink interface.">
<polygon fill="white" stroke="#666666" points="78,-184 0,-184 0,-165 78,-165 78,-184"/>
<text text-anchor="middle" x="39" y="-172" font-family="Helvetica,sans-Serif" font-size="10.00">sinks/ISink.h</text>
</a>
</g>
</g>
<!-- Node24&#45;&gt;Node28 -->
<g id="edge35_Node000024_Node000028" class="edge">
<title>Node24&#45;&gt;Node28</title>
<g id="a_edge35_Node000024_Node000028"><a xlink:title=" ">
<path fill="none" stroke="#63b8ff" d="M101.13,-274.97C87.6,-267.3 69.1,-254.82 58,-239 48.6,-225.6 43.78,-207.5 41.36,-194.05"/>
<polygon fill="#63b8ff" stroke="#63b8ff" points="44.8,-193.41 39.83,-184.05 37.88,-194.47 44.8,-193.41"/>
</a>
</g>
</g>
<!-- Node26&#45;&gt;Node2 -->
<g id="edge31_Node000026_Node000002" class="edge">
<title>Node26&#45;&gt;Node2</title>
<g id="a_edge31_Node000026_Node000002"><a xlink:title=" ">
<path fill="none" stroke="#63b8ff" d="M123.49,-219.98C146.52,-211.27 182.54,-197.63 208.63,-187.75"/>
<polygon fill="#63b8ff" stroke="#63b8ff" points="209.98,-190.98 218.1,-184.17 207.51,-184.44 209.98,-190.98"/>
</a>
</g>
</g>
<!-- Node27 -->
<g id="Node000027" class="node">
<title>Node27</title>
<g id="a_Node000027"><a xlink:title=" ">
<polygon fill="#e0e0e0" stroke="#999999" points="109.5,-129 36.5,-129 36.5,-110 109.5,-110 109.5,-129"/>
<text text-anchor="middle" x="73" y="-117" font-family="Helvetica,sans-Serif" font-size="10.00">string_view</text>
</a>
</g>
</g>
<!-- Node26&#45;&gt;Node27 -->
<g id="edge32_Node000026_Node000027" class="edge">
<title>Node26&#45;&gt;Node27</title>
<g id="a_edge32_Node000026_Node000027"><a xlink:title=" ">
<path fill="none" stroke="#63b8ff" d="M99.34,-219.81C96.93,-207.53 92.18,-184.41 87,-165 84.7,-156.39 81.79,-146.97 79.22,-139.01"/>
<polygon fill="#63b8ff" stroke="#63b8ff" points="82.48,-137.7 76.02,-129.3 75.83,-139.89 82.48,-137.7"/>
</a>
</g>
</g>
<!-- Node26&#45;&gt;Node28 -->
<g id="edge33_Node000026_Node000028" class="edge">
<title>Node26&#45;&gt;Node28</title>
<g id="a_edge33_Node000026_Node000028"><a xlink:title=" ">
<path fill="none" stroke="#63b8ff" d="M91.04,-219.98C81.87,-212.15 68.06,-200.34 56.97,-190.86"/>
<polygon fill="#63b8ff" stroke="#63b8ff" points="59.02,-188.01 49.14,-184.17 54.47,-193.33 59.02,-188.01"/>
</a>
</g>
</g>
<!-- Node28&#45;&gt;Node27 -->
<g id="edge34_Node000028_Node000027" class="edge">
<title>Node28&#45;&gt;Node27</title>
<g id="a_edge34_Node000028_Node000027"><a xlink:title=" ">
<path fill="none" stroke="#63b8ff" d="M44.61,-164.75C49.32,-157.42 56.17,-146.73 61.97,-137.7"/>
<polygon fill="#63b8ff" stroke="#63b8ff" points="65.04,-139.4 67.49,-129.09 59.14,-135.62 65.04,-139.4"/>
</a>
</g>
</g>
<!-- Node29&#45;&gt;Node23 -->
<g id="edge39_Node000029_Node000023" class="edge">
<title>Node29&#45;&gt;Node23</title>
<g id="a_edge39_Node000029_Node000023"><a xlink:title=" ">
<path fill="none" stroke="#63b8ff" d="M409.05,-274.75C404.94,-267.49 398.97,-256.95 393.9,-247.98"/>
<polygon fill="#63b8ff" stroke="#63b8ff" points="396.83,-246.07 388.86,-239.09 390.74,-249.52 396.83,-246.07"/>
</a>
</g>
</g>
<!-- Node29&#45;&gt;Node30 -->
<g id="edge37_Node000029_Node000030" class="edge">
<title>Node29&#45;&gt;Node30</title>
<g id="a_edge37_Node000029_Node000030"><a xlink:title=" ">
<path fill="none" stroke="#63b8ff" d="M435.69,-274.98C457.8,-266.3 492.32,-252.75 517.45,-242.88"/>
<polygon fill="#63b8ff" stroke="#63b8ff" points="518.89,-246.08 526.92,-239.17 516.33,-239.57 518.89,-246.08"/>
</a>
</g>
</g>
<!-- Node30&#45;&gt;Node5 -->
<g id="edge38_Node000030_Node000005" class="edge">
<title>Node30&#45;&gt;Node5</title>
<g id="a_edge38_Node000030_Node000005"><a xlink:title=" ">
<path fill="none" stroke="#63b8ff" d="M557.35,-219.66C574.54,-201.46 614.12,-159.55 635.92,-136.47"/>
<polygon fill="#63b8ff" stroke="#63b8ff" points="638.5,-138.83 642.82,-129.16 633.41,-134.03 638.5,-138.83"/>
</a>
</g>
</g>
</g>
</svg>
