<?xml version="1.0" encoding="UTF-8" standalone="no"?>
<!DOCTYPE svg PUBLIC "-//W3C//DTD SVG 1.1//EN"
 "http://www.w3.org/Graphics/SVG/1.1/DTD/svg11.dtd">
<!-- Generated by graphviz version 2.43.0 (0)
 -->
<!-- Title: IBindingMap.h Pages: 1 -->
<svg width="628pt" height="137pt"
 viewBox="0.00 0.00 627.50 137.00" xmlns="http://www.w3.org/2000/svg" xmlns:xlink="http://www.w3.org/1999/xlink">
<g id="graph0" class="graph" transform="scale(1 1) rotate(0) translate(4 133)">
<title>IBindingMap.h</title>
<!-- Node1 -->
<g id="Node000001" class="node">
<title>Node1</title>
<g id="a_Node000001"><a xlink:title="Represents a source of loadable and saveable bindings.">
<polygon fill="#999999" stroke="#666666" points="193,-129 107,-129 107,-110 193,-110 193,-129"/>
<text text-anchor="middle" x="150" y="-117" font-family="Helvetica,sans-Serif" font-size="10.00">IBindingMap.h</text>
</a>
</g>
</g>
<!-- Node2 -->
<g id="Node000002" class="node">
<title>Node2</title>
<g id="a_Node000002"><a xlink:title=" ">
<polygon fill="#e0e0e0" stroke="#999999" points="44,-19 0,-19 0,0 44,0 44,-19"/>
<text text-anchor="middle" x="22" y="-7" font-family="Helvetica,sans-Serif" font-size="10.00">string</text>
</a>
</g>
</g>
<!-- Node1&#45;&gt;Node2 -->
<g id="edge1_Node000001_Node000002" class="edge">
<title>Node1&#45;&gt;Node2</title>
<g id="a_edge1_Node000001_Node000002"><a xlink:title=" ">
<path fill="none" stroke="#63b8ff" d="M139.53,-109.66C117.76,-91.3 67.41,-48.81 40.21,-25.87"/>
<polygon fill="#63b8ff" stroke="#63b8ff" points="42.16,-22.93 32.26,-19.16 37.65,-28.28 42.16,-22.93"/>
</a>
</g>
</g>
<!-- Node3 -->
<g id="Node000003" class="node">
<title>Node3</title>
<g id="a_Node000003"><a xlink:href="InputAction_8h.html" target="_top" xlink:title="Defines a list of bindable player actions.">
<polygon fill="white" stroke="#666666" points="190.5,-74 109.5,-74 109.5,-55 190.5,-55 190.5,-74"/>
<text text-anchor="middle" x="150" y="-62" font-family="Helvetica,sans-Serif" font-size="10.00">InputAction.h</text>
</a>
</g>
</g>
<!-- Node1&#45;&gt;Node3 -->
<g id="edge2_Node000001_Node000003" class="edge">
<title>Node1&#45;&gt;Node3</title>
<g id="a_edge2_Node000001_Node000003"><a xlink:title=" ">
<path fill="none" stroke="#63b8ff" d="M150,-109.75C150,-102.8 150,-92.85 150,-84.13"/>
<polygon fill="#63b8ff" stroke="#63b8ff" points="153.5,-84.09 150,-74.09 146.5,-84.09 153.5,-84.09"/>
</a>
</g>
</g>
<!-- Node4 -->
<g id="Node000004" class="node">
<title>Node4</title>
<g id="a_Node000004"><a xlink:href="InputCode_8h.html" target="_top" xlink:title="Defines a unified abstraction for all input bindings.">
<polygon fill="white" stroke="#666666" points="302.5,-74 227.5,-74 227.5,-55 302.5,-55 302.5,-74"/>
<text text-anchor="middle" x="265" y="-62" font-family="Helvetica,sans-Serif" font-size="10.00">InputCode.h</text>
</a>
</g>
</g>
<!-- Node1&#45;&gt;Node4 -->
<g id="edge3_Node000001_Node000004" class="edge">
<title>Node1&#45;&gt;Node4</title>
<g id="a_edge3_Node000001_Node000004"><a xlink:title=" ">
<path fill="none" stroke="#63b8ff" d="M168.48,-109.98C186.98,-101.46 215.68,-88.23 236.98,-78.41"/>
<polygon fill="#63b8ff" stroke="#63b8ff" points="238.57,-81.53 246.19,-74.17 235.64,-75.18 238.57,-81.53"/>
</a>
</g>
</g>
<!-- Node4&#45;&gt;Node2 -->
<g id="edge8_Node000004_Node000002" class="edge">
<title>Node4&#45;&gt;Node2</title>
<g id="a_edge8_Node000004_Node000002"><a xlink:title=" ">
<path fill="none" stroke="#63b8ff" d="M227.32,-56.31C186.8,-48.42 120.28,-35.01 54.07,-19.15"/>
<polygon fill="#63b8ff" stroke="#63b8ff" points="54.85,-15.74 44.31,-16.79 53.21,-22.54 54.85,-15.74"/>
</a>
</g>
</g>
<!-- Node5 -->
<g id="Node000005" class="node">
<title>Node5</title>
<g id="a_Node000005"><a xlink:title=" ">
<polygon fill="#e0e0e0" stroke="#999999" points="185.5,-19 62.5,-19 62.5,0 185.5,0 185.5,-19"/>
<text text-anchor="middle" x="124" y="-7" font-family="Helvetica,sans-Serif" font-size="10.00">SDL3/SDL_gamepad.h</text>
</a>
</g>
</g>
<!-- Node4&#45;&gt;Node5 -->
<g id="edge4_Node000004_Node000005" class="edge">
<title>Node4&#45;&gt;Node5</title>
<g id="a_edge4_Node000004_Node000005"><a xlink:title=" ">
<path fill="none" stroke="#63b8ff" d="M242.35,-54.98C219.15,-46.27 182.88,-32.63 156.6,-22.75"/>
<polygon fill="#63b8ff" stroke="#63b8ff" points="157.66,-19.41 147.07,-19.17 155.2,-25.97 157.66,-19.41"/>
</a>
</g>
</g>
<!-- Node6 -->
<g id="Node000006" class="node">
<title>Node6</title>
<g id="a_Node000006"><a xlink:title=" ">
<polygon fill="#e0e0e0" stroke="#999999" points="326,-19 204,-19 204,0 326,0 326,-19"/>
<text text-anchor="middle" x="265" y="-7" font-family="Helvetica,sans-Serif" font-size="10.00">SDL3/SDL_keyboard.h</text>
</a>
</g>
</g>
<!-- Node4&#45;&gt;Node6 -->
<g id="edge5_Node000004_Node000006" class="edge">
<title>Node4&#45;&gt;Node6</title>
<g id="a_edge5_Node000004_Node000006"><a xlink:title=" ">
<path fill="none" stroke="#63b8ff" d="M265,-54.75C265,-47.8 265,-37.85 265,-29.13"/>
<polygon fill="#63b8ff" stroke="#63b8ff" points="268.5,-29.09 265,-19.09 261.5,-29.09 268.5,-29.09"/>
</a>
</g>
</g>
<!-- Node7 -->
<g id="Node000007" class="node">
<title>Node7</title>
<g id="a_Node000007"><a xlink:title=" ">
<polygon fill="#e0e0e0" stroke="#999999" points="467.5,-19 344.5,-19 344.5,0 467.5,0 467.5,-19"/>
<text text-anchor="middle" x="406" y="-7" font-family="Helvetica,sans-Serif" font-size="10.00">SDL3/SDL_scancode.h</text>
</a>
</g>
</g>
<!-- Node4&#45;&gt;Node7 -->
<g id="edge6_Node000004_Node000007" class="edge">
<title>Node4&#45;&gt;Node7</title>
<g id="a_edge6_Node000004_Node000007"><a xlink:title=" ">
<path fill="none" stroke="#63b8ff" d="M287.65,-54.98C310.85,-46.27 347.12,-32.63 373.4,-22.75"/>
<polygon fill="#63b8ff" stroke="#63b8ff" points="374.8,-25.97 382.93,-19.17 372.34,-19.41 374.8,-25.97"/>
</a>
</g>
</g>
<!-- Node8 -->
<g id="Node000008" class="node">
<title>Node8</title>
<g id="a_Node000008"><a xlink:title=" ">
<polygon fill="#e0e0e0" stroke="#999999" points="550.5,-19 485.5,-19 485.5,0 550.5,0 550.5,-19"/>
<text text-anchor="middle" x="518" y="-7" font-family="Helvetica,sans-Serif" font-size="10.00">stdexcept</text>
</a>
</g>
</g>
<!-- Node4&#45;&gt;Node8 -->
<g id="edge7_Node000004_Node000008" class="edge">
<title>Node4&#45;&gt;Node8</title>
<g id="a_edge7_Node000004_Node000008"><a xlink:title=" ">
<path fill="none" stroke="#63b8ff" d="M302.6,-55.62C348.87,-45.93 427.21,-29.52 475.58,-19.39"/>
<polygon fill="#63b8ff" stroke="#63b8ff" points="476.35,-22.8 485.42,-17.32 474.92,-15.95 476.35,-22.8"/>
</a>
</g>
</g>
<!-- Node9 -->
<g id="Node000009" class="node">
<title>Node9</title>
<g id="a_Node000009"><a xlink:title=" ">
<polygon fill="#e0e0e0" stroke="#999999" points="619.5,-19 568.5,-19 568.5,0 619.5,0 619.5,-19"/>
<text text-anchor="middle" x="594" y="-7" font-family="Helvetica,sans-Serif" font-size="10.00">variant</text>
</a>
</g>
</g>
<!-- Node4&#45;&gt;Node9 -->
<g id="edge9_Node000004_Node000009" class="edge">
<title>Node4&#45;&gt;Node9</title>
<g id="a_edge9_Node000004_Node000009"><a xlink:title=" ">
<path fill="none" stroke="#63b8ff" d="M302.92,-58.95C357.4,-52.17 461.14,-38.29 558.44,-19.16"/>
<polygon fill="#63b8ff" stroke="#63b8ff" points="559.31,-22.55 568.44,-17.17 557.95,-15.69 559.31,-22.55"/>
</a>
</g>
</g>
</g>
</svg>
