<?xml version="1.0" encoding="UTF-8" standalone="no"?>
<!DOCTYPE svg PUBLIC "-//W3C//DTD SVG 1.1//EN"
 "http://www.w3.org/Graphics/SVG/1.1/DTD/svg11.dtd">
<!-- Generated by graphviz version 2.43.0 (0)
 -->
<!-- Title: ICommand.h Pages: 1 -->
<svg width="440pt" height="247pt"
 viewBox="0.00 0.00 439.50 247.00" xmlns="http://www.w3.org/2000/svg" xmlns:xlink="http://www.w3.org/1999/xlink">
<g id="graph0" class="graph" transform="scale(1 1) rotate(0) translate(4 243)">
<title>ICommand.h</title>
<!-- Node1 -->
<g id="Node000001" class="node">
<title>Node1</title>
<g id="a_Node000001"><a xlink:title="An abstract representation of an action to be executed in the game engine.">
<polygon fill="#999999" stroke="#666666" points="306.5,-239 227.5,-239 227.5,-220 306.5,-220 306.5,-239"/>
<text text-anchor="middle" x="267" y="-227" font-family="Helvetica,sans-Serif" font-size="10.00">ICommand.h</text>
</a>
</g>
</g>
<!-- Node2 -->
<g id="Node000002" class="node">
<title>Node2</title>
<g id="a_Node000002"><a xlink:href="ICommandQueue_8h.html" target="_top" xlink:title="A lightweight wrapper for queuing commands.">
<polygon fill="white" stroke="#666666" points="281,-184 171,-184 171,-165 281,-165 281,-184"/>
<text text-anchor="middle" x="226" y="-172" font-family="Helvetica,sans-Serif" font-size="10.00">ICommandQueue.h</text>
</a>
</g>
</g>
<!-- Node1&#45;&gt;Node2 -->
<g id="edge1_Node000001_Node000002" class="edge">
<title>Node1&#45;&gt;Node2</title>
<g id="a_edge1_Node000001_Node000002"><a xlink:title=" ">
<path fill="none" stroke="#63b8ff" d="M253.98,-211.67C246.88,-202.5 238.4,-191.52 232.64,-184.09"/>
<polygon fill="#63b8ff" stroke="#63b8ff" points="251.34,-213.98 260.23,-219.75 256.88,-209.7 251.34,-213.98"/>
</a>
</g>
</g>
<!-- Node7 -->
<g id="Node000007" class="node">
<title>Node7</title>
<g id="a_Node000007"><a xlink:href="PlayerMoveCommand_8h.html" target="_top" xlink:title="A command for triggering player (paddle) movement.">
<polygon fill="white" stroke="#666666" points="426,-74 292,-74 292,-55 426,-55 426,-74"/>
<text text-anchor="middle" x="359" y="-62" font-family="Helvetica,sans-Serif" font-size="10.00">PlayerMoveCommand.h</text>
</a>
</g>
</g>
<!-- Node1&#45;&gt;Node7 -->
<g id="edge13_Node000001_Node000007" class="edge">
<title>Node1&#45;&gt;Node7</title>
<g id="a_edge13_Node000001_Node000007"><a xlink:title=" ">
<path fill="none" stroke="#63b8ff" d="M281.4,-212.15C297.39,-193.27 323.06,-160.72 339,-129 348.34,-110.41 354.44,-86.57 357.23,-74.05"/>
<polygon fill="#63b8ff" stroke="#63b8ff" points="278.68,-209.95 274.8,-219.81 283.98,-214.52 278.68,-209.95"/>
</a>
</g>
</g>
<!-- Node3 -->
<g id="Node000003" class="node">
<title>Node3</title>
<g id="a_Node000003"><a xlink:href="CommandQueue_8h.html" target="_top" xlink:title="Concrete implementation of ICommandQueue.">
<polygon fill="white" stroke="#666666" points="229.5,-129 122.5,-129 122.5,-110 229.5,-110 229.5,-129"/>
<text text-anchor="middle" x="176" y="-117" font-family="Helvetica,sans-Serif" font-size="10.00">CommandQueue.h</text>
</a>
</g>
</g>
<!-- Node2&#45;&gt;Node3 -->
<g id="edge2_Node000002_Node000003" class="edge">
<title>Node2&#45;&gt;Node3</title>
<g id="a_edge2_Node000002_Node000003"><a xlink:title=" ">
<path fill="none" stroke="#63b8ff" d="M210.66,-157.24C201.9,-147.95 191.26,-136.68 184.1,-129.09"/>
<polygon fill="#63b8ff" stroke="#63b8ff" points="208.34,-159.88 217.74,-164.75 213.43,-155.07 208.34,-159.88"/>
</a>
</g>
</g>
<!-- Node6 -->
<g id="Node000006" class="node">
<title>Node6</title>
<g id="a_Node000006"><a xlink:href="GameWorld_8h.html" target="_top" xlink:title="Defines the concrete game world used by the main loop.">
<polygon fill="white" stroke="#666666" points="330.5,-129 247.5,-129 247.5,-110 330.5,-110 330.5,-129"/>
<text text-anchor="middle" x="289" y="-117" font-family="Helvetica,sans-Serif" font-size="10.00">GameWorld.h</text>
</a>
</g>
</g>
<!-- Node2&#45;&gt;Node6 -->
<g id="edge5_Node000002_Node000006" class="edge">
<title>Node2&#45;&gt;Node6</title>
<g id="a_edge5_Node000002_Node000006"><a xlink:title=" ">
<path fill="none" stroke="#63b8ff" d="M244.04,-158.32C255.27,-148.87 269.32,-137.06 278.69,-129.17"/>
<polygon fill="#63b8ff" stroke="#63b8ff" points="241.52,-155.87 236.12,-164.98 246.03,-161.23 241.52,-155.87"/>
</a>
</g>
</g>
<!-- Node10 -->
<g id="Node000010" class="node">
<title>Node10</title>
<g id="a_Node000010"><a xlink:href="InputNormalizer_8h.html" target="_top" xlink:title="Concrete implementation of InputNormalizer.">
<polygon fill="white" stroke="#666666" points="104,-129 0,-129 0,-110 104,-110 104,-129"/>
<text text-anchor="middle" x="52" y="-117" font-family="Helvetica,sans-Serif" font-size="10.00">InputNormalizer.h</text>
</a>
</g>
</g>
<!-- Node2&#45;&gt;Node10 -->
<g id="edge10_Node000002_Node000010" class="edge">
<title>Node2&#45;&gt;Node10</title>
<g id="a_edge10_Node000002_Node000010"><a xlink:title=" ">
<path fill="none" stroke="#63b8ff" d="M188.43,-162.06C155.91,-152.15 109.6,-138.04 80.18,-129.08"/>
<polygon fill="#63b8ff" stroke="#63b8ff" points="187.46,-165.42 198.04,-164.98 189.5,-158.72 187.46,-165.42"/>
</a>
</g>
</g>
<!-- Node4 -->
<g id="Node000004" class="node">
<title>Node4</title>
<g id="a_Node000004"><a xlink:href="CommandQueue_8cpp.html" target="_top" xlink:title=" ">
<polygon fill="white" stroke="#666666" points="273.5,-74 154.5,-74 154.5,-55 273.5,-55 273.5,-74"/>
<text text-anchor="middle" x="214" y="-62" font-family="Helvetica,sans-Serif" font-size="10.00">CommandQueue.cpp</text>
</a>
</g>
</g>
<!-- Node3&#45;&gt;Node4 -->
<g id="edge3_Node000003_Node000004" class="edge">
<title>Node3&#45;&gt;Node4</title>
<g id="a_edge3_Node000003_Node000004"><a xlink:title=" ">
<path fill="none" stroke="#63b8ff" d="M188.27,-101.39C194.81,-92.27 202.57,-81.45 207.84,-74.09"/>
<polygon fill="#63b8ff" stroke="#63b8ff" points="185.26,-99.58 182.27,-109.75 190.95,-103.66 185.26,-99.58"/>
</a>
</g>
</g>
<!-- Node5 -->
<g id="Node000005" class="node">
<title>Node5</title>
<g id="a_Node000005"><a xlink:href="main_8cpp.html" target="_top" xlink:title=" ">
<polygon fill="white" stroke="#666666" points="136,-74 74,-74 74,-55 136,-55 136,-74"/>
<text text-anchor="middle" x="105" y="-62" font-family="Helvetica,sans-Serif" font-size="10.00">main.cpp</text>
</a>
</g>
</g>
<!-- Node3&#45;&gt;Node5 -->
<g id="edge4_Node000003_Node000005" class="edge">
<title>Node3&#45;&gt;Node5</title>
<g id="a_edge4_Node000003_Node000005"><a xlink:title=" ">
<path fill="none" stroke="#63b8ff" d="M156.41,-103.88C143.63,-94.34 127.39,-82.21 116.61,-74.17"/>
<polygon fill="#63b8ff" stroke="#63b8ff" points="154.49,-106.81 164.59,-109.98 158.67,-101.2 154.49,-106.81"/>
</a>
</g>
</g>
<!-- Node6&#45;&gt;Node5 -->
<g id="edge9_Node000006_Node000005" class="edge">
<title>Node6&#45;&gt;Node5</title>
<g id="a_edge9_Node000006_Node000005"><a xlink:title=" ">
<path fill="none" stroke="#63b8ff" d="M249.71,-107.18C215.3,-97.27 166.04,-83.08 134.79,-74.08"/>
<polygon fill="#63b8ff" stroke="#63b8ff" points="248.86,-110.58 259.44,-109.98 250.8,-103.85 248.86,-110.58"/>
</a>
</g>
</g>
<!-- Node6&#45;&gt;Node7 -->
<g id="edge6_Node000006_Node000007" class="edge">
<title>Node6&#45;&gt;Node7</title>
<g id="a_edge6_Node000006_Node000007"><a xlink:title=" ">
<path fill="none" stroke="#63b8ff" d="M308.31,-103.88C320.91,-94.34 336.93,-82.21 347.55,-74.17"/>
<polygon fill="#63b8ff" stroke="#63b8ff" points="306.11,-101.16 300.25,-109.98 310.33,-106.74 306.11,-101.16"/>
</a>
</g>
</g>
<!-- Node8 -->
<g id="Node000008" class="node">
<title>Node8</title>
<g id="a_Node000008"><a xlink:href="InputNormalizer_8cpp.html" target="_top" xlink:title=" ">
<polygon fill="white" stroke="#666666" points="186.5,-19 71.5,-19 71.5,0 186.5,0 186.5,-19"/>
<text text-anchor="middle" x="129" y="-7" font-family="Helvetica,sans-Serif" font-size="10.00">InputNormalizer.cpp</text>
</a>
</g>
</g>
<!-- Node7&#45;&gt;Node8 -->
<g id="edge7_Node000007_Node000008" class="edge">
<title>Node7&#45;&gt;Node8</title>
<g id="a_edge7_Node000007_Node000008"><a xlink:title=" ">
<path fill="none" stroke="#63b8ff" d="M312.09,-52.69C269,-42.76 205.97,-28.24 166.24,-19.08"/>
<polygon fill="#63b8ff" stroke="#63b8ff" points="311.52,-56.15 322.05,-54.98 313.09,-49.33 311.52,-56.15"/>
</a>
</g>
</g>
<!-- Node9 -->
<g id="Node000009" class="node">
<title>Node9</title>
<g id="a_Node000009"><a xlink:href="PlayerMoveCommand_8cpp.html" target="_top" xlink:title=" ">
<polygon fill="white" stroke="#666666" points="431.5,-19 286.5,-19 286.5,0 431.5,0 431.5,-19"/>
<text text-anchor="middle" x="359" y="-7" font-family="Helvetica,sans-Serif" font-size="10.00">PlayerMoveCommand.cpp</text>
</a>
</g>
</g>
<!-- Node7&#45;&gt;Node9 -->
<g id="edge8_Node000007_Node000009" class="edge">
<title>Node7&#45;&gt;Node9</title>
<g id="a_edge8_Node000007_Node000009"><a xlink:title=" ">
<path fill="none" stroke="#63b8ff" d="M359,-44.66C359,-35.93 359,-25.99 359,-19.09"/>
<polygon fill="#63b8ff" stroke="#63b8ff" points="355.5,-44.75 359,-54.75 362.5,-44.75 355.5,-44.75"/>
</a>
</g>
</g>
<!-- Node10&#45;&gt;Node5 -->
<g id="edge12_Node000010_Node000005" class="edge">
<title>Node10&#45;&gt;Node5</title>
<g id="a_edge12_Node000010_Node000005"><a xlink:title=" ">
<path fill="none" stroke="#63b8ff" d="M67.98,-102.52C77.32,-93.18 88.75,-81.75 96.41,-74.09"/>
<polygon fill="#63b8ff" stroke="#63b8ff" points="65.35,-100.2 60.75,-109.75 70.3,-105.15 65.35,-100.2"/>
</a>
</g>
</g>
<!-- Node10&#45;&gt;Node8 -->
<g id="edge11_Node000010_Node000008" class="edge">
<title>Node10&#45;&gt;Node8</title>
<g id="a_edge11_Node000010_Node000008"><a xlink:title=" ">
<path fill="none" stroke="#63b8ff" d="M52.2,-99.93C53.16,-86.47 56.2,-68.36 65,-55 75.8,-38.61 94.89,-26.51 109.43,-19.1"/>
<polygon fill="#63b8ff" stroke="#63b8ff" points="48.71,-99.81 51.81,-109.94 55.7,-100.08 48.71,-99.81"/>
</a>
</g>
</g>
</g>
</svg>
