<?xml version="1.0" encoding="UTF-8" standalone="no"?>
<!DOCTYPE svg PUBLIC "-//W3C//DTD SVG 1.1//EN"
 "http://www.w3.org/Graphics/SVG/1.1/DTD/svg11.dtd">
<!-- Generated by graphviz version 2.43.0 (0)
 -->
<!-- Title: IComponentManager.h Pages: 1 -->
<svg width="599pt" height="302pt"
 viewBox="0.00 0.00 599.00 302.00" xmlns="http://www.w3.org/2000/svg" xmlns:xlink="http://www.w3.org/1999/xlink">
<g id="graph0" class="graph" transform="scale(1 1) rotate(0) translate(4 298)">
<title>IComponentManager.h</title>
<!-- Node1 -->
<g id="Node000001" class="node">
<title>Node1</title>
<g id="a_Node000001"><a xlink:title="System for managing components and their relationship to specific entities.">
<polygon fill="#999999" stroke="#666666" points="404.5,-294 277.5,-294 277.5,-275 404.5,-275 404.5,-294"/>
<text text-anchor="middle" x="341" y="-282" font-family="Helvetica,sans-Serif" font-size="10.00">IComponentManager.h</text>
</a>
</g>
</g>
<!-- Node2 -->
<g id="Node000002" class="node">
<title>Node2</title>
<g id="a_Node000002"><a xlink:title=" ">
<polygon fill="#e0e0e0" stroke="#999999" points="58,-129 0,-129 0,-110 58,-110 58,-129"/>
<text text-anchor="middle" x="29" y="-117" font-family="Helvetica,sans-Serif" font-size="10.00">memory</text>
</a>
</g>
</g>
<!-- Node1&#45;&gt;Node2 -->
<g id="edge1_Node000001_Node000002" class="edge">
<title>Node1&#45;&gt;Node2</title>
<g id="a_edge1_Node000001_Node000002"><a xlink:title=" ">
<path fill="none" stroke="#63b8ff" d="M277.39,-280.87C205.51,-276.62 94.41,-265.82 63,-239 33.79,-214.06 28.82,-165.86 28.47,-139.26"/>
<polygon fill="#63b8ff" stroke="#63b8ff" points="31.97,-139.05 28.55,-129.02 24.97,-138.99 31.97,-139.05"/>
</a>
</g>
</g>
<!-- Node3 -->
<g id="Node000003" class="node">
<title>Node3</title>
<g id="a_Node000003"><a xlink:title=" ">
<polygon fill="#e0e0e0" stroke="#999999" points="312.5,-239 247.5,-239 247.5,-220 312.5,-220 312.5,-239"/>
<text text-anchor="middle" x="280" y="-227" font-family="Helvetica,sans-Serif" font-size="10.00">typeindex</text>
</a>
</g>
</g>
<!-- Node1&#45;&gt;Node3 -->
<g id="edge2_Node000001_Node000003" class="edge">
<title>Node1&#45;&gt;Node3</title>
<g id="a_edge2_Node000001_Node000003"><a xlink:title=" ">
<path fill="none" stroke="#63b8ff" d="M331.2,-274.98C322.18,-267.15 308.59,-255.34 297.68,-245.86"/>
<polygon fill="#63b8ff" stroke="#63b8ff" points="299.82,-243.09 289.98,-239.17 295.23,-248.37 299.82,-243.09"/>
</a>
</g>
</g>
<!-- Node4 -->
<g id="Node000004" class="node">
<title>Node4</title>
<g id="a_Node000004"><a xlink:title=" ">
<polygon fill="#e0e0e0" stroke="#999999" points="462.5,-184 369.5,-184 369.5,-165 462.5,-165 462.5,-184"/>
<text text-anchor="middle" x="416" y="-172" font-family="Helvetica,sans-Serif" font-size="10.00">unordered_map</text>
</a>
</g>
</g>
<!-- Node1&#45;&gt;Node4 -->
<g id="edge3_Node000001_Node000004" class="edge">
<title>Node1&#45;&gt;Node4</title>
<g id="a_edge3_Node000001_Node000004"><a xlink:title=" ">
<path fill="none" stroke="#63b8ff" d="M347.14,-274.66C359.62,-256.69 388.12,-215.64 404.28,-192.38"/>
<polygon fill="#63b8ff" stroke="#63b8ff" points="407.16,-194.37 409.99,-184.16 401.41,-190.38 407.16,-194.37"/>
</a>
</g>
</g>
<!-- Node5 -->
<g id="Node000005" class="node">
<title>Node5</title>
<g id="a_Node000005"><a xlink:href="ConsoleSink_8h.html" target="_top" xlink:title="Concrete implementation of ISink that logs to the console.">
<polygon fill="white" stroke="#666666" points="229.5,-239 72.5,-239 72.5,-220 229.5,-220 229.5,-239"/>
<text text-anchor="middle" x="151" y="-227" font-family="Helvetica,sans-Serif" font-size="10.00">../logger/sinks/ConsoleSink.h</text>
</a>
</g>
</g>
<!-- Node1&#45;&gt;Node5 -->
<g id="edge4_Node000001_Node000005" class="edge">
<title>Node1&#45;&gt;Node5</title>
<g id="a_edge4_Node000001_Node000005"><a xlink:title=" ">
<path fill="none" stroke="#63b8ff" d="M310.47,-274.98C278.3,-266.01 227.44,-251.82 191.83,-241.89"/>
<polygon fill="#63b8ff" stroke="#63b8ff" points="192.34,-238.4 181.77,-239.08 190.46,-245.14 192.34,-238.4"/>
</a>
</g>
</g>
<!-- Node10 -->
<g id="Node000010" class="node">
<title>Node10</title>
<g id="a_Node000010"><a xlink:href="DenseComponentArray_8h.html" target="_top" xlink:title="Provides dense storage for components of a specific type.">
<polygon fill="white" stroke="#666666" points="544.5,-239 407.5,-239 407.5,-220 544.5,-220 544.5,-239"/>
<text text-anchor="middle" x="476" y="-227" font-family="Helvetica,sans-Serif" font-size="10.00">DenseComponentArray.h</text>
</a>
</g>
</g>
<!-- Node1&#45;&gt;Node10 -->
<g id="edge12_Node000001_Node000010" class="edge">
<title>Node1&#45;&gt;Node10</title>
<g id="a_edge12_Node000001_Node000010"><a xlink:title=" ">
<path fill="none" stroke="#63b8ff" d="M362.69,-274.98C384.8,-266.3 419.32,-252.75 444.45,-242.88"/>
<polygon fill="#63b8ff" stroke="#63b8ff" points="445.89,-246.08 453.92,-239.17 443.33,-239.57 445.89,-246.08"/>
</a>
</g>
</g>
<!-- Node11 -->
<g id="Node000011" class="node">
<title>Node11</title>
<g id="a_Node000011"><a xlink:href="IComponentArray_8h.html" target="_top" xlink:title="A data structure built for managing a specific component type.">
<polygon fill="white" stroke="#666666" points="591,-184 481,-184 481,-165 591,-165 591,-184"/>
<text text-anchor="middle" x="536" y="-172" font-family="Helvetica,sans-Serif" font-size="10.00">IComponentArray.h</text>
</a>
</g>
</g>
<!-- Node1&#45;&gt;Node11 -->
<g id="edge22_Node000001_Node000011" class="edge">
<title>Node1&#45;&gt;Node11</title>
<g id="a_edge22_Node000001_Node000011"><a xlink:title=" ">
<path fill="none" stroke="#63b8ff" d="M404.61,-278.9C460.39,-273.39 535.42,-261.87 554,-239 564.69,-225.85 557.02,-206.7 548.64,-192.88"/>
<polygon fill="#63b8ff" stroke="#63b8ff" points="551.39,-190.69 542.94,-184.29 545.56,-194.56 551.39,-190.69"/>
</a>
</g>
</g>
<!-- Node12 -->
<g id="Node000012" class="node">
<title>Node12</title>
<g id="a_Node000012"><a xlink:href="Entity_8h.html" target="_top" xlink:title="Simple struct for Entity in the ECS module (includes version)">
<polygon fill="white" stroke="#666666" points="376.5,-129 323.5,-129 323.5,-110 376.5,-110 376.5,-129"/>
<text text-anchor="middle" x="350" y="-117" font-family="Helvetica,sans-Serif" font-size="10.00">Entity.h</text>
</a>
</g>
</g>
<!-- Node1&#45;&gt;Node12 -->
<g id="edge21_Node000001_Node000012" class="edge">
<title>Node1&#45;&gt;Node12</title>
<g id="a_edge21_Node000001_Node000012"><a xlink:title=" ">
<path fill="none" stroke="#63b8ff" d="M341.48,-274.74C342.89,-249.31 346.99,-175.08 348.94,-139.69"/>
<polygon fill="#63b8ff" stroke="#63b8ff" points="352.46,-139.48 349.51,-129.31 345.47,-139.1 352.46,-139.48"/>
</a>
</g>
</g>
<!-- Node6 -->
<g id="Node000006" class="node">
<title>Node6</title>
<g id="a_Node000006"><a xlink:title=" ">
<polygon fill="#e0e0e0" stroke="#999999" points="200,-184 140,-184 140,-165 200,-165 200,-184"/>
<text text-anchor="middle" x="170" y="-172" font-family="Helvetica,sans-Serif" font-size="10.00">iostream</text>
</a>
</g>
</g>
<!-- Node5&#45;&gt;Node6 -->
<g id="edge5_Node000005_Node000006" class="edge">
<title>Node5&#45;&gt;Node6</title>
<g id="a_edge5_Node000005_Node000006"><a xlink:title=" ">
<path fill="none" stroke="#63b8ff" d="M154.14,-219.75C156.68,-212.65 160.36,-202.4 163.53,-193.56"/>
<polygon fill="#63b8ff" stroke="#63b8ff" points="166.84,-194.68 166.92,-184.09 160.25,-192.32 166.84,-194.68"/>
</a>
</g>
</g>
<!-- Node7 -->
<g id="Node000007" class="node">
<title>Node7</title>
<g id="a_Node000007"><a xlink:href="Logger_8h.html" target="_top" xlink:title="Central static logging interface for the application.">
<polygon fill="white" stroke="#666666" points="121.5,-184 54.5,-184 54.5,-165 121.5,-165 121.5,-184"/>
<text text-anchor="middle" x="88" y="-172" font-family="Helvetica,sans-Serif" font-size="10.00">../Logger.h</text>
</a>
</g>
</g>
<!-- Node5&#45;&gt;Node7 -->
<g id="edge6_Node000005_Node000007" class="edge">
<title>Node5&#45;&gt;Node7</title>
<g id="a_edge6_Node000005_Node000007"><a xlink:title=" ">
<path fill="none" stroke="#63b8ff" d="M140.88,-219.98C131.56,-212.15 117.53,-200.34 106.26,-190.86"/>
<polygon fill="#63b8ff" stroke="#63b8ff" points="108.21,-187.93 98.31,-184.17 103.71,-193.29 108.21,-187.93"/>
</a>
</g>
</g>
<!-- Node9 -->
<g id="Node000009" class="node">
<title>Node9</title>
<g id="a_Node000009"><a xlink:href="ISink_8h.html" target="_top" xlink:title="Declares the logging sink interface.">
<polygon fill="white" stroke="#666666" points="194,-129 116,-129 116,-110 194,-110 194,-129"/>
<text text-anchor="middle" x="155" y="-117" font-family="Helvetica,sans-Serif" font-size="10.00">sinks/ISink.h</text>
</a>
</g>
</g>
<!-- Node5&#45;&gt;Node9 -->
<g id="edge11_Node000005_Node000009" class="edge">
<title>Node5&#45;&gt;Node9</title>
<g id="a_edge11_Node000005_Node000009"><a xlink:title=" ">
<path fill="none" stroke="#63b8ff" d="M169.67,-219.97C183.33,-212.59 200.86,-200.5 209,-184 218.52,-164.7 198.77,-146.4 180.53,-134.45"/>
<polygon fill="#63b8ff" stroke="#63b8ff" points="182.19,-131.36 171.84,-129.12 178.53,-137.33 182.19,-131.36"/>
</a>
</g>
</g>
<!-- Node7&#45;&gt;Node2 -->
<g id="edge7_Node000007_Node000002" class="edge">
<title>Node7&#45;&gt;Node2</title>
<g id="a_edge7_Node000007_Node000002"><a xlink:title=" ">
<path fill="none" stroke="#63b8ff" d="M78.52,-164.98C69.8,-157.15 56.66,-145.34 46.1,-135.86"/>
<polygon fill="#63b8ff" stroke="#63b8ff" points="48.43,-133.25 38.65,-129.17 43.75,-138.46 48.43,-133.25"/>
</a>
</g>
</g>
<!-- Node8 -->
<g id="Node000008" class="node">
<title>Node8</title>
<g id="a_Node000008"><a xlink:title=" ">
<polygon fill="#e0e0e0" stroke="#999999" points="181.5,-74 108.5,-74 108.5,-55 181.5,-55 181.5,-74"/>
<text text-anchor="middle" x="145" y="-62" font-family="Helvetica,sans-Serif" font-size="10.00">string_view</text>
</a>
</g>
</g>
<!-- Node7&#45;&gt;Node8 -->
<g id="edge8_Node000007_Node000008" class="edge">
<title>Node7&#45;&gt;Node8</title>
<g id="a_edge8_Node000007_Node000008"><a xlink:title=" ">
<path fill="none" stroke="#63b8ff" d="M89.41,-164.84C91.72,-152.19 97.09,-128.19 107,-110 112.69,-99.56 121.11,-89.37 128.59,-81.38"/>
<polygon fill="#63b8ff" stroke="#63b8ff" points="131.12,-83.79 135.61,-74.19 126.11,-78.9 131.12,-83.79"/>
</a>
</g>
</g>
<!-- Node7&#45;&gt;Node9 -->
<g id="edge9_Node000007_Node000009" class="edge">
<title>Node7&#45;&gt;Node9</title>
<g id="a_edge9_Node000007_Node000009"><a xlink:title=" ">
<path fill="none" stroke="#63b8ff" d="M98.76,-164.98C108.77,-157.07 123.89,-145.11 135.93,-135.58"/>
<polygon fill="#63b8ff" stroke="#63b8ff" points="138.37,-138.12 144.04,-129.17 134.03,-132.63 138.37,-138.12"/>
</a>
</g>
</g>
<!-- Node9&#45;&gt;Node8 -->
<g id="edge10_Node000009_Node000008" class="edge">
<title>Node9&#45;&gt;Node8</title>
<g id="a_edge10_Node000009_Node000008"><a xlink:title=" ">
<path fill="none" stroke="#63b8ff" d="M153.35,-109.75C152.04,-102.8 150.16,-92.85 148.52,-84.13"/>
<polygon fill="#63b8ff" stroke="#63b8ff" points="151.91,-83.27 146.62,-74.09 145.04,-84.56 151.91,-83.27"/>
</a>
</g>
</g>
<!-- Node10&#45;&gt;Node4 -->
<g id="edge20_Node000010_Node000004" class="edge">
<title>Node10&#45;&gt;Node4</title>
<g id="a_edge20_Node000010_Node000004"><a xlink:title=" ">
<path fill="none" stroke="#63b8ff" d="M466.36,-219.98C457.49,-212.15 444.13,-200.34 433.39,-190.86"/>
<polygon fill="#63b8ff" stroke="#63b8ff" points="435.63,-188.17 425.82,-184.17 430.99,-193.41 435.63,-188.17"/>
</a>
</g>
</g>
<!-- Node10&#45;&gt;Node11 -->
<g id="edge13_Node000010_Node000011" class="edge">
<title>Node10&#45;&gt;Node11</title>
<g id="a_edge13_Node000010_Node000011"><a xlink:title=" ">
<path fill="none" stroke="#63b8ff" d="M485.64,-219.98C494.51,-212.15 507.87,-200.34 518.61,-190.86"/>
<polygon fill="#63b8ff" stroke="#63b8ff" points="521.01,-193.41 526.18,-184.17 516.37,-188.17 521.01,-193.41"/>
</a>
</g>
</g>
<!-- Node11&#45;&gt;Node12 -->
<g id="edge14_Node000011_Node000012" class="edge">
<title>Node11&#45;&gt;Node12</title>
<g id="a_edge14_Node000011_Node000012"><a xlink:title=" ">
<path fill="none" stroke="#63b8ff" d="M506.12,-164.98C473.59,-155.72 421.56,-140.89 386.61,-130.93"/>
<polygon fill="#63b8ff" stroke="#63b8ff" points="387.37,-127.51 376.79,-128.13 385.45,-134.24 387.37,-127.51"/>
</a>
</g>
</g>
<!-- Node13 -->
<g id="Node000013" class="node">
<title>Node13</title>
<g id="a_Node000013"><a xlink:title=" ">
<polygon fill="#e0e0e0" stroke="#999999" points="457,-74 407,-74 407,-55 457,-55 457,-74"/>
<text text-anchor="middle" x="432" y="-62" font-family="Helvetica,sans-Serif" font-size="10.00">cstdint</text>
</a>
</g>
</g>
<!-- Node12&#45;&gt;Node13 -->
<g id="edge15_Node000012_Node000013" class="edge">
<title>Node12&#45;&gt;Node13</title>
<g id="a_edge15_Node000012_Node000013"><a xlink:title=" ">
<path fill="none" stroke="#63b8ff" d="M363.17,-109.98C375.77,-101.84 395,-89.41 409.94,-79.76"/>
<polygon fill="#63b8ff" stroke="#63b8ff" points="412.09,-82.54 418.59,-74.17 408.29,-76.66 412.09,-82.54"/>
</a>
</g>
</g>
<!-- Node14 -->
<g id="Node000014" class="node">
<title>Node14</title>
<g id="a_Node000014"><a xlink:title=" ">
<polygon fill="#e0e0e0" stroke="#999999" points="293.5,-74 228.5,-74 228.5,-55 293.5,-55 293.5,-74"/>
<text text-anchor="middle" x="261" y="-62" font-family="Helvetica,sans-Serif" font-size="10.00">functional</text>
</a>
</g>
</g>
<!-- Node12&#45;&gt;Node14 -->
<g id="edge16_Node000012_Node000014" class="edge">
<title>Node12&#45;&gt;Node14</title>
<g id="a_edge16_Node000012_Node000014"><a xlink:title=" ">
<path fill="none" stroke="#63b8ff" d="M335.7,-109.98C321.9,-101.77 300.76,-89.18 284.49,-79.49"/>
<polygon fill="#63b8ff" stroke="#63b8ff" points="285.94,-76.28 275.56,-74.17 282.36,-82.29 285.94,-76.28"/>
</a>
</g>
</g>
<!-- Node15 -->
<g id="Node000015" class="node">
<title>Node15</title>
<g id="a_Node000015"><a xlink:href="ecs__config_8h.html" target="_top" xlink:title="Configuration constants and type definitions for ECS modules.">
<polygon fill="white" stroke="#666666" points="388.5,-74 311.5,-74 311.5,-55 388.5,-55 388.5,-74"/>
<text text-anchor="middle" x="350" y="-62" font-family="Helvetica,sans-Serif" font-size="10.00">ecs_config.h</text>
</a>
</g>
</g>
<!-- Node12&#45;&gt;Node15 -->
<g id="edge17_Node000012_Node000015" class="edge">
<title>Node12&#45;&gt;Node15</title>
<g id="a_edge17_Node000012_Node000015"><a xlink:title=" ">
<path fill="none" stroke="#63b8ff" d="M350,-109.75C350,-102.8 350,-92.85 350,-84.13"/>
<polygon fill="#63b8ff" stroke="#63b8ff" points="353.5,-84.09 350,-74.09 346.5,-84.09 353.5,-84.09"/>
</a>
</g>
</g>
<!-- Node16 -->
<g id="Node000016" class="node">
<title>Node16</title>
<g id="a_Node000016"><a xlink:title=" ">
<polygon fill="#e0e0e0" stroke="#999999" points="339,-19 295,-19 295,0 339,0 339,-19"/>
<text text-anchor="middle" x="317" y="-7" font-family="Helvetica,sans-Serif" font-size="10.00">bitset</text>
</a>
</g>
</g>
<!-- Node15&#45;&gt;Node16 -->
<g id="edge18_Node000015_Node000016" class="edge">
<title>Node15&#45;&gt;Node16</title>
<g id="a_edge18_Node000015_Node000016"><a xlink:title=" ">
<path fill="none" stroke="#63b8ff" d="M344.55,-54.75C339.99,-47.42 333.33,-36.73 327.71,-27.7"/>
<polygon fill="#63b8ff" stroke="#63b8ff" points="330.6,-25.73 322.35,-19.09 324.66,-29.43 330.6,-25.73"/>
</a>
</g>
</g>
<!-- Node17 -->
<g id="Node000017" class="node">
<title>Node17</title>
<g id="a_Node000017"><a xlink:title=" ">
<polygon fill="#e0e0e0" stroke="#999999" points="410.5,-19 357.5,-19 357.5,0 410.5,0 410.5,-19"/>
<text text-anchor="middle" x="384" y="-7" font-family="Helvetica,sans-Serif" font-size="10.00">cstddef</text>
</a>
</g>
</g>
<!-- Node15&#45;&gt;Node17 -->
<g id="edge19_Node000015_Node000017" class="edge">
<title>Node15&#45;&gt;Node17</title>
<g id="a_edge19_Node000015_Node000017"><a xlink:title=" ">
<path fill="none" stroke="#63b8ff" d="M355.61,-54.75C360.32,-47.42 367.17,-36.73 372.97,-27.7"/>
<polygon fill="#63b8ff" stroke="#63b8ff" points="376.04,-29.4 378.49,-19.09 370.14,-25.62 376.04,-29.4"/>
</a>
</g>
</g>
</g>
</svg>
