<?xml version="1.0" encoding="UTF-8" standalone="no"?>
<!DOCTYPE svg PUBLIC "-//W3C//DTD SVG 1.1//EN"
 "http://www.w3.org/Graphics/SVG/1.1/DTD/svg11.dtd">
<!-- Generated by graphviz version 2.43.0 (0)
 -->
<!-- Title: ICommand.h Pages: 1 -->
<svg width="259pt" height="247pt"
 viewBox="0.00 0.00 258.50 247.00" xmlns="http://www.w3.org/2000/svg" xmlns:xlink="http://www.w3.org/1999/xlink">
<g id="graph0" class="graph" transform="scale(1 1) rotate(0) translate(4 243)">
<title>ICommand.h</title>
<!-- Node1 -->
<g id="Node000001" class="node">
<title>Node1</title>
<g id="a_Node000001"><a xlink:title="An abstract representation of an action to be executed in the game engine.">
<polygon fill="#999999" stroke="#666666" points="134.5,-239 55.5,-239 55.5,-220 134.5,-220 134.5,-239"/>
<text text-anchor="middle" x="95" y="-227" font-family="Helvetica,sans-Serif" font-size="10.00">ICommand.h</text>
</a>
</g>
</g>
<!-- Node2 -->
<g id="Node000002" class="node">
<title>Node2</title>
<g id="a_Node000002"><a xlink:title=" ">
<polygon fill="#e0e0e0" stroke="#999999" points="63,-184 19,-184 19,-165 63,-165 63,-184"/>
<text text-anchor="middle" x="41" y="-172" font-family="Helvetica,sans-Serif" font-size="10.00">string</text>
</a>
</g>
</g>
<!-- Node1&#45;&gt;Node2 -->
<g id="edge1_Node000001_Node000002" class="edge">
<title>Node1&#45;&gt;Node2</title>
<g id="a_edge1_Node000001_Node000002"><a xlink:title=" ">
<path fill="none" stroke="#63b8ff" d="M86.08,-219.75C78.22,-212.03 66.57,-200.6 57.08,-191.28"/>
<polygon fill="#63b8ff" stroke="#63b8ff" points="59.34,-188.6 49.75,-184.09 54.44,-193.59 59.34,-188.6"/>
</a>
</g>
</g>
<!-- Node3 -->
<g id="Node000003" class="node">
<title>Node3</title>
<g id="a_Node000003"><a xlink:href="ISystemManager_8h.html" target="_top" xlink:title="Declares the interface for managing registered systems.">
<polygon fill="white" stroke="#666666" points="217,-184 81,-184 81,-165 217,-165 217,-184"/>
<text text-anchor="middle" x="149" y="-172" font-family="Helvetica,sans-Serif" font-size="10.00">../ecs/ISystemManager.h</text>
</a>
</g>
</g>
<!-- Node1&#45;&gt;Node3 -->
<g id="edge2_Node000001_Node000003" class="edge">
<title>Node1&#45;&gt;Node3</title>
<g id="a_edge2_Node000001_Node000003"><a xlink:title=" ">
<path fill="none" stroke="#63b8ff" d="M103.92,-219.75C111.78,-212.03 123.43,-200.6 132.92,-191.28"/>
<polygon fill="#63b8ff" stroke="#63b8ff" points="135.56,-193.59 140.25,-184.09 130.66,-188.6 135.56,-193.59"/>
</a>
</g>
</g>
<!-- Node4 -->
<g id="Node000004" class="node">
<title>Node4</title>
<g id="a_Node000004"><a xlink:href="Entity_8h.html" target="_top" xlink:title="Simple struct for Entity in the ECS module (includes version)">
<polygon fill="white" stroke="#666666" points="144.5,-129 91.5,-129 91.5,-110 144.5,-110 144.5,-129"/>
<text text-anchor="middle" x="118" y="-117" font-family="Helvetica,sans-Serif" font-size="10.00">Entity.h</text>
</a>
</g>
</g>
<!-- Node3&#45;&gt;Node4 -->
<g id="edge3_Node000003_Node000004" class="edge">
<title>Node3&#45;&gt;Node4</title>
<g id="a_edge3_Node000003_Node000004"><a xlink:title=" ">
<path fill="none" stroke="#63b8ff" d="M143.88,-164.75C139.64,-157.49 133.47,-146.95 128.22,-137.98"/>
<polygon fill="#63b8ff" stroke="#63b8ff" points="131.09,-135.95 123.02,-129.09 125.05,-139.49 131.09,-135.95"/>
</a>
</g>
</g>
<!-- Node7 -->
<g id="Node000007" class="node">
<title>Node7</title>
<g id="a_Node000007"><a xlink:href="ecs__config_8h.html" target="_top" xlink:title="Configuration constants and type definitions for ECS modules.">
<polygon fill="white" stroke="#666666" points="228.5,-74 151.5,-74 151.5,-55 228.5,-55 228.5,-74"/>
<text text-anchor="middle" x="190" y="-62" font-family="Helvetica,sans-Serif" font-size="10.00">ecs_config.h</text>
</a>
</g>
</g>
<!-- Node3&#45;&gt;Node7 -->
<g id="edge9_Node000003_Node000007" class="edge">
<title>Node3&#45;&gt;Node7</title>
<g id="a_edge9_Node000003_Node000007"><a xlink:title=" ">
<path fill="none" stroke="#63b8ff" d="M152.36,-164.66C159.06,-147.01 174.21,-107.09 183.12,-83.64"/>
<polygon fill="#63b8ff" stroke="#63b8ff" points="186.44,-84.75 186.71,-74.16 179.89,-82.27 186.44,-84.75"/>
</a>
</g>
</g>
<!-- Node5 -->
<g id="Node000005" class="node">
<title>Node5</title>
<g id="a_Node000005"><a xlink:title=" ">
<polygon fill="#e0e0e0" stroke="#999999" points="50,-74 0,-74 0,-55 50,-55 50,-74"/>
<text text-anchor="middle" x="25" y="-62" font-family="Helvetica,sans-Serif" font-size="10.00">cstdint</text>
</a>
</g>
</g>
<!-- Node4&#45;&gt;Node5 -->
<g id="edge4_Node000004_Node000005" class="edge">
<title>Node4&#45;&gt;Node5</title>
<g id="a_edge4_Node000004_Node000005"><a xlink:title=" ">
<path fill="none" stroke="#63b8ff" d="M103.06,-109.98C88.5,-101.69 66.13,-88.94 49.07,-79.22"/>
<polygon fill="#63b8ff" stroke="#63b8ff" points="50.64,-76.08 40.21,-74.17 47.17,-82.16 50.64,-76.08"/>
</a>
</g>
</g>
<!-- Node6 -->
<g id="Node000006" class="node">
<title>Node6</title>
<g id="a_Node000006"><a xlink:title=" ">
<polygon fill="#e0e0e0" stroke="#999999" points="133.5,-74 68.5,-74 68.5,-55 133.5,-55 133.5,-74"/>
<text text-anchor="middle" x="101" y="-62" font-family="Helvetica,sans-Serif" font-size="10.00">functional</text>
</a>
</g>
</g>
<!-- Node4&#45;&gt;Node6 -->
<g id="edge5_Node000004_Node000006" class="edge">
<title>Node4&#45;&gt;Node6</title>
<g id="a_edge5_Node000004_Node000006"><a xlink:title=" ">
<path fill="none" stroke="#63b8ff" d="M115.19,-109.75C112.94,-102.72 109.7,-92.62 106.88,-83.84"/>
<polygon fill="#63b8ff" stroke="#63b8ff" points="110.14,-82.54 103.75,-74.09 103.48,-84.68 110.14,-82.54"/>
</a>
</g>
</g>
<!-- Node4&#45;&gt;Node7 -->
<g id="edge6_Node000004_Node000007" class="edge">
<title>Node4&#45;&gt;Node7</title>
<g id="a_edge6_Node000004_Node000007"><a xlink:title=" ">
<path fill="none" stroke="#63b8ff" d="M129.57,-109.98C140.42,-102 156.88,-89.88 169.88,-80.31"/>
<polygon fill="#63b8ff" stroke="#63b8ff" points="172.24,-82.92 178.22,-74.17 168.09,-77.28 172.24,-82.92"/>
</a>
</g>
</g>
<!-- Node8 -->
<g id="Node000008" class="node">
<title>Node8</title>
<g id="a_Node000008"><a xlink:title=" ">
<polygon fill="#e0e0e0" stroke="#999999" points="179,-19 135,-19 135,0 179,0 179,-19"/>
<text text-anchor="middle" x="157" y="-7" font-family="Helvetica,sans-Serif" font-size="10.00">bitset</text>
</a>
</g>
</g>
<!-- Node7&#45;&gt;Node8 -->
<g id="edge7_Node000007_Node000008" class="edge">
<title>Node7&#45;&gt;Node8</title>
<g id="a_edge7_Node000007_Node000008"><a xlink:title=" ">
<path fill="none" stroke="#63b8ff" d="M184.55,-54.75C179.99,-47.42 173.33,-36.73 167.71,-27.7"/>
<polygon fill="#63b8ff" stroke="#63b8ff" points="170.6,-25.73 162.35,-19.09 164.66,-29.43 170.6,-25.73"/>
</a>
</g>
</g>
<!-- Node9 -->
<g id="Node000009" class="node">
<title>Node9</title>
<g id="a_Node000009"><a xlink:title=" ">
<polygon fill="#e0e0e0" stroke="#999999" points="250.5,-19 197.5,-19 197.5,0 250.5,0 250.5,-19"/>
<text text-anchor="middle" x="224" y="-7" font-family="Helvetica,sans-Serif" font-size="10.00">cstddef</text>
</a>
</g>
</g>
<!-- Node7&#45;&gt;Node9 -->
<g id="edge8_Node000007_Node000009" class="edge">
<title>Node7&#45;&gt;Node9</title>
<g id="a_edge8_Node000007_Node000009"><a xlink:title=" ">
<path fill="none" stroke="#63b8ff" d="M195.61,-54.75C200.32,-47.42 207.17,-36.73 212.97,-27.7"/>
<polygon fill="#63b8ff" stroke="#63b8ff" points="216.04,-29.4 218.49,-19.09 210.14,-25.62 216.04,-29.4"/>
</a>
</g>
</g>
</g>
</svg>
