<?xml version="1.0" encoding="UTF-8" standalone="no"?>
<!DOCTYPE svg PUBLIC "-//W3C//DTD SVG 1.1//EN"
 "http://www.w3.org/Graphics/SVG/1.1/DTD/svg11.dtd">
<!-- Generated by graphviz version 2.43.0 (0)
 -->
<!-- Title: IComponentArray.h Pages: 1 -->
<svg width="188pt" height="192pt"
 viewBox="0.00 0.00 188.00 192.00" xmlns="http://www.w3.org/2000/svg" xmlns:xlink="http://www.w3.org/1999/xlink">
<g id="graph0" class="graph" transform="scale(1 1) rotate(0) translate(4 188)">
<title>IComponentArray.h</title>
<!-- Node1 -->
<g id="Node000001" class="node">
<title>Node1</title>
<g id="a_Node000001"><a xlink:title="A data structure built for managing a specific component type.">
<polygon fill="#999999" stroke="#666666" points="171.5,-184 61.5,-184 61.5,-165 171.5,-165 171.5,-184"/>
<text text-anchor="middle" x="116.5" y="-172" font-family="Helvetica,sans-Serif" font-size="10.00">IComponentArray.h</text>
</a>
</g>
</g>
<!-- Node2 -->
<g id="Node000002" class="node">
<title>Node2</title>
<g id="a_Node000002"><a xlink:href="DenseComponentArray_8h.html" target="_top" xlink:title="Provides dense storage for components of a specific type.">
<polygon fill="white" stroke="#666666" points="137,-129 0,-129 0,-110 137,-110 137,-129"/>
<text text-anchor="middle" x="68.5" y="-117" font-family="Helvetica,sans-Serif" font-size="10.00">DenseComponentArray.h</text>
</a>
</g>
</g>
<!-- Node1&#45;&gt;Node2 -->
<g id="edge1_Node000001_Node000002" class="edge">
<title>Node1&#45;&gt;Node2</title>
<g id="a_edge1_Node000001_Node000002"><a xlink:title=" ">
<path fill="none" stroke="#63b8ff" d="M101.77,-157.24C93.36,-147.95 83.15,-136.68 76.28,-129.09"/>
<polygon fill="#63b8ff" stroke="#63b8ff" points="99.27,-159.69 108.57,-164.75 104.46,-154.99 99.27,-159.69"/>
</a>
</g>
</g>
<!-- Node3 -->
<g id="Node000003" class="node">
<title>Node3</title>
<g id="a_Node000003"><a xlink:href="IComponentManager_8h.html" target="_top" xlink:title="System for managing components and their relationship to specific entities.">
<polygon fill="white" stroke="#666666" points="180,-74 53,-74 53,-55 180,-55 180,-74"/>
<text text-anchor="middle" x="116.5" y="-62" font-family="Helvetica,sans-Serif" font-size="10.00">IComponentManager.h</text>
</a>
</g>
</g>
<!-- Node1&#45;&gt;Node3 -->
<g id="edge4_Node000001_Node000003" class="edge">
<title>Node1&#45;&gt;Node3</title>
<g id="a_edge4_Node000001_Node000003"><a xlink:title=" ">
<path fill="none" stroke="#63b8ff" d="M131.19,-156.85C137.18,-148.98 143.41,-139.1 146.5,-129 152.77,-108.48 136.24,-86.16 125.3,-74.22"/>
<polygon fill="#63b8ff" stroke="#63b8ff" points="128.32,-154.84 124.71,-164.8 133.74,-159.26 128.32,-154.84"/>
</a>
</g>
</g>
<!-- Node2&#45;&gt;Node3 -->
<g id="edge2_Node000002_Node000003" class="edge">
<title>Node2&#45;&gt;Node3</title>
<g id="a_edge2_Node000002_Node000003"><a xlink:title=" ">
<path fill="none" stroke="#63b8ff" d="M83.23,-102.24C91.64,-92.95 101.85,-81.68 108.72,-74.09"/>
<polygon fill="#63b8ff" stroke="#63b8ff" points="80.54,-99.99 76.43,-109.75 85.73,-104.69 80.54,-99.99"/>
</a>
</g>
</g>
<!-- Node4 -->
<g id="Node000004" class="node">
<title>Node4</title>
<g id="a_Node000004"><a xlink:href="GameWorld_8h.html" target="_top" xlink:title="Defines the concrete game world used by the main loop.">
<polygon fill="white" stroke="#666666" points="158,-19 75,-19 75,0 158,0 158,-19"/>
<text text-anchor="middle" x="116.5" y="-7" font-family="Helvetica,sans-Serif" font-size="10.00">GameWorld.h</text>
</a>
</g>
</g>
<!-- Node3&#45;&gt;Node4 -->
<g id="edge3_Node000003_Node000004" class="edge">
<title>Node3&#45;&gt;Node4</title>
<g id="a_edge3_Node000003_Node000004"><a xlink:title=" ">
<path fill="none" stroke="#63b8ff" d="M116.5,-44.66C116.5,-35.93 116.5,-25.99 116.5,-19.09"/>
<polygon fill="#63b8ff" stroke="#63b8ff" points="113,-44.75 116.5,-54.75 120,-44.75 113,-44.75"/>
</a>
</g>
</g>
</g>
</svg>
