<?xml version="1.0" encoding="UTF-8" standalone="no"?>
<!DOCTYPE svg PUBLIC "-//W3C//DTD SVG 1.1//EN"
 "http://www.w3.org/Graphics/SVG/1.1/DTD/svg11.dtd">
<!-- Generated by graphviz version 2.43.0 (0)
 -->
<!-- Title: IComponentArray.h Pages: 1 -->
<svg width="287pt" height="302pt"
 viewBox="0.00 0.00 286.50 302.00" xmlns="http://www.w3.org/2000/svg" xmlns:xlink="http://www.w3.org/1999/xlink">
<g id="graph0" class="graph" transform="scale(1 1) rotate(0) translate(4 298)">
<title>IComponentArray.h</title>
<!-- Node1 -->
<g id="Node000001" class="node">
<title>Node1</title>
<g id="a_Node000001"><a xlink:title="A data structure built for managing a specific component type.">
<polygon fill="#999999" stroke="#666666" points="267.5,-294 157.5,-294 157.5,-275 267.5,-275 267.5,-294"/>
<text text-anchor="middle" x="212.5" y="-282" font-family="Helvetica,sans-Serif" font-size="10.00">IComponentArray.h</text>
</a>
</g>
</g>
<!-- Node2 -->
<g id="Node000002" class="node">
<title>Node2</title>
<g id="a_Node000002"><a xlink:href="DenseComponentArray_8h.html" target="_top" xlink:title="Provides dense storage for components of a specific type.">
<polygon fill="white" stroke="#666666" points="233,-239 96,-239 96,-220 233,-220 233,-239"/>
<text text-anchor="middle" x="164.5" y="-227" font-family="Helvetica,sans-Serif" font-size="10.00">DenseComponentArray.h</text>
</a>
</g>
</g>
<!-- Node1&#45;&gt;Node2 -->
<g id="edge1_Node000001_Node000002" class="edge">
<title>Node1&#45;&gt;Node2</title>
<g id="a_edge1_Node000001_Node000002"><a xlink:title=" ">
<path fill="none" stroke="#63b8ff" d="M197.77,-267.24C189.36,-257.95 179.15,-246.68 172.28,-239.09"/>
<polygon fill="#63b8ff" stroke="#63b8ff" points="195.27,-269.69 204.57,-274.75 200.46,-264.99 195.27,-269.69"/>
</a>
</g>
</g>
<!-- Node3 -->
<g id="Node000003" class="node">
<title>Node3</title>
<g id="a_Node000003"><a xlink:href="IComponentManager_8h.html" target="_top" xlink:title="System for managing components and their relationship to specific entities.">
<polygon fill="white" stroke="#666666" points="276,-184 149,-184 149,-165 276,-165 276,-184"/>
<text text-anchor="middle" x="212.5" y="-172" font-family="Helvetica,sans-Serif" font-size="10.00">IComponentManager.h</text>
</a>
</g>
</g>
<!-- Node1&#45;&gt;Node3 -->
<g id="edge9_Node000001_Node000003" class="edge">
<title>Node1&#45;&gt;Node3</title>
<g id="a_edge9_Node000001_Node000003"><a xlink:title=" ">
<path fill="none" stroke="#63b8ff" d="M227.35,-267.02C236.81,-254.48 246.44,-236.61 241.5,-220 237.4,-206.21 227.53,-192.7 220.44,-184.25"/>
<polygon fill="#63b8ff" stroke="#63b8ff" points="224.63,-264.81 221.01,-274.76 230.05,-269.24 224.63,-264.81"/>
</a>
</g>
</g>
<!-- Node2&#45;&gt;Node3 -->
<g id="edge2_Node000002_Node000003" class="edge">
<title>Node2&#45;&gt;Node3</title>
<g id="a_edge2_Node000002_Node000003"><a xlink:title=" ">
<path fill="none" stroke="#63b8ff" d="M179.23,-212.24C187.64,-202.95 197.85,-191.68 204.72,-184.09"/>
<polygon fill="#63b8ff" stroke="#63b8ff" points="176.54,-209.99 172.43,-219.75 181.73,-214.69 176.54,-209.99"/>
</a>
</g>
</g>
<!-- Node4 -->
<g id="Node000004" class="node">
<title>Node4</title>
<g id="a_Node000004"><a xlink:href="GameWorld_8h.html" target="_top" xlink:title="Defines the concrete game world used by the main loop.">
<polygon fill="white" stroke="#666666" points="219,-129 136,-129 136,-110 219,-110 219,-129"/>
<text text-anchor="middle" x="177.5" y="-117" font-family="Helvetica,sans-Serif" font-size="10.00">GameWorld.h</text>
</a>
</g>
</g>
<!-- Node3&#45;&gt;Node4 -->
<g id="edge3_Node000003_Node000004" class="edge">
<title>Node3&#45;&gt;Node4</title>
<g id="a_edge3_Node000003_Node000004"><a xlink:title=" ">
<path fill="none" stroke="#63b8ff" d="M201.2,-156.39C195.18,-147.27 188.03,-136.45 183.17,-129.09"/>
<polygon fill="#63b8ff" stroke="#63b8ff" points="198.29,-158.33 206.72,-164.75 204.13,-154.47 198.29,-158.33"/>
</a>
</g>
</g>
<!-- Node8 -->
<g id="Node000008" class="node">
<title>Node8</title>
<g id="a_Node000008"><a xlink:href="main_8cpp.html" target="_top" xlink:title=" ">
<polygon fill="white" stroke="#666666" points="278.5,-74 216.5,-74 216.5,-55 278.5,-55 278.5,-74"/>
<text text-anchor="middle" x="247.5" y="-62" font-family="Helvetica,sans-Serif" font-size="10.00">main.cpp</text>
</a>
</g>
</g>
<!-- Node3&#45;&gt;Node8 -->
<g id="edge8_Node000003_Node000008" class="edge">
<title>Node3&#45;&gt;Node8</title>
<g id="a_edge8_Node000003_Node000008"><a xlink:title=" ">
<path fill="none" stroke="#63b8ff" d="M218.67,-155.48C221.41,-147.39 224.65,-137.73 227.5,-129 233.88,-109.44 241.05,-86.38 244.84,-74.15"/>
<polygon fill="#63b8ff" stroke="#63b8ff" points="215.34,-154.39 215.43,-164.99 221.96,-156.65 215.34,-154.39"/>
</a>
</g>
</g>
<!-- Node5 -->
<g id="Node000005" class="node">
<title>Node5</title>
<g id="a_Node000005"><a xlink:href="PlayerMoveCommand_8h.html" target="_top" xlink:title="A command for triggering player (paddle) movement.">
<polygon fill="white" stroke="#666666" points="198.5,-74 64.5,-74 64.5,-55 198.5,-55 198.5,-74"/>
<text text-anchor="middle" x="131.5" y="-62" font-family="Helvetica,sans-Serif" font-size="10.00">PlayerMoveCommand.h</text>
</a>
</g>
</g>
<!-- Node4&#45;&gt;Node5 -->
<g id="edge4_Node000004_Node000005" class="edge">
<title>Node4&#45;&gt;Node5</title>
<g id="a_edge4_Node000004_Node000005"><a xlink:title=" ">
<path fill="none" stroke="#63b8ff" d="M163.14,-101.96C155.13,-92.72 145.47,-81.6 138.95,-74.09"/>
<polygon fill="#63b8ff" stroke="#63b8ff" points="160.71,-104.49 169.9,-109.75 165.99,-99.9 160.71,-104.49"/>
</a>
</g>
</g>
<!-- Node4&#45;&gt;Node8 -->
<g id="edge7_Node000004_Node000008" class="edge">
<title>Node4&#45;&gt;Node8</title>
<g id="a_edge7_Node000004_Node000008"><a xlink:title=" ">
<path fill="none" stroke="#63b8ff" d="M196.81,-103.88C209.41,-94.34 225.43,-82.21 236.05,-74.17"/>
<polygon fill="#63b8ff" stroke="#63b8ff" points="194.61,-101.16 188.75,-109.98 198.83,-106.74 194.61,-101.16"/>
</a>
</g>
</g>
<!-- Node6 -->
<g id="Node000006" class="node">
<title>Node6</title>
<g id="a_Node000006"><a xlink:href="InputNormalizer_8cpp.html" target="_top" xlink:title=" ">
<polygon fill="white" stroke="#666666" points="115,-19 0,-19 0,0 115,0 115,-19"/>
<text text-anchor="middle" x="57.5" y="-7" font-family="Helvetica,sans-Serif" font-size="10.00">InputNormalizer.cpp</text>
</a>
</g>
</g>
<!-- Node5&#45;&gt;Node6 -->
<g id="edge5_Node000005_Node000006" class="edge">
<title>Node5&#45;&gt;Node6</title>
<g id="a_edge5_Node000005_Node000006"><a xlink:title=" ">
<path fill="none" stroke="#63b8ff" d="M111.47,-49.15C98.09,-39.57 80.94,-27.29 69.61,-19.17"/>
<polygon fill="#63b8ff" stroke="#63b8ff" points="109.44,-52.01 119.61,-54.98 113.52,-46.32 109.44,-52.01"/>
</a>
</g>
</g>
<!-- Node7 -->
<g id="Node000007" class="node">
<title>Node7</title>
<g id="a_Node000007"><a xlink:href="PlayerMoveCommand_8cpp.html" target="_top" xlink:title=" ">
<polygon fill="white" stroke="#666666" points="278,-19 133,-19 133,0 278,0 278,-19"/>
<text text-anchor="middle" x="205.5" y="-7" font-family="Helvetica,sans-Serif" font-size="10.00">PlayerMoveCommand.cpp</text>
</a>
</g>
</g>
<!-- Node5&#45;&gt;Node7 -->
<g id="edge6_Node000005_Node000007" class="edge">
<title>Node5&#45;&gt;Node7</title>
<g id="a_edge6_Node000005_Node000007"><a xlink:title=" ">
<path fill="none" stroke="#63b8ff" d="M151.53,-49.15C164.91,-39.57 182.06,-27.29 193.39,-19.17"/>
<polygon fill="#63b8ff" stroke="#63b8ff" points="149.48,-46.32 143.39,-54.98 153.56,-52.01 149.48,-46.32"/>
</a>
</g>
</g>
</g>
</svg>
