<?xml version="1.0" encoding="UTF-8" standalone="no"?>
<!DOCTYPE svg PUBLIC "-//W3C//DTD SVG 1.1//EN"
 "http://www.w3.org/Graphics/SVG/1.1/DTD/svg11.dtd">
<!-- Generated by graphviz version 2.43.0 (0)
 -->
<!-- Title: ICommandQueue.h Pages: 1 -->
<svg width="445pt" height="192pt"
 viewBox="0.00 0.00 445.00 192.00" xmlns="http://www.w3.org/2000/svg" xmlns:xlink="http://www.w3.org/1999/xlink">
<g id="graph0" class="graph" transform="scale(1 1) rotate(0) translate(4 188)">
<title>ICommandQueue.h</title>
<!-- Node1 -->
<g id="Node000001" class="node">
<title>Node1</title>
<g id="a_Node000001"><a xlink:title="A lightweight wrapper for queuing commands.">
<polygon fill="#999999" stroke="#666666" points="274.5,-184 164.5,-184 164.5,-165 274.5,-165 274.5,-184"/>
<text text-anchor="middle" x="219.5" y="-172" font-family="Helvetica,sans-Serif" font-size="10.00">ICommandQueue.h</text>
</a>
</g>
</g>
<!-- Node2 -->
<g id="Node000002" class="node">
<title>Node2</title>
<g id="a_Node000002"><a xlink:href="CommandQueue_8h.html" target="_top" xlink:title="Concrete implementation of ICommandQueue.">
<polygon fill="white" stroke="#666666" points="160,-129 53,-129 53,-110 160,-110 160,-129"/>
<text text-anchor="middle" x="106.5" y="-117" font-family="Helvetica,sans-Serif" font-size="10.00">CommandQueue.h</text>
</a>
</g>
</g>
<!-- Node1&#45;&gt;Node2 -->
<g id="edge1_Node000001_Node000002" class="edge">
<title>Node1&#45;&gt;Node2</title>
<g id="a_edge1_Node000001_Node000002"><a xlink:title=" ">
<path fill="none" stroke="#63b8ff" d="M192.07,-160.63C171.25,-150.87 143.2,-137.71 124.99,-129.17"/>
<polygon fill="#63b8ff" stroke="#63b8ff" points="190.8,-163.91 201.34,-164.98 193.78,-157.57 190.8,-163.91"/>
</a>
</g>
</g>
<!-- Node5 -->
<g id="Node000005" class="node">
<title>Node5</title>
<g id="a_Node000005"><a xlink:href="GameWorld_8h.html" target="_top" xlink:title="Defines the concrete game world used by the main loop.">
<polygon fill="white" stroke="#666666" points="261,-129 178,-129 178,-110 261,-110 261,-129"/>
<text text-anchor="middle" x="219.5" y="-117" font-family="Helvetica,sans-Serif" font-size="10.00">GameWorld.h</text>
</a>
</g>
</g>
<!-- Node1&#45;&gt;Node5 -->
<g id="edge4_Node000001_Node000005" class="edge">
<title>Node1&#45;&gt;Node5</title>
<g id="a_edge4_Node000001_Node000005"><a xlink:title=" ">
<path fill="none" stroke="#63b8ff" d="M219.5,-154.66C219.5,-145.93 219.5,-135.99 219.5,-129.09"/>
<polygon fill="#63b8ff" stroke="#63b8ff" points="216,-154.75 219.5,-164.75 223,-154.75 216,-154.75"/>
</a>
</g>
</g>
<!-- Node9 -->
<g id="Node000009" class="node">
<title>Node9</title>
<g id="a_Node000009"><a xlink:href="InputNormalizer_8h.html" target="_top" xlink:title="Concrete implementation of InputNormalizer.">
<polygon fill="white" stroke="#666666" points="383.5,-129 279.5,-129 279.5,-110 383.5,-110 383.5,-129"/>
<text text-anchor="middle" x="331.5" y="-117" font-family="Helvetica,sans-Serif" font-size="10.00">InputNormalizer.h</text>
</a>
</g>
</g>
<!-- Node1&#45;&gt;Node9 -->
<g id="edge9_Node000001_Node000009" class="edge">
<title>Node1&#45;&gt;Node9</title>
<g id="a_edge9_Node000001_Node000009"><a xlink:title=" ">
<path fill="none" stroke="#63b8ff" d="M246.69,-160.63C267.32,-150.87 295.12,-137.71 313.18,-129.17"/>
<polygon fill="#63b8ff" stroke="#63b8ff" points="245.04,-157.54 237.49,-164.98 248.03,-163.87 245.04,-157.54"/>
</a>
</g>
</g>
<!-- Node3 -->
<g id="Node000003" class="node">
<title>Node3</title>
<g id="a_Node000003"><a xlink:href="CommandQueue_8cpp.html" target="_top" xlink:title=" ">
<polygon fill="white" stroke="#666666" points="119,-74 0,-74 0,-55 119,-55 119,-74"/>
<text text-anchor="middle" x="59.5" y="-62" font-family="Helvetica,sans-Serif" font-size="10.00">CommandQueue.cpp</text>
</a>
</g>
</g>
<!-- Node2&#45;&gt;Node3 -->
<g id="edge2_Node000002_Node000003" class="edge">
<title>Node2&#45;&gt;Node3</title>
<g id="a_edge2_Node000002_Node000003"><a xlink:title=" ">
<path fill="none" stroke="#63b8ff" d="M92.08,-102.24C83.84,-92.95 73.85,-81.68 67.12,-74.09"/>
<polygon fill="#63b8ff" stroke="#63b8ff" points="89.49,-104.59 98.74,-109.75 94.72,-99.94 89.49,-104.59"/>
</a>
</g>
</g>
<!-- Node4 -->
<g id="Node000004" class="node">
<title>Node4</title>
<g id="a_Node000004"><a xlink:href="main_8cpp.html" target="_top" xlink:title=" ">
<polygon fill="white" stroke="#666666" points="199.5,-74 137.5,-74 137.5,-55 199.5,-55 199.5,-74"/>
<text text-anchor="middle" x="168.5" y="-62" font-family="Helvetica,sans-Serif" font-size="10.00">main.cpp</text>
</a>
</g>
</g>
<!-- Node2&#45;&gt;Node4 -->
<g id="edge3_Node000002_Node000004" class="edge">
<title>Node2&#45;&gt;Node4</title>
<g id="a_edge3_Node000002_Node000004"><a xlink:title=" ">
<path fill="none" stroke="#63b8ff" d="M124.25,-103.32C135.31,-93.87 149.13,-82.06 158.36,-74.17"/>
<polygon fill="#63b8ff" stroke="#63b8ff" points="121.79,-100.83 116.46,-109.98 126.34,-106.15 121.79,-100.83"/>
</a>
</g>
</g>
<!-- Node5&#45;&gt;Node4 -->
<g id="edge8_Node000005_Node000004" class="edge">
<title>Node5&#45;&gt;Node4</title>
<g id="a_edge8_Node000005_Node000004"><a xlink:title=" ">
<path fill="none" stroke="#63b8ff" d="M204.12,-102.52C195.13,-93.18 184.14,-81.75 176.76,-74.09"/>
<polygon fill="#63b8ff" stroke="#63b8ff" points="201.62,-104.97 211.08,-109.75 206.67,-100.12 201.62,-104.97"/>
</a>
</g>
</g>
<!-- Node6 -->
<g id="Node000006" class="node">
<title>Node6</title>
<g id="a_Node000006"><a xlink:href="PlayerMoveCommand_8h.html" target="_top" xlink:title="A command for triggering player (paddle) movement.">
<polygon fill="white" stroke="#666666" points="351.5,-74 217.5,-74 217.5,-55 351.5,-55 351.5,-74"/>
<text text-anchor="middle" x="284.5" y="-62" font-family="Helvetica,sans-Serif" font-size="10.00">PlayerMoveCommand.h</text>
</a>
</g>
</g>
<!-- Node5&#45;&gt;Node6 -->
<g id="edge5_Node000005_Node000006" class="edge">
<title>Node5&#45;&gt;Node6</title>
<g id="a_edge5_Node000005_Node000006"><a xlink:title=" ">
<path fill="none" stroke="#63b8ff" d="M237.77,-103.6C249.42,-94.11 264.1,-82.13 273.87,-74.17"/>
<polygon fill="#63b8ff" stroke="#63b8ff" points="235.48,-100.95 229.94,-109.98 239.91,-106.38 235.48,-100.95"/>
</a>
</g>
</g>
<!-- Node7 -->
<g id="Node000007" class="node">
<title>Node7</title>
<g id="a_Node000007"><a xlink:href="InputNormalizer_8cpp.html" target="_top" xlink:title=" ">
<polygon fill="white" stroke="#666666" points="437,-19 322,-19 322,0 437,0 437,-19"/>
<text text-anchor="middle" x="379.5" y="-7" font-family="Helvetica,sans-Serif" font-size="10.00">InputNormalizer.cpp</text>
</a>
</g>
</g>
<!-- Node6&#45;&gt;Node7 -->
<g id="edge6_Node000006_Node000007" class="edge">
<title>Node6&#45;&gt;Node7</title>
<g id="a_edge6_Node000006_Node000007"><a xlink:title=" ">
<path fill="none" stroke="#63b8ff" d="M308.76,-49.97C326.13,-40.28 348.99,-27.52 363.96,-19.17"/>
<polygon fill="#63b8ff" stroke="#63b8ff" points="306.79,-47.06 299.76,-54.98 310.2,-53.17 306.79,-47.06"/>
</a>
</g>
</g>
<!-- Node8 -->
<g id="Node000008" class="node">
<title>Node8</title>
<g id="a_Node000008"><a xlink:href="PlayerMoveCommand_8cpp.html" target="_top" xlink:title=" ">
<polygon fill="white" stroke="#666666" points="304,-19 159,-19 159,0 304,0 304,-19"/>
<text text-anchor="middle" x="231.5" y="-7" font-family="Helvetica,sans-Serif" font-size="10.00">PlayerMoveCommand.cpp</text>
</a>
</g>
</g>
<!-- Node6&#45;&gt;Node8 -->
<g id="edge7_Node000006_Node000008" class="edge">
<title>Node6&#45;&gt;Node8</title>
<g id="a_edge7_Node000006_Node000008"><a xlink:title=" ">
<path fill="none" stroke="#63b8ff" d="M268.52,-47.52C259.18,-38.18 247.75,-26.75 240.09,-19.09"/>
<polygon fill="#63b8ff" stroke="#63b8ff" points="266.2,-50.15 275.75,-54.75 271.15,-45.2 266.2,-50.15"/>
</a>
</g>
</g>
<!-- Node9&#45;&gt;Node4 -->
<g id="edge11_Node000009_Node000004" class="edge">
<title>Node9&#45;&gt;Node4</title>
<g id="a_edge11_Node000009_Node000004"><a xlink:title=" ">
<path fill="none" stroke="#63b8ff" d="M295.51,-106.8C265.09,-96.91 222.22,-82.97 194.89,-74.08"/>
<polygon fill="#63b8ff" stroke="#63b8ff" points="294.72,-110.22 305.31,-109.98 296.88,-103.56 294.72,-110.22"/>
</a>
</g>
</g>
<!-- Node9&#45;&gt;Node7 -->
<g id="edge10_Node000009_Node000007" class="edge">
<title>Node9&#45;&gt;Node7</title>
<g id="a_edge10_Node000009_Node000007"><a xlink:title=" ">
<path fill="none" stroke="#63b8ff" d="M344.17,-101.59C349.76,-93.54 356.05,-83.6 360.5,-74 369.12,-55.42 374.94,-31.98 377.68,-19.42"/>
<polygon fill="#63b8ff" stroke="#63b8ff" points="341.3,-99.58 338.3,-109.74 346.98,-103.67 341.3,-99.58"/>
</a>
</g>
</g>
</g>
</svg>
