<?xml version="1.0" encoding="UTF-8" standalone="no"?>
<!DOCTYPE svg PUBLIC "-//W3C//DTD SVG 1.1//EN"
 "http://www.w3.org/Graphics/SVG/1.1/DTD/svg11.dtd">
<!-- Generated by graphviz version 2.43.0 (0)
 -->
<!-- Title: IEntityManager.h Pages: 1 -->
<svg width="427pt" height="192pt"
 viewBox="0.00 0.00 427.00 192.00" xmlns="http://www.w3.org/2000/svg" xmlns:xlink="http://www.w3.org/1999/xlink">
<g id="graph0" class="graph" transform="scale(1 1) rotate(0) translate(4 188)">
<title>IEntityManager.h</title>
<!-- Node1 -->
<g id="Node000001" class="node">
<title>Node1</title>
<g id="a_Node000001"><a xlink:title="Interface for managing entities and their signatures.">
<polygon fill="#999999" stroke="#666666" points="208,-184 109,-184 109,-165 208,-165 208,-184"/>
<text text-anchor="middle" x="158.5" y="-172" font-family="Helvetica,sans-Serif" font-size="10.00">IEntityManager.h</text>
</a>
</g>
</g>
<!-- Node2 -->
<g id="Node000002" class="node">
<title>Node2</title>
<g id="a_Node000002"><a xlink:href="EntityManager_8h.html" target="_top" xlink:title="Concrete implementation of IEntityManager (includes option for reuse)">
<polygon fill="white" stroke="#666666" points="152.5,-129 56.5,-129 56.5,-110 152.5,-110 152.5,-129"/>
<text text-anchor="middle" x="104.5" y="-117" font-family="Helvetica,sans-Serif" font-size="10.00">EntityManager.h</text>
</a>
</g>
</g>
<!-- Node1&#45;&gt;Node2 -->
<g id="edge1_Node000001_Node000002" class="edge">
<title>Node1&#45;&gt;Node2</title>
<g id="a_edge1_Node000001_Node000002"><a xlink:title=" ">
<path fill="none" stroke="#63b8ff" d="M142.22,-157.52C132.7,-148.18 121.06,-136.75 113.25,-129.09"/>
<polygon fill="#63b8ff" stroke="#63b8ff" points="139.99,-160.24 149.58,-164.75 144.9,-155.25 139.99,-160.24"/>
</a>
</g>
</g>
<!-- Node5 -->
<g id="Node000005" class="node">
<title>Node5</title>
<g id="a_Node000005"><a xlink:href="GameWorld_8h.html" target="_top" xlink:title="Defines the concrete game world used by the main loop.">
<polygon fill="white" stroke="#666666" points="254,-129 171,-129 171,-110 254,-110 254,-129"/>
<text text-anchor="middle" x="212.5" y="-117" font-family="Helvetica,sans-Serif" font-size="10.00">GameWorld.h</text>
</a>
</g>
</g>
<!-- Node1&#45;&gt;Node5 -->
<g id="edge4_Node000001_Node000005" class="edge">
<title>Node1&#45;&gt;Node5</title>
<g id="a_edge4_Node000001_Node000005"><a xlink:title=" ">
<path fill="none" stroke="#63b8ff" d="M174.78,-157.52C184.3,-148.18 195.94,-136.75 203.75,-129.09"/>
<polygon fill="#63b8ff" stroke="#63b8ff" points="172.1,-155.25 167.42,-164.75 177.01,-160.24 172.1,-155.25"/>
</a>
</g>
</g>
<!-- Node3 -->
<g id="Node000003" class="node">
<title>Node3</title>
<g id="a_Node000003"><a xlink:href="EntityManager_8cpp.html" target="_top" xlink:title=" ">
<polygon fill="white" stroke="#666666" points="107,-74 0,-74 0,-55 107,-55 107,-74"/>
<text text-anchor="middle" x="53.5" y="-62" font-family="Helvetica,sans-Serif" font-size="10.00">EntityManager.cpp</text>
</a>
</g>
</g>
<!-- Node2&#45;&gt;Node3 -->
<g id="edge2_Node000002_Node000003" class="edge">
<title>Node2&#45;&gt;Node3</title>
<g id="a_edge2_Node000002_Node000003"><a xlink:title=" ">
<path fill="none" stroke="#63b8ff" d="M89.12,-102.52C80.13,-93.18 69.14,-81.75 61.76,-74.09"/>
<polygon fill="#63b8ff" stroke="#63b8ff" points="86.62,-104.97 96.08,-109.75 91.67,-100.12 86.62,-104.97"/>
</a>
</g>
</g>
<!-- Node4 -->
<g id="Node000004" class="node">
<title>Node4</title>
<g id="a_Node000004"><a xlink:href="main_8cpp.html" target="_top" xlink:title=" ">
<polygon fill="white" stroke="#666666" points="187.5,-74 125.5,-74 125.5,-55 187.5,-55 187.5,-74"/>
<text text-anchor="middle" x="156.5" y="-62" font-family="Helvetica,sans-Serif" font-size="10.00">main.cpp</text>
</a>
</g>
</g>
<!-- Node2&#45;&gt;Node4 -->
<g id="edge3_Node000002_Node000004" class="edge">
<title>Node2&#45;&gt;Node4</title>
<g id="a_edge3_Node000002_Node000004"><a xlink:title=" ">
<path fill="none" stroke="#63b8ff" d="M120.18,-102.52C129.34,-93.18 140.55,-81.75 148.07,-74.09"/>
<polygon fill="#63b8ff" stroke="#63b8ff" points="117.59,-100.16 113.09,-109.75 122.59,-105.06 117.59,-100.16"/>
</a>
</g>
</g>
<!-- Node5&#45;&gt;Node4 -->
<g id="edge8_Node000005_Node000004" class="edge">
<title>Node5&#45;&gt;Node4</title>
<g id="a_edge8_Node000005_Node000004"><a xlink:title=" ">
<path fill="none" stroke="#63b8ff" d="M196.17,-103.04C186.24,-93.64 173.91,-81.98 165.66,-74.17"/>
<polygon fill="#63b8ff" stroke="#63b8ff" points="193.83,-105.65 203.5,-109.98 198.65,-100.57 193.83,-105.65"/>
</a>
</g>
</g>
<!-- Node6 -->
<g id="Node000006" class="node">
<title>Node6</title>
<g id="a_Node000006"><a xlink:href="PlayerMoveCommand_8h.html" target="_top" xlink:title="A command for triggering player (paddle) movement.">
<polygon fill="white" stroke="#666666" points="339.5,-74 205.5,-74 205.5,-55 339.5,-55 339.5,-74"/>
<text text-anchor="middle" x="272.5" y="-62" font-family="Helvetica,sans-Serif" font-size="10.00">PlayerMoveCommand.h</text>
</a>
</g>
</g>
<!-- Node5&#45;&gt;Node6 -->
<g id="edge5_Node000005_Node000006" class="edge">
<title>Node5&#45;&gt;Node6</title>
<g id="a_edge5_Node000005_Node000006"><a xlink:title=" ">
<path fill="none" stroke="#63b8ff" d="M229.68,-103.32C240.38,-93.87 253.76,-82.06 262.68,-74.17"/>
<polygon fill="#63b8ff" stroke="#63b8ff" points="227.32,-100.74 222.14,-109.98 231.95,-105.99 227.32,-100.74"/>
</a>
</g>
</g>
<!-- Node7 -->
<g id="Node000007" class="node">
<title>Node7</title>
<g id="a_Node000007"><a xlink:href="InputNormalizer_8cpp.html" target="_top" xlink:title=" ">
<polygon fill="white" stroke="#666666" points="256,-19 141,-19 141,0 256,0 256,-19"/>
<text text-anchor="middle" x="198.5" y="-7" font-family="Helvetica,sans-Serif" font-size="10.00">InputNormalizer.cpp</text>
</a>
</g>
</g>
<!-- Node6&#45;&gt;Node7 -->
<g id="edge6_Node000006_Node000007" class="edge">
<title>Node6&#45;&gt;Node7</title>
<g id="a_edge6_Node000006_Node000007"><a xlink:title=" ">
<path fill="none" stroke="#63b8ff" d="M252.47,-49.15C239.09,-39.57 221.94,-27.29 210.61,-19.17"/>
<polygon fill="#63b8ff" stroke="#63b8ff" points="250.44,-52.01 260.61,-54.98 254.52,-46.32 250.44,-52.01"/>
</a>
</g>
</g>
<!-- Node8 -->
<g id="Node000008" class="node">
<title>Node8</title>
<g id="a_Node000008"><a xlink:href="PlayerMoveCommand_8cpp.html" target="_top" xlink:title=" ">
<polygon fill="white" stroke="#666666" points="419,-19 274,-19 274,0 419,0 419,-19"/>
<text text-anchor="middle" x="346.5" y="-7" font-family="Helvetica,sans-Serif" font-size="10.00">PlayerMoveCommand.cpp</text>
</a>
</g>
</g>
<!-- Node6&#45;&gt;Node8 -->
<g id="edge7_Node000006_Node000008" class="edge">
<title>Node6&#45;&gt;Node8</title>
<g id="a_edge7_Node000006_Node000008"><a xlink:title=" ">
<path fill="none" stroke="#63b8ff" d="M292.53,-49.15C305.91,-39.57 323.06,-27.29 334.39,-19.17"/>
<polygon fill="#63b8ff" stroke="#63b8ff" points="290.48,-46.32 284.39,-54.98 294.56,-52.01 290.48,-46.32"/>
</a>
</g>
</g>
</g>
</svg>
