<?xml version="1.0" encoding="UTF-8" standalone="no"?>
<!DOCTYPE svg PUBLIC "-//W3C//DTD SVG 1.1//EN"
 "http://www.w3.org/Graphics/SVG/1.1/DTD/svg11.dtd">
<!-- Generated by graphviz version 2.43.0 (0)
 -->
<!-- Title: IEventSource.h Pages: 1 -->
<svg width="240pt" height="247pt"
 viewBox="0.00 0.00 239.50 247.00" xmlns="http://www.w3.org/2000/svg" xmlns:xlink="http://www.w3.org/1999/xlink">
<g id="graph0" class="graph" transform="scale(1 1) rotate(0) translate(4 243)">
<title>IEventSource.h</title>
<!-- Node1 -->
<g id="Node000001" class="node">
<title>Node1</title>
<g id="a_Node000001"><a xlink:title=" ">
<polygon fill="#999999" stroke="#666666" points="162.5,-239 73.5,-239 73.5,-220 162.5,-220 162.5,-239"/>
<text text-anchor="middle" x="118" y="-227" font-family="Helvetica,sans-Serif" font-size="10.00">IEventSource.h</text>
</a>
</g>
</g>
<!-- Node2 -->
<g id="Node000002" class="node">
<title>Node2</title>
<g id="a_Node000002"><a xlink:href="IInputHandler_8h.html" target="_top" xlink:title="An abstraction representing some source of player inputs (keyboard, mouse, controller,...">
<polygon fill="white" stroke="#666666" points="126.5,-184 35.5,-184 35.5,-165 126.5,-165 126.5,-184"/>
<text text-anchor="middle" x="81" y="-172" font-family="Helvetica,sans-Serif" font-size="10.00">IInputHandler.h</text>
</a>
</g>
</g>
<!-- Node1&#45;&gt;Node2 -->
<g id="edge1_Node000001_Node000002" class="edge">
<title>Node1&#45;&gt;Node2</title>
<g id="a_edge1_Node000001_Node000002"><a xlink:title=" ">
<path fill="none" stroke="#63b8ff" d="M106.05,-211.39C99.69,-202.27 92.13,-191.45 87,-184.09"/>
<polygon fill="#63b8ff" stroke="#63b8ff" points="103.3,-213.55 111.89,-219.75 109.04,-209.55 103.3,-213.55"/>
</a>
</g>
</g>
<!-- Node7 -->
<g id="Node000007" class="node">
<title>Node7</title>
<g id="a_Node000007"><a xlink:href="SdlEventSource_8h.html" target="_top" xlink:title=" ">
<polygon fill="white" stroke="#666666" points="231.5,-129 130.5,-129 130.5,-110 231.5,-110 231.5,-129"/>
<text text-anchor="middle" x="181" y="-117" font-family="Helvetica,sans-Serif" font-size="10.00">SdlEventSource.h</text>
</a>
</g>
</g>
<!-- Node1&#45;&gt;Node7 -->
<g id="edge6_Node000001_Node000007" class="edge">
<title>Node1&#45;&gt;Node7</title>
<g id="a_edge6_Node000001_Node000007"><a xlink:title=" ">
<path fill="none" stroke="#63b8ff" d="M128.35,-210.76C142.04,-187.28 165.65,-146.81 175.95,-129.16"/>
<polygon fill="#63b8ff" stroke="#63b8ff" points="125.17,-209.26 123.16,-219.66 131.22,-212.79 125.17,-209.26"/>
</a>
</g>
</g>
<!-- Node3 -->
<g id="Node000003" class="node">
<title>Node3</title>
<g id="a_Node000003"><a xlink:href="BaseInputHandler_8h.html" target="_top" xlink:title=" ">
<polygon fill="white" stroke="#666666" points="112,-129 0,-129 0,-110 112,-110 112,-129"/>
<text text-anchor="middle" x="56" y="-117" font-family="Helvetica,sans-Serif" font-size="10.00">BaseInputHandler.h</text>
</a>
</g>
</g>
<!-- Node2&#45;&gt;Node3 -->
<g id="edge2_Node000002_Node000003" class="edge">
<title>Node2&#45;&gt;Node3</title>
<g id="a_edge2_Node000002_Node000003"><a xlink:title=" ">
<path fill="none" stroke="#63b8ff" d="M72.52,-155.53C68.31,-146.6 63.41,-136.22 60.05,-129.09"/>
<polygon fill="#63b8ff" stroke="#63b8ff" points="69.44,-157.2 76.87,-164.75 75.77,-154.21 69.44,-157.2"/>
</a>
</g>
</g>
<!-- Node4 -->
<g id="Node000004" class="node">
<title>Node4</title>
<g id="a_Node000004"><a xlink:href="KeyboardHandler_8h.html" target="_top" xlink:title="Concrete implementation of the InputHandler interface for polling keyboard inputs.">
<polygon fill="white" stroke="#666666" points="118.5,-74 9.5,-74 9.5,-55 118.5,-55 118.5,-74"/>
<text text-anchor="middle" x="64" y="-62" font-family="Helvetica,sans-Serif" font-size="10.00">KeyboardHandler.h</text>
</a>
</g>
</g>
<!-- Node3&#45;&gt;Node4 -->
<g id="edge3_Node000003_Node000004" class="edge">
<title>Node3&#45;&gt;Node4</title>
<g id="a_edge3_Node000003_Node000004"><a xlink:title=" ">
<path fill="none" stroke="#63b8ff" d="M58.84,-99.66C60.16,-90.93 61.66,-80.99 62.7,-74.09"/>
<polygon fill="#63b8ff" stroke="#63b8ff" points="55.35,-99.34 57.32,-109.75 62.27,-100.38 55.35,-99.34"/>
</a>
</g>
</g>
<!-- Node5 -->
<g id="Node000005" class="node">
<title>Node5</title>
<g id="a_Node000005"><a xlink:href="KeyboardHandler_8cpp.html" target="_top" xlink:title=" ">
<polygon fill="white" stroke="#666666" points="124,-19 4,-19 4,0 124,0 124,-19"/>
<text text-anchor="middle" x="64" y="-7" font-family="Helvetica,sans-Serif" font-size="10.00">KeyboardHandler.cpp</text>
</a>
</g>
</g>
<!-- Node4&#45;&gt;Node5 -->
<g id="edge4_Node000004_Node000005" class="edge">
<title>Node4&#45;&gt;Node5</title>
<g id="a_edge4_Node000004_Node000005"><a xlink:title=" ">
<path fill="none" stroke="#63b8ff" d="M64,-44.66C64,-35.93 64,-25.99 64,-19.09"/>
<polygon fill="#63b8ff" stroke="#63b8ff" points="60.5,-44.75 64,-54.75 67.5,-44.75 60.5,-44.75"/>
</a>
</g>
</g>
<!-- Node6 -->
<g id="Node000006" class="node">
<title>Node6</title>
<g id="a_Node000006"><a xlink:href="main_8cpp.html" target="_top" xlink:title=" ">
<polygon fill="white" stroke="#666666" points="208,-19 146,-19 146,0 208,0 208,-19"/>
<text text-anchor="middle" x="177" y="-7" font-family="Helvetica,sans-Serif" font-size="10.00">main.cpp</text>
</a>
</g>
</g>
<!-- Node4&#45;&gt;Node6 -->
<g id="edge5_Node000004_Node000006" class="edge">
<title>Node4&#45;&gt;Node6</title>
<g id="a_edge5_Node000004_Node000006"><a xlink:title=" ">
<path fill="none" stroke="#63b8ff" d="M91.43,-50.63C112.25,-40.87 140.3,-27.71 158.51,-19.17"/>
<polygon fill="#63b8ff" stroke="#63b8ff" points="89.72,-47.57 82.16,-54.98 92.7,-53.91 89.72,-47.57"/>
</a>
</g>
</g>
<!-- Node7&#45;&gt;Node6 -->
<g id="edge7_Node000007_Node000006" class="edge">
<title>Node7&#45;&gt;Node6</title>
<g id="a_edge7_Node000007_Node000006"><a xlink:title=" ">
<path fill="none" stroke="#63b8ff" d="M180.3,-99.48C179.42,-75.84 177.96,-36.5 177.32,-19.16"/>
<polygon fill="#63b8ff" stroke="#63b8ff" points="176.8,-99.8 180.67,-109.66 183.8,-99.54 176.8,-99.8"/>
</a>
</g>
</g>
</g>
</svg>
