<?xml version="1.0" encoding="UTF-8" standalone="no"?>
<!DOCTYPE svg PUBLIC "-//W3C//DTD SVG 1.1//EN"
 "http://www.w3.org/Graphics/SVG/1.1/DTD/svg11.dtd">
<!-- Generated by graphviz version 2.43.0 (0)
 -->
<!-- Title: IInputHandler.h Pages: 1 -->
<svg width="628pt" height="192pt"
 viewBox="0.00 0.00 628.00 192.00" xmlns="http://www.w3.org/2000/svg" xmlns:xlink="http://www.w3.org/1999/xlink">
<g id="graph0" class="graph" transform="scale(1 1) rotate(0) translate(4 188)">
<title>IInputHandler.h</title>
<!-- Node1 -->
<g id="Node000001" class="node">
<title>Node1</title>
<g id="a_Node000001"><a xlink:title="An abstraction representing some source of player inputs (keyboard, mouse, controller,...">
<polygon fill="#999999" stroke="#666666" points="329,-184 238,-184 238,-165 329,-165 329,-184"/>
<text text-anchor="middle" x="283.5" y="-172" font-family="Helvetica,sans-Serif" font-size="10.00">IInputHandler.h</text>
</a>
</g>
</g>
<!-- Node2 -->
<g id="Node000002" class="node">
<title>Node2</title>
<g id="a_Node000002"><a xlink:title=" ">
<polygon fill="#e0e0e0" stroke="#999999" points="220.5,-129 162.5,-129 162.5,-110 220.5,-110 220.5,-129"/>
<text text-anchor="middle" x="191.5" y="-117" font-family="Helvetica,sans-Serif" font-size="10.00">memory</text>
</a>
</g>
</g>
<!-- Node1&#45;&gt;Node2 -->
<g id="edge1_Node000001_Node000002" class="edge">
<title>Node1&#45;&gt;Node2</title>
<g id="a_edge1_Node000001_Node000002"><a xlink:title=" ">
<path fill="none" stroke="#63b8ff" d="M268.72,-164.98C254.32,-156.69 232.19,-143.94 215.31,-134.22"/>
<polygon fill="#63b8ff" stroke="#63b8ff" points="216.96,-131.13 206.55,-129.17 213.47,-137.19 216.96,-131.13"/>
</a>
</g>
</g>
<!-- Node3 -->
<g id="Node000003" class="node">
<title>Node3</title>
<g id="a_Node000003"><a xlink:href="IEventSource_8h.html" target="_top" xlink:title=" ">
<polygon fill="white" stroke="#666666" points="328,-129 239,-129 239,-110 328,-110 328,-129"/>
<text text-anchor="middle" x="283.5" y="-117" font-family="Helvetica,sans-Serif" font-size="10.00">IEventSource.h</text>
</a>
</g>
</g>
<!-- Node1&#45;&gt;Node3 -->
<g id="edge2_Node000001_Node000003" class="edge">
<title>Node1&#45;&gt;Node3</title>
<g id="a_edge2_Node000001_Node000003"><a xlink:title=" ">
<path fill="none" stroke="#63b8ff" d="M283.5,-164.75C283.5,-157.8 283.5,-147.85 283.5,-139.13"/>
<polygon fill="#63b8ff" stroke="#63b8ff" points="287,-139.09 283.5,-129.09 280,-139.09 287,-139.09"/>
</a>
</g>
</g>
<!-- Node5 -->
<g id="Node000005" class="node">
<title>Node5</title>
<g id="a_Node000005"><a xlink:href="IInputNormalizer_8h.html" target="_top" xlink:title="An abstraction for translating raw inputs through bindings and into commands.">
<polygon fill="white" stroke="#666666" points="453,-129 346,-129 346,-110 453,-110 453,-129"/>
<text text-anchor="middle" x="399.5" y="-117" font-family="Helvetica,sans-Serif" font-size="10.00">IInputNormalizer.h</text>
</a>
</g>
</g>
<!-- Node1&#45;&gt;Node5 -->
<g id="edge4_Node000001_Node000005" class="edge">
<title>Node1&#45;&gt;Node5</title>
<g id="a_edge4_Node000001_Node000005"><a xlink:title=" ">
<path fill="none" stroke="#63b8ff" d="M302.14,-164.98C320.8,-156.46 349.75,-143.23 371.24,-133.41"/>
<polygon fill="#63b8ff" stroke="#63b8ff" points="372.88,-136.51 380.52,-129.17 369.97,-130.14 372.88,-136.51"/>
</a>
</g>
</g>
<!-- Node4 -->
<g id="Node000004" class="node">
<title>Node4</title>
<g id="a_Node000004"><a xlink:title=" ">
<polygon fill="#e0e0e0" stroke="#999999" points="338.5,-74 228.5,-74 228.5,-55 338.5,-55 338.5,-74"/>
<text text-anchor="middle" x="283.5" y="-62" font-family="Helvetica,sans-Serif" font-size="10.00">SDL3/SDL_events.h</text>
</a>
</g>
</g>
<!-- Node3&#45;&gt;Node4 -->
<g id="edge3_Node000003_Node000004" class="edge">
<title>Node3&#45;&gt;Node4</title>
<g id="a_edge3_Node000003_Node000004"><a xlink:title=" ">
<path fill="none" stroke="#63b8ff" d="M283.5,-109.75C283.5,-102.8 283.5,-92.85 283.5,-84.13"/>
<polygon fill="#63b8ff" stroke="#63b8ff" points="287,-84.09 283.5,-74.09 280,-84.09 287,-84.09"/>
</a>
</g>
</g>
<!-- Node6 -->
<g id="Node000006" class="node">
<title>Node6</title>
<g id="a_Node000006"><a xlink:href="InputCode_8h.html" target="_top" xlink:title="Defines a unified abstraction for all input bindings.">
<polygon fill="white" stroke="#666666" points="437,-74 362,-74 362,-55 437,-55 437,-74"/>
<text text-anchor="middle" x="399.5" y="-62" font-family="Helvetica,sans-Serif" font-size="10.00">InputCode.h</text>
</a>
</g>
</g>
<!-- Node5&#45;&gt;Node6 -->
<g id="edge5_Node000005_Node000006" class="edge">
<title>Node5&#45;&gt;Node6</title>
<g id="a_edge5_Node000005_Node000006"><a xlink:title=" ">
<path fill="none" stroke="#63b8ff" d="M399.5,-109.75C399.5,-102.8 399.5,-92.85 399.5,-84.13"/>
<polygon fill="#63b8ff" stroke="#63b8ff" points="403,-84.09 399.5,-74.09 396,-84.09 403,-84.09"/>
</a>
</g>
</g>
<!-- Node7 -->
<g id="Node000007" class="node">
<title>Node7</title>
<g id="a_Node000007"><a xlink:title=" ">
<polygon fill="#e0e0e0" stroke="#999999" points="123,-19 0,-19 0,0 123,0 123,-19"/>
<text text-anchor="middle" x="61.5" y="-7" font-family="Helvetica,sans-Serif" font-size="10.00">SDL3/SDL_gamepad.h</text>
</a>
</g>
</g>
<!-- Node6&#45;&gt;Node7 -->
<g id="edge6_Node000006_Node000007" class="edge">
<title>Node6&#45;&gt;Node7</title>
<g id="a_edge6_Node000006_Node000007"><a xlink:title=" ">
<path fill="none" stroke="#63b8ff" d="M361.73,-57.29C356.94,-56.51 352.11,-55.73 347.5,-55 272.02,-42.96 185.26,-29.52 127.27,-20.59"/>
<polygon fill="#63b8ff" stroke="#63b8ff" points="127.57,-17.09 117.15,-19.03 126.5,-24.01 127.57,-17.09"/>
</a>
</g>
</g>
<!-- Node8 -->
<g id="Node000008" class="node">
<title>Node8</title>
<g id="a_Node000008"><a xlink:title=" ">
<polygon fill="#e0e0e0" stroke="#999999" points="263.5,-19 141.5,-19 141.5,0 263.5,0 263.5,-19"/>
<text text-anchor="middle" x="202.5" y="-7" font-family="Helvetica,sans-Serif" font-size="10.00">SDL3/SDL_keyboard.h</text>
</a>
</g>
</g>
<!-- Node6&#45;&gt;Node8 -->
<g id="edge7_Node000006_Node000008" class="edge">
<title>Node6&#45;&gt;Node8</title>
<g id="a_edge7_Node000006_Node000008"><a xlink:title=" ">
<path fill="none" stroke="#63b8ff" d="M367.85,-54.98C334.34,-45.97 281.3,-31.7 244.36,-21.76"/>
<polygon fill="#63b8ff" stroke="#63b8ff" points="244.97,-18.3 234.4,-19.08 243.15,-25.06 244.97,-18.3"/>
</a>
</g>
</g>
<!-- Node9 -->
<g id="Node000009" class="node">
<title>Node9</title>
<g id="a_Node000009"><a xlink:title=" ">
<polygon fill="#e0e0e0" stroke="#999999" points="405,-19 282,-19 282,0 405,0 405,-19"/>
<text text-anchor="middle" x="343.5" y="-7" font-family="Helvetica,sans-Serif" font-size="10.00">SDL3/SDL_scancode.h</text>
</a>
</g>
</g>
<!-- Node6&#45;&gt;Node9 -->
<g id="edge8_Node000006_Node000009" class="edge">
<title>Node6&#45;&gt;Node9</title>
<g id="a_edge8_Node000006_Node000009"><a xlink:title=" ">
<path fill="none" stroke="#63b8ff" d="M390.5,-54.98C382.31,-47.23 369.99,-35.58 360.03,-26.14"/>
<polygon fill="#63b8ff" stroke="#63b8ff" points="362.33,-23.5 352.66,-19.17 357.52,-28.59 362.33,-23.5"/>
</a>
</g>
</g>
<!-- Node10 -->
<g id="Node000010" class="node">
<title>Node10</title>
<g id="a_Node000010"><a xlink:title=" ">
<polygon fill="#e0e0e0" stroke="#999999" points="488,-19 423,-19 423,0 488,0 488,-19"/>
<text text-anchor="middle" x="455.5" y="-7" font-family="Helvetica,sans-Serif" font-size="10.00">stdexcept</text>
</a>
</g>
</g>
<!-- Node6&#45;&gt;Node10 -->
<g id="edge9_Node000006_Node000010" class="edge">
<title>Node6&#45;&gt;Node10</title>
<g id="a_edge9_Node000006_Node000010"><a xlink:title=" ">
<path fill="none" stroke="#63b8ff" d="M408.5,-54.98C416.69,-47.23 429.01,-35.58 438.97,-26.14"/>
<polygon fill="#63b8ff" stroke="#63b8ff" points="441.48,-28.59 446.34,-19.17 436.67,-23.5 441.48,-28.59"/>
</a>
</g>
</g>
<!-- Node11 -->
<g id="Node000011" class="node">
<title>Node11</title>
<g id="a_Node000011"><a xlink:title=" ">
<polygon fill="#e0e0e0" stroke="#999999" points="550.5,-19 506.5,-19 506.5,0 550.5,0 550.5,-19"/>
<text text-anchor="middle" x="528.5" y="-7" font-family="Helvetica,sans-Serif" font-size="10.00">string</text>
</a>
</g>
</g>
<!-- Node6&#45;&gt;Node11 -->
<g id="edge10_Node000006_Node000011" class="edge">
<title>Node6&#45;&gt;Node11</title>
<g id="a_edge10_Node000006_Node000011"><a xlink:title=" ">
<path fill="none" stroke="#63b8ff" d="M420.23,-54.98C441.26,-46.34 474.05,-32.87 498.04,-23.02"/>
<polygon fill="#63b8ff" stroke="#63b8ff" points="499.48,-26.21 507.4,-19.17 496.82,-19.73 499.48,-26.21"/>
</a>
</g>
</g>
<!-- Node12 -->
<g id="Node000012" class="node">
<title>Node12</title>
<g id="a_Node000012"><a xlink:title=" ">
<polygon fill="#e0e0e0" stroke="#999999" points="620,-19 569,-19 569,0 620,0 620,-19"/>
<text text-anchor="middle" x="594.5" y="-7" font-family="Helvetica,sans-Serif" font-size="10.00">variant</text>
</a>
</g>
</g>
<!-- Node6&#45;&gt;Node12 -->
<g id="edge11_Node000006_Node000012" class="edge">
<title>Node6&#45;&gt;Node12</title>
<g id="a_edge11_Node000006_Node000012"><a xlink:title=" ">
<path fill="none" stroke="#63b8ff" d="M430.83,-54.98C465.86,-45.46 522.48,-30.08 559.09,-20.12"/>
<polygon fill="#63b8ff" stroke="#63b8ff" points="560.12,-23.47 568.85,-17.47 558.28,-16.72 560.12,-23.47"/>
</a>
</g>
</g>
</g>
</svg>
