<?xml version="1.0" encoding="UTF-8" standalone="no"?>
<!DOCTYPE svg PUBLIC "-//W3C//DTD SVG 1.1//EN"
 "http://www.w3.org/Graphics/SVG/1.1/DTD/svg11.dtd">
<!-- Generated by graphviz version 2.43.0 (0)
 -->
<!-- Title: IInputNormalizer.h Pages: 1 -->
<svg width="321pt" height="247pt"
 viewBox="0.00 0.00 320.50 247.00" xmlns="http://www.w3.org/2000/svg" xmlns:xlink="http://www.w3.org/1999/xlink">
<g id="graph0" class="graph" transform="scale(1 1) rotate(0) translate(4 243)">
<title>IInputNormalizer.h</title>
<!-- Node1 -->
<g id="Node000001" class="node">
<title>Node1</title>
<g id="a_Node000001"><a xlink:title="An abstraction for translating raw inputs through bindings and into commands.">
<polygon fill="#999999" stroke="#666666" points="183.5,-239 76.5,-239 76.5,-220 183.5,-220 183.5,-239"/>
<text text-anchor="middle" x="130" y="-227" font-family="Helvetica,sans-Serif" font-size="10.00">IInputNormalizer.h</text>
</a>
</g>
</g>
<!-- Node2 -->
<g id="Node000002" class="node">
<title>Node2</title>
<g id="a_Node000002"><a xlink:href="IInputHandler_8h.html" target="_top" xlink:title="An abstraction representing some source of player inputs (keyboard, mouse, controller,...">
<polygon fill="white" stroke="#666666" points="117.5,-184 26.5,-184 26.5,-165 117.5,-165 117.5,-184"/>
<text text-anchor="middle" x="72" y="-172" font-family="Helvetica,sans-Serif" font-size="10.00">IInputHandler.h</text>
</a>
</g>
</g>
<!-- Node1&#45;&gt;Node2 -->
<g id="edge1_Node000001_Node000002" class="edge">
<title>Node1&#45;&gt;Node2</title>
<g id="a_edge1_Node000001_Node000002"><a xlink:title=" ">
<path fill="none" stroke="#63b8ff" d="M113.09,-213.04C102.8,-203.64 90.03,-191.98 81.49,-184.17"/>
<polygon fill="#63b8ff" stroke="#63b8ff" points="110.94,-215.82 120.68,-219.98 115.66,-210.66 110.94,-215.82"/>
</a>
</g>
</g>
<!-- Node7 -->
<g id="Node000007" class="node">
<title>Node7</title>
<g id="a_Node000007"><a xlink:href="InputNormalizer_8h.html" target="_top" xlink:title="Concrete implementation of InputNormalizer.">
<polygon fill="white" stroke="#666666" points="240,-184 136,-184 136,-165 240,-165 240,-184"/>
<text text-anchor="middle" x="188" y="-172" font-family="Helvetica,sans-Serif" font-size="10.00">InputNormalizer.h</text>
</a>
</g>
</g>
<!-- Node1&#45;&gt;Node7 -->
<g id="edge6_Node000001_Node000007" class="edge">
<title>Node1&#45;&gt;Node7</title>
<g id="a_edge6_Node000001_Node000007"><a xlink:title=" ">
<path fill="none" stroke="#63b8ff" d="M146.91,-213.04C157.2,-203.64 169.97,-191.98 178.51,-184.17"/>
<polygon fill="#63b8ff" stroke="#63b8ff" points="144.34,-210.66 139.32,-219.98 149.06,-215.82 144.34,-210.66"/>
</a>
</g>
</g>
<!-- Node3 -->
<g id="Node000003" class="node">
<title>Node3</title>
<g id="a_Node000003"><a xlink:href="BaseInputHandler_8h.html" target="_top" xlink:title=" ">
<polygon fill="white" stroke="#666666" points="128,-129 16,-129 16,-110 128,-110 128,-129"/>
<text text-anchor="middle" x="72" y="-117" font-family="Helvetica,sans-Serif" font-size="10.00">BaseInputHandler.h</text>
</a>
</g>
</g>
<!-- Node2&#45;&gt;Node3 -->
<g id="edge2_Node000002_Node000003" class="edge">
<title>Node2&#45;&gt;Node3</title>
<g id="a_edge2_Node000002_Node000003"><a xlink:title=" ">
<path fill="none" stroke="#63b8ff" d="M72,-154.66C72,-145.93 72,-135.99 72,-129.09"/>
<polygon fill="#63b8ff" stroke="#63b8ff" points="68.5,-154.75 72,-164.75 75.5,-154.75 68.5,-154.75"/>
</a>
</g>
</g>
<!-- Node4 -->
<g id="Node000004" class="node">
<title>Node4</title>
<g id="a_Node000004"><a xlink:href="KeyboardHandler_8h.html" target="_top" xlink:title="Concrete implementation of the InputHandler interface for polling keyboard inputs.">
<polygon fill="white" stroke="#666666" points="126.5,-74 17.5,-74 17.5,-55 126.5,-55 126.5,-74"/>
<text text-anchor="middle" x="72" y="-62" font-family="Helvetica,sans-Serif" font-size="10.00">KeyboardHandler.h</text>
</a>
</g>
</g>
<!-- Node3&#45;&gt;Node4 -->
<g id="edge3_Node000003_Node000004" class="edge">
<title>Node3&#45;&gt;Node4</title>
<g id="a_edge3_Node000003_Node000004"><a xlink:title=" ">
<path fill="none" stroke="#63b8ff" d="M72,-99.66C72,-90.93 72,-80.99 72,-74.09"/>
<polygon fill="#63b8ff" stroke="#63b8ff" points="68.5,-99.75 72,-109.75 75.5,-99.75 68.5,-99.75"/>
</a>
</g>
</g>
<!-- Node5 -->
<g id="Node000005" class="node">
<title>Node5</title>
<g id="a_Node000005"><a xlink:href="KeyboardHandler_8cpp.html" target="_top" xlink:title=" ">
<polygon fill="white" stroke="#666666" points="120,-19 0,-19 0,0 120,0 120,-19"/>
<text text-anchor="middle" x="60" y="-7" font-family="Helvetica,sans-Serif" font-size="10.00">KeyboardHandler.cpp</text>
</a>
</g>
</g>
<!-- Node4&#45;&gt;Node5 -->
<g id="edge4_Node000004_Node000005" class="edge">
<title>Node4&#45;&gt;Node5</title>
<g id="a_edge4_Node000004_Node000005"><a xlink:title=" ">
<path fill="none" stroke="#63b8ff" d="M67.8,-44.95C65.81,-36.15 63.52,-26.06 61.94,-19.09"/>
<polygon fill="#63b8ff" stroke="#63b8ff" points="64.4,-45.77 70.02,-54.75 71.22,-44.22 64.4,-45.77"/>
</a>
</g>
</g>
<!-- Node6 -->
<g id="Node000006" class="node">
<title>Node6</title>
<g id="a_Node000006"><a xlink:href="main_8cpp.html" target="_top" xlink:title=" ">
<polygon fill="white" stroke="#666666" points="200,-19 138,-19 138,0 200,0 200,-19"/>
<text text-anchor="middle" x="169" y="-7" font-family="Helvetica,sans-Serif" font-size="10.00">main.cpp</text>
</a>
</g>
</g>
<!-- Node4&#45;&gt;Node6 -->
<g id="edge5_Node000004_Node000006" class="edge">
<title>Node4&#45;&gt;Node6</title>
<g id="a_edge5_Node000004_Node000006"><a xlink:title=" ">
<path fill="none" stroke="#63b8ff" d="M96.77,-49.97C114.5,-40.28 137.85,-27.52 153.13,-19.17"/>
<polygon fill="#63b8ff" stroke="#63b8ff" points="94.68,-47.12 87.58,-54.98 98.04,-53.26 94.68,-47.12"/>
</a>
</g>
</g>
<!-- Node7&#45;&gt;Node6 -->
<g id="edge8_Node000007_Node000006" class="edge">
<title>Node7&#45;&gt;Node6</title>
<g id="a_edge8_Node000007_Node000006"><a xlink:title=" ">
<path fill="none" stroke="#63b8ff" d="M185.77,-154.37C181.65,-119.03 173,-44.79 170.03,-19.31"/>
<polygon fill="#63b8ff" stroke="#63b8ff" points="182.34,-155.21 186.98,-164.74 189.3,-154.4 182.34,-155.21"/>
</a>
</g>
</g>
<!-- Node8 -->
<g id="Node000008" class="node">
<title>Node8</title>
<g id="a_Node000008"><a xlink:href="InputNormalizer_8cpp.html" target="_top" xlink:title=" ">
<polygon fill="white" stroke="#666666" points="312.5,-129 197.5,-129 197.5,-110 312.5,-110 312.5,-129"/>
<text text-anchor="middle" x="255" y="-117" font-family="Helvetica,sans-Serif" font-size="10.00">InputNormalizer.cpp</text>
</a>
</g>
</g>
<!-- Node7&#45;&gt;Node8 -->
<g id="edge7_Node000007_Node000008" class="edge">
<title>Node7&#45;&gt;Node8</title>
<g id="a_edge7_Node000007_Node000008"><a xlink:title=" ">
<path fill="none" stroke="#63b8ff" d="M206.83,-158.6C218.84,-149.11 233.97,-137.13 244.04,-129.17"/>
<polygon fill="#63b8ff" stroke="#63b8ff" points="204.44,-156.04 198.76,-164.98 208.78,-161.53 204.44,-156.04"/>
</a>
</g>
</g>
</g>
</svg>
