<?xml version="1.0" encoding="UTF-8" standalone="no"?>
<!DOCTYPE svg PUBLIC "-//W3C//DTD SVG 1.1//EN"
 "http://www.w3.org/Graphics/SVG/1.1/DTD/svg11.dtd">
<!-- Generated by graphviz version 2.43.0 (0)
 -->
<!-- Title: IInputHandler.h Pages: 1 -->
<svg width="208pt" height="192pt"
 viewBox="0.00 0.00 208.00 192.00" xmlns="http://www.w3.org/2000/svg" xmlns:xlink="http://www.w3.org/1999/xlink">
<g id="graph0" class="graph" transform="scale(1 1) rotate(0) translate(4 188)">
<title>IInputHandler.h</title>
<!-- Node1 -->
<g id="Node000001" class="node">
<title>Node1</title>
<g id="a_Node000001"><a xlink:title="An abstraction representing some source of player inputs (keyboard, mouse, controller,...">
<polygon fill="#999999" stroke="#666666" points="159.5,-184 68.5,-184 68.5,-165 159.5,-165 159.5,-184"/>
<text text-anchor="middle" x="114" y="-172" font-family="Helvetica,sans-Serif" font-size="10.00">IInputHandler.h</text>
</a>
</g>
</g>
<!-- Node2 -->
<g id="Node000002" class="node">
<title>Node2</title>
<g id="a_Node000002"><a xlink:href="BaseInputHandler_8h.html" target="_top" xlink:title=" ">
<polygon fill="white" stroke="#666666" points="170,-129 58,-129 58,-110 170,-110 170,-129"/>
<text text-anchor="middle" x="114" y="-117" font-family="Helvetica,sans-Serif" font-size="10.00">BaseInputHandler.h</text>
</a>
</g>
</g>
<!-- Node1&#45;&gt;Node2 -->
<g id="edge1_Node000001_Node000002" class="edge">
<title>Node1&#45;&gt;Node2</title>
<g id="a_edge1_Node000001_Node000002"><a xlink:title=" ">
<path fill="none" stroke="#63b8ff" d="M114,-154.66C114,-145.93 114,-135.99 114,-129.09"/>
<polygon fill="#63b8ff" stroke="#63b8ff" points="110.5,-154.75 114,-164.75 117.5,-154.75 110.5,-154.75"/>
</a>
</g>
</g>
<!-- Node3 -->
<g id="Node000003" class="node">
<title>Node3</title>
<g id="a_Node000003"><a xlink:href="KeyboardHandler_8h.html" target="_top" xlink:title="Concrete implementation of the InputHandler interface for polling keyboard inputs.">
<polygon fill="white" stroke="#666666" points="168.5,-74 59.5,-74 59.5,-55 168.5,-55 168.5,-74"/>
<text text-anchor="middle" x="114" y="-62" font-family="Helvetica,sans-Serif" font-size="10.00">KeyboardHandler.h</text>
</a>
</g>
</g>
<!-- Node2&#45;&gt;Node3 -->
<g id="edge2_Node000002_Node000003" class="edge">
<title>Node2&#45;&gt;Node3</title>
<g id="a_edge2_Node000002_Node000003"><a xlink:title=" ">
<path fill="none" stroke="#63b8ff" d="M114,-99.66C114,-90.93 114,-80.99 114,-74.09"/>
<polygon fill="#63b8ff" stroke="#63b8ff" points="110.5,-99.75 114,-109.75 117.5,-99.75 110.5,-99.75"/>
</a>
</g>
</g>
<!-- Node4 -->
<g id="Node000004" class="node">
<title>Node4</title>
<g id="a_Node000004"><a xlink:href="KeyboardHandler_8cpp.html" target="_top" xlink:title=" ">
<polygon fill="white" stroke="#666666" points="120,-19 0,-19 0,0 120,0 120,-19"/>
<text text-anchor="middle" x="60" y="-7" font-family="Helvetica,sans-Serif" font-size="10.00">KeyboardHandler.cpp</text>
</a>
</g>
</g>
<!-- Node3&#45;&gt;Node4 -->
<g id="edge3_Node000003_Node000004" class="edge">
<title>Node3&#45;&gt;Node4</title>
<g id="a_edge3_Node000003_Node000004"><a xlink:title=" ">
<path fill="none" stroke="#63b8ff" d="M97.72,-47.52C88.2,-38.18 76.56,-26.75 68.75,-19.09"/>
<polygon fill="#63b8ff" stroke="#63b8ff" points="95.49,-50.24 105.08,-54.75 100.4,-45.25 95.49,-50.24"/>
</a>
</g>
</g>
<!-- Node5 -->
<g id="Node000005" class="node">
<title>Node5</title>
<g id="a_Node000005"><a xlink:href="main_8cpp.html" target="_top" xlink:title=" ">
<polygon fill="white" stroke="#666666" points="200,-19 138,-19 138,0 200,0 200,-19"/>
<text text-anchor="middle" x="169" y="-7" font-family="Helvetica,sans-Serif" font-size="10.00">main.cpp</text>
</a>
</g>
</g>
<!-- Node3&#45;&gt;Node5 -->
<g id="edge4_Node000003_Node000005" class="edge">
<title>Node3&#45;&gt;Node5</title>
<g id="a_edge4_Node000003_Node000005"><a xlink:title=" ">
<path fill="none" stroke="#63b8ff" d="M130.29,-47.8C140.04,-38.41 152.05,-26.83 160.09,-19.09"/>
<polygon fill="#63b8ff" stroke="#63b8ff" points="127.85,-45.29 123.08,-54.75 132.71,-50.33 127.85,-45.29"/>
</a>
</g>
</g>
</g>
</svg>
