<?xml version="1.0" encoding="UTF-8" standalone="no"?>
<!DOCTYPE svg PUBLIC "-//W3C//DTD SVG 1.1//EN"
 "http://www.w3.org/Graphics/SVG/1.1/DTD/svg11.dtd">
<!-- Generated by graphviz version 2.43.0 (0)
 -->
<!-- Title: Graphical Class Hierarchy Pages: 1 -->
<svg width="512pt" height="27pt"
 viewBox="0.00 0.00 512.00 27.00" xmlns="http://www.w3.org/2000/svg" xmlns:xlink="http://www.w3.org/1999/xlink">
<g id="graph0" class="graph" transform="scale(1 1) rotate(0) translate(4 23)">
<title>Graphical Class Hierarchy</title>
<!-- Node0 -->
<g id="Node000000" class="node">
<title>Node0</title>
<g id="a_Node000000"><a xlink:href="classsb_1_1input_1_1IInputHandler.html" target="_top" xlink:title="Interface for polling device input, translating them to input codes, and then passing them on to an i...">
<polygon fill="white" stroke="#666666" points="131,-19 0,-19 0,0 131,0 131,-19"/>
<text text-anchor="middle" x="65.5" y="-7" font-family="Helvetica,sans-Serif" font-size="10.00">sb::input::IInputHandler</text>
</a>
</g>
</g>
<!-- Node1 -->
<g id="Node000001" class="node">
<title>Node1</title>
<g id="a_Node000001"><a xlink:href="classsb_1_1input_1_1BaseInputHandler.html" target="_top" xlink:title=" ">
<polygon fill="white" stroke="#666666" points="319,-19 167,-19 167,0 319,0 319,-19"/>
<text text-anchor="middle" x="243" y="-7" font-family="Helvetica,sans-Serif" font-size="10.00">sb::input::BaseInputHandler</text>
</a>
</g>
</g>
<!-- Node0&#45;&gt;Node1 -->
<g id="edge9_Node000000_Node000001" class="edge">
<title>Node0&#45;&gt;Node1</title>
<g id="a_edge9_Node000000_Node000001"><a xlink:title=" ">
<path fill="none" stroke="#63b8ff" d="M141.46,-9.5C149.84,-9.5 158.37,-9.5 166.74,-9.5"/>
<polygon fill="#63b8ff" stroke="#63b8ff" points="141.35,-6 131.35,-9.5 141.35,-13 141.35,-6"/>
</a>
</g>
</g>
<!-- Node2 -->
<g id="Node000002" class="node">
<title>Node2</title>
<g id="a_Node000002"><a xlink:href="classsb_1_1input_1_1KeyboardHandler.html" target="_top" xlink:title="polls inputs through the SDL library and passes those on to a normalizer for translation into game en...">
<polygon fill="white" stroke="#666666" points="504,-19 355,-19 355,0 504,0 504,-19"/>
<text text-anchor="middle" x="429.5" y="-7" font-family="Helvetica,sans-Serif" font-size="10.00">sb::input::KeyboardHandler</text>
</a>
</g>
</g>
<!-- Node1&#45;&gt;Node2 -->
<g id="edge10_Node000001_Node000002" class="edge">
<title>Node1&#45;&gt;Node2</title>
<g id="a_edge10_Node000001_Node000002"><a xlink:title=" ">
<path fill="none" stroke="#8b1a1a" d="M329.05,-9.5C337.62,-9.5 346.28,-9.5 354.72,-9.5"/>
<polygon fill="#8b1a1a" stroke="#8b1a1a" points="329.04,-6 319.04,-9.5 329.04,-13 329.04,-6"/>
</a>
</g>
</g>
</g>
</svg>
