<?xml version="1.0" encoding="UTF-8" standalone="no"?>
<!DOCTYPE svg PUBLIC "-//W3C//DTD SVG 1.1//EN"
 "http://www.w3.org/Graphics/SVG/1.1/DTD/svg11.dtd">
<!-- Generated by graphviz version 2.43.0 (0)
 -->
<!-- Title: Graphical Class Hierarchy Pages: 1 -->
<svg width="345pt" height="76pt"
 viewBox="0.00 0.00 345.00 75.50" xmlns="http://www.w3.org/2000/svg" xmlns:xlink="http://www.w3.org/1999/xlink">
<g id="graph0" class="graph" transform="scale(1 1) rotate(0) translate(4 71.5)">
<title>Graphical Class Hierarchy</title>
<!-- Node0 -->
<g id="Node000000" class="node">
<title>Node0</title>
<g id="a_Node000000"><a xlink:title=" ">
<polygon fill="#e0e0e0" stroke="#999999" points="130.5,-67.5 21.5,-67.5 21.5,-37.5 130.5,-37.5 130.5,-67.5"/>
<text text-anchor="start" x="29.5" y="-55.5" font-family="Helvetica,sans-Serif" font-size="10.00">std::enable_shared</text>
<text text-anchor="middle" x="76" y="-44.5" font-family="Helvetica,sans-Serif" font-size="10.00">_from_this</text>
</a>
</g>
</g>
<!-- Node1 -->
<g id="Node000001" class="node">
<title>Node1</title>
<g id="a_Node000001"><a xlink:href="classsb_1_1gamestate_1_1GameWorld.html" target="_top" xlink:title="Encapsulates the game state and manages ECS coordination, system updates, and entity access.">
<polygon fill="white" stroke="#666666" points="337,-40 188,-40 188,-21 337,-21 337,-40"/>
<text text-anchor="middle" x="262.5" y="-28" font-family="Helvetica,sans-Serif" font-size="10.00">sb::gamestate::GameWorld</text>
</a>
</g>
</g>
<!-- Node0&#45;&gt;Node1 -->
<g id="edge13_Node000000_Node000001" class="edge">
<title>Node0&#45;&gt;Node1</title>
<g id="a_edge13_Node000000_Node000001"><a xlink:title=" ">
<path fill="none" stroke="#63b8ff" d="M141.07,-44.86C156.11,-43.07 172.26,-41.14 187.68,-39.3"/>
<polygon fill="#63b8ff" stroke="#63b8ff" points="140.38,-41.42 130.86,-46.08 141.21,-48.37 140.38,-41.42"/>
</a>
</g>
</g>
<!-- Node2 -->
<g id="Node000002" class="node">
<title>Node2</title>
<g id="a_Node000002"><a xlink:href="classsb_1_1gamestate_1_1IGameWorld.html" target="_top" xlink:title="Abstract representation of a game world.">
<polygon fill="white" stroke="#666666" points="152,-19 0,-19 0,0 152,0 152,-19"/>
<text text-anchor="middle" x="76" y="-7" font-family="Helvetica,sans-Serif" font-size="10.00">sb::gamestate::IGameWorld</text>
</a>
</g>
</g>
<!-- Node2&#45;&gt;Node1 -->
<g id="edge14_Node000002_Node000001" class="edge">
<title>Node2&#45;&gt;Node1</title>
<g id="a_edge14_Node000002_Node000001"><a xlink:title=" ">
<path fill="none" stroke="#63b8ff" d="M162.05,-19.18C170.62,-20.16 179.28,-21.14 187.72,-22.1"/>
<polygon fill="#63b8ff" stroke="#63b8ff" points="162.37,-15.69 152.04,-18.04 161.58,-22.65 162.37,-15.69"/>
</a>
</g>
</g>
</g>
</svg>
