<?xml version="1.0" encoding="UTF-8" standalone="no"?>
<!DOCTYPE svg PUBLIC "-//W3C//DTD SVG 1.1//EN"
 "http://www.w3.org/Graphics/SVG/1.1/DTD/svg11.dtd">
<!-- Generated by graphviz version 2.43.0 (0)
 -->
<!-- Title: InputCode.h Pages: 1 -->
<svg width="543pt" height="302pt"
 viewBox="0.00 0.00 542.50 302.00" xmlns="http://www.w3.org/2000/svg" xmlns:xlink="http://www.w3.org/1999/xlink">
<g id="graph0" class="graph" transform="scale(1 1) rotate(0) translate(4 298)">
<title>InputCode.h</title>
<!-- Node1 -->
<g id="Node000001" class="node">
<title>Node1</title>
<g id="a_Node000001"><a xlink:title="Defines a unified abstraction for all input bindings.">
<polygon fill="#999999" stroke="#666666" points="382,-294 307,-294 307,-275 382,-275 382,-294"/>
<text text-anchor="middle" x="344.5" y="-282" font-family="Helvetica,sans-Serif" font-size="10.00">InputCode.h</text>
</a>
</g>
</g>
<!-- Node2 -->
<g id="Node000002" class="node">
<title>Node2</title>
<g id="a_Node000002"><a xlink:href="HardcodedBindingMap_8h.html" target="_top" xlink:title="A preconfigured set of hardcoded bindings until serialization is available.">
<polygon fill="white" stroke="#666666" points="234.5,-184 98.5,-184 98.5,-165 234.5,-165 234.5,-184"/>
<text text-anchor="middle" x="166.5" y="-172" font-family="Helvetica,sans-Serif" font-size="10.00">HardcodedBindingMap.h</text>
</a>
</g>
</g>
<!-- Node1&#45;&gt;Node2 -->
<g id="edge1_Node000001_Node000002" class="edge">
<title>Node1&#45;&gt;Node2</title>
<g id="a_edge1_Node000001_Node000002"><a xlink:title=" ">
<path fill="none" stroke="#63b8ff" d="M306.3,-271.68C284.61,-264.06 257.5,-252.97 235.5,-239 210.49,-223.12 186.16,-197.72 174.19,-184.37"/>
<polygon fill="#63b8ff" stroke="#63b8ff" points="305.25,-275.01 315.84,-274.93 307.5,-268.39 305.25,-275.01"/>
</a>
</g>
</g>
<!-- Node5 -->
<g id="Node000005" class="node">
<title>Node5</title>
<g id="a_Node000005"><a xlink:href="IBindingMap_8h.html" target="_top" xlink:title="Represents a source of loadable and saveable bindings.">
<polygon fill="white" stroke="#666666" points="330.5,-239 244.5,-239 244.5,-220 330.5,-220 330.5,-239"/>
<text text-anchor="middle" x="287.5" y="-227" font-family="Helvetica,sans-Serif" font-size="10.00">IBindingMap.h</text>
</a>
</g>
</g>
<!-- Node1&#45;&gt;Node5 -->
<g id="edge4_Node000001_Node000005" class="edge">
<title>Node1&#45;&gt;Node5</title>
<g id="a_edge4_Node000001_Node000005"><a xlink:title=" ">
<path fill="none" stroke="#63b8ff" d="M327.88,-268.04C317.77,-258.64 305.22,-246.98 296.82,-239.17"/>
<polygon fill="#63b8ff" stroke="#63b8ff" points="325.64,-270.74 335.34,-274.98 330.4,-265.61 325.64,-270.74"/>
</a>
</g>
</g>
<!-- Node8 -->
<g id="Node000008" class="node">
<title>Node8</title>
<g id="a_Node000008"><a xlink:href="IInputNormalizer_8h.html" target="_top" xlink:title="An abstraction for translating raw inputs through bindings and into commands.">
<polygon fill="white" stroke="#666666" points="456,-239 349,-239 349,-220 456,-220 456,-239"/>
<text text-anchor="middle" x="402.5" y="-227" font-family="Helvetica,sans-Serif" font-size="10.00">IInputNormalizer.h</text>
</a>
</g>
</g>
<!-- Node1&#45;&gt;Node8 -->
<g id="edge9_Node000001_Node000008" class="edge">
<title>Node1&#45;&gt;Node8</title>
<g id="a_edge9_Node000001_Node000008"><a xlink:title=" ">
<path fill="none" stroke="#63b8ff" d="M361.41,-268.04C371.7,-258.64 384.47,-246.98 393.01,-239.17"/>
<polygon fill="#63b8ff" stroke="#63b8ff" points="358.84,-265.66 353.82,-274.98 363.56,-270.82 358.84,-265.66"/>
</a>
</g>
</g>
<!-- Node12 -->
<g id="Node000012" class="node">
<title>Node12</title>
<g id="a_Node000012"><a xlink:href="KeyboardHandler_8cpp.html" target="_top" xlink:title=" ">
<polygon fill="white" stroke="#666666" points="534.5,-19 414.5,-19 414.5,0 534.5,0 534.5,-19"/>
<text text-anchor="middle" x="474.5" y="-7" font-family="Helvetica,sans-Serif" font-size="10.00">KeyboardHandler.cpp</text>
</a>
</g>
</g>
<!-- Node1&#45;&gt;Node12 -->
<g id="edge16_Node000001_Node000012" class="edge">
<title>Node1&#45;&gt;Node12</title>
<g id="a_edge16_Node000001_Node000012"><a xlink:title=" ">
<path fill="none" stroke="#63b8ff" d="M392.1,-274.84C443,-262.52 516.5,-234.5 516.5,-175.5 516.5,-175.5 516.5,-175.5 516.5,-118.5 516.5,-79.07 491.88,-36.71 480.34,-19.02"/>
<polygon fill="#63b8ff" stroke="#63b8ff" points="391.21,-271.46 382.25,-277.1 392.78,-278.28 391.21,-271.46"/>
</a>
</g>
</g>
<!-- Node3 -->
<g id="Node000003" class="node">
<title>Node3</title>
<g id="a_Node000003"><a xlink:href="HardCodedBindingMap_8cpp.html" target="_top" xlink:title=" ">
<polygon fill="white" stroke="#666666" points="149,-129 0,-129 0,-110 149,-110 149,-129"/>
<text text-anchor="middle" x="74.5" y="-117" font-family="Helvetica,sans-Serif" font-size="10.00">HardCodedBindingMap.cpp</text>
</a>
</g>
</g>
<!-- Node2&#45;&gt;Node3 -->
<g id="edge2_Node000002_Node000003" class="edge">
<title>Node2&#45;&gt;Node3</title>
<g id="a_edge2_Node000002_Node000003"><a xlink:title=" ">
<path fill="none" stroke="#63b8ff" d="M143.01,-159.97C126.19,-150.28 104.05,-137.52 89.55,-129.17"/>
<polygon fill="#63b8ff" stroke="#63b8ff" points="141.31,-163.03 151.72,-164.98 144.8,-156.96 141.31,-163.03"/>
</a>
</g>
</g>
<!-- Node4 -->
<g id="Node000004" class="node">
<title>Node4</title>
<g id="a_Node000004"><a xlink:href="main_8cpp.html" target="_top" xlink:title=" ">
<polygon fill="white" stroke="#666666" points="245.5,-19 183.5,-19 183.5,0 245.5,0 245.5,-19"/>
<text text-anchor="middle" x="214.5" y="-7" font-family="Helvetica,sans-Serif" font-size="10.00">main.cpp</text>
</a>
</g>
</g>
<!-- Node2&#45;&gt;Node4 -->
<g id="edge3_Node000002_Node000004" class="edge">
<title>Node2&#45;&gt;Node4</title>
<g id="a_edge3_Node000002_Node000004"><a xlink:title=" ">
<path fill="none" stroke="#63b8ff" d="M171.67,-154.93C178.21,-131.57 189.91,-90.23 200.5,-55 204.28,-42.44 208.88,-27.95 211.75,-19.01"/>
<polygon fill="#63b8ff" stroke="#63b8ff" points="168.22,-154.28 168.9,-164.85 174.96,-156.16 168.22,-154.28"/>
</a>
</g>
</g>
<!-- Node5&#45;&gt;Node2 -->
<g id="edge5_Node000005_Node000002" class="edge">
<title>Node5&#45;&gt;Node2</title>
<g id="a_edge5_Node000005_Node000002"><a xlink:title=" ">
<path fill="none" stroke="#63b8ff" d="M258.73,-215.9C236.38,-206.11 205.98,-192.79 186.29,-184.17"/>
<polygon fill="#63b8ff" stroke="#63b8ff" points="257.5,-219.18 268.06,-219.98 260.3,-212.77 257.5,-219.18"/>
</a>
</g>
</g>
<!-- Node6 -->
<g id="Node000006" class="node">
<title>Node6</title>
<g id="a_Node000006"><a xlink:href="InputNormalizer_8h.html" target="_top" xlink:title="Concrete implementation of InputNormalizer.">
<polygon fill="white" stroke="#666666" points="356.5,-184 252.5,-184 252.5,-165 356.5,-165 356.5,-184"/>
<text text-anchor="middle" x="304.5" y="-172" font-family="Helvetica,sans-Serif" font-size="10.00">InputNormalizer.h</text>
</a>
</g>
</g>
<!-- Node5&#45;&gt;Node6 -->
<g id="edge6_Node000005_Node000006" class="edge">
<title>Node5&#45;&gt;Node6</title>
<g id="a_edge6_Node000005_Node000006"><a xlink:title=" ">
<path fill="none" stroke="#63b8ff" d="M293.45,-209.95C296.27,-201.15 299.51,-191.06 301.75,-184.09"/>
<polygon fill="#63b8ff" stroke="#63b8ff" points="290.03,-209.16 290.31,-219.75 296.69,-211.29 290.03,-209.16"/>
</a>
</g>
</g>
<!-- Node6&#45;&gt;Node4 -->
<g id="edge8_Node000006_Node000004" class="edge">
<title>Node6&#45;&gt;Node4</title>
<g id="a_edge8_Node000006_Node000004"><a xlink:title=" ">
<path fill="none" stroke="#63b8ff" d="M271.86,-160.48C257.89,-153.27 242.7,-142.89 233.5,-129 210.15,-93.74 211.88,-39.89 213.6,-19.1"/>
<polygon fill="#63b8ff" stroke="#63b8ff" points="270.72,-163.82 281.25,-164.98 273.74,-157.5 270.72,-163.82"/>
</a>
</g>
</g>
<!-- Node7 -->
<g id="Node000007" class="node">
<title>Node7</title>
<g id="a_Node000007"><a xlink:href="InputNormalizer_8cpp.html" target="_top" xlink:title=" ">
<polygon fill="white" stroke="#666666" points="358,-129 243,-129 243,-110 358,-110 358,-129"/>
<text text-anchor="middle" x="300.5" y="-117" font-family="Helvetica,sans-Serif" font-size="10.00">InputNormalizer.cpp</text>
</a>
</g>
</g>
<!-- Node6&#45;&gt;Node7 -->
<g id="edge7_Node000006_Node000007" class="edge">
<title>Node6&#45;&gt;Node7</title>
<g id="a_edge7_Node000006_Node000007"><a xlink:title=" ">
<path fill="none" stroke="#63b8ff" d="M303.08,-154.66C302.42,-145.93 301.67,-135.99 301.15,-129.09"/>
<polygon fill="#63b8ff" stroke="#63b8ff" points="299.6,-155.04 303.84,-164.75 306.58,-154.51 299.6,-155.04"/>
</a>
</g>
</g>
<!-- Node8&#45;&gt;Node6 -->
<g id="edge15_Node000008_Node000006" class="edge">
<title>Node8&#45;&gt;Node6</title>
<g id="a_edge15_Node000008_Node000006"><a xlink:title=" ">
<path fill="none" stroke="#63b8ff" d="M377.47,-214.97C359.56,-205.28 335.97,-192.52 320.53,-184.17"/>
<polygon fill="#63b8ff" stroke="#63b8ff" points="376.29,-218.31 386.75,-219.98 379.62,-212.15 376.29,-218.31"/>
</a>
</g>
</g>
<!-- Node9 -->
<g id="Node000009" class="node">
<title>Node9</title>
<g id="a_Node000009"><a xlink:href="IInputHandler_8h.html" target="_top" xlink:title="An abstraction representing some source of player inputs (keyboard, mouse, controller,...">
<polygon fill="white" stroke="#666666" points="470,-184 379,-184 379,-165 470,-165 470,-184"/>
<text text-anchor="middle" x="424.5" y="-172" font-family="Helvetica,sans-Serif" font-size="10.00">IInputHandler.h</text>
</a>
</g>
</g>
<!-- Node8&#45;&gt;Node9 -->
<g id="edge10_Node000008_Node000009" class="edge">
<title>Node8&#45;&gt;Node9</title>
<g id="a_edge10_Node000008_Node000009"><a xlink:title=" ">
<path fill="none" stroke="#63b8ff" d="M410.08,-210.24C413.76,-201.37 418.01,-191.14 420.93,-184.09"/>
<polygon fill="#63b8ff" stroke="#63b8ff" points="406.73,-209.17 406.13,-219.75 413.2,-211.85 406.73,-209.17"/>
</a>
</g>
</g>
<!-- Node10 -->
<g id="Node000010" class="node">
<title>Node10</title>
<g id="a_Node000010"><a xlink:href="BaseInputHandler_8h.html" target="_top" xlink:title=" ">
<polygon fill="white" stroke="#666666" points="488.5,-129 376.5,-129 376.5,-110 488.5,-110 488.5,-129"/>
<text text-anchor="middle" x="432.5" y="-117" font-family="Helvetica,sans-Serif" font-size="10.00">BaseInputHandler.h</text>
</a>
</g>
</g>
<!-- Node9&#45;&gt;Node10 -->
<g id="edge11_Node000009_Node000010" class="edge">
<title>Node9&#45;&gt;Node10</title>
<g id="a_edge11_Node000009_Node000010"><a xlink:title=" ">
<path fill="none" stroke="#63b8ff" d="M427.34,-154.66C428.66,-145.93 430.16,-135.99 431.2,-129.09"/>
<polygon fill="#63b8ff" stroke="#63b8ff" points="423.85,-154.34 425.82,-164.75 430.77,-155.38 423.85,-154.34"/>
</a>
</g>
</g>
<!-- Node11 -->
<g id="Node000011" class="node">
<title>Node11</title>
<g id="a_Node000011"><a xlink:href="KeyboardHandler_8h.html" target="_top" xlink:title="Concrete implementation of the InputHandler interface for polling keyboard inputs.">
<polygon fill="white" stroke="#666666" points="487,-74 378,-74 378,-55 487,-55 487,-74"/>
<text text-anchor="middle" x="432.5" y="-62" font-family="Helvetica,sans-Serif" font-size="10.00">KeyboardHandler.h</text>
</a>
</g>
</g>
<!-- Node10&#45;&gt;Node11 -->
<g id="edge12_Node000010_Node000011" class="edge">
<title>Node10&#45;&gt;Node11</title>
<g id="a_edge12_Node000010_Node000011"><a xlink:title=" ">
<path fill="none" stroke="#63b8ff" d="M432.5,-99.66C432.5,-90.93 432.5,-80.99 432.5,-74.09"/>
<polygon fill="#63b8ff" stroke="#63b8ff" points="429,-99.75 432.5,-109.75 436,-99.75 429,-99.75"/>
</a>
</g>
</g>
<!-- Node11&#45;&gt;Node4 -->
<g id="edge14_Node000011_Node000004" class="edge">
<title>Node11&#45;&gt;Node4</title>
<g id="a_edge14_Node000011_Node000004"><a xlink:title=" ">
<path fill="none" stroke="#63b8ff" d="M387.69,-52.61C345.28,-42.29 282.73,-27.09 245.55,-18.05"/>
<polygon fill="#63b8ff" stroke="#63b8ff" points="386.93,-56.02 397.47,-54.98 388.58,-49.22 386.93,-56.02"/>
</a>
</g>
</g>
<!-- Node11&#45;&gt;Node12 -->
<g id="edge13_Node000011_Node000012" class="edge">
<title>Node11&#45;&gt;Node12</title>
<g id="a_edge13_Node000011_Node000012"><a xlink:title=" ">
<path fill="none" stroke="#63b8ff" d="M445.83,-46.67C453.11,-37.5 461.8,-26.52 467.69,-19.09"/>
<polygon fill="#63b8ff" stroke="#63b8ff" points="442.9,-44.74 439.44,-54.75 448.39,-49.08 442.9,-44.74"/>
</a>
</g>
</g>
</g>
</svg>
