<?xml version="1.0" encoding="UTF-8" standalone="no"?>
<!DOCTYPE svg PUBLIC "-//W3C//DTD SVG 1.1//EN"
 "http://www.w3.org/Graphics/SVG/1.1/DTD/svg11.dtd">
<!-- Generated by graphviz version 2.43.0 (0)
 -->
<!-- Title: InputNormalizer.h Pages: 1 -->
<svg width="859pt" height="357pt"
 viewBox="0.00 0.00 858.50 357.00" xmlns="http://www.w3.org/2000/svg" xmlns:xlink="http://www.w3.org/1999/xlink">
<g id="graph0" class="graph" transform="scale(1 1) rotate(0) translate(4 353)">
<title>InputNormalizer.h</title>
<!-- Node1 -->
<g id="Node000001" class="node">
<title>Node1</title>
<g id="a_Node000001"><a xlink:title="Concrete implementation of InputNormalizer.">
<polygon fill="#999999" stroke="#666666" points="284,-349 180,-349 180,-330 284,-330 284,-349"/>
<text text-anchor="middle" x="232" y="-337" font-family="Helvetica,sans-Serif" font-size="10.00">InputNormalizer.h</text>
</a>
</g>
</g>
<!-- Node2 -->
<g id="Node000002" class="node">
<title>Node2</title>
<g id="a_Node000002"><a xlink:title=" ">
<polygon fill="#e0e0e0" stroke="#999999" points="128,-239 70,-239 70,-220 128,-220 128,-239"/>
<text text-anchor="middle" x="99" y="-227" font-family="Helvetica,sans-Serif" font-size="10.00">memory</text>
</a>
</g>
</g>
<!-- Node1&#45;&gt;Node2 -->
<g id="edge1_Node000001_Node000002" class="edge">
<title>Node1&#45;&gt;Node2</title>
<g id="a_edge1_Node000001_Node000002"><a xlink:title=" ">
<path fill="none" stroke="#63b8ff" d="M179.98,-330.93C138.47,-323.7 85.17,-311.33 72,-294 61.2,-279.78 72.13,-260.59 83.15,-247.04"/>
<polygon fill="#63b8ff" stroke="#63b8ff" points="85.86,-249.25 89.82,-239.43 80.6,-244.64 85.86,-249.25"/>
</a>
</g>
</g>
<!-- Node3 -->
<g id="Node000003" class="node">
<title>Node3</title>
<g id="a_Node000003"><a xlink:title=" ">
<polygon fill="#e0e0e0" stroke="#999999" points="126.5,-294 81.5,-294 81.5,-275 126.5,-275 126.5,-294"/>
<text text-anchor="middle" x="104" y="-282" font-family="Helvetica,sans-Serif" font-size="10.00">utility</text>
</a>
</g>
</g>
<!-- Node1&#45;&gt;Node3 -->
<g id="edge2_Node000001_Node000003" class="edge">
<title>Node1&#45;&gt;Node3</title>
<g id="a_edge2_Node000001_Node000003"><a xlink:title=" ">
<path fill="none" stroke="#63b8ff" d="M211.43,-329.98C190.57,-321.34 158.03,-307.87 134.23,-298.02"/>
<polygon fill="#63b8ff" stroke="#63b8ff" points="135.52,-294.76 124.94,-294.17 132.84,-301.23 135.52,-294.76"/>
</a>
</g>
</g>
<!-- Node4 -->
<g id="Node000004" class="node">
<title>Node4</title>
<g id="a_Node000004"><a xlink:href="ICommandQueue_8h.html" target="_top" xlink:title="A lightweight wrapper for queuing commands.">
<polygon fill="white" stroke="#666666" points="319.5,-294 144.5,-294 144.5,-275 319.5,-275 319.5,-294"/>
<text text-anchor="middle" x="232" y="-282" font-family="Helvetica,sans-Serif" font-size="10.00">../gamestate/ICommandQueue.h</text>
</a>
</g>
</g>
<!-- Node1&#45;&gt;Node4 -->
<g id="edge3_Node000001_Node000004" class="edge">
<title>Node1&#45;&gt;Node4</title>
<g id="a_edge3_Node000001_Node000004"><a xlink:title=" ">
<path fill="none" stroke="#63b8ff" d="M232,-329.75C232,-322.8 232,-312.85 232,-304.13"/>
<polygon fill="#63b8ff" stroke="#63b8ff" points="235.5,-304.09 232,-294.09 228.5,-304.09 235.5,-304.09"/>
</a>
</g>
</g>
<!-- Node14 -->
<g id="Node000014" class="node">
<title>Node14</title>
<g id="a_Node000014"><a xlink:href="IBindingMap_8h.html" target="_top" xlink:title="Represents a source of loadable and saveable bindings.">
<polygon fill="white" stroke="#666666" points="424,-294 338,-294 338,-275 424,-275 424,-294"/>
<text text-anchor="middle" x="381" y="-282" font-family="Helvetica,sans-Serif" font-size="10.00">IBindingMap.h</text>
</a>
</g>
</g>
<!-- Node1&#45;&gt;Node14 -->
<g id="edge15_Node000001_Node000014" class="edge">
<title>Node1&#45;&gt;Node14</title>
<g id="a_edge15_Node000001_Node000014"><a xlink:title=" ">
<path fill="none" stroke="#63b8ff" d="M255.94,-329.98C280.56,-321.23 319.12,-307.51 346.92,-297.62"/>
<polygon fill="#63b8ff" stroke="#63b8ff" points="348.38,-300.82 356.62,-294.17 346.03,-294.22 348.38,-300.82"/>
</a>
</g>
</g>
<!-- Node22 -->
<g id="Node000022" class="node">
<title>Node22</title>
<g id="a_Node000022"><a xlink:href="IInputNormalizer_8h.html" target="_top" xlink:title="An abstraction for translating raw inputs through bindings and into commands.">
<polygon fill="white" stroke="#666666" points="549.5,-294 442.5,-294 442.5,-275 549.5,-275 549.5,-294"/>
<text text-anchor="middle" x="496" y="-282" font-family="Helvetica,sans-Serif" font-size="10.00">IInputNormalizer.h</text>
</a>
</g>
</g>
<!-- Node1&#45;&gt;Node22 -->
<g id="edge25_Node000001_Node000022" class="edge">
<title>Node1&#45;&gt;Node22</title>
<g id="a_edge25_Node000001_Node000022"><a xlink:title=" ">
<path fill="none" stroke="#63b8ff" d="M274.42,-329.98C320.37,-320.76 393.75,-306.03 443.35,-296.07"/>
<polygon fill="#63b8ff" stroke="#63b8ff" points="444.14,-299.48 453.25,-294.08 442.76,-292.62 444.14,-299.48"/>
</a>
</g>
</g>
<!-- Node4&#45;&gt;Node2 -->
<g id="edge4_Node000004_Node000002" class="edge">
<title>Node4&#45;&gt;Node2</title>
<g id="a_edge4_Node000004_Node000002"><a xlink:title=" ">
<path fill="none" stroke="#63b8ff" d="M210.63,-274.98C188.85,-266.3 154.84,-252.75 130.08,-242.88"/>
<polygon fill="#63b8ff" stroke="#63b8ff" points="131.34,-239.62 120.76,-239.17 128.75,-246.12 131.34,-239.62"/>
</a>
</g>
</g>
<!-- Node5 -->
<g id="Node000005" class="node">
<title>Node5</title>
<g id="a_Node000005"><a xlink:href="ICommand_8h.html" target="_top" xlink:title="An abstract representation of an action to be executed in the game engine.">
<polygon fill="white" stroke="#666666" points="271.5,-239 192.5,-239 192.5,-220 271.5,-220 271.5,-239"/>
<text text-anchor="middle" x="232" y="-227" font-family="Helvetica,sans-Serif" font-size="10.00">ICommand.h</text>
</a>
</g>
</g>
<!-- Node4&#45;&gt;Node5 -->
<g id="edge5_Node000004_Node000005" class="edge">
<title>Node4&#45;&gt;Node5</title>
<g id="a_edge5_Node000004_Node000005"><a xlink:title=" ">
<path fill="none" stroke="#63b8ff" d="M232,-274.75C232,-267.8 232,-257.85 232,-249.13"/>
<polygon fill="#63b8ff" stroke="#63b8ff" points="235.5,-249.09 232,-239.09 228.5,-249.09 235.5,-249.09"/>
</a>
</g>
</g>
<!-- Node6 -->
<g id="Node000006" class="node">
<title>Node6</title>
<g id="a_Node000006"><a xlink:title=" ">
<polygon fill="#e0e0e0" stroke="#999999" points="275,-184 231,-184 231,-165 275,-165 275,-184"/>
<text text-anchor="middle" x="253" y="-172" font-family="Helvetica,sans-Serif" font-size="10.00">string</text>
</a>
</g>
</g>
<!-- Node5&#45;&gt;Node6 -->
<g id="edge6_Node000005_Node000006" class="edge">
<title>Node5&#45;&gt;Node6</title>
<g id="a_edge6_Node000005_Node000006"><a xlink:title=" ">
<path fill="none" stroke="#63b8ff" d="M235.47,-219.75C238.28,-212.65 242.34,-202.4 245.85,-193.56"/>
<polygon fill="#63b8ff" stroke="#63b8ff" points="249.17,-194.68 249.6,-184.09 242.66,-192.1 249.17,-194.68"/>
</a>
</g>
</g>
<!-- Node7 -->
<g id="Node000007" class="node">
<title>Node7</title>
<g id="a_Node000007"><a xlink:href="ISystemManager_8h.html" target="_top" xlink:title="Declares the interface for managing registered systems.">
<polygon fill="white" stroke="#666666" points="213,-184 77,-184 77,-165 213,-165 213,-184"/>
<text text-anchor="middle" x="145" y="-172" font-family="Helvetica,sans-Serif" font-size="10.00">../ecs/ISystemManager.h</text>
</a>
</g>
</g>
<!-- Node5&#45;&gt;Node7 -->
<g id="edge7_Node000005_Node000007" class="edge">
<title>Node5&#45;&gt;Node7</title>
<g id="a_edge7_Node000005_Node000007"><a xlink:title=" ">
<path fill="none" stroke="#63b8ff" d="M218.02,-219.98C204.53,-211.77 183.87,-199.18 167.96,-189.49"/>
<polygon fill="#63b8ff" stroke="#63b8ff" points="169.59,-186.38 159.23,-184.17 165.95,-192.36 169.59,-186.38"/>
</a>
</g>
</g>
<!-- Node8 -->
<g id="Node000008" class="node">
<title>Node8</title>
<g id="a_Node000008"><a xlink:href="Entity_8h.html" target="_top" xlink:title="Simple struct for Entity in the ECS module (includes version)">
<polygon fill="white" stroke="#666666" points="144.5,-129 91.5,-129 91.5,-110 144.5,-110 144.5,-129"/>
<text text-anchor="middle" x="118" y="-117" font-family="Helvetica,sans-Serif" font-size="10.00">Entity.h</text>
</a>
</g>
</g>
<!-- Node7&#45;&gt;Node8 -->
<g id="edge8_Node000007_Node000008" class="edge">
<title>Node7&#45;&gt;Node8</title>
<g id="a_edge8_Node000007_Node000008"><a xlink:title=" ">
<path fill="none" stroke="#63b8ff" d="M140.54,-164.75C136.88,-157.57 131.59,-147.18 127.05,-138.27"/>
<polygon fill="#63b8ff" stroke="#63b8ff" points="130.03,-136.41 122.38,-129.09 123.8,-139.59 130.03,-136.41"/>
</a>
</g>
</g>
<!-- Node11 -->
<g id="Node000011" class="node">
<title>Node11</title>
<g id="a_Node000011"><a xlink:href="ecs__config_8h.html" target="_top" xlink:title="Configuration constants and type definitions for ECS modules.">
<polygon fill="white" stroke="#666666" points="228.5,-74 151.5,-74 151.5,-55 228.5,-55 228.5,-74"/>
<text text-anchor="middle" x="190" y="-62" font-family="Helvetica,sans-Serif" font-size="10.00">ecs_config.h</text>
</a>
</g>
</g>
<!-- Node7&#45;&gt;Node11 -->
<g id="edge14_Node000007_Node000011" class="edge">
<title>Node7&#45;&gt;Node11</title>
<g id="a_edge14_Node000007_Node000011"><a xlink:title=" ">
<path fill="none" stroke="#63b8ff" d="M148.68,-164.66C156.04,-147.01 172.67,-107.09 182.44,-83.64"/>
<polygon fill="#63b8ff" stroke="#63b8ff" points="185.78,-84.74 186.39,-74.16 179.32,-82.04 185.78,-84.74"/>
</a>
</g>
</g>
<!-- Node9 -->
<g id="Node000009" class="node">
<title>Node9</title>
<g id="a_Node000009"><a xlink:title=" ">
<polygon fill="#e0e0e0" stroke="#999999" points="50,-74 0,-74 0,-55 50,-55 50,-74"/>
<text text-anchor="middle" x="25" y="-62" font-family="Helvetica,sans-Serif" font-size="10.00">cstdint</text>
</a>
</g>
</g>
<!-- Node8&#45;&gt;Node9 -->
<g id="edge9_Node000008_Node000009" class="edge">
<title>Node8&#45;&gt;Node9</title>
<g id="a_edge9_Node000008_Node000009"><a xlink:title=" ">
<path fill="none" stroke="#63b8ff" d="M103.06,-109.98C88.5,-101.69 66.13,-88.94 49.07,-79.22"/>
<polygon fill="#63b8ff" stroke="#63b8ff" points="50.64,-76.08 40.21,-74.17 47.17,-82.16 50.64,-76.08"/>
</a>
</g>
</g>
<!-- Node10 -->
<g id="Node000010" class="node">
<title>Node10</title>
<g id="a_Node000010"><a xlink:title=" ">
<polygon fill="#e0e0e0" stroke="#999999" points="133.5,-74 68.5,-74 68.5,-55 133.5,-55 133.5,-74"/>
<text text-anchor="middle" x="101" y="-62" font-family="Helvetica,sans-Serif" font-size="10.00">functional</text>
</a>
</g>
</g>
<!-- Node8&#45;&gt;Node10 -->
<g id="edge10_Node000008_Node000010" class="edge">
<title>Node8&#45;&gt;Node10</title>
<g id="a_edge10_Node000008_Node000010"><a xlink:title=" ">
<path fill="none" stroke="#63b8ff" d="M115.19,-109.75C112.94,-102.72 109.7,-92.62 106.88,-83.84"/>
<polygon fill="#63b8ff" stroke="#63b8ff" points="110.14,-82.54 103.75,-74.09 103.48,-84.68 110.14,-82.54"/>
</a>
</g>
</g>
<!-- Node8&#45;&gt;Node11 -->
<g id="edge11_Node000008_Node000011" class="edge">
<title>Node8&#45;&gt;Node11</title>
<g id="a_edge11_Node000008_Node000011"><a xlink:title=" ">
<path fill="none" stroke="#63b8ff" d="M129.57,-109.98C140.42,-102 156.88,-89.88 169.88,-80.31"/>
<polygon fill="#63b8ff" stroke="#63b8ff" points="172.24,-82.92 178.22,-74.17 168.09,-77.28 172.24,-82.92"/>
</a>
</g>
</g>
<!-- Node12 -->
<g id="Node000012" class="node">
<title>Node12</title>
<g id="a_Node000012"><a xlink:title=" ">
<polygon fill="#e0e0e0" stroke="#999999" points="179,-19 135,-19 135,0 179,0 179,-19"/>
<text text-anchor="middle" x="157" y="-7" font-family="Helvetica,sans-Serif" font-size="10.00">bitset</text>
</a>
</g>
</g>
<!-- Node11&#45;&gt;Node12 -->
<g id="edge12_Node000011_Node000012" class="edge">
<title>Node11&#45;&gt;Node12</title>
<g id="a_edge12_Node000011_Node000012"><a xlink:title=" ">
<path fill="none" stroke="#63b8ff" d="M184.55,-54.75C179.99,-47.42 173.33,-36.73 167.71,-27.7"/>
<polygon fill="#63b8ff" stroke="#63b8ff" points="170.6,-25.73 162.35,-19.09 164.66,-29.43 170.6,-25.73"/>
</a>
</g>
</g>
<!-- Node13 -->
<g id="Node000013" class="node">
<title>Node13</title>
<g id="a_Node000013"><a xlink:title=" ">
<polygon fill="#e0e0e0" stroke="#999999" points="250.5,-19 197.5,-19 197.5,0 250.5,0 250.5,-19"/>
<text text-anchor="middle" x="224" y="-7" font-family="Helvetica,sans-Serif" font-size="10.00">cstddef</text>
</a>
</g>
</g>
<!-- Node11&#45;&gt;Node13 -->
<g id="edge13_Node000011_Node000013" class="edge">
<title>Node11&#45;&gt;Node13</title>
<g id="a_edge13_Node000011_Node000013"><a xlink:title=" ">
<path fill="none" stroke="#63b8ff" d="M195.61,-54.75C200.32,-47.42 207.17,-36.73 212.97,-27.7"/>
<polygon fill="#63b8ff" stroke="#63b8ff" points="216.04,-29.4 218.49,-19.09 210.14,-25.62 216.04,-29.4"/>
</a>
</g>
</g>
<!-- Node14&#45;&gt;Node6 -->
<g id="edge16_Node000014_Node000006" class="edge">
<title>Node14&#45;&gt;Node6</title>
<g id="a_edge16_Node000014_Node000006"><a xlink:title=" ">
<path fill="none" stroke="#63b8ff" d="M370.53,-274.66C348.76,-256.3 298.41,-213.81 271.21,-190.87"/>
<polygon fill="#63b8ff" stroke="#63b8ff" points="273.16,-187.93 263.26,-184.16 268.65,-193.28 273.16,-187.93"/>
</a>
</g>
</g>
<!-- Node15 -->
<g id="Node000015" class="node">
<title>Node15</title>
<g id="a_Node000015"><a xlink:href="InputAction_8h.html" target="_top" xlink:title="Defines a list of bindable player actions.">
<polygon fill="white" stroke="#666666" points="421.5,-239 340.5,-239 340.5,-220 421.5,-220 421.5,-239"/>
<text text-anchor="middle" x="381" y="-227" font-family="Helvetica,sans-Serif" font-size="10.00">InputAction.h</text>
</a>
</g>
</g>
<!-- Node14&#45;&gt;Node15 -->
<g id="edge17_Node000014_Node000015" class="edge">
<title>Node14&#45;&gt;Node15</title>
<g id="a_edge17_Node000014_Node000015"><a xlink:title=" ">
<path fill="none" stroke="#63b8ff" d="M381,-274.75C381,-267.8 381,-257.85 381,-249.13"/>
<polygon fill="#63b8ff" stroke="#63b8ff" points="384.5,-249.09 381,-239.09 377.5,-249.09 384.5,-249.09"/>
</a>
</g>
</g>
<!-- Node16 -->
<g id="Node000016" class="node">
<title>Node16</title>
<g id="a_Node000016"><a xlink:href="InputCode_8h.html" target="_top" xlink:title="Defines a unified abstraction for all input bindings.">
<polygon fill="white" stroke="#666666" points="533.5,-239 458.5,-239 458.5,-220 533.5,-220 533.5,-239"/>
<text text-anchor="middle" x="496" y="-227" font-family="Helvetica,sans-Serif" font-size="10.00">InputCode.h</text>
</a>
</g>
</g>
<!-- Node14&#45;&gt;Node16 -->
<g id="edge18_Node000014_Node000016" class="edge">
<title>Node14&#45;&gt;Node16</title>
<g id="a_edge18_Node000014_Node000016"><a xlink:title=" ">
<path fill="none" stroke="#63b8ff" d="M399.48,-274.98C417.98,-266.46 446.68,-253.23 467.98,-243.41"/>
<polygon fill="#63b8ff" stroke="#63b8ff" points="469.57,-246.53 477.19,-239.17 466.64,-240.18 469.57,-246.53"/>
</a>
</g>
</g>
<!-- Node16&#45;&gt;Node6 -->
<g id="edge23_Node000016_Node000006" class="edge">
<title>Node16&#45;&gt;Node6</title>
<g id="a_edge23_Node000016_Node000006"><a xlink:title=" ">
<path fill="none" stroke="#63b8ff" d="M458.32,-221.31C417.8,-213.42 351.28,-200.01 285.07,-184.15"/>
<polygon fill="#63b8ff" stroke="#63b8ff" points="285.85,-180.74 275.31,-181.79 284.21,-187.54 285.85,-180.74"/>
</a>
</g>
</g>
<!-- Node17 -->
<g id="Node000017" class="node">
<title>Node17</title>
<g id="a_Node000017"><a xlink:title=" ">
<polygon fill="#e0e0e0" stroke="#999999" points="416.5,-184 293.5,-184 293.5,-165 416.5,-165 416.5,-184"/>
<text text-anchor="middle" x="355" y="-172" font-family="Helvetica,sans-Serif" font-size="10.00">SDL3/SDL_gamepad.h</text>
</a>
</g>
</g>
<!-- Node16&#45;&gt;Node17 -->
<g id="edge19_Node000016_Node000017" class="edge">
<title>Node16&#45;&gt;Node17</title>
<g id="a_edge19_Node000016_Node000017"><a xlink:title=" ">
<path fill="none" stroke="#63b8ff" d="M473.35,-219.98C450.15,-211.27 413.88,-197.63 387.6,-187.75"/>
<polygon fill="#63b8ff" stroke="#63b8ff" points="388.66,-184.41 378.07,-184.17 386.2,-190.97 388.66,-184.41"/>
</a>
</g>
</g>
<!-- Node18 -->
<g id="Node000018" class="node">
<title>Node18</title>
<g id="a_Node000018"><a xlink:title=" ">
<polygon fill="#e0e0e0" stroke="#999999" points="557,-184 435,-184 435,-165 557,-165 557,-184"/>
<text text-anchor="middle" x="496" y="-172" font-family="Helvetica,sans-Serif" font-size="10.00">SDL3/SDL_keyboard.h</text>
</a>
</g>
</g>
<!-- Node16&#45;&gt;Node18 -->
<g id="edge20_Node000016_Node000018" class="edge">
<title>Node16&#45;&gt;Node18</title>
<g id="a_edge20_Node000016_Node000018"><a xlink:title=" ">
<path fill="none" stroke="#63b8ff" d="M496,-219.75C496,-212.8 496,-202.85 496,-194.13"/>
<polygon fill="#63b8ff" stroke="#63b8ff" points="499.5,-194.09 496,-184.09 492.5,-194.09 499.5,-194.09"/>
</a>
</g>
</g>
<!-- Node19 -->
<g id="Node000019" class="node">
<title>Node19</title>
<g id="a_Node000019"><a xlink:title=" ">
<polygon fill="#e0e0e0" stroke="#999999" points="698.5,-184 575.5,-184 575.5,-165 698.5,-165 698.5,-184"/>
<text text-anchor="middle" x="637" y="-172" font-family="Helvetica,sans-Serif" font-size="10.00">SDL3/SDL_scancode.h</text>
</a>
</g>
</g>
<!-- Node16&#45;&gt;Node19 -->
<g id="edge21_Node000016_Node000019" class="edge">
<title>Node16&#45;&gt;Node19</title>
<g id="a_edge21_Node000016_Node000019"><a xlink:title=" ">
<path fill="none" stroke="#63b8ff" d="M518.65,-219.98C541.85,-211.27 578.12,-197.63 604.4,-187.75"/>
<polygon fill="#63b8ff" stroke="#63b8ff" points="605.8,-190.97 613.93,-184.17 603.34,-184.41 605.8,-190.97"/>
</a>
</g>
</g>
<!-- Node20 -->
<g id="Node000020" class="node">
<title>Node20</title>
<g id="a_Node000020"><a xlink:title=" ">
<polygon fill="#e0e0e0" stroke="#999999" points="781.5,-184 716.5,-184 716.5,-165 781.5,-165 781.5,-184"/>
<text text-anchor="middle" x="749" y="-172" font-family="Helvetica,sans-Serif" font-size="10.00">stdexcept</text>
</a>
</g>
</g>
<!-- Node16&#45;&gt;Node20 -->
<g id="edge22_Node000016_Node000020" class="edge">
<title>Node16&#45;&gt;Node20</title>
<g id="a_edge22_Node000016_Node000020"><a xlink:title=" ">
<path fill="none" stroke="#63b8ff" d="M533.6,-220.62C579.87,-210.93 658.21,-194.52 706.58,-184.39"/>
<polygon fill="#63b8ff" stroke="#63b8ff" points="707.35,-187.8 716.42,-182.32 705.92,-180.95 707.35,-187.8"/>
</a>
</g>
</g>
<!-- Node21 -->
<g id="Node000021" class="node">
<title>Node21</title>
<g id="a_Node000021"><a xlink:title=" ">
<polygon fill="#e0e0e0" stroke="#999999" points="850.5,-184 799.5,-184 799.5,-165 850.5,-165 850.5,-184"/>
<text text-anchor="middle" x="825" y="-172" font-family="Helvetica,sans-Serif" font-size="10.00">variant</text>
</a>
</g>
</g>
<!-- Node16&#45;&gt;Node21 -->
<g id="edge24_Node000016_Node000021" class="edge">
<title>Node16&#45;&gt;Node21</title>
<g id="a_edge24_Node000016_Node000021"><a xlink:title=" ">
<path fill="none" stroke="#63b8ff" d="M533.92,-223.95C588.4,-217.17 692.14,-203.29 789.44,-184.16"/>
<polygon fill="#63b8ff" stroke="#63b8ff" points="790.31,-187.55 799.44,-182.17 788.95,-180.69 790.31,-187.55"/>
</a>
</g>
</g>
<!-- Node22&#45;&gt;Node16 -->
<g id="edge26_Node000022_Node000016" class="edge">
<title>Node22&#45;&gt;Node16</title>
<g id="a_edge26_Node000022_Node000016"><a xlink:title=" ">
<path fill="none" stroke="#63b8ff" d="M496,-274.75C496,-267.8 496,-257.85 496,-249.13"/>
<polygon fill="#63b8ff" stroke="#63b8ff" points="499.5,-249.09 496,-239.09 492.5,-249.09 499.5,-249.09"/>
</a>
</g>
</g>
</g>
</svg>
