<?xml version="1.0" encoding="UTF-8" standalone="no"?>
<!DOCTYPE svg PUBLIC "-//W3C//DTD SVG 1.1//EN"
 "http://www.w3.org/Graphics/SVG/1.1/DTD/svg11.dtd">
<!-- Generated by graphviz version 2.43.0 (0)
 -->
<!-- Title: InputAction.h Pages: 1 -->
<svg width="370pt" height="192pt"
 viewBox="0.00 0.00 370.00 192.00" xmlns="http://www.w3.org/2000/svg" xmlns:xlink="http://www.w3.org/1999/xlink">
<g id="graph0" class="graph" transform="scale(1 1) rotate(0) translate(4 188)">
<title>InputAction.h</title>
<!-- Node1 -->
<g id="Node000001" class="node">
<title>Node1</title>
<g id="a_Node000001"><a xlink:title="Defines a list of bindable player actions.">
<polygon fill="#999999" stroke="#666666" points="196,-184 115,-184 115,-165 196,-165 196,-184"/>
<text text-anchor="middle" x="155.5" y="-172" font-family="Helvetica,sans-Serif" font-size="10.00">InputAction.h</text>
</a>
</g>
</g>
<!-- Node2 -->
<g id="Node000002" class="node">
<title>Node2</title>
<g id="a_Node000002"><a xlink:href="HardcodedBindingMap_8h.html" target="_top" xlink:title="A preconfigured set of hardcoded bindings until serialization is available.">
<polygon fill="white" stroke="#666666" points="188.5,-74 52.5,-74 52.5,-55 188.5,-55 188.5,-74"/>
<text text-anchor="middle" x="120.5" y="-62" font-family="Helvetica,sans-Serif" font-size="10.00">HardcodedBindingMap.h</text>
</a>
</g>
</g>
<!-- Node1&#45;&gt;Node2 -->
<g id="edge1_Node000001_Node000002" class="edge">
<title>Node1&#45;&gt;Node2</title>
<g id="a_edge1_Node000001_Node000002"><a xlink:title=" ">
<path fill="none" stroke="#63b8ff" d="M148.68,-155.23C145.75,-147.21 142.36,-137.68 139.5,-129 133.1,-109.54 126.41,-86.44 122.93,-74.17"/>
<polygon fill="#63b8ff" stroke="#63b8ff" points="145.42,-156.52 152.17,-164.68 151.99,-154.09 145.42,-156.52"/>
</a>
</g>
</g>
<!-- Node5 -->
<g id="Node000005" class="node">
<title>Node5</title>
<g id="a_Node000005"><a xlink:href="IBindingMap_8h.html" target="_top" xlink:title="Represents a source of loadable and saveable bindings.">
<polygon fill="white" stroke="#666666" points="234.5,-129 148.5,-129 148.5,-110 234.5,-110 234.5,-129"/>
<text text-anchor="middle" x="191.5" y="-117" font-family="Helvetica,sans-Serif" font-size="10.00">IBindingMap.h</text>
</a>
</g>
</g>
<!-- Node1&#45;&gt;Node5 -->
<g id="edge4_Node000001_Node000005" class="edge">
<title>Node1&#45;&gt;Node5</title>
<g id="a_edge4_Node000001_Node000005"><a xlink:title=" ">
<path fill="none" stroke="#63b8ff" d="M167.12,-156.39C173.32,-147.27 180.67,-136.45 185.67,-129.09"/>
<polygon fill="#63b8ff" stroke="#63b8ff" points="164.17,-154.51 161.44,-164.75 169.96,-158.44 164.17,-154.51"/>
</a>
</g>
</g>
<!-- Node3 -->
<g id="Node000003" class="node">
<title>Node3</title>
<g id="a_Node000003"><a xlink:href="HardCodedBindingMap_8cpp.html" target="_top" xlink:title=" ">
<polygon fill="white" stroke="#666666" points="149,-19 0,-19 0,0 149,0 149,-19"/>
<text text-anchor="middle" x="74.5" y="-7" font-family="Helvetica,sans-Serif" font-size="10.00">HardCodedBindingMap.cpp</text>
</a>
</g>
</g>
<!-- Node2&#45;&gt;Node3 -->
<g id="edge2_Node000002_Node000003" class="edge">
<title>Node2&#45;&gt;Node3</title>
<g id="a_edge2_Node000002_Node000003"><a xlink:title=" ">
<path fill="none" stroke="#63b8ff" d="M106.14,-46.96C98.13,-37.72 88.47,-26.6 81.95,-19.09"/>
<polygon fill="#63b8ff" stroke="#63b8ff" points="103.71,-49.49 112.9,-54.75 108.99,-44.9 103.71,-49.49"/>
</a>
</g>
</g>
<!-- Node4 -->
<g id="Node000004" class="node">
<title>Node4</title>
<g id="a_Node000004"><a xlink:href="main_8cpp.html" target="_top" xlink:title=" ">
<polygon fill="white" stroke="#666666" points="228.5,-19 166.5,-19 166.5,0 228.5,0 228.5,-19"/>
<text text-anchor="middle" x="197.5" y="-7" font-family="Helvetica,sans-Serif" font-size="10.00">main.cpp</text>
</a>
</g>
</g>
<!-- Node2&#45;&gt;Node4 -->
<g id="edge3_Node000002_Node000004" class="edge">
<title>Node2&#45;&gt;Node4</title>
<g id="a_edge3_Node000002_Node000004"><a xlink:title=" ">
<path fill="none" stroke="#63b8ff" d="M141.35,-49.15C155.26,-39.57 173.11,-27.29 184.9,-19.17"/>
<polygon fill="#63b8ff" stroke="#63b8ff" points="139.12,-46.43 132.87,-54.98 143.09,-52.2 139.12,-46.43"/>
</a>
</g>
</g>
<!-- Node5&#45;&gt;Node2 -->
<g id="edge5_Node000005_Node000002" class="edge">
<title>Node5&#45;&gt;Node2</title>
<g id="a_edge5_Node000005_Node000002"><a xlink:title=" ">
<path fill="none" stroke="#63b8ff" d="M171.91,-103.88C159.13,-94.34 142.89,-82.21 132.11,-74.17"/>
<polygon fill="#63b8ff" stroke="#63b8ff" points="169.99,-106.81 180.09,-109.98 174.17,-101.2 169.99,-106.81"/>
</a>
</g>
</g>
<!-- Node6 -->
<g id="Node000006" class="node">
<title>Node6</title>
<g id="a_Node000006"><a xlink:href="InputNormalizer_8h.html" target="_top" xlink:title="Concrete implementation of InputNormalizer.">
<polygon fill="white" stroke="#666666" points="310.5,-74 206.5,-74 206.5,-55 310.5,-55 310.5,-74"/>
<text text-anchor="middle" x="258.5" y="-62" font-family="Helvetica,sans-Serif" font-size="10.00">InputNormalizer.h</text>
</a>
</g>
</g>
<!-- Node5&#45;&gt;Node6 -->
<g id="edge6_Node000005_Node000006" class="edge">
<title>Node5&#45;&gt;Node6</title>
<g id="a_edge6_Node000005_Node000006"><a xlink:title=" ">
<path fill="none" stroke="#63b8ff" d="M210.33,-103.6C222.34,-94.11 237.47,-82.13 247.54,-74.17"/>
<polygon fill="#63b8ff" stroke="#63b8ff" points="207.94,-101.04 202.26,-109.98 212.28,-106.53 207.94,-101.04"/>
</a>
</g>
</g>
<!-- Node6&#45;&gt;Node4 -->
<g id="edge8_Node000006_Node000004" class="edge">
<title>Node6&#45;&gt;Node4</title>
<g id="a_edge8_Node000006_Node000004"><a xlink:title=" ">
<path fill="none" stroke="#63b8ff" d="M241.03,-48.32C230.16,-38.87 216.56,-27.06 207.48,-19.17"/>
<polygon fill="#63b8ff" stroke="#63b8ff" points="238.85,-51.07 248.7,-54.98 243.45,-45.78 238.85,-51.07"/>
</a>
</g>
</g>
<!-- Node7 -->
<g id="Node000007" class="node">
<title>Node7</title>
<g id="a_Node000007"><a xlink:href="InputNormalizer_8cpp.html" target="_top" xlink:title=" ">
<polygon fill="white" stroke="#666666" points="362,-19 247,-19 247,0 362,0 362,-19"/>
<text text-anchor="middle" x="304.5" y="-7" font-family="Helvetica,sans-Serif" font-size="10.00">InputNormalizer.cpp</text>
</a>
</g>
</g>
<!-- Node6&#45;&gt;Node7 -->
<g id="edge7_Node000006_Node000007" class="edge">
<title>Node6&#45;&gt;Node7</title>
<g id="a_edge7_Node000006_Node000007"><a xlink:title=" ">
<path fill="none" stroke="#63b8ff" d="M272.86,-46.96C280.87,-37.72 290.53,-26.6 297.05,-19.09"/>
<polygon fill="#63b8ff" stroke="#63b8ff" points="270.01,-44.9 266.1,-54.75 275.29,-49.49 270.01,-44.9"/>
</a>
</g>
</g>
</g>
</svg>
