<?xml version="1.0" encoding="UTF-8" standalone="no"?>
<!DOCTYPE svg PUBLIC "-//W3C//DTD SVG 1.1//EN"
 "http://www.w3.org/Graphics/SVG/1.1/DTD/svg11.dtd">
<!-- Generated by graphviz version 2.43.0 (0)
 -->
<!-- Title: InputNormalizer.cpp Pages: 1 -->
<svg width="1821pt" height="489pt"
 viewBox="0.00 0.00 1821.42 489.00" xmlns="http://www.w3.org/2000/svg" xmlns:xlink="http://www.w3.org/1999/xlink">
<g id="graph0" class="graph" transform="scale(1 1) rotate(0) translate(4 485)">
<title>InputNormalizer.cpp</title>
<!-- Node1 -->
<g id="Node000001" class="node">
<title>Node1</title>
<g id="a_Node000001"><a xlink:title=" ">
<polygon fill="#999999" stroke="#666666" points="822.5,-481 707.5,-481 707.5,-462 822.5,-462 822.5,-481"/>
<text text-anchor="middle" x="765" y="-469" font-family="Helvetica,sans-Serif" font-size="10.00">InputNormalizer.cpp</text>
</a>
</g>
</g>
<!-- Node2 -->
<g id="Node000002" class="node">
<title>Node2</title>
<g id="a_Node000002"><a xlink:href="InputNormalizer_8h.html" target="_top" xlink:title="Concrete implementation of InputNormalizer.">
<polygon fill="white" stroke="#666666" points="696.5,-360 589.5,-360 589.5,-330 696.5,-330 696.5,-360"/>
<text text-anchor="start" x="597.5" y="-348" font-family="Helvetica,sans-Serif" font-size="10.00">../../include/input</text>
<text text-anchor="middle" x="643" y="-337" font-family="Helvetica,sans-Serif" font-size="10.00">/InputNormalizer.h</text>
</a>
</g>
</g>
<!-- Node1&#45;&gt;Node2 -->
<g id="edge1_Node000001_Node000002" class="edge">
<title>Node1&#45;&gt;Node2</title>
<g id="a_edge1_Node000001_Node000002"><a xlink:title=" ">
<path fill="none" stroke="#63b8ff" d="M756.61,-461.94C737.72,-442.66 691.33,-395.33 664.03,-367.46"/>
<polygon fill="#63b8ff" stroke="#63b8ff" points="666.38,-364.85 656.88,-360.16 661.38,-369.75 666.38,-364.85"/>
</a>
</g>
</g>
<!-- Node24 -->
<g id="Node000024" class="node">
<title>Node24</title>
<g id="a_Node000024"><a xlink:href="PlayerMoveCommand_8h.html" target="_top" xlink:title="A command for triggering player (paddle) movement.">
<polygon fill="white" stroke="#666666" points="981.5,-426 844.5,-426 844.5,-396 981.5,-396 981.5,-426"/>
<text text-anchor="start" x="852.5" y="-414" font-family="Helvetica,sans-Serif" font-size="10.00">../../include/gamestate</text>
<text text-anchor="middle" x="913" y="-403" font-family="Helvetica,sans-Serif" font-size="10.00">/PlayerMoveCommand.h</text>
</a>
</g>
</g>
<!-- Node1&#45;&gt;Node24 -->
<g id="edge28_Node000001_Node000024" class="edge">
<title>Node1&#45;&gt;Node24</title>
<g id="a_edge28_Node000001_Node000024"><a xlink:title=" ">
<path fill="none" stroke="#63b8ff" d="M786.52,-461.99C807.73,-453.61 840.78,-440.55 867.78,-429.87"/>
<polygon fill="#63b8ff" stroke="#63b8ff" points="869.41,-433 877.42,-426.06 866.83,-426.49 869.41,-433"/>
</a>
</g>
</g>
<!-- Node3 -->
<g id="Node000003" class="node">
<title>Node3</title>
<g id="a_Node000003"><a xlink:title=" ">
<polygon fill="#e0e0e0" stroke="#999999" points="928,-129 870,-129 870,-110 928,-110 928,-129"/>
<text text-anchor="middle" x="899" y="-117" font-family="Helvetica,sans-Serif" font-size="10.00">memory</text>
</a>
</g>
</g>
<!-- Node2&#45;&gt;Node3 -->
<g id="edge2_Node000002_Node000003" class="edge">
<title>Node2&#45;&gt;Node3</title>
<g id="a_edge2_Node000002_Node000003"><a xlink:title=" ">
<path fill="none" stroke="#63b8ff" d="M637.76,-329.86C633.26,-315.23 628.82,-292.15 638,-275 683.8,-189.42 798.97,-146.98 859.86,-129.92"/>
<polygon fill="#63b8ff" stroke="#63b8ff" points="861.12,-133.21 869.86,-127.22 859.29,-126.45 861.12,-133.21"/>
</a>
</g>
</g>
<!-- Node4 -->
<g id="Node000004" class="node">
<title>Node4</title>
<g id="a_Node000004"><a xlink:title=" ">
<polygon fill="#e0e0e0" stroke="#999999" points="691.5,-294 646.5,-294 646.5,-275 691.5,-275 691.5,-294"/>
<text text-anchor="middle" x="669" y="-282" font-family="Helvetica,sans-Serif" font-size="10.00">utility</text>
</a>
</g>
</g>
<!-- Node2&#45;&gt;Node4 -->
<g id="edge3_Node000002_Node000004" class="edge">
<title>Node2&#45;&gt;Node4</title>
<g id="a_edge3_Node000002_Node000004"><a xlink:title=" ">
<path fill="none" stroke="#63b8ff" d="M649.29,-329.84C652.8,-321.95 657.2,-312.05 660.95,-303.61"/>
<polygon fill="#63b8ff" stroke="#63b8ff" points="664.24,-304.83 665.1,-294.27 657.84,-301.98 664.24,-304.83"/>
</a>
</g>
</g>
<!-- Node5 -->
<g id="Node000005" class="node">
<title>Node5</title>
<g id="a_Node000005"><a xlink:href="ICommandQueue_8h.html" target="_top" xlink:title="A lightweight wrapper for queuing commands.">
<polygon fill="white" stroke="#666666" points="884.5,-294 709.5,-294 709.5,-275 884.5,-275 884.5,-294"/>
<text text-anchor="middle" x="797" y="-282" font-family="Helvetica,sans-Serif" font-size="10.00">../gamestate/ICommandQueue.h</text>
</a>
</g>
</g>
<!-- Node2&#45;&gt;Node5 -->
<g id="edge4_Node000002_Node000005" class="edge">
<title>Node2&#45;&gt;Node5</title>
<g id="a_edge4_Node000002_Node000005"><a xlink:title=" ">
<path fill="none" stroke="#63b8ff" d="M679.89,-329.99C705.7,-320.18 739.85,-307.21 764.6,-297.81"/>
<polygon fill="#63b8ff" stroke="#63b8ff" points="766.15,-300.96 774.26,-294.14 763.67,-294.42 766.15,-300.96"/>
</a>
</g>
</g>
<!-- Node15 -->
<g id="Node000015" class="node">
<title>Node15</title>
<g id="a_Node000015"><a xlink:href="IBindingMap_8h.html" target="_top" xlink:title="Represents a source of loadable and saveable bindings.">
<polygon fill="white" stroke="#666666" points="588,-294 502,-294 502,-275 588,-275 588,-294"/>
<text text-anchor="middle" x="545" y="-282" font-family="Helvetica,sans-Serif" font-size="10.00">IBindingMap.h</text>
</a>
</g>
</g>
<!-- Node2&#45;&gt;Node15 -->
<g id="edge16_Node000002_Node000015" class="edge">
<title>Node2&#45;&gt;Node15</title>
<g id="a_edge16_Node000002_Node000015"><a xlink:title=" ">
<path fill="none" stroke="#63b8ff" d="M619.28,-329.84C603.8,-320.6 583.68,-308.59 568.29,-299.4"/>
<polygon fill="#63b8ff" stroke="#63b8ff" points="569.78,-296.21 559.4,-294.09 566.19,-302.23 569.78,-296.21"/>
</a>
</g>
</g>
<!-- Node23 -->
<g id="Node000023" class="node">
<title>Node23</title>
<g id="a_Node000023"><a xlink:href="IInputNormalizer_8h.html" target="_top" xlink:title="An abstraction for translating raw inputs through bindings and into commands.">
<polygon fill="white" stroke="#666666" points="479.5,-294 372.5,-294 372.5,-275 479.5,-275 479.5,-294"/>
<text text-anchor="middle" x="426" y="-282" font-family="Helvetica,sans-Serif" font-size="10.00">IInputNormalizer.h</text>
</a>
</g>
</g>
<!-- Node2&#45;&gt;Node23 -->
<g id="edge26_Node000002_Node000023" class="edge">
<title>Node2&#45;&gt;Node23</title>
<g id="a_edge26_Node000002_Node000023"><a xlink:title=" ">
<path fill="none" stroke="#63b8ff" d="M591.02,-329.99C553.25,-319.8 502.79,-306.2 467.66,-296.73"/>
<polygon fill="#63b8ff" stroke="#63b8ff" points="468.3,-293.28 457.73,-294.05 466.47,-300.04 468.3,-293.28"/>
</a>
</g>
</g>
<!-- Node5&#45;&gt;Node3 -->
<g id="edge5_Node000005_Node000003" class="edge">
<title>Node5&#45;&gt;Node3</title>
<g id="a_edge5_Node000005_Node000003"><a xlink:title=" ">
<path fill="none" stroke="#63b8ff" d="M791.79,-274.91C784.88,-262.36 774.51,-238.46 783,-220 801.32,-180.15 844.35,-150.27 872.54,-134.11"/>
<polygon fill="#63b8ff" stroke="#63b8ff" points="874.42,-137.07 881.47,-129.16 871.03,-130.94 874.42,-137.07"/>
</a>
</g>
</g>
<!-- Node6 -->
<g id="Node000006" class="node">
<title>Node6</title>
<g id="a_Node000006"><a xlink:href="ICommand_8h.html" target="_top" xlink:title="An abstract representation of an action to be executed in the game engine.">
<polygon fill="white" stroke="#666666" points="870.5,-239 791.5,-239 791.5,-220 870.5,-220 870.5,-239"/>
<text text-anchor="middle" x="831" y="-227" font-family="Helvetica,sans-Serif" font-size="10.00">ICommand.h</text>
</a>
</g>
</g>
<!-- Node5&#45;&gt;Node6 -->
<g id="edge6_Node000005_Node000006" class="edge">
<title>Node5&#45;&gt;Node6</title>
<g id="a_edge6_Node000005_Node000006"><a xlink:title=" ">
<path fill="none" stroke="#63b8ff" d="M802.61,-274.75C807.32,-267.42 814.17,-256.73 819.97,-247.7"/>
<polygon fill="#63b8ff" stroke="#63b8ff" points="823.04,-249.4 825.49,-239.09 817.14,-245.62 823.04,-249.4"/>
</a>
</g>
</g>
<!-- Node7 -->
<g id="Node000007" class="node">
<title>Node7</title>
<g id="a_Node000007"><a xlink:title=" ">
<polygon fill="#e0e0e0" stroke="#999999" points="619,-184 575,-184 575,-165 619,-165 619,-184"/>
<text text-anchor="middle" x="597" y="-172" font-family="Helvetica,sans-Serif" font-size="10.00">string</text>
</a>
</g>
</g>
<!-- Node6&#45;&gt;Node7 -->
<g id="edge7_Node000006_Node000007" class="edge">
<title>Node6&#45;&gt;Node7</title>
<g id="a_edge7_Node000006_Node000007"><a xlink:title=" ">
<path fill="none" stroke="#63b8ff" d="M793.4,-219.98C747.81,-209.66 671.76,-192.43 628.9,-182.73"/>
<polygon fill="#63b8ff" stroke="#63b8ff" points="629.54,-179.28 619.01,-180.49 627.99,-186.11 629.54,-179.28"/>
</a>
</g>
</g>
<!-- Node8 -->
<g id="Node000008" class="node">
<title>Node8</title>
<g id="a_Node000008"><a xlink:href="ISystemManager_8h.html" target="_top" xlink:title="Declares the interface for managing registered systems.">
<polygon fill="white" stroke="#666666" points="1187,-184 1051,-184 1051,-165 1187,-165 1187,-184"/>
<text text-anchor="middle" x="1119" y="-172" font-family="Helvetica,sans-Serif" font-size="10.00">../ecs/ISystemManager.h</text>
</a>
</g>
</g>
<!-- Node6&#45;&gt;Node8 -->
<g id="edge8_Node000006_Node000008" class="edge">
<title>Node6&#45;&gt;Node8</title>
<g id="a_edge8_Node000006_Node000008"><a xlink:title=" ">
<path fill="none" stroke="#63b8ff" d="M870.74,-221.19C920.53,-212.02 1006.15,-196.27 1062.67,-185.87"/>
<polygon fill="#63b8ff" stroke="#63b8ff" points="1063.32,-189.31 1072.52,-184.05 1062.05,-182.42 1063.32,-189.31"/>
</a>
</g>
</g>
<!-- Node9 -->
<g id="Node000009" class="node">
<title>Node9</title>
<g id="a_Node000009"><a xlink:href="Entity_8h.html" target="_top" xlink:title="Simple struct for Entity in the ECS module (includes version)">
<polygon fill="white" stroke="#666666" points="1660.5,-129 1607.5,-129 1607.5,-110 1660.5,-110 1660.5,-129"/>
<text text-anchor="middle" x="1634" y="-117" font-family="Helvetica,sans-Serif" font-size="10.00">Entity.h</text>
</a>
</g>
</g>
<!-- Node8&#45;&gt;Node9 -->
<g id="edge9_Node000008_Node000009" class="edge">
<title>Node8&#45;&gt;Node9</title>
<g id="a_edge9_Node000008_Node000009"><a xlink:title=" ">
<path fill="none" stroke="#63b8ff" d="M1187.12,-166.49C1297.47,-155.13 1511.59,-133.1 1597.27,-124.28"/>
<polygon fill="#63b8ff" stroke="#63b8ff" points="1597.71,-127.75 1607.3,-123.25 1596.99,-120.79 1597.71,-127.75"/>
</a>
</g>
</g>
<!-- Node12 -->
<g id="Node000012" class="node">
<title>Node12</title>
<g id="a_Node000012"><a xlink:href="ecs__config_8h.html" target="_top" xlink:title="Configuration constants and type definitions for ECS modules.">
<polygon fill="white" stroke="#666666" points="1542.5,-74 1465.5,-74 1465.5,-55 1542.5,-55 1542.5,-74"/>
<text text-anchor="middle" x="1504" y="-62" font-family="Helvetica,sans-Serif" font-size="10.00">ecs_config.h</text>
</a>
</g>
</g>
<!-- Node8&#45;&gt;Node12 -->
<g id="edge15_Node000008_Node000012" class="edge">
<title>Node8&#45;&gt;Node12</title>
<g id="a_edge15_Node000008_Node000012"><a xlink:title=" ">
<path fill="none" stroke="#63b8ff" d="M1146.62,-164.98C1187.3,-152.5 1265.8,-128.71 1333,-110 1376.04,-98.02 1425.44,-85.27 1460.05,-76.5"/>
<polygon fill="#63b8ff" stroke="#63b8ff" points="1461,-79.87 1469.84,-74.03 1459.29,-73.08 1461,-79.87"/>
</a>
</g>
</g>
<!-- Node10 -->
<g id="Node000010" class="node">
<title>Node10</title>
<g id="a_Node000010"><a xlink:title=" ">
<polygon fill="#e0e0e0" stroke="#999999" points="1621,-74 1571,-74 1571,-55 1621,-55 1621,-74"/>
<text text-anchor="middle" x="1596" y="-62" font-family="Helvetica,sans-Serif" font-size="10.00">cstdint</text>
</a>
</g>
</g>
<!-- Node9&#45;&gt;Node10 -->
<g id="edge10_Node000009_Node000010" class="edge">
<title>Node9&#45;&gt;Node10</title>
<g id="a_edge10_Node000009_Node000010"><a xlink:title=" ">
<path fill="none" stroke="#63b8ff" d="M1627.73,-109.75C1622.41,-102.34 1614.64,-91.5 1608.12,-82.41"/>
<polygon fill="#63b8ff" stroke="#63b8ff" points="1610.83,-80.18 1602.16,-74.09 1605.14,-84.26 1610.83,-80.18"/>
</a>
</g>
</g>
<!-- Node11 -->
<g id="Node000011" class="node">
<title>Node11</title>
<g id="a_Node000011"><a xlink:title=" ">
<polygon fill="#e0e0e0" stroke="#999999" points="1704.5,-74 1639.5,-74 1639.5,-55 1704.5,-55 1704.5,-74"/>
<text text-anchor="middle" x="1672" y="-62" font-family="Helvetica,sans-Serif" font-size="10.00">functional</text>
</a>
</g>
</g>
<!-- Node9&#45;&gt;Node11 -->
<g id="edge11_Node000009_Node000011" class="edge">
<title>Node9&#45;&gt;Node11</title>
<g id="a_edge11_Node000009_Node000011"><a xlink:title=" ">
<path fill="none" stroke="#63b8ff" d="M1640.27,-109.75C1645.59,-102.34 1653.36,-91.5 1659.88,-82.41"/>
<polygon fill="#63b8ff" stroke="#63b8ff" points="1662.86,-84.26 1665.84,-74.09 1657.17,-80.18 1662.86,-84.26"/>
</a>
</g>
</g>
<!-- Node9&#45;&gt;Node12 -->
<g id="edge12_Node000009_Node000012" class="edge">
<title>Node9&#45;&gt;Node12</title>
<g id="a_edge12_Node000009_Node000012"><a xlink:title=" ">
<path fill="none" stroke="#63b8ff" d="M1613.11,-109.98C1591.92,-101.34 1558.87,-87.87 1534.7,-78.02"/>
<polygon fill="#63b8ff" stroke="#63b8ff" points="1535.85,-74.7 1525.27,-74.17 1533.21,-81.19 1535.85,-74.7"/>
</a>
</g>
</g>
<!-- Node13 -->
<g id="Node000013" class="node">
<title>Node13</title>
<g id="a_Node000013"><a xlink:title=" ">
<polygon fill="#e0e0e0" stroke="#999999" points="1492,-19 1448,-19 1448,0 1492,0 1492,-19"/>
<text text-anchor="middle" x="1470" y="-7" font-family="Helvetica,sans-Serif" font-size="10.00">bitset</text>
</a>
</g>
</g>
<!-- Node12&#45;&gt;Node13 -->
<g id="edge13_Node000012_Node000013" class="edge">
<title>Node12&#45;&gt;Node13</title>
<g id="a_edge13_Node000012_Node000013"><a xlink:title=" ">
<path fill="none" stroke="#63b8ff" d="M1498.39,-54.75C1493.68,-47.42 1486.83,-36.73 1481.03,-27.7"/>
<polygon fill="#63b8ff" stroke="#63b8ff" points="1483.86,-25.62 1475.51,-19.09 1477.96,-29.4 1483.86,-25.62"/>
</a>
</g>
</g>
<!-- Node14 -->
<g id="Node000014" class="node">
<title>Node14</title>
<g id="a_Node000014"><a xlink:title=" ">
<polygon fill="#e0e0e0" stroke="#999999" points="1563.5,-19 1510.5,-19 1510.5,0 1563.5,0 1563.5,-19"/>
<text text-anchor="middle" x="1537" y="-7" font-family="Helvetica,sans-Serif" font-size="10.00">cstddef</text>
</a>
</g>
</g>
<!-- Node12&#45;&gt;Node14 -->
<g id="edge14_Node000012_Node000014" class="edge">
<title>Node12&#45;&gt;Node14</title>
<g id="a_edge14_Node000012_Node000014"><a xlink:title=" ">
<path fill="none" stroke="#63b8ff" d="M1509.45,-54.75C1514.01,-47.42 1520.67,-36.73 1526.29,-27.7"/>
<polygon fill="#63b8ff" stroke="#63b8ff" points="1529.34,-29.43 1531.65,-19.09 1523.4,-25.73 1529.34,-29.43"/>
</a>
</g>
</g>
<!-- Node15&#45;&gt;Node7 -->
<g id="edge17_Node000015_Node000007" class="edge">
<title>Node15&#45;&gt;Node7</title>
<g id="a_edge17_Node000015_Node000007"><a xlink:title=" ">
<path fill="none" stroke="#63b8ff" d="M538.8,-274.8C530.57,-262.1 518.17,-238.04 528,-220 536.11,-205.11 551.58,-194.45 565.82,-187.31"/>
<polygon fill="#63b8ff" stroke="#63b8ff" points="567.3,-190.48 574.91,-183.11 564.37,-184.12 567.3,-190.48"/>
</a>
</g>
</g>
<!-- Node16 -->
<g id="Node000016" class="node">
<title>Node16</title>
<g id="a_Node000016"><a xlink:href="InputAction_8h.html" target="_top" xlink:title="Defines a list of bindable player actions.">
<polygon fill="white" stroke="#666666" points="618.5,-239 537.5,-239 537.5,-220 618.5,-220 618.5,-239"/>
<text text-anchor="middle" x="578" y="-227" font-family="Helvetica,sans-Serif" font-size="10.00">InputAction.h</text>
</a>
</g>
</g>
<!-- Node15&#45;&gt;Node16 -->
<g id="edge18_Node000015_Node000016" class="edge">
<title>Node15&#45;&gt;Node16</title>
<g id="a_edge18_Node000015_Node000016"><a xlink:title=" ">
<path fill="none" stroke="#63b8ff" d="M550.45,-274.75C555.01,-267.42 561.67,-256.73 567.29,-247.7"/>
<polygon fill="#63b8ff" stroke="#63b8ff" points="570.34,-249.43 572.65,-239.09 564.4,-245.73 570.34,-249.43"/>
</a>
</g>
</g>
<!-- Node17 -->
<g id="Node000017" class="node">
<title>Node17</title>
<g id="a_Node000017"><a xlink:href="InputCode_8h.html" target="_top" xlink:title="Defines a unified abstraction for all input bindings.">
<polygon fill="white" stroke="#666666" points="454.5,-239 379.5,-239 379.5,-220 454.5,-220 454.5,-239"/>
<text text-anchor="middle" x="417" y="-227" font-family="Helvetica,sans-Serif" font-size="10.00">InputCode.h</text>
</a>
</g>
</g>
<!-- Node15&#45;&gt;Node17 -->
<g id="edge19_Node000015_Node000017" class="edge">
<title>Node15&#45;&gt;Node17</title>
<g id="a_edge19_Node000015_Node000017"><a xlink:title=" ">
<path fill="none" stroke="#63b8ff" d="M524.43,-274.98C503.57,-266.34 471.03,-252.87 447.23,-243.02"/>
<polygon fill="#63b8ff" stroke="#63b8ff" points="448.52,-239.76 437.94,-239.17 445.84,-246.23 448.52,-239.76"/>
</a>
</g>
</g>
<!-- Node17&#45;&gt;Node7 -->
<g id="edge24_Node000017_Node000007" class="edge">
<title>Node17&#45;&gt;Node7</title>
<g id="a_edge24_Node000017_Node000007"><a xlink:title=" ">
<path fill="none" stroke="#63b8ff" d="M445.92,-219.98C478.52,-210.39 531.37,-194.82 565.14,-184.88"/>
<polygon fill="#63b8ff" stroke="#63b8ff" points="566.36,-188.17 574.96,-181.99 564.38,-181.46 566.36,-188.17"/>
</a>
</g>
</g>
<!-- Node18 -->
<g id="Node000018" class="node">
<title>Node18</title>
<g id="a_Node000018"><a xlink:title=" ">
<polygon fill="#e0e0e0" stroke="#999999" points="556.5,-184 433.5,-184 433.5,-165 556.5,-165 556.5,-184"/>
<text text-anchor="middle" x="495" y="-172" font-family="Helvetica,sans-Serif" font-size="10.00">SDL3/SDL_gamepad.h</text>
</a>
</g>
</g>
<!-- Node17&#45;&gt;Node18 -->
<g id="edge20_Node000017_Node000018" class="edge">
<title>Node17&#45;&gt;Node18</title>
<g id="a_edge20_Node000017_Node000018"><a xlink:title=" ">
<path fill="none" stroke="#63b8ff" d="M429.53,-219.98C441.4,-211.92 459.46,-199.65 473.61,-190.03"/>
<polygon fill="#63b8ff" stroke="#63b8ff" points="475.94,-192.69 482.24,-184.17 472,-186.9 475.94,-192.69"/>
</a>
</g>
</g>
<!-- Node19 -->
<g id="Node000019" class="node">
<title>Node19</title>
<g id="a_Node000019"><a xlink:title=" ">
<polygon fill="#e0e0e0" stroke="#999999" points="122,-184 0,-184 0,-165 122,-165 122,-184"/>
<text text-anchor="middle" x="61" y="-172" font-family="Helvetica,sans-Serif" font-size="10.00">SDL3/SDL_keyboard.h</text>
</a>
</g>
</g>
<!-- Node17&#45;&gt;Node19 -->
<g id="edge21_Node000017_Node000019" class="edge">
<title>Node17&#45;&gt;Node19</title>
<g id="a_edge21_Node000017_Node000019"><a xlink:title=" ">
<path fill="none" stroke="#63b8ff" d="M379.24,-222.88C319.59,-214 202.73,-196.6 128.43,-185.54"/>
<polygon fill="#63b8ff" stroke="#63b8ff" points="128.64,-182.03 118.24,-184.02 127.61,-188.96 128.64,-182.03"/>
</a>
</g>
</g>
<!-- Node20 -->
<g id="Node000020" class="node">
<title>Node20</title>
<g id="a_Node000020"><a xlink:title=" ">
<polygon fill="#e0e0e0" stroke="#999999" points="263.5,-184 140.5,-184 140.5,-165 263.5,-165 263.5,-184"/>
<text text-anchor="middle" x="202" y="-172" font-family="Helvetica,sans-Serif" font-size="10.00">SDL3/SDL_scancode.h</text>
</a>
</g>
</g>
<!-- Node17&#45;&gt;Node20 -->
<g id="edge22_Node000017_Node000020" class="edge">
<title>Node17&#45;&gt;Node20</title>
<g id="a_edge22_Node000017_Node000020"><a xlink:title=" ">
<path fill="none" stroke="#63b8ff" d="M382.46,-219.98C345.58,-210.89 287.01,-196.46 246.66,-186.51"/>
<polygon fill="#63b8ff" stroke="#63b8ff" points="247.36,-183.08 236.81,-184.08 245.69,-189.87 247.36,-183.08"/>
</a>
</g>
</g>
<!-- Node21 -->
<g id="Node000021" class="node">
<title>Node21</title>
<g id="a_Node000021"><a xlink:title=" ">
<polygon fill="#e0e0e0" stroke="#999999" points="346.5,-184 281.5,-184 281.5,-165 346.5,-165 346.5,-184"/>
<text text-anchor="middle" x="314" y="-172" font-family="Helvetica,sans-Serif" font-size="10.00">stdexcept</text>
</a>
</g>
</g>
<!-- Node17&#45;&gt;Node21 -->
<g id="edge23_Node000017_Node000021" class="edge">
<title>Node17&#45;&gt;Node21</title>
<g id="a_edge23_Node000017_Node000021"><a xlink:title=" ">
<path fill="none" stroke="#63b8ff" d="M400.45,-219.98C384.11,-211.57 358.87,-198.59 339.87,-188.81"/>
<polygon fill="#63b8ff" stroke="#63b8ff" points="341.34,-185.63 330.85,-184.17 338.14,-191.86 341.34,-185.63"/>
</a>
</g>
</g>
<!-- Node22 -->
<g id="Node000022" class="node">
<title>Node22</title>
<g id="a_Node000022"><a xlink:title=" ">
<polygon fill="#e0e0e0" stroke="#999999" points="415.5,-184 364.5,-184 364.5,-165 415.5,-165 415.5,-184"/>
<text text-anchor="middle" x="390" y="-172" font-family="Helvetica,sans-Serif" font-size="10.00">variant</text>
</a>
</g>
</g>
<!-- Node17&#45;&gt;Node22 -->
<g id="edge25_Node000017_Node000022" class="edge">
<title>Node17&#45;&gt;Node22</title>
<g id="a_edge25_Node000017_Node000022"><a xlink:title=" ">
<path fill="none" stroke="#63b8ff" d="M412.54,-219.75C408.88,-212.57 403.59,-202.18 399.05,-193.27"/>
<polygon fill="#63b8ff" stroke="#63b8ff" points="402.03,-191.41 394.38,-184.09 395.8,-194.59 402.03,-191.41"/>
</a>
</g>
</g>
<!-- Node23&#45;&gt;Node17 -->
<g id="edge27_Node000023_Node000017" class="edge">
<title>Node23&#45;&gt;Node17</title>
<g id="a_edge27_Node000023_Node000017"><a xlink:title=" ">
<path fill="none" stroke="#63b8ff" d="M424.51,-274.75C423.33,-267.8 421.64,-257.85 420.16,-249.13"/>
<polygon fill="#63b8ff" stroke="#63b8ff" points="423.58,-248.36 418.46,-239.09 416.68,-249.53 423.58,-248.36"/>
</a>
</g>
</g>
<!-- Node24&#45;&gt;Node6 -->
<g id="edge59_Node000024_Node000006" class="edge">
<title>Node24&#45;&gt;Node6</title>
<g id="a_edge59_Node000024_Node000006"><a xlink:title=" ">
<path fill="none" stroke="#63b8ff" d="M914.5,-395.77C916.53,-369.75 917.55,-313.59 894,-275 885.92,-261.75 872.25,-251.38 859.7,-244"/>
<polygon fill="#63b8ff" stroke="#63b8ff" points="861.31,-240.89 850.86,-239.15 857.94,-247.03 861.31,-240.89"/>
</a>
</g>
</g>
<!-- Node25 -->
<g id="Node000025" class="node">
<title>Node25</title>
<g id="a_Node000025"><a xlink:href="GameWorld_8h.html" target="_top" xlink:title="Defines the concrete game world used by the main loop.">
<polygon fill="white" stroke="#666666" points="1366.5,-354.5 1283.5,-354.5 1283.5,-335.5 1366.5,-335.5 1366.5,-354.5"/>
<text text-anchor="middle" x="1325" y="-342.5" font-family="Helvetica,sans-Serif" font-size="10.00">GameWorld.h</text>
</a>
</g>
</g>
<!-- Node24&#45;&gt;Node25 -->
<g id="edge29_Node000024_Node000025" class="edge">
<title>Node24&#45;&gt;Node25</title>
<g id="a_edge29_Node000024_Node000025"><a xlink:title=" ">
<path fill="none" stroke="#63b8ff" d="M981.96,-399.29C1064.22,-386.51 1199.85,-365.44 1273.51,-354"/>
<polygon fill="#63b8ff" stroke="#63b8ff" points="1274.13,-357.44 1283.48,-352.45 1273.06,-350.53 1274.13,-357.44"/>
</a>
</g>
</g>
<!-- Node25&#45;&gt;Node3 -->
<g id="edge30_Node000025_Node000003" class="edge">
<title>Node25&#45;&gt;Node3</title>
<g id="a_edge30_Node000025_Node000003"><a xlink:title=" ">
<path fill="none" stroke="#63b8ff" d="M1283.25,-338.5C1203.54,-325.83 1028.83,-287.33 930,-184 917.82,-171.27 909.55,-152.84 904.64,-139.11"/>
<polygon fill="#63b8ff" stroke="#63b8ff" points="907.86,-137.71 901.4,-129.31 901.21,-139.9 907.86,-137.71"/>
</a>
</g>
</g>
<!-- Node25&#45;&gt;Node5 -->
<g id="edge58_Node000025_Node000005" class="edge">
<title>Node25&#45;&gt;Node5</title>
<g id="a_edge58_Node000025_Node000005"><a xlink:title=" ">
<path fill="none" stroke="#63b8ff" d="M1283.13,-339.36C1197.18,-329.84 999.29,-307.91 884.24,-295.17"/>
<polygon fill="#63b8ff" stroke="#63b8ff" points="884.38,-291.66 874.05,-294.04 883.61,-298.62 884.38,-291.66"/>
</a>
</g>
</g>
<!-- Node25&#45;&gt;Node8 -->
<g id="edge57_Node000025_Node000008" class="edge">
<title>Node25&#45;&gt;Node8</title>
<g id="a_edge57_Node000025_Node000008"><a xlink:title=" ">
<path fill="none" stroke="#63b8ff" d="M1291.27,-335.48C1247.1,-322.48 1170.64,-293.28 1131,-239 1121.59,-226.12 1118.93,-207.96 1118.43,-194.35"/>
<polygon fill="#63b8ff" stroke="#63b8ff" points="1121.93,-194.21 1118.41,-184.22 1114.93,-194.22 1121.93,-194.21"/>
</a>
</g>
</g>
<!-- Node25&#45;&gt;Node9 -->
<g id="edge31_Node000025_Node000009" class="edge">
<title>Node25&#45;&gt;Node9</title>
<g id="a_edge31_Node000025_Node000009"><a xlink:title=" ">
<path fill="none" stroke="#63b8ff" d="M1366.61,-342.47C1472.74,-338.13 1747.06,-324.1 1774,-294 1798.96,-266.11 1859.87,-293.75 1748,-165 1728.4,-142.45 1695.94,-131.24 1670.65,-125.73"/>
<polygon fill="#63b8ff" stroke="#63b8ff" points="1671.15,-122.26 1660.66,-123.75 1669.8,-129.12 1671.15,-122.26"/>
</a>
</g>
</g>
<!-- Node25&#45;&gt;Node12 -->
<g id="edge34_Node000025_Node000012" class="edge">
<title>Node25&#45;&gt;Node12</title>
<g id="a_edge34_Node000025_Node000012"><a xlink:title=" ">
<path fill="none" stroke="#63b8ff" d="M1366.77,-344.14C1457,-341.8 1665.84,-321.3 1714,-184 1726.67,-147.89 1702.03,-130.94 1670,-110 1650.74,-97.41 1594.4,-83.83 1552.67,-75.03"/>
<polygon fill="#63b8ff" stroke="#63b8ff" points="1553.18,-71.56 1542.68,-72.95 1551.76,-78.41 1553.18,-71.56"/>
</a>
</g>
</g>
<!-- Node26 -->
<g id="Node000026" class="node">
<title>Node26</title>
<g id="a_Node000026"><a xlink:href="IGameWorld_8h.html" target="_top" xlink:title="Declares the interface for interacting with the active game world state.">
<polygon fill="white" stroke="#666666" points="1765,-294 1679,-294 1679,-275 1765,-275 1765,-294"/>
<text text-anchor="middle" x="1722" y="-282" font-family="Helvetica,sans-Serif" font-size="10.00">IGameWorld.h</text>
</a>
</g>
</g>
<!-- Node25&#45;&gt;Node26 -->
<g id="edge32_Node000025_Node000026" class="edge">
<title>Node25&#45;&gt;Node26</title>
<g id="a_edge32_Node000025_Node000026"><a xlink:title=" ">
<path fill="none" stroke="#63b8ff" d="M1366.61,-337.91C1430.71,-328.52 1557.44,-309.93 1665,-294 1666.25,-293.81 1667.52,-293.63 1668.8,-293.44"/>
<polygon fill="#63b8ff" stroke="#63b8ff" points="1669.36,-296.89 1678.74,-291.96 1668.34,-289.97 1669.36,-296.89"/>
</a>
</g>
</g>
<!-- Node27 -->
<g id="Node000027" class="node">
<title>Node27</title>
<g id="a_Node000027"><a xlink:href="IComponentManager_8h.html" target="_top" xlink:title="System for managing components and their relationship to specific entities.">
<polygon fill="white" stroke="#666666" points="1516.5,-294 1361.5,-294 1361.5,-275 1516.5,-275 1516.5,-294"/>
<text text-anchor="middle" x="1439" y="-282" font-family="Helvetica,sans-Serif" font-size="10.00">../ecs/IComponentManager.h</text>
</a>
</g>
</g>
<!-- Node25&#45;&gt;Node27 -->
<g id="edge35_Node000025_Node000027" class="edge">
<title>Node25&#45;&gt;Node27</title>
<g id="a_edge35_Node000025_Node000027"><a xlink:title=" ">
<path fill="none" stroke="#63b8ff" d="M1341.82,-335.37C1360.6,-325.73 1391.2,-310.03 1413.05,-298.81"/>
<polygon fill="#63b8ff" stroke="#63b8ff" points="1414.81,-301.85 1422.11,-294.17 1411.61,-295.62 1414.81,-301.85"/>
</a>
</g>
</g>
<!-- Node37 -->
<g id="Node000037" class="node">
<title>Node37</title>
<g id="a_Node000037"><a xlink:href="IEntityManager_8h.html" target="_top" xlink:title="Interface for managing entities and their signatures.">
<polygon fill="white" stroke="#666666" points="1449,-184 1321,-184 1321,-165 1449,-165 1449,-184"/>
<text text-anchor="middle" x="1385" y="-172" font-family="Helvetica,sans-Serif" font-size="10.00">../ecs/IEntityManager.h</text>
</a>
</g>
</g>
<!-- Node25&#45;&gt;Node37 -->
<g id="edge53_Node000025_Node000037" class="edge">
<title>Node25&#45;&gt;Node37</title>
<g id="a_edge53_Node000025_Node000037"><a xlink:title=" ">
<path fill="none" stroke="#63b8ff" d="M1324.76,-335.39C1324.52,-314.51 1325.9,-259.94 1345,-220 1350.18,-209.18 1358.82,-199.06 1366.76,-191.22"/>
<polygon fill="#63b8ff" stroke="#63b8ff" points="1369.37,-193.57 1374.3,-184.19 1364.6,-188.45 1369.37,-193.57"/>
</a>
</g>
</g>
<!-- Node26&#45;&gt;Node9 -->
<g id="edge33_Node000026_Node000009" class="edge">
<title>Node26&#45;&gt;Node9</title>
<g id="a_edge33_Node000026_Node000009"><a xlink:title=" ">
<path fill="none" stroke="#63b8ff" d="M1725.91,-274.9C1734.7,-254.11 1753.61,-200.25 1731,-165 1717.7,-144.27 1692.05,-133.07 1670.47,-127.09"/>
<polygon fill="#63b8ff" stroke="#63b8ff" points="1671.14,-123.65 1660.59,-124.63 1669.45,-130.44 1671.14,-123.65"/>
</a>
</g>
</g>
<!-- Node27&#45;&gt;Node3 -->
<g id="edge36_Node000027_Node000003" class="edge">
<title>Node27&#45;&gt;Node3</title>
<g id="a_edge36_Node000027_Node000003"><a xlink:title=" ">
<path fill="none" stroke="#63b8ff" d="M1361.46,-275.83C1298.79,-268.79 1208.55,-256.74 1131,-239 1051.94,-220.92 1025.35,-227.66 957,-184 938.01,-171.87 921.25,-151.97 910.69,-137.68"/>
<polygon fill="#63b8ff" stroke="#63b8ff" points="913.34,-135.36 904.69,-129.23 907.63,-139.41 913.34,-135.36"/>
</a>
</g>
</g>
<!-- Node27&#45;&gt;Node9 -->
<g id="edge51_Node000027_Node000009" class="edge">
<title>Node27&#45;&gt;Node9</title>
<g id="a_edge51_Node000027_Node000009"><a xlink:title=" ">
<path fill="none" stroke="#63b8ff" d="M1516.84,-276.2C1555.59,-270.16 1602.12,-259.12 1640,-239 1676.9,-219.39 1717.36,-202.03 1698,-165 1690.89,-151.39 1677.51,-141.1 1664.81,-133.87"/>
<polygon fill="#63b8ff" stroke="#63b8ff" points="1666.27,-130.68 1655.79,-129.13 1663.02,-136.88 1666.27,-130.68"/>
</a>
</g>
</g>
<!-- Node28 -->
<g id="Node000028" class="node">
<title>Node28</title>
<g id="a_Node000028"><a xlink:title=" ">
<polygon fill="#e0e0e0" stroke="#999999" points="1418.5,-239 1353.5,-239 1353.5,-220 1418.5,-220 1418.5,-239"/>
<text text-anchor="middle" x="1386" y="-227" font-family="Helvetica,sans-Serif" font-size="10.00">typeindex</text>
</a>
</g>
</g>
<!-- Node27&#45;&gt;Node28 -->
<g id="edge37_Node000027_Node000028" class="edge">
<title>Node27&#45;&gt;Node28</title>
<g id="a_edge37_Node000027_Node000028"><a xlink:title=" ">
<path fill="none" stroke="#63b8ff" d="M1430.25,-274.75C1422.53,-267.03 1411.1,-255.6 1401.78,-246.28"/>
<polygon fill="#63b8ff" stroke="#63b8ff" points="1404.14,-243.69 1394.59,-239.09 1399.19,-248.64 1404.14,-243.69"/>
</a>
</g>
</g>
<!-- Node29 -->
<g id="Node000029" class="node">
<title>Node29</title>
<g id="a_Node000029"><a xlink:title=" ">
<polygon fill="#e0e0e0" stroke="#999999" points="1560.5,-184 1467.5,-184 1467.5,-165 1560.5,-165 1560.5,-184"/>
<text text-anchor="middle" x="1514" y="-172" font-family="Helvetica,sans-Serif" font-size="10.00">unordered_map</text>
</a>
</g>
</g>
<!-- Node27&#45;&gt;Node29 -->
<g id="edge38_Node000027_Node000029" class="edge">
<title>Node27&#45;&gt;Node29</title>
<g id="a_edge38_Node000027_Node000029"><a xlink:title=" ">
<path fill="none" stroke="#63b8ff" d="M1441.63,-274.72C1445.74,-261.92 1454.5,-237.73 1467,-220 1474.73,-209.03 1485.48,-198.61 1494.75,-190.61"/>
<polygon fill="#63b8ff" stroke="#63b8ff" points="1497.25,-193.09 1502.71,-184.01 1492.78,-187.7 1497.25,-193.09"/>
</a>
</g>
</g>
<!-- Node30 -->
<g id="Node000030" class="node">
<title>Node30</title>
<g id="a_Node000030"><a xlink:href="ConsoleSink_8h.html" target="_top" xlink:title="Concrete implementation of ISink that logs to the console.">
<polygon fill="white" stroke="#666666" points="1296.5,-239 1139.5,-239 1139.5,-220 1296.5,-220 1296.5,-239"/>
<text text-anchor="middle" x="1218" y="-227" font-family="Helvetica,sans-Serif" font-size="10.00">../logger/sinks/ConsoleSink.h</text>
</a>
</g>
</g>
<!-- Node27&#45;&gt;Node30 -->
<g id="edge39_Node000027_Node000030" class="edge">
<title>Node27&#45;&gt;Node30</title>
<g id="a_edge39_Node000027_Node000030"><a xlink:title=" ">
<path fill="none" stroke="#63b8ff" d="M1403.49,-274.98C1365.51,-265.87 1305.13,-251.4 1263.64,-241.45"/>
<polygon fill="#63b8ff" stroke="#63b8ff" points="1264.33,-238.01 1253.79,-239.08 1262.69,-244.82 1264.33,-238.01"/>
</a>
</g>
</g>
<!-- Node35 -->
<g id="Node000035" class="node">
<title>Node35</title>
<g id="a_Node000035"><a xlink:href="DenseComponentArray_8h.html" target="_top" xlink:title="Provides dense storage for components of a specific type.">
<polygon fill="white" stroke="#666666" points="1612.5,-239 1475.5,-239 1475.5,-220 1612.5,-220 1612.5,-239"/>
<text text-anchor="middle" x="1544" y="-227" font-family="Helvetica,sans-Serif" font-size="10.00">DenseComponentArray.h</text>
</a>
</g>
</g>
<!-- Node27&#45;&gt;Node35 -->
<g id="edge47_Node000027_Node000035" class="edge">
<title>Node27&#45;&gt;Node35</title>
<g id="a_edge47_Node000027_Node000035"><a xlink:title=" ">
<path fill="none" stroke="#63b8ff" d="M1455.87,-274.98C1472.61,-266.54 1498.5,-253.47 1517.89,-243.68"/>
<polygon fill="#63b8ff" stroke="#63b8ff" points="1519.47,-246.8 1526.82,-239.17 1516.32,-240.55 1519.47,-246.8"/>
</a>
</g>
</g>
<!-- Node36 -->
<g id="Node000036" class="node">
<title>Node36</title>
<g id="a_Node000036"><a xlink:href="IComponentArray_8h.html" target="_top" xlink:title="A data structure built for managing a specific component type.">
<polygon fill="white" stroke="#666666" points="1689,-184 1579,-184 1579,-165 1689,-165 1689,-184"/>
<text text-anchor="middle" x="1634" y="-172" font-family="Helvetica,sans-Serif" font-size="10.00">IComponentArray.h</text>
</a>
</g>
</g>
<!-- Node27&#45;&gt;Node36 -->
<g id="edge52_Node000027_Node000036" class="edge">
<title>Node27&#45;&gt;Node36</title>
<g id="a_edge52_Node000027_Node000036"><a xlink:title=" ">
<path fill="none" stroke="#63b8ff" d="M1505.56,-274.98C1551.07,-267.77 1605.96,-255.89 1622,-239 1633.22,-227.19 1635.57,-208.35 1635.51,-194.25"/>
<polygon fill="#63b8ff" stroke="#63b8ff" points="1639,-194.03 1635.06,-184.19 1632.01,-194.34 1639,-194.03"/>
</a>
</g>
</g>
<!-- Node31 -->
<g id="Node000031" class="node">
<title>Node31</title>
<g id="a_Node000031"><a xlink:title=" ">
<polygon fill="#e0e0e0" stroke="#999999" points="1303,-184 1243,-184 1243,-165 1303,-165 1303,-184"/>
<text text-anchor="middle" x="1273" y="-172" font-family="Helvetica,sans-Serif" font-size="10.00">iostream</text>
</a>
</g>
</g>
<!-- Node30&#45;&gt;Node31 -->
<g id="edge40_Node000030_Node000031" class="edge">
<title>Node30&#45;&gt;Node31</title>
<g id="a_edge40_Node000030_Node000031"><a xlink:title=" ">
<path fill="none" stroke="#63b8ff" d="M1227.08,-219.75C1235.09,-212.03 1246.96,-200.6 1256.62,-191.28"/>
<polygon fill="#63b8ff" stroke="#63b8ff" points="1259.31,-193.55 1264.09,-184.09 1254.46,-188.51 1259.31,-193.55"/>
</a>
</g>
</g>
<!-- Node32 -->
<g id="Node000032" class="node">
<title>Node32</title>
<g id="a_Node000032"><a xlink:href="Logger_8h.html" target="_top" xlink:title="Central static logging interface for the application.">
<polygon fill="white" stroke="#666666" points="1032.5,-184 965.5,-184 965.5,-165 1032.5,-165 1032.5,-184"/>
<text text-anchor="middle" x="999" y="-172" font-family="Helvetica,sans-Serif" font-size="10.00">../Logger.h</text>
</a>
</g>
</g>
<!-- Node30&#45;&gt;Node32 -->
<g id="edge41_Node000030_Node000032" class="edge">
<title>Node30&#45;&gt;Node32</title>
<g id="a_edge41_Node000030_Node000032"><a xlink:title=" ">
<path fill="none" stroke="#63b8ff" d="M1182.81,-219.98C1144.61,-210.74 1083.56,-195.96 1042.41,-186.01"/>
<polygon fill="#63b8ff" stroke="#63b8ff" points="1043.2,-182.6 1032.66,-183.65 1041.56,-189.4 1043.2,-182.6"/>
</a>
</g>
</g>
<!-- Node34 -->
<g id="Node000034" class="node">
<title>Node34</title>
<g id="a_Node000034"><a xlink:href="ISink_8h.html" target="_top" xlink:title="Declares the logging sink interface.">
<polygon fill="white" stroke="#666666" points="1105,-129 1027,-129 1027,-110 1105,-110 1105,-129"/>
<text text-anchor="middle" x="1066" y="-117" font-family="Helvetica,sans-Serif" font-size="10.00">sinks/ISink.h</text>
</a>
</g>
</g>
<!-- Node30&#45;&gt;Node34 -->
<g id="edge46_Node000030_Node000034" class="edge">
<title>Node30&#45;&gt;Node34</title>
<g id="a_edge46_Node000030_Node000034"><a xlink:title=" ">
<path fill="none" stroke="#63b8ff" d="M1217.37,-219.85C1215.92,-206.33 1211.21,-180.15 1196,-165 1174.5,-143.58 1142.25,-132.46 1115.26,-126.69"/>
<polygon fill="#63b8ff" stroke="#63b8ff" points="1115.69,-123.21 1105.2,-124.73 1114.35,-130.08 1115.69,-123.21"/>
</a>
</g>
</g>
<!-- Node32&#45;&gt;Node3 -->
<g id="edge42_Node000032_Node000003" class="edge">
<title>Node32&#45;&gt;Node3</title>
<g id="a_edge42_Node000032_Node000003"><a xlink:title=" ">
<path fill="none" stroke="#63b8ff" d="M982.93,-164.98C967.14,-156.61 942.78,-143.7 924.37,-133.95"/>
<polygon fill="#63b8ff" stroke="#63b8ff" points="925.83,-130.76 915.36,-129.17 922.56,-136.95 925.83,-130.76"/>
</a>
</g>
</g>
<!-- Node33 -->
<g id="Node000033" class="node">
<title>Node33</title>
<g id="a_Node000033"><a xlink:title=" ">
<polygon fill="#e0e0e0" stroke="#999999" points="1069.5,-74 996.5,-74 996.5,-55 1069.5,-55 1069.5,-74"/>
<text text-anchor="middle" x="1033" y="-62" font-family="Helvetica,sans-Serif" font-size="10.00">string_view</text>
</a>
</g>
</g>
<!-- Node32&#45;&gt;Node33 -->
<g id="edge43_Node000032_Node000033" class="edge">
<title>Node32&#45;&gt;Node33</title>
<g id="a_edge43_Node000032_Node000033"><a xlink:title=" ">
<path fill="none" stroke="#63b8ff" d="M1001.49,-164.84C1005.03,-152.59 1011.79,-129.52 1018,-110 1020.78,-101.25 1024.02,-91.58 1026.78,-83.5"/>
<polygon fill="#63b8ff" stroke="#63b8ff" points="1030.1,-84.6 1030.04,-74 1023.48,-82.32 1030.1,-84.6"/>
</a>
</g>
</g>
<!-- Node32&#45;&gt;Node34 -->
<g id="edge44_Node000032_Node000034" class="edge">
<title>Node32&#45;&gt;Node34</title>
<g id="a_edge44_Node000032_Node000034"><a xlink:title=" ">
<path fill="none" stroke="#63b8ff" d="M1009.76,-164.98C1019.77,-157.07 1034.89,-145.11 1046.93,-135.58"/>
<polygon fill="#63b8ff" stroke="#63b8ff" points="1049.37,-138.12 1055.04,-129.17 1045.03,-132.63 1049.37,-138.12"/>
</a>
</g>
</g>
<!-- Node34&#45;&gt;Node33 -->
<g id="edge45_Node000034_Node000033" class="edge">
<title>Node34&#45;&gt;Node33</title>
<g id="a_edge45_Node000034_Node000033"><a xlink:title=" ">
<path fill="none" stroke="#63b8ff" d="M1060.55,-109.75C1055.99,-102.42 1049.33,-91.73 1043.71,-82.7"/>
<polygon fill="#63b8ff" stroke="#63b8ff" points="1046.6,-80.73 1038.35,-74.09 1040.66,-84.43 1046.6,-80.73"/>
</a>
</g>
</g>
<!-- Node35&#45;&gt;Node29 -->
<g id="edge50_Node000035_Node000029" class="edge">
<title>Node35&#45;&gt;Node29</title>
<g id="a_edge50_Node000035_Node000029"><a xlink:title=" ">
<path fill="none" stroke="#63b8ff" d="M1539.05,-219.75C1534.94,-212.49 1528.97,-201.95 1523.9,-192.98"/>
<polygon fill="#63b8ff" stroke="#63b8ff" points="1526.83,-191.07 1518.86,-184.09 1520.74,-194.52 1526.83,-191.07"/>
</a>
</g>
</g>
<!-- Node35&#45;&gt;Node36 -->
<g id="edge48_Node000035_Node000036" class="edge">
<title>Node35&#45;&gt;Node36</title>
<g id="a_edge48_Node000035_Node000036"><a xlink:title=" ">
<path fill="none" stroke="#63b8ff" d="M1558.46,-219.98C1572.42,-211.77 1593.79,-199.18 1610.25,-189.49"/>
<polygon fill="#63b8ff" stroke="#63b8ff" points="1612.44,-192.26 1619.28,-184.17 1608.88,-186.23 1612.44,-192.26"/>
</a>
</g>
</g>
<!-- Node36&#45;&gt;Node9 -->
<g id="edge49_Node000036_Node000009" class="edge">
<title>Node36&#45;&gt;Node9</title>
<g id="a_edge49_Node000036_Node000009"><a xlink:title=" ">
<path fill="none" stroke="#63b8ff" d="M1634,-164.75C1634,-157.8 1634,-147.85 1634,-139.13"/>
<polygon fill="#63b8ff" stroke="#63b8ff" points="1637.5,-139.09 1634,-129.09 1630.5,-139.09 1637.5,-139.09"/>
</a>
</g>
</g>
<!-- Node37&#45;&gt;Node9 -->
<g id="edge55_Node000037_Node000009" class="edge">
<title>Node37&#45;&gt;Node9</title>
<g id="a_edge55_Node000037_Node000009"><a xlink:title=" ">
<path fill="none" stroke="#63b8ff" d="M1425.01,-164.98C1472.68,-154.84 1551.65,-138.03 1597.65,-128.24"/>
<polygon fill="#63b8ff" stroke="#63b8ff" points="1598.44,-131.65 1607.49,-126.14 1596.98,-124.8 1598.44,-131.65"/>
</a>
</g>
</g>
<!-- Node37&#45;&gt;Node12 -->
<g id="edge56_Node000037_Node000012" class="edge">
<title>Node37&#45;&gt;Node12</title>
<g id="a_edge56_Node000037_Node000012"><a xlink:title=" ">
<path fill="none" stroke="#63b8ff" d="M1395.49,-164.79C1406.09,-155.93 1422.87,-141.72 1437,-129 1454.55,-113.19 1474.11,-94.53 1487.54,-81.55"/>
<polygon fill="#63b8ff" stroke="#63b8ff" points="1490.29,-83.75 1495.03,-74.28 1485.42,-78.73 1490.29,-83.75"/>
</a>
</g>
</g>
<!-- Node38 -->
<g id="Node000038" class="node">
<title>Node38</title>
<g id="a_Node000038"><a xlink:title=" ">
<polygon fill="#e0e0e0" stroke="#999999" points="1428,-129 1342,-129 1342,-110 1428,-110 1428,-129"/>
<text text-anchor="middle" x="1385" y="-117" font-family="Helvetica,sans-Serif" font-size="10.00">unordered_set</text>
</a>
</g>
</g>
<!-- Node37&#45;&gt;Node38 -->
<g id="edge54_Node000037_Node000038" class="edge">
<title>Node37&#45;&gt;Node38</title>
<g id="a_edge54_Node000037_Node000038"><a xlink:title=" ">
<path fill="none" stroke="#63b8ff" d="M1385,-164.75C1385,-157.8 1385,-147.85 1385,-139.13"/>
<polygon fill="#63b8ff" stroke="#63b8ff" points="1388.5,-139.09 1385,-129.09 1381.5,-139.09 1388.5,-139.09"/>
</a>
</g>
</g>
</g>
</svg>
