<?xml version="1.0" encoding="UTF-8" standalone="no"?>
<!DOCTYPE svg PUBLIC "-//W3C//DTD SVG 1.1//EN"
 "http://www.w3.org/Graphics/SVG/1.1/DTD/svg11.dtd">
<!-- Generated by graphviz version 2.43.0 (0)
 -->
<!-- Title: IRenderer.h Pages: 1 -->
<svg width="422pt" height="137pt"
 viewBox="0.00 0.00 421.50 137.00" xmlns="http://www.w3.org/2000/svg" xmlns:xlink="http://www.w3.org/1999/xlink">
<g id="graph0" class="graph" transform="scale(1 1) rotate(0) translate(4 133)">
<title>IRenderer.h</title>
<!-- Node1 -->
<g id="Node000001" class="node">
<title>Node1</title>
<g id="a_Node000001"><a xlink:title="9*">
<polygon fill="#999999" stroke="#666666" points="256,-129 184,-129 184,-110 256,-110 256,-129"/>
<text text-anchor="middle" x="220" y="-117" font-family="Helvetica,sans-Serif" font-size="10.00">IRenderer.h</text>
</a>
</g>
</g>
<!-- Node2 -->
<g id="Node000002" class="node">
<title>Node2</title>
<g id="a_Node000002"><a xlink:href="RenderSystem_8h.html" target="_top" xlink:title="[brief description of file&#39;s purpose]">
<polygon fill="white" stroke="#666666" points="214.5,-74 117.5,-74 117.5,-55 214.5,-55 214.5,-74"/>
<text text-anchor="middle" x="166" y="-62" font-family="Helvetica,sans-Serif" font-size="10.00">RenderSystem.h</text>
</a>
</g>
</g>
<!-- Node1&#45;&gt;Node2 -->
<g id="edge1_Node000001_Node000002" class="edge">
<title>Node1&#45;&gt;Node2</title>
<g id="a_edge1_Node000001_Node000002"><a xlink:title=" ">
<path fill="none" stroke="#63b8ff" d="M203.72,-102.52C194.2,-93.18 182.56,-81.75 174.75,-74.09"/>
<polygon fill="#63b8ff" stroke="#63b8ff" points="201.49,-105.24 211.08,-109.75 206.4,-100.25 201.49,-105.24"/>
</a>
</g>
</g>
<!-- Node6 -->
<g id="Node000006" class="node">
<title>Node6</title>
<g id="a_Node000006"><a xlink:href="SdlRenderer_8h.html" target="_top" xlink:title="SDL implementation of the IRenderer interface.">
<polygon fill="white" stroke="#666666" points="317,-74 233,-74 233,-55 317,-55 317,-74"/>
<text text-anchor="middle" x="275" y="-62" font-family="Helvetica,sans-Serif" font-size="10.00">SdlRenderer.h</text>
</a>
</g>
</g>
<!-- Node1&#45;&gt;Node6 -->
<g id="edge5_Node000001_Node000006" class="edge">
<title>Node1&#45;&gt;Node6</title>
<g id="a_edge5_Node000001_Node000006"><a xlink:title=" ">
<path fill="none" stroke="#63b8ff" d="M236.29,-102.8C246.04,-93.41 258.05,-81.83 266.09,-74.09"/>
<polygon fill="#63b8ff" stroke="#63b8ff" points="233.85,-100.29 229.08,-109.75 238.71,-105.33 233.85,-100.29"/>
</a>
</g>
</g>
<!-- Node3 -->
<g id="Node000003" class="node">
<title>Node3</title>
<g id="a_Node000003"><a xlink:href="GameWorld_8cpp.html" target="_top" xlink:title=" ">
<polygon fill="white" stroke="#666666" points="94,-19 0,-19 0,0 94,0 94,-19"/>
<text text-anchor="middle" x="47" y="-7" font-family="Helvetica,sans-Serif" font-size="10.00">GameWorld.cpp</text>
</a>
</g>
</g>
<!-- Node2&#45;&gt;Node3 -->
<g id="edge2_Node000002_Node000003" class="edge">
<title>Node2&#45;&gt;Node3</title>
<g id="a_edge2_Node000002_Node000003"><a xlink:title=" ">
<path fill="none" stroke="#63b8ff" d="M137.7,-50.9C115.72,-41.11 85.82,-27.79 66.47,-19.17"/>
<polygon fill="#63b8ff" stroke="#63b8ff" points="136.32,-54.11 146.88,-54.98 139.17,-47.72 136.32,-54.11"/>
</a>
</g>
</g>
<!-- Node4 -->
<g id="Node000004" class="node">
<title>Node4</title>
<g id="a_Node000004"><a xlink:href="RenderSystem_8cpp.html" target="_top" xlink:title=" ">
<polygon fill="white" stroke="#666666" points="220,-19 112,-19 112,0 220,0 220,-19"/>
<text text-anchor="middle" x="166" y="-7" font-family="Helvetica,sans-Serif" font-size="10.00">RenderSystem.cpp</text>
</a>
</g>
</g>
<!-- Node2&#45;&gt;Node4 -->
<g id="edge3_Node000002_Node000004" class="edge">
<title>Node2&#45;&gt;Node4</title>
<g id="a_edge3_Node000002_Node000004"><a xlink:title=" ">
<path fill="none" stroke="#63b8ff" d="M166,-44.66C166,-35.93 166,-25.99 166,-19.09"/>
<polygon fill="#63b8ff" stroke="#63b8ff" points="162.5,-44.75 166,-54.75 169.5,-44.75 162.5,-44.75"/>
</a>
</g>
</g>
<!-- Node5 -->
<g id="Node000005" class="node">
<title>Node5</title>
<g id="a_Node000005"><a xlink:href="main_8cpp.html" target="_top" xlink:title=" ">
<polygon fill="white" stroke="#666666" points="300,-19 238,-19 238,0 300,0 300,-19"/>
<text text-anchor="middle" x="269" y="-7" font-family="Helvetica,sans-Serif" font-size="10.00">main.cpp</text>
</a>
</g>
</g>
<!-- Node2&#45;&gt;Node5 -->
<g id="edge4_Node000002_Node000005" class="edge">
<title>Node2&#45;&gt;Node5</title>
<g id="a_edge4_Node000002_Node000005"><a xlink:title=" ">
<path fill="none" stroke="#63b8ff" d="M191.52,-50.37C210.44,-40.63 235.7,-27.64 252.15,-19.17"/>
<polygon fill="#63b8ff" stroke="#63b8ff" points="189.84,-47.3 182.55,-54.98 193.04,-53.52 189.84,-47.3"/>
</a>
</g>
</g>
<!-- Node6&#45;&gt;Node5 -->
<g id="edge7_Node000006_Node000005" class="edge">
<title>Node6&#45;&gt;Node5</title>
<g id="a_edge7_Node000006_Node000005"><a xlink:title=" ">
<path fill="none" stroke="#63b8ff" d="M272.87,-44.66C271.88,-35.93 270.75,-25.99 269.97,-19.09"/>
<polygon fill="#63b8ff" stroke="#63b8ff" points="269.41,-45.21 274.01,-54.75 276.36,-44.42 269.41,-45.21"/>
</a>
</g>
</g>
<!-- Node7 -->
<g id="Node000007" class="node">
<title>Node7</title>
<g id="a_Node000007"><a xlink:href="SdlRenderer_8cpp.html" target="_top" xlink:title=" ">
<polygon fill="white" stroke="#666666" points="413.5,-19 318.5,-19 318.5,0 413.5,0 413.5,-19"/>
<text text-anchor="middle" x="366" y="-7" font-family="Helvetica,sans-Serif" font-size="10.00">SdlRenderer.cpp</text>
</a>
</g>
</g>
<!-- Node6&#45;&gt;Node7 -->
<g id="edge6_Node000006_Node000007" class="edge">
<title>Node6&#45;&gt;Node7</title>
<g id="a_edge6_Node000006_Node000007"><a xlink:title=" ">
<path fill="none" stroke="#63b8ff" d="M298.7,-49.7C315.28,-40.04 336.91,-27.44 351.11,-19.17"/>
<polygon fill="#63b8ff" stroke="#63b8ff" points="296.5,-46.93 289.62,-54.98 300.02,-52.98 296.5,-46.93"/>
</a>
</g>
</g>
</g>
</svg>
