<?xml version="1.0" encoding="UTF-8" standalone="no"?>
<!DOCTYPE svg PUBLIC "-//W3C//DTD SVG 1.1//EN"
 "http://www.w3.org/Graphics/SVG/1.1/DTD/svg11.dtd">
<!-- Generated by graphviz version 2.43.0 (0)
 -->
<!-- Title: ISystemManager.h Pages: 1 -->
<svg width="593pt" height="302pt"
 viewBox="0.00 0.00 592.50 302.00" xmlns="http://www.w3.org/2000/svg" xmlns:xlink="http://www.w3.org/1999/xlink">
<g id="graph0" class="graph" transform="scale(1 1) rotate(0) translate(4 298)">
<title>ISystemManager.h</title>
<!-- Node1 -->
<g id="Node000001" class="node">
<title>Node1</title>
<g id="a_Node000001"><a xlink:title="Declares the interface for managing registered systems.">
<polygon fill="#999999" stroke="#666666" points="185,-294 78,-294 78,-275 185,-275 185,-294"/>
<text text-anchor="middle" x="131.5" y="-282" font-family="Helvetica,sans-Serif" font-size="10.00">ISystemManager.h</text>
</a>
</g>
</g>
<!-- Node2 -->
<g id="Node000002" class="node">
<title>Node2</title>
<g id="a_Node000002"><a xlink:href="GameWorld_8h.html" target="_top" xlink:title="Defines the concrete game world used by the main loop.">
<polygon fill="white" stroke="#666666" points="165,-129 82,-129 82,-110 165,-110 165,-129"/>
<text text-anchor="middle" x="123.5" y="-117" font-family="Helvetica,sans-Serif" font-size="10.00">GameWorld.h</text>
</a>
</g>
</g>
<!-- Node1&#45;&gt;Node2 -->
<g id="edge1_Node000001_Node000002" class="edge">
<title>Node1&#45;&gt;Node2</title>
<g id="a_edge1_Node000001_Node000002"><a xlink:title=" ">
<path fill="none" stroke="#63b8ff" d="M130.56,-264.37C128.83,-229.03 125.18,-154.79 123.93,-129.31"/>
<polygon fill="#63b8ff" stroke="#63b8ff" points="127.08,-264.92 131.07,-274.74 134.08,-264.58 127.08,-264.92"/>
</a>
</g>
</g>
<!-- Node7 -->
<g id="Node000007" class="node">
<title>Node7</title>
<g id="a_Node000007"><a xlink:href="ICommand_8h.html" target="_top" xlink:title="An abstract representation of an action to be executed in the game engine.">
<polygon fill="white" stroke="#666666" points="103,-239 24,-239 24,-220 103,-220 103,-239"/>
<text text-anchor="middle" x="63.5" y="-227" font-family="Helvetica,sans-Serif" font-size="10.00">ICommand.h</text>
</a>
</g>
</g>
<!-- Node1&#45;&gt;Node7 -->
<g id="edge6_Node000001_Node000007" class="edge">
<title>Node1&#45;&gt;Node7</title>
<g id="a_edge6_Node000001_Node000007"><a xlink:title=" ">
<path fill="none" stroke="#63b8ff" d="M112.38,-268.6C100.2,-259.11 84.84,-247.13 74.62,-239.17"/>
<polygon fill="#63b8ff" stroke="#63b8ff" points="110.54,-271.6 120.57,-274.98 114.84,-266.08 110.54,-271.6"/>
</a>
</g>
</g>
<!-- Node12 -->
<g id="Node000012" class="node">
<title>Node12</title>
<g id="a_Node000012"><a xlink:href="SystemManager_8h.html" target="_top" xlink:title="Defines the concrete implementation of ISystemManager.h.">
<polygon fill="white" stroke="#666666" points="492.5,-239 388.5,-239 388.5,-220 492.5,-220 492.5,-239"/>
<text text-anchor="middle" x="440.5" y="-227" font-family="Helvetica,sans-Serif" font-size="10.00">SystemManager.h</text>
</a>
</g>
</g>
<!-- Node1&#45;&gt;Node12 -->
<g id="edge16_Node000001_Node000012" class="edge">
<title>Node1&#45;&gt;Node12</title>
<g id="a_edge16_Node000001_Node000012"><a xlink:title=" ">
<path fill="none" stroke="#63b8ff" d="M191.27,-273.25C249.3,-263.3 336.35,-248.36 390.72,-239.04"/>
<polygon fill="#63b8ff" stroke="#63b8ff" points="190.41,-269.84 181.15,-274.98 191.59,-276.74 190.41,-269.84"/>
</a>
</g>
</g>
<!-- Node3 -->
<g id="Node000003" class="node">
<title>Node3</title>
<g id="a_Node000003"><a xlink:href="PlayerMoveCommand_8h.html" target="_top" xlink:title="A command for triggering player (paddle) movement.">
<polygon fill="white" stroke="#666666" points="139.5,-74 5.5,-74 5.5,-55 139.5,-55 139.5,-74"/>
<text text-anchor="middle" x="72.5" y="-62" font-family="Helvetica,sans-Serif" font-size="10.00">PlayerMoveCommand.h</text>
</a>
</g>
</g>
<!-- Node2&#45;&gt;Node3 -->
<g id="edge2_Node000002_Node000003" class="edge">
<title>Node2&#45;&gt;Node3</title>
<g id="a_edge2_Node000002_Node000003"><a xlink:title=" ">
<path fill="none" stroke="#63b8ff" d="M108.12,-102.52C99.13,-93.18 88.14,-81.75 80.76,-74.09"/>
<polygon fill="#63b8ff" stroke="#63b8ff" points="105.62,-104.97 115.08,-109.75 110.67,-100.12 105.62,-104.97"/>
</a>
</g>
</g>
<!-- Node6 -->
<g id="Node000006" class="node">
<title>Node6</title>
<g id="a_Node000006"><a xlink:href="main_8cpp.html" target="_top" xlink:title=" ">
<polygon fill="white" stroke="#666666" points="357.5,-74 295.5,-74 295.5,-55 357.5,-55 357.5,-74"/>
<text text-anchor="middle" x="326.5" y="-62" font-family="Helvetica,sans-Serif" font-size="10.00">main.cpp</text>
</a>
</g>
</g>
<!-- Node2&#45;&gt;Node6 -->
<g id="edge5_Node000002_Node000006" class="edge">
<title>Node2&#45;&gt;Node6</title>
<g id="a_edge5_Node000002_Node000006"><a xlink:title=" ">
<path fill="none" stroke="#63b8ff" d="M166.02,-107.4C204.63,-97.32 260.68,-82.68 295.3,-73.65"/>
<polygon fill="#63b8ff" stroke="#63b8ff" points="164.91,-104.07 156.12,-109.98 166.68,-110.84 164.91,-104.07"/>
</a>
</g>
</g>
<!-- Node4 -->
<g id="Node000004" class="node">
<title>Node4</title>
<g id="a_Node000004"><a xlink:href="InputNormalizer_8cpp.html" target="_top" xlink:title=" ">
<polygon fill="white" stroke="#666666" points="360,-19 245,-19 245,0 360,0 360,-19"/>
<text text-anchor="middle" x="302.5" y="-7" font-family="Helvetica,sans-Serif" font-size="10.00">InputNormalizer.cpp</text>
</a>
</g>
</g>
<!-- Node3&#45;&gt;Node4 -->
<g id="edge3_Node000003_Node000004" class="edge">
<title>Node3&#45;&gt;Node4</title>
<g id="a_edge3_Node000003_Node000004"><a xlink:title=" ">
<path fill="none" stroke="#63b8ff" d="M119.41,-52.69C162.5,-42.76 225.53,-28.24 265.26,-19.08"/>
<polygon fill="#63b8ff" stroke="#63b8ff" points="118.41,-49.33 109.45,-54.98 119.98,-56.15 118.41,-49.33"/>
</a>
</g>
</g>
<!-- Node5 -->
<g id="Node000005" class="node">
<title>Node5</title>
<g id="a_Node000005"><a xlink:href="PlayerMoveCommand_8cpp.html" target="_top" xlink:title=" ">
<polygon fill="white" stroke="#666666" points="145,-19 0,-19 0,0 145,0 145,-19"/>
<text text-anchor="middle" x="72.5" y="-7" font-family="Helvetica,sans-Serif" font-size="10.00">PlayerMoveCommand.cpp</text>
</a>
</g>
</g>
<!-- Node3&#45;&gt;Node5 -->
<g id="edge4_Node000003_Node000005" class="edge">
<title>Node3&#45;&gt;Node5</title>
<g id="a_edge4_Node000003_Node000005"><a xlink:title=" ">
<path fill="none" stroke="#63b8ff" d="M72.5,-44.66C72.5,-35.93 72.5,-25.99 72.5,-19.09"/>
<polygon fill="#63b8ff" stroke="#63b8ff" points="69,-44.75 72.5,-54.75 76,-44.75 69,-44.75"/>
</a>
</g>
</g>
<!-- Node7&#45;&gt;Node3 -->
<g id="edge15_Node000007_Node000003" class="edge">
<title>Node7&#45;&gt;Node3</title>
<g id="a_edge15_Node000007_Node000003"><a xlink:title=" ">
<path fill="none" stroke="#63b8ff" d="M64.56,-209.37C66.51,-174.03 70.61,-99.79 72.01,-74.31"/>
<polygon fill="#63b8ff" stroke="#63b8ff" points="61.04,-209.56 63.98,-219.74 68.03,-209.94 61.04,-209.56"/>
</a>
</g>
</g>
<!-- Node8 -->
<g id="Node000008" class="node">
<title>Node8</title>
<g id="a_Node000008"><a xlink:href="ICommandQueue_8h.html" target="_top" xlink:title="A lightweight wrapper for queuing commands.">
<polygon fill="white" stroke="#666666" points="284.5,-184 174.5,-184 174.5,-165 284.5,-165 284.5,-184"/>
<text text-anchor="middle" x="229.5" y="-172" font-family="Helvetica,sans-Serif" font-size="10.00">ICommandQueue.h</text>
</a>
</g>
</g>
<!-- Node7&#45;&gt;Node8 -->
<g id="edge7_Node000007_Node000008" class="edge">
<title>Node7&#45;&gt;Node8</title>
<g id="a_edge7_Node000007_Node000008"><a xlink:title=" ">
<path fill="none" stroke="#63b8ff" d="M99.75,-216.93C130.75,-207.03 174.67,-193.01 202.62,-184.08"/>
<polygon fill="#63b8ff" stroke="#63b8ff" points="98.63,-213.61 90.17,-219.98 100.76,-220.28 98.63,-213.61"/>
</a>
</g>
</g>
<!-- Node8&#45;&gt;Node2 -->
<g id="edge11_Node000008_Node000002" class="edge">
<title>Node8&#45;&gt;Node2</title>
<g id="a_edge11_Node000008_Node000002"><a xlink:title=" ">
<path fill="none" stroke="#63b8ff" d="M203.5,-160.5C184,-150.75 157.85,-137.68 140.84,-129.17"/>
<polygon fill="#63b8ff" stroke="#63b8ff" points="201.96,-163.64 212.47,-164.98 205.09,-157.38 201.96,-163.64"/>
</a>
</g>
</g>
<!-- Node9 -->
<g id="Node000009" class="node">
<title>Node9</title>
<g id="a_Node000009"><a xlink:href="CommandQueue_8h.html" target="_top" xlink:title="Concrete implementation of ICommandQueue.">
<polygon fill="white" stroke="#666666" points="290,-129 183,-129 183,-110 290,-110 290,-129"/>
<text text-anchor="middle" x="236.5" y="-117" font-family="Helvetica,sans-Serif" font-size="10.00">CommandQueue.h</text>
</a>
</g>
</g>
<!-- Node8&#45;&gt;Node9 -->
<g id="edge8_Node000008_Node000009" class="edge">
<title>Node8&#45;&gt;Node9</title>
<g id="a_edge8_Node000008_Node000009"><a xlink:title=" ">
<path fill="none" stroke="#63b8ff" d="M231.99,-154.66C233.14,-145.93 234.45,-135.99 235.37,-129.09"/>
<polygon fill="#63b8ff" stroke="#63b8ff" points="228.5,-154.38 230.66,-164.75 235.44,-155.29 228.5,-154.38"/>
</a>
</g>
</g>
<!-- Node11 -->
<g id="Node000011" class="node">
<title>Node11</title>
<g id="a_Node000011"><a xlink:href="InputNormalizer_8h.html" target="_top" xlink:title="Concrete implementation of InputNormalizer.">
<polygon fill="white" stroke="#666666" points="412.5,-129 308.5,-129 308.5,-110 412.5,-110 412.5,-129"/>
<text text-anchor="middle" x="360.5" y="-117" font-family="Helvetica,sans-Serif" font-size="10.00">InputNormalizer.h</text>
</a>
</g>
</g>
<!-- Node8&#45;&gt;Node11 -->
<g id="edge12_Node000008_Node000011" class="edge">
<title>Node8&#45;&gt;Node11</title>
<g id="a_edge12_Node000008_Node000011"><a xlink:title=" ">
<path fill="none" stroke="#63b8ff" d="M260,-161.16C284.25,-151.35 317.57,-137.87 339.07,-129.17"/>
<polygon fill="#63b8ff" stroke="#63b8ff" points="258.5,-157.99 250.55,-164.98 261.13,-164.48 258.5,-157.99"/>
</a>
</g>
</g>
<!-- Node9&#45;&gt;Node6 -->
<g id="edge10_Node000009_Node000006" class="edge">
<title>Node9&#45;&gt;Node6</title>
<g id="a_edge10_Node000009_Node000006"><a xlink:title=" ">
<path fill="none" stroke="#63b8ff" d="M259.94,-104.7C276.34,-95.04 297.73,-82.44 311.78,-74.17"/>
<polygon fill="#63b8ff" stroke="#63b8ff" points="257.8,-101.89 250.96,-109.98 261.35,-107.93 257.8,-101.89"/>
</a>
</g>
</g>
<!-- Node10 -->
<g id="Node000010" class="node">
<title>Node10</title>
<g id="a_Node000010"><a xlink:href="CommandQueue_8cpp.html" target="_top" xlink:title=" ">
<polygon fill="white" stroke="#666666" points="277,-74 158,-74 158,-55 277,-55 277,-74"/>
<text text-anchor="middle" x="217.5" y="-62" font-family="Helvetica,sans-Serif" font-size="10.00">CommandQueue.cpp</text>
</a>
</g>
</g>
<!-- Node9&#45;&gt;Node10 -->
<g id="edge9_Node000009_Node000010" class="edge">
<title>Node9&#45;&gt;Node10</title>
<g id="a_edge9_Node000009_Node000010"><a xlink:title=" ">
<path fill="none" stroke="#63b8ff" d="M229.95,-100.24C226.78,-91.37 223.11,-81.14 220.58,-74.09"/>
<polygon fill="#63b8ff" stroke="#63b8ff" points="226.69,-101.52 233.36,-109.75 233.28,-99.15 226.69,-101.52"/>
</a>
</g>
</g>
<!-- Node11&#45;&gt;Node4 -->
<g id="edge13_Node000011_Node000004" class="edge">
<title>Node11&#45;&gt;Node4</title>
<g id="a_edge13_Node000011_Node000004"><a xlink:title=" ">
<path fill="none" stroke="#63b8ff" d="M367.45,-99.84C371.19,-86.6 373.71,-68.8 366.5,-55 357.66,-38.09 339.14,-26.31 324.29,-19.13"/>
<polygon fill="#63b8ff" stroke="#63b8ff" points="364.01,-99.11 364.21,-109.7 370.66,-101.3 364.01,-99.11"/>
</a>
</g>
</g>
<!-- Node11&#45;&gt;Node6 -->
<g id="edge14_Node000011_Node000006" class="edge">
<title>Node11&#45;&gt;Node6</title>
<g id="a_edge14_Node000011_Node000006"><a xlink:title=" ">
<path fill="none" stroke="#63b8ff" d="M349.34,-101.1C343.53,-92.04 336.68,-81.37 332.01,-74.09"/>
<polygon fill="#63b8ff" stroke="#63b8ff" points="346.54,-103.22 354.89,-109.75 352.43,-99.44 346.54,-103.22"/>
</a>
</g>
</g>
<!-- Node12&#45;&gt;Node6 -->
<g id="edge18_Node000012_Node000006" class="edge">
<title>Node12&#45;&gt;Node6</title>
<g id="a_edge18_Node000012_Node000006"><a xlink:title=" ">
<path fill="none" stroke="#63b8ff" d="M442.56,-209.61C444.28,-184.33 443.58,-139.29 421.5,-110 406.15,-89.64 379.18,-78.24 357.89,-72.09"/>
<polygon fill="#63b8ff" stroke="#63b8ff" points="439.06,-209.44 441.67,-219.71 446.03,-210.06 439.06,-209.44"/>
</a>
</g>
</g>
<!-- Node13 -->
<g id="Node000013" class="node">
<title>Node13</title>
<g id="a_Node000013"><a xlink:href="SystemManager_8cpp.html" target="_top" xlink:title=" ">
<polygon fill="white" stroke="#666666" points="584.5,-184 468.5,-184 468.5,-165 584.5,-165 584.5,-184"/>
<text text-anchor="middle" x="526.5" y="-172" font-family="Helvetica,sans-Serif" font-size="10.00">SystemManager.cpp</text>
</a>
</g>
</g>
<!-- Node12&#45;&gt;Node13 -->
<g id="edge17_Node000012_Node000013" class="edge">
<title>Node12&#45;&gt;Node13</title>
<g id="a_edge17_Node000012_Node000013"><a xlink:title=" ">
<path fill="none" stroke="#63b8ff" d="M462.9,-214.7C478.57,-205.04 499.01,-192.44 512.43,-184.17"/>
<polygon fill="#63b8ff" stroke="#63b8ff" points="460.99,-211.76 454.32,-219.98 464.67,-217.72 460.99,-211.76"/>
</a>
</g>
</g>
</g>
</svg>
