<?xml version="1.0" encoding="UTF-8" standalone="no"?>
<!DOCTYPE svg PUBLIC "-//W3C//DTD SVG 1.1//EN"
 "http://www.w3.org/Graphics/SVG/1.1/DTD/svg11.dtd">
<!-- Generated by graphviz version 2.43.0 (0)
 -->
<!-- Title: KeyboardHandler.cpp Pages: 1 -->
<svg width="694pt" height="368pt"
 viewBox="0.00 0.00 693.50 368.00" xmlns="http://www.w3.org/2000/svg" xmlns:xlink="http://www.w3.org/1999/xlink">
<g id="graph0" class="graph" transform="scale(1 1) rotate(0) translate(4 364)">
<title>KeyboardHandler.cpp</title>
<!-- Node1 -->
<g id="Node000001" class="node">
<title>Node1</title>
<g id="a_Node000001"><a xlink:title=" ">
<polygon fill="#999999" stroke="#666666" points="538.5,-360 418.5,-360 418.5,-341 538.5,-341 538.5,-360"/>
<text text-anchor="middle" x="478.5" y="-348" font-family="Helvetica,sans-Serif" font-size="10.00">KeyboardHandler.cpp</text>
</a>
</g>
</g>
<!-- Node2 -->
<g id="Node000002" class="node">
<title>Node2</title>
<g id="a_Node000002"><a xlink:href="KeyboardHandler_8h.html" target="_top" xlink:title="Concrete implementation of the InputHandler interface for polling keyboard inputs.">
<polygon fill="white" stroke="#666666" points="534.5,-305 422.5,-305 422.5,-275 534.5,-275 534.5,-305"/>
<text text-anchor="start" x="430.5" y="-293" font-family="Helvetica,sans-Serif" font-size="10.00">../../include/input</text>
<text text-anchor="middle" x="478.5" y="-282" font-family="Helvetica,sans-Serif" font-size="10.00">/KeyboardHandler.h</text>
</a>
</g>
</g>
<!-- Node1&#45;&gt;Node2 -->
<g id="edge1_Node000001_Node000002" class="edge">
<title>Node1&#45;&gt;Node2</title>
<g id="a_edge1_Node000001_Node000002"><a xlink:title=" ">
<path fill="none" stroke="#63b8ff" d="M478.5,-340.87C478.5,-334.11 478.5,-324.35 478.5,-315.26"/>
<polygon fill="#63b8ff" stroke="#63b8ff" points="482,-315.11 478.5,-305.11 475,-315.11 482,-315.11"/>
</a>
</g>
</g>
<!-- Node7 -->
<g id="Node000007" class="node">
<title>Node7</title>
<g id="a_Node000007"><a xlink:title=" ">
<polygon fill="#e0e0e0" stroke="#999999" points="685.5,-74 575.5,-74 575.5,-55 685.5,-55 685.5,-74"/>
<text text-anchor="middle" x="630.5" y="-62" font-family="Helvetica,sans-Serif" font-size="10.00">SDL3/SDL_events.h</text>
</a>
</g>
</g>
<!-- Node1&#45;&gt;Node7 -->
<g id="edge15_Node000001_Node000007" class="edge">
<title>Node1&#45;&gt;Node7</title>
<g id="a_edge15_Node000001_Node000007"><a xlink:title=" ">
<path fill="none" stroke="#63b8ff" d="M526.68,-340.9C582.68,-327.81 667.5,-297 667.5,-230.5 667.5,-230.5 667.5,-230.5 667.5,-173.5 667.5,-140.12 651.48,-103.91 640.52,-83.04"/>
<polygon fill="#63b8ff" stroke="#63b8ff" points="643.51,-81.21 635.64,-74.12 637.37,-84.57 643.51,-81.21"/>
</a>
</g>
</g>
<!-- Node9 -->
<g id="Node000009" class="node">
<title>Node9</title>
<g id="a_Node000009"><a xlink:href="InputCode_8h.html" target="_top" xlink:title="Defines a unified abstraction for all input bindings.">
<polygon fill="white" stroke="#666666" points="437,-74 362,-74 362,-55 437,-55 437,-74"/>
<text text-anchor="middle" x="399.5" y="-62" font-family="Helvetica,sans-Serif" font-size="10.00">InputCode.h</text>
</a>
</g>
</g>
<!-- Node1&#45;&gt;Node9 -->
<g id="edge16_Node000001_Node000009" class="edge">
<title>Node1&#45;&gt;Node9</title>
<g id="a_edge16_Node000001_Node000009"><a xlink:title=" ">
<path fill="none" stroke="#63b8ff" d="M446.15,-340.97C399.92,-326.59 320.5,-292.83 320.5,-230.5 320.5,-230.5 320.5,-230.5 320.5,-173.5 320.5,-144.04 322.58,-134.12 339.5,-110 348.34,-97.39 361.89,-86.91 373.88,-79.29"/>
<polygon fill="#63b8ff" stroke="#63b8ff" points="375.86,-82.18 382.63,-74.03 372.26,-76.18 375.86,-82.18"/>
</a>
</g>
</g>
<!-- Node3 -->
<g id="Node000003" class="node">
<title>Node3</title>
<g id="a_Node000003"><a xlink:href="BaseInputHandler_8h.html" target="_top" xlink:title=" ">
<polygon fill="white" stroke="#666666" points="534.5,-239 422.5,-239 422.5,-220 534.5,-220 534.5,-239"/>
<text text-anchor="middle" x="478.5" y="-227" font-family="Helvetica,sans-Serif" font-size="10.00">BaseInputHandler.h</text>
</a>
</g>
</g>
<!-- Node2&#45;&gt;Node3 -->
<g id="edge2_Node000002_Node000003" class="edge">
<title>Node2&#45;&gt;Node3</title>
<g id="a_edge2_Node000002_Node000003"><a xlink:title=" ">
<path fill="none" stroke="#63b8ff" d="M478.5,-274.84C478.5,-267.21 478.5,-257.7 478.5,-249.45"/>
<polygon fill="#63b8ff" stroke="#63b8ff" points="482,-249.27 478.5,-239.27 475,-249.27 482,-249.27"/>
</a>
</g>
</g>
<!-- Node4 -->
<g id="Node000004" class="node">
<title>Node4</title>
<g id="a_Node000004"><a xlink:href="IInputHandler_8h.html" target="_top" xlink:title="An abstraction representing some source of player inputs (keyboard, mouse, controller,...">
<polygon fill="white" stroke="#666666" points="524,-184 433,-184 433,-165 524,-165 524,-184"/>
<text text-anchor="middle" x="478.5" y="-172" font-family="Helvetica,sans-Serif" font-size="10.00">IInputHandler.h</text>
</a>
</g>
</g>
<!-- Node3&#45;&gt;Node4 -->
<g id="edge3_Node000003_Node000004" class="edge">
<title>Node3&#45;&gt;Node4</title>
<g id="a_edge3_Node000003_Node000004"><a xlink:title=" ">
<path fill="none" stroke="#63b8ff" d="M478.5,-219.75C478.5,-212.8 478.5,-202.85 478.5,-194.13"/>
<polygon fill="#63b8ff" stroke="#63b8ff" points="482,-194.09 478.5,-184.09 475,-194.09 482,-194.09"/>
</a>
</g>
</g>
<!-- Node5 -->
<g id="Node000005" class="node">
<title>Node5</title>
<g id="a_Node000005"><a xlink:title=" ">
<polygon fill="#e0e0e0" stroke="#999999" points="406.5,-129 348.5,-129 348.5,-110 406.5,-110 406.5,-129"/>
<text text-anchor="middle" x="377.5" y="-117" font-family="Helvetica,sans-Serif" font-size="10.00">memory</text>
</a>
</g>
</g>
<!-- Node4&#45;&gt;Node5 -->
<g id="edge4_Node000004_Node000005" class="edge">
<title>Node4&#45;&gt;Node5</title>
<g id="a_edge4_Node000004_Node000005"><a xlink:title=" ">
<path fill="none" stroke="#63b8ff" d="M462.27,-164.98C446.32,-156.61 421.72,-143.7 403.12,-133.95"/>
<polygon fill="#63b8ff" stroke="#63b8ff" points="404.5,-130.72 394.02,-129.17 401.25,-136.92 404.5,-130.72"/>
</a>
</g>
</g>
<!-- Node6 -->
<g id="Node000006" class="node">
<title>Node6</title>
<g id="a_Node000006"><a xlink:href="IEventSource_8h.html" target="_top" xlink:title=" ">
<polygon fill="white" stroke="#666666" points="639,-129 550,-129 550,-110 639,-110 639,-129"/>
<text text-anchor="middle" x="594.5" y="-117" font-family="Helvetica,sans-Serif" font-size="10.00">IEventSource.h</text>
</a>
</g>
</g>
<!-- Node4&#45;&gt;Node6 -->
<g id="edge5_Node000004_Node000006" class="edge">
<title>Node4&#45;&gt;Node6</title>
<g id="a_edge5_Node000004_Node000006"><a xlink:title=" ">
<path fill="none" stroke="#63b8ff" d="M497.14,-164.98C515.8,-156.46 544.75,-143.23 566.24,-133.41"/>
<polygon fill="#63b8ff" stroke="#63b8ff" points="567.88,-136.51 575.52,-129.17 564.97,-130.14 567.88,-136.51"/>
</a>
</g>
</g>
<!-- Node8 -->
<g id="Node000008" class="node">
<title>Node8</title>
<g id="a_Node000008"><a xlink:href="IInputNormalizer_8h.html" target="_top" xlink:title="An abstraction for translating raw inputs through bindings and into commands.">
<polygon fill="white" stroke="#666666" points="532,-129 425,-129 425,-110 532,-110 532,-129"/>
<text text-anchor="middle" x="478.5" y="-117" font-family="Helvetica,sans-Serif" font-size="10.00">IInputNormalizer.h</text>
</a>
</g>
</g>
<!-- Node4&#45;&gt;Node8 -->
<g id="edge7_Node000004_Node000008" class="edge">
<title>Node4&#45;&gt;Node8</title>
<g id="a_edge7_Node000004_Node000008"><a xlink:title=" ">
<path fill="none" stroke="#63b8ff" d="M478.5,-164.75C478.5,-157.8 478.5,-147.85 478.5,-139.13"/>
<polygon fill="#63b8ff" stroke="#63b8ff" points="482,-139.09 478.5,-129.09 475,-139.09 482,-139.09"/>
</a>
</g>
</g>
<!-- Node6&#45;&gt;Node7 -->
<g id="edge6_Node000006_Node000007" class="edge">
<title>Node6&#45;&gt;Node7</title>
<g id="a_edge6_Node000006_Node000007"><a xlink:title=" ">
<path fill="none" stroke="#63b8ff" d="M600.44,-109.75C605.48,-102.34 612.84,-91.5 619.01,-82.41"/>
<polygon fill="#63b8ff" stroke="#63b8ff" points="621.94,-84.33 624.67,-74.09 616.15,-80.39 621.94,-84.33"/>
</a>
</g>
</g>
<!-- Node8&#45;&gt;Node9 -->
<g id="edge8_Node000008_Node000009" class="edge">
<title>Node8&#45;&gt;Node9</title>
<g id="a_edge8_Node000008_Node000009"><a xlink:title=" ">
<path fill="none" stroke="#63b8ff" d="M465.81,-109.98C453.67,-101.84 435.14,-89.41 420.75,-79.76"/>
<polygon fill="#63b8ff" stroke="#63b8ff" points="422.68,-76.84 412.42,-74.17 418.78,-82.65 422.68,-76.84"/>
</a>
</g>
</g>
<!-- Node10 -->
<g id="Node000010" class="node">
<title>Node10</title>
<g id="a_Node000010"><a xlink:title=" ">
<polygon fill="#e0e0e0" stroke="#999999" points="123,-19 0,-19 0,0 123,0 123,-19"/>
<text text-anchor="middle" x="61.5" y="-7" font-family="Helvetica,sans-Serif" font-size="10.00">SDL3/SDL_gamepad.h</text>
</a>
</g>
</g>
<!-- Node9&#45;&gt;Node10 -->
<g id="edge9_Node000009_Node000010" class="edge">
<title>Node9&#45;&gt;Node10</title>
<g id="a_edge9_Node000009_Node000010"><a xlink:title=" ">
<path fill="none" stroke="#63b8ff" d="M361.71,-57.57C304.57,-48.61 195.47,-31.51 125.72,-20.57"/>
<polygon fill="#63b8ff" stroke="#63b8ff" points="126.14,-17.09 115.72,-19 125.06,-24.01 126.14,-17.09"/>
</a>
</g>
</g>
<!-- Node11 -->
<g id="Node000011" class="node">
<title>Node11</title>
<g id="a_Node000011"><a xlink:title=" ">
<polygon fill="#e0e0e0" stroke="#999999" points="263.5,-19 141.5,-19 141.5,0 263.5,0 263.5,-19"/>
<text text-anchor="middle" x="202.5" y="-7" font-family="Helvetica,sans-Serif" font-size="10.00">SDL3/SDL_keyboard.h</text>
</a>
</g>
</g>
<!-- Node9&#45;&gt;Node11 -->
<g id="edge10_Node000009_Node000011" class="edge">
<title>Node9&#45;&gt;Node11</title>
<g id="a_edge10_Node000009_Node000011"><a xlink:title=" ">
<path fill="none" stroke="#63b8ff" d="M367.85,-54.98C334.34,-45.97 281.3,-31.7 244.36,-21.76"/>
<polygon fill="#63b8ff" stroke="#63b8ff" points="244.97,-18.3 234.4,-19.08 243.15,-25.06 244.97,-18.3"/>
</a>
</g>
</g>
<!-- Node12 -->
<g id="Node000012" class="node">
<title>Node12</title>
<g id="a_Node000012"><a xlink:title=" ">
<polygon fill="#e0e0e0" stroke="#999999" points="405,-19 282,-19 282,0 405,0 405,-19"/>
<text text-anchor="middle" x="343.5" y="-7" font-family="Helvetica,sans-Serif" font-size="10.00">SDL3/SDL_scancode.h</text>
</a>
</g>
</g>
<!-- Node9&#45;&gt;Node12 -->
<g id="edge11_Node000009_Node000012" class="edge">
<title>Node9&#45;&gt;Node12</title>
<g id="a_edge11_Node000009_Node000012"><a xlink:title=" ">
<path fill="none" stroke="#63b8ff" d="M390.5,-54.98C382.31,-47.23 369.99,-35.58 360.03,-26.14"/>
<polygon fill="#63b8ff" stroke="#63b8ff" points="362.33,-23.5 352.66,-19.17 357.52,-28.59 362.33,-23.5"/>
</a>
</g>
</g>
<!-- Node13 -->
<g id="Node000013" class="node">
<title>Node13</title>
<g id="a_Node000013"><a xlink:title=" ">
<polygon fill="#e0e0e0" stroke="#999999" points="488,-19 423,-19 423,0 488,0 488,-19"/>
<text text-anchor="middle" x="455.5" y="-7" font-family="Helvetica,sans-Serif" font-size="10.00">stdexcept</text>
</a>
</g>
</g>
<!-- Node9&#45;&gt;Node13 -->
<g id="edge12_Node000009_Node000013" class="edge">
<title>Node9&#45;&gt;Node13</title>
<g id="a_edge12_Node000009_Node000013"><a xlink:title=" ">
<path fill="none" stroke="#63b8ff" d="M408.5,-54.98C416.69,-47.23 429.01,-35.58 438.97,-26.14"/>
<polygon fill="#63b8ff" stroke="#63b8ff" points="441.48,-28.59 446.34,-19.17 436.67,-23.5 441.48,-28.59"/>
</a>
</g>
</g>
<!-- Node14 -->
<g id="Node000014" class="node">
<title>Node14</title>
<g id="a_Node000014"><a xlink:title=" ">
<polygon fill="#e0e0e0" stroke="#999999" points="550.5,-19 506.5,-19 506.5,0 550.5,0 550.5,-19"/>
<text text-anchor="middle" x="528.5" y="-7" font-family="Helvetica,sans-Serif" font-size="10.00">string</text>
</a>
</g>
</g>
<!-- Node9&#45;&gt;Node14 -->
<g id="edge13_Node000009_Node000014" class="edge">
<title>Node9&#45;&gt;Node14</title>
<g id="a_edge13_Node000009_Node000014"><a xlink:title=" ">
<path fill="none" stroke="#63b8ff" d="M420.23,-54.98C441.26,-46.34 474.05,-32.87 498.04,-23.02"/>
<polygon fill="#63b8ff" stroke="#63b8ff" points="499.48,-26.21 507.4,-19.17 496.82,-19.73 499.48,-26.21"/>
</a>
</g>
</g>
<!-- Node15 -->
<g id="Node000015" class="node">
<title>Node15</title>
<g id="a_Node000015"><a xlink:title=" ">
<polygon fill="#e0e0e0" stroke="#999999" points="620,-19 569,-19 569,0 620,0 620,-19"/>
<text text-anchor="middle" x="594.5" y="-7" font-family="Helvetica,sans-Serif" font-size="10.00">variant</text>
</a>
</g>
</g>
<!-- Node9&#45;&gt;Node15 -->
<g id="edge14_Node000009_Node000015" class="edge">
<title>Node9&#45;&gt;Node15</title>
<g id="a_edge14_Node000009_Node000015"><a xlink:title=" ">
<path fill="none" stroke="#63b8ff" d="M430.83,-54.98C465.86,-45.46 522.48,-30.08 559.09,-20.12"/>
<polygon fill="#63b8ff" stroke="#63b8ff" points="560.12,-23.47 568.85,-17.47 558.28,-16.72 560.12,-23.47"/>
</a>
</g>
</g>
</g>
</svg>
