<?xml version="1.0" encoding="UTF-8" standalone="no"?>
<!DOCTYPE svg PUBLIC "-//W3C//DTD SVG 1.1//EN"
 "http://www.w3.org/Graphics/SVG/1.1/DTD/svg11.dtd">
<!-- Generated by graphviz version 2.43.0 (0)
 -->
<!-- Title: LevelData.h Pages: 1 -->
<svg width="494pt" height="302pt"
 viewBox="0.00 0.00 494.15 302.00" xmlns="http://www.w3.org/2000/svg" xmlns:xlink="http://www.w3.org/1999/xlink">
<g id="graph0" class="graph" transform="scale(1 1) rotate(0) translate(4 298)">
<title>LevelData.h</title>
<!-- Node1 -->
<g id="Node000001" class="node">
<title>Node1</title>
<g id="a_Node000001"><a xlink:title="Contains data structures for level configuration and arena layout.">
<polygon fill="#999999" stroke="#666666" points="130.65,-294 55.65,-294 55.65,-275 130.65,-275 130.65,-294"/>
<text text-anchor="middle" x="93.15" y="-282" font-family="Helvetica,sans-Serif" font-size="10.00">LevelData.h</text>
</a>
</g>
</g>
<!-- Node2 -->
<g id="Node000002" class="node">
<title>Node2</title>
<g id="a_Node000002"><a xlink:title=" ">
<polygon fill="#e0e0e0" stroke="#999999" points="209.15,-184 153.15,-184 153.15,-165 209.15,-165 209.15,-184"/>
<text text-anchor="middle" x="181.15" y="-172" font-family="Helvetica,sans-Serif" font-size="10.00">optional</text>
</a>
</g>
</g>
<!-- Node1&#45;&gt;Node2 -->
<g id="edge1_Node000001_Node000002" class="edge">
<title>Node1&#45;&gt;Node2</title>
<g id="a_edge1_Node000001_Node000002"><a xlink:title=" ">
<path fill="none" stroke="#63b8ff" d="M100.35,-274.66C115.06,-256.61 148.74,-215.28 167.65,-192.08"/>
<polygon fill="#63b8ff" stroke="#63b8ff" points="170.49,-194.12 174.1,-184.16 165.07,-189.7 170.49,-194.12"/>
</a>
</g>
</g>
<!-- Node3 -->
<g id="Node000003" class="node">
<title>Node3</title>
<g id="a_Node000003"><a xlink:title=" ">
<polygon fill="#e0e0e0" stroke="#999999" points="65.15,-239 21.15,-239 21.15,-220 65.15,-220 65.15,-239"/>
<text text-anchor="middle" x="43.15" y="-227" font-family="Helvetica,sans-Serif" font-size="10.00">string</text>
</a>
</g>
</g>
<!-- Node1&#45;&gt;Node3 -->
<g id="edge2_Node000001_Node000003" class="edge">
<title>Node1&#45;&gt;Node3</title>
<g id="a_edge2_Node000001_Node000003"><a xlink:title=" ">
<path fill="none" stroke="#63b8ff" d="M84.9,-274.75C77.69,-267.11 67.04,-255.82 58.31,-246.56"/>
<polygon fill="#63b8ff" stroke="#63b8ff" points="60.66,-243.96 51.26,-239.09 55.57,-248.76 60.66,-243.96"/>
</a>
</g>
</g>
<!-- Node4 -->
<g id="Node000004" class="node">
<title>Node4</title>
<g id="a_Node000004"><a xlink:href="Vec2_8h.html" target="_top" xlink:title="Simple representation of a 2D Vector.">
<polygon fill="white" stroke="#666666" points="121.15,-129 35.15,-129 35.15,-110 121.15,-110 121.15,-129"/>
<text text-anchor="middle" x="78.15" y="-117" font-family="Helvetica,sans-Serif" font-size="10.00">../math/Vec2.h</text>
</a>
</g>
</g>
<!-- Node1&#45;&gt;Node4 -->
<g id="edge3_Node000001_Node000004" class="edge">
<title>Node1&#45;&gt;Node4</title>
<g id="a_edge3_Node000001_Node000004"><a xlink:title=" ">
<path fill="none" stroke="#63b8ff" d="M61.73,-274.97C43.81,-268.32 22.85,-257.09 12.15,-239 -4.59,-210.69 -3.29,-194.04 12.15,-165 19.46,-151.25 33.12,-140.99 46.12,-133.8"/>
<polygon fill="#63b8ff" stroke="#63b8ff" points="48.04,-136.75 55.38,-129.11 44.87,-130.51 48.04,-136.75"/>
</a>
</g>
</g>
<!-- Node6 -->
<g id="Node000006" class="node">
<title>Node6</title>
<g id="a_Node000006"><a xlink:href="BrickConfig_8h.html" target="_top" xlink:title="Defines optional ECS component configuration for a single brick entity.">
<polygon fill="white" stroke="#666666" points="240.65,-239 159.65,-239 159.65,-220 240.65,-220 240.65,-239"/>
<text text-anchor="middle" x="200.15" y="-227" font-family="Helvetica,sans-Serif" font-size="10.00">BrickConfig.h</text>
</a>
</g>
</g>
<!-- Node1&#45;&gt;Node6 -->
<g id="edge5_Node000001_Node000006" class="edge">
<title>Node1&#45;&gt;Node6</title>
<g id="a_edge5_Node000001_Node000006"><a xlink:title=" ">
<path fill="none" stroke="#63b8ff" d="M110.34,-274.98C127.4,-266.54 153.78,-253.47 173.55,-243.68"/>
<polygon fill="#63b8ff" stroke="#63b8ff" points="175.24,-246.75 182.65,-239.17 172.13,-240.47 175.24,-246.75"/>
</a>
</g>
</g>
<!-- Node15 -->
<g id="Node000015" class="node">
<title>Node15</title>
<g id="a_Node000015"><a xlink:href="BrickLayoutConfig_8h.html" target="_top" xlink:title="Describes global layout properties for brick grids in a level.">
<polygon fill="white" stroke="#666666" points="135.15,-184 21.15,-184 21.15,-165 135.15,-165 135.15,-184"/>
<text text-anchor="middle" x="78.15" y="-172" font-family="Helvetica,sans-Serif" font-size="10.00">BrickLayoutConfig.h</text>
</a>
</g>
</g>
<!-- Node1&#45;&gt;Node15 -->
<g id="edge16_Node000001_Node000015" class="edge">
<title>Node1&#45;&gt;Node15</title>
<g id="a_edge16_Node000001_Node000015"><a xlink:title=" ">
<path fill="none" stroke="#63b8ff" d="M91.92,-274.66C89.5,-257.17 84.03,-217.8 80.76,-194.27"/>
<polygon fill="#63b8ff" stroke="#63b8ff" points="84.2,-193.58 79.35,-184.16 77.26,-194.54 84.2,-193.58"/>
</a>
</g>
</g>
<!-- Node5 -->
<g id="Node000005" class="node">
<title>Node5</title>
<g id="a_Node000005"><a xlink:title=" ">
<polygon fill="#e0e0e0" stroke="#999999" points="101.65,-74 54.65,-74 54.65,-55 101.65,-55 101.65,-74"/>
<text text-anchor="middle" x="78.15" y="-62" font-family="Helvetica,sans-Serif" font-size="10.00">cmath</text>
</a>
</g>
</g>
<!-- Node4&#45;&gt;Node5 -->
<g id="edge4_Node000004_Node000005" class="edge">
<title>Node4&#45;&gt;Node5</title>
<g id="a_edge4_Node000004_Node000005"><a xlink:title=" ">
<path fill="none" stroke="#63b8ff" d="M78.15,-109.75C78.15,-102.8 78.15,-92.85 78.15,-84.13"/>
<polygon fill="#63b8ff" stroke="#63b8ff" points="81.65,-84.09 78.15,-74.09 74.65,-84.09 81.65,-84.09"/>
</a>
</g>
</g>
<!-- Node6&#45;&gt;Node2 -->
<g id="edge6_Node000006_Node000002" class="edge">
<title>Node6&#45;&gt;Node2</title>
<g id="a_edge6_Node000006_Node000002"><a xlink:title=" ">
<path fill="none" stroke="#63b8ff" d="M197.01,-219.75C194.47,-212.65 190.8,-202.4 187.63,-193.56"/>
<polygon fill="#63b8ff" stroke="#63b8ff" points="190.9,-192.32 184.23,-184.09 184.31,-194.68 190.9,-192.32"/>
</a>
</g>
</g>
<!-- Node7 -->
<g id="Node000007" class="node">
<title>Node7</title>
<g id="a_Node000007"><a xlink:href="Components_8h.html" target="_top" xlink:title="Defines core gameplay component structures for ECS entities.">
<polygon fill="white" stroke="#666666" points="406.65,-184 227.65,-184 227.65,-165 406.65,-165 406.65,-184"/>
<text text-anchor="middle" x="317.15" y="-172" font-family="Helvetica,sans-Serif" font-size="10.00">../ecs/components/Components.h</text>
</a>
</g>
</g>
<!-- Node6&#45;&gt;Node7 -->
<g id="edge7_Node000006_Node000007" class="edge">
<title>Node6&#45;&gt;Node7</title>
<g id="a_edge7_Node000006_Node000007"><a xlink:title=" ">
<path fill="none" stroke="#63b8ff" d="M218.95,-219.98C237.77,-211.46 266.98,-198.23 288.65,-188.41"/>
<polygon fill="#63b8ff" stroke="#63b8ff" points="290.35,-191.48 298.01,-184.17 287.46,-185.11 290.35,-191.48"/>
</a>
</g>
</g>
<!-- Node7&#45;&gt;Node4 -->
<g id="edge9_Node000007_Node000004" class="edge">
<title>Node7&#45;&gt;Node4</title>
<g id="a_edge9_Node000007_Node000004"><a xlink:title=" ">
<path fill="none" stroke="#63b8ff" d="M278.75,-164.98C237.41,-155.82 171.55,-141.21 126.66,-131.26"/>
<polygon fill="#63b8ff" stroke="#63b8ff" points="127.37,-127.83 116.85,-129.08 125.86,-134.66 127.37,-127.83"/>
</a>
</g>
</g>
<!-- Node8 -->
<g id="Node000008" class="node">
<title>Node8</title>
<g id="a_Node000008"><a xlink:href="Color_8h.html" target="_top" xlink:title="Defines the Color struct used for RGBA color representation and a set of standard colors.">
<polygon fill="white" stroke="#666666" points="316.15,-129 198.15,-129 198.15,-110 316.15,-110 316.15,-129"/>
<text text-anchor="middle" x="257.15" y="-117" font-family="Helvetica,sans-Serif" font-size="10.00">../../rendering/Color.h</text>
</a>
</g>
</g>
<!-- Node7&#45;&gt;Node8 -->
<g id="edge8_Node000007_Node000008" class="edge">
<title>Node7&#45;&gt;Node8</title>
<g id="a_edge8_Node000007_Node000008"><a xlink:title=" ">
<path fill="none" stroke="#63b8ff" d="M307.51,-164.98C298.64,-157.15 285.28,-145.34 274.54,-135.86"/>
<polygon fill="#63b8ff" stroke="#63b8ff" points="276.78,-133.17 266.97,-129.17 272.15,-138.41 276.78,-133.17"/>
</a>
</g>
</g>
<!-- Node9 -->
<g id="Node000009" class="node">
<title>Node9</title>
<g id="a_Node000009"><a xlink:href="Entity_8h.html" target="_top" xlink:title="Simple struct for Entity in the ECS module (includes version)">
<polygon fill="white" stroke="#666666" points="424.15,-129 334.15,-129 334.15,-110 424.15,-110 424.15,-129"/>
<text text-anchor="middle" x="379.15" y="-117" font-family="Helvetica,sans-Serif" font-size="10.00">../../ecs/Entity.h</text>
</a>
</g>
</g>
<!-- Node7&#45;&gt;Node9 -->
<g id="edge10_Node000007_Node000009" class="edge">
<title>Node7&#45;&gt;Node9</title>
<g id="a_edge10_Node000007_Node000009"><a xlink:title=" ">
<path fill="none" stroke="#63b8ff" d="M327.11,-164.98C336.28,-157.15 350.09,-145.34 361.18,-135.86"/>
<polygon fill="#63b8ff" stroke="#63b8ff" points="363.68,-138.33 369.01,-129.17 359.13,-133.01 363.68,-138.33"/>
</a>
</g>
</g>
<!-- Node10 -->
<g id="Node000010" class="node">
<title>Node10</title>
<g id="a_Node000010"><a xlink:title=" ">
<polygon fill="#e0e0e0" stroke="#999999" points="486.15,-74 436.15,-74 436.15,-55 486.15,-55 486.15,-74"/>
<text text-anchor="middle" x="461.15" y="-62" font-family="Helvetica,sans-Serif" font-size="10.00">cstdint</text>
</a>
</g>
</g>
<!-- Node9&#45;&gt;Node10 -->
<g id="edge11_Node000009_Node000010" class="edge">
<title>Node9&#45;&gt;Node10</title>
<g id="a_edge11_Node000009_Node000010"><a xlink:title=" ">
<path fill="none" stroke="#63b8ff" d="M392.33,-109.98C404.92,-101.84 424.16,-89.41 439.09,-79.76"/>
<polygon fill="#63b8ff" stroke="#63b8ff" points="441.24,-82.54 447.74,-74.17 437.44,-76.66 441.24,-82.54"/>
</a>
</g>
</g>
<!-- Node11 -->
<g id="Node000011" class="node">
<title>Node11</title>
<g id="a_Node000011"><a xlink:title=" ">
<polygon fill="#e0e0e0" stroke="#999999" points="322.65,-74 257.65,-74 257.65,-55 322.65,-55 322.65,-74"/>
<text text-anchor="middle" x="290.15" y="-62" font-family="Helvetica,sans-Serif" font-size="10.00">functional</text>
</a>
</g>
</g>
<!-- Node9&#45;&gt;Node11 -->
<g id="edge12_Node000009_Node000011" class="edge">
<title>Node9&#45;&gt;Node11</title>
<g id="a_edge12_Node000009_Node000011"><a xlink:title=" ">
<path fill="none" stroke="#63b8ff" d="M364.85,-109.98C351.05,-101.77 329.91,-89.18 313.64,-79.49"/>
<polygon fill="#63b8ff" stroke="#63b8ff" points="315.09,-76.28 304.71,-74.17 311.51,-82.29 315.09,-76.28"/>
</a>
</g>
</g>
<!-- Node12 -->
<g id="Node000012" class="node">
<title>Node12</title>
<g id="a_Node000012"><a xlink:href="ecs__config_8h.html" target="_top" xlink:title="Configuration constants and type definitions for ECS modules.">
<polygon fill="white" stroke="#666666" points="417.65,-74 340.65,-74 340.65,-55 417.65,-55 417.65,-74"/>
<text text-anchor="middle" x="379.15" y="-62" font-family="Helvetica,sans-Serif" font-size="10.00">ecs_config.h</text>
</a>
</g>
</g>
<!-- Node9&#45;&gt;Node12 -->
<g id="edge13_Node000009_Node000012" class="edge">
<title>Node9&#45;&gt;Node12</title>
<g id="a_edge13_Node000009_Node000012"><a xlink:title=" ">
<path fill="none" stroke="#63b8ff" d="M379.15,-109.75C379.15,-102.8 379.15,-92.85 379.15,-84.13"/>
<polygon fill="#63b8ff" stroke="#63b8ff" points="382.65,-84.09 379.15,-74.09 375.65,-84.09 382.65,-84.09"/>
</a>
</g>
</g>
<!-- Node13 -->
<g id="Node000013" class="node">
<title>Node13</title>
<g id="a_Node000013"><a xlink:title=" ">
<polygon fill="#e0e0e0" stroke="#999999" points="367.15,-19 323.15,-19 323.15,0 367.15,0 367.15,-19"/>
<text text-anchor="middle" x="345.15" y="-7" font-family="Helvetica,sans-Serif" font-size="10.00">bitset</text>
</a>
</g>
</g>
<!-- Node12&#45;&gt;Node13 -->
<g id="edge14_Node000012_Node000013" class="edge">
<title>Node12&#45;&gt;Node13</title>
<g id="a_edge14_Node000012_Node000013"><a xlink:title=" ">
<path fill="none" stroke="#63b8ff" d="M373.54,-54.75C368.83,-47.42 361.98,-36.73 356.18,-27.7"/>
<polygon fill="#63b8ff" stroke="#63b8ff" points="359.01,-25.62 350.66,-19.09 353.12,-29.4 359.01,-25.62"/>
</a>
</g>
</g>
<!-- Node14 -->
<g id="Node000014" class="node">
<title>Node14</title>
<g id="a_Node000014"><a xlink:title=" ">
<polygon fill="#e0e0e0" stroke="#999999" points="438.65,-19 385.65,-19 385.65,0 438.65,0 438.65,-19"/>
<text text-anchor="middle" x="412.15" y="-7" font-family="Helvetica,sans-Serif" font-size="10.00">cstddef</text>
</a>
</g>
</g>
<!-- Node12&#45;&gt;Node14 -->
<g id="edge15_Node000012_Node000014" class="edge">
<title>Node12&#45;&gt;Node14</title>
<g id="a_edge15_Node000012_Node000014"><a xlink:title=" ">
<path fill="none" stroke="#63b8ff" d="M384.6,-54.75C389.17,-47.42 395.82,-36.73 401.45,-27.7"/>
<polygon fill="#63b8ff" stroke="#63b8ff" points="404.49,-29.43 406.8,-19.09 398.55,-25.73 404.49,-29.43"/>
</a>
</g>
</g>
<!-- Node15&#45;&gt;Node4 -->
<g id="edge17_Node000015_Node000004" class="edge">
<title>Node15&#45;&gt;Node4</title>
<g id="a_edge17_Node000015_Node000004"><a xlink:title=" ">
<path fill="none" stroke="#63b8ff" d="M78.15,-164.75C78.15,-157.8 78.15,-147.85 78.15,-139.13"/>
<polygon fill="#63b8ff" stroke="#63b8ff" points="81.65,-139.09 78.15,-129.09 74.65,-139.09 81.65,-139.09"/>
</a>
</g>
</g>
</g>
</svg>
