<?xml version="1.0" encoding="UTF-8" standalone="no"?>
<!DOCTYPE svg PUBLIC "-//W3C//DTD SVG 1.1//EN"
 "http://www.w3.org/Graphics/SVG/1.1/DTD/svg11.dtd">
<!-- Generated by graphviz version 2.43.0 (0)
 -->
<!-- Title: LivesSystem.h Pages: 1 -->
<svg width="590pt" height="412pt"
 viewBox="0.00 0.00 590.00 412.00" xmlns="http://www.w3.org/2000/svg" xmlns:xlink="http://www.w3.org/1999/xlink">
<g id="graph0" class="graph" transform="scale(1 1) rotate(0) translate(4 408)">
<title>LivesSystem.h</title>
<!-- Node1 -->
<g id="Node000001" class="node">
<title>Node1</title>
<g id="a_Node000001"><a xlink:title="Tracks ball entity presence to manage player lives and trigger stage transitions.">
<polygon fill="#999999" stroke="#666666" points="174,-404 86,-404 86,-385 174,-385 174,-404"/>
<text text-anchor="middle" x="130" y="-392" font-family="Helvetica,sans-Serif" font-size="10.00">LivesSystem.h</text>
</a>
</g>
</g>
<!-- Node2 -->
<g id="Node000002" class="node">
<title>Node2</title>
<g id="a_Node000002"><a xlink:title=" ">
<polygon fill="#e0e0e0" stroke="#999999" points="75,-349 17,-349 17,-330 75,-330 75,-349"/>
<text text-anchor="middle" x="46" y="-337" font-family="Helvetica,sans-Serif" font-size="10.00">memory</text>
</a>
</g>
</g>
<!-- Node1&#45;&gt;Node2 -->
<g id="edge1_Node000001_Node000002" class="edge">
<title>Node1&#45;&gt;Node2</title>
<g id="a_edge1_Node000001_Node000002"><a xlink:title=" ">
<path fill="none" stroke="#63b8ff" d="M116.5,-384.98C103.6,-376.84 83.9,-364.41 68.6,-354.76"/>
<polygon fill="#63b8ff" stroke="#63b8ff" points="70.07,-351.55 59.74,-349.17 66.33,-357.47 70.07,-351.55"/>
</a>
</g>
</g>
<!-- Node3 -->
<g id="Node000003" class="node">
<title>Node3</title>
<g id="a_Node000003"><a xlink:href="ISystem_8h.html" target="_top" xlink:title="Declares the interface for all game systems in the ECS framework.">
<polygon fill="white" stroke="#666666" points="167,-349 93,-349 93,-330 167,-330 167,-349"/>
<text text-anchor="middle" x="130" y="-337" font-family="Helvetica,sans-Serif" font-size="10.00">../ISystem.h</text>
</a>
</g>
</g>
<!-- Node1&#45;&gt;Node3 -->
<g id="edge2_Node000001_Node000003" class="edge">
<title>Node1&#45;&gt;Node3</title>
<g id="a_edge2_Node000001_Node000003"><a xlink:title=" ">
<path fill="none" stroke="#63b8ff" d="M130,-384.75C130,-377.8 130,-367.85 130,-359.13"/>
<polygon fill="#63b8ff" stroke="#63b8ff" points="133.5,-359.09 130,-349.09 126.5,-359.09 133.5,-359.09"/>
</a>
</g>
</g>
<!-- Node11 -->
<g id="Node000011" class="node">
<title>Node11</title>
<g id="a_Node000011"><a xlink:href="IGameDataManager_8h.html" target="_top" xlink:title="Interface for retrieving game configuration and player state data.">
<polygon fill="white" stroke="#666666" points="412,-349 246,-349 246,-330 412,-330 412,-349"/>
<text text-anchor="middle" x="329" y="-337" font-family="Helvetica,sans-Serif" font-size="10.00">../../data/IGameDataManager.h</text>
</a>
</g>
</g>
<!-- Node1&#45;&gt;Node11 -->
<g id="edge10_Node000001_Node000011" class="edge">
<title>Node1&#45;&gt;Node11</title>
<g id="a_edge10_Node000001_Node000011"><a xlink:title=" ">
<path fill="none" stroke="#63b8ff" d="M161.97,-384.98C195.82,-375.97 249.4,-361.7 286.71,-351.76"/>
<polygon fill="#63b8ff" stroke="#63b8ff" points="288.01,-355.04 296.78,-349.08 286.21,-348.27 288.01,-355.04"/>
</a>
</g>
</g>
<!-- Node4 -->
<g id="Node000004" class="node">
<title>Node4</title>
<g id="a_Node000004"><a xlink:title=" ">
<polygon fill="#e0e0e0" stroke="#999999" points="102,-294 16,-294 16,-275 102,-275 102,-294"/>
<text text-anchor="middle" x="59" y="-282" font-family="Helvetica,sans-Serif" font-size="10.00">unordered_set</text>
</a>
</g>
</g>
<!-- Node3&#45;&gt;Node4 -->
<g id="edge3_Node000003_Node000004" class="edge">
<title>Node3&#45;&gt;Node4</title>
<g id="a_edge3_Node000003_Node000004"><a xlink:title=" ">
<path fill="none" stroke="#63b8ff" d="M118.59,-329.98C107.89,-322 91.66,-309.88 78.84,-300.31"/>
<polygon fill="#63b8ff" stroke="#63b8ff" points="80.72,-297.35 70.61,-294.17 76.53,-302.96 80.72,-297.35"/>
</a>
</g>
</g>
<!-- Node5 -->
<g id="Node000005" class="node">
<title>Node5</title>
<g id="a_Node000005"><a xlink:href="Entity_8h.html" target="_top" xlink:title="Simple struct for Entity in the ECS module (includes version)">
<polygon fill="white" stroke="#666666" points="163.5,-129 110.5,-129 110.5,-110 163.5,-110 163.5,-129"/>
<text text-anchor="middle" x="137" y="-117" font-family="Helvetica,sans-Serif" font-size="10.00">Entity.h</text>
</a>
</g>
</g>
<!-- Node3&#45;&gt;Node5 -->
<g id="edge4_Node000003_Node000005" class="edge">
<title>Node3&#45;&gt;Node5</title>
<g id="a_edge4_Node000003_Node000005"><a xlink:title=" ">
<path fill="none" stroke="#63b8ff" d="M130.27,-329.95C131.3,-297.95 134.94,-184.68 136.39,-139.4"/>
<polygon fill="#63b8ff" stroke="#63b8ff" points="139.9,-139.33 136.72,-129.22 132.9,-139.11 139.9,-139.33"/>
</a>
</g>
</g>
<!-- Node6 -->
<g id="Node000006" class="node">
<title>Node6</title>
<g id="a_Node000006"><a xlink:title=" ">
<polygon fill="#e0e0e0" stroke="#999999" points="162,-74 112,-74 112,-55 162,-55 162,-74"/>
<text text-anchor="middle" x="137" y="-62" font-family="Helvetica,sans-Serif" font-size="10.00">cstdint</text>
</a>
</g>
</g>
<!-- Node5&#45;&gt;Node6 -->
<g id="edge5_Node000005_Node000006" class="edge">
<title>Node5&#45;&gt;Node6</title>
<g id="a_edge5_Node000005_Node000006"><a xlink:title=" ">
<path fill="none" stroke="#63b8ff" d="M137,-109.75C137,-102.8 137,-92.85 137,-84.13"/>
<polygon fill="#63b8ff" stroke="#63b8ff" points="140.5,-84.09 137,-74.09 133.5,-84.09 140.5,-84.09"/>
</a>
</g>
</g>
<!-- Node7 -->
<g id="Node000007" class="node">
<title>Node7</title>
<g id="a_Node000007"><a xlink:title=" ">
<polygon fill="#e0e0e0" stroke="#999999" points="245.5,-74 180.5,-74 180.5,-55 245.5,-55 245.5,-74"/>
<text text-anchor="middle" x="213" y="-62" font-family="Helvetica,sans-Serif" font-size="10.00">functional</text>
</a>
</g>
</g>
<!-- Node5&#45;&gt;Node7 -->
<g id="edge6_Node000005_Node000007" class="edge">
<title>Node5&#45;&gt;Node7</title>
<g id="a_edge6_Node000005_Node000007"><a xlink:title=" ">
<path fill="none" stroke="#63b8ff" d="M149.21,-109.98C160.78,-101.92 178.38,-89.65 192.16,-80.03"/>
<polygon fill="#63b8ff" stroke="#63b8ff" points="194.37,-82.76 200.57,-74.17 190.36,-77.02 194.37,-82.76"/>
</a>
</g>
</g>
<!-- Node8 -->
<g id="Node000008" class="node">
<title>Node8</title>
<g id="a_Node000008"><a xlink:href="ecs__config_8h.html" target="_top" xlink:title="Configuration constants and type definitions for ECS modules.">
<polygon fill="white" stroke="#666666" points="93.5,-74 16.5,-74 16.5,-55 93.5,-55 93.5,-74"/>
<text text-anchor="middle" x="55" y="-62" font-family="Helvetica,sans-Serif" font-size="10.00">ecs_config.h</text>
</a>
</g>
</g>
<!-- Node5&#45;&gt;Node8 -->
<g id="edge7_Node000005_Node000008" class="edge">
<title>Node5&#45;&gt;Node8</title>
<g id="a_edge7_Node000005_Node000008"><a xlink:title=" ">
<path fill="none" stroke="#63b8ff" d="M123.83,-109.98C111.23,-101.84 92,-89.41 77.06,-79.76"/>
<polygon fill="#63b8ff" stroke="#63b8ff" points="78.71,-76.66 68.41,-74.17 74.91,-82.54 78.71,-76.66"/>
</a>
</g>
</g>
<!-- Node9 -->
<g id="Node000009" class="node">
<title>Node9</title>
<g id="a_Node000009"><a xlink:title=" ">
<polygon fill="#e0e0e0" stroke="#999999" points="44,-19 0,-19 0,0 44,0 44,-19"/>
<text text-anchor="middle" x="22" y="-7" font-family="Helvetica,sans-Serif" font-size="10.00">bitset</text>
</a>
</g>
</g>
<!-- Node8&#45;&gt;Node9 -->
<g id="edge8_Node000008_Node000009" class="edge">
<title>Node8&#45;&gt;Node9</title>
<g id="a_edge8_Node000008_Node000009"><a xlink:title=" ">
<path fill="none" stroke="#63b8ff" d="M49.55,-54.75C44.99,-47.42 38.33,-36.73 32.71,-27.7"/>
<polygon fill="#63b8ff" stroke="#63b8ff" points="35.6,-25.73 27.35,-19.09 29.66,-29.43 35.6,-25.73"/>
</a>
</g>
</g>
<!-- Node10 -->
<g id="Node000010" class="node">
<title>Node10</title>
<g id="a_Node000010"><a xlink:title=" ">
<polygon fill="#e0e0e0" stroke="#999999" points="115.5,-19 62.5,-19 62.5,0 115.5,0 115.5,-19"/>
<text text-anchor="middle" x="89" y="-7" font-family="Helvetica,sans-Serif" font-size="10.00">cstddef</text>
</a>
</g>
</g>
<!-- Node8&#45;&gt;Node10 -->
<g id="edge9_Node000008_Node000010" class="edge">
<title>Node8&#45;&gt;Node10</title>
<g id="a_edge9_Node000008_Node000010"><a xlink:title=" ">
<path fill="none" stroke="#63b8ff" d="M60.61,-54.75C65.32,-47.42 72.17,-36.73 77.97,-27.7"/>
<polygon fill="#63b8ff" stroke="#63b8ff" points="81.04,-29.4 83.49,-19.09 75.14,-25.62 81.04,-29.4"/>
</a>
</g>
</g>
<!-- Node12 -->
<g id="Node000012" class="node">
<title>Node12</title>
<g id="a_Node000012"><a xlink:href="LevelData_8h.html" target="_top" xlink:title="Contains data structures for level configuration and arena layout.">
<polygon fill="white" stroke="#666666" points="402.5,-294 327.5,-294 327.5,-275 402.5,-275 402.5,-294"/>
<text text-anchor="middle" x="365" y="-282" font-family="Helvetica,sans-Serif" font-size="10.00">LevelData.h</text>
</a>
</g>
</g>
<!-- Node11&#45;&gt;Node12 -->
<g id="edge11_Node000011_Node000012" class="edge">
<title>Node11&#45;&gt;Node12</title>
<g id="a_edge11_Node000011_Node000012"><a xlink:title=" ">
<path fill="none" stroke="#63b8ff" d="M334.94,-329.75C339.98,-322.34 347.34,-311.5 353.51,-302.41"/>
<polygon fill="#63b8ff" stroke="#63b8ff" points="356.44,-304.33 359.17,-294.09 350.65,-300.39 356.44,-304.33"/>
</a>
</g>
</g>
<!-- Node13 -->
<g id="Node000013" class="node">
<title>Node13</title>
<g id="a_Node000013"><a xlink:title=" ">
<polygon fill="#e0e0e0" stroke="#999999" points="412,-184 356,-184 356,-165 412,-165 412,-184"/>
<text text-anchor="middle" x="384" y="-172" font-family="Helvetica,sans-Serif" font-size="10.00">optional</text>
</a>
</g>
</g>
<!-- Node12&#45;&gt;Node13 -->
<g id="edge12_Node000012_Node000013" class="edge">
<title>Node12&#45;&gt;Node13</title>
<g id="a_edge12_Node000012_Node000013"><a xlink:title=" ">
<path fill="none" stroke="#63b8ff" d="M362.28,-274.72C358.86,-262.32 354.01,-239.07 359,-220 361.55,-210.26 366.75,-200.41 371.76,-192.46"/>
<polygon fill="#63b8ff" stroke="#63b8ff" points="374.69,-194.37 377.37,-184.12 368.89,-190.46 374.69,-194.37"/>
</a>
</g>
</g>
<!-- Node14 -->
<g id="Node000014" class="node">
<title>Node14</title>
<g id="a_Node000014"><a xlink:title=" ">
<polygon fill="#e0e0e0" stroke="#999999" points="412,-239 368,-239 368,-220 412,-220 412,-239"/>
<text text-anchor="middle" x="390" y="-227" font-family="Helvetica,sans-Serif" font-size="10.00">string</text>
</a>
</g>
</g>
<!-- Node12&#45;&gt;Node14 -->
<g id="edge13_Node000012_Node000014" class="edge">
<title>Node12&#45;&gt;Node14</title>
<g id="a_edge13_Node000012_Node000014"><a xlink:title=" ">
<path fill="none" stroke="#63b8ff" d="M369.13,-274.75C372.51,-267.57 377.42,-257.18 381.62,-248.27"/>
<polygon fill="#63b8ff" stroke="#63b8ff" points="384.85,-249.63 385.95,-239.09 378.52,-246.64 384.85,-249.63"/>
</a>
</g>
</g>
<!-- Node15 -->
<g id="Node000015" class="node">
<title>Node15</title>
<g id="a_Node000015"><a xlink:href="Vec2_8h.html" target="_top" xlink:title="Simple representation of a 2D Vector.">
<polygon fill="white" stroke="#666666" points="483,-129 397,-129 397,-110 483,-110 483,-129"/>
<text text-anchor="middle" x="440" y="-117" font-family="Helvetica,sans-Serif" font-size="10.00">../math/Vec2.h</text>
</a>
</g>
</g>
<!-- Node12&#45;&gt;Node15 -->
<g id="edge14_Node000012_Node000015" class="edge">
<title>Node12&#45;&gt;Node15</title>
<g id="a_edge14_Node000012_Node000015"><a xlink:title=" ">
<path fill="none" stroke="#63b8ff" d="M381.54,-274.89C394.46,-267.26 411.72,-254.87 421,-239 439.34,-207.64 441.51,-164.02 441.03,-139.39"/>
<polygon fill="#63b8ff" stroke="#63b8ff" points="444.52,-139.11 440.66,-129.24 437.53,-139.37 444.52,-139.11"/>
</a>
</g>
</g>
<!-- Node17 -->
<g id="Node000017" class="node">
<title>Node17</title>
<g id="a_Node000017"><a xlink:href="BrickConfig_8h.html" target="_top" xlink:title="Defines optional ECS component configuration for a single brick entity.">
<polygon fill="white" stroke="#666666" points="311.5,-239 230.5,-239 230.5,-220 311.5,-220 311.5,-239"/>
<text text-anchor="middle" x="271" y="-227" font-family="Helvetica,sans-Serif" font-size="10.00">BrickConfig.h</text>
</a>
</g>
</g>
<!-- Node12&#45;&gt;Node17 -->
<g id="edge16_Node000012_Node000017" class="edge">
<title>Node12&#45;&gt;Node17</title>
<g id="a_edge16_Node000012_Node000017"><a xlink:title=" ">
<path fill="none" stroke="#63b8ff" d="M349.9,-274.98C335.18,-266.69 312.58,-253.94 295.33,-244.22"/>
<polygon fill="#63b8ff" stroke="#63b8ff" points="296.81,-241.03 286.38,-239.17 293.37,-247.13 296.81,-241.03"/>
</a>
</g>
</g>
<!-- Node20 -->
<g id="Node000020" class="node">
<title>Node20</title>
<g id="a_Node000020"><a xlink:href="BrickLayoutConfig_8h.html" target="_top" xlink:title="Describes global layout properties for brick grids in a level.">
<polygon fill="white" stroke="#666666" points="582,-184 468,-184 468,-165 582,-165 582,-184"/>
<text text-anchor="middle" x="525" y="-172" font-family="Helvetica,sans-Serif" font-size="10.00">BrickLayoutConfig.h</text>
</a>
</g>
</g>
<!-- Node12&#45;&gt;Node20 -->
<g id="edge22_Node000012_Node000020" class="edge">
<title>Node12&#45;&gt;Node20</title>
<g id="a_edge22_Node000012_Node000020"><a xlink:title=" ">
<path fill="none" stroke="#63b8ff" d="M386.01,-274.9C404.62,-266.85 432.14,-253.85 454,-239 474.81,-224.86 495.96,-205.1 509.7,-191.39"/>
<polygon fill="#63b8ff" stroke="#63b8ff" points="512.35,-193.69 516.87,-184.11 507.36,-188.78 512.35,-193.69"/>
</a>
</g>
</g>
<!-- Node16 -->
<g id="Node000016" class="node">
<title>Node16</title>
<g id="a_Node000016"><a xlink:title=" ">
<polygon fill="#e0e0e0" stroke="#999999" points="463.5,-74 416.5,-74 416.5,-55 463.5,-55 463.5,-74"/>
<text text-anchor="middle" x="440" y="-62" font-family="Helvetica,sans-Serif" font-size="10.00">cmath</text>
</a>
</g>
</g>
<!-- Node15&#45;&gt;Node16 -->
<g id="edge15_Node000015_Node000016" class="edge">
<title>Node15&#45;&gt;Node16</title>
<g id="a_edge15_Node000015_Node000016"><a xlink:title=" ">
<path fill="none" stroke="#63b8ff" d="M440,-109.75C440,-102.8 440,-92.85 440,-84.13"/>
<polygon fill="#63b8ff" stroke="#63b8ff" points="443.5,-84.09 440,-74.09 436.5,-84.09 443.5,-84.09"/>
</a>
</g>
</g>
<!-- Node17&#45;&gt;Node13 -->
<g id="edge17_Node000017_Node000013" class="edge">
<title>Node17&#45;&gt;Node13</title>
<g id="a_edge17_Node000017_Node000013"><a xlink:title=" ">
<path fill="none" stroke="#63b8ff" d="M289.16,-219.98C307.25,-211.5 335.28,-198.35 356.19,-188.54"/>
<polygon fill="#63b8ff" stroke="#63b8ff" points="357.95,-191.59 365.51,-184.17 354.97,-185.25 357.95,-191.59"/>
</a>
</g>
</g>
<!-- Node18 -->
<g id="Node000018" class="node">
<title>Node18</title>
<g id="a_Node000018"><a xlink:href="Components_8h.html" target="_top" xlink:title="Defines core gameplay component structures for ECS entities.">
<polygon fill="white" stroke="#666666" points="337.5,-184 158.5,-184 158.5,-165 337.5,-165 337.5,-184"/>
<text text-anchor="middle" x="248" y="-172" font-family="Helvetica,sans-Serif" font-size="10.00">../ecs/components/Components.h</text>
</a>
</g>
</g>
<!-- Node17&#45;&gt;Node18 -->
<g id="edge18_Node000017_Node000018" class="edge">
<title>Node17&#45;&gt;Node18</title>
<g id="a_edge18_Node000017_Node000018"><a xlink:title=" ">
<path fill="none" stroke="#63b8ff" d="M267.2,-219.75C264.09,-212.57 259.58,-202.18 255.71,-193.27"/>
<polygon fill="#63b8ff" stroke="#63b8ff" points="258.92,-191.87 251.73,-184.09 252.5,-194.66 258.92,-191.87"/>
</a>
</g>
</g>
<!-- Node18&#45;&gt;Node5 -->
<g id="edge21_Node000018_Node000005" class="edge">
<title>Node18&#45;&gt;Node5</title>
<g id="a_edge21_Node000018_Node000005"><a xlink:title=" ">
<path fill="none" stroke="#63b8ff" d="M230.17,-164.98C212.39,-156.5 184.85,-143.35 164.32,-133.54"/>
<polygon fill="#63b8ff" stroke="#63b8ff" points="165.69,-130.32 155.16,-129.17 162.67,-136.64 165.69,-130.32"/>
</a>
</g>
</g>
<!-- Node18&#45;&gt;Node15 -->
<g id="edge20_Node000018_Node000015" class="edge">
<title>Node18&#45;&gt;Node15</title>
<g id="a_edge20_Node000018_Node000015"><a xlink:title=" ">
<path fill="none" stroke="#63b8ff" d="M278.85,-164.98C311.5,-155.97 363.2,-141.7 399.2,-131.76"/>
<polygon fill="#63b8ff" stroke="#63b8ff" points="400.2,-135.12 408.91,-129.08 398.34,-128.37 400.2,-135.12"/>
</a>
</g>
</g>
<!-- Node19 -->
<g id="Node000019" class="node">
<title>Node19</title>
<g id="a_Node000019"><a xlink:href="Color_8h.html" target="_top" xlink:title="Defines the Color struct used for RGBA color representation and a set of standard colors.">
<polygon fill="white" stroke="#666666" points="307,-129 189,-129 189,-110 307,-110 307,-129"/>
<text text-anchor="middle" x="248" y="-117" font-family="Helvetica,sans-Serif" font-size="10.00">../../rendering/Color.h</text>
</a>
</g>
</g>
<!-- Node18&#45;&gt;Node19 -->
<g id="edge19_Node000018_Node000019" class="edge">
<title>Node18&#45;&gt;Node19</title>
<g id="a_edge19_Node000018_Node000019"><a xlink:title=" ">
<path fill="none" stroke="#63b8ff" d="M248,-164.75C248,-157.8 248,-147.85 248,-139.13"/>
<polygon fill="#63b8ff" stroke="#63b8ff" points="251.5,-139.09 248,-129.09 244.5,-139.09 251.5,-139.09"/>
</a>
</g>
</g>
<!-- Node20&#45;&gt;Node15 -->
<g id="edge23_Node000020_Node000015" class="edge">
<title>Node20&#45;&gt;Node15</title>
<g id="a_edge23_Node000020_Node000015"><a xlink:title=" ">
<path fill="none" stroke="#63b8ff" d="M511.34,-164.98C498.16,-156.77 477.97,-144.18 462.43,-134.49"/>
<polygon fill="#63b8ff" stroke="#63b8ff" points="464.24,-131.49 453.91,-129.17 460.54,-137.43 464.24,-131.49"/>
</a>
</g>
</g>
</g>
</svg>
