<?xml version="1.0" encoding="UTF-8" standalone="no"?>
<!DOCTYPE svg PUBLIC "-//W3C//DTD SVG 1.1//EN"
 "http://www.w3.org/Graphics/SVG/1.1/DTD/svg11.dtd">
<!-- Generated by graphviz version 2.43.0 (0)
 -->
<!-- Title: Logger.cpp Pages: 1 -->
<svg width="255pt" height="269pt"
 viewBox="0.00 0.00 255.00 269.00" xmlns="http://www.w3.org/2000/svg" xmlns:xlink="http://www.w3.org/1999/xlink">
<g id="graph0" class="graph" transform="scale(1 1) rotate(0) translate(4 265)">
<title>Logger.cpp</title>
<!-- Node1 -->
<g id="Node000001" class="node">
<title>Node1</title>
<g id="a_Node000001"><a xlink:title=" ">
<polygon fill="#999999" stroke="#666666" points="153.5,-261 84.5,-261 84.5,-242 153.5,-242 153.5,-261"/>
<text text-anchor="middle" x="119" y="-249" font-family="Helvetica,sans-Serif" font-size="10.00">Logger.cpp</text>
</a>
</g>
</g>
<!-- Node2 -->
<g id="Node000002" class="node">
<title>Node2</title>
<g id="a_Node000002"><a xlink:href="Logger_8h.html" target="_top" xlink:title="Central static logging interface for the application.">
<polygon fill="white" stroke="#666666" points="131,-140 27,-140 27,-110 131,-110 131,-140"/>
<text text-anchor="start" x="35" y="-128" font-family="Helvetica,sans-Serif" font-size="10.00">../../include/logger</text>
<text text-anchor="middle" x="79" y="-117" font-family="Helvetica,sans-Serif" font-size="10.00">/Logger.h</text>
</a>
</g>
</g>
<!-- Node1&#45;&gt;Node2 -->
<g id="edge1_Node000001_Node000002" class="edge">
<title>Node1&#45;&gt;Node2</title>
<g id="a_edge1_Node000001_Node000002"><a xlink:title=" ">
<path fill="none" stroke="#63b8ff" d="M113.42,-241.99C107.95,-233.29 99.76,-219.21 95,-206 88.48,-187.92 84.38,-166.53 81.96,-150.42"/>
<polygon fill="#63b8ff" stroke="#63b8ff" points="85.39,-149.64 80.55,-140.22 78.45,-150.6 85.39,-149.64"/>
</a>
</g>
</g>
<!-- Node6 -->
<g id="Node000006" class="node">
<title>Node6</title>
<g id="a_Node000006"><a xlink:href="ConsoleSink_8h.html" target="_top" xlink:title="Concrete implementation of ISink that logs to the console.">
<polygon fill="white" stroke="#666666" points="221.5,-206 104.5,-206 104.5,-176 221.5,-176 221.5,-206"/>
<text text-anchor="start" x="112.5" y="-194" font-family="Helvetica,sans-Serif" font-size="10.00">../../include/logger</text>
<text text-anchor="middle" x="163" y="-183" font-family="Helvetica,sans-Serif" font-size="10.00">/sinks/ConsoleSink.h</text>
</a>
</g>
</g>
<!-- Node1&#45;&gt;Node6 -->
<g id="edge6_Node000001_Node000006" class="edge">
<title>Node1&#45;&gt;Node6</title>
<g id="a_edge6_Node000001_Node000006"><a xlink:title=" ">
<path fill="none" stroke="#63b8ff" d="M125.49,-241.87C130.97,-234.59 139.04,-223.85 146.3,-214.2"/>
<polygon fill="#63b8ff" stroke="#63b8ff" points="149.17,-216.21 152.38,-206.11 143.58,-212 149.17,-216.21"/>
</a>
</g>
</g>
<!-- Node3 -->
<g id="Node000003" class="node">
<title>Node3</title>
<g id="a_Node000003"><a xlink:title=" ">
<polygon fill="#e0e0e0" stroke="#999999" points="58,-74 0,-74 0,-55 58,-55 58,-74"/>
<text text-anchor="middle" x="29" y="-62" font-family="Helvetica,sans-Serif" font-size="10.00">memory</text>
</a>
</g>
</g>
<!-- Node2&#45;&gt;Node3 -->
<g id="edge2_Node000002_Node000003" class="edge">
<title>Node2&#45;&gt;Node3</title>
<g id="a_edge2_Node000002_Node000003"><a xlink:title=" ">
<path fill="none" stroke="#63b8ff" d="M66.9,-109.84C59.71,-101.43 50.57,-90.74 43.07,-81.96"/>
<polygon fill="#63b8ff" stroke="#63b8ff" points="45.65,-79.59 36.49,-74.27 40.33,-84.14 45.65,-79.59"/>
</a>
</g>
</g>
<!-- Node4 -->
<g id="Node000004" class="node">
<title>Node4</title>
<g id="a_Node000004"><a xlink:title=" ">
<polygon fill="#e0e0e0" stroke="#999999" points="155.5,-19 82.5,-19 82.5,0 155.5,0 155.5,-19"/>
<text text-anchor="middle" x="119" y="-7" font-family="Helvetica,sans-Serif" font-size="10.00">string_view</text>
</a>
</g>
</g>
<!-- Node2&#45;&gt;Node4 -->
<g id="edge3_Node000002_Node000004" class="edge">
<title>Node2&#45;&gt;Node4</title>
<g id="a_edge3_Node000002_Node000004"><a xlink:title=" ">
<path fill="none" stroke="#63b8ff" d="M84.07,-109.63C91.29,-89.12 104.56,-51.47 112.5,-28.93"/>
<polygon fill="#63b8ff" stroke="#63b8ff" points="115.9,-29.82 115.92,-19.23 109.3,-27.5 115.9,-29.82"/>
</a>
</g>
</g>
<!-- Node5 -->
<g id="Node000005" class="node">
<title>Node5</title>
<g id="a_Node000005"><a xlink:href="ISink_8h.html" target="_top" xlink:title="Declares the logging sink interface.">
<polygon fill="white" stroke="#666666" points="192,-74 114,-74 114,-55 192,-55 192,-74"/>
<text text-anchor="middle" x="153" y="-62" font-family="Helvetica,sans-Serif" font-size="10.00">sinks/ISink.h</text>
</a>
</g>
</g>
<!-- Node2&#45;&gt;Node5 -->
<g id="edge4_Node000002_Node000005" class="edge">
<title>Node2&#45;&gt;Node5</title>
<g id="a_edge4_Node000002_Node000005"><a xlink:title=" ">
<path fill="none" stroke="#63b8ff" d="M96.91,-109.84C108.09,-101 122.48,-89.63 133.88,-80.62"/>
<polygon fill="#63b8ff" stroke="#63b8ff" points="136.24,-83.21 141.91,-74.27 131.9,-77.72 136.24,-83.21"/>
</a>
</g>
</g>
<!-- Node5&#45;&gt;Node4 -->
<g id="edge5_Node000005_Node000004" class="edge">
<title>Node5&#45;&gt;Node4</title>
<g id="a_edge5_Node000005_Node000004"><a xlink:title=" ">
<path fill="none" stroke="#63b8ff" d="M147.39,-54.75C142.68,-47.42 135.83,-36.73 130.03,-27.7"/>
<polygon fill="#63b8ff" stroke="#63b8ff" points="132.86,-25.62 124.51,-19.09 126.96,-29.4 132.86,-25.62"/>
</a>
</g>
</g>
<!-- Node6&#45;&gt;Node2 -->
<g id="edge8_Node000006_Node000002" class="edge">
<title>Node6&#45;&gt;Node2</title>
<g id="a_edge8_Node000006_Node000002"><a xlink:title=" ">
<path fill="none" stroke="#63b8ff" d="M144.36,-175.8C133.05,-167.18 118.42,-156.04 105.88,-146.48"/>
<polygon fill="#63b8ff" stroke="#63b8ff" points="107.67,-143.44 97.59,-140.16 103.42,-149.01 107.67,-143.44"/>
</a>
</g>
</g>
<!-- Node6&#45;&gt;Node5 -->
<g id="edge9_Node000006_Node000005" class="edge">
<title>Node6&#45;&gt;Node5</title>
<g id="a_edge9_Node000006_Node000005"><a xlink:title=" ">
<path fill="none" stroke="#63b8ff" d="M161.85,-175.72C160.04,-153.12 156.5,-109.12 154.49,-84.09"/>
<polygon fill="#63b8ff" stroke="#63b8ff" points="157.98,-83.76 153.69,-74.07 151,-84.32 157.98,-83.76"/>
</a>
</g>
</g>
<!-- Node7 -->
<g id="Node000007" class="node">
<title>Node7</title>
<g id="a_Node000007"><a xlink:title=" ">
<polygon fill="#e0e0e0" stroke="#999999" points="247,-134.5 187,-134.5 187,-115.5 247,-115.5 247,-134.5"/>
<text text-anchor="middle" x="217" y="-122.5" font-family="Helvetica,sans-Serif" font-size="10.00">iostream</text>
</a>
</g>
</g>
<!-- Node6&#45;&gt;Node7 -->
<g id="edge7_Node000006_Node000007" class="edge">
<title>Node6&#45;&gt;Node7</title>
<g id="a_edge7_Node000006_Node000007"><a xlink:title=" ">
<path fill="none" stroke="#63b8ff" d="M174.98,-175.8C183.24,-166.01 194.24,-152.98 202.91,-142.7"/>
<polygon fill="#63b8ff" stroke="#63b8ff" points="205.76,-144.74 209.54,-134.84 200.41,-140.23 205.76,-144.74"/>
</a>
</g>
</g>
</g>
</svg>
