<?xml version="1.0" encoding="UTF-8" standalone="no"?>
<!DOCTYPE svg PUBLIC "-//W3C//DTD SVG 1.1//EN"
 "http://www.w3.org/Graphics/SVG/1.1/DTD/svg11.dtd">
<!-- Generated by graphviz version 2.43.0 (0)
 -->
<!-- Title: Logger.h Pages: 1 -->
<svg width="470pt" height="302pt"
 viewBox="0.00 0.00 470.00 302.00" xmlns="http://www.w3.org/2000/svg" xmlns:xlink="http://www.w3.org/1999/xlink">
<g id="graph0" class="graph" transform="scale(1 1) rotate(0) translate(4 298)">
<title>Logger.h</title>
<!-- Node1 -->
<g id="Node000001" class="node">
<title>Node1</title>
<g id="a_Node000001"><a xlink:title="Central static logging interface for the application.">
<polygon fill="#999999" stroke="#666666" points="386.5,-294 328.5,-294 328.5,-275 386.5,-275 386.5,-294"/>
<text text-anchor="middle" x="357.5" y="-282" font-family="Helvetica,sans-Serif" font-size="10.00">Logger.h</text>
</a>
</g>
</g>
<!-- Node2 -->
<g id="Node000002" class="node">
<title>Node2</title>
<g id="a_Node000002"><a xlink:href="ConsoleSink_8h.html" target="_top" xlink:title="Concrete implementation of ISink that logs to the console.">
<polygon fill="white" stroke="#666666" points="365.5,-239 279.5,-239 279.5,-220 365.5,-220 365.5,-239"/>
<text text-anchor="middle" x="322.5" y="-227" font-family="Helvetica,sans-Serif" font-size="10.00">ConsoleSink.h</text>
</a>
</g>
</g>
<!-- Node1&#45;&gt;Node2 -->
<g id="edge1_Node000001_Node000002" class="edge">
<title>Node1&#45;&gt;Node2</title>
<g id="a_edge1_Node000001_Node000002"><a xlink:title=" ">
<path fill="none" stroke="#63b8ff" d="M346.2,-266.39C340.18,-257.27 333.03,-246.45 328.17,-239.09"/>
<polygon fill="#63b8ff" stroke="#63b8ff" points="343.29,-268.33 351.72,-274.75 349.13,-264.47 343.29,-268.33"/>
</a>
</g>
</g>
<!-- Node10 -->
<g id="Node000010" class="node">
<title>Node10</title>
<g id="a_Node000010"><a xlink:href="Logger_8cpp.html" target="_top" xlink:title=" ">
<polygon fill="white" stroke="#666666" points="462,-184 393,-184 393,-165 462,-165 462,-184"/>
<text text-anchor="middle" x="427.5" y="-172" font-family="Helvetica,sans-Serif" font-size="10.00">Logger.cpp</text>
</a>
</g>
</g>
<!-- Node1&#45;&gt;Node10 -->
<g id="edge14_Node000001_Node000010" class="edge">
<title>Node1&#45;&gt;Node10</title>
<g id="a_edge14_Node000001_Node000010"><a xlink:title=" ">
<path fill="none" stroke="#63b8ff" d="M368.8,-266.07C383.98,-242.64 410.39,-201.89 421.89,-184.16"/>
<polygon fill="#63b8ff" stroke="#63b8ff" points="365.73,-264.37 363.23,-274.66 371.6,-268.17 365.73,-264.37"/>
</a>
</g>
</g>
<!-- Node3 -->
<g id="Node000003" class="node">
<title>Node3</title>
<g id="a_Node000003"><a xlink:href="EntityManager_8cpp.html" target="_top" xlink:title=" ">
<polygon fill="white" stroke="#666666" points="107,-184 0,-184 0,-165 107,-165 107,-184"/>
<text text-anchor="middle" x="53.5" y="-172" font-family="Helvetica,sans-Serif" font-size="10.00">EntityManager.cpp</text>
</a>
</g>
</g>
<!-- Node2&#45;&gt;Node3 -->
<g id="edge2_Node000002_Node000003" class="edge">
<title>Node2&#45;&gt;Node3</title>
<g id="a_edge2_Node000002_Node000003"><a xlink:title=" ">
<path fill="none" stroke="#63b8ff" d="M269.22,-218C218.8,-208.07 144.02,-193.33 97.06,-184.08"/>
<polygon fill="#63b8ff" stroke="#63b8ff" points="268.79,-221.49 279.28,-219.98 270.15,-214.62 268.79,-221.49"/>
</a>
</g>
</g>
<!-- Node4 -->
<g id="Node000004" class="node">
<title>Node4</title>
<g id="a_Node000004"><a xlink:href="IComponentManager_8h.html" target="_top" xlink:title="System for managing components and their relationship to specific entities.">
<polygon fill="white" stroke="#666666" points="252,-184 125,-184 125,-165 252,-165 252,-184"/>
<text text-anchor="middle" x="188.5" y="-172" font-family="Helvetica,sans-Serif" font-size="10.00">IComponentManager.h</text>
</a>
</g>
</g>
<!-- Node2&#45;&gt;Node4 -->
<g id="edge3_Node000002_Node000004" class="edge">
<title>Node2&#45;&gt;Node4</title>
<g id="a_edge3_Node000002_Node000004"><a xlink:title=" ">
<path fill="none" stroke="#63b8ff" d="M291.63,-216.29C266.8,-206.47 232.51,-192.91 210.42,-184.17"/>
<polygon fill="#63b8ff" stroke="#63b8ff" points="290.38,-219.56 300.97,-219.98 292.96,-213.05 290.38,-219.56"/>
</a>
</g>
</g>
<!-- Node2&#45;&gt;Node10 -->
<g id="edge10_Node000002_Node000010" class="edge">
<title>Node2&#45;&gt;Node10</title>
<g id="a_edge10_Node000002_Node000010"><a xlink:title=" ">
<path fill="none" stroke="#63b8ff" d="M348.52,-215.37C367.8,-205.63 393.55,-192.64 410.32,-184.17"/>
<polygon fill="#63b8ff" stroke="#63b8ff" points="346.72,-212.35 339.37,-219.98 349.87,-218.6 346.72,-212.35"/>
</a>
</g>
</g>
<!-- Node11 -->
<g id="Node000011" class="node">
<title>Node11</title>
<g id="a_Node000011"><a xlink:href="SystemManager_8h.html" target="_top" xlink:title="Defines the concrete implementation of ISystemManager.h.">
<polygon fill="white" stroke="#666666" points="374.5,-184 270.5,-184 270.5,-165 374.5,-165 374.5,-184"/>
<text text-anchor="middle" x="322.5" y="-172" font-family="Helvetica,sans-Serif" font-size="10.00">SystemManager.h</text>
</a>
</g>
</g>
<!-- Node2&#45;&gt;Node11 -->
<g id="edge11_Node000002_Node000011" class="edge">
<title>Node2&#45;&gt;Node11</title>
<g id="a_edge11_Node000002_Node000011"><a xlink:title=" ">
<path fill="none" stroke="#63b8ff" d="M322.5,-209.66C322.5,-200.93 322.5,-190.99 322.5,-184.09"/>
<polygon fill="#63b8ff" stroke="#63b8ff" points="319,-209.75 322.5,-219.75 326,-209.75 319,-209.75"/>
</a>
</g>
</g>
<!-- Node5 -->
<g id="Node000005" class="node">
<title>Node5</title>
<g id="a_Node000005"><a xlink:href="GameWorld_8h.html" target="_top" xlink:title="Defines the concrete game world used by the main loop.">
<polygon fill="white" stroke="#666666" points="200,-129 117,-129 117,-110 200,-110 200,-129"/>
<text text-anchor="middle" x="158.5" y="-117" font-family="Helvetica,sans-Serif" font-size="10.00">GameWorld.h</text>
</a>
</g>
</g>
<!-- Node4&#45;&gt;Node5 -->
<g id="edge4_Node000004_Node000005" class="edge">
<title>Node4&#45;&gt;Node5</title>
<g id="a_edge4_Node000004_Node000005"><a xlink:title=" ">
<path fill="none" stroke="#63b8ff" d="M178.49,-155.82C173.4,-146.82 167.44,-136.29 163.36,-129.09"/>
<polygon fill="#63b8ff" stroke="#63b8ff" points="175.57,-157.77 183.55,-164.75 181.67,-154.32 175.57,-157.77"/>
</a>
</g>
</g>
<!-- Node9 -->
<g id="Node000009" class="node">
<title>Node9</title>
<g id="a_Node000009"><a xlink:href="main_8cpp.html" target="_top" xlink:title=" ">
<polygon fill="white" stroke="#666666" points="278.5,-74 216.5,-74 216.5,-55 278.5,-55 278.5,-74"/>
<text text-anchor="middle" x="247.5" y="-62" font-family="Helvetica,sans-Serif" font-size="10.00">main.cpp</text>
</a>
</g>
</g>
<!-- Node4&#45;&gt;Node9 -->
<g id="edge9_Node000004_Node000009" class="edge">
<title>Node4&#45;&gt;Node9</title>
<g id="a_edge9_Node000004_Node000009"><a xlink:title=" ">
<path fill="none" stroke="#63b8ff" d="M198.19,-155.76C211.02,-132.28 233.13,-91.81 242.77,-74.16"/>
<polygon fill="#63b8ff" stroke="#63b8ff" points="195.05,-154.21 193.33,-164.66 201.19,-157.56 195.05,-154.21"/>
</a>
</g>
</g>
<!-- Node6 -->
<g id="Node000006" class="node">
<title>Node6</title>
<g id="a_Node000006"><a xlink:href="PlayerMoveCommand_8h.html" target="_top" xlink:title="A command for triggering player (paddle) movement.">
<polygon fill="white" stroke="#666666" points="198.5,-74 64.5,-74 64.5,-55 198.5,-55 198.5,-74"/>
<text text-anchor="middle" x="131.5" y="-62" font-family="Helvetica,sans-Serif" font-size="10.00">PlayerMoveCommand.h</text>
</a>
</g>
</g>
<!-- Node5&#45;&gt;Node6 -->
<g id="edge5_Node000005_Node000006" class="edge">
<title>Node5&#45;&gt;Node6</title>
<g id="a_edge5_Node000005_Node000006"><a xlink:title=" ">
<path fill="none" stroke="#63b8ff" d="M149.49,-100.82C144.91,-91.82 139.55,-81.29 135.88,-74.09"/>
<polygon fill="#63b8ff" stroke="#63b8ff" points="146.38,-102.43 154.04,-109.75 152.62,-99.25 146.38,-102.43"/>
</a>
</g>
</g>
<!-- Node5&#45;&gt;Node9 -->
<g id="edge8_Node000005_Node000009" class="edge">
<title>Node5&#45;&gt;Node9</title>
<g id="a_edge8_Node000005_Node000009"><a xlink:title=" ">
<path fill="none" stroke="#63b8ff" d="M181.68,-104.7C197.89,-95.04 219.05,-82.44 232.94,-74.17"/>
<polygon fill="#63b8ff" stroke="#63b8ff" points="179.6,-101.86 172.8,-109.98 183.18,-107.88 179.6,-101.86"/>
</a>
</g>
</g>
<!-- Node7 -->
<g id="Node000007" class="node">
<title>Node7</title>
<g id="a_Node000007"><a xlink:href="InputNormalizer_8cpp.html" target="_top" xlink:title=" ">
<polygon fill="white" stroke="#666666" points="115,-19 0,-19 0,0 115,0 115,-19"/>
<text text-anchor="middle" x="57.5" y="-7" font-family="Helvetica,sans-Serif" font-size="10.00">InputNormalizer.cpp</text>
</a>
</g>
</g>
<!-- Node6&#45;&gt;Node7 -->
<g id="edge6_Node000006_Node000007" class="edge">
<title>Node6&#45;&gt;Node7</title>
<g id="a_edge6_Node000006_Node000007"><a xlink:title=" ">
<path fill="none" stroke="#63b8ff" d="M111.47,-49.15C98.09,-39.57 80.94,-27.29 69.61,-19.17"/>
<polygon fill="#63b8ff" stroke="#63b8ff" points="109.44,-52.01 119.61,-54.98 113.52,-46.32 109.44,-52.01"/>
</a>
</g>
</g>
<!-- Node8 -->
<g id="Node000008" class="node">
<title>Node8</title>
<g id="a_Node000008"><a xlink:href="PlayerMoveCommand_8cpp.html" target="_top" xlink:title=" ">
<polygon fill="white" stroke="#666666" points="278,-19 133,-19 133,0 278,0 278,-19"/>
<text text-anchor="middle" x="205.5" y="-7" font-family="Helvetica,sans-Serif" font-size="10.00">PlayerMoveCommand.cpp</text>
</a>
</g>
</g>
<!-- Node6&#45;&gt;Node8 -->
<g id="edge7_Node000006_Node000008" class="edge">
<title>Node6&#45;&gt;Node8</title>
<g id="a_edge7_Node000006_Node000008"><a xlink:title=" ">
<path fill="none" stroke="#63b8ff" d="M151.53,-49.15C164.91,-39.57 182.06,-27.29 193.39,-19.17"/>
<polygon fill="#63b8ff" stroke="#63b8ff" points="149.48,-46.32 143.39,-54.98 153.56,-52.01 149.48,-46.32"/>
</a>
</g>
</g>
<!-- Node11&#45;&gt;Node9 -->
<g id="edge13_Node000011_Node000009" class="edge">
<title>Node11&#45;&gt;Node9</title>
<g id="a_edge13_Node000011_Node000009"><a xlink:title=" ">
<path fill="none" stroke="#63b8ff" d="M307.95,-157.24C300.86,-149.01 292.4,-138.74 285.5,-129 272.28,-110.34 259.07,-86.93 252.25,-74.4"/>
<polygon fill="#63b8ff" stroke="#63b8ff" points="305.49,-159.74 314.71,-164.95 310.75,-155.13 305.49,-159.74"/>
</a>
</g>
</g>
<!-- Node12 -->
<g id="Node000012" class="node">
<title>Node12</title>
<g id="a_Node000012"><a xlink:href="SystemManager_8cpp.html" target="_top" xlink:title=" ">
<polygon fill="white" stroke="#666666" points="410.5,-129 294.5,-129 294.5,-110 410.5,-110 410.5,-129"/>
<text text-anchor="middle" x="352.5" y="-117" font-family="Helvetica,sans-Serif" font-size="10.00">SystemManager.cpp</text>
</a>
</g>
</g>
<!-- Node11&#45;&gt;Node12 -->
<g id="edge12_Node000011_Node000012" class="edge">
<title>Node11&#45;&gt;Node12</title>
<g id="a_edge12_Node000011_Node000012"><a xlink:title=" ">
<path fill="none" stroke="#63b8ff" d="M332.51,-155.82C337.6,-146.82 343.56,-136.29 347.64,-129.09"/>
<polygon fill="#63b8ff" stroke="#63b8ff" points="329.33,-154.32 327.45,-164.75 335.43,-157.77 329.33,-154.32"/>
</a>
</g>
</g>
</g>
</svg>
