<?xml version="1.0" encoding="UTF-8" standalone="no"?>
<!DOCTYPE svg PUBLIC "-//W3C//DTD SVG 1.1//EN"
 "http://www.w3.org/Graphics/SVG/1.1/DTD/svg11.dtd">
<!-- Generated by graphviz version 2.43.0 (0)
 -->
<!-- Title: main Pages: 1 -->
<svg width="422pt" height="182pt"
 viewBox="0.00 0.00 422.00 182.00" xmlns="http://www.w3.org/2000/svg" xmlns:xlink="http://www.w3.org/1999/xlink">
<g id="graph0" class="graph" transform="scale(1 1) rotate(0) translate(4 178)">
<title>main</title>
<!-- Node1 -->
<g id="Node000001" class="node">
<title>Node1</title>
<g id="a_Node000001"><a xlink:title=" ">
<polygon fill="#999999" stroke="#666666" points="41,-96.5 0,-96.5 0,-77.5 41,-77.5 41,-96.5"/>
<text text-anchor="middle" x="20.5" y="-84.5" font-family="Helvetica,sans-Serif" font-size="10.00">main</text>
</a>
</g>
</g>
<!-- Node2 -->
<g id="Node000002" class="node">
<title>Node2</title>
<g id="a_Node000002"><a xlink:href="classsb_1_1input_1_1KeyboardHandler.html#a15e6ca0af7101d0379419244e02c3b1f" target="_top" xlink:title=" ">
<polygon fill="white" stroke="#666666" points="226,-102 77,-102 77,-72 226,-72 226,-102"/>
<text text-anchor="start" x="85" y="-90" font-family="Helvetica,sans-Serif" font-size="10.00">sb::input::KeyboardHandler</text>
<text text-anchor="middle" x="151.5" y="-79" font-family="Helvetica,sans-Serif" font-size="10.00">::poll_inputs</text>
</a>
</g>
</g>
<!-- Node1&#45;&gt;Node2 -->
<g id="edge1_Node000001_Node000002" class="edge">
<title>Node1&#45;&gt;Node2</title>
<g id="a_edge1_Node000001_Node000002"><a xlink:title=" ">
<path fill="none" stroke="#63b8ff" d="M41.09,-87C48.42,-87 57.27,-87 66.74,-87"/>
<polygon fill="#63b8ff" stroke="#63b8ff" points="66.79,-90.5 76.79,-87 66.79,-83.5 66.79,-90.5"/>
</a>
</g>
</g>
<!-- Node3 -->
<g id="Node000003" class="node">
<title>Node3</title>
<g id="a_Node000003"><a xlink:href="classsb_1_1input_1_1BaseInputHandler.html#a497ff52e3ef170e39b8f8170658cd807" target="_top" xlink:title=" ">
<polygon fill="white" stroke="#666666" points="414,-174 262,-174 262,-144 414,-144 414,-174"/>
<text text-anchor="start" x="270" y="-162" font-family="Helvetica,sans-Serif" font-size="10.00">sb::input::BaseInputHandler</text>
<text text-anchor="middle" x="338" y="-151" font-family="Helvetica,sans-Serif" font-size="10.00">::event_source</text>
</a>
</g>
</g>
<!-- Node2&#45;&gt;Node3 -->
<g id="edge2_Node000002_Node000003" class="edge">
<title>Node2&#45;&gt;Node3</title>
<g id="a_edge2_Node000002_Node000003"><a xlink:title=" ">
<path fill="none" stroke="#63b8ff" d="M184.72,-102.17C206.34,-112.1 235.59,-125.02 262,-135 267.12,-136.93 272.46,-138.85 277.85,-140.7"/>
<polygon fill="#63b8ff" stroke="#63b8ff" points="276.94,-144.09 287.53,-143.97 279.17,-137.46 276.94,-144.09"/>
</a>
</g>
</g>
<!-- Node4 -->
<g id="Node000004" class="node">
<title>Node4</title>
<g id="a_Node000004"><a xlink:href="structsb_1_1input_1_1InputCode.html#a8a917b1135e32e7d1c243dbb998a831e" target="_top" xlink:title=" ">
<polygon fill="white" stroke="#666666" points="395,-126 281,-126 281,-96 395,-96 395,-126"/>
<text text-anchor="start" x="289" y="-114" font-family="Helvetica,sans-Serif" font-size="10.00">sb::input::InputCode</text>
<text text-anchor="middle" x="338" y="-103" font-family="Helvetica,sans-Serif" font-size="10.00">::FromKeyboard</text>
</a>
</g>
</g>
<!-- Node2&#45;&gt;Node4 -->
<g id="edge3_Node000002_Node000004" class="edge">
<title>Node2&#45;&gt;Node4</title>
<g id="a_edge3_Node000002_Node000004"><a xlink:title=" ">
<path fill="none" stroke="#63b8ff" d="M226.21,-96.59C240.83,-98.49 256.1,-100.48 270.46,-102.34"/>
<polygon fill="#63b8ff" stroke="#63b8ff" points="270.37,-105.86 280.74,-103.68 271.28,-98.92 270.37,-105.86"/>
</a>
</g>
</g>
<!-- Node5 -->
<g id="Node000005" class="node">
<title>Node5</title>
<g id="a_Node000005"><a xlink:href="classsb_1_1input_1_1IInputNormalizer.html#a0e5e44c3a126874a299692279d3fd7a9" target="_top" xlink:title=" ">
<polygon fill="white" stroke="#666666" points="411,-78 265,-78 265,-48 411,-48 411,-78"/>
<text text-anchor="start" x="273" y="-66" font-family="Helvetica,sans-Serif" font-size="10.00">sb::input::IInputNormalizer</text>
<text text-anchor="middle" x="338" y="-55" font-family="Helvetica,sans-Serif" font-size="10.00">::normalize_input</text>
</a>
</g>
</g>
<!-- Node2&#45;&gt;Node5 -->
<g id="edge4_Node000002_Node000005" class="edge">
<title>Node2&#45;&gt;Node5</title>
<g id="a_edge4_Node000002_Node000005"><a xlink:title=" ">
<path fill="none" stroke="#63b8ff" d="M226.21,-77.41C235.58,-76.19 245.2,-74.94 254.69,-73.71"/>
<polygon fill="#63b8ff" stroke="#63b8ff" points="255.44,-77.14 264.91,-72.38 254.54,-70.2 255.44,-77.14"/>
</a>
</g>
</g>
<!-- Node6 -->
<g id="Node000006" class="node">
<title>Node6</title>
<g id="a_Node000006"><a xlink:href="classsb_1_1input_1_1BaseInputHandler.html#ab635c1d63d2f28b1e48b8c558bff0e36" target="_top" xlink:title=" ">
<polygon fill="white" stroke="#666666" points="414,-30 262,-30 262,0 414,0 414,-30"/>
<text text-anchor="start" x="270" y="-18" font-family="Helvetica,sans-Serif" font-size="10.00">sb::input::BaseInputHandler</text>
<text text-anchor="middle" x="338" y="-7" font-family="Helvetica,sans-Serif" font-size="10.00">::normalizer</text>
</a>
</g>
</g>
<!-- Node2&#45;&gt;Node6 -->
<g id="edge5_Node000002_Node000006" class="edge">
<title>Node2&#45;&gt;Node6</title>
<g id="a_edge5_Node000002_Node000006"><a xlink:title=" ">
<path fill="none" stroke="#63b8ff" d="M184.72,-71.83C206.34,-61.9 235.59,-48.98 262,-39 267.12,-37.07 272.46,-35.15 277.85,-33.3"/>
<polygon fill="#63b8ff" stroke="#63b8ff" points="279.17,-36.54 287.53,-30.03 276.94,-29.91 279.17,-36.54"/>
</a>
</g>
</g>
</g>
</svg>
