<?xml version="1.0" encoding="UTF-8" standalone="no"?>
<!DOCTYPE svg PUBLIC "-//W3C//DTD SVG 1.1//EN"
 "http://www.w3.org/Graphics/SVG/1.1/DTD/svg11.dtd">
<!-- Generated by graphviz version 2.43.0 (0)
 -->
<!-- Title: main Pages: 1 -->
<svg width="422pt" height="230pt"
 viewBox="0.00 0.00 422.00 230.00" xmlns="http://www.w3.org/2000/svg" xmlns:xlink="http://www.w3.org/1999/xlink">
<g id="graph0" class="graph" transform="scale(1 1) rotate(0) translate(4 226)">
<title>main</title>
<!-- Node1 -->
<g id="Node000001" class="node">
<title>Node1</title>
<g id="a_Node000001"><a xlink:title=" ">
<polygon fill="#999999" stroke="#666666" points="41,-120.5 0,-120.5 0,-101.5 41,-101.5 41,-120.5"/>
<text text-anchor="middle" x="20.5" y="-108.5" font-family="Helvetica,sans-Serif" font-size="10.00">main</text>
</a>
</g>
</g>
<!-- Node2 -->
<g id="Node000002" class="node">
<title>Node2</title>
<g id="a_Node000002"><a xlink:href="classsb_1_1input_1_1KeyboardHandler.html#a15e6ca0af7101d0379419244e02c3b1f" target="_top" xlink:title=" ">
<polygon fill="white" stroke="#666666" points="226,-126 77,-126 77,-96 226,-96 226,-126"/>
<text text-anchor="start" x="85" y="-114" font-family="Helvetica,sans-Serif" font-size="10.00">sb::input::KeyboardHandler</text>
<text text-anchor="middle" x="151.5" y="-103" font-family="Helvetica,sans-Serif" font-size="10.00">::poll_inputs</text>
</a>
</g>
</g>
<!-- Node1&#45;&gt;Node2 -->
<g id="edge1_Node000001_Node000002" class="edge">
<title>Node1&#45;&gt;Node2</title>
<g id="a_edge1_Node000001_Node000002"><a xlink:title=" ">
<path fill="none" stroke="#63b8ff" d="M41.09,-111C48.42,-111 57.27,-111 66.74,-111"/>
<polygon fill="#63b8ff" stroke="#63b8ff" points="66.79,-114.5 76.79,-111 66.79,-107.5 66.79,-114.5"/>
</a>
</g>
</g>
<!-- Node3 -->
<g id="Node000003" class="node">
<title>Node3</title>
<g id="a_Node000003"><a xlink:href="classsb_1_1input_1_1BaseInputHandler.html#a497ff52e3ef170e39b8f8170658cd807" target="_top" xlink:title=" ">
<polygon fill="white" stroke="#666666" points="414,-222 262,-222 262,-192 414,-192 414,-222"/>
<text text-anchor="start" x="270" y="-210" font-family="Helvetica,sans-Serif" font-size="10.00">sb::input::BaseInputHandler</text>
<text text-anchor="middle" x="338" y="-199" font-family="Helvetica,sans-Serif" font-size="10.00">::event_source</text>
</a>
</g>
</g>
<!-- Node2&#45;&gt;Node3 -->
<g id="edge2_Node000002_Node000003" class="edge">
<title>Node2&#45;&gt;Node3</title>
<g id="a_edge2_Node000002_Node000003"><a xlink:title=" ">
<path fill="none" stroke="#63b8ff" d="M172.1,-126.27C193.29,-142.2 228.54,-167.01 262,-183 265.99,-184.91 270.18,-186.72 274.44,-188.42"/>
<polygon fill="#63b8ff" stroke="#63b8ff" points="273.25,-191.72 283.85,-191.99 275.73,-185.17 273.25,-191.72"/>
</a>
</g>
</g>
<!-- Node4 -->
<g id="Node000004" class="node">
<title>Node4</title>
<g id="a_Node000004"><a xlink:href="structsb_1_1input_1_1InputCode.html#a8a917b1135e32e7d1c243dbb998a831e" target="_top" xlink:title=" ">
<polygon fill="white" stroke="#666666" points="395,-174 281,-174 281,-144 395,-144 395,-174"/>
<text text-anchor="start" x="289" y="-162" font-family="Helvetica,sans-Serif" font-size="10.00">sb::input::InputCode</text>
<text text-anchor="middle" x="338" y="-151" font-family="Helvetica,sans-Serif" font-size="10.00">::FromKeyboard</text>
</a>
</g>
</g>
<!-- Node2&#45;&gt;Node4 -->
<g id="edge3_Node000002_Node000004" class="edge">
<title>Node2&#45;&gt;Node4</title>
<g id="a_edge3_Node000002_Node000004"><a xlink:title=" ">
<path fill="none" stroke="#63b8ff" d="M210.37,-126.06C229.63,-131.07 251.22,-136.68 271.04,-141.84"/>
<polygon fill="#63b8ff" stroke="#63b8ff" points="270.35,-145.28 280.91,-144.41 272.12,-138.5 270.35,-145.28"/>
</a>
</g>
</g>
<!-- Node5 -->
<g id="Node000005" class="node">
<title>Node5</title>
<g id="a_Node000005"><a xlink:href="classsb_1_1input_1_1IInputNormalizer.html#a0e5e44c3a126874a299692279d3fd7a9" target="_top" xlink:title=" ">
<polygon fill="white" stroke="#666666" points="411,-126 265,-126 265,-96 411,-96 411,-126"/>
<text text-anchor="start" x="273" y="-114" font-family="Helvetica,sans-Serif" font-size="10.00">sb::input::IInputNormalizer</text>
<text text-anchor="middle" x="338" y="-103" font-family="Helvetica,sans-Serif" font-size="10.00">::normalize_input</text>
</a>
</g>
</g>
<!-- Node2&#45;&gt;Node5 -->
<g id="edge4_Node000002_Node000005" class="edge">
<title>Node2&#45;&gt;Node5</title>
<g id="a_edge4_Node000002_Node000005"><a xlink:title=" ">
<path fill="none" stroke="#63b8ff" d="M226.21,-111C235.58,-111 245.2,-111 254.69,-111"/>
<polygon fill="#63b8ff" stroke="#63b8ff" points="254.91,-114.5 264.91,-111 254.91,-107.5 254.91,-114.5"/>
</a>
</g>
</g>
<!-- Node6 -->
<g id="Node000006" class="node">
<title>Node6</title>
<g id="a_Node000006"><a xlink:href="classsb_1_1input_1_1BaseInputHandler.html#ab635c1d63d2f28b1e48b8c558bff0e36" target="_top" xlink:title=" ">
<polygon fill="white" stroke="#666666" points="414,-78 262,-78 262,-48 414,-48 414,-78"/>
<text text-anchor="start" x="270" y="-66" font-family="Helvetica,sans-Serif" font-size="10.00">sb::input::BaseInputHandler</text>
<text text-anchor="middle" x="338" y="-55" font-family="Helvetica,sans-Serif" font-size="10.00">::normalizer</text>
</a>
</g>
</g>
<!-- Node2&#45;&gt;Node6 -->
<g id="edge5_Node000002_Node000006" class="edge">
<title>Node2&#45;&gt;Node6</title>
<g id="a_edge5_Node000002_Node000006"><a xlink:title=" ">
<path fill="none" stroke="#63b8ff" d="M210.37,-95.94C229.18,-91.05 250.2,-85.58 269.64,-80.52"/>
<polygon fill="#63b8ff" stroke="#63b8ff" points="270.54,-83.91 279.33,-78 268.78,-77.13 270.54,-83.91"/>
</a>
</g>
</g>
<!-- Node7 -->
<g id="Node000007" class="node">
<title>Node7</title>
<g id="a_Node000007"><a xlink:href="structsb_1_1input_1_1InputCode.html#a06b9aed029fa35a36e5781e44946f339" target="_top" xlink:title="Creates a virtual InputCode used to represent system&#45;initiated quit requests.">
<polygon fill="white" stroke="#666666" points="395,-30 281,-30 281,0 395,0 395,-30"/>
<text text-anchor="start" x="289" y="-18" font-family="Helvetica,sans-Serif" font-size="10.00">sb::input::InputCode</text>
<text text-anchor="middle" x="338" y="-7" font-family="Helvetica,sans-Serif" font-size="10.00">::VirtualQuit</text>
</a>
</g>
</g>
<!-- Node2&#45;&gt;Node7 -->
<g id="edge6_Node000002_Node000007" class="edge">
<title>Node2&#45;&gt;Node7</title>
<g id="a_edge6_Node000002_Node000007"><a xlink:title=" ">
<path fill="none" stroke="#63b8ff" d="M172.1,-95.73C193.29,-79.8 228.54,-54.99 262,-39 265.99,-37.09 270.18,-35.28 274.44,-33.58"/>
<polygon fill="#63b8ff" stroke="#63b8ff" points="275.73,-36.83 283.85,-30.01 273.25,-30.28 275.73,-36.83"/>
</a>
</g>
</g>
</g>
</svg>
