<?xml version="1.0" encoding="UTF-8" standalone="no"?>
<!DOCTYPE svg PUBLIC "-//W3C//DTD SVG 1.1//EN"
 "http://www.w3.org/Graphics/SVG/1.1/DTD/svg11.dtd">
<!-- Generated by graphviz version 2.43.0 (0)
 -->
<!-- Title: PlayerMoveCommand.h Pages: 1 -->
<svg width="1185pt" height="412pt"
 viewBox="0.00 0.00 1185.00 412.00" xmlns="http://www.w3.org/2000/svg" xmlns:xlink="http://www.w3.org/1999/xlink">
<g id="graph0" class="graph" transform="scale(1 1) rotate(0) translate(4 408)">
<title>PlayerMoveCommand.h</title>
<!-- Node1 -->
<g id="Node000001" class="node">
<title>Node1</title>
<g id="a_Node000001"><a xlink:title="A command for triggering player (paddle) movement.">
<polygon fill="#999999" stroke="#666666" points="1004,-404 870,-404 870,-385 1004,-385 1004,-404"/>
<text text-anchor="middle" x="937" y="-392" font-family="Helvetica,sans-Serif" font-size="10.00">PlayerMoveCommand.h</text>
</a>
</g>
</g>
<!-- Node2 -->
<g id="Node000002" class="node">
<title>Node2</title>
<g id="a_Node000002"><a xlink:href="GameWorld_8h.html" target="_top" xlink:title="Defines the concrete game world used by the main loop.">
<polygon fill="white" stroke="#666666" points="880.5,-349 797.5,-349 797.5,-330 880.5,-330 880.5,-349"/>
<text text-anchor="middle" x="839" y="-337" font-family="Helvetica,sans-Serif" font-size="10.00">GameWorld.h</text>
</a>
</g>
</g>
<!-- Node1&#45;&gt;Node2 -->
<g id="edge1_Node000001_Node000002" class="edge">
<title>Node1&#45;&gt;Node2</title>
<g id="a_edge1_Node000001_Node000002"><a xlink:title=" ">
<path fill="none" stroke="#63b8ff" d="M921.25,-384.98C905.77,-376.61 881.91,-363.7 863.86,-353.95"/>
<polygon fill="#63b8ff" stroke="#63b8ff" points="865.49,-350.85 855.03,-349.17 862.16,-357.01 865.49,-350.85"/>
</a>
</g>
</g>
<!-- Node25 -->
<g id="Node000025" class="node">
<title>Node25</title>
<g id="a_Node000025"><a xlink:href="ICommand_8h.html" target="_top" xlink:title="An abstract representation of an action to be executed in the game engine.">
<polygon fill="white" stroke="#666666" points="926.5,-239 847.5,-239 847.5,-220 926.5,-220 926.5,-239"/>
<text text-anchor="middle" x="887" y="-227" font-family="Helvetica,sans-Serif" font-size="10.00">ICommand.h</text>
</a>
</g>
</g>
<!-- Node1&#45;&gt;Node25 -->
<g id="edge42_Node000001_Node000025" class="edge">
<title>Node1&#45;&gt;Node25</title>
<g id="a_edge42_Node000001_Node000025"><a xlink:title=" ">
<path fill="none" stroke="#63b8ff" d="M939.15,-384.97C943.79,-364.78 952.98,-312.93 936,-275 930.62,-262.99 920.26,-252.83 910.44,-245.26"/>
<polygon fill="#63b8ff" stroke="#63b8ff" points="912.26,-242.26 902.09,-239.29 908.19,-247.95 912.26,-242.26"/>
</a>
</g>
</g>
<!-- Node3 -->
<g id="Node000003" class="node">
<title>Node3</title>
<g id="a_Node000003"><a xlink:title=" ">
<polygon fill="#e0e0e0" stroke="#999999" points="289,-129 231,-129 231,-110 289,-110 289,-129"/>
<text text-anchor="middle" x="260" y="-117" font-family="Helvetica,sans-Serif" font-size="10.00">memory</text>
</a>
</g>
</g>
<!-- Node2&#45;&gt;Node3 -->
<g id="edge2_Node000002_Node000003" class="edge">
<title>Node2&#45;&gt;Node3</title>
<g id="a_edge2_Node000002_Node000003"><a xlink:title=" ">
<path fill="none" stroke="#63b8ff" d="M797.32,-338.54C691.6,-338.06 415.59,-333 334,-294 281.06,-268.7 271.63,-241.7 261,-184 258.28,-169.22 258.17,-152.18 258.66,-139.48"/>
<polygon fill="#63b8ff" stroke="#63b8ff" points="262.17,-139.4 259.23,-129.22 255.19,-139.01 262.17,-139.4"/>
</a>
</g>
</g>
<!-- Node4 -->
<g id="Node000004" class="node">
<title>Node4</title>
<g id="a_Node000004"><a xlink:href="Entity_8h.html" target="_top" xlink:title="Simple struct for Entity in the ECS module (includes version)">
<polygon fill="white" stroke="#666666" points="776.5,-129 695.5,-129 695.5,-110 776.5,-110 776.5,-129"/>
<text text-anchor="middle" x="736" y="-117" font-family="Helvetica,sans-Serif" font-size="10.00">../ecs/Entity.h</text>
</a>
</g>
</g>
<!-- Node2&#45;&gt;Node4 -->
<g id="edge3_Node000002_Node000004" class="edge">
<title>Node2&#45;&gt;Node4</title>
<g id="a_edge3_Node000002_Node000004"><a xlink:title=" ">
<path fill="none" stroke="#63b8ff" d="M797.37,-333.28C752.78,-326.74 686.32,-313.91 671,-294 632.66,-244.18 690.74,-169.31 720.37,-136.67"/>
<polygon fill="#63b8ff" stroke="#63b8ff" points="722.96,-139.03 727.21,-129.32 717.84,-134.26 722.96,-139.03"/>
</a>
</g>
</g>
<!-- Node7 -->
<g id="Node000007" class="node">
<title>Node7</title>
<g id="a_Node000007"><a xlink:href="ecs__config_8h.html" target="_top" xlink:title="Configuration constants and type definitions for ECS modules.">
<polygon fill="white" stroke="#666666" points="949.5,-74 872.5,-74 872.5,-55 949.5,-55 949.5,-74"/>
<text text-anchor="middle" x="911" y="-62" font-family="Helvetica,sans-Serif" font-size="10.00">ecs_config.h</text>
</a>
</g>
</g>
<!-- Node2&#45;&gt;Node7 -->
<g id="edge11_Node000002_Node000007" class="edge">
<title>Node2&#45;&gt;Node7</title>
<g id="a_edge11_Node000002_Node000007"><a xlink:title=" ">
<path fill="none" stroke="#63b8ff" d="M859.54,-329.98C883.03,-318.92 916.59,-298.24 903,-275 886.52,-246.83 859.07,-264.74 839,-239 818.36,-212.54 812.2,-196.42 824,-165 837.4,-129.32 870.04,-98.05 891.31,-80.49"/>
<polygon fill="#63b8ff" stroke="#63b8ff" points="893.75,-83.02 899.37,-74.04 889.38,-77.55 893.75,-83.02"/>
</a>
</g>
</g>
<!-- Node10 -->
<g id="Node000010" class="node">
<title>Node10</title>
<g id="a_Node000010"><a xlink:href="IGameWorld_8h.html" target="_top" xlink:title="Declares the interface for interacting with the active game world state.">
<polygon fill="white" stroke="#666666" points="766,-294 680,-294 680,-275 766,-275 766,-294"/>
<text text-anchor="middle" x="723" y="-282" font-family="Helvetica,sans-Serif" font-size="10.00">IGameWorld.h</text>
</a>
</g>
</g>
<!-- Node2&#45;&gt;Node10 -->
<g id="edge9_Node000002_Node000010" class="edge">
<title>Node2&#45;&gt;Node10</title>
<g id="a_edge9_Node000002_Node000010"><a xlink:title=" ">
<path fill="none" stroke="#63b8ff" d="M820.36,-329.98C801.7,-321.46 772.75,-308.23 751.26,-298.41"/>
<polygon fill="#63b8ff" stroke="#63b8ff" points="752.53,-295.14 741.98,-294.17 749.62,-301.51 752.53,-295.14"/>
</a>
</g>
</g>
<!-- Node11 -->
<g id="Node000011" class="node">
<title>Node11</title>
<g id="a_Node000011"><a xlink:href="IComponentManager_8h.html" target="_top" xlink:title="System for managing components and their relationship to specific entities.">
<polygon fill="white" stroke="#666666" points="497.5,-294 342.5,-294 342.5,-275 497.5,-275 497.5,-294"/>
<text text-anchor="middle" x="420" y="-282" font-family="Helvetica,sans-Serif" font-size="10.00">../ecs/IComponentManager.h</text>
</a>
</g>
</g>
<!-- Node2&#45;&gt;Node11 -->
<g id="edge12_Node000002_Node000011" class="edge">
<title>Node2&#45;&gt;Node11</title>
<g id="a_edge12_Node000002_Node000011"><a xlink:title=" ">
<path fill="none" stroke="#63b8ff" d="M797.29,-333.22C727.43,-324.39 585.74,-306.46 497.26,-295.27"/>
<polygon fill="#63b8ff" stroke="#63b8ff" points="497.64,-291.79 487.28,-294.01 496.76,-298.74 497.64,-291.79"/>
</a>
</g>
</g>
<!-- Node21 -->
<g id="Node000021" class="node">
<title>Node21</title>
<g id="a_Node000021"><a xlink:href="IEntityManager_8h.html" target="_top" xlink:title="Interface for managing entities and their signatures.">
<polygon fill="white" stroke="#666666" points="1177,-184 1049,-184 1049,-165 1177,-165 1177,-184"/>
<text text-anchor="middle" x="1113" y="-172" font-family="Helvetica,sans-Serif" font-size="10.00">../ecs/IEntityManager.h</text>
</a>
</g>
</g>
<!-- Node2&#45;&gt;Node21 -->
<g id="edge30_Node000002_Node000021" class="edge">
<title>Node2&#45;&gt;Node21</title>
<g id="a_edge30_Node000002_Node000021"><a xlink:title=" ">
<path fill="none" stroke="#63b8ff" d="M867.63,-329.98C891.72,-322.24 926.68,-309.65 955,-294 1010.21,-263.49 1067.66,-215.63 1095.63,-191.12"/>
<polygon fill="#63b8ff" stroke="#63b8ff" points="1098.15,-193.55 1103.32,-184.3 1093.51,-188.31 1098.15,-193.55"/>
</a>
</g>
</g>
<!-- Node23 -->
<g id="Node000023" class="node">
<title>Node23</title>
<g id="a_Node000023"><a xlink:href="ISystemManager_8h.html" target="_top" xlink:title="Declares the interface for managing registered systems.">
<polygon fill="white" stroke="#666666" points="1031,-184 895,-184 895,-165 1031,-165 1031,-184"/>
<text text-anchor="middle" x="963" y="-172" font-family="Helvetica,sans-Serif" font-size="10.00">../ecs/ISystemManager.h</text>
</a>
</g>
</g>
<!-- Node2&#45;&gt;Node23 -->
<g id="edge34_Node000002_Node000023" class="edge">
<title>Node2&#45;&gt;Node23</title>
<g id="a_edge34_Node000002_Node000023"><a xlink:title=" ">
<path fill="none" stroke="#63b8ff" d="M876.76,-329.9C897.17,-323.36 921.16,-312.26 936,-294 959.54,-265.03 963.44,-219.51 963.6,-194.15"/>
<polygon fill="#63b8ff" stroke="#63b8ff" points="967.1,-194 963.47,-184.05 960.1,-194.09 967.1,-194"/>
</a>
</g>
</g>
<!-- Node24 -->
<g id="Node000024" class="node">
<title>Node24</title>
<g id="a_Node000024"><a xlink:href="ICommandQueue_8h.html" target="_top" xlink:title="A lightweight wrapper for queuing commands.">
<polygon fill="white" stroke="#666666" points="894,-294 784,-294 784,-275 894,-275 894,-294"/>
<text text-anchor="middle" x="839" y="-282" font-family="Helvetica,sans-Serif" font-size="10.00">ICommandQueue.h</text>
</a>
</g>
</g>
<!-- Node2&#45;&gt;Node24 -->
<g id="edge37_Node000002_Node000024" class="edge">
<title>Node2&#45;&gt;Node24</title>
<g id="a_edge37_Node000002_Node000024"><a xlink:title=" ">
<path fill="none" stroke="#63b8ff" d="M839,-329.75C839,-322.8 839,-312.85 839,-304.13"/>
<polygon fill="#63b8ff" stroke="#63b8ff" points="842.5,-304.09 839,-294.09 835.5,-304.09 842.5,-304.09"/>
</a>
</g>
</g>
<!-- Node5 -->
<g id="Node000005" class="node">
<title>Node5</title>
<g id="a_Node000005"><a xlink:title=" ">
<polygon fill="#e0e0e0" stroke="#999999" points="702,-74 652,-74 652,-55 702,-55 702,-74"/>
<text text-anchor="middle" x="677" y="-62" font-family="Helvetica,sans-Serif" font-size="10.00">cstdint</text>
</a>
</g>
</g>
<!-- Node4&#45;&gt;Node5 -->
<g id="edge4_Node000004_Node000005" class="edge">
<title>Node4&#45;&gt;Node5</title>
<g id="a_edge4_Node000004_Node000005"><a xlink:title=" ">
<path fill="none" stroke="#63b8ff" d="M726.52,-109.98C717.8,-102.15 704.66,-90.34 694.1,-80.86"/>
<polygon fill="#63b8ff" stroke="#63b8ff" points="696.43,-78.25 686.65,-74.17 691.75,-83.46 696.43,-78.25"/>
</a>
</g>
</g>
<!-- Node6 -->
<g id="Node000006" class="node">
<title>Node6</title>
<g id="a_Node000006"><a xlink:title=" ">
<polygon fill="#e0e0e0" stroke="#999999" points="785.5,-74 720.5,-74 720.5,-55 785.5,-55 785.5,-74"/>
<text text-anchor="middle" x="753" y="-62" font-family="Helvetica,sans-Serif" font-size="10.00">functional</text>
</a>
</g>
</g>
<!-- Node4&#45;&gt;Node6 -->
<g id="edge5_Node000004_Node000006" class="edge">
<title>Node4&#45;&gt;Node6</title>
<g id="a_edge5_Node000004_Node000006"><a xlink:title=" ">
<path fill="none" stroke="#63b8ff" d="M738.81,-109.75C741.06,-102.72 744.3,-92.62 747.12,-83.84"/>
<polygon fill="#63b8ff" stroke="#63b8ff" points="750.52,-84.68 750.25,-74.09 743.86,-82.54 750.52,-84.68"/>
</a>
</g>
</g>
<!-- Node4&#45;&gt;Node7 -->
<g id="edge6_Node000004_Node000007" class="edge">
<title>Node4&#45;&gt;Node7</title>
<g id="a_edge6_Node000004_Node000007"><a xlink:title=" ">
<path fill="none" stroke="#63b8ff" d="M764.12,-109.98C793.62,-101.05 840.19,-86.94 872.97,-77.02"/>
<polygon fill="#63b8ff" stroke="#63b8ff" points="874.11,-80.33 882.66,-74.08 872.08,-73.63 874.11,-80.33"/>
</a>
</g>
</g>
<!-- Node8 -->
<g id="Node000008" class="node">
<title>Node8</title>
<g id="a_Node000008"><a xlink:title=" ">
<polygon fill="#e0e0e0" stroke="#999999" points="899,-19 855,-19 855,0 899,0 899,-19"/>
<text text-anchor="middle" x="877" y="-7" font-family="Helvetica,sans-Serif" font-size="10.00">bitset</text>
</a>
</g>
</g>
<!-- Node7&#45;&gt;Node8 -->
<g id="edge7_Node000007_Node000008" class="edge">
<title>Node7&#45;&gt;Node8</title>
<g id="a_edge7_Node000007_Node000008"><a xlink:title=" ">
<path fill="none" stroke="#63b8ff" d="M905.39,-54.75C900.68,-47.42 893.83,-36.73 888.03,-27.7"/>
<polygon fill="#63b8ff" stroke="#63b8ff" points="890.86,-25.62 882.51,-19.09 884.96,-29.4 890.86,-25.62"/>
</a>
</g>
</g>
<!-- Node9 -->
<g id="Node000009" class="node">
<title>Node9</title>
<g id="a_Node000009"><a xlink:title=" ">
<polygon fill="#e0e0e0" stroke="#999999" points="970.5,-19 917.5,-19 917.5,0 970.5,0 970.5,-19"/>
<text text-anchor="middle" x="944" y="-7" font-family="Helvetica,sans-Serif" font-size="10.00">cstddef</text>
</a>
</g>
</g>
<!-- Node7&#45;&gt;Node9 -->
<g id="edge8_Node000007_Node000009" class="edge">
<title>Node7&#45;&gt;Node9</title>
<g id="a_edge8_Node000007_Node000009"><a xlink:title=" ">
<path fill="none" stroke="#63b8ff" d="M916.45,-54.75C921.01,-47.42 927.67,-36.73 933.29,-27.7"/>
<polygon fill="#63b8ff" stroke="#63b8ff" points="936.34,-29.43 938.65,-19.09 930.4,-25.73 936.34,-29.43"/>
</a>
</g>
</g>
<!-- Node10&#45;&gt;Node4 -->
<g id="edge10_Node000010_Node000004" class="edge">
<title>Node10&#45;&gt;Node4</title>
<g id="a_edge10_Node000010_Node000004"><a xlink:title=" ">
<path fill="none" stroke="#63b8ff" d="M723.69,-274.98C725.08,-257.79 728.32,-217.69 731,-184 732.2,-168.98 733.54,-151.95 734.53,-139.32"/>
<polygon fill="#63b8ff" stroke="#63b8ff" points="738.03,-139.37 735.33,-129.13 731.05,-138.82 738.03,-139.37"/>
</a>
</g>
</g>
<!-- Node11&#45;&gt;Node3 -->
<g id="edge13_Node000011_Node000003" class="edge">
<title>Node11&#45;&gt;Node3</title>
<g id="a_edge13_Node000011_Node000003"><a xlink:title=" ">
<path fill="none" stroke="#63b8ff" d="M367.51,-274.97C343.8,-268.65 317.12,-257.75 299,-239 272.38,-211.44 263.93,-165.38 261.24,-139.55"/>
<polygon fill="#63b8ff" stroke="#63b8ff" points="264.7,-138.92 260.37,-129.25 257.73,-139.51 264.7,-138.92"/>
</a>
</g>
</g>
<!-- Node11&#45;&gt;Node4 -->
<g id="edge28_Node000011_Node000004" class="edge">
<title>Node11&#45;&gt;Node4</title>
<g id="a_edge28_Node000011_Node000004"><a xlink:title=" ">
<path fill="none" stroke="#63b8ff" d="M416.68,-274.73C409.13,-253.07 393.34,-196.57 421,-165 454.74,-126.48 604.86,-120.42 685.07,-120"/>
<polygon fill="#63b8ff" stroke="#63b8ff" points="685.44,-123.5 695.44,-119.98 685.43,-116.5 685.44,-123.5"/>
</a>
</g>
</g>
<!-- Node12 -->
<g id="Node000012" class="node">
<title>Node12</title>
<g id="a_Node000012"><a xlink:title=" ">
<polygon fill="#e0e0e0" stroke="#999999" points="372.5,-239 307.5,-239 307.5,-220 372.5,-220 372.5,-239"/>
<text text-anchor="middle" x="340" y="-227" font-family="Helvetica,sans-Serif" font-size="10.00">typeindex</text>
</a>
</g>
</g>
<!-- Node11&#45;&gt;Node12 -->
<g id="edge14_Node000011_Node000012" class="edge">
<title>Node11&#45;&gt;Node12</title>
<g id="a_edge14_Node000011_Node000012"><a xlink:title=" ">
<path fill="none" stroke="#63b8ff" d="M407.15,-274.98C394.86,-266.84 376.09,-254.41 361.52,-244.76"/>
<polygon fill="#63b8ff" stroke="#63b8ff" points="363.36,-241.78 353.09,-239.17 359.49,-247.61 363.36,-241.78"/>
</a>
</g>
</g>
<!-- Node13 -->
<g id="Node000013" class="node">
<title>Node13</title>
<g id="a_Node000013"><a xlink:title=" ">
<polygon fill="#e0e0e0" stroke="#999999" points="522.5,-184 429.5,-184 429.5,-165 522.5,-165 522.5,-184"/>
<text text-anchor="middle" x="476" y="-172" font-family="Helvetica,sans-Serif" font-size="10.00">unordered_map</text>
</a>
</g>
</g>
<!-- Node11&#45;&gt;Node13 -->
<g id="edge15_Node000011_Node000013" class="edge">
<title>Node11&#45;&gt;Node13</title>
<g id="a_edge15_Node000011_Node000013"><a xlink:title=" ">
<path fill="none" stroke="#63b8ff" d="M424.58,-274.66C433.78,-256.93 454.62,-216.73 466.76,-193.32"/>
<polygon fill="#63b8ff" stroke="#63b8ff" points="470.01,-194.65 471.51,-184.16 463.8,-191.42 470.01,-194.65"/>
</a>
</g>
</g>
<!-- Node14 -->
<g id="Node000014" class="node">
<title>Node14</title>
<g id="a_Node000014"><a xlink:href="ConsoleSink_8h.html" target="_top" xlink:title="Concrete implementation of ISink that logs to the console.">
<polygon fill="white" stroke="#666666" points="196.5,-239 39.5,-239 39.5,-220 196.5,-220 196.5,-239"/>
<text text-anchor="middle" x="118" y="-227" font-family="Helvetica,sans-Serif" font-size="10.00">../logger/sinks/ConsoleSink.h</text>
</a>
</g>
</g>
<!-- Node11&#45;&gt;Node14 -->
<g id="edge16_Node000011_Node000014" class="edge">
<title>Node11&#45;&gt;Node14</title>
<g id="a_edge16_Node000011_Node000014"><a xlink:title=" ">
<path fill="none" stroke="#63b8ff" d="M371.48,-274.98C318.39,-265.67 233.31,-250.74 176.56,-240.78"/>
<polygon fill="#63b8ff" stroke="#63b8ff" points="177.11,-237.32 166.65,-239.04 175.9,-244.21 177.11,-237.32"/>
</a>
</g>
</g>
<!-- Node19 -->
<g id="Node000019" class="node">
<title>Node19</title>
<g id="a_Node000019"><a xlink:href="DenseComponentArray_8h.html" target="_top" xlink:title="Provides dense storage for components of a specific type.">
<polygon fill="white" stroke="#666666" points="604.5,-239 467.5,-239 467.5,-220 604.5,-220 604.5,-239"/>
<text text-anchor="middle" x="536" y="-227" font-family="Helvetica,sans-Serif" font-size="10.00">DenseComponentArray.h</text>
</a>
</g>
</g>
<!-- Node11&#45;&gt;Node19 -->
<g id="edge24_Node000011_Node000019" class="edge">
<title>Node11&#45;&gt;Node19</title>
<g id="a_edge24_Node000011_Node000019"><a xlink:title=" ">
<path fill="none" stroke="#63b8ff" d="M438.64,-274.98C457.3,-266.46 486.25,-253.23 507.74,-243.41"/>
<polygon fill="#63b8ff" stroke="#63b8ff" points="509.38,-246.51 517.02,-239.17 506.47,-240.14 509.38,-246.51"/>
</a>
</g>
</g>
<!-- Node20 -->
<g id="Node000020" class="node">
<title>Node20</title>
<g id="a_Node000020"><a xlink:href="IComponentArray_8h.html" target="_top" xlink:title="A data structure built for managing a specific component type.">
<polygon fill="white" stroke="#666666" points="651,-184 541,-184 541,-165 651,-165 651,-184"/>
<text text-anchor="middle" x="596" y="-172" font-family="Helvetica,sans-Serif" font-size="10.00">IComponentArray.h</text>
</a>
</g>
</g>
<!-- Node11&#45;&gt;Node20 -->
<g id="edge29_Node000011_Node000020" class="edge">
<title>Node11&#45;&gt;Node20</title>
<g id="a_edge29_Node000011_Node000020"><a xlink:title=" ">
<path fill="none" stroke="#63b8ff" d="M497.75,-275.52C545.13,-268.87 599.31,-257.45 614,-239 624.56,-225.75 616.91,-206.62 608.57,-192.82"/>
<polygon fill="#63b8ff" stroke="#63b8ff" points="611.34,-190.66 602.9,-184.26 605.5,-194.53 611.34,-190.66"/>
</a>
</g>
</g>
<!-- Node15 -->
<g id="Node000015" class="node">
<title>Node15</title>
<g id="a_Node000015"><a xlink:title=" ">
<polygon fill="#e0e0e0" stroke="#999999" points="213,-184 153,-184 153,-165 213,-165 213,-184"/>
<text text-anchor="middle" x="183" y="-172" font-family="Helvetica,sans-Serif" font-size="10.00">iostream</text>
</a>
</g>
</g>
<!-- Node14&#45;&gt;Node15 -->
<g id="edge17_Node000014_Node000015" class="edge">
<title>Node14&#45;&gt;Node15</title>
<g id="a_edge17_Node000014_Node000015"><a xlink:title=" ">
<path fill="none" stroke="#63b8ff" d="M128.44,-219.98C138.15,-212.07 152.82,-200.11 164.5,-190.58"/>
<polygon fill="#63b8ff" stroke="#63b8ff" points="166.83,-193.2 172.37,-184.17 162.4,-187.78 166.83,-193.2"/>
</a>
</g>
</g>
<!-- Node16 -->
<g id="Node000016" class="node">
<title>Node16</title>
<g id="a_Node000016"><a xlink:href="Logger_8h.html" target="_top" xlink:title="Central static logging interface for the application.">
<polygon fill="white" stroke="#666666" points="134.5,-184 67.5,-184 67.5,-165 134.5,-165 134.5,-184"/>
<text text-anchor="middle" x="101" y="-172" font-family="Helvetica,sans-Serif" font-size="10.00">../Logger.h</text>
</a>
</g>
</g>
<!-- Node14&#45;&gt;Node16 -->
<g id="edge18_Node000014_Node000016" class="edge">
<title>Node14&#45;&gt;Node16</title>
<g id="a_edge18_Node000014_Node000016"><a xlink:title=" ">
<path fill="none" stroke="#63b8ff" d="M115.19,-219.75C112.94,-212.72 109.7,-202.62 106.88,-193.84"/>
<polygon fill="#63b8ff" stroke="#63b8ff" points="110.14,-192.54 103.75,-184.09 103.48,-194.68 110.14,-192.54"/>
</a>
</g>
</g>
<!-- Node18 -->
<g id="Node000018" class="node">
<title>Node18</title>
<g id="a_Node000018"><a xlink:href="ISink_8h.html" target="_top" xlink:title="Declares the logging sink interface.">
<polygon fill="white" stroke="#666666" points="78,-129 0,-129 0,-110 78,-110 78,-129"/>
<text text-anchor="middle" x="39" y="-117" font-family="Helvetica,sans-Serif" font-size="10.00">sinks/ISink.h</text>
</a>
</g>
</g>
<!-- Node14&#45;&gt;Node18 -->
<g id="edge23_Node000014_Node000018" class="edge">
<title>Node14&#45;&gt;Node18</title>
<g id="a_edge23_Node000014_Node000018"><a xlink:title=" ">
<path fill="none" stroke="#63b8ff" d="M101.13,-219.97C87.6,-212.3 69.1,-199.82 58,-184 48.6,-170.6 43.78,-152.5 41.36,-139.05"/>
<polygon fill="#63b8ff" stroke="#63b8ff" points="44.8,-138.41 39.83,-129.05 37.88,-139.47 44.8,-138.41"/>
</a>
</g>
</g>
<!-- Node16&#45;&gt;Node3 -->
<g id="edge19_Node000016_Node000003" class="edge">
<title>Node16&#45;&gt;Node3</title>
<g id="a_edge19_Node000016_Node000003"><a xlink:title=" ">
<path fill="none" stroke="#63b8ff" d="M126.55,-164.98C153.12,-156.13 194.94,-142.19 224.67,-132.28"/>
<polygon fill="#63b8ff" stroke="#63b8ff" points="225.87,-135.56 234.25,-129.08 223.66,-128.92 225.87,-135.56"/>
</a>
</g>
</g>
<!-- Node17 -->
<g id="Node000017" class="node">
<title>Node17</title>
<g id="a_Node000017"><a xlink:title=" ">
<polygon fill="#e0e0e0" stroke="#999999" points="109.5,-74 36.5,-74 36.5,-55 109.5,-55 109.5,-74"/>
<text text-anchor="middle" x="73" y="-62" font-family="Helvetica,sans-Serif" font-size="10.00">string_view</text>
</a>
</g>
</g>
<!-- Node16&#45;&gt;Node17 -->
<g id="edge20_Node000016_Node000017" class="edge">
<title>Node16&#45;&gt;Node17</title>
<g id="a_edge20_Node000016_Node000017"><a xlink:title=" ">
<path fill="none" stroke="#63b8ff" d="M99.34,-164.81C96.93,-152.53 92.18,-129.41 87,-110 84.7,-101.39 81.79,-91.97 79.22,-84.01"/>
<polygon fill="#63b8ff" stroke="#63b8ff" points="82.48,-82.7 76.02,-74.3 75.83,-84.89 82.48,-82.7"/>
</a>
</g>
</g>
<!-- Node16&#45;&gt;Node18 -->
<g id="edge21_Node000016_Node000018" class="edge">
<title>Node16&#45;&gt;Node18</title>
<g id="a_edge21_Node000016_Node000018"><a xlink:title=" ">
<path fill="none" stroke="#63b8ff" d="M91.04,-164.98C81.87,-157.15 68.06,-145.34 56.97,-135.86"/>
<polygon fill="#63b8ff" stroke="#63b8ff" points="59.02,-133.01 49.14,-129.17 54.47,-138.33 59.02,-133.01"/>
</a>
</g>
</g>
<!-- Node18&#45;&gt;Node17 -->
<g id="edge22_Node000018_Node000017" class="edge">
<title>Node18&#45;&gt;Node17</title>
<g id="a_edge22_Node000018_Node000017"><a xlink:title=" ">
<path fill="none" stroke="#63b8ff" d="M44.61,-109.75C49.32,-102.42 56.17,-91.73 61.97,-82.7"/>
<polygon fill="#63b8ff" stroke="#63b8ff" points="65.04,-84.4 67.49,-74.09 59.14,-80.62 65.04,-84.4"/>
</a>
</g>
</g>
<!-- Node19&#45;&gt;Node13 -->
<g id="edge27_Node000019_Node000013" class="edge">
<title>Node19&#45;&gt;Node13</title>
<g id="a_edge27_Node000019_Node000013"><a xlink:title=" ">
<path fill="none" stroke="#63b8ff" d="M526.36,-219.98C517.49,-212.15 504.13,-200.34 493.39,-190.86"/>
<polygon fill="#63b8ff" stroke="#63b8ff" points="495.63,-188.17 485.82,-184.17 490.99,-193.41 495.63,-188.17"/>
</a>
</g>
</g>
<!-- Node19&#45;&gt;Node20 -->
<g id="edge25_Node000019_Node000020" class="edge">
<title>Node19&#45;&gt;Node20</title>
<g id="a_edge25_Node000019_Node000020"><a xlink:title=" ">
<path fill="none" stroke="#63b8ff" d="M545.64,-219.98C554.51,-212.15 567.87,-200.34 578.61,-190.86"/>
<polygon fill="#63b8ff" stroke="#63b8ff" points="581.01,-193.41 586.18,-184.17 576.37,-188.17 581.01,-193.41"/>
</a>
</g>
</g>
<!-- Node20&#45;&gt;Node4 -->
<g id="edge26_Node000020_Node000004" class="edge">
<title>Node20&#45;&gt;Node4</title>
<g id="a_edge26_Node000020_Node000004"><a xlink:title=" ">
<path fill="none" stroke="#63b8ff" d="M618.49,-164.98C641.52,-156.27 677.54,-142.63 703.63,-132.75"/>
<polygon fill="#63b8ff" stroke="#63b8ff" points="704.98,-135.98 713.1,-129.17 702.51,-129.44 704.98,-135.98"/>
</a>
</g>
</g>
<!-- Node21&#45;&gt;Node4 -->
<g id="edge32_Node000021_Node000004" class="edge">
<title>Node21&#45;&gt;Node4</title>
<g id="a_edge32_Node000021_Node000004"><a xlink:title=" ">
<path fill="none" stroke="#63b8ff" d="M1052.43,-164.98C978.78,-154.63 855.8,-137.34 786.85,-127.65"/>
<polygon fill="#63b8ff" stroke="#63b8ff" points="787.06,-124.14 776.67,-126.22 786.09,-131.08 787.06,-124.14"/>
</a>
</g>
</g>
<!-- Node21&#45;&gt;Node7 -->
<g id="edge33_Node000021_Node000007" class="edge">
<title>Node21&#45;&gt;Node7</title>
<g id="a_edge33_Node000021_Node000007"><a xlink:title=" ">
<path fill="none" stroke="#63b8ff" d="M1112.98,-164.72C1112.45,-151 1109.36,-124.58 1094,-110 1074.89,-91.86 1007.3,-78.92 959.86,-71.83"/>
<polygon fill="#63b8ff" stroke="#63b8ff" points="960.17,-68.34 949.77,-70.36 959.16,-75.26 960.17,-68.34"/>
</a>
</g>
</g>
<!-- Node22 -->
<g id="Node000022" class="node">
<title>Node22</title>
<g id="a_Node000022"><a xlink:title=" ">
<polygon fill="#e0e0e0" stroke="#999999" points="1085,-129 999,-129 999,-110 1085,-110 1085,-129"/>
<text text-anchor="middle" x="1042" y="-117" font-family="Helvetica,sans-Serif" font-size="10.00">unordered_set</text>
</a>
</g>
</g>
<!-- Node21&#45;&gt;Node22 -->
<g id="edge31_Node000021_Node000022" class="edge">
<title>Node21&#45;&gt;Node22</title>
<g id="a_edge31_Node000021_Node000022"><a xlink:title=" ">
<path fill="none" stroke="#63b8ff" d="M1101.59,-164.98C1090.89,-157 1074.66,-144.88 1061.84,-135.31"/>
<polygon fill="#63b8ff" stroke="#63b8ff" points="1063.72,-132.35 1053.61,-129.17 1059.53,-137.96 1063.72,-132.35"/>
</a>
</g>
</g>
<!-- Node23&#45;&gt;Node4 -->
<g id="edge35_Node000023_Node000004" class="edge">
<title>Node23&#45;&gt;Node4</title>
<g id="a_edge35_Node000023_Node000004"><a xlink:title=" ">
<path fill="none" stroke="#63b8ff" d="M926.53,-164.98C887.43,-155.86 825.23,-141.33 782.61,-131.38"/>
<polygon fill="#63b8ff" stroke="#63b8ff" points="783.29,-127.95 772.76,-129.08 781.7,-134.76 783.29,-127.95"/>
</a>
</g>
</g>
<!-- Node23&#45;&gt;Node7 -->
<g id="edge36_Node000023_Node000007" class="edge">
<title>Node23&#45;&gt;Node7</title>
<g id="a_edge36_Node000023_Node000007"><a xlink:title=" ">
<path fill="none" stroke="#63b8ff" d="M958.74,-164.66C950.21,-146.93 930.85,-106.73 919.58,-83.32"/>
<polygon fill="#63b8ff" stroke="#63b8ff" points="922.66,-81.65 915.17,-74.16 916.35,-84.69 922.66,-81.65"/>
</a>
</g>
</g>
<!-- Node24&#45;&gt;Node3 -->
<g id="edge38_Node000024_Node000003" class="edge">
<title>Node24&#45;&gt;Node3</title>
<g id="a_edge38_Node000024_Node000003"><a xlink:title=" ">
<path fill="none" stroke="#63b8ff" d="M829.44,-274.7C804.1,-251.95 732.18,-191.17 660,-165 594.19,-141.14 386.38,-127.37 299.15,-122.51"/>
<polygon fill="#63b8ff" stroke="#63b8ff" points="299.31,-119.02 289.13,-121.96 298.92,-126 299.31,-119.02"/>
</a>
</g>
</g>
<!-- Node24&#45;&gt;Node25 -->
<g id="edge39_Node000024_Node000025" class="edge">
<title>Node24&#45;&gt;Node25</title>
<g id="a_edge39_Node000024_Node000025"><a xlink:title=" ">
<path fill="none" stroke="#63b8ff" d="M846.93,-274.75C853.85,-267.11 864.07,-255.82 872.45,-246.56"/>
<polygon fill="#63b8ff" stroke="#63b8ff" points="875.1,-248.85 879.22,-239.09 869.91,-244.15 875.1,-248.85"/>
</a>
</g>
</g>
<!-- Node25&#45;&gt;Node23 -->
<g id="edge41_Node000025_Node000023" class="edge">
<title>Node25&#45;&gt;Node23</title>
<g id="a_edge41_Node000025_Node000023"><a xlink:title=" ">
<path fill="none" stroke="#63b8ff" d="M899.21,-219.98C910.78,-211.92 928.38,-199.65 942.16,-190.03"/>
<polygon fill="#63b8ff" stroke="#63b8ff" points="944.37,-192.76 950.57,-184.17 940.36,-187.02 944.37,-192.76"/>
</a>
</g>
</g>
<!-- Node26 -->
<g id="Node000026" class="node">
<title>Node26</title>
<g id="a_Node000026"><a xlink:title=" ">
<polygon fill="#e0e0e0" stroke="#999999" points="877,-184 833,-184 833,-165 877,-165 877,-184"/>
<text text-anchor="middle" x="855" y="-172" font-family="Helvetica,sans-Serif" font-size="10.00">string</text>
</a>
</g>
</g>
<!-- Node25&#45;&gt;Node26 -->
<g id="edge40_Node000025_Node000026" class="edge">
<title>Node25&#45;&gt;Node26</title>
<g id="a_edge40_Node000025_Node000026"><a xlink:title=" ">
<path fill="none" stroke="#63b8ff" d="M881.72,-219.75C877.29,-212.42 870.84,-201.73 865.38,-192.7"/>
<polygon fill="#63b8ff" stroke="#63b8ff" points="868.35,-190.84 860.19,-184.09 862.36,-194.46 868.35,-190.84"/>
</a>
</g>
</g>
</g>
</svg>
