<?xml version="1.0" encoding="UTF-8" standalone="no"?>
<!DOCTYPE svg PUBLIC "-//W3C//DTD SVG 1.1//EN"
 "http://www.w3.org/Graphics/SVG/1.1/DTD/svg11.dtd">
<!-- Generated by graphviz version 2.43.0 (0)
 -->
<!-- Title: PlayerMoveCommand.cpp Pages: 1 -->
<svg width="1196pt" height="489pt"
 viewBox="0.00 0.00 1196.00 489.00" xmlns="http://www.w3.org/2000/svg" xmlns:xlink="http://www.w3.org/1999/xlink">
<g id="graph0" class="graph" transform="scale(1 1) rotate(0) translate(4 485)">
<title>PlayerMoveCommand.cpp</title>
<!-- Node1 -->
<g id="Node000001" class="node">
<title>Node1</title>
<g id="a_Node000001"><a xlink:title=" ">
<polygon fill="#999999" stroke="#666666" points="1128.5,-481 983.5,-481 983.5,-462 1128.5,-462 1128.5,-481"/>
<text text-anchor="middle" x="1056" y="-469" font-family="Helvetica,sans-Serif" font-size="10.00">PlayerMoveCommand.cpp</text>
</a>
</g>
</g>
<!-- Node2 -->
<g id="Node000002" class="node">
<title>Node2</title>
<g id="a_Node000002"><a xlink:href="PlayerMoveCommand_8h.html" target="_top" xlink:title="A command for triggering player (paddle) movement.">
<polygon fill="white" stroke="#666666" points="1076.5,-426 939.5,-426 939.5,-396 1076.5,-396 1076.5,-426"/>
<text text-anchor="start" x="947.5" y="-414" font-family="Helvetica,sans-Serif" font-size="10.00">../../include/gamestate</text>
<text text-anchor="middle" x="1008" y="-403" font-family="Helvetica,sans-Serif" font-size="10.00">/PlayerMoveCommand.h</text>
</a>
</g>
</g>
<!-- Node1&#45;&gt;Node2 -->
<g id="edge1_Node000001_Node000002" class="edge">
<title>Node1&#45;&gt;Node2</title>
<g id="a_edge1_Node000001_Node000002"><a xlink:title=" ">
<path fill="none" stroke="#63b8ff" d="M1048.92,-461.87C1042.89,-454.52 1033.96,-443.63 1025.98,-433.91"/>
<polygon fill="#63b8ff" stroke="#63b8ff" points="1028.63,-431.63 1019.58,-426.11 1023.22,-436.07 1028.63,-431.63"/>
</a>
</g>
</g>
<!-- Node28 -->
<g id="Node000028" class="node">
<title>Node28</title>
<g id="a_Node000028"><a xlink:href="Components_8h.html" target="_top" xlink:title="Defines core gameplay component structures for ECS entities.">
<polygon fill="white" stroke="#666666" points="1188,-360 1036,-360 1036,-330 1188,-330 1188,-360"/>
<text text-anchor="start" x="1044" y="-348" font-family="Helvetica,sans-Serif" font-size="10.00">../../include/ecs/components</text>
<text text-anchor="middle" x="1112" y="-337" font-family="Helvetica,sans-Serif" font-size="10.00">/Components.h</text>
</a>
</g>
</g>
<!-- Node1&#45;&gt;Node28 -->
<g id="edge44_Node000001_Node000028" class="edge">
<title>Node1&#45;&gt;Node28</title>
<g id="a_edge44_Node000001_Node000028"><a xlink:title=" ">
<path fill="none" stroke="#63b8ff" d="M1062.99,-461.75C1069.63,-453.08 1079.55,-439.23 1086,-426 1094.82,-407.91 1101.68,-386.11 1106.13,-369.84"/>
<polygon fill="#63b8ff" stroke="#63b8ff" points="1109.55,-370.6 1108.71,-360.04 1102.78,-368.83 1109.55,-370.6"/>
</a>
</g>
</g>
<!-- Node3 -->
<g id="Node000003" class="node">
<title>Node3</title>
<g id="a_Node000003"><a xlink:href="GameWorld_8h.html" target="_top" xlink:title="Defines the concrete game world used by the main loop.">
<polygon fill="white" stroke="#666666" points="508.5,-354.5 425.5,-354.5 425.5,-335.5 508.5,-335.5 508.5,-354.5"/>
<text text-anchor="middle" x="467" y="-342.5" font-family="Helvetica,sans-Serif" font-size="10.00">GameWorld.h</text>
</a>
</g>
</g>
<!-- Node2&#45;&gt;Node3 -->
<g id="edge2_Node000002_Node000003" class="edge">
<title>Node2&#45;&gt;Node3</title>
<g id="a_edge2_Node000002_Node000003"><a xlink:title=" ">
<path fill="none" stroke="#63b8ff" d="M939.48,-401.89C829.64,-388.9 616.56,-363.69 518.57,-352.1"/>
<polygon fill="#63b8ff" stroke="#63b8ff" points="518.95,-348.62 508.61,-350.92 518.13,-355.57 518.95,-348.62"/>
</a>
</g>
</g>
<!-- Node26 -->
<g id="Node000026" class="node">
<title>Node26</title>
<g id="a_Node000026"><a xlink:href="ICommand_8h.html" target="_top" xlink:title="An abstract representation of an action to be executed in the game engine.">
<polygon fill="white" stroke="#666666" points="1077.5,-239 998.5,-239 998.5,-220 1077.5,-220 1077.5,-239"/>
<text text-anchor="middle" x="1038" y="-227" font-family="Helvetica,sans-Serif" font-size="10.00">ICommand.h</text>
</a>
</g>
</g>
<!-- Node2&#45;&gt;Node26 -->
<g id="edge43_Node000002_Node000026" class="edge">
<title>Node2&#45;&gt;Node26</title>
<g id="a_edge43_Node000002_Node000026"><a xlink:title=" ">
<path fill="none" stroke="#63b8ff" d="M1010.35,-395.91C1015.71,-363.85 1028.83,-285.38 1034.86,-249.26"/>
<polygon fill="#63b8ff" stroke="#63b8ff" points="1038.36,-249.58 1036.56,-239.13 1031.46,-248.42 1038.36,-249.58"/>
</a>
</g>
</g>
<!-- Node4 -->
<g id="Node000004" class="node">
<title>Node4</title>
<g id="a_Node000004"><a xlink:title=" ">
<polygon fill="#e0e0e0" stroke="#999999" points="942,-129 884,-129 884,-110 942,-110 942,-129"/>
<text text-anchor="middle" x="913" y="-117" font-family="Helvetica,sans-Serif" font-size="10.00">memory</text>
</a>
</g>
</g>
<!-- Node3&#45;&gt;Node4 -->
<g id="edge3_Node000003_Node000004" class="edge">
<title>Node3&#45;&gt;Node4</title>
<g id="a_edge3_Node000003_Node000004"><a xlink:title=" ">
<path fill="none" stroke="#63b8ff" d="M508.56,-342.83C620.45,-339.24 921.58,-326.62 951,-294 991.4,-249.21 947.87,-171.57 925.09,-137.43"/>
<polygon fill="#63b8ff" stroke="#63b8ff" points="927.85,-135.27 919.3,-129.02 922.09,-139.24 927.85,-135.27"/>
</a>
</g>
</g>
<!-- Node5 -->
<g id="Node000005" class="node">
<title>Node5</title>
<g id="a_Node000005"><a xlink:href="Entity_8h.html" target="_top" xlink:title="Simple struct for Entity in the ECS module (includes version)">
<polygon fill="white" stroke="#666666" points="237.5,-129 156.5,-129 156.5,-110 237.5,-110 237.5,-129"/>
<text text-anchor="middle" x="197" y="-117" font-family="Helvetica,sans-Serif" font-size="10.00">../ecs/Entity.h</text>
</a>
</g>
</g>
<!-- Node3&#45;&gt;Node5 -->
<g id="edge4_Node000003_Node000005" class="edge">
<title>Node3&#45;&gt;Node5</title>
<g id="a_edge4_Node000003_Node000005"><a xlink:title=" ">
<path fill="none" stroke="#63b8ff" d="M425.49,-343.04C342.88,-340.36 161.65,-330.39 113,-294 66.17,-258.97 54.31,-213.49 87,-165 100.38,-145.15 124.28,-134.15 146.39,-128.06"/>
<polygon fill="#63b8ff" stroke="#63b8ff" points="147.51,-131.39 156.38,-125.59 145.83,-124.59 147.51,-131.39"/>
</a>
</g>
</g>
<!-- Node8 -->
<g id="Node000008" class="node">
<title>Node8</title>
<g id="a_Node000008"><a xlink:href="ecs__config_8h.html" target="_top" xlink:title="Configuration constants and type definitions for ECS modules.">
<polygon fill="white" stroke="#666666" points="385.5,-74 308.5,-74 308.5,-55 385.5,-55 385.5,-74"/>
<text text-anchor="middle" x="347" y="-62" font-family="Helvetica,sans-Serif" font-size="10.00">ecs_config.h</text>
</a>
</g>
</g>
<!-- Node3&#45;&gt;Node8 -->
<g id="edge12_Node000003_Node000008" class="edge">
<title>Node3&#45;&gt;Node8</title>
<g id="a_edge12_Node000003_Node000008"><a xlink:title=" ">
<path fill="none" stroke="#63b8ff" d="M425.15,-342.73C310.52,-338.12 0,-317.59 0,-230.5 0,-230.5 0,-230.5 0,-173.5 0,-102.33 79.3,-131.94 147,-110 197.69,-93.57 257.54,-81.13 298.47,-73.64"/>
<polygon fill="#63b8ff" stroke="#63b8ff" points="299.24,-77.06 308.46,-71.84 297.99,-70.17 299.24,-77.06"/>
</a>
</g>
</g>
<!-- Node11 -->
<g id="Node000011" class="node">
<title>Node11</title>
<g id="a_Node000011"><a xlink:href="IGameWorld_8h.html" target="_top" xlink:title="Declares the interface for interacting with the active game world state.">
<polygon fill="white" stroke="#666666" points="208,-294 122,-294 122,-275 208,-275 208,-294"/>
<text text-anchor="middle" x="165" y="-282" font-family="Helvetica,sans-Serif" font-size="10.00">IGameWorld.h</text>
</a>
</g>
</g>
<!-- Node3&#45;&gt;Node11 -->
<g id="edge10_Node000003_Node000011" class="edge">
<title>Node3&#45;&gt;Node11</title>
<g id="a_edge10_Node000003_Node000011"><a xlink:title=" ">
<path fill="none" stroke="#63b8ff" d="M425.33,-335.93C371.33,-325.47 277.14,-307.22 218.08,-295.78"/>
<polygon fill="#63b8ff" stroke="#63b8ff" points="218.68,-292.33 208.2,-293.87 217.35,-299.21 218.68,-292.33"/>
</a>
</g>
</g>
<!-- Node12 -->
<g id="Node000012" class="node">
<title>Node12</title>
<g id="a_Node000012"><a xlink:href="IComponentManager_8h.html" target="_top" xlink:title="System for managing components and their relationship to specific entities.">
<polygon fill="white" stroke="#666666" points="423.5,-294 268.5,-294 268.5,-275 423.5,-275 423.5,-294"/>
<text text-anchor="middle" x="346" y="-282" font-family="Helvetica,sans-Serif" font-size="10.00">../ecs/IComponentManager.h</text>
</a>
</g>
</g>
<!-- Node3&#45;&gt;Node12 -->
<g id="edge13_Node000003_Node000012" class="edge">
<title>Node3&#45;&gt;Node12</title>
<g id="a_edge13_Node000003_Node000012"><a xlink:title=" ">
<path fill="none" stroke="#63b8ff" d="M449.41,-335.49C429.24,-325.75 395.98,-309.66 372.64,-298.38"/>
<polygon fill="#63b8ff" stroke="#63b8ff" points="374.14,-295.22 363.62,-294.02 371.1,-301.52 374.14,-295.22"/>
</a>
</g>
</g>
<!-- Node22 -->
<g id="Node000022" class="node">
<title>Node22</title>
<g id="a_Node000022"><a xlink:href="IEntityManager_8h.html" target="_top" xlink:title="Interface for managing entities and their signatures.">
<polygon fill="white" stroke="#666666" points="510,-184 382,-184 382,-165 510,-165 510,-184"/>
<text text-anchor="middle" x="446" y="-172" font-family="Helvetica,sans-Serif" font-size="10.00">../ecs/IEntityManager.h</text>
</a>
</g>
</g>
<!-- Node3&#45;&gt;Node22 -->
<g id="edge31_Node000003_Node000022" class="edge">
<title>Node3&#45;&gt;Node22</title>
<g id="a_edge31_Node000003_Node000022"><a xlink:title=" ">
<path fill="none" stroke="#63b8ff" d="M465.93,-335.41C462.69,-309.39 452.91,-230.97 448.37,-194.51"/>
<polygon fill="#63b8ff" stroke="#63b8ff" points="451.8,-193.76 447.09,-184.27 444.86,-194.63 451.8,-193.76"/>
</a>
</g>
</g>
<!-- Node24 -->
<g id="Node000024" class="node">
<title>Node24</title>
<g id="a_Node000024"><a xlink:href="ISystemManager_8h.html" target="_top" xlink:title="Declares the interface for managing registered systems.">
<polygon fill="white" stroke="#666666" points="742,-184 606,-184 606,-165 742,-165 742,-184"/>
<text text-anchor="middle" x="674" y="-172" font-family="Helvetica,sans-Serif" font-size="10.00">../ecs/ISystemManager.h</text>
</a>
</g>
</g>
<!-- Node3&#45;&gt;Node24 -->
<g id="edge35_Node000003_Node000024" class="edge">
<title>Node3&#45;&gt;Node24</title>
<g id="a_edge35_Node000003_Node000024"><a xlink:title=" ">
<path fill="none" stroke="#63b8ff" d="M508.84,-339.17C564.44,-330.26 660.68,-305.58 704,-239 713.91,-223.77 702.11,-204.74 690.52,-191.51"/>
<polygon fill="#63b8ff" stroke="#63b8ff" points="692.94,-188.97 683.53,-184.1 687.85,-193.78 692.94,-188.97"/>
</a>
</g>
</g>
<!-- Node25 -->
<g id="Node000025" class="node">
<title>Node25</title>
<g id="a_Node000025"><a xlink:href="ICommandQueue_8h.html" target="_top" xlink:title="A lightweight wrapper for queuing commands.">
<polygon fill="white" stroke="#666666" points="942,-294 832,-294 832,-275 942,-275 942,-294"/>
<text text-anchor="middle" x="887" y="-282" font-family="Helvetica,sans-Serif" font-size="10.00">ICommandQueue.h</text>
</a>
</g>
</g>
<!-- Node3&#45;&gt;Node25 -->
<g id="edge38_Node000003_Node000025" class="edge">
<title>Node3&#45;&gt;Node25</title>
<g id="a_edge38_Node000003_Node000025"><a xlink:title=" ">
<path fill="none" stroke="#63b8ff" d="M508.81,-338.18C582.15,-327.96 734.5,-306.74 821.8,-294.58"/>
<polygon fill="#63b8ff" stroke="#63b8ff" points="822.43,-298.03 831.85,-293.18 821.47,-291.09 822.43,-298.03"/>
</a>
</g>
</g>
<!-- Node6 -->
<g id="Node000006" class="node">
<title>Node6</title>
<g id="a_Node000006"><a xlink:title=" ">
<polygon fill="#e0e0e0" stroke="#999999" points="184,-74 134,-74 134,-55 184,-55 184,-74"/>
<text text-anchor="middle" x="159" y="-62" font-family="Helvetica,sans-Serif" font-size="10.00">cstdint</text>
</a>
</g>
</g>
<!-- Node5&#45;&gt;Node6 -->
<g id="edge5_Node000005_Node000006" class="edge">
<title>Node5&#45;&gt;Node6</title>
<g id="a_edge5_Node000005_Node000006"><a xlink:title=" ">
<path fill="none" stroke="#63b8ff" d="M190.73,-109.75C185.41,-102.34 177.64,-91.5 171.12,-82.41"/>
<polygon fill="#63b8ff" stroke="#63b8ff" points="173.83,-80.18 165.16,-74.09 168.14,-84.26 173.83,-80.18"/>
</a>
</g>
</g>
<!-- Node7 -->
<g id="Node000007" class="node">
<title>Node7</title>
<g id="a_Node000007"><a xlink:title=" ">
<polygon fill="#e0e0e0" stroke="#999999" points="267.5,-74 202.5,-74 202.5,-55 267.5,-55 267.5,-74"/>
<text text-anchor="middle" x="235" y="-62" font-family="Helvetica,sans-Serif" font-size="10.00">functional</text>
</a>
</g>
</g>
<!-- Node5&#45;&gt;Node7 -->
<g id="edge6_Node000005_Node000007" class="edge">
<title>Node5&#45;&gt;Node7</title>
<g id="a_edge6_Node000005_Node000007"><a xlink:title=" ">
<path fill="none" stroke="#63b8ff" d="M203.27,-109.75C208.59,-102.34 216.36,-91.5 222.88,-82.41"/>
<polygon fill="#63b8ff" stroke="#63b8ff" points="225.86,-84.26 228.84,-74.09 220.17,-80.18 225.86,-84.26"/>
</a>
</g>
</g>
<!-- Node5&#45;&gt;Node8 -->
<g id="edge7_Node000005_Node000008" class="edge">
<title>Node5&#45;&gt;Node8</title>
<g id="a_edge7_Node000005_Node000008"><a xlink:title=" ">
<path fill="none" stroke="#63b8ff" d="M221.1,-109.98C245.88,-101.23 284.7,-87.51 312.69,-77.62"/>
<polygon fill="#63b8ff" stroke="#63b8ff" points="314.2,-80.8 322.46,-74.17 311.87,-74.2 314.2,-80.8"/>
</a>
</g>
</g>
<!-- Node9 -->
<g id="Node000009" class="node">
<title>Node9</title>
<g id="a_Node000009"><a xlink:title=" ">
<polygon fill="#e0e0e0" stroke="#999999" points="335,-19 291,-19 291,0 335,0 335,-19"/>
<text text-anchor="middle" x="313" y="-7" font-family="Helvetica,sans-Serif" font-size="10.00">bitset</text>
</a>
</g>
</g>
<!-- Node8&#45;&gt;Node9 -->
<g id="edge8_Node000008_Node000009" class="edge">
<title>Node8&#45;&gt;Node9</title>
<g id="a_edge8_Node000008_Node000009"><a xlink:title=" ">
<path fill="none" stroke="#63b8ff" d="M341.39,-54.75C336.68,-47.42 329.83,-36.73 324.03,-27.7"/>
<polygon fill="#63b8ff" stroke="#63b8ff" points="326.86,-25.62 318.51,-19.09 320.96,-29.4 326.86,-25.62"/>
</a>
</g>
</g>
<!-- Node10 -->
<g id="Node000010" class="node">
<title>Node10</title>
<g id="a_Node000010"><a xlink:title=" ">
<polygon fill="#e0e0e0" stroke="#999999" points="406.5,-19 353.5,-19 353.5,0 406.5,0 406.5,-19"/>
<text text-anchor="middle" x="380" y="-7" font-family="Helvetica,sans-Serif" font-size="10.00">cstddef</text>
</a>
</g>
</g>
<!-- Node8&#45;&gt;Node10 -->
<g id="edge9_Node000008_Node000010" class="edge">
<title>Node8&#45;&gt;Node10</title>
<g id="a_edge9_Node000008_Node000010"><a xlink:title=" ">
<path fill="none" stroke="#63b8ff" d="M352.45,-54.75C357.01,-47.42 363.67,-36.73 369.29,-27.7"/>
<polygon fill="#63b8ff" stroke="#63b8ff" points="372.34,-29.43 374.65,-19.09 366.4,-25.73 372.34,-29.43"/>
</a>
</g>
</g>
<!-- Node11&#45;&gt;Node5 -->
<g id="edge11_Node000011_Node000005" class="edge">
<title>Node11&#45;&gt;Node5</title>
<g id="a_edge11_Node000011_Node000005"><a xlink:title=" ">
<path fill="none" stroke="#63b8ff" d="M142.88,-274.95C127.8,-267.82 108.99,-256.06 100,-239 84.66,-209.91 82.24,-192.68 100,-165 110.47,-148.68 128.58,-138.27 146.34,-131.66"/>
<polygon fill="#63b8ff" stroke="#63b8ff" points="147.76,-134.88 156.12,-128.37 145.53,-128.24 147.76,-134.88"/>
</a>
</g>
</g>
<!-- Node12&#45;&gt;Node4 -->
<g id="edge14_Node000012_Node000004" class="edge">
<title>Node12&#45;&gt;Node4</title>
<g id="a_edge14_Node000012_Node000004"><a xlink:title=" ">
<path fill="none" stroke="#63b8ff" d="M423.59,-277.73C553.17,-266.69 806.22,-238.64 875,-184 889.75,-172.28 900.07,-153.16 906.19,-138.95"/>
<polygon fill="#63b8ff" stroke="#63b8ff" points="909.61,-139.84 910.07,-129.25 903.11,-137.24 909.61,-139.84"/>
</a>
</g>
</g>
<!-- Node12&#45;&gt;Node5 -->
<g id="edge29_Node000012_Node000005" class="edge">
<title>Node12&#45;&gt;Node5</title>
<g id="a_edge29_Node000012_Node000005"><a xlink:title=" ">
<path fill="none" stroke="#63b8ff" d="M268.2,-278.79C233.12,-273.31 192.95,-262 163,-239 134.86,-217.38 116.56,-196.45 133,-165 140.11,-151.39 153.49,-141.1 166.19,-133.87"/>
<polygon fill="#63b8ff" stroke="#63b8ff" points="167.98,-136.88 175.21,-129.13 164.73,-130.68 167.98,-136.88"/>
</a>
</g>
</g>
<!-- Node13 -->
<g id="Node000013" class="node">
<title>Node13</title>
<g id="a_Node000013"><a xlink:title=" ">
<polygon fill="#e0e0e0" stroke="#999999" points="245.5,-239 180.5,-239 180.5,-220 245.5,-220 245.5,-239"/>
<text text-anchor="middle" x="213" y="-227" font-family="Helvetica,sans-Serif" font-size="10.00">typeindex</text>
</a>
</g>
</g>
<!-- Node12&#45;&gt;Node13 -->
<g id="edge15_Node000012_Node000013" class="edge">
<title>Node12&#45;&gt;Node13</title>
<g id="a_edge15_Node000012_Node000013"><a xlink:title=" ">
<path fill="none" stroke="#63b8ff" d="M324.63,-274.98C302.85,-266.3 268.84,-252.75 244.08,-242.88"/>
<polygon fill="#63b8ff" stroke="#63b8ff" points="245.34,-239.62 234.76,-239.17 242.75,-246.12 245.34,-239.62"/>
</a>
</g>
</g>
<!-- Node14 -->
<g id="Node000014" class="node">
<title>Node14</title>
<g id="a_Node000014"><a xlink:title=" ">
<polygon fill="#e0e0e0" stroke="#999999" points="363.5,-184 270.5,-184 270.5,-165 363.5,-165 363.5,-184"/>
<text text-anchor="middle" x="317" y="-172" font-family="Helvetica,sans-Serif" font-size="10.00">unordered_map</text>
</a>
</g>
</g>
<!-- Node12&#45;&gt;Node14 -->
<g id="edge16_Node000012_Node000014" class="edge">
<title>Node12&#45;&gt;Node14</title>
<g id="a_edge16_Node000012_Node000014"><a xlink:title=" ">
<path fill="none" stroke="#63b8ff" d="M366.07,-274.98C389.48,-263.76 423.27,-242.76 409,-220 399.31,-204.54 382.56,-194.33 365.99,-187.63"/>
<polygon fill="#63b8ff" stroke="#63b8ff" points="366.9,-184.24 356.31,-184.08 364.49,-190.81 366.9,-184.24"/>
</a>
</g>
</g>
<!-- Node15 -->
<g id="Node000015" class="node">
<title>Node15</title>
<g id="a_Node000015"><a xlink:href="ConsoleSink_8h.html" target="_top" xlink:title="Concrete implementation of ISink that logs to the console.">
<polygon fill="white" stroke="#666666" points="695.5,-239 538.5,-239 538.5,-220 695.5,-220 695.5,-239"/>
<text text-anchor="middle" x="617" y="-227" font-family="Helvetica,sans-Serif" font-size="10.00">../logger/sinks/ConsoleSink.h</text>
</a>
</g>
</g>
<!-- Node12&#45;&gt;Node15 -->
<g id="edge17_Node000012_Node000015" class="edge">
<title>Node12&#45;&gt;Node15</title>
<g id="a_edge17_Node000012_Node000015"><a xlink:title=" ">
<path fill="none" stroke="#63b8ff" d="M389.54,-274.98C436.81,-265.74 512.35,-250.97 563.28,-241.01"/>
<polygon fill="#63b8ff" stroke="#63b8ff" points="563.98,-244.44 573.12,-239.08 562.63,-237.57 563.98,-244.44"/>
</a>
</g>
</g>
<!-- Node20 -->
<g id="Node000020" class="node">
<title>Node20</title>
<g id="a_Node000020"><a xlink:href="DenseComponentArray_8h.html" target="_top" xlink:title="Provides dense storage for components of a specific type.">
<polygon fill="white" stroke="#666666" points="400.5,-239 263.5,-239 263.5,-220 400.5,-220 400.5,-239"/>
<text text-anchor="middle" x="332" y="-227" font-family="Helvetica,sans-Serif" font-size="10.00">DenseComponentArray.h</text>
</a>
</g>
</g>
<!-- Node12&#45;&gt;Node20 -->
<g id="edge25_Node000012_Node000020" class="edge">
<title>Node12&#45;&gt;Node20</title>
<g id="a_edge25_Node000012_Node000020"><a xlink:title=" ">
<path fill="none" stroke="#63b8ff" d="M343.69,-274.75C341.83,-267.72 339.16,-257.62 336.85,-248.84"/>
<polygon fill="#63b8ff" stroke="#63b8ff" points="340.21,-247.86 334.27,-239.09 333.44,-249.65 340.21,-247.86"/>
</a>
</g>
</g>
<!-- Node21 -->
<g id="Node000021" class="node">
<title>Node21</title>
<g id="a_Node000021"><a xlink:href="IComponentArray_8h.html" target="_top" xlink:title="A data structure built for managing a specific component type.">
<polygon fill="white" stroke="#666666" points="252,-184 142,-184 142,-165 252,-165 252,-184"/>
<text text-anchor="middle" x="197" y="-172" font-family="Helvetica,sans-Serif" font-size="10.00">IComponentArray.h</text>
</a>
</g>
</g>
<!-- Node12&#45;&gt;Node21 -->
<g id="edge30_Node000012_Node000021" class="edge">
<title>Node12&#45;&gt;Node21</title>
<g id="a_edge30_Node000012_Node000021"><a xlink:title=" ">
<path fill="none" stroke="#63b8ff" d="M278.6,-274.97C235.18,-267.92 184.42,-256.26 171,-239 159.98,-224.83 170.95,-205.33 181.83,-191.69"/>
<polygon fill="#63b8ff" stroke="#63b8ff" points="184.53,-193.92 188.4,-184.06 179.23,-189.36 184.53,-193.92"/>
</a>
</g>
</g>
<!-- Node16 -->
<g id="Node000016" class="node">
<title>Node16</title>
<g id="a_Node000016"><a xlink:title=" ">
<polygon fill="#e0e0e0" stroke="#999999" points="588,-184 528,-184 528,-165 588,-165 588,-184"/>
<text text-anchor="middle" x="558" y="-172" font-family="Helvetica,sans-Serif" font-size="10.00">iostream</text>
</a>
</g>
</g>
<!-- Node15&#45;&gt;Node16 -->
<g id="edge18_Node000015_Node000016" class="edge">
<title>Node15&#45;&gt;Node16</title>
<g id="a_edge18_Node000015_Node000016"><a xlink:title=" ">
<path fill="none" stroke="#63b8ff" d="M607.52,-219.98C598.8,-212.15 585.66,-200.34 575.1,-190.86"/>
<polygon fill="#63b8ff" stroke="#63b8ff" points="577.43,-188.25 567.65,-184.17 572.75,-193.46 577.43,-188.25"/>
</a>
</g>
</g>
<!-- Node17 -->
<g id="Node000017" class="node">
<title>Node17</title>
<g id="a_Node000017"><a xlink:href="Logger_8h.html" target="_top" xlink:title="Central static logging interface for the application.">
<polygon fill="white" stroke="#666666" points="865.5,-184 798.5,-184 798.5,-165 865.5,-165 865.5,-184"/>
<text text-anchor="middle" x="832" y="-172" font-family="Helvetica,sans-Serif" font-size="10.00">../Logger.h</text>
</a>
</g>
</g>
<!-- Node15&#45;&gt;Node17 -->
<g id="edge19_Node000015_Node000017" class="edge">
<title>Node15&#45;&gt;Node17</title>
<g id="a_edge19_Node000015_Node000017"><a xlink:title=" ">
<path fill="none" stroke="#63b8ff" d="M651.54,-219.98C688.75,-210.81 748.03,-196.2 788.42,-186.24"/>
<polygon fill="#63b8ff" stroke="#63b8ff" points="789.38,-189.61 798.25,-183.82 787.7,-182.81 789.38,-189.61"/>
</a>
</g>
</g>
<!-- Node19 -->
<g id="Node000019" class="node">
<title>Node19</title>
<g id="a_Node000019"><a xlink:href="ISink_8h.html" target="_top" xlink:title="Declares the logging sink interface.">
<polygon fill="white" stroke="#666666" points="809,-129 731,-129 731,-110 809,-110 809,-129"/>
<text text-anchor="middle" x="770" y="-117" font-family="Helvetica,sans-Serif" font-size="10.00">sinks/ISink.h</text>
</a>
</g>
</g>
<!-- Node15&#45;&gt;Node19 -->
<g id="edge24_Node000015_Node000019" class="edge">
<title>Node15&#45;&gt;Node19</title>
<g id="a_edge24_Node000015_Node000019"><a xlink:title=" ">
<path fill="none" stroke="#63b8ff" d="M681.78,-219.95C706.33,-213.68 732.73,-202.82 751,-184 762.64,-172.01 767.18,-153.2 768.94,-139.15"/>
<polygon fill="#63b8ff" stroke="#63b8ff" points="772.43,-139.41 769.84,-129.14 765.46,-138.79 772.43,-139.41"/>
</a>
</g>
</g>
<!-- Node17&#45;&gt;Node4 -->
<g id="edge20_Node000017_Node000004" class="edge">
<title>Node17&#45;&gt;Node4</title>
<g id="a_edge20_Node000017_Node000004"><a xlink:title=" ">
<path fill="none" stroke="#63b8ff" d="M845.01,-164.98C857.46,-156.84 876.46,-144.41 891.21,-134.76"/>
<polygon fill="#63b8ff" stroke="#63b8ff" points="893.3,-137.57 899.75,-129.17 889.46,-131.72 893.3,-137.57"/>
</a>
</g>
</g>
<!-- Node18 -->
<g id="Node000018" class="node">
<title>Node18</title>
<g id="a_Node000018"><a xlink:title=" ">
<polygon fill="#e0e0e0" stroke="#999999" points="839.5,-74 766.5,-74 766.5,-55 839.5,-55 839.5,-74"/>
<text text-anchor="middle" x="803" y="-62" font-family="Helvetica,sans-Serif" font-size="10.00">string_view</text>
</a>
</g>
</g>
<!-- Node17&#45;&gt;Node18 -->
<g id="edge21_Node000017_Node000018" class="edge">
<title>Node17&#45;&gt;Node18</title>
<g id="a_edge21_Node000017_Node000018"><a xlink:title=" ">
<path fill="none" stroke="#63b8ff" d="M830.39,-164.8C828.05,-152.5 823.38,-129.36 818,-110 815.57,-101.26 812.42,-91.71 809.63,-83.71"/>
<polygon fill="#63b8ff" stroke="#63b8ff" points="812.93,-82.52 806.27,-74.28 806.33,-84.87 812.93,-82.52"/>
</a>
</g>
</g>
<!-- Node17&#45;&gt;Node19 -->
<g id="edge22_Node000017_Node000019" class="edge">
<title>Node17&#45;&gt;Node19</title>
<g id="a_edge22_Node000017_Node000019"><a xlink:title=" ">
<path fill="none" stroke="#63b8ff" d="M822.04,-164.98C812.87,-157.15 799.06,-145.34 787.97,-135.86"/>
<polygon fill="#63b8ff" stroke="#63b8ff" points="790.02,-133.01 780.14,-129.17 785.47,-138.33 790.02,-133.01"/>
</a>
</g>
</g>
<!-- Node19&#45;&gt;Node18 -->
<g id="edge23_Node000019_Node000018" class="edge">
<title>Node19&#45;&gt;Node18</title>
<g id="a_edge23_Node000019_Node000018"><a xlink:title=" ">
<path fill="none" stroke="#63b8ff" d="M775.45,-109.75C780.01,-102.42 786.67,-91.73 792.29,-82.7"/>
<polygon fill="#63b8ff" stroke="#63b8ff" points="795.34,-84.43 797.65,-74.09 789.4,-80.73 795.34,-84.43"/>
</a>
</g>
</g>
<!-- Node20&#45;&gt;Node14 -->
<g id="edge28_Node000020_Node000014" class="edge">
<title>Node20&#45;&gt;Node14</title>
<g id="a_edge28_Node000020_Node000014"><a xlink:title=" ">
<path fill="none" stroke="#63b8ff" d="M329.52,-219.75C327.54,-212.72 324.68,-202.62 322.19,-193.84"/>
<polygon fill="#63b8ff" stroke="#63b8ff" points="325.52,-192.76 319.43,-184.09 318.79,-194.66 325.52,-192.76"/>
</a>
</g>
</g>
<!-- Node20&#45;&gt;Node21 -->
<g id="edge26_Node000020_Node000021" class="edge">
<title>Node20&#45;&gt;Node21</title>
<g id="a_edge26_Node000020_Node000021"><a xlink:title=" ">
<path fill="none" stroke="#63b8ff" d="M310.31,-219.98C288.2,-211.3 253.68,-197.75 228.55,-187.88"/>
<polygon fill="#63b8ff" stroke="#63b8ff" points="229.67,-184.57 219.08,-184.17 227.11,-191.08 229.67,-184.57"/>
</a>
</g>
</g>
<!-- Node21&#45;&gt;Node5 -->
<g id="edge27_Node000021_Node000005" class="edge">
<title>Node21&#45;&gt;Node5</title>
<g id="a_edge27_Node000021_Node000005"><a xlink:title=" ">
<path fill="none" stroke="#63b8ff" d="M197,-164.75C197,-157.8 197,-147.85 197,-139.13"/>
<polygon fill="#63b8ff" stroke="#63b8ff" points="200.5,-139.09 197,-129.09 193.5,-139.09 200.5,-139.09"/>
</a>
</g>
</g>
<!-- Node22&#45;&gt;Node5 -->
<g id="edge33_Node000022_Node000005" class="edge">
<title>Node22&#45;&gt;Node5</title>
<g id="a_edge33_Node000022_Node000005"><a xlink:title=" ">
<path fill="none" stroke="#63b8ff" d="M405.99,-164.98C362.83,-155.8 294.02,-141.15 247.24,-131.19"/>
<polygon fill="#63b8ff" stroke="#63b8ff" points="247.83,-127.74 237.32,-129.08 246.37,-134.59 247.83,-127.74"/>
</a>
</g>
</g>
<!-- Node22&#45;&gt;Node8 -->
<g id="edge34_Node000022_Node000008" class="edge">
<title>Node22&#45;&gt;Node8</title>
<g id="a_edge34_Node000022_Node000008"><a xlink:title=" ">
<path fill="none" stroke="#63b8ff" d="M434.6,-164.97C423.61,-156.47 406.8,-142.74 394,-129 380.46,-114.47 367.19,-96.05 358.23,-82.8"/>
<polygon fill="#63b8ff" stroke="#63b8ff" points="360.96,-80.59 352.52,-74.19 355.13,-84.46 360.96,-80.59"/>
</a>
</g>
</g>
<!-- Node23 -->
<g id="Node000023" class="node">
<title>Node23</title>
<g id="a_Node000023"><a xlink:title=" ">
<polygon fill="#e0e0e0" stroke="#999999" points="489,-129 403,-129 403,-110 489,-110 489,-129"/>
<text text-anchor="middle" x="446" y="-117" font-family="Helvetica,sans-Serif" font-size="10.00">unordered_set</text>
</a>
</g>
</g>
<!-- Node22&#45;&gt;Node23 -->
<g id="edge32_Node000022_Node000023" class="edge">
<title>Node22&#45;&gt;Node23</title>
<g id="a_edge32_Node000022_Node000023"><a xlink:title=" ">
<path fill="none" stroke="#63b8ff" d="M446,-164.75C446,-157.8 446,-147.85 446,-139.13"/>
<polygon fill="#63b8ff" stroke="#63b8ff" points="449.5,-139.09 446,-129.09 442.5,-139.09 449.5,-139.09"/>
</a>
</g>
</g>
<!-- Node24&#45;&gt;Node5 -->
<g id="edge36_Node000024_Node000005" class="edge">
<title>Node24&#45;&gt;Node5</title>
<g id="a_edge36_Node000024_Node000005"><a xlink:title=" ">
<path fill="none" stroke="#63b8ff" d="M605.91,-165.93C509.07,-155.17 333.77,-135.7 247.6,-126.12"/>
<polygon fill="#63b8ff" stroke="#63b8ff" points="247.87,-122.63 237.54,-125 247.09,-129.59 247.87,-122.63"/>
</a>
</g>
</g>
<!-- Node24&#45;&gt;Node8 -->
<g id="edge37_Node000024_Node000008" class="edge">
<title>Node24&#45;&gt;Node8</title>
<g id="a_edge37_Node000024_Node000008"><a xlink:title=" ">
<path fill="none" stroke="#63b8ff" d="M651.64,-164.95C618.36,-152.33 553.72,-128.24 498,-110 460.9,-97.85 418.18,-85.4 387.67,-76.78"/>
<polygon fill="#63b8ff" stroke="#63b8ff" points="388.4,-73.34 377.82,-74 386.5,-80.08 388.4,-73.34"/>
</a>
</g>
</g>
<!-- Node25&#45;&gt;Node4 -->
<g id="edge39_Node000025_Node000004" class="edge">
<title>Node25&#45;&gt;Node4</title>
<g id="a_edge39_Node000025_Node000004"><a xlink:title=" ">
<path fill="none" stroke="#63b8ff" d="M889.24,-274.78C893.57,-257.56 903.11,-217.9 908,-184 910.15,-169.08 911.43,-152.05 912.15,-139.39"/>
<polygon fill="#63b8ff" stroke="#63b8ff" points="915.66,-139.33 912.67,-129.17 908.67,-138.98 915.66,-139.33"/>
</a>
</g>
</g>
<!-- Node25&#45;&gt;Node26 -->
<g id="edge40_Node000025_Node000026" class="edge">
<title>Node25&#45;&gt;Node26</title>
<g id="a_edge40_Node000025_Node000026"><a xlink:title=" ">
<path fill="none" stroke="#63b8ff" d="M911.26,-274.98C936.32,-266.19 975.63,-252.39 1003.83,-242.49"/>
<polygon fill="#63b8ff" stroke="#63b8ff" points="1005.02,-245.78 1013.3,-239.17 1002.7,-239.18 1005.02,-245.78"/>
</a>
</g>
</g>
<!-- Node26&#45;&gt;Node24 -->
<g id="edge42_Node000026_Node000024" class="edge">
<title>Node26&#45;&gt;Node24</title>
<g id="a_edge42_Node000026_Node000024"><a xlink:title=" ">
<path fill="none" stroke="#63b8ff" d="M998.35,-222.73C936.9,-213.78 817.87,-196.45 742.36,-185.45"/>
<polygon fill="#63b8ff" stroke="#63b8ff" points="742.86,-181.99 732.46,-184.01 741.85,-188.92 742.86,-181.99"/>
</a>
</g>
</g>
<!-- Node27 -->
<g id="Node000027" class="node">
<title>Node27</title>
<g id="a_Node000027"><a xlink:title=" ">
<polygon fill="#e0e0e0" stroke="#999999" points="1094,-184 1050,-184 1050,-165 1094,-165 1094,-184"/>
<text text-anchor="middle" x="1072" y="-172" font-family="Helvetica,sans-Serif" font-size="10.00">string</text>
</a>
</g>
</g>
<!-- Node26&#45;&gt;Node27 -->
<g id="edge41_Node000026_Node000027" class="edge">
<title>Node26&#45;&gt;Node27</title>
<g id="a_edge41_Node000026_Node000027"><a xlink:title=" ">
<path fill="none" stroke="#63b8ff" d="M1043.61,-219.75C1048.32,-212.42 1055.17,-201.73 1060.97,-192.7"/>
<polygon fill="#63b8ff" stroke="#63b8ff" points="1064.04,-194.4 1066.49,-184.09 1058.14,-190.62 1064.04,-194.4"/>
</a>
</g>
</g>
<!-- Node28&#45;&gt;Node27 -->
<g id="edge45_Node000028_Node000027" class="edge">
<title>Node28&#45;&gt;Node27</title>
<g id="a_edge45_Node000028_Node000027"><a xlink:title=" ">
<path fill="none" stroke="#63b8ff" d="M1109.73,-329.73C1105.89,-306.52 1097.52,-259.24 1087,-220 1084.65,-211.24 1081.51,-201.69 1078.71,-193.69"/>
<polygon fill="#63b8ff" stroke="#63b8ff" points="1082,-192.49 1075.32,-184.26 1075.41,-194.86 1082,-192.49"/>
</a>
</g>
</g>
</g>
</svg>
