<?xml version="1.0" encoding="UTF-8" standalone="no"?>
<!DOCTYPE svg PUBLIC "-//W3C//DTD SVG 1.1//EN"
 "http://www.w3.org/Graphics/SVG/1.1/DTD/svg11.dtd">
<!-- Generated by graphviz version 2.43.0 (0)
 -->
<!-- Title: sb::input::InputCode::FromKeyboard Pages: 1 -->
<svg width="389pt" height="134pt"
 viewBox="0.00 0.00 389.00 134.00" xmlns="http://www.w3.org/2000/svg" xmlns:xlink="http://www.w3.org/1999/xlink">
<g id="graph0" class="graph" transform="scale(1 1) rotate(0) translate(4 130)">
<title>sb::input::InputCode::FromKeyboard</title>
<!-- Node1 -->
<g id="Node000001" class="node">
<title>Node1</title>
<g id="a_Node000001"><a xlink:title=" ">
<polygon fill="#999999" stroke="#666666" points="381,-78 267,-78 267,-48 381,-48 381,-78"/>
<text text-anchor="start" x="275" y="-66" font-family="Helvetica,sans-Serif" font-size="10.00">sb::input::InputCode</text>
<text text-anchor="middle" x="324" y="-55" font-family="Helvetica,sans-Serif" font-size="10.00">::FromKeyboard</text>
</a>
</g>
</g>
<!-- Node2 -->
<g id="Node000002" class="node">
<title>Node2</title>
<g id="a_Node000002"><a xlink:href="structsb_1_1input_1_1InputCode.html#a7f6a56190699294306aa9e3a359bd938" target="_top" xlink:title=" ">
<polygon fill="white" stroke="#666666" points="211,-126 97,-126 97,-96 211,-96 211,-126"/>
<text text-anchor="start" x="105" y="-114" font-family="Helvetica,sans-Serif" font-size="10.00">sb::input::InputCode</text>
<text text-anchor="middle" x="154" y="-103" font-family="Helvetica,sans-Serif" font-size="10.00">::from_string</text>
</a>
</g>
</g>
<!-- Node1&#45;&gt;Node2 -->
<g id="edge1_Node000001_Node000002" class="edge">
<title>Node1&#45;&gt;Node2</title>
<g id="a_edge1_Node000001_Node000002"><a xlink:title=" ">
<path fill="none" stroke="#63b8ff" d="M260.25,-80.93C242.89,-85.89 224.23,-91.22 207.51,-96"/>
<polygon fill="#63b8ff" stroke="#63b8ff" points="261.65,-84.17 270.3,-78.06 259.73,-77.44 261.65,-84.17"/>
</a>
</g>
</g>
<!-- Node3 -->
<g id="Node000003" class="node">
<title>Node3</title>
<g id="a_Node000003"><a xlink:href="classsb_1_1input_1_1HardcodedBindingMap.html#a644bd27b6033041204b9667ed56e7a0b" target="_top" xlink:title="Loads input bindings from persistent storage.">
<polygon fill="white" stroke="#666666" points="231,-78 77,-78 77,-48 231,-48 231,-78"/>
<text text-anchor="start" x="85" y="-66" font-family="Helvetica,sans-Serif" font-size="10.00">sb::input::HardcodedBinding</text>
<text text-anchor="middle" x="154" y="-55" font-family="Helvetica,sans-Serif" font-size="10.00">Map::load_bindings</text>
</a>
</g>
</g>
<!-- Node1&#45;&gt;Node3 -->
<g id="edge2_Node000001_Node000003" class="edge">
<title>Node1&#45;&gt;Node3</title>
<g id="a_edge2_Node000001_Node000003"><a xlink:title=" ">
<path fill="none" stroke="#63b8ff" d="M256.59,-63C248.27,-63 239.71,-63 231.26,-63"/>
<polygon fill="#63b8ff" stroke="#63b8ff" points="256.59,-66.5 266.59,-63 256.59,-59.5 256.59,-66.5"/>
</a>
</g>
</g>
<!-- Node4 -->
<g id="Node000004" class="node">
<title>Node4</title>
<g id="a_Node000004"><a xlink:href="classsb_1_1input_1_1KeyboardHandler.html#a15e6ca0af7101d0379419244e02c3b1f" target="_top" xlink:title=" ">
<polygon fill="white" stroke="#666666" points="228.5,-30 79.5,-30 79.5,0 228.5,0 228.5,-30"/>
<text text-anchor="start" x="87.5" y="-18" font-family="Helvetica,sans-Serif" font-size="10.00">sb::input::KeyboardHandler</text>
<text text-anchor="middle" x="154" y="-7" font-family="Helvetica,sans-Serif" font-size="10.00">::poll_inputs</text>
</a>
</g>
</g>
<!-- Node1&#45;&gt;Node4 -->
<g id="edge3_Node000001_Node000004" class="edge">
<title>Node1&#45;&gt;Node4</title>
<g id="a_edge3_Node000001_Node000004"><a xlink:title=" ">
<path fill="none" stroke="#63b8ff" d="M260.25,-45.07C242.89,-40.11 224.23,-34.78 207.51,-30"/>
<polygon fill="#63b8ff" stroke="#63b8ff" points="259.73,-48.56 270.3,-47.94 261.65,-41.83 259.73,-48.56"/>
</a>
</g>
</g>
<!-- Node5 -->
<g id="Node000005" class="node">
<title>Node5</title>
<g id="a_Node000005"><a xlink:href="main_8cpp.html#ae66f6b31b5ad750f1fe042a706a4e3d4" target="_top" xlink:title=" ">
<polygon fill="white" stroke="#666666" points="41,-24.5 0,-24.5 0,-5.5 41,-5.5 41,-24.5"/>
<text text-anchor="middle" x="20.5" y="-12.5" font-family="Helvetica,sans-Serif" font-size="10.00">main</text>
</a>
</g>
</g>
<!-- Node4&#45;&gt;Node5 -->
<g id="edge4_Node000004_Node000005" class="edge">
<title>Node4&#45;&gt;Node5</title>
<g id="a_edge4_Node000004_Node000005"><a xlink:title=" ">
<path fill="none" stroke="#63b8ff" d="M69.09,-15C58.75,-15 49.05,-15 41.14,-15"/>
<polygon fill="#63b8ff" stroke="#63b8ff" points="69.18,-18.5 79.18,-15 69.18,-11.5 69.18,-18.5"/>
</a>
</g>
</g>
</g>
</svg>
