<?xml version="1.0" encoding="UTF-8" standalone="no"?>
<!DOCTYPE svg PUBLIC "-//W3C//DTD SVG 1.1//EN"
 "http://www.w3.org/Graphics/SVG/1.1/DTD/svg11.dtd">
<!-- Generated by graphviz version 2.43.0 (0)
 -->
<!-- Title: sb::input::InputCode::from_string Pages: 1 -->
<svg width="285pt" height="230pt"
 viewBox="0.00 0.00 285.00 230.00" xmlns="http://www.w3.org/2000/svg" xmlns:xlink="http://www.w3.org/1999/xlink">
<g id="graph0" class="graph" transform="scale(1 1) rotate(0) translate(4 226)">
<title>sb::input::InputCode::from_string</title>
<!-- Node1 -->
<g id="Node000001" class="node">
<title>Node1</title>
<g id="a_Node000001"><a xlink:title=" ">
<polygon fill="#999999" stroke="#666666" points="114,-126 0,-126 0,-96 114,-96 114,-126"/>
<text text-anchor="start" x="8" y="-114" font-family="Helvetica,sans-Serif" font-size="10.00">sb::input::InputCode</text>
<text text-anchor="middle" x="57" y="-103" font-family="Helvetica,sans-Serif" font-size="10.00">::from_string</text>
</a>
</g>
</g>
<!-- Node2 -->
<g id="Node000002" class="node">
<title>Node2</title>
<g id="a_Node000002"><a xlink:href="structsb_1_1input_1_1InputCode.html#a4c73ef9846ad6f425e0ec58e12887fb7" target="_top" xlink:title=" ">
<polygon fill="white" stroke="#666666" points="271.5,-222 155.5,-222 155.5,-192 271.5,-192 271.5,-222"/>
<text text-anchor="start" x="163.5" y="-210" font-family="Helvetica,sans-Serif" font-size="10.00">sb::input::InputCode</text>
<text text-anchor="middle" x="213.5" y="-199" font-family="Helvetica,sans-Serif" font-size="10.00">::FromGamepadAxis</text>
</a>
</g>
</g>
<!-- Node1&#45;&gt;Node2 -->
<g id="edge1_Node000001_Node000002" class="edge">
<title>Node1&#45;&gt;Node2</title>
<g id="a_edge1_Node000001_Node000002"><a xlink:title=" ">
<path fill="none" stroke="#63b8ff" d="M74.21,-126.15C91.8,-141.97 121.23,-166.71 150,-183 152.88,-184.63 155.9,-186.2 158.98,-187.69"/>
<polygon fill="#63b8ff" stroke="#63b8ff" points="157.81,-191.01 168.37,-191.96 160.71,-184.64 157.81,-191.01"/>
</a>
</g>
</g>
<!-- Node3 -->
<g id="Node000003" class="node">
<title>Node3</title>
<g id="a_Node000003"><a xlink:href="structsb_1_1input_1_1InputCode.html#aefefa0267a50c645458cce932b4a6808" target="_top" xlink:title=" ">
<polygon fill="white" stroke="#666666" points="277,-174 150,-174 150,-144 277,-144 277,-174"/>
<text text-anchor="start" x="158" y="-162" font-family="Helvetica,sans-Serif" font-size="10.00">sb::input::InputCode</text>
<text text-anchor="middle" x="213.5" y="-151" font-family="Helvetica,sans-Serif" font-size="10.00">::FromGamepadButton</text>
</a>
</g>
</g>
<!-- Node1&#45;&gt;Node3 -->
<g id="edge2_Node000001_Node000003" class="edge">
<title>Node1&#45;&gt;Node3</title>
<g id="a_edge2_Node000001_Node000003"><a xlink:title=" ">
<path fill="none" stroke="#63b8ff" d="M106.46,-126.06C121.7,-130.79 138.69,-136.07 154.53,-140.99"/>
<polygon fill="#63b8ff" stroke="#63b8ff" points="153.62,-144.37 164.21,-144 155.7,-137.69 153.62,-144.37"/>
</a>
</g>
</g>
<!-- Node4 -->
<g id="Node000004" class="node">
<title>Node4</title>
<g id="a_Node000004"><a xlink:href="structsb_1_1input_1_1InputCode.html#a8a917b1135e32e7d1c243dbb998a831e" target="_top" xlink:title=" ">
<polygon fill="white" stroke="#666666" points="270.5,-126 156.5,-126 156.5,-96 270.5,-96 270.5,-126"/>
<text text-anchor="start" x="164.5" y="-114" font-family="Helvetica,sans-Serif" font-size="10.00">sb::input::InputCode</text>
<text text-anchor="middle" x="213.5" y="-103" font-family="Helvetica,sans-Serif" font-size="10.00">::FromKeyboard</text>
</a>
</g>
</g>
<!-- Node1&#45;&gt;Node4 -->
<g id="edge3_Node000001_Node000004" class="edge">
<title>Node1&#45;&gt;Node4</title>
<g id="a_edge3_Node000001_Node000004"><a xlink:title=" ">
<path fill="none" stroke="#63b8ff" d="M114.22,-111C124.61,-111 135.56,-111 146.22,-111"/>
<polygon fill="#63b8ff" stroke="#63b8ff" points="146.33,-114.5 156.33,-111 146.33,-107.5 146.33,-114.5"/>
</a>
</g>
</g>
<!-- Node5 -->
<g id="Node000005" class="node">
<title>Node5</title>
<g id="a_Node000005"><a xlink:href="structsb_1_1input_1_1InputCode.html#a40e33e15ae467d53c0da7bd7d39cd2b6" target="_top" xlink:title=" ">
<polygon fill="white" stroke="#666666" points="270.5,-78 156.5,-78 156.5,-48 270.5,-48 270.5,-78"/>
<text text-anchor="start" x="164.5" y="-66" font-family="Helvetica,sans-Serif" font-size="10.00">sb::input::InputCode</text>
<text text-anchor="middle" x="213.5" y="-55" font-family="Helvetica,sans-Serif" font-size="10.00">::FromMouseAxis</text>
</a>
</g>
</g>
<!-- Node1&#45;&gt;Node5 -->
<g id="edge4_Node000001_Node000005" class="edge">
<title>Node1&#45;&gt;Node5</title>
<g id="a_edge4_Node000001_Node000005"><a xlink:title=" ">
<path fill="none" stroke="#63b8ff" d="M106.46,-95.94C121.7,-91.21 138.69,-85.93 154.53,-81.01"/>
<polygon fill="#63b8ff" stroke="#63b8ff" points="155.7,-84.31 164.21,-78 153.62,-77.63 155.7,-84.31"/>
</a>
</g>
</g>
<!-- Node6 -->
<g id="Node000006" class="node">
<title>Node6</title>
<g id="a_Node000006"><a xlink:href="structsb_1_1input_1_1InputCode.html#ad15dc5c4007c8fcd1806eb882f889237" target="_top" xlink:title=" ">
<polygon fill="white" stroke="#666666" points="270.5,-30 156.5,-30 156.5,0 270.5,0 270.5,-30"/>
<text text-anchor="start" x="164.5" y="-18" font-family="Helvetica,sans-Serif" font-size="10.00">sb::input::InputCode</text>
<text text-anchor="middle" x="213.5" y="-7" font-family="Helvetica,sans-Serif" font-size="10.00">::FromMouseButton</text>
</a>
</g>
</g>
<!-- Node1&#45;&gt;Node6 -->
<g id="edge5_Node000001_Node000006" class="edge">
<title>Node1&#45;&gt;Node6</title>
<g id="a_edge5_Node000001_Node000006"><a xlink:title=" ">
<path fill="none" stroke="#63b8ff" d="M74.21,-95.85C91.8,-80.03 121.23,-55.29 150,-39 152.88,-37.37 155.9,-35.8 158.98,-34.31"/>
<polygon fill="#63b8ff" stroke="#63b8ff" points="160.71,-37.36 168.37,-30.04 157.81,-30.99 160.71,-37.36"/>
</a>
</g>
</g>
</g>
</svg>
