<?xml version="1.0" encoding="UTF-8" standalone="no"?>
<!DOCTYPE svg PUBLIC "-//W3C//DTD SVG 1.1//EN"
 "http://www.w3.org/Graphics/SVG/1.1/DTD/svg11.dtd">
<!-- Generated by graphviz version 2.43.0 (0)
 -->
<!-- Title: Transform Pages: 1 -->
<svg width="271pt" height="93pt"
 viewBox="0.00 0.00 271.00 93.00" xmlns="http://www.w3.org/2000/svg" xmlns:xlink="http://www.w3.org/1999/xlink">
<g id="graph0" class="graph" transform="scale(1 1) rotate(0) translate(4 89)">
<title>Transform</title>
<!-- Node1 -->
<g id="Node000001" class="node">
<title>Node1</title>
<g id="a_Node000001"><a xlink:title="Combines position, velocity, size, and rotation into a unified spatial representation.">
<polygon fill="#999999" stroke="#666666" points="167.5,-19 102.5,-19 102.5,0 167.5,0 167.5,-19"/>
<text text-anchor="middle" x="135" y="-7" font-family="Helvetica,sans-Serif" font-size="10.00">Transform</text>
</a>
</g>
</g>
<!-- Node2 -->
<g id="Node000002" class="node">
<title>Node2</title>
<g id="a_Node000002"><a xlink:href="structPosition.html" target="_top" xlink:title="Represents 2D position in coordinate system.">
<polygon fill="white" stroke="#666666" points="56,-85 0,-85 0,-66 56,-66 56,-85"/>
<text text-anchor="middle" x="28" y="-73" font-family="Helvetica,sans-Serif" font-size="10.00">Position</text>
</a>
</g>
</g>
<!-- Node2&#45;&gt;Node1 -->
<g id="edge1_Node000001_Node000002" class="edge">
<title>Node2&#45;&gt;Node1</title>
<g id="a_edge1_Node000001_Node000002"><a xlink:title=" ">
<path fill="none" stroke="#9a32cd" stroke-dasharray="5,2" d="M36.21,-56.4C40.12,-49.49 45.41,-42.06 52,-37 66.51,-25.85 85.85,-19.32 102.21,-15.53"/>
<polygon fill="#9a32cd" stroke="#9a32cd" points="32.84,-55.31 31.46,-65.81 39.09,-58.46 32.84,-55.31"/>
</a>
</g>
<text text-anchor="middle" x="73.5" y="-40" font-family="Helvetica,sans-Serif" font-size="10.00" fill="grey"> position</text>
</g>
<!-- Node3 -->
<g id="Node000003" class="node">
<title>Node3</title>
<g id="a_Node000003"><a xlink:href="structVelocity.html" target="_top" xlink:title="Provides velocity vectors in two dimensions.">
<polygon fill="white" stroke="#666666" points="130,-85 74,-85 74,-66 130,-66 130,-85"/>
<text text-anchor="middle" x="102" y="-73" font-family="Helvetica,sans-Serif" font-size="10.00">Velocity</text>
</a>
</g>
</g>
<!-- Node3&#45;&gt;Node1 -->
<g id="edge2_Node000001_Node000003" class="edge">
<title>Node3&#45;&gt;Node1</title>
<g id="a_edge2_Node000001_Node000003"><a xlink:title=" ">
<path fill="none" stroke="#9a32cd" stroke-dasharray="5,2" d="M99.48,-55.74C99.41,-49.51 100.22,-42.71 103,-37 106.6,-29.61 113.34,-23.54 119.71,-19.09"/>
<polygon fill="#9a32cd" stroke="#9a32cd" points="96.01,-56.3 100.3,-65.99 102.99,-55.74 96.01,-56.3"/>
</a>
</g>
<text text-anchor="middle" x="124.5" y="-40" font-family="Helvetica,sans-Serif" font-size="10.00" fill="grey"> velocity</text>
</g>
<!-- Node4 -->
<g id="Node000004" class="node">
<title>Node4</title>
<g id="a_Node000004"><a xlink:href="structSize.html" target="_top" xlink:title="Physical width and height scalars.">
<polygon fill="white" stroke="#666666" points="186.5,-85 149.5,-85 149.5,-66 186.5,-66 186.5,-85"/>
<text text-anchor="middle" x="168" y="-73" font-family="Helvetica,sans-Serif" font-size="10.00">Size</text>
</a>
</g>
</g>
<!-- Node4&#45;&gt;Node1 -->
<g id="edge3_Node000001_Node000004" class="edge">
<title>Node4&#45;&gt;Node1</title>
<g id="a_edge3_Node000001_Node000004"><a xlink:title=" ">
<path fill="none" stroke="#9a32cd" stroke-dasharray="5,2" d="M158.81,-56.68C152.56,-44.55 144.54,-29.01 139.59,-19.41"/>
<polygon fill="#9a32cd" stroke="#9a32cd" points="155.86,-58.58 163.55,-65.87 162.08,-55.38 155.86,-58.58"/>
</a>
</g>
<text text-anchor="middle" x="164.5" y="-40" font-family="Helvetica,sans-Serif" font-size="10.00" fill="grey"> size</text>
</g>
<!-- Node5 -->
<g id="Node000005" class="node">
<title>Node5</title>
<g id="a_Node000005"><a xlink:href="structRotation.html" target="_top" xlink:title="Provides rotational angle.">
<polygon fill="white" stroke="#666666" points="263,-85 205,-85 205,-66 263,-66 263,-85"/>
<text text-anchor="middle" x="234" y="-73" font-family="Helvetica,sans-Serif" font-size="10.00">Rotation</text>
</a>
</g>
</g>
<!-- Node5&#45;&gt;Node1 -->
<g id="edge4_Node000001_Node000005" class="edge">
<title>Node5&#45;&gt;Node1</title>
<g id="a_edge4_Node000001_Node000005"><a xlink:title=" ">
<path fill="none" stroke="#9a32cd" stroke-dasharray="5,2" d="M214.01,-60.09C203.93,-52.96 191.45,-44.33 180,-37 170.23,-30.74 158.98,-24.12 150.17,-19.06"/>
<polygon fill="#9a32cd" stroke="#9a32cd" points="211.99,-62.94 222.16,-65.9 216.05,-57.24 211.99,-62.94"/>
</a>
</g>
<text text-anchor="middle" x="217" y="-40" font-family="Helvetica,sans-Serif" font-size="10.00" fill="grey"> rotation</text>
</g>
</g>
</svg>
