<?xml version="1.0" encoding="UTF-8" standalone="no"?>
<!DOCTYPE svg PUBLIC "-//W3C//DTD SVG 1.1//EN"
 "http://www.w3.org/Graphics/SVG/1.1/DTD/svg11.dtd">
<!-- Generated by graphviz version 2.43.0 (0)
 -->
<!-- Title: SystemManager.h Pages: 1 -->
<svg width="782pt" height="247pt"
 viewBox="0.00 0.00 781.79 247.00" xmlns="http://www.w3.org/2000/svg" xmlns:xlink="http://www.w3.org/1999/xlink">
<g id="graph0" class="graph" transform="scale(1 1) rotate(0) translate(4 243)">
<title>SystemManager.h</title>
<!-- Node1 -->
<g id="Node000001" class="node">
<title>Node1</title>
<g id="a_Node000001"><a xlink:title="Defines the concrete implementation of ISystemManager.h.">
<polygon fill="#999999" stroke="#666666" points="505,-239 401,-239 401,-220 505,-220 505,-239"/>
<text text-anchor="middle" x="453" y="-227" font-family="Helvetica,sans-Serif" font-size="10.00">SystemManager.h</text>
</a>
</g>
</g>
<!-- Node2 -->
<g id="Node000002" class="node">
<title>Node2</title>
<g id="a_Node000002"><a xlink:title=" ">
<polygon fill="#e0e0e0" stroke="#999999" points="58,-74 0,-74 0,-55 58,-55 58,-74"/>
<text text-anchor="middle" x="29" y="-62" font-family="Helvetica,sans-Serif" font-size="10.00">memory</text>
</a>
</g>
</g>
<!-- Node1&#45;&gt;Node2 -->
<g id="edge1_Node000001_Node000002" class="edge">
<title>Node1&#45;&gt;Node2</title>
<g id="a_edge1_Node000001_Node000002"><a xlink:title=" ">
<path fill="none" stroke="#63b8ff" d="M400.81,-225.98C298.92,-220.59 81.25,-206.56 56,-184 27.9,-158.9 25.87,-111.15 27.2,-84.57"/>
<polygon fill="#63b8ff" stroke="#63b8ff" points="30.72,-84.53 27.95,-74.3 23.74,-84.03 30.72,-84.53"/>
</a>
</g>
</g>
<!-- Node3 -->
<g id="Node000003" class="node">
<title>Node3</title>
<g id="a_Node000003"><a xlink:title=" ">
<polygon fill="#e0e0e0" stroke="#999999" points="305.5,-184 240.5,-184 240.5,-165 305.5,-165 305.5,-184"/>
<text text-anchor="middle" x="273" y="-172" font-family="Helvetica,sans-Serif" font-size="10.00">stdexcept</text>
</a>
</g>
</g>
<!-- Node1&#45;&gt;Node3 -->
<g id="edge2_Node000001_Node000003" class="edge">
<title>Node1&#45;&gt;Node3</title>
<g id="a_edge2_Node000001_Node000003"><a xlink:title=" ">
<path fill="none" stroke="#63b8ff" d="M424.08,-219.98C393.73,-211.05 345.83,-196.94 312.12,-187.02"/>
<polygon fill="#63b8ff" stroke="#63b8ff" points="312.73,-183.55 302.15,-184.08 310.75,-190.26 312.73,-183.55"/>
</a>
</g>
</g>
<!-- Node4 -->
<g id="Node000004" class="node">
<title>Node4</title>
<g id="a_Node000004"><a xlink:title=" ">
<polygon fill="#e0e0e0" stroke="#999999" points="388.5,-184 323.5,-184 323.5,-165 388.5,-165 388.5,-184"/>
<text text-anchor="middle" x="356" y="-172" font-family="Helvetica,sans-Serif" font-size="10.00">typeindex</text>
</a>
</g>
</g>
<!-- Node1&#45;&gt;Node4 -->
<g id="edge3_Node000001_Node000004" class="edge">
<title>Node1&#45;&gt;Node4</title>
<g id="a_edge3_Node000001_Node000004"><a xlink:title=" ">
<path fill="none" stroke="#63b8ff" d="M437.42,-219.98C422.23,-211.69 398.9,-198.94 381.1,-189.22"/>
<polygon fill="#63b8ff" stroke="#63b8ff" points="382.32,-185.89 371.87,-184.17 378.97,-192.04 382.32,-185.89"/>
</a>
</g>
</g>
<!-- Node5 -->
<g id="Node000005" class="node">
<title>Node5</title>
<g id="a_Node000005"><a xlink:title=" ">
<polygon fill="#e0e0e0" stroke="#999999" points="499.5,-184 406.5,-184 406.5,-165 499.5,-165 499.5,-184"/>
<text text-anchor="middle" x="453" y="-172" font-family="Helvetica,sans-Serif" font-size="10.00">unordered_map</text>
</a>
</g>
</g>
<!-- Node1&#45;&gt;Node5 -->
<g id="edge4_Node000001_Node000005" class="edge">
<title>Node1&#45;&gt;Node5</title>
<g id="a_edge4_Node000001_Node000005"><a xlink:title=" ">
<path fill="none" stroke="#63b8ff" d="M453,-219.75C453,-212.8 453,-202.85 453,-194.13"/>
<polygon fill="#63b8ff" stroke="#63b8ff" points="456.5,-194.09 453,-184.09 449.5,-194.09 456.5,-194.09"/>
</a>
</g>
</g>
<!-- Node6 -->
<g id="Node000006" class="node">
<title>Node6</title>
<g id="a_Node000006"><a xlink:href="ConsoleSink_8h.html" target="_top" xlink:title="Concrete implementation of ISink that logs to the console.">
<polygon fill="white" stroke="#666666" points="222.5,-184 65.5,-184 65.5,-165 222.5,-165 222.5,-184"/>
<text text-anchor="middle" x="144" y="-172" font-family="Helvetica,sans-Serif" font-size="10.00">../logger/sinks/ConsoleSink.h</text>
</a>
</g>
</g>
<!-- Node1&#45;&gt;Node6 -->
<g id="edge5_Node000001_Node000006" class="edge">
<title>Node1&#45;&gt;Node6</title>
<g id="a_edge5_Node000001_Node000006"><a xlink:title=" ">
<path fill="none" stroke="#63b8ff" d="M403.35,-219.98C349.04,-210.67 261.98,-195.74 203.91,-185.78"/>
<polygon fill="#63b8ff" stroke="#63b8ff" points="204.23,-182.28 193.78,-184.04 203.04,-189.18 204.23,-182.28"/>
</a>
</g>
</g>
<!-- Node11 -->
<g id="Node000011" class="node">
<title>Node11</title>
<g id="a_Node000011"><a xlink:href="Entity_8h.html" target="_top" xlink:title="Simple struct for Entity in the ECS module (includes version)">
<polygon fill="white" stroke="#666666" points="609.5,-129 556.5,-129 556.5,-110 609.5,-110 609.5,-129"/>
<text text-anchor="middle" x="583" y="-117" font-family="Helvetica,sans-Serif" font-size="10.00">Entity.h</text>
</a>
</g>
</g>
<!-- Node1&#45;&gt;Node11 -->
<g id="edge13_Node000001_Node000011" class="edge">
<title>Node1&#45;&gt;Node11</title>
<g id="a_edge13_Node000001_Node000011"><a xlink:title=" ">
<path fill="none" stroke="#63b8ff" d="M464.02,-219.71C475.16,-210.78 492.86,-196.53 508,-184 527.74,-167.66 550.13,-148.64 565.27,-135.7"/>
<polygon fill="#63b8ff" stroke="#63b8ff" points="567.55,-138.36 572.87,-129.2 563,-133.04 567.55,-138.36"/>
</a>
</g>
</g>
<!-- Node14 -->
<g id="Node000014" class="node">
<title>Node14</title>
<g id="a_Node000014"><a xlink:href="ecs__config_8h.html" target="_top" xlink:title="Configuration constants and type definitions for ECS modules.">
<polygon fill="white" stroke="#666666" points="710.5,-74 633.5,-74 633.5,-55 710.5,-55 710.5,-74"/>
<text text-anchor="middle" x="672" y="-62" font-family="Helvetica,sans-Serif" font-size="10.00">ecs_config.h</text>
</a>
</g>
</g>
<!-- Node1&#45;&gt;Node14 -->
<g id="edge25_Node000001_Node000014" class="edge">
<title>Node1&#45;&gt;Node14</title>
<g id="a_edge25_Node000001_Node000014"><a xlink:title=" ">
<path fill="none" stroke="#63b8ff" d="M505.02,-228.32C582.48,-226.87 722.61,-219.29 756,-184 778.66,-160.06 778.33,-138.04 761,-110 751.51,-94.64 734.94,-84.41 718.65,-77.68"/>
<polygon fill="#63b8ff" stroke="#63b8ff" points="719.74,-74.35 709.15,-74.1 717.27,-80.9 719.74,-74.35"/>
</a>
</g>
</g>
<!-- Node17 -->
<g id="Node000017" class="node">
<title>Node17</title>
<g id="a_Node000017"><a xlink:href="ISystem_8h.html" target="_top" xlink:title="Declares the interface for all game systems in the ECS framework.">
<polygon fill="white" stroke="#666666" points="746.5,-184 681.5,-184 681.5,-165 746.5,-165 746.5,-184"/>
<text text-anchor="middle" x="714" y="-172" font-family="Helvetica,sans-Serif" font-size="10.00">ISystem.h</text>
</a>
</g>
</g>
<!-- Node1&#45;&gt;Node17 -->
<g id="edge19_Node000001_Node000017" class="edge">
<title>Node1&#45;&gt;Node17</title>
<g id="a_edge19_Node000001_Node000017"><a xlink:title=" ">
<path fill="none" stroke="#63b8ff" d="M495.6,-219.95C537.85,-211.45 604.71,-197.96 671.48,-184.3"/>
<polygon fill="#63b8ff" stroke="#63b8ff" points="672.23,-187.72 681.33,-182.29 670.83,-180.86 672.23,-187.72"/>
</a>
</g>
</g>
<!-- Node19 -->
<g id="Node000019" class="node">
<title>Node19</title>
<g id="a_Node000019"><a xlink:href="ISystemManager_8h.html" target="_top" xlink:title="Declares the interface for managing registered systems.">
<polygon fill="white" stroke="#666666" points="663.5,-184 556.5,-184 556.5,-165 663.5,-165 663.5,-184"/>
<text text-anchor="middle" x="610" y="-172" font-family="Helvetica,sans-Serif" font-size="10.00">ISystemManager.h</text>
</a>
</g>
</g>
<!-- Node1&#45;&gt;Node19 -->
<g id="edge22_Node000001_Node000019" class="edge">
<title>Node1&#45;&gt;Node19</title>
<g id="a_edge22_Node000001_Node000019"><a xlink:title=" ">
<path fill="none" stroke="#63b8ff" d="M478.22,-219.98C504.36,-211.16 545.4,-197.31 574.73,-187.41"/>
<polygon fill="#63b8ff" stroke="#63b8ff" points="576.22,-190.6 584.58,-184.08 573.98,-183.96 576.22,-190.6"/>
</a>
</g>
</g>
<!-- Node7 -->
<g id="Node000007" class="node">
<title>Node7</title>
<g id="a_Node000007"><a xlink:title=" ">
<polygon fill="#e0e0e0" stroke="#999999" points="241,-129 181,-129 181,-110 241,-110 241,-129"/>
<text text-anchor="middle" x="211" y="-117" font-family="Helvetica,sans-Serif" font-size="10.00">iostream</text>
</a>
</g>
</g>
<!-- Node6&#45;&gt;Node7 -->
<g id="edge6_Node000006_Node000007" class="edge">
<title>Node6&#45;&gt;Node7</title>
<g id="a_edge6_Node000006_Node000007"><a xlink:title=" ">
<path fill="none" stroke="#63b8ff" d="M154.76,-164.98C164.77,-157.07 179.89,-145.11 191.93,-135.58"/>
<polygon fill="#63b8ff" stroke="#63b8ff" points="194.37,-138.12 200.04,-129.17 190.03,-132.63 194.37,-138.12"/>
</a>
</g>
</g>
<!-- Node8 -->
<g id="Node000008" class="node">
<title>Node8</title>
<g id="a_Node000008"><a xlink:href="Logger_8h.html" target="_top" xlink:title="Central static logging interface for the application.">
<polygon fill="white" stroke="#666666" points="124.5,-129 57.5,-129 57.5,-110 124.5,-110 124.5,-129"/>
<text text-anchor="middle" x="91" y="-117" font-family="Helvetica,sans-Serif" font-size="10.00">../Logger.h</text>
</a>
</g>
</g>
<!-- Node6&#45;&gt;Node8 -->
<g id="edge7_Node000006_Node000008" class="edge">
<title>Node6&#45;&gt;Node8</title>
<g id="a_edge7_Node000006_Node000008"><a xlink:title=" ">
<path fill="none" stroke="#63b8ff" d="M135.25,-164.75C127.53,-157.03 116.1,-145.6 106.78,-136.28"/>
<polygon fill="#63b8ff" stroke="#63b8ff" points="109.14,-133.69 99.59,-129.09 104.19,-138.64 109.14,-133.69"/>
</a>
</g>
</g>
<!-- Node10 -->
<g id="Node000010" class="node">
<title>Node10</title>
<g id="a_Node000010"><a xlink:href="ISink_8h.html" target="_top" xlink:title="Declares the logging sink interface.">
<polygon fill="white" stroke="#666666" points="192,-74 114,-74 114,-55 192,-55 192,-74"/>
<text text-anchor="middle" x="153" y="-62" font-family="Helvetica,sans-Serif" font-size="10.00">sinks/ISink.h</text>
</a>
</g>
</g>
<!-- Node6&#45;&gt;Node10 -->
<g id="edge12_Node000006_Node000010" class="edge">
<title>Node6&#45;&gt;Node10</title>
<g id="a_edge12_Node000006_Node000010"><a xlink:title=" ">
<path fill="none" stroke="#63b8ff" d="M144.74,-164.66C146.19,-147.17 149.47,-107.8 151.44,-84.27"/>
<polygon fill="#63b8ff" stroke="#63b8ff" points="154.94,-84.41 152.28,-74.16 147.96,-83.83 154.94,-84.41"/>
</a>
</g>
</g>
<!-- Node8&#45;&gt;Node2 -->
<g id="edge8_Node000008_Node000002" class="edge">
<title>Node8&#45;&gt;Node2</title>
<g id="a_edge8_Node000008_Node000002"><a xlink:title=" ">
<path fill="none" stroke="#63b8ff" d="M81.04,-109.98C71.87,-102.15 58.06,-90.34 46.97,-80.86"/>
<polygon fill="#63b8ff" stroke="#63b8ff" points="49.02,-78.01 39.14,-74.17 44.47,-83.33 49.02,-78.01"/>
</a>
</g>
</g>
<!-- Node9 -->
<g id="Node000009" class="node">
<title>Node9</title>
<g id="a_Node000009"><a xlink:title=" ">
<polygon fill="#e0e0e0" stroke="#999999" points="156.5,-19 83.5,-19 83.5,0 156.5,0 156.5,-19"/>
<text text-anchor="middle" x="120" y="-7" font-family="Helvetica,sans-Serif" font-size="10.00">string_view</text>
</a>
</g>
</g>
<!-- Node8&#45;&gt;Node9 -->
<g id="edge9_Node000008_Node000009" class="edge">
<title>Node8&#45;&gt;Node9</title>
<g id="a_edge9_Node000008_Node000009"><a xlink:title=" ">
<path fill="none" stroke="#63b8ff" d="M92.61,-109.8C94.95,-97.5 99.62,-74.36 105,-55 107.43,-46.26 110.58,-36.71 113.37,-28.71"/>
<polygon fill="#63b8ff" stroke="#63b8ff" points="116.67,-29.87 116.73,-19.28 110.07,-27.52 116.67,-29.87"/>
</a>
</g>
</g>
<!-- Node8&#45;&gt;Node10 -->
<g id="edge10_Node000008_Node000010" class="edge">
<title>Node8&#45;&gt;Node10</title>
<g id="a_edge10_Node000008_Node000010"><a xlink:title=" ">
<path fill="none" stroke="#63b8ff" d="M100.96,-109.98C110.13,-102.15 123.94,-90.34 135.03,-80.86"/>
<polygon fill="#63b8ff" stroke="#63b8ff" points="137.53,-83.33 142.86,-74.17 132.98,-78.01 137.53,-83.33"/>
</a>
</g>
</g>
<!-- Node10&#45;&gt;Node9 -->
<g id="edge11_Node000010_Node000009" class="edge">
<title>Node10&#45;&gt;Node9</title>
<g id="a_edge11_Node000010_Node000009"><a xlink:title=" ">
<path fill="none" stroke="#63b8ff" d="M147.55,-54.75C142.99,-47.42 136.33,-36.73 130.71,-27.7"/>
<polygon fill="#63b8ff" stroke="#63b8ff" points="133.6,-25.73 125.35,-19.09 127.66,-29.43 133.6,-25.73"/>
</a>
</g>
</g>
<!-- Node12 -->
<g id="Node000012" class="node">
<title>Node12</title>
<g id="a_Node000012"><a xlink:title=" ">
<polygon fill="#e0e0e0" stroke="#999999" points="532,-74 482,-74 482,-55 532,-55 532,-74"/>
<text text-anchor="middle" x="507" y="-62" font-family="Helvetica,sans-Serif" font-size="10.00">cstdint</text>
</a>
</g>
</g>
<!-- Node11&#45;&gt;Node12 -->
<g id="edge14_Node000011_Node000012" class="edge">
<title>Node11&#45;&gt;Node12</title>
<g id="a_edge14_Node000011_Node000012"><a xlink:title=" ">
<path fill="none" stroke="#63b8ff" d="M570.79,-109.98C559.22,-101.92 541.62,-89.65 527.84,-80.03"/>
<polygon fill="#63b8ff" stroke="#63b8ff" points="529.64,-77.02 519.43,-74.17 525.63,-82.76 529.64,-77.02"/>
</a>
</g>
</g>
<!-- Node13 -->
<g id="Node000013" class="node">
<title>Node13</title>
<g id="a_Node000013"><a xlink:title=" ">
<polygon fill="#e0e0e0" stroke="#999999" points="615.5,-74 550.5,-74 550.5,-55 615.5,-55 615.5,-74"/>
<text text-anchor="middle" x="583" y="-62" font-family="Helvetica,sans-Serif" font-size="10.00">functional</text>
</a>
</g>
</g>
<!-- Node11&#45;&gt;Node13 -->
<g id="edge15_Node000011_Node000013" class="edge">
<title>Node11&#45;&gt;Node13</title>
<g id="a_edge15_Node000011_Node000013"><a xlink:title=" ">
<path fill="none" stroke="#63b8ff" d="M583,-109.75C583,-102.8 583,-92.85 583,-84.13"/>
<polygon fill="#63b8ff" stroke="#63b8ff" points="586.5,-84.09 583,-74.09 579.5,-84.09 586.5,-84.09"/>
</a>
</g>
</g>
<!-- Node11&#45;&gt;Node14 -->
<g id="edge16_Node000011_Node000014" class="edge">
<title>Node11&#45;&gt;Node14</title>
<g id="a_edge16_Node000011_Node000014"><a xlink:title=" ">
<path fill="none" stroke="#63b8ff" d="M597.3,-109.98C611.1,-101.77 632.24,-89.18 648.51,-79.49"/>
<polygon fill="#63b8ff" stroke="#63b8ff" points="650.64,-82.29 657.44,-74.17 647.06,-76.28 650.64,-82.29"/>
</a>
</g>
</g>
<!-- Node15 -->
<g id="Node000015" class="node">
<title>Node15</title>
<g id="a_Node000015"><a xlink:title=" ">
<polygon fill="#e0e0e0" stroke="#999999" points="727,-19 683,-19 683,0 727,0 727,-19"/>
<text text-anchor="middle" x="705" y="-7" font-family="Helvetica,sans-Serif" font-size="10.00">bitset</text>
</a>
</g>
</g>
<!-- Node14&#45;&gt;Node15 -->
<g id="edge17_Node000014_Node000015" class="edge">
<title>Node14&#45;&gt;Node15</title>
<g id="a_edge17_Node000014_Node000015"><a xlink:title=" ">
<path fill="none" stroke="#63b8ff" d="M677.45,-54.75C682.01,-47.42 688.67,-36.73 694.29,-27.7"/>
<polygon fill="#63b8ff" stroke="#63b8ff" points="697.34,-29.43 699.65,-19.09 691.4,-25.73 697.34,-29.43"/>
</a>
</g>
</g>
<!-- Node16 -->
<g id="Node000016" class="node">
<title>Node16</title>
<g id="a_Node000016"><a xlink:title=" ">
<polygon fill="#e0e0e0" stroke="#999999" points="664.5,-19 611.5,-19 611.5,0 664.5,0 664.5,-19"/>
<text text-anchor="middle" x="638" y="-7" font-family="Helvetica,sans-Serif" font-size="10.00">cstddef</text>
</a>
</g>
</g>
<!-- Node14&#45;&gt;Node16 -->
<g id="edge18_Node000014_Node000016" class="edge">
<title>Node14&#45;&gt;Node16</title>
<g id="a_edge18_Node000014_Node000016"><a xlink:title=" ">
<path fill="none" stroke="#63b8ff" d="M666.39,-54.75C661.68,-47.42 654.83,-36.73 649.03,-27.7"/>
<polygon fill="#63b8ff" stroke="#63b8ff" points="651.86,-25.62 643.51,-19.09 645.96,-29.4 651.86,-25.62"/>
</a>
</g>
</g>
<!-- Node17&#45;&gt;Node11 -->
<g id="edge20_Node000017_Node000011" class="edge">
<title>Node17&#45;&gt;Node11</title>
<g id="a_edge20_Node000017_Node000011"><a xlink:title=" ">
<path fill="none" stroke="#63b8ff" d="M692.95,-164.98C671.59,-156.34 638.3,-142.87 613.94,-133.02"/>
<polygon fill="#63b8ff" stroke="#63b8ff" points="615.01,-129.68 604.43,-129.17 612.39,-136.17 615.01,-129.68"/>
</a>
</g>
</g>
<!-- Node18 -->
<g id="Node000018" class="node">
<title>Node18</title>
<g id="a_Node000018"><a xlink:title=" ">
<polygon fill="#e0e0e0" stroke="#999999" points="752,-129 666,-129 666,-110 752,-110 752,-129"/>
<text text-anchor="middle" x="709" y="-117" font-family="Helvetica,sans-Serif" font-size="10.00">unordered_set</text>
</a>
</g>
</g>
<!-- Node17&#45;&gt;Node18 -->
<g id="edge21_Node000017_Node000018" class="edge">
<title>Node17&#45;&gt;Node18</title>
<g id="a_edge21_Node000017_Node000018"><a xlink:title=" ">
<path fill="none" stroke="#63b8ff" d="M713.17,-164.75C712.52,-157.8 711.58,-147.85 710.76,-139.13"/>
<polygon fill="#63b8ff" stroke="#63b8ff" points="714.23,-138.72 709.81,-129.09 707.27,-139.37 714.23,-138.72"/>
</a>
</g>
</g>
<!-- Node19&#45;&gt;Node11 -->
<g id="edge23_Node000019_Node000011" class="edge">
<title>Node19&#45;&gt;Node11</title>
<g id="a_edge23_Node000019_Node000011"><a xlink:title=" ">
<path fill="none" stroke="#63b8ff" d="M605.54,-164.75C601.88,-157.57 596.59,-147.18 592.05,-138.27"/>
<polygon fill="#63b8ff" stroke="#63b8ff" points="595.03,-136.41 587.38,-129.09 588.8,-139.59 595.03,-136.41"/>
</a>
</g>
</g>
<!-- Node19&#45;&gt;Node14 -->
<g id="edge24_Node000019_Node000014" class="edge">
<title>Node19&#45;&gt;Node14</title>
<g id="a_edge24_Node000019_Node000014"><a xlink:title=" ">
<path fill="none" stroke="#63b8ff" d="M615.07,-164.66C625.3,-146.85 648.54,-106.37 661.95,-83.01"/>
<polygon fill="#63b8ff" stroke="#63b8ff" points="665.09,-84.57 667.03,-74.16 659.02,-81.09 665.09,-84.57"/>
</a>
</g>
</g>
</g>
</svg>
